<?xml version="1.0" encoding="UTF-8" standalone="no"?>
<!DOCTYPE svg PUBLIC "-//W3C//DTD SVG 1.1//EN"
 "http://www.w3.org/Graphics/SVG/1.1/DTD/svg11.dtd">
<!-- Generated by graphviz version 2.44.0 (0)
 -->
<!-- Title: CNVCaller::calculateWindowLogRRatio Pages: 1 -->
<svg width="321pt" height="64pt"
 viewBox="0.00 0.00 321.00 64.00" xmlns="http://www.w3.org/2000/svg" xmlns:xlink="http://www.w3.org/1999/xlink">
<g id="graph0" class="graph" transform="scale(1 1) rotate(0) translate(4 60)">
<title>CNVCaller::calculateWindowLogRRatio</title>
<!-- Node1 -->
<g id="Node000001" class="node">
<title>Node1</title>
<g id="a_Node000001"><a xlink:title=" ">
<polygon fill="#999999" stroke="#666666" points="143,-42.5 0,-42.5 0,-12.5 143,-12.5 143,-42.5"/>
<text text-anchor="start" x="8" y="-30.5" font-family="Helvetica" font-size="10.00">CNVCaller::calculateWindow</text>
<text text-anchor="middle" x="71.5" y="-19.5" font-family="Helvetica" font-size="10.00">LogRRatio</text>
</a>
</g>
</g>
<!-- Node2 -->
<g id="Node000002" class="node">
<title>Node2</title>
<g id="a_Node000002"><a xlink:href="class_input_data.html#a25f727c1d41c775b4c136c3c5a7ed11c" target="_top" xlink:title=" ">
<polygon fill="white" stroke="#666666" points="313,-56 179,-56 179,-37 313,-37 313,-56"/>
<text text-anchor="middle" x="246" y="-44" font-family="Helvetica" font-size="10.00">InputData::getBAMFilepath</text>
</a>
</g>
</g>
<!-- Node1&#45;&gt;Node2 -->
<g id="edge1_Node000001_Node000002" class="edge">
<title>Node1&#45;&gt;Node2</title>
<g id="a_edge1_Node000001_Node000002"><a xlink:title=" ">
<path fill="none" stroke="#63b8ff" d="M143.16,-35.28C151.65,-36.22 160.35,-37.18 168.92,-38.12"/>
<polygon fill="#63b8ff" stroke="#63b8ff" points="168.57,-41.6 178.89,-39.22 169.34,-34.64 168.57,-41.6"/>
</a>
</g>
</g>
<!-- Node3 -->
<g id="Node000003" class="node">
<title>Node3</title>
<g id="a_Node000003"><a xlink:href="class_input_data.html#a77960f595c62556bb7d0ac5f091d8f59" target="_top" xlink:title=" ">
<polygon fill="white" stroke="#666666" points="308,-19 184,-19 184,0 308,0 308,-19"/>
<text text-anchor="middle" x="246" y="-7" font-family="Helvetica" font-size="10.00">InputData::getRegionChr</text>
</a>
</g>
</g>
<!-- Node1&#45;&gt;Node3 -->
<g id="edge2_Node000001_Node000003" class="edge">
<title>Node1&#45;&gt;Node3</title>
<g id="a_edge2_Node000001_Node000003"><a xlink:title=" ">
<path fill="none" stroke="#63b8ff" d="M143.16,-20.13C153.28,-19.07 163.69,-17.98 173.82,-16.93"/>
<polygon fill="#63b8ff" stroke="#63b8ff" points="174.25,-20.4 183.83,-15.88 173.52,-13.44 174.25,-20.4"/>
</a>
</g>
</g>
</g>
</svg>
