<?xml version="1.0" encoding="UTF-8" standalone="no"?>
<!DOCTYPE svg PUBLIC "-//W3C//DTD SVG 1.1//EN"
 "http://www.w3.org/Graphics/SVG/1.1/DTD/svg11.dtd">
<!-- Generated by graphviz version 2.44.0 (0)
 -->
<!-- Title: InputData::getRegionChr Pages: 1 -->
<svg width="808pt" height="230pt"
 viewBox="0.00 0.00 808.00 230.40" xmlns="http://www.w3.org/2000/svg" xmlns:xlink="http://www.w3.org/1999/xlink">
<g id="graph0" class="graph" transform="scale(1 1) rotate(0) translate(4 226.4)">
<title>InputData::getRegionChr</title>
<!-- Node1 -->
<g id="Node000001" class="node">
<title>Node1</title>
<g id="a_Node000001"><a xlink:title=" ">
<polygon fill="#999999" stroke="#666666" points="800,-126 676,-126 676,-107 800,-107 800,-126"/>
<text text-anchor="middle" x="738" y="-114" font-family="Helvetica" font-size="10.00">InputData::getRegionChr</text>
</a>
</g>
</g>
<!-- Node2 -->
<g id="Node000002" class="node">
<title>Node2</title>
<g id="a_Node000002"><a xlink:href="class_c_n_v_caller.html#a1a4f00ed62c012caa5d5139ee8be81a9" target="_top" xlink:title=" ">
<polygon fill="white" stroke="#666666" points="461,-177.5 303,-177.5 303,-147.5 461,-147.5 461,-177.5"/>
<text text-anchor="start" x="311" y="-165.5" font-family="Helvetica" font-size="10.00">CNVCaller::calculateLogRRatios</text>
<text text-anchor="middle" x="382" y="-154.5" font-family="Helvetica" font-size="10.00">AtSNPS</text>
</a>
</g>
</g>
<!-- Node1&#45;&gt;Node2 -->
<g id="edge1_Node000001_Node000002" class="edge">
<title>Node1&#45;&gt;Node2</title>
<g id="a_edge1_Node000001_Node000002"><a xlink:title=" ">
<path fill="none" stroke="#63b8ff" d="M725.17,-134.53C709.05,-157.25 677.82,-195.18 640,-210.5 560.91,-242.54 459.38,-201.63 411.02,-177.64"/>
<polygon fill="#63b8ff" stroke="#63b8ff" points="728.18,-136.33 730.95,-126.1 722.4,-132.37 728.18,-136.33"/>
</a>
</g>
</g>
<!-- Node3 -->
<g id="Node000003" class="node">
<title>Node3</title>
<g id="a_Node000003"><a xlink:href="class_c_n_v_caller.html#a49824c662095f9af9a38056dadc8933f" target="_top" xlink:title=" ">
<polygon fill="white" stroke="#666666" points="267,-83 185,-83 185,-64 267,-64 267,-83"/>
<text text-anchor="middle" x="226" y="-71" font-family="Helvetica" font-size="10.00">CNVCaller::run</text>
</a>
</g>
</g>
<!-- Node1&#45;&gt;Node3 -->
<g id="edge11_Node000001_Node000003" class="edge">
<title>Node1&#45;&gt;Node3</title>
<g id="a_edge11_Node000001_Node000003"><a xlink:title=" ">
<path fill="none" stroke="#63b8ff" d="M665.78,-110.49C557.1,-101.33 353.43,-84.16 267.21,-76.89"/>
<polygon fill="#63b8ff" stroke="#63b8ff" points="665.73,-114 675.99,-111.36 666.32,-107.03 665.73,-114"/>
</a>
</g>
</g>
<!-- Node6 -->
<g id="Node000006" class="node">
<title>Node6</title>
<g id="a_Node000006"><a xlink:href="class_c_n_v_caller.html#adf3674729125dd11ec7c6ba9d5781b30" target="_top" xlink:title="Calculate the mean chromosome coverage.">
<polygon fill="white" stroke="#666666" points="634,-201.5 503,-201.5 503,-171.5 634,-171.5 634,-201.5"/>
<text text-anchor="start" x="511" y="-189.5" font-family="Helvetica" font-size="10.00">CNVCaller::calculateMean</text>
<text text-anchor="middle" x="568.5" y="-178.5" font-family="Helvetica" font-size="10.00">ChromosomeCoverage</text>
</a>
</g>
</g>
<!-- Node1&#45;&gt;Node6 -->
<g id="edge5_Node000001_Node000006" class="edge">
<title>Node1&#45;&gt;Node6</title>
<g id="a_edge5_Node000001_Node000006"><a xlink:title=" ">
<path fill="none" stroke="#63b8ff" d="M709.25,-130.7C690.06,-140.27 663.79,-152.85 640,-162.5 632.45,-165.56 624.35,-168.57 616.42,-171.37"/>
<polygon fill="#63b8ff" stroke="#63b8ff" points="710.96,-133.76 718.33,-126.14 707.82,-127.5 710.96,-133.76"/>
</a>
</g>
</g>
<!-- Node7 -->
<g id="Node000007" class="node">
<title>Node7</title>
<g id="a_Node000007"><a xlink:href="class_c_n_v_caller.html#ad4fa39b6107dc8fd88e45ed988fc5ece" target="_top" xlink:title=" ">
<polygon fill="white" stroke="#666666" points="640,-153.5 497,-153.5 497,-123.5 640,-123.5 640,-153.5"/>
<text text-anchor="start" x="505" y="-141.5" font-family="Helvetica" font-size="10.00">CNVCaller::calculateWindow</text>
<text text-anchor="middle" x="568.5" y="-130.5" font-family="Helvetica" font-size="10.00">LogRRatio</text>
</a>
</g>
</g>
<!-- Node1&#45;&gt;Node7 -->
<g id="edge7_Node000001_Node000007" class="edge">
<title>Node1&#45;&gt;Node7</title>
<g id="a_edge7_Node000001_Node000007"><a xlink:title=" ">
<path fill="none" stroke="#63b8ff" d="M665.49,-125.89C657.14,-126.99 648.61,-128.11 640.27,-129.21"/>
<polygon fill="#63b8ff" stroke="#63b8ff" points="666.12,-129.34 675.58,-124.57 665.21,-122.4 666.12,-129.34"/>
</a>
</g>
</g>
<!-- Node8 -->
<g id="Node000008" class="node">
<title>Node8</title>
<g id="a_Node000008"><a xlink:href="class_c_n_v_caller.html#a86849c0439b84dfc1eb3fab7a4b4b6a0" target="_top" xlink:title=" ">
<polygon fill="white" stroke="#666666" points="456,-67.5 308,-67.5 308,-37.5 456,-37.5 456,-67.5"/>
<text text-anchor="start" x="316" y="-55.5" font-family="Helvetica" font-size="10.00">CNVCaller::getSNPPopulation</text>
<text text-anchor="middle" x="382" y="-44.5" font-family="Helvetica" font-size="10.00">Frequencies</text>
</a>
</g>
</g>
<!-- Node1&#45;&gt;Node8 -->
<g id="edge9_Node000001_Node000008" class="edge">
<title>Node1&#45;&gt;Node8</title>
<g id="a_edge9_Node000001_Node000008"><a xlink:title=" ">
<path fill="none" stroke="#63b8ff" d="M705.61,-103.05C686.89,-95.57 662.46,-86.74 640,-81.5 578.89,-67.24 507.92,-59.9 456.05,-56.18"/>
<polygon fill="#63b8ff" stroke="#63b8ff" points="704.52,-106.39 715.1,-106.93 707.16,-99.91 704.52,-106.39"/>
</a>
</g>
</g>
<!-- Node9 -->
<g id="Node000009" class="node">
<title>Node9</title>
<g id="a_Node000009"><a xlink:href="class_c_n_v_caller.html#a3b1c3b8698fd0b1b11ef1f5227b10f64" target="_top" xlink:title=" ">
<polygon fill="white" stroke="#666666" points="440.5,-19 323.5,-19 323.5,0 440.5,0 440.5,-19"/>
<text text-anchor="middle" x="382" y="-7" font-family="Helvetica" font-size="10.00">CNVCaller::saveToTSV</text>
</a>
</g>
</g>
<!-- Node1&#45;&gt;Node9 -->
<g id="edge12_Node000001_Node000009" class="edge">
<title>Node1&#45;&gt;Node9</title>
<g id="a_edge12_Node000001_Node000009"><a xlink:title=" ">
<path fill="none" stroke="#63b8ff" d="M716.82,-100.87C697.98,-87.07 668.56,-67.49 640,-56.5 574.28,-31.21 493.75,-19.3 440.55,-13.86"/>
<polygon fill="#63b8ff" stroke="#63b8ff" points="714.83,-103.75 724.93,-106.94 719.02,-98.15 714.83,-103.75"/>
</a>
</g>
</g>
<!-- Node2&#45;&gt;Node3 -->
<g id="edge2_Node000002_Node000003" class="edge">
<title>Node2&#45;&gt;Node3</title>
<g id="a_edge2_Node000002_Node000003"><a xlink:title=" ">
<path fill="none" stroke="#63b8ff" d="M345.85,-142.18C313.87,-123.71 268.08,-97.24 243.73,-83.17"/>
<polygon fill="#63b8ff" stroke="#63b8ff" points="344.47,-145.43 354.88,-147.4 347.97,-139.37 344.47,-145.43"/>
</a>
</g>
</g>
<!-- Node4 -->
<g id="Node000004" class="node">
<title>Node4</title>
<g id="a_Node000004"><a xlink:href="class_context_s_v.html#ac9d32b6e28e5bfdf10e314db0e90e4cd" target="_top" xlink:title=" ">
<polygon fill="white" stroke="#666666" points="149,-83 66,-83 66,-64 149,-64 149,-83"/>
<text text-anchor="middle" x="107.5" y="-71" font-family="Helvetica" font-size="10.00">ContextSV::run</text>
</a>
</g>
</g>
<!-- Node3&#45;&gt;Node4 -->
<g id="edge3_Node000003_Node000004" class="edge">
<title>Node3&#45;&gt;Node4</title>
<g id="a_edge3_Node000003_Node000004"><a xlink:title=" ">
<path fill="none" stroke="#63b8ff" d="M174.65,-73.5C166.1,-73.5 157.32,-73.5 149.06,-73.5"/>
<polygon fill="#63b8ff" stroke="#63b8ff" points="174.91,-77 184.91,-73.5 174.91,-70 174.91,-77"/>
</a>
</g>
</g>
<!-- Node5 -->
<g id="Node000005" class="node">
<title>Node5</title>
<g id="a_Node000005"><a xlink:href="swig__interface_8cpp.html#ade07e2f2bb85b7aaac8af156f3e962f6" target="_top" xlink:title=" ">
<polygon fill="white" stroke="#666666" points="30,-83 0,-83 0,-64 30,-64 30,-83"/>
<text text-anchor="middle" x="15" y="-71" font-family="Helvetica" font-size="10.00">run</text>
</a>
</g>
</g>
<!-- Node4&#45;&gt;Node5 -->
<g id="edge4_Node000004_Node000005" class="edge">
<title>Node4&#45;&gt;Node5</title>
<g id="a_edge4_Node000004_Node000005"><a xlink:title=" ">
<path fill="none" stroke="#63b8ff" d="M55.56,-73.5C46.21,-73.5 37.19,-73.5 30.13,-73.5"/>
<polygon fill="#63b8ff" stroke="#63b8ff" points="55.75,-77 65.75,-73.5 55.75,-70 55.75,-77"/>
</a>
</g>
</g>
<!-- Node6&#45;&gt;Node2 -->
<g id="edge6_Node000006_Node000002" class="edge">
<title>Node6&#45;&gt;Node2</title>
<g id="a_edge6_Node000006_Node000002"><a xlink:title=" ">
<path fill="none" stroke="#63b8ff" d="M493.02,-176.81C482.52,-175.45 471.7,-174.04 461.14,-172.66"/>
<polygon fill="#63b8ff" stroke="#63b8ff" points="492.6,-180.29 502.97,-178.11 493.51,-173.35 492.6,-180.29"/>
</a>
</g>
</g>
<!-- Node7&#45;&gt;Node2 -->
<g id="edge8_Node000007_Node000002" class="edge">
<title>Node7&#45;&gt;Node2</title>
<g id="a_edge8_Node000007_Node000002"><a xlink:title=" ">
<path fill="none" stroke="#63b8ff" d="M486.99,-148.97C478.43,-150.09 469.73,-151.22 461.19,-152.33"/>
<polygon fill="#63b8ff" stroke="#63b8ff" points="487.49,-152.44 496.96,-147.68 486.59,-145.5 487.49,-152.44"/>
</a>
</g>
</g>
<!-- Node8&#45;&gt;Node3 -->
<g id="edge10_Node000008_Node000003" class="edge">
<title>Node8&#45;&gt;Node3</title>
<g id="a_edge10_Node000008_Node000003"><a xlink:title=" ">
<path fill="none" stroke="#63b8ff" d="M297.47,-63.89C286.93,-65.33 276.55,-66.74 267.13,-68.03"/>
<polygon fill="#63b8ff" stroke="#63b8ff" points="298.17,-67.33 307.61,-62.51 297.23,-60.39 298.17,-67.33"/>
</a>
</g>
</g>
<!-- Node9&#45;&gt;Node3 -->
<g id="edge13_Node000009_Node000003" class="edge">
<title>Node9&#45;&gt;Node3</title>
<g id="a_edge13_Node000009_Node000003"><a xlink:title=" ">
<path fill="none" stroke="#63b8ff" d="M322.35,-21.79C315.73,-23.76 309.16,-25.99 303,-28.5 279.71,-37.99 255.07,-53.79 240.37,-63.92"/>
<polygon fill="#63b8ff" stroke="#63b8ff" points="323.34,-25.14 332.03,-19.08 321.46,-18.4 323.34,-25.14"/>
</a>
</g>
</g>
</g>
</svg>
