<?xml version="1.0" encoding="UTF-8" standalone="no"?>
<!DOCTYPE svg PUBLIC "-//W3C//DTD SVG 1.1//EN"
 "http://www.w3.org/Graphics/SVG/1.1/DTD/svg11.dtd">
<!-- Generated by graphviz version 2.44.0 (0)
 -->
<!-- Title: SVCaller::run Pages: 1 -->
<svg width="540pt" height="138pt"
 viewBox="0.00 0.00 540.00 138.00" xmlns="http://www.w3.org/2000/svg" xmlns:xlink="http://www.w3.org/1999/xlink">
<g id="graph0" class="graph" transform="scale(1 1) rotate(0) translate(4 134)">
<title>SVCaller::run</title>
<!-- Node1 -->
<g id="Node000001" class="node">
<title>Node1</title>
<g id="a_Node000001"><a xlink:title=" ">
<polygon fill="#999999" stroke="#666666" points="73,-74 0,-74 0,-55 73,-55 73,-74"/>
<text text-anchor="middle" x="36.5" y="-62" font-family="Helvetica" font-size="10.00">SVCaller::run</text>
</a>
</g>
</g>
<!-- Node2 -->
<g id="Node000002" class="node">
<title>Node2</title>
<g id="a_Node000002"><a xlink:href="class_s_v_caller.html#a8d587b8fffa1948abd8a78a376b2df23" target="_top" xlink:title=" ">
<polygon fill="white" stroke="#666666" points="255,-79.5 109,-79.5 109,-49.5 255,-49.5 255,-79.5"/>
<text text-anchor="start" x="117" y="-67.5" font-family="Helvetica" font-size="10.00">SVCaller::detectSVsFromSplit</text>
<text text-anchor="middle" x="182" y="-56.5" font-family="Helvetica" font-size="10.00">Reads</text>
</a>
</g>
</g>
<!-- Node1&#45;&gt;Node2 -->
<g id="edge1_Node000001_Node000002" class="edge">
<title>Node1&#45;&gt;Node2</title>
<g id="a_edge1_Node000001_Node000002"><a xlink:title=" ">
<path fill="none" stroke="#63b8ff" d="M73.34,-64.5C81.24,-64.5 89.93,-64.5 98.83,-64.5"/>
<polygon fill="#63b8ff" stroke="#63b8ff" points="98.94,-68 108.94,-64.5 98.94,-61 98.94,-68"/>
</a>
</g>
</g>
<!-- Node3 -->
<g id="Node000003" class="node">
<title>Node3</title>
<g id="a_Node000003"><a xlink:href="class_s_v_data.html#a072841694b895e3ab438695f22ebc0da" target="_top" xlink:title=" ">
<polygon fill="white" stroke="#666666" points="408,-130 308,-130 308,-111 408,-111 408,-130"/>
<text text-anchor="middle" x="358" y="-118" font-family="Helvetica" font-size="10.00">SVData::addSVCall</text>
</a>
</g>
</g>
<!-- Node2&#45;&gt;Node3 -->
<g id="edge2_Node000002_Node000003" class="edge">
<title>Node2&#45;&gt;Node3</title>
<g id="a_edge2_Node000002_Node000003"><a xlink:title=" ">
<path fill="none" stroke="#63b8ff" d="M223.54,-79.54C243.7,-86.83 268.51,-95.49 291,-102.5 297.18,-104.43 303.71,-106.35 310.17,-108.18"/>
<polygon fill="#63b8ff" stroke="#63b8ff" points="309.64,-111.66 320.21,-110.97 311.51,-104.92 309.64,-111.66"/>
</a>
</g>
</g>
<!-- Node5 -->
<g id="Node000005" class="node">
<title>Node5</title>
<g id="a_Node000005"><a xlink:href="class_input_data.html#a25f727c1d41c775b4c136c3c5a7ed11c" target="_top" xlink:title=" ">
<polygon fill="white" stroke="#666666" points="425,-93 291,-93 291,-74 425,-74 425,-93"/>
<text text-anchor="middle" x="358" y="-81" font-family="Helvetica" font-size="10.00">InputData::getBAMFilepath</text>
</a>
</g>
</g>
<!-- Node2&#45;&gt;Node5 -->
<g id="edge4_Node000002_Node000005" class="edge">
<title>Node2&#45;&gt;Node5</title>
<g id="a_edge4_Node000002_Node000005"><a xlink:title=" ">
<path fill="none" stroke="#63b8ff" d="M255.03,-72.37C263.56,-73.3 272.29,-74.25 280.88,-75.19"/>
<polygon fill="#63b8ff" stroke="#63b8ff" points="280.56,-78.67 290.88,-76.28 281.32,-71.72 280.56,-78.67"/>
</a>
</g>
</g>
<!-- Node6 -->
<g id="Node000006" class="node">
<title>Node6</title>
<g id="a_Node000006"><a xlink:href="class_input_data.html#acfa7764396b5cc4692b460afe66c0b4a" target="_top" xlink:title=" ">
<polygon fill="white" stroke="#666666" points="423,-56 293,-56 293,-37 423,-37 423,-56"/>
<text text-anchor="middle" x="358" y="-44" font-family="Helvetica" font-size="10.00">InputData::getRefGenome</text>
</a>
</g>
</g>
<!-- Node2&#45;&gt;Node6 -->
<g id="edge5_Node000002_Node000006" class="edge">
<title>Node2&#45;&gt;Node6</title>
<g id="a_edge5_Node000002_Node000006"><a xlink:title=" ">
<path fill="none" stroke="#63b8ff" d="M255.03,-57.05C264.13,-56.11 273.46,-55.14 282.6,-54.2"/>
<polygon fill="#63b8ff" stroke="#63b8ff" points="283.23,-57.65 292.81,-53.14 282.51,-50.69 283.23,-57.65"/>
</a>
</g>
</g>
<!-- Node7 -->
<g id="Node000007" class="node">
<title>Node7</title>
<g id="a_Node000007"><a xlink:href="class_input_data.html#a7017092982665dbd46128bbf69f9e096" target="_top" xlink:title=" ">
<polygon fill="white" stroke="#666666" points="412,-19 304,-19 304,0 412,0 412,-19"/>
<text text-anchor="middle" x="358" y="-7" font-family="Helvetica" font-size="10.00">InputData::getRegion</text>
</a>
</g>
</g>
<!-- Node2&#45;&gt;Node7 -->
<g id="edge6_Node000002_Node000007" class="edge">
<title>Node2&#45;&gt;Node7</title>
<g id="a_edge6_Node000002_Node000007"><a xlink:title=" ">
<path fill="none" stroke="#63b8ff" d="M226.74,-49.46C246.34,-42.84 269.77,-35.09 291,-28.5 298.05,-26.31 305.54,-24.07 312.86,-21.93"/>
<polygon fill="#63b8ff" stroke="#63b8ff" points="314.03,-25.24 322.66,-19.09 312.09,-18.51 314.03,-25.24"/>
</a>
</g>
</g>
<!-- Node4 -->
<g id="Node000004" class="node">
<title>Node4</title>
<g id="a_Node000004"><a xlink:href="class_s_v_data.html#abdae1eb340178fea8dc002462ede16d9" target="_top" xlink:title=" ">
<polygon fill="white" stroke="#666666" points="532,-130 461,-130 461,-111 532,-111 532,-130"/>
<text text-anchor="middle" x="496.5" y="-118" font-family="Helvetica" font-size="10.00">SVData::end</text>
</a>
</g>
</g>
<!-- Node3&#45;&gt;Node4 -->
<g id="edge3_Node000003_Node000004" class="edge">
<title>Node3&#45;&gt;Node4</title>
<g id="a_edge3_Node000003_Node000004"><a xlink:title=" ">
<path fill="none" stroke="#63b8ff" d="M408.28,-120.5C422.15,-120.5 437.16,-120.5 450.76,-120.5"/>
<polygon fill="#63b8ff" stroke="#63b8ff" points="450.83,-124 460.83,-120.5 450.83,-117 450.83,-124"/>
</a>
</g>
</g>
</g>
</svg>
