<?xml version="1.0" encoding="UTF-8" standalone="no"?>
<!DOCTYPE svg PUBLIC "-//W3C//DTD SVG 1.1//EN"
 "http://www.w3.org/Graphics/SVG/1.1/DTD/svg11.dtd">
<!-- Generated by graphviz version 2.44.0 (0)
 -->
<!-- Title: InputData::getRefGenome Pages: 1 -->
<svg width="627pt" height="94pt"
 viewBox="0.00 0.00 627.00 94.00" xmlns="http://www.w3.org/2000/svg" xmlns:xlink="http://www.w3.org/1999/xlink">
<g id="graph0" class="graph" transform="scale(1 1) rotate(0) translate(4 90)">
<title>InputData::getRefGenome</title>
<!-- Node1 -->
<g id="Node000001" class="node">
<title>Node1</title>
<g id="a_Node000001"><a xlink:title=" ">
<polygon fill="#999999" stroke="#666666" points="619,-43 489,-43 489,-24 619,-24 619,-43"/>
<text text-anchor="middle" x="554" y="-31" font-family="Helvetica" font-size="10.00">InputData::getRefGenome</text>
</a>
</g>
</g>
<!-- Node2 -->
<g id="Node000002" class="node">
<title>Node2</title>
<g id="a_Node000002"><a xlink:href="class_s_v_caller.html#a3dc207ba0e851cfd643e70d3b08783cf" target="_top" xlink:title=" ">
<polygon fill="white" stroke="#666666" points="453,-86 294,-86 294,-67 453,-67 453,-86"/>
<text text-anchor="middle" x="373.5" y="-74" font-family="Helvetica" font-size="10.00">SVCaller::detectSVsFromCIGAR</text>
</a>
</g>
</g>
<!-- Node1&#45;&gt;Node2 -->
<g id="edge1_Node000001_Node000002" class="edge">
<title>Node1&#45;&gt;Node2</title>
<g id="a_edge1_Node000001_Node000002"><a xlink:title=" ">
<path fill="none" stroke="#63b8ff" d="M503.32,-45.47C475.13,-52.26 440.33,-60.64 414,-66.98"/>
<polygon fill="#63b8ff" stroke="#63b8ff" points="504.48,-48.79 513.39,-43.04 502.84,-41.98 504.48,-48.79"/>
</a>
</g>
</g>
<!-- Node3 -->
<g id="Node000003" class="node">
<title>Node3</title>
<g id="a_Node000003"><a xlink:href="class_s_v_caller.html#a8d587b8fffa1948abd8a78a376b2df23" target="_top" xlink:title=" ">
<polygon fill="white" stroke="#666666" points="446.5,-48.5 300.5,-48.5 300.5,-18.5 446.5,-18.5 446.5,-48.5"/>
<text text-anchor="start" x="308.5" y="-36.5" font-family="Helvetica" font-size="10.00">SVCaller::detectSVsFromSplit</text>
<text text-anchor="middle" x="373.5" y="-25.5" font-family="Helvetica" font-size="10.00">Reads</text>
</a>
</g>
</g>
<!-- Node1&#45;&gt;Node3 -->
<g id="edge2_Node000001_Node000003" class="edge">
<title>Node1&#45;&gt;Node3</title>
<g id="a_edge2_Node000001_Node000003"><a xlink:title=" ">
<path fill="none" stroke="#63b8ff" d="M478.73,-33.5C468.1,-33.5 457.18,-33.5 446.6,-33.5"/>
<polygon fill="#63b8ff" stroke="#63b8ff" points="478.81,-37 488.81,-33.5 478.81,-30 478.81,-37"/>
</a>
</g>
</g>
<!-- Node5 -->
<g id="Node000005" class="node">
<title>Node5</title>
<g id="a_Node000005"><a xlink:href="class_context_s_v.html#ac9d32b6e28e5bfdf10e314db0e90e4cd" target="_top" xlink:title=" ">
<polygon fill="white" stroke="#666666" points="149,-19 66,-19 66,0 149,0 149,-19"/>
<text text-anchor="middle" x="107.5" y="-7" font-family="Helvetica" font-size="10.00">ContextSV::run</text>
</a>
</g>
</g>
<!-- Node1&#45;&gt;Node5 -->
<g id="edge6_Node000001_Node000005" class="edge">
<title>Node1&#45;&gt;Node5</title>
<g id="a_edge6_Node000001_Node000005"><a xlink:title=" ">
<path fill="none" stroke="#63b8ff" d="M511.31,-21.17C493.52,-16.52 472.42,-11.8 453,-9.5 343.86,3.41 213.91,-2.21 149.25,-6.41"/>
<polygon fill="#63b8ff" stroke="#63b8ff" points="510.8,-24.66 521.37,-23.89 512.63,-17.9 510.8,-24.66"/>
</a>
</g>
</g>
<!-- Node4 -->
<g id="Node000004" class="node">
<title>Node4</title>
<g id="a_Node000004"><a xlink:href="class_s_v_caller.html#a61ab472662c7fa46bf2d6e6d71f0441f" target="_top" xlink:title=" ">
<polygon fill="white" stroke="#666666" points="258,-40 185,-40 185,-21 258,-21 258,-40"/>
<text text-anchor="middle" x="221.5" y="-28" font-family="Helvetica" font-size="10.00">SVCaller::run</text>
</a>
</g>
</g>
<!-- Node3&#45;&gt;Node4 -->
<g id="edge3_Node000003_Node000004" class="edge">
<title>Node3&#45;&gt;Node4</title>
<g id="a_edge3_Node000003_Node000004"><a xlink:title=" ">
<path fill="none" stroke="#63b8ff" d="M289.92,-31.85C278.84,-31.63 267.98,-31.41 258.32,-31.22"/>
<polygon fill="#63b8ff" stroke="#63b8ff" points="290.07,-35.35 300.14,-32.05 290.21,-28.35 290.07,-35.35"/>
</a>
</g>
</g>
<!-- Node4&#45;&gt;Node5 -->
<g id="edge4_Node000004_Node000005" class="edge">
<title>Node4&#45;&gt;Node5</title>
<g id="a_edge4_Node000004_Node000005"><a xlink:title=" ">
<path fill="none" stroke="#63b8ff" d="M174.72,-21.92C166.32,-20.34 157.6,-18.71 149.36,-17.16"/>
<polygon fill="#63b8ff" stroke="#63b8ff" points="174.28,-25.39 184.75,-23.8 175.57,-18.51 174.28,-25.39"/>
</a>
</g>
</g>
<!-- Node6 -->
<g id="Node000006" class="node">
<title>Node6</title>
<g id="a_Node000006"><a xlink:href="swig__interface_8cpp.html#ade07e2f2bb85b7aaac8af156f3e962f6" target="_top" xlink:title=" ">
<polygon fill="white" stroke="#666666" points="30,-19 0,-19 0,0 30,0 30,-19"/>
<text text-anchor="middle" x="15" y="-7" font-family="Helvetica" font-size="10.00">run</text>
</a>
</g>
</g>
<!-- Node5&#45;&gt;Node6 -->
<g id="edge5_Node000005_Node000006" class="edge">
<title>Node5&#45;&gt;Node6</title>
<g id="a_edge5_Node000005_Node000006"><a xlink:title=" ">
<path fill="none" stroke="#63b8ff" d="M55.56,-9.5C46.21,-9.5 37.19,-9.5 30.13,-9.5"/>
<polygon fill="#63b8ff" stroke="#63b8ff" points="55.75,-13 65.75,-9.5 55.75,-6 55.75,-13"/>
</a>
</g>
</g>
</g>
</svg>
