<?xml version="1.0" encoding="UTF-8" standalone="no"?>
<!DOCTYPE svg PUBLIC "-//W3C//DTD SVG 1.1//EN"
 "http://www.w3.org/Graphics/SVG/1.1/DTD/svg11.dtd">
<!-- Generated by graphviz version 2.44.0 (0)
 -->
<!-- Title: SVCaller::detectSVsFromSplitReads Pages: 1 -->
<svg width="431pt" height="138pt"
 viewBox="0.00 0.00 431.00 138.00" xmlns="http://www.w3.org/2000/svg" xmlns:xlink="http://www.w3.org/1999/xlink">
<g id="graph0" class="graph" transform="scale(1 1) rotate(0) translate(4 134)">
<title>SVCaller::detectSVsFromSplitReads</title>
<!-- Node1 -->
<g id="Node000001" class="node">
<title>Node1</title>
<g id="a_Node000001"><a xlink:title=" ">
<polygon fill="#999999" stroke="#666666" points="146,-79.5 0,-79.5 0,-49.5 146,-49.5 146,-79.5"/>
<text text-anchor="start" x="8" y="-67.5" font-family="Helvetica" font-size="10.00">SVCaller::detectSVsFromSplit</text>
<text text-anchor="middle" x="73" y="-56.5" font-family="Helvetica" font-size="10.00">Reads</text>
</a>
</g>
</g>
<!-- Node2 -->
<g id="Node000002" class="node">
<title>Node2</title>
<g id="a_Node000002"><a xlink:href="class_s_v_data.html#a072841694b895e3ab438695f22ebc0da" target="_top" xlink:title=" ">
<polygon fill="white" stroke="#666666" points="299,-130 199,-130 199,-111 299,-111 299,-130"/>
<text text-anchor="middle" x="249" y="-118" font-family="Helvetica" font-size="10.00">SVData::addSVCall</text>
</a>
</g>
</g>
<!-- Node1&#45;&gt;Node2 -->
<g id="edge1_Node000001_Node000002" class="edge">
<title>Node1&#45;&gt;Node2</title>
<g id="a_edge1_Node000001_Node000002"><a xlink:title=" ">
<path fill="none" stroke="#63b8ff" d="M114.54,-79.54C134.7,-86.83 159.51,-95.49 182,-102.5 188.18,-104.43 194.71,-106.35 201.17,-108.18"/>
<polygon fill="#63b8ff" stroke="#63b8ff" points="200.64,-111.66 211.21,-110.97 202.51,-104.92 200.64,-111.66"/>
</a>
</g>
</g>
<!-- Node4 -->
<g id="Node000004" class="node">
<title>Node4</title>
<g id="a_Node000004"><a xlink:href="class_input_data.html#a25f727c1d41c775b4c136c3c5a7ed11c" target="_top" xlink:title=" ">
<polygon fill="white" stroke="#666666" points="316,-93 182,-93 182,-74 316,-74 316,-93"/>
<text text-anchor="middle" x="249" y="-81" font-family="Helvetica" font-size="10.00">InputData::getBAMFilepath</text>
</a>
</g>
</g>
<!-- Node1&#45;&gt;Node4 -->
<g id="edge3_Node000001_Node000004" class="edge">
<title>Node1&#45;&gt;Node4</title>
<g id="a_edge3_Node000001_Node000004"><a xlink:title=" ">
<path fill="none" stroke="#63b8ff" d="M146.03,-72.37C154.56,-73.3 163.29,-74.25 171.88,-75.19"/>
<polygon fill="#63b8ff" stroke="#63b8ff" points="171.56,-78.67 181.88,-76.28 172.32,-71.72 171.56,-78.67"/>
</a>
</g>
</g>
<!-- Node5 -->
<g id="Node000005" class="node">
<title>Node5</title>
<g id="a_Node000005"><a xlink:href="class_input_data.html#acfa7764396b5cc4692b460afe66c0b4a" target="_top" xlink:title=" ">
<polygon fill="white" stroke="#666666" points="314,-56 184,-56 184,-37 314,-37 314,-56"/>
<text text-anchor="middle" x="249" y="-44" font-family="Helvetica" font-size="10.00">InputData::getRefGenome</text>
</a>
</g>
</g>
<!-- Node1&#45;&gt;Node5 -->
<g id="edge4_Node000001_Node000005" class="edge">
<title>Node1&#45;&gt;Node5</title>
<g id="a_edge4_Node000001_Node000005"><a xlink:title=" ">
<path fill="none" stroke="#63b8ff" d="M146.03,-57.05C155.13,-56.11 164.46,-55.14 173.6,-54.2"/>
<polygon fill="#63b8ff" stroke="#63b8ff" points="174.23,-57.65 183.81,-53.14 173.51,-50.69 174.23,-57.65"/>
</a>
</g>
</g>
<!-- Node6 -->
<g id="Node000006" class="node">
<title>Node6</title>
<g id="a_Node000006"><a xlink:href="class_input_data.html#a7017092982665dbd46128bbf69f9e096" target="_top" xlink:title=" ">
<polygon fill="white" stroke="#666666" points="303,-19 195,-19 195,0 303,0 303,-19"/>
<text text-anchor="middle" x="249" y="-7" font-family="Helvetica" font-size="10.00">InputData::getRegion</text>
</a>
</g>
</g>
<!-- Node1&#45;&gt;Node6 -->
<g id="edge5_Node000001_Node000006" class="edge">
<title>Node1&#45;&gt;Node6</title>
<g id="a_edge5_Node000001_Node000006"><a xlink:title=" ">
<path fill="none" stroke="#63b8ff" d="M117.74,-49.46C137.34,-42.84 160.77,-35.09 182,-28.5 189.05,-26.31 196.54,-24.07 203.86,-21.93"/>
<polygon fill="#63b8ff" stroke="#63b8ff" points="205.03,-25.24 213.66,-19.09 203.09,-18.51 205.03,-25.24"/>
</a>
</g>
</g>
<!-- Node3 -->
<g id="Node000003" class="node">
<title>Node3</title>
<g id="a_Node000003"><a xlink:href="class_s_v_data.html#abdae1eb340178fea8dc002462ede16d9" target="_top" xlink:title=" ">
<polygon fill="white" stroke="#666666" points="423,-130 352,-130 352,-111 423,-111 423,-130"/>
<text text-anchor="middle" x="387.5" y="-118" font-family="Helvetica" font-size="10.00">SVData::end</text>
</a>
</g>
</g>
<!-- Node2&#45;&gt;Node3 -->
<g id="edge2_Node000002_Node000003" class="edge">
<title>Node2&#45;&gt;Node3</title>
<g id="a_edge2_Node000002_Node000003"><a xlink:title=" ">
<path fill="none" stroke="#63b8ff" d="M299.28,-120.5C313.15,-120.5 328.16,-120.5 341.76,-120.5"/>
<polygon fill="#63b8ff" stroke="#63b8ff" points="341.83,-124 351.83,-120.5 341.83,-117 341.83,-124"/>
</a>
</g>
</g>
</g>
</svg>
