<?xml version="1.0" encoding="UTF-8" standalone="no"?>
<!DOCTYPE svg PUBLIC "-//W3C//DTD SVG 1.1//EN"
 "http://www.w3.org/Graphics/SVG/1.1/DTD/svg11.dtd">
<!-- Generated by graphviz version 2.44.0 (0)
 -->
<!-- Title: SVData::end Pages: 1 -->
<svg width="691pt" height="76pt"
 viewBox="0.00 0.00 691.00 75.50" xmlns="http://www.w3.org/2000/svg" xmlns:xlink="http://www.w3.org/1999/xlink">
<g id="graph0" class="graph" transform="scale(1 1) rotate(0) translate(4 71.5)">
<title>SVData::end</title>
<!-- Node1 -->
<g id="Node000001" class="node">
<title>Node1</title>
<g id="a_Node000001"><a xlink:title=" ">
<polygon fill="#999999" stroke="#666666" points="683,-40 612,-40 612,-21 683,-21 683,-40"/>
<text text-anchor="middle" x="647.5" y="-28" font-family="Helvetica" font-size="10.00">SVData::end</text>
</a>
</g>
</g>
<!-- Node2 -->
<g id="Node000002" class="node">
<title>Node2</title>
<g id="a_Node000002"><a xlink:href="class_s_v_data.html#a072841694b895e3ab438695f22ebc0da" target="_top" xlink:title=" ">
<polygon fill="white" stroke="#666666" points="576,-60 476,-60 476,-41 576,-41 576,-60"/>
<text text-anchor="middle" x="526" y="-48" font-family="Helvetica" font-size="10.00">SVData::addSVCall</text>
</a>
</g>
</g>
<!-- Node1&#45;&gt;Node2 -->
<g id="edge1_Node000001_Node000002" class="edge">
<title>Node1&#45;&gt;Node2</title>
<g id="a_edge1_Node000001_Node000002"><a xlink:title=" ">
<path fill="none" stroke="#63b8ff" d="M601.94,-37.96C593.53,-39.36 584.69,-40.84 576.15,-42.27"/>
<polygon fill="#63b8ff" stroke="#63b8ff" points="602.65,-41.39 611.94,-36.28 601.5,-34.48 602.65,-41.39"/>
</a>
</g>
</g>
<!-- Node7 -->
<g id="Node000007" class="node">
<title>Node7</title>
<g id="a_Node000007"><a xlink:href="class_s_v_data.html#aaca88ad486232278f6b4252fc501eec7" target="_top" xlink:title=" ">
<polygon fill="white" stroke="#666666" points="420,-19 314,-19 314,0 420,0 420,-19"/>
<text text-anchor="middle" x="367" y="-7" font-family="Helvetica" font-size="10.00">SVData::saveToVCF</text>
</a>
</g>
</g>
<!-- Node1&#45;&gt;Node7 -->
<g id="edge6_Node000001_Node000007" class="edge">
<title>Node1&#45;&gt;Node7</title>
<g id="a_edge6_Node000001_Node000007"><a xlink:title=" ">
<path fill="none" stroke="#63b8ff" d="M601.69,-27.12C552.11,-23.38 472.32,-17.37 420.02,-13.42"/>
<polygon fill="#63b8ff" stroke="#63b8ff" points="601.56,-30.62 611.79,-27.88 602.08,-23.64 601.56,-30.62"/>
</a>
</g>
</g>
<!-- Node3 -->
<g id="Node000003" class="node">
<title>Node3</title>
<g id="a_Node000003"><a xlink:href="class_s_v_caller.html#a8d587b8fffa1948abd8a78a376b2df23" target="_top" xlink:title=" ">
<polygon fill="white" stroke="#666666" points="440,-67.5 294,-67.5 294,-37.5 440,-37.5 440,-67.5"/>
<text text-anchor="start" x="302" y="-55.5" font-family="Helvetica" font-size="10.00">SVCaller::detectSVsFromSplit</text>
<text text-anchor="middle" x="367" y="-44.5" font-family="Helvetica" font-size="10.00">Reads</text>
</a>
</g>
</g>
<!-- Node2&#45;&gt;Node3 -->
<g id="edge2_Node000002_Node000003" class="edge">
<title>Node2&#45;&gt;Node3</title>
<g id="a_edge2_Node000002_Node000003"><a xlink:title=" ">
<path fill="none" stroke="#63b8ff" d="M465.72,-51.26C457.34,-51.36 448.65,-51.47 440.07,-51.58"/>
<polygon fill="#63b8ff" stroke="#63b8ff" points="465.8,-54.75 475.75,-51.13 465.71,-47.76 465.8,-54.75"/>
</a>
</g>
</g>
<!-- Node4 -->
<g id="Node000004" class="node">
<title>Node4</title>
<g id="a_Node000004"><a xlink:href="class_s_v_caller.html#a61ab472662c7fa46bf2d6e6d71f0441f" target="_top" xlink:title=" ">
<polygon fill="white" stroke="#666666" points="258,-60 185,-60 185,-41 258,-41 258,-60"/>
<text text-anchor="middle" x="221.5" y="-48" font-family="Helvetica" font-size="10.00">SVCaller::run</text>
</a>
</g>
</g>
<!-- Node3&#45;&gt;Node4 -->
<g id="edge3_Node000003_Node000004" class="edge">
<title>Node3&#45;&gt;Node4</title>
<g id="a_edge3_Node000003_Node000004"><a xlink:title=" ">
<path fill="none" stroke="#63b8ff" d="M283.67,-51.35C274.73,-51.23 266.02,-51.11 258.1,-51"/>
<polygon fill="#63b8ff" stroke="#63b8ff" points="283.78,-54.85 293.83,-51.49 283.88,-47.86 283.78,-54.85"/>
</a>
</g>
</g>
<!-- Node5 -->
<g id="Node000005" class="node">
<title>Node5</title>
<g id="a_Node000005"><a xlink:href="class_context_s_v.html#ac9d32b6e28e5bfdf10e314db0e90e4cd" target="_top" xlink:title=" ">
<polygon fill="white" stroke="#666666" points="149,-40 66,-40 66,-21 149,-21 149,-40"/>
<text text-anchor="middle" x="107.5" y="-28" font-family="Helvetica" font-size="10.00">ContextSV::run</text>
</a>
</g>
</g>
<!-- Node4&#45;&gt;Node5 -->
<g id="edge4_Node000004_Node000005" class="edge">
<title>Node4&#45;&gt;Node5</title>
<g id="a_edge4_Node000004_Node000005"><a xlink:title=" ">
<path fill="none" stroke="#63b8ff" d="M174.72,-42.32C166.32,-40.83 157.6,-39.27 149.36,-37.8"/>
<polygon fill="#63b8ff" stroke="#63b8ff" points="174.29,-45.8 184.75,-44.12 175.53,-38.91 174.29,-45.8"/>
</a>
</g>
</g>
<!-- Node6 -->
<g id="Node000006" class="node">
<title>Node6</title>
<g id="a_Node000006"><a xlink:href="swig__interface_8cpp.html#ade07e2f2bb85b7aaac8af156f3e962f6" target="_top" xlink:title=" ">
<polygon fill="white" stroke="#666666" points="30,-40 0,-40 0,-21 30,-21 30,-40"/>
<text text-anchor="middle" x="15" y="-28" font-family="Helvetica" font-size="10.00">run</text>
</a>
</g>
</g>
<!-- Node5&#45;&gt;Node6 -->
<g id="edge5_Node000005_Node000006" class="edge">
<title>Node5&#45;&gt;Node6</title>
<g id="a_edge5_Node000005_Node000006"><a xlink:title=" ">
<path fill="none" stroke="#63b8ff" d="M55.56,-30.5C46.21,-30.5 37.19,-30.5 30.13,-30.5"/>
<polygon fill="#63b8ff" stroke="#63b8ff" points="55.75,-34 65.75,-30.5 55.75,-27 55.75,-34"/>
</a>
</g>
</g>
<!-- Node7&#45;&gt;Node5 -->
<g id="edge7_Node000007_Node000005" class="edge">
<title>Node7&#45;&gt;Node5</title>
<g id="a_edge7_Node000007_Node000005"><a xlink:title=" ">
<path fill="none" stroke="#63b8ff" d="M303.91,-14.56C255.86,-18.48 190.7,-23.8 149.12,-27.19"/>
<polygon fill="#63b8ff" stroke="#63b8ff" points="304.21,-18.05 313.89,-13.75 303.64,-11.07 304.21,-18.05"/>
</a>
</g>
</g>
</g>
</svg>
