<?xml version="1.0" encoding="UTF-8" standalone="no"?>
<!DOCTYPE svg PUBLIC "-//W3C//DTD SVG 1.1//EN"
 "http://www.w3.org/Graphics/SVG/1.1/DTD/svg11.dtd">
<!-- Generated by graphviz version 2.44.0 (0)
 -->
<!-- Title: CNVCaller::calculateLogRRatiosAtSNPS Pages: 1 -->
<svg width="515pt" height="374pt"
 viewBox="0.00 0.00 515.00 373.74" xmlns="http://www.w3.org/2000/svg" xmlns:xlink="http://www.w3.org/1999/xlink">
<g id="graph0" class="graph" transform="scale(1 1) rotate(0) translate(4 369.74)">
<title>CNVCaller::calculateLogRRatiosAtSNPS</title>
<!-- Node1 -->
<g id="Node000001" class="node">
<title>Node1</title>
<g id="a_Node000001"><a xlink:title=" ">
<polygon fill="#999999" stroke="#666666" points="158,-190.5 0,-190.5 0,-160.5 158,-160.5 158,-190.5"/>
<text text-anchor="start" x="8" y="-178.5" font-family="Helvetica" font-size="10.00">CNVCaller::calculateLogRRatios</text>
<text text-anchor="middle" x="79" y="-167.5" font-family="Helvetica" font-size="10.00">AtSNPS</text>
</a>
</g>
</g>
<!-- Node2 -->
<g id="Node000002" class="node">
<title>Node2</title>
<g id="a_Node000002"><a xlink:href="class_c_n_v_caller.html#adf3674729125dd11ec7c6ba9d5781b30" target="_top" xlink:title="Calculate the mean chromosome coverage.">
<polygon fill="white" stroke="#666666" points="331,-338.5 200,-338.5 200,-308.5 331,-308.5 331,-338.5"/>
<text text-anchor="start" x="208" y="-326.5" font-family="Helvetica" font-size="10.00">CNVCaller::calculateMean</text>
<text text-anchor="middle" x="265.5" y="-315.5" font-family="Helvetica" font-size="10.00">ChromosomeCoverage</text>
</a>
</g>
</g>
<!-- Node1&#45;&gt;Node2 -->
<g id="edge1_Node000001_Node000002" class="edge">
<title>Node1&#45;&gt;Node2</title>
<g id="a_edge1_Node000001_Node000002"><a xlink:title=" ">
<path fill="none" stroke="#63b8ff" d="M90.11,-190.74C108.05,-216.68 147.95,-269.47 194,-299.5 196.44,-301.09 198.99,-302.58 201.62,-303.99"/>
<polygon fill="#63b8ff" stroke="#63b8ff" points="200.28,-307.23 210.8,-308.43 203.32,-300.92 200.28,-307.23"/>
</a>
</g>
</g>
<!-- Node3 -->
<g id="Node000003" class="node">
<title>Node3</title>
<g id="a_Node000003"><a xlink:href="class_input_data.html#a25f727c1d41c775b4c136c3c5a7ed11c" target="_top" xlink:title=" ">
<polygon fill="white" stroke="#666666" points="507,-333 373,-333 373,-314 507,-314 507,-333"/>
<text text-anchor="middle" x="440" y="-321" font-family="Helvetica" font-size="10.00">InputData::getBAMFilepath</text>
</a>
</g>
</g>
<!-- Node1&#45;&gt;Node3 -->
<g id="edge7_Node000001_Node000003" class="edge">
<title>Node1&#45;&gt;Node3</title>
<g id="a_edge7_Node000001_Node000003"><a xlink:title=" ">
<path fill="none" stroke="#63b8ff" d="M84.57,-190.66C96.12,-225.97 130.24,-313.27 194,-347.5 263.4,-384.76 359.86,-355.93 408.44,-336.86"/>
<polygon fill="#63b8ff" stroke="#63b8ff" points="409.82,-340.08 417.78,-333.08 407.2,-333.59 409.82,-340.08"/>
</a>
</g>
</g>
<!-- Node4 -->
<g id="Node000004" class="node">
<title>Node4</title>
<g id="a_Node000004"><a xlink:href="class_input_data.html#a77960f595c62556bb7d0ac5f091d8f59" target="_top" xlink:title=" ">
<polygon fill="white" stroke="#666666" points="502,-285 378,-285 378,-266 502,-266 502,-285"/>
<text text-anchor="middle" x="440" y="-273" font-family="Helvetica" font-size="10.00">InputData::getRegionChr</text>
</a>
</g>
</g>
<!-- Node1&#45;&gt;Node4 -->
<g id="edge10_Node000001_Node000004" class="edge">
<title>Node1&#45;&gt;Node4</title>
<g id="a_edge10_Node000001_Node000004"><a xlink:title=" ">
<path fill="none" stroke="#63b8ff" d="M124.2,-190.55C145.24,-197.54 170.82,-205.77 194,-212.5 260.88,-231.93 338.91,-251.46 388.62,-263.51"/>
<polygon fill="#63b8ff" stroke="#63b8ff" points="387.93,-266.95 398.47,-265.9 389.57,-260.15 387.93,-266.95"/>
</a>
</g>
</g>
<!-- Node5 -->
<g id="Node000005" class="node">
<title>Node5</title>
<g id="a_Node000005"><a xlink:href="class_c_n_v_caller.html#ad4fa39b6107dc8fd88e45ed988fc5ece" target="_top" xlink:title=" ">
<polygon fill="white" stroke="#666666" points="337,-290.5 194,-290.5 194,-260.5 337,-260.5 337,-290.5"/>
<text text-anchor="start" x="202" y="-278.5" font-family="Helvetica" font-size="10.00">CNVCaller::calculateWindow</text>
<text text-anchor="middle" x="265.5" y="-267.5" font-family="Helvetica" font-size="10.00">LogRRatio</text>
</a>
</g>
</g>
<!-- Node1&#45;&gt;Node5 -->
<g id="edge4_Node000001_Node000005" class="edge">
<title>Node1&#45;&gt;Node5</title>
<g id="a_edge4_Node000001_Node000005"><a xlink:title=" ">
<path fill="none" stroke="#63b8ff" d="M101.64,-190.5C124.12,-205.71 160.59,-229.38 194,-246.5 200.64,-249.9 207.77,-253.21 214.86,-256.31"/>
<polygon fill="#63b8ff" stroke="#63b8ff" points="213.88,-259.69 224.45,-260.38 216.62,-253.25 213.88,-259.69"/>
</a>
</g>
</g>
<!-- Node6 -->
<g id="Node000006" class="node">
<title>Node6</title>
<g id="a_Node000006"><a xlink:href="class_input_data.html#af7a013cc30faa2b30a06209e8370c11b" target="_top" xlink:title=" ">
<polygon fill="white" stroke="#666666" points="321.5,-204 209.5,-204 209.5,-185 321.5,-185 321.5,-204"/>
<text text-anchor="middle" x="265.5" y="-192" font-family="Helvetica" font-size="10.00">InputData::getChrCov</text>
</a>
</g>
</g>
<!-- Node1&#45;&gt;Node6 -->
<g id="edge8_Node000001_Node000006" class="edge">
<title>Node1&#45;&gt;Node6</title>
<g id="a_edge8_Node000001_Node000006"><a xlink:title=" ">
<path fill="none" stroke="#63b8ff" d="M158.24,-183.56C171.94,-184.97 186.06,-186.42 199.35,-187.79"/>
<polygon fill="#63b8ff" stroke="#63b8ff" points="199.03,-191.28 209.34,-188.82 199.75,-184.31 199.03,-191.28"/>
</a>
</g>
</g>
<!-- Node8 -->
<g id="Node000008" class="node">
<title>Node8</title>
<g id="a_Node000008"><a xlink:href="class_input_data.html#a699d2da48f9573630ee0bc6baa3a4509" target="_top" xlink:title=" ">
<polygon fill="white" stroke="#666666" points="328,-167 203,-167 203,-148 328,-148 328,-167"/>
<text text-anchor="middle" x="265.5" y="-155" font-family="Helvetica" font-size="10.00">InputData::getRegionEnd</text>
</a>
</g>
</g>
<!-- Node1&#45;&gt;Node8 -->
<g id="edge11_Node000001_Node000008" class="edge">
<title>Node1&#45;&gt;Node8</title>
<g id="a_edge11_Node000001_Node000008"><a xlink:title=" ">
<path fill="none" stroke="#63b8ff" d="M158.24,-167.87C169.67,-166.75 181.4,-165.61 192.69,-164.51"/>
<polygon fill="#63b8ff" stroke="#63b8ff" points="193.31,-167.96 202.92,-163.51 192.63,-161 193.31,-167.96"/>
</a>
</g>
</g>
<!-- Node9 -->
<g id="Node000009" class="node">
<title>Node9</title>
<g id="a_Node000009"><a xlink:href="class_input_data.html#a9fd17a113b232b81eb32b8182cd25ee7" target="_top" xlink:title=" ">
<polygon fill="white" stroke="#666666" points="327,-130 204,-130 204,-111 327,-111 327,-130"/>
<text text-anchor="middle" x="265.5" y="-118" font-family="Helvetica" font-size="10.00">InputData::getRegionSet</text>
</a>
</g>
</g>
<!-- Node1&#45;&gt;Node9 -->
<g id="edge12_Node000001_Node000009" class="edge">
<title>Node1&#45;&gt;Node9</title>
<g id="a_edge12_Node000001_Node000009"><a xlink:title=" ">
<path fill="none" stroke="#63b8ff" d="M124.19,-160.43C145.24,-153.44 170.82,-145.21 194,-138.5 200.92,-136.49 208.26,-134.49 215.49,-132.58"/>
<polygon fill="#63b8ff" stroke="#63b8ff" points="216.43,-135.96 225.22,-130.05 214.67,-129.18 216.43,-135.96"/>
</a>
</g>
</g>
<!-- Node10 -->
<g id="Node000010" class="node">
<title>Node10</title>
<g id="a_Node000010"><a xlink:href="class_input_data.html#ad8c9fdf8a3053610ee119ba7002b1f4e" target="_top" xlink:title=" ">
<polygon fill="white" stroke="#666666" points="330.5,-93 200.5,-93 200.5,-74 330.5,-74 330.5,-93"/>
<text text-anchor="middle" x="265.5" y="-81" font-family="Helvetica" font-size="10.00">InputData::getRegionStart</text>
</a>
</g>
</g>
<!-- Node1&#45;&gt;Node10 -->
<g id="edge13_Node000001_Node000010" class="edge">
<title>Node1&#45;&gt;Node10</title>
<g id="a_edge13_Node000001_Node000010"><a xlink:title=" ">
<path fill="none" stroke="#63b8ff" d="M99.06,-160.32C120.84,-143.67 158.12,-117.22 194,-101.5 198.47,-99.54 203.19,-97.77 207.99,-96.16"/>
<polygon fill="#63b8ff" stroke="#63b8ff" points="209.36,-99.4 217.89,-93.11 207.3,-92.71 209.36,-99.4"/>
</a>
</g>
</g>
<!-- Node11 -->
<g id="Node000011" class="node">
<title>Node11</title>
<g id="a_Node000011"><a xlink:href="class_input_data.html#a62fa5522dcccf80e66b3708d4e700acb" target="_top" xlink:title=" ">
<polygon fill="white" stroke="#666666" points="331.5,-56 199.5,-56 199.5,-37 331.5,-37 331.5,-56"/>
<text text-anchor="middle" x="265.5" y="-44" font-family="Helvetica" font-size="10.00">InputData::getWindowSize</text>
</a>
</g>
</g>
<!-- Node1&#45;&gt;Node11 -->
<g id="edge14_Node000001_Node000011" class="edge">
<title>Node1&#45;&gt;Node11</title>
<g id="a_edge14_Node000001_Node000011"><a xlink:title=" ">
<path fill="none" stroke="#63b8ff" d="M91.16,-160.39C109.74,-136.33 149.42,-89.49 194,-64.5 197.22,-62.69 200.62,-61.07 204.12,-59.6"/>
<polygon fill="#63b8ff" stroke="#63b8ff" points="205.42,-62.85 213.57,-56.08 202.98,-56.29 205.42,-62.85"/>
</a>
</g>
</g>
<!-- Node12 -->
<g id="Node000012" class="node">
<title>Node12</title>
<g id="a_Node000012"><a xlink:href="utils_8cpp.html#a94bd78faf212464ede8144a4be0e8cf8" target="_top" xlink:title=" ">
<polygon fill="white" stroke="#666666" points="302.5,-19 228.5,-19 228.5,0 302.5,0 302.5,-19"/>
<text text-anchor="middle" x="265.5" y="-7" font-family="Helvetica" font-size="10.00">printProgress</text>
</a>
</g>
</g>
<!-- Node1&#45;&gt;Node12 -->
<g id="edge15_Node000001_Node000012" class="edge">
<title>Node1&#45;&gt;Node12</title>
<g id="a_edge15_Node000001_Node000012"><a xlink:title=" ">
<path fill="none" stroke="#63b8ff" d="M87.34,-160.22C102.68,-129.95 141.17,-62.28 194,-27.5 201.28,-22.71 209.76,-19.19 218.26,-16.61"/>
<polygon fill="#63b8ff" stroke="#63b8ff" points="219.4,-19.93 228.18,-13.99 217.61,-13.16 219.4,-19.93"/>
</a>
</g>
</g>
<!-- Node2&#45;&gt;Node3 -->
<g id="edge2_Node000002_Node000003" class="edge">
<title>Node2&#45;&gt;Node3</title>
<g id="a_edge2_Node000002_Node000003"><a xlink:title=" ">
<path fill="none" stroke="#63b8ff" d="M331.22,-323.5C341.51,-323.5 352.23,-323.5 362.76,-323.5"/>
<polygon fill="#63b8ff" stroke="#63b8ff" points="362.76,-327 372.76,-323.5 362.76,-320 362.76,-327"/>
</a>
</g>
</g>
<!-- Node2&#45;&gt;Node4 -->
<g id="edge3_Node000002_Node000004" class="edge">
<title>Node2&#45;&gt;Node4</title>
<g id="a_edge3_Node000002_Node000004"><a xlink:title=" ">
<path fill="none" stroke="#63b8ff" d="M320.61,-308.44C344.53,-301.79 372.31,-294.06 394.95,-287.76"/>
<polygon fill="#63b8ff" stroke="#63b8ff" points="395.93,-291.12 404.63,-285.06 394.06,-284.37 395.93,-291.12"/>
</a>
</g>
</g>
<!-- Node5&#45;&gt;Node3 -->
<g id="edge5_Node000005_Node000003" class="edge">
<title>Node5&#45;&gt;Node3</title>
<g id="a_edge5_Node000005_Node000003"><a xlink:title=" ">
<path fill="none" stroke="#63b8ff" d="M320.61,-290.56C344.53,-297.21 372.31,-304.94 394.95,-311.24"/>
<polygon fill="#63b8ff" stroke="#63b8ff" points="394.06,-314.63 404.63,-313.94 395.93,-307.88 394.06,-314.63"/>
</a>
</g>
</g>
<!-- Node5&#45;&gt;Node4 -->
<g id="edge6_Node000005_Node000004" class="edge">
<title>Node5&#45;&gt;Node4</title>
<g id="a_edge6_Node000005_Node000004"><a xlink:title=" ">
<path fill="none" stroke="#63b8ff" d="M337.16,-275.5C347.28,-275.5 357.69,-275.5 367.82,-275.5"/>
<polygon fill="#63b8ff" stroke="#63b8ff" points="367.83,-279 377.83,-275.5 367.83,-272 367.83,-279"/>
</a>
</g>
</g>
<!-- Node7 -->
<g id="Node000007" class="node">
<title>Node7</title>
<g id="a_Node000007"><a xlink:href="kc_8cpp.html#a26084b7a5f02a520fedea796faec8a89" target="_top" xlink:title=" ">
<polygon fill="white" stroke="#666666" points="456,-204 424,-204 424,-185 456,-185 456,-204"/>
<text text-anchor="middle" x="440" y="-192" font-family="Helvetica" font-size="10.00">cov</text>
</a>
</g>
</g>
<!-- Node6&#45;&gt;Node7 -->
<g id="edge9_Node000006_Node000007" class="edge">
<title>Node6&#45;&gt;Node7</title>
<g id="a_edge9_Node000006_Node000007"><a xlink:title=" ">
<path fill="none" stroke="#63b8ff" d="M321.55,-194.5C352.51,-194.5 389.65,-194.5 413.76,-194.5"/>
<polygon fill="#63b8ff" stroke="#63b8ff" points="413.86,-198 423.86,-194.5 413.86,-191 413.86,-198"/>
</a>
</g>
</g>
</g>
</svg>
