<?xml version="1.0" encoding="UTF-8" standalone="no"?>
<!DOCTYPE svg PUBLIC "-//W3C//DTD SVG 1.1//EN"
 "http://www.w3.org/Graphics/SVG/1.1/DTD/svg11.dtd">
<!-- Generated by graphviz version 2.44.0 (0)
 -->
<!-- Title: FASTAQuery::query Pages: 1 -->
<svg width="446pt" height="64pt"
 viewBox="0.00 0.00 446.00 64.00" xmlns="http://www.w3.org/2000/svg" xmlns:xlink="http://www.w3.org/1999/xlink">
<g id="graph0" class="graph" transform="scale(1 1) rotate(0) translate(4 60)">
<title>FASTAQuery::query</title>
<!-- Node1 -->
<g id="Node000001" class="node">
<title>Node1</title>
<g id="a_Node000001"><a xlink:title=" ">
<polygon fill="#999999" stroke="#666666" points="438,-37 334,-37 334,-18 438,-18 438,-37"/>
<text text-anchor="middle" x="386" y="-25" font-family="Helvetica" font-size="10.00">FASTAQuery::query</text>
</a>
</g>
</g>
<!-- Node2 -->
<g id="Node000002" class="node">
<title>Node2</title>
<g id="a_Node000002"><a xlink:href="class_s_v_data.html#ac3e39c567ee56b403c30c3b9739fdef6" target="_top" xlink:title=" ">
<polygon fill="white" stroke="#666666" points="298,-56 185,-56 185,-37 298,-37 298,-56"/>
<text text-anchor="middle" x="241.5" y="-44" font-family="Helvetica" font-size="10.00">SVData::getSequence</text>
</a>
</g>
</g>
<!-- Node1&#45;&gt;Node2 -->
<g id="edge1_Node000001_Node000002" class="edge">
<title>Node1&#45;&gt;Node2</title>
<g id="a_edge1_Node000001_Node000002"><a xlink:title=" ">
<path fill="none" stroke="#63b8ff" d="M323.96,-35.64C315.34,-36.79 306.52,-37.96 298.01,-39.1"/>
<polygon fill="#63b8ff" stroke="#63b8ff" points="324.51,-39.1 333.96,-34.31 323.58,-32.16 324.51,-39.1"/>
</a>
</g>
</g>
<!-- Node3 -->
<g id="Node000003" class="node">
<title>Node3</title>
<g id="a_Node000003"><a xlink:href="class_s_v_data.html#aaca88ad486232278f6b4252fc501eec7" target="_top" xlink:title=" ">
<polygon fill="white" stroke="#666666" points="294.5,-19 188.5,-19 188.5,0 294.5,0 294.5,-19"/>
<text text-anchor="middle" x="241.5" y="-7" font-family="Helvetica" font-size="10.00">SVData::saveToVCF</text>
</a>
</g>
</g>
<!-- Node1&#45;&gt;Node3 -->
<g id="edge2_Node000001_Node000003" class="edge">
<title>Node1&#45;&gt;Node3</title>
<g id="a_edge2_Node000001_Node000003"><a xlink:title=" ">
<path fill="none" stroke="#63b8ff" d="M323.92,-19.78C314.16,-18.55 304.15,-17.29 294.63,-16.08"/>
<polygon fill="#63b8ff" stroke="#63b8ff" points="323.6,-23.27 333.96,-21.05 324.47,-16.33 323.6,-23.27"/>
</a>
</g>
</g>
<!-- Node4 -->
<g id="Node000004" class="node">
<title>Node4</title>
<g id="a_Node000004"><a xlink:href="class_context_s_v.html#ac9d32b6e28e5bfdf10e314db0e90e4cd" target="_top" xlink:title=" ">
<polygon fill="white" stroke="#666666" points="149,-19 66,-19 66,0 149,0 149,-19"/>
<text text-anchor="middle" x="107.5" y="-7" font-family="Helvetica" font-size="10.00">ContextSV::run</text>
</a>
</g>
</g>
<!-- Node3&#45;&gt;Node4 -->
<g id="edge3_Node000003_Node000004" class="edge">
<title>Node3&#45;&gt;Node4</title>
<g id="a_edge3_Node000003_Node000004"><a xlink:title=" ">
<path fill="none" stroke="#63b8ff" d="M178.19,-9.5C168.38,-9.5 158.46,-9.5 149.31,-9.5"/>
<polygon fill="#63b8ff" stroke="#63b8ff" points="178.33,-13 188.33,-9.5 178.33,-6 178.33,-13"/>
</a>
</g>
</g>
<!-- Node5 -->
<g id="Node000005" class="node">
<title>Node5</title>
<g id="a_Node000005"><a xlink:href="swig__interface_8cpp.html#ade07e2f2bb85b7aaac8af156f3e962f6" target="_top" xlink:title=" ">
<polygon fill="white" stroke="#666666" points="30,-19 0,-19 0,0 30,0 30,-19"/>
<text text-anchor="middle" x="15" y="-7" font-family="Helvetica" font-size="10.00">run</text>
</a>
</g>
</g>
<!-- Node4&#45;&gt;Node5 -->
<g id="edge4_Node000004_Node000005" class="edge">
<title>Node4&#45;&gt;Node5</title>
<g id="a_edge4_Node000004_Node000005"><a xlink:title=" ">
<path fill="none" stroke="#63b8ff" d="M55.56,-9.5C46.21,-9.5 37.19,-9.5 30.13,-9.5"/>
<polygon fill="#63b8ff" stroke="#63b8ff" points="55.75,-13 65.75,-9.5 55.75,-6 55.75,-13"/>
</a>
</g>
</g>
</g>
</svg>
