<?xml version="1.0" encoding="UTF-8" standalone="no"?>
<!DOCTYPE svg PUBLIC "-//W3C//DTD SVG 1.1//EN"
 "http://www.w3.org/Graphics/SVG/1.1/DTD/svg11.dtd">
<!-- Generated by graphviz version 2.44.0 (0)
 -->
<!-- Title: CNVCaller::readSNPBAFs Pages: 1 -->
<svg width="444pt" height="27pt"
 viewBox="0.00 0.00 444.00 27.00" xmlns="http://www.w3.org/2000/svg" xmlns:xlink="http://www.w3.org/1999/xlink">
<g id="graph0" class="graph" transform="scale(1 1) rotate(0) translate(4 23)">
<title>CNVCaller::readSNPBAFs</title>
<!-- Node1 -->
<g id="Node000001" class="node">
<title>Node1</title>
<g id="a_Node000001"><a xlink:title=" ">
<polygon fill="#999999" stroke="#666666" points="436,-19 303,-19 303,0 436,0 436,-19"/>
<text text-anchor="middle" x="369.5" y="-7" font-family="Helvetica" font-size="10.00">CNVCaller::readSNPBAFs</text>
</a>
</g>
</g>
<!-- Node2 -->
<g id="Node000002" class="node">
<title>Node2</title>
<g id="a_Node000002"><a xlink:href="class_c_n_v_caller.html#a49824c662095f9af9a38056dadc8933f" target="_top" xlink:title=" ">
<polygon fill="white" stroke="#666666" points="267,-19 185,-19 185,0 267,0 267,-19"/>
<text text-anchor="middle" x="226" y="-7" font-family="Helvetica" font-size="10.00">CNVCaller::run</text>
</a>
</g>
</g>
<!-- Node1&#45;&gt;Node2 -->
<g id="edge1_Node000001_Node000002" class="edge">
<title>Node1&#45;&gt;Node2</title>
<g id="a_edge1_Node000001_Node000002"><a xlink:title=" ">
<path fill="none" stroke="#63b8ff" d="M292.48,-9.5C283.76,-9.5 275.16,-9.5 267.19,-9.5"/>
<polygon fill="#63b8ff" stroke="#63b8ff" points="292.72,-13 302.72,-9.5 292.72,-6 292.72,-13"/>
</a>
</g>
</g>
<!-- Node3 -->
<g id="Node000003" class="node">
<title>Node3</title>
<g id="a_Node000003"><a xlink:href="class_context_s_v.html#ac9d32b6e28e5bfdf10e314db0e90e4cd" target="_top" xlink:title=" ">
<polygon fill="white" stroke="#666666" points="149,-19 66,-19 66,0 149,0 149,-19"/>
<text text-anchor="middle" x="107.5" y="-7" font-family="Helvetica" font-size="10.00">ContextSV::run</text>
</a>
</g>
</g>
<!-- Node2&#45;&gt;Node3 -->
<g id="edge2_Node000002_Node000003" class="edge">
<title>Node2&#45;&gt;Node3</title>
<g id="a_edge2_Node000002_Node000003"><a xlink:title=" ">
<path fill="none" stroke="#63b8ff" d="M174.65,-9.5C166.1,-9.5 157.32,-9.5 149.06,-9.5"/>
<polygon fill="#63b8ff" stroke="#63b8ff" points="174.91,-13 184.91,-9.5 174.91,-6 174.91,-13"/>
</a>
</g>
</g>
<!-- Node4 -->
<g id="Node000004" class="node">
<title>Node4</title>
<g id="a_Node000004"><a xlink:href="swig__interface_8cpp.html#ade07e2f2bb85b7aaac8af156f3e962f6" target="_top" xlink:title=" ">
<polygon fill="white" stroke="#666666" points="30,-19 0,-19 0,0 30,0 30,-19"/>
<text text-anchor="middle" x="15" y="-7" font-family="Helvetica" font-size="10.00">run</text>
</a>
</g>
</g>
<!-- Node3&#45;&gt;Node4 -->
<g id="edge3_Node000003_Node000004" class="edge">
<title>Node3&#45;&gt;Node4</title>
<g id="a_edge3_Node000003_Node000004"><a xlink:title=" ">
<path fill="none" stroke="#63b8ff" d="M55.56,-9.5C46.21,-9.5 37.19,-9.5 30.13,-9.5"/>
<polygon fill="#63b8ff" stroke="#63b8ff" points="55.75,-13 65.75,-9.5 55.75,-6 55.75,-13"/>
</a>
</g>
</g>
</g>
</svg>
