<?xml version="1.0" encoding="UTF-8" standalone="no"?>
<!DOCTYPE svg PUBLIC "-//W3C//DTD SVG 1.1//EN"
 "http://www.w3.org/Graphics/SVG/1.1/DTD/svg11.dtd">
<!-- Generated by graphviz version 2.44.0 (0)
 -->
<!-- Title: SVData::saveToVCF Pages: 1 -->
<svg width="302pt" height="138pt"
 viewBox="0.00 0.00 302.00 138.00" xmlns="http://www.w3.org/2000/svg" xmlns:xlink="http://www.w3.org/1999/xlink">
<g id="graph0" class="graph" transform="scale(1 1) rotate(0) translate(4 134)">
<title>SVData::saveToVCF</title>
<!-- Node1 -->
<g id="Node000001" class="node">
<title>Node1</title>
<g id="a_Node000001"><a xlink:title=" ">
<polygon fill="#999999" stroke="#666666" points="106,-74 0,-74 0,-55 106,-55 106,-74"/>
<text text-anchor="middle" x="53" y="-62" font-family="Helvetica" font-size="10.00">SVData::saveToVCF</text>
</a>
</g>
</g>
<!-- Node2 -->
<g id="Node000002" class="node">
<title>Node2</title>
<g id="a_Node000002"><a xlink:href="class_s_v_data.html#abdae1eb340178fea8dc002462ede16d9" target="_top" xlink:title=" ">
<polygon fill="white" stroke="#666666" points="253.5,-130 182.5,-130 182.5,-111 253.5,-111 253.5,-130"/>
<text text-anchor="middle" x="218" y="-118" font-family="Helvetica" font-size="10.00">SVData::end</text>
</a>
</g>
</g>
<!-- Node1&#45;&gt;Node2 -->
<g id="edge1_Node000001_Node000002" class="edge">
<title>Node1&#45;&gt;Node2</title>
<g id="a_edge1_Node000001_Node000002"><a xlink:title=" ">
<path fill="none" stroke="#63b8ff" d="M73.54,-74.1C91.13,-82.45 117.84,-94.45 142,-102.5 151.72,-105.74 162.33,-108.65 172.42,-111.14"/>
<polygon fill="#63b8ff" stroke="#63b8ff" points="171.76,-114.58 182.3,-113.48 173.38,-107.77 171.76,-114.58"/>
</a>
</g>
</g>
<!-- Node3 -->
<g id="Node000003" class="node">
<title>Node3</title>
<g id="a_Node000003"><a xlink:href="class_f_a_s_t_a_query.html#af2d3ec8e4632c309e0873d342d883d5e" target="_top" xlink:title=" ">
<polygon fill="white" stroke="#666666" points="294,-93 142,-93 142,-74 294,-74 294,-93"/>
<text text-anchor="middle" x="218" y="-81" font-family="Helvetica" font-size="10.00">FASTAQuery::getContigHeader</text>
</a>
</g>
</g>
<!-- Node1&#45;&gt;Node3 -->
<g id="edge2_Node000001_Node000003" class="edge">
<title>Node1&#45;&gt;Node3</title>
<g id="a_edge2_Node000001_Node000003"><a xlink:title=" ">
<path fill="none" stroke="#63b8ff" d="M106.02,-70.56C114.19,-71.52 122.82,-72.52 131.51,-73.53"/>
<polygon fill="#63b8ff" stroke="#63b8ff" points="131.37,-77.04 141.71,-74.72 132.18,-70.09 131.37,-77.04"/>
</a>
</g>
</g>
<!-- Node4 -->
<g id="Node000004" class="node">
<title>Node4</title>
<g id="a_Node000004"><a xlink:href="class_f_a_s_t_a_query.html#ae494167badd31359e71ee4a44656511f" target="_top" xlink:title=" ">
<polygon fill="white" stroke="#666666" points="281.5,-56 154.5,-56 154.5,-37 281.5,-37 281.5,-56"/>
<text text-anchor="middle" x="218" y="-44" font-family="Helvetica" font-size="10.00">FASTAQuery::getFilepath</text>
</a>
</g>
</g>
<!-- Node1&#45;&gt;Node4 -->
<g id="edge3_Node000001_Node000004" class="edge">
<title>Node1&#45;&gt;Node4</title>
<g id="a_edge3_Node000001_Node000004"><a xlink:title=" ">
<path fill="none" stroke="#63b8ff" d="M106.02,-58.76C118.15,-57.42 131.29,-55.96 144.14,-54.55"/>
<polygon fill="#63b8ff" stroke="#63b8ff" points="144.8,-57.99 154.35,-53.42 144.03,-51.04 144.8,-57.99"/>
</a>
</g>
</g>
<!-- Node5 -->
<g id="Node000005" class="node">
<title>Node5</title>
<g id="a_Node000005"><a xlink:href="class_f_a_s_t_a_query.html#aae2f4b89326ca788283bbee53bea34e9" target="_top" xlink:title=" ">
<polygon fill="white" stroke="#666666" points="270,-19 166,-19 166,0 270,0 270,-19"/>
<text text-anchor="middle" x="218" y="-7" font-family="Helvetica" font-size="10.00">FASTAQuery::query</text>
</a>
</g>
</g>
<!-- Node1&#45;&gt;Node5 -->
<g id="edge4_Node000001_Node000005" class="edge">
<title>Node1&#45;&gt;Node5</title>
<g id="a_edge4_Node000001_Node000005"><a xlink:title=" ">
<path fill="none" stroke="#63b8ff" d="M75.03,-54.92C92.66,-47.13 118.64,-36.2 142,-28.5 149.45,-26.05 157.39,-23.73 165.23,-21.6"/>
<polygon fill="#63b8ff" stroke="#63b8ff" points="166.26,-24.95 175.05,-19.02 164.49,-18.18 166.26,-24.95"/>
</a>
</g>
</g>
</g>
</svg>
