<?xml version="1.0" encoding="UTF-8" standalone="no"?>
<!DOCTYPE svg PUBLIC "-//W3C//DTD SVG 1.1//EN"
 "http://www.w3.org/Graphics/SVG/1.1/DTD/svg11.dtd">
<!-- Generated by graphviz version 2.44.0 (0)
 -->
<!-- Title: ContextSV Pages: 1 -->
<svg width="100pt" height="159pt"
 viewBox="0.00 0.00 100.00 159.00" xmlns="http://www.w3.org/2000/svg" xmlns:xlink="http://www.w3.org/1999/xlink">
<g id="graph0" class="graph" transform="scale(1 1) rotate(0) translate(4 155)">
<title>ContextSV</title>
<!-- Node1 -->
<g id="Node000001" class="node">
<title>Node1</title>
<g id="a_Node000001"><a xlink:title=" ">
<polygon fill="#999999" stroke="#666666" points="69,-19 5,-19 5,0 69,0 69,-19"/>
<text text-anchor="middle" x="37" y="-7" font-family="Helvetica" font-size="10.00">ContextSV</text>
</a>
</g>
</g>
<!-- Node2 -->
<g id="Node000002" class="node">
<title>Node2</title>
<g id="a_Node000002"><a xlink:href="class_input_data.html" target="_top" xlink:title=" ">
<polygon fill="white" stroke="#666666" points="66.5,-85 7.5,-85 7.5,-66 66.5,-66 66.5,-85"/>
<text text-anchor="middle" x="37" y="-73" font-family="Helvetica" font-size="10.00">InputData</text>
</a>
</g>
</g>
<!-- Node2&#45;&gt;Node1 -->
<g id="edge1_Node000001_Node000002" class="edge">
<title>Node2&#45;&gt;Node1</title>
<g id="a_edge1_Node000001_Node000002"><a xlink:title=" ">
<path fill="none" stroke="#9a32cd" stroke-dasharray="5,2" d="M37,-55.58C37,-43.63 37,-28.72 37,-19.41"/>
<polygon fill="#9a32cd" stroke="#9a32cd" points="33.5,-55.87 37,-65.87 40.5,-55.87 33.5,-55.87"/>
</a>
</g>
<text text-anchor="middle" x="61.5" y="-40" font-family="Helvetica" font-size="10.00" fill="grey"> input_data</text>
</g>
<!-- Node3 -->
<g id="Node000003" class="node">
<title>Node3</title>
<g id="a_Node000003"><a xlink:href="class_f_a_s_t_a_query.html" target="_top" xlink:title=" ">
<polygon fill="white" stroke="#666666" points="74,-151 0,-151 0,-132 74,-132 74,-151"/>
<text text-anchor="middle" x="37" y="-139" font-family="Helvetica" font-size="10.00">FASTAQuery</text>
</a>
</g>
</g>
<!-- Node3&#45;&gt;Node2 -->
<g id="edge2_Node000002_Node000003" class="edge">
<title>Node3&#45;&gt;Node2</title>
<g id="a_edge2_Node000002_Node000003"><a xlink:title=" ">
<path fill="none" stroke="#9a32cd" stroke-dasharray="5,2" d="M37,-121.58C37,-109.63 37,-94.72 37,-85.41"/>
<polygon fill="#9a32cd" stroke="#9a32cd" points="33.5,-121.87 37,-131.87 40.5,-121.87 33.5,-121.87"/>
</a>
</g>
<text text-anchor="middle" x="64.5" y="-106" font-family="Helvetica" font-size="10.00" fill="grey"> fasta_query</text>
</g>
</g>
</svg>
