<?xml version="1.0" encoding="UTF-8" standalone="no"?>
<!DOCTYPE svg PUBLIC "-//W3C//DTD SVG 1.1//EN"
 "http://www.w3.org/Graphics/SVG/1.1/DTD/svg11.dtd">
<!-- Generated by graphviz version 2.44.0 (0)
 -->
<!-- Title: CNVCaller::calculateMeanChromosomeCoverage Pages: 1 -->
<svg width="309pt" height="64pt"
 viewBox="0.00 0.00 309.00 64.00" xmlns="http://www.w3.org/2000/svg" xmlns:xlink="http://www.w3.org/1999/xlink">
<g id="graph0" class="graph" transform="scale(1 1) rotate(0) translate(4 60)">
<title>CNVCaller::calculateMeanChromosomeCoverage</title>
<!-- Node1 -->
<g id="Node000001" class="node">
<title>Node1</title>
<g id="a_Node000001"><a xlink:title="Calculate the mean chromosome coverage.">
<polygon fill="#999999" stroke="#666666" points="131,-42.5 0,-42.5 0,-12.5 131,-12.5 131,-42.5"/>
<text text-anchor="start" x="8" y="-30.5" font-family="Helvetica" font-size="10.00">CNVCaller::calculateMean</text>
<text text-anchor="middle" x="65.5" y="-19.5" font-family="Helvetica" font-size="10.00">ChromosomeCoverage</text>
</a>
</g>
</g>
<!-- Node2 -->
<g id="Node000002" class="node">
<title>Node2</title>
<g id="a_Node000002"><a xlink:href="class_input_data.html#a25f727c1d41c775b4c136c3c5a7ed11c" target="_top" xlink:title=" ">
<polygon fill="white" stroke="#666666" points="301,-56 167,-56 167,-37 301,-37 301,-56"/>
<text text-anchor="middle" x="234" y="-44" font-family="Helvetica" font-size="10.00">InputData::getBAMFilepath</text>
</a>
</g>
</g>
<!-- Node1&#45;&gt;Node2 -->
<g id="edge1_Node000001_Node000002" class="edge">
<title>Node1&#45;&gt;Node2</title>
<g id="a_edge1_Node000001_Node000002"><a xlink:title=" ">
<path fill="none" stroke="#63b8ff" d="M131.35,-34.9C139.75,-35.86 148.41,-36.85 156.97,-37.82"/>
<polygon fill="#63b8ff" stroke="#63b8ff" points="156.62,-41.31 166.96,-38.96 157.42,-34.35 156.62,-41.31"/>
</a>
</g>
</g>
<!-- Node3 -->
<g id="Node000003" class="node">
<title>Node3</title>
<g id="a_Node000003"><a xlink:href="class_input_data.html#a77960f595c62556bb7d0ac5f091d8f59" target="_top" xlink:title=" ">
<polygon fill="white" stroke="#666666" points="296,-19 172,-19 172,0 296,0 296,-19"/>
<text text-anchor="middle" x="234" y="-7" font-family="Helvetica" font-size="10.00">InputData::getRegionChr</text>
</a>
</g>
</g>
<!-- Node1&#45;&gt;Node3 -->
<g id="edge2_Node000001_Node000003" class="edge">
<title>Node1&#45;&gt;Node3</title>
<g id="a_edge2_Node000001_Node000003"><a xlink:title=" ">
<path fill="none" stroke="#63b8ff" d="M131.35,-20.49C141.35,-19.41 151.72,-18.29 161.85,-17.19"/>
<polygon fill="#63b8ff" stroke="#63b8ff" points="162.3,-20.66 171.87,-16.11 161.55,-13.7 162.3,-20.66"/>
</a>
</g>
</g>
</g>
</svg>
