<?xml version="1.0" encoding="UTF-8" standalone="no"?>
<!DOCTYPE svg PUBLIC "-//W3C//DTD SVG 1.1//EN"
 "http://www.w3.org/Graphics/SVG/1.1/DTD/svg11.dtd">
<!-- Generated by graphviz version 2.44.0 (0)
 -->
<!-- Title: CNVCaller::getSNPPopulationFrequencies Pages: 1 -->
<svg width="323pt" height="64pt"
 viewBox="0.00 0.00 323.00 64.00" xmlns="http://www.w3.org/2000/svg" xmlns:xlink="http://www.w3.org/1999/xlink">
<g id="graph0" class="graph" transform="scale(1 1) rotate(0) translate(4 60)">
<title>CNVCaller::getSNPPopulationFrequencies</title>
<!-- Node1 -->
<g id="Node000001" class="node">
<title>Node1</title>
<g id="a_Node000001"><a xlink:title=" ">
<polygon fill="#999999" stroke="#666666" points="148,-42.5 0,-42.5 0,-12.5 148,-12.5 148,-42.5"/>
<text text-anchor="start" x="8" y="-30.5" font-family="Helvetica" font-size="10.00">CNVCaller::getSNPPopulation</text>
<text text-anchor="middle" x="74" y="-19.5" font-family="Helvetica" font-size="10.00">Frequencies</text>
</a>
</g>
</g>
<!-- Node2 -->
<g id="Node000002" class="node">
<title>Node2</title>
<g id="a_Node000002"><a xlink:href="class_input_data.html#a2400ca80dbf8146aba6c04a6341cc94f" target="_top" xlink:title=" ">
<polygon fill="white" stroke="#666666" points="315,-56 184,-56 184,-37 315,-37 315,-56"/>
<text text-anchor="middle" x="249.5" y="-44" font-family="Helvetica" font-size="10.00">InputData::getPFBFilepath</text>
</a>
</g>
</g>
<!-- Node1&#45;&gt;Node2 -->
<g id="edge1_Node000001_Node000002" class="edge">
<title>Node1&#45;&gt;Node2</title>
<g id="a_edge1_Node000001_Node000002"><a xlink:title=" ">
<path fill="none" stroke="#63b8ff" d="M148.08,-35.5C156.5,-36.43 165.11,-37.37 173.56,-38.29"/>
<polygon fill="#63b8ff" stroke="#63b8ff" points="173.45,-41.8 183.77,-39.41 174.21,-34.84 173.45,-41.8"/>
</a>
</g>
</g>
<!-- Node3 -->
<g id="Node000003" class="node">
<title>Node3</title>
<g id="a_Node000003"><a xlink:href="class_input_data.html#a77960f595c62556bb7d0ac5f091d8f59" target="_top" xlink:title=" ">
<polygon fill="white" stroke="#666666" points="311.5,-19 187.5,-19 187.5,0 311.5,0 311.5,-19"/>
<text text-anchor="middle" x="249.5" y="-7" font-family="Helvetica" font-size="10.00">InputData::getRegionChr</text>
</a>
</g>
</g>
<!-- Node1&#45;&gt;Node3 -->
<g id="edge2_Node000001_Node000003" class="edge">
<title>Node1&#45;&gt;Node3</title>
<g id="a_edge2_Node000001_Node000003"><a xlink:title=" ">
<path fill="none" stroke="#63b8ff" d="M148.08,-19.92C157.77,-18.91 167.69,-17.88 177.35,-16.88"/>
<polygon fill="#63b8ff" stroke="#63b8ff" points="177.71,-20.36 187.3,-15.85 176.99,-13.4 177.71,-20.36"/>
</a>
</g>
</g>
</g>
</svg>
