<?xml version="1.0" encoding="UTF-8" standalone="no"?>
<!DOCTYPE svg PUBLIC "-//W3C//DTD SVG 1.1//EN"
 "http://www.w3.org/Graphics/SVG/1.1/DTD/svg11.dtd">
<!-- Generated by graphviz version 2.44.0 (0)
 -->
<!-- Title: InputData::getOutputDir Pages: 1 -->
<svg width="600pt" height="84pt"
 viewBox="0.00 0.00 600.00 84.00" xmlns="http://www.w3.org/2000/svg" xmlns:xlink="http://www.w3.org/1999/xlink">
<g id="graph0" class="graph" transform="scale(1 1) rotate(0) translate(4 80)">
<title>InputData::getOutputDir</title>
<!-- Node1 -->
<g id="Node000001" class="node">
<title>Node1</title>
<g id="a_Node000001"><a xlink:title=" ">
<polygon fill="#999999" stroke="#666666" points="592,-38 472,-38 472,-19 592,-19 592,-38"/>
<text text-anchor="middle" x="532" y="-26" font-family="Helvetica" font-size="10.00">InputData::getOutputDir</text>
</a>
</g>
</g>
<!-- Node2 -->
<g id="Node000002" class="node">
<title>Node2</title>
<g id="a_Node000002"><a xlink:href="class_c_n_v_caller.html#ab4e2177c5253c6e3ce276939644824ee" target="_top" xlink:title=" ">
<polygon fill="white" stroke="#666666" points="436,-76 303,-76 303,-57 436,-57 436,-76"/>
<text text-anchor="middle" x="369.5" y="-64" font-family="Helvetica" font-size="10.00">CNVCaller::readSNPBAFs</text>
</a>
</g>
</g>
<!-- Node1&#45;&gt;Node2 -->
<g id="edge1_Node000001_Node000002" class="edge">
<title>Node1&#45;&gt;Node2</title>
<g id="a_edge1_Node000001_Node000002"><a xlink:title=" ">
<path fill="none" stroke="#63b8ff" d="M480.75,-40.4C458.19,-45.74 431.94,-51.95 410.71,-56.98"/>
<polygon fill="#63b8ff" stroke="#63b8ff" points="481.57,-43.8 490.5,-38.09 479.96,-36.99 481.57,-43.8"/>
</a>
</g>
</g>
<!-- Node3 -->
<g id="Node000003" class="node">
<title>Node3</title>
<g id="a_Node000003"><a xlink:href="class_c_n_v_caller.html#a49824c662095f9af9a38056dadc8933f" target="_top" xlink:title=" ">
<polygon fill="white" stroke="#666666" points="267,-38 185,-38 185,-19 267,-19 267,-38"/>
<text text-anchor="middle" x="226" y="-26" font-family="Helvetica" font-size="10.00">CNVCaller::run</text>
</a>
</g>
</g>
<!-- Node1&#45;&gt;Node3 -->
<g id="edge5_Node000001_Node000003" class="edge">
<title>Node1&#45;&gt;Node3</title>
<g id="a_edge5_Node000001_Node000003"><a xlink:title=" ">
<path fill="none" stroke="#63b8ff" d="M461.5,-28.5C401.44,-28.5 316.73,-28.5 267.27,-28.5"/>
<polygon fill="#63b8ff" stroke="#63b8ff" points="461.66,-32 471.66,-28.5 461.66,-25 461.66,-32"/>
</a>
</g>
</g>
<!-- Node4 -->
<g id="Node000004" class="node">
<title>Node4</title>
<g id="a_Node000004"><a xlink:href="class_context_s_v.html#ac9d32b6e28e5bfdf10e314db0e90e4cd" target="_top" xlink:title=" ">
<polygon fill="white" stroke="#666666" points="149,-19 66,-19 66,0 149,0 149,-19"/>
<text text-anchor="middle" x="107.5" y="-7" font-family="Helvetica" font-size="10.00">ContextSV::run</text>
</a>
</g>
</g>
<!-- Node1&#45;&gt;Node4 -->
<g id="edge6_Node000001_Node000004" class="edge">
<title>Node1&#45;&gt;Node4</title>
<g id="a_edge6_Node000001_Node000004"><a xlink:title=" ">
<path fill="none" stroke="#63b8ff" d="M461.81,-22.61C408.59,-18.36 333.2,-12.96 267,-10.5 226.99,-9.01 181.26,-8.89 149.24,-9.07"/>
<polygon fill="#63b8ff" stroke="#63b8ff" points="461.57,-26.1 471.81,-23.41 462.13,-19.12 461.57,-26.1"/>
</a>
</g>
</g>
<!-- Node2&#45;&gt;Node3 -->
<g id="edge2_Node000002_Node000003" class="edge">
<title>Node2&#45;&gt;Node3</title>
<g id="a_edge2_Node000002_Node000003"><a xlink:title=" ">
<path fill="none" stroke="#63b8ff" d="M322.9,-54.25C303.39,-49.02 280.96,-42.99 262.7,-38.09"/>
<polygon fill="#63b8ff" stroke="#63b8ff" points="322.23,-57.7 332.79,-56.91 324.04,-50.94 322.23,-57.7"/>
</a>
</g>
</g>
<!-- Node3&#45;&gt;Node4 -->
<g id="edge3_Node000003_Node000004" class="edge">
<title>Node3&#45;&gt;Node4</title>
<g id="a_edge3_Node000003_Node000004"><a xlink:title=" ">
<path fill="none" stroke="#63b8ff" d="M174.93,-20.33C166.29,-18.93 157.41,-17.48 149.06,-16.12"/>
<polygon fill="#63b8ff" stroke="#63b8ff" points="174.47,-23.81 184.91,-21.96 175.6,-16.9 174.47,-23.81"/>
</a>
</g>
</g>
<!-- Node5 -->
<g id="Node000005" class="node">
<title>Node5</title>
<g id="a_Node000005"><a xlink:href="swig__interface_8cpp.html#ade07e2f2bb85b7aaac8af156f3e962f6" target="_top" xlink:title=" ">
<polygon fill="white" stroke="#666666" points="30,-19 0,-19 0,0 30,0 30,-19"/>
<text text-anchor="middle" x="15" y="-7" font-family="Helvetica" font-size="10.00">run</text>
</a>
</g>
</g>
<!-- Node4&#45;&gt;Node5 -->
<g id="edge4_Node000004_Node000005" class="edge">
<title>Node4&#45;&gt;Node5</title>
<g id="a_edge4_Node000004_Node000005"><a xlink:title=" ">
<path fill="none" stroke="#63b8ff" d="M55.56,-9.5C46.21,-9.5 37.19,-9.5 30.13,-9.5"/>
<polygon fill="#63b8ff" stroke="#63b8ff" points="55.75,-13 65.75,-9.5 55.75,-6 55.75,-13"/>
</a>
</g>
</g>
</g>
</svg>
