<?xml version="1.0" encoding="UTF-8" standalone="no"?>
<!DOCTYPE svg PUBLIC "-//W3C//DTD SVG 1.1//EN"
 "http://www.w3.org/Graphics/SVG/1.1/DTD/svg11.dtd">
<!-- Generated by graphviz version 2.44.0 (0)
 -->
<!-- Title: FASTAQuery::getFilepath Pages: 1 -->
<svg width="477pt" height="64pt"
 viewBox="0.00 0.00 477.00 64.00" xmlns="http://www.w3.org/2000/svg" xmlns:xlink="http://www.w3.org/1999/xlink">
<g id="graph0" class="graph" transform="scale(1 1) rotate(0) translate(4 60)">
<title>FASTAQuery::getFilepath</title>
<!-- Node1 -->
<g id="Node000001" class="node">
<title>Node1</title>
<g id="a_Node000001"><a xlink:title=" ">
<polygon fill="#999999" stroke="#666666" points="469,-37 342,-37 342,-18 469,-18 469,-37"/>
<text text-anchor="middle" x="405.5" y="-25" font-family="Helvetica" font-size="10.00">FASTAQuery::getFilepath</text>
</a>
</g>
</g>
<!-- Node2 -->
<g id="Node000002" class="node">
<title>Node2</title>
<g id="a_Node000002"><a xlink:href="class_s_v_data.html#a1b61cb9e6d918d67edd608f33d69512d" target="_top" xlink:title=" ">
<polygon fill="white" stroke="#666666" points="306,-56 185,-56 185,-37 306,-37 306,-56"/>
<text text-anchor="middle" x="245.5" y="-44" font-family="Helvetica" font-size="10.00">SVData::getRefGenome</text>
</a>
</g>
</g>
<!-- Node1&#45;&gt;Node2 -->
<g id="edge1_Node000001_Node000002" class="edge">
<title>Node1&#45;&gt;Node2</title>
<g id="a_edge1_Node000001_Node000002"><a xlink:title=" ">
<path fill="none" stroke="#63b8ff" d="M331.63,-36.26C323.08,-37.29 314.44,-38.33 306.1,-39.33"/>
<polygon fill="#63b8ff" stroke="#63b8ff" points="332.09,-39.73 341.6,-35.06 331.25,-32.78 332.09,-39.73"/>
</a>
</g>
</g>
<!-- Node5 -->
<g id="Node000005" class="node">
<title>Node5</title>
<g id="a_Node000005"><a xlink:href="class_s_v_data.html#aaca88ad486232278f6b4252fc501eec7" target="_top" xlink:title=" ">
<polygon fill="white" stroke="#666666" points="298.5,-19 192.5,-19 192.5,0 298.5,0 298.5,-19"/>
<text text-anchor="middle" x="245.5" y="-7" font-family="Helvetica" font-size="10.00">SVData::saveToVCF</text>
</a>
</g>
</g>
<!-- Node1&#45;&gt;Node5 -->
<g id="edge4_Node000001_Node000005" class="edge">
<title>Node1&#45;&gt;Node5</title>
<g id="a_edge4_Node000001_Node000005"><a xlink:title=" ">
<path fill="none" stroke="#63b8ff" d="M331.46,-19.18C320.34,-17.91 309.07,-16.63 298.52,-15.43"/>
<polygon fill="#63b8ff" stroke="#63b8ff" points="331.27,-22.68 341.6,-20.33 332.06,-15.72 331.27,-22.68"/>
</a>
</g>
</g>
<!-- Node3 -->
<g id="Node000003" class="node">
<title>Node3</title>
<g id="a_Node000003"><a xlink:href="class_context_s_v.html#ac9d32b6e28e5bfdf10e314db0e90e4cd" target="_top" xlink:title=" ">
<polygon fill="white" stroke="#666666" points="149,-37 66,-37 66,-18 149,-18 149,-37"/>
<text text-anchor="middle" x="107.5" y="-25" font-family="Helvetica" font-size="10.00">ContextSV::run</text>
</a>
</g>
</g>
<!-- Node2&#45;&gt;Node3 -->
<g id="edge2_Node000002_Node000003" class="edge">
<title>Node2&#45;&gt;Node3</title>
<g id="a_edge2_Node000002_Node000003"><a xlink:title=" ">
<path fill="none" stroke="#63b8ff" d="M174.68,-36.75C166.01,-35.53 157.37,-34.33 149.34,-33.21"/>
<polygon fill="#63b8ff" stroke="#63b8ff" points="174.46,-40.25 184.85,-38.17 175.43,-33.32 174.46,-40.25"/>
</a>
</g>
</g>
<!-- Node4 -->
<g id="Node000004" class="node">
<title>Node4</title>
<g id="a_Node000004"><a xlink:href="swig__interface_8cpp.html#ade07e2f2bb85b7aaac8af156f3e962f6" target="_top" xlink:title=" ">
<polygon fill="white" stroke="#666666" points="30,-37 0,-37 0,-18 30,-18 30,-37"/>
<text text-anchor="middle" x="15" y="-25" font-family="Helvetica" font-size="10.00">run</text>
</a>
</g>
</g>
<!-- Node3&#45;&gt;Node4 -->
<g id="edge3_Node000003_Node000004" class="edge">
<title>Node3&#45;&gt;Node4</title>
<g id="a_edge3_Node000003_Node000004"><a xlink:title=" ">
<path fill="none" stroke="#63b8ff" d="M55.56,-27.5C46.21,-27.5 37.19,-27.5 30.13,-27.5"/>
<polygon fill="#63b8ff" stroke="#63b8ff" points="55.75,-31 65.75,-27.5 55.75,-24 55.75,-31"/>
</a>
</g>
</g>
<!-- Node5&#45;&gt;Node3 -->
<g id="edge5_Node000005_Node000003" class="edge">
<title>Node5&#45;&gt;Node3</title>
<g id="a_edge5_Node000005_Node000003"><a xlink:title=" ">
<path fill="none" stroke="#63b8ff" d="M182.17,-17.75C171.04,-19.22 159.7,-20.72 149.36,-22.09"/>
<polygon fill="#63b8ff" stroke="#63b8ff" points="182.85,-21.19 192.31,-16.41 181.93,-14.25 182.85,-21.19"/>
</a>
</g>
</g>
</g>
</svg>
