<?xml version="1.0" encoding="UTF-8" standalone="no"?>
<!DOCTYPE svg PUBLIC "-//W3C//DTD SVG 1.1//EN"
 "http://www.w3.org/Graphics/SVG/1.1/DTD/svg11.dtd">
<!-- Generated by graphviz version 2.44.0 (0)
 -->
<!-- Title: ContextSV::labelCNVs Pages: 1 -->
<svg width="321pt" height="64pt"
 viewBox="0.00 0.00 321.00 64.00" xmlns="http://www.w3.org/2000/svg" xmlns:xlink="http://www.w3.org/1999/xlink">
<g id="graph0" class="graph" transform="scale(1 1) rotate(0) translate(4 60)">
<title>ContextSV::labelCNVs</title>
<!-- Node1 -->
<g id="Node000001" class="node">
<title>Node1</title>
<g id="a_Node000001"><a xlink:title=" ">
<polygon fill="#999999" stroke="#666666" points="116,-37 0,-37 0,-18 116,-18 116,-37"/>
<text text-anchor="middle" x="58" y="-25" font-family="Helvetica" font-size="10.00">ContextSV::labelCNVs</text>
</a>
</g>
</g>
<!-- Node2 -->
<g id="Node000002" class="node">
<title>Node2</title>
<g id="a_Node000002"><a xlink:href="class_c_n_v_data.html#a032114475ecbdec45d0ef4e2064aa03d" target="_top" xlink:title=" ">
<polygon fill="white" stroke="#666666" points="313,-56 152,-56 152,-37 313,-37 313,-56"/>
<text text-anchor="middle" x="232.5" y="-44" font-family="Helvetica" font-size="10.00">CNVData::getMostCommonCNV</text>
</a>
</g>
</g>
<!-- Node1&#45;&gt;Node2 -->
<g id="edge1_Node000001_Node000002" class="edge">
<title>Node1&#45;&gt;Node2</title>
<g id="a_edge1_Node000001_Node000002"><a xlink:title=" ">
<path fill="none" stroke="#63b8ff" d="M116.44,-33.83C124.61,-34.73 133.17,-35.67 141.78,-36.62"/>
<polygon fill="#63b8ff" stroke="#63b8ff" points="141.56,-40.11 151.89,-37.73 142.33,-33.16 141.56,-40.11"/>
</a>
</g>
</g>
<!-- Node3 -->
<g id="Node000003" class="node">
<title>Node3</title>
<g id="a_Node000003"><a xlink:href="class_s_v_data.html#a05844917bb4a49200b8f167a0d6ac4eb" target="_top" xlink:title=" ">
<polygon fill="white" stroke="#666666" points="292,-19 173,-19 173,0 292,0 292,-19"/>
<text text-anchor="middle" x="232.5" y="-7" font-family="Helvetica" font-size="10.00">SVData::updateSVType</text>
</a>
</g>
</g>
<!-- Node1&#45;&gt;Node3 -->
<g id="edge2_Node000001_Node000003" class="edge">
<title>Node1&#45;&gt;Node3</title>
<g id="a_edge2_Node000001_Node000003"><a xlink:title=" ">
<path fill="none" stroke="#63b8ff" d="M116.44,-21.51C131.31,-19.95 147.48,-18.27 162.86,-16.66"/>
<polygon fill="#63b8ff" stroke="#63b8ff" points="163.26,-20.14 172.84,-15.62 162.53,-13.18 163.26,-20.14"/>
</a>
</g>
</g>
</g>
</svg>
