<?xml version="1.0" encoding="UTF-8" standalone="no"?>
<!DOCTYPE svg PUBLIC "-//W3C//DTD SVG 1.1//EN"
 "http://www.w3.org/Graphics/SVG/1.1/DTD/svg11.dtd">
<!-- Generated by graphviz version 2.44.0 (0)
 -->
<!-- Title: CNVCaller::readSNPBAFs Pages: 1 -->
<svg width="310pt" height="101pt"
 viewBox="0.00 0.00 310.00 101.00" xmlns="http://www.w3.org/2000/svg" xmlns:xlink="http://www.w3.org/1999/xlink">
<g id="graph0" class="graph" transform="scale(1 1) rotate(0) translate(4 97)">
<title>CNVCaller::readSNPBAFs</title>
<!-- Node1 -->
<g id="Node000001" class="node">
<title>Node1</title>
<g id="a_Node000001"><a xlink:title=" ">
<polygon fill="#999999" stroke="#666666" points="133,-56 0,-56 0,-37 133,-37 133,-56"/>
<text text-anchor="middle" x="66.5" y="-44" font-family="Helvetica" font-size="10.00">CNVCaller::readSNPBAFs</text>
</a>
</g>
</g>
<!-- Node2 -->
<g id="Node000002" class="node">
<title>Node2</title>
<g id="a_Node000002"><a xlink:href="class_input_data.html#a3751e2c1c68b0dd0edf0a774f4ec60e3" target="_top" xlink:title=" ">
<polygon fill="white" stroke="#666666" points="295.5,-93 175.5,-93 175.5,-74 295.5,-74 295.5,-93"/>
<text text-anchor="middle" x="235.5" y="-81" font-family="Helvetica" font-size="10.00">InputData::getOutputDir</text>
</a>
</g>
</g>
<!-- Node1&#45;&gt;Node2 -->
<g id="edge1_Node000001_Node000002" class="edge">
<title>Node1&#45;&gt;Node2</title>
<g id="a_edge1_Node000001_Node000002"><a xlink:title=" ">
<path fill="none" stroke="#63b8ff" d="M110.51,-56.03C132.14,-60.82 158.56,-66.68 181.45,-71.75"/>
<polygon fill="#63b8ff" stroke="#63b8ff" points="180.83,-75.19 191.35,-73.94 182.34,-68.36 180.83,-75.19"/>
</a>
</g>
</g>
<!-- Node3 -->
<g id="Node000003" class="node">
<title>Node3</title>
<g id="a_Node000003"><a xlink:href="class_input_data.html#a7017092982665dbd46128bbf69f9e096" target="_top" xlink:title=" ">
<polygon fill="white" stroke="#666666" points="289.5,-56 181.5,-56 181.5,-37 289.5,-37 289.5,-56"/>
<text text-anchor="middle" x="235.5" y="-44" font-family="Helvetica" font-size="10.00">InputData::getRegion</text>
</a>
</g>
</g>
<!-- Node1&#45;&gt;Node3 -->
<g id="edge2_Node000001_Node000003" class="edge">
<title>Node1&#45;&gt;Node3</title>
<g id="a_edge2_Node000001_Node000003"><a xlink:title=" ">
<path fill="none" stroke="#63b8ff" d="M133.02,-46.5C145.52,-46.5 158.57,-46.5 171,-46.5"/>
<polygon fill="#63b8ff" stroke="#63b8ff" points="171.27,-50 181.27,-46.5 171.27,-43 171.27,-50"/>
</a>
</g>
</g>
<!-- Node4 -->
<g id="Node000004" class="node">
<title>Node4</title>
<g id="a_Node000004"><a xlink:href="class_input_data.html#a286bed06763459714fa8a46d8980019e" target="_top" xlink:title=" ">
<polygon fill="white" stroke="#666666" points="302,-19 169,-19 169,0 302,0 302,-19"/>
<text text-anchor="middle" x="235.5" y="-7" font-family="Helvetica" font-size="10.00">InputData::getSNPFilepath</text>
</a>
</g>
</g>
<!-- Node1&#45;&gt;Node4 -->
<g id="edge3_Node000001_Node000004" class="edge">
<title>Node1&#45;&gt;Node4</title>
<g id="a_edge3_Node000001_Node000004"><a xlink:title=" ">
<path fill="none" stroke="#63b8ff" d="M110.51,-36.97C132.14,-32.18 158.56,-26.32 181.45,-21.25"/>
<polygon fill="#63b8ff" stroke="#63b8ff" points="182.34,-24.64 191.35,-19.06 180.83,-17.81 182.34,-24.64"/>
</a>
</g>
</g>
</g>
</svg>
