<?xml version="1.0" encoding="UTF-8" standalone="no"?>
<!DOCTYPE svg PUBLIC "-//W3C//DTD SVG 1.1//EN"
 "http://www.w3.org/Graphics/SVG/1.1/DTD/svg11.dtd">
<!-- Generated by graphviz version 2.44.0 (0)
 -->
<!-- Title: InputData::getRegion Pages: 1 -->
<svg width="601pt" height="76pt"
 viewBox="0.00 0.00 601.00 75.50" xmlns="http://www.w3.org/2000/svg" xmlns:xlink="http://www.w3.org/1999/xlink">
<g id="graph0" class="graph" transform="scale(1 1) rotate(0) translate(4 71.5)">
<title>InputData::getRegion</title>
<!-- Node1 -->
<g id="Node000001" class="node">
<title>Node1</title>
<g id="a_Node000001"><a xlink:title=" ">
<polygon fill="#999999" stroke="#666666" points="593,-40 485,-40 485,-21 593,-21 593,-40"/>
<text text-anchor="middle" x="539" y="-28" font-family="Helvetica" font-size="10.00">InputData::getRegion</text>
</a>
</g>
</g>
<!-- Node2 -->
<g id="Node000002" class="node">
<title>Node2</title>
<g id="a_Node000002"><a xlink:href="class_s_v_caller.html#a8d587b8fffa1948abd8a78a376b2df23" target="_top" xlink:title=" ">
<polygon fill="white" stroke="#666666" points="449,-67.5 303,-67.5 303,-37.5 449,-37.5 449,-67.5"/>
<text text-anchor="start" x="311" y="-55.5" font-family="Helvetica" font-size="10.00">SVCaller::detectSVsFromSplit</text>
<text text-anchor="middle" x="376" y="-44.5" font-family="Helvetica" font-size="10.00">Reads</text>
</a>
</g>
</g>
<!-- Node1&#45;&gt;Node2 -->
<g id="edge1_Node000001_Node000002" class="edge">
<title>Node1&#45;&gt;Node2</title>
<g id="a_edge1_Node000001_Node000002"><a xlink:title=" ">
<path fill="none" stroke="#63b8ff" d="M474.72,-39.15C466.31,-40.3 457.62,-41.48 449.07,-42.65"/>
<polygon fill="#63b8ff" stroke="#63b8ff" points="475.4,-42.59 484.84,-37.76 474.45,-35.65 475.4,-42.59"/>
</a>
</g>
</g>
<!-- Node6 -->
<g id="Node000006" class="node">
<title>Node6</title>
<g id="a_Node000006"><a xlink:href="class_c_n_v_caller.html#ab4e2177c5253c6e3ce276939644824ee" target="_top" xlink:title=" ">
<polygon fill="white" stroke="#666666" points="442.5,-19 309.5,-19 309.5,0 442.5,0 442.5,-19"/>
<text text-anchor="middle" x="376" y="-7" font-family="Helvetica" font-size="10.00">CNVCaller::readSNPBAFs</text>
</a>
</g>
</g>
<!-- Node1&#45;&gt;Node6 -->
<g id="edge5_Node000001_Node000006" class="edge">
<title>Node1&#45;&gt;Node6</title>
<g id="a_edge5_Node000001_Node000006"><a xlink:title=" ">
<path fill="none" stroke="#63b8ff" d="M474.88,-22.27C464.33,-20.89 453.36,-19.46 442.75,-18.08"/>
<polygon fill="#63b8ff" stroke="#63b8ff" points="474.47,-25.74 484.84,-23.57 475.37,-18.8 474.47,-25.74"/>
</a>
</g>
</g>
<!-- Node3 -->
<g id="Node000003" class="node">
<title>Node3</title>
<g id="a_Node000003"><a xlink:href="class_s_v_caller.html#a61ab472662c7fa46bf2d6e6d71f0441f" target="_top" xlink:title=" ">
<polygon fill="white" stroke="#666666" points="262.5,-60 189.5,-60 189.5,-41 262.5,-41 262.5,-60"/>
<text text-anchor="middle" x="226" y="-48" font-family="Helvetica" font-size="10.00">SVCaller::run</text>
</a>
</g>
</g>
<!-- Node2&#45;&gt;Node3 -->
<g id="edge2_Node000002_Node000003" class="edge">
<title>Node2&#45;&gt;Node3</title>
<g id="a_edge2_Node000002_Node000003"><a xlink:title=" ">
<path fill="none" stroke="#63b8ff" d="M292.62,-51.39C282.11,-51.24 271.83,-51.11 262.64,-50.98"/>
<polygon fill="#63b8ff" stroke="#63b8ff" points="292.69,-54.89 302.73,-51.52 292.78,-47.89 292.69,-54.89"/>
</a>
</g>
</g>
<!-- Node4 -->
<g id="Node000004" class="node">
<title>Node4</title>
<g id="a_Node000004"><a xlink:href="class_context_s_v.html#ac9d32b6e28e5bfdf10e314db0e90e4cd" target="_top" xlink:title=" ">
<polygon fill="white" stroke="#666666" points="149,-40 66,-40 66,-21 149,-21 149,-40"/>
<text text-anchor="middle" x="107.5" y="-28" font-family="Helvetica" font-size="10.00">ContextSV::run</text>
</a>
</g>
</g>
<!-- Node3&#45;&gt;Node4 -->
<g id="edge3_Node000003_Node000004" class="edge">
<title>Node3&#45;&gt;Node4</title>
<g id="a_edge3_Node000003_Node000004"><a xlink:title=" ">
<path fill="none" stroke="#63b8ff" d="M179.29,-42.65C169.35,-40.95 158.9,-39.15 149.17,-37.48"/>
<polygon fill="#63b8ff" stroke="#63b8ff" points="178.97,-46.15 189.41,-44.39 180.15,-39.25 178.97,-46.15"/>
</a>
</g>
</g>
<!-- Node5 -->
<g id="Node000005" class="node">
<title>Node5</title>
<g id="a_Node000005"><a xlink:href="swig__interface_8cpp.html#ade07e2f2bb85b7aaac8af156f3e962f6" target="_top" xlink:title=" ">
<polygon fill="white" stroke="#666666" points="30,-40 0,-40 0,-21 30,-21 30,-40"/>
<text text-anchor="middle" x="15" y="-28" font-family="Helvetica" font-size="10.00">run</text>
</a>
</g>
</g>
<!-- Node4&#45;&gt;Node5 -->
<g id="edge4_Node000004_Node000005" class="edge">
<title>Node4&#45;&gt;Node5</title>
<g id="a_edge4_Node000004_Node000005"><a xlink:title=" ">
<path fill="none" stroke="#63b8ff" d="M55.56,-30.5C46.21,-30.5 37.19,-30.5 30.13,-30.5"/>
<polygon fill="#63b8ff" stroke="#63b8ff" points="55.75,-34 65.75,-30.5 55.75,-27 55.75,-34"/>
</a>
</g>
</g>
<!-- Node7 -->
<g id="Node000007" class="node">
<title>Node7</title>
<g id="a_Node000007"><a xlink:href="class_c_n_v_caller.html#a49824c662095f9af9a38056dadc8933f" target="_top" xlink:title=" ">
<polygon fill="white" stroke="#666666" points="267,-22 185,-22 185,-3 267,-3 267,-22"/>
<text text-anchor="middle" x="226" y="-10" font-family="Helvetica" font-size="10.00">CNVCaller::run</text>
</a>
</g>
</g>
<!-- Node6&#45;&gt;Node7 -->
<g id="edge6_Node000006_Node000007" class="edge">
<title>Node6&#45;&gt;Node7</title>
<g id="a_edge6_Node000006_Node000007"><a xlink:title=" ">
<path fill="none" stroke="#63b8ff" d="M299.09,-11.04C288.03,-11.26 277.04,-11.49 267.09,-11.69"/>
<polygon fill="#63b8ff" stroke="#63b8ff" points="299.3,-14.54 309.22,-10.83 299.15,-7.54 299.3,-14.54"/>
</a>
</g>
</g>
<!-- Node7&#45;&gt;Node4 -->
<g id="edge7_Node000007_Node000004" class="edge">
<title>Node7&#45;&gt;Node4</title>
<g id="a_edge7_Node000007_Node000004"><a xlink:title=" ">
<path fill="none" stroke="#63b8ff" d="M174.93,-20.24C166.29,-21.57 157.41,-22.94 149.06,-24.23"/>
<polygon fill="#63b8ff" stroke="#63b8ff" points="175.56,-23.68 184.91,-18.69 174.49,-16.76 175.56,-23.68"/>
</a>
</g>
</g>
</g>
</svg>
