<?xml version="1.0" encoding="UTF-8" standalone="no"?>
<!DOCTYPE svg PUBLIC "-//W3C//DTD SVG 1.1//EN"
 "http://www.w3.org/Graphics/SVG/1.1/DTD/svg11.dtd">
<!-- Generated by graphviz version 2.44.0 (0)
 -->
<!-- Title: InputData::getRegionEnd Pages: 1 -->
<svg width="630pt" height="38pt"
 viewBox="0.00 0.00 630.00 38.00" xmlns="http://www.w3.org/2000/svg" xmlns:xlink="http://www.w3.org/1999/xlink">
<g id="graph0" class="graph" transform="scale(1 1) rotate(0) translate(4 34)">
<title>InputData::getRegionEnd</title>
<!-- Node1 -->
<g id="Node000001" class="node">
<title>Node1</title>
<g id="a_Node000001"><a xlink:title=" ">
<polygon fill="#999999" stroke="#666666" points="622,-24.5 497,-24.5 497,-5.5 622,-5.5 622,-24.5"/>
<text text-anchor="middle" x="559.5" y="-12.5" font-family="Helvetica" font-size="10.00">InputData::getRegionEnd</text>
</a>
</g>
</g>
<!-- Node2 -->
<g id="Node000002" class="node">
<title>Node2</title>
<g id="a_Node000002"><a xlink:href="class_c_n_v_caller.html#a1a4f00ed62c012caa5d5139ee8be81a9" target="_top" xlink:title=" ">
<polygon fill="white" stroke="#666666" points="461,-30 303,-30 303,0 461,0 461,-30"/>
<text text-anchor="start" x="311" y="-18" font-family="Helvetica" font-size="10.00">CNVCaller::calculateLogRRatios</text>
<text text-anchor="middle" x="382" y="-7" font-family="Helvetica" font-size="10.00">AtSNPS</text>
</a>
</g>
</g>
<!-- Node1&#45;&gt;Node2 -->
<g id="edge1_Node000001_Node000002" class="edge">
<title>Node1&#45;&gt;Node2</title>
<g id="a_edge1_Node000001_Node000002"><a xlink:title=" ">
<path fill="none" stroke="#63b8ff" d="M486.56,-15C478.21,-15 469.66,-15 461.23,-15"/>
<polygon fill="#63b8ff" stroke="#63b8ff" points="486.63,-18.5 496.63,-15 486.63,-11.5 486.63,-18.5"/>
</a>
</g>
</g>
<!-- Node3 -->
<g id="Node000003" class="node">
<title>Node3</title>
<g id="a_Node000003"><a xlink:href="class_c_n_v_caller.html#a49824c662095f9af9a38056dadc8933f" target="_top" xlink:title=" ">
<polygon fill="white" stroke="#666666" points="267,-24.5 185,-24.5 185,-5.5 267,-5.5 267,-24.5"/>
<text text-anchor="middle" x="226" y="-12.5" font-family="Helvetica" font-size="10.00">CNVCaller::run</text>
</a>
</g>
</g>
<!-- Node2&#45;&gt;Node3 -->
<g id="edge2_Node000002_Node000003" class="edge">
<title>Node2&#45;&gt;Node3</title>
<g id="a_edge2_Node000002_Node000003"><a xlink:title=" ">
<path fill="none" stroke="#63b8ff" d="M292.56,-15C283.69,-15 275.02,-15 267.05,-15"/>
<polygon fill="#63b8ff" stroke="#63b8ff" points="292.65,-18.5 302.65,-15 292.65,-11.5 292.65,-18.5"/>
</a>
</g>
</g>
<!-- Node4 -->
<g id="Node000004" class="node">
<title>Node4</title>
<g id="a_Node000004"><a xlink:href="class_context_s_v.html#ac9d32b6e28e5bfdf10e314db0e90e4cd" target="_top" xlink:title=" ">
<polygon fill="white" stroke="#666666" points="149,-24.5 66,-24.5 66,-5.5 149,-5.5 149,-24.5"/>
<text text-anchor="middle" x="107.5" y="-12.5" font-family="Helvetica" font-size="10.00">ContextSV::run</text>
</a>
</g>
</g>
<!-- Node3&#45;&gt;Node4 -->
<g id="edge3_Node000003_Node000004" class="edge">
<title>Node3&#45;&gt;Node4</title>
<g id="a_edge3_Node000003_Node000004"><a xlink:title=" ">
<path fill="none" stroke="#63b8ff" d="M174.65,-15C166.1,-15 157.32,-15 149.06,-15"/>
<polygon fill="#63b8ff" stroke="#63b8ff" points="174.91,-18.5 184.91,-15 174.91,-11.5 174.91,-18.5"/>
</a>
</g>
</g>
<!-- Node5 -->
<g id="Node000005" class="node">
<title>Node5</title>
<g id="a_Node000005"><a xlink:href="swig__interface_8cpp.html#ade07e2f2bb85b7aaac8af156f3e962f6" target="_top" xlink:title=" ">
<polygon fill="white" stroke="#666666" points="30,-24.5 0,-24.5 0,-5.5 30,-5.5 30,-24.5"/>
<text text-anchor="middle" x="15" y="-12.5" font-family="Helvetica" font-size="10.00">run</text>
</a>
</g>
</g>
<!-- Node4&#45;&gt;Node5 -->
<g id="edge4_Node000004_Node000005" class="edge">
<title>Node4&#45;&gt;Node5</title>
<g id="a_edge4_Node000004_Node000005"><a xlink:title=" ">
<path fill="none" stroke="#63b8ff" d="M55.56,-15C46.21,-15 37.19,-15 30.13,-15"/>
<polygon fill="#63b8ff" stroke="#63b8ff" points="55.75,-18.5 65.75,-15 55.75,-11.5 55.75,-18.5"/>
</a>
</g>
</g>
</g>
</svg>
