<?xml version="1.0" encoding="UTF-8" standalone="no"?>
<!DOCTYPE svg PUBLIC "-//W3C//DTD SVG 1.1//EN"
 "http://www.w3.org/Graphics/SVG/1.1/DTD/svg11.dtd">
<!-- Generated by graphviz version 2.44.0 (0)
 -->
<!-- Title: InputData::getBAMFilepath Pages: 1 -->
<svg width="821pt" height="153pt"
 viewBox="0.00 0.00 821.00 153.21" xmlns="http://www.w3.org/2000/svg" xmlns:xlink="http://www.w3.org/1999/xlink">
<g id="graph0" class="graph" transform="scale(1 1) rotate(0) translate(4 149.21)">
<title>InputData::getBAMFilepath</title>
<!-- Node1 -->
<g id="Node000001" class="node">
<title>Node1</title>
<g id="a_Node000001"><a xlink:title=" ">
<polygon fill="#999999" stroke="#666666" points="813,-96.5 679,-96.5 679,-77.5 813,-77.5 813,-96.5"/>
<text text-anchor="middle" x="746" y="-84.5" font-family="Helvetica" font-size="10.00">InputData::getBAMFilepath</text>
</a>
</g>
</g>
<!-- Node2 -->
<g id="Node000002" class="node">
<title>Node2</title>
<g id="a_Node000002"><a xlink:href="class_c_n_v_caller.html#a1a4f00ed62c012caa5d5139ee8be81a9" target="_top" xlink:title=" ">
<polygon fill="white" stroke="#666666" points="461,-102 303,-102 303,-72 461,-72 461,-102"/>
<text text-anchor="start" x="311" y="-90" font-family="Helvetica" font-size="10.00">CNVCaller::calculateLogRRatios</text>
<text text-anchor="middle" x="382" y="-79" font-family="Helvetica" font-size="10.00">AtSNPS</text>
</a>
</g>
</g>
<!-- Node1&#45;&gt;Node2 -->
<g id="edge1_Node000001_Node000002" class="edge">
<title>Node1&#45;&gt;Node2</title>
<g id="a_edge1_Node000001_Node000002"><a xlink:title=" ">
<path fill="none" stroke="#63b8ff" d="M721.49,-101.73C701.48,-113.35 671.53,-128.62 643,-135 579.67,-149.16 560.6,-147.84 497,-135 465.85,-128.71 432.61,-113.65 410.12,-102.06"/>
<polygon fill="#63b8ff" stroke="#63b8ff" points="723.41,-104.66 730.21,-96.54 719.83,-98.65 723.41,-104.66"/>
</a>
</g>
</g>
<!-- Node6 -->
<g id="Node000006" class="node">
<title>Node6</title>
<g id="a_Node000006"><a xlink:href="class_c_n_v_caller.html#adf3674729125dd11ec7c6ba9d5781b30" target="_top" xlink:title="Calculate the mean chromosome coverage.">
<polygon fill="white" stroke="#666666" points="635.5,-126 504.5,-126 504.5,-96 635.5,-96 635.5,-126"/>
<text text-anchor="start" x="512.5" y="-114" font-family="Helvetica" font-size="10.00">CNVCaller::calculateMean</text>
<text text-anchor="middle" x="570" y="-103" font-family="Helvetica" font-size="10.00">ChromosomeCoverage</text>
</a>
</g>
</g>
<!-- Node1&#45;&gt;Node6 -->
<g id="edge5_Node000001_Node000006" class="edge">
<title>Node1&#45;&gt;Node6</title>
<g id="a_edge5_Node000001_Node000006"><a xlink:title=" ">
<path fill="none" stroke="#63b8ff" d="M668.69,-97.53C657.67,-99.05 646.42,-100.6 635.66,-102.08"/>
<polygon fill="#63b8ff" stroke="#63b8ff" points="669.29,-100.98 678.72,-96.14 668.34,-94.04 669.29,-100.98"/>
</a>
</g>
</g>
<!-- Node7 -->
<g id="Node000007" class="node">
<title>Node7</title>
<g id="a_Node000007"><a xlink:href="class_c_n_v_caller.html#ad4fa39b6107dc8fd88e45ed988fc5ece" target="_top" xlink:title=" ">
<polygon fill="white" stroke="#666666" points="641.5,-78 498.5,-78 498.5,-48 641.5,-48 641.5,-78"/>
<text text-anchor="start" x="506.5" y="-66" font-family="Helvetica" font-size="10.00">CNVCaller::calculateWindow</text>
<text text-anchor="middle" x="570" y="-55" font-family="Helvetica" font-size="10.00">LogRRatio</text>
</a>
</g>
</g>
<!-- Node1&#45;&gt;Node7 -->
<g id="edge7_Node000001_Node000007" class="edge">
<title>Node1&#45;&gt;Node7</title>
<g id="a_edge7_Node000001_Node000007"><a xlink:title=" ">
<path fill="none" stroke="#63b8ff" d="M668.69,-76.47C659.73,-75.24 650.61,-73.98 641.73,-72.76"/>
<polygon fill="#63b8ff" stroke="#63b8ff" points="668.34,-79.96 678.72,-77.86 669.29,-73.02 668.34,-79.96"/>
</a>
</g>
</g>
<!-- Node8 -->
<g id="Node000008" class="node">
<title>Node8</title>
<g id="a_Node000008"><a xlink:href="class_s_v_caller.html#a8d587b8fffa1948abd8a78a376b2df23" target="_top" xlink:title=" ">
<polygon fill="white" stroke="#666666" points="643,-30 497,-30 497,0 643,0 643,-30"/>
<text text-anchor="start" x="505" y="-18" font-family="Helvetica" font-size="10.00">SVCaller::detectSVsFromSplit</text>
<text text-anchor="middle" x="570" y="-7" font-family="Helvetica" font-size="10.00">Reads</text>
</a>
</g>
</g>
<!-- Node1&#45;&gt;Node8 -->
<g id="edge9_Node000001_Node000008" class="edge">
<title>Node1&#45;&gt;Node8</title>
<g id="a_edge9_Node000001_Node000008"><a xlink:title=" ">
<path fill="none" stroke="#63b8ff" d="M717.5,-72.98C697.19,-62.89 668.72,-49.3 643,-39 635.29,-35.91 627.02,-32.89 618.92,-30.09"/>
<polygon fill="#63b8ff" stroke="#63b8ff" points="715.98,-76.13 726.49,-77.48 719.12,-69.87 715.98,-76.13"/>
</a>
</g>
</g>
<!-- Node3 -->
<g id="Node000003" class="node">
<title>Node3</title>
<g id="a_Node000003"><a xlink:href="class_c_n_v_caller.html#a49824c662095f9af9a38056dadc8933f" target="_top" xlink:title=" ">
<polygon fill="white" stroke="#666666" points="267,-91.5 185,-91.5 185,-72.5 267,-72.5 267,-91.5"/>
<text text-anchor="middle" x="226" y="-79.5" font-family="Helvetica" font-size="10.00">CNVCaller::run</text>
</a>
</g>
</g>
<!-- Node2&#45;&gt;Node3 -->
<g id="edge2_Node000002_Node000003" class="edge">
<title>Node2&#45;&gt;Node3</title>
<g id="a_edge2_Node000002_Node000003"><a xlink:title=" ">
<path fill="none" stroke="#63b8ff" d="M292.56,-84.13C283.69,-83.84 275.02,-83.56 267.05,-83.3"/>
<polygon fill="#63b8ff" stroke="#63b8ff" points="292.54,-87.63 302.65,-84.46 292.77,-80.63 292.54,-87.63"/>
</a>
</g>
</g>
<!-- Node4 -->
<g id="Node000004" class="node">
<title>Node4</title>
<g id="a_Node000004"><a xlink:href="class_context_s_v.html#ac9d32b6e28e5bfdf10e314db0e90e4cd" target="_top" xlink:title=" ">
<polygon fill="white" stroke="#666666" points="149,-63.5 66,-63.5 66,-44.5 149,-44.5 149,-63.5"/>
<text text-anchor="middle" x="107.5" y="-51.5" font-family="Helvetica" font-size="10.00">ContextSV::run</text>
</a>
</g>
</g>
<!-- Node3&#45;&gt;Node4 -->
<g id="edge3_Node000003_Node000004" class="edge">
<title>Node3&#45;&gt;Node4</title>
<g id="a_edge3_Node000003_Node000004"><a xlink:title=" ">
<path fill="none" stroke="#63b8ff" d="M175.47,-70.1C166.33,-67.9 156.89,-65.63 148.09,-63.51"/>
<polygon fill="#63b8ff" stroke="#63b8ff" points="174.69,-73.51 185.23,-72.44 176.33,-66.7 174.69,-73.51"/>
</a>
</g>
</g>
<!-- Node5 -->
<g id="Node000005" class="node">
<title>Node5</title>
<g id="a_Node000005"><a xlink:href="swig__interface_8cpp.html#ade07e2f2bb85b7aaac8af156f3e962f6" target="_top" xlink:title=" ">
<polygon fill="white" stroke="#666666" points="30,-63.5 0,-63.5 0,-44.5 30,-44.5 30,-63.5"/>
<text text-anchor="middle" x="15" y="-51.5" font-family="Helvetica" font-size="10.00">run</text>
</a>
</g>
</g>
<!-- Node4&#45;&gt;Node5 -->
<g id="edge4_Node000004_Node000005" class="edge">
<title>Node4&#45;&gt;Node5</title>
<g id="a_edge4_Node000004_Node000005"><a xlink:title=" ">
<path fill="none" stroke="#63b8ff" d="M55.56,-54C46.21,-54 37.19,-54 30.13,-54"/>
<polygon fill="#63b8ff" stroke="#63b8ff" points="55.75,-57.5 65.75,-54 55.75,-50.5 55.75,-57.5"/>
</a>
</g>
</g>
<!-- Node6&#45;&gt;Node2 -->
<g id="edge6_Node000006_Node000002" class="edge">
<title>Node6&#45;&gt;Node2</title>
<g id="a_edge6_Node000006_Node000002"><a xlink:title=" ">
<path fill="none" stroke="#63b8ff" d="M494.52,-101.39C483.56,-99.97 472.23,-98.51 461.2,-97.09"/>
<polygon fill="#63b8ff" stroke="#63b8ff" points="494.1,-104.86 504.47,-102.67 495,-97.92 494.1,-104.86"/>
</a>
</g>
</g>
<!-- Node7&#45;&gt;Node2 -->
<g id="edge8_Node000007_Node000002" class="edge">
<title>Node7&#45;&gt;Node2</title>
<g id="a_edge8_Node000007_Node000002"><a xlink:title=" ">
<path fill="none" stroke="#63b8ff" d="M488.37,-73.4C479.39,-74.56 470.25,-75.74 461.31,-76.9"/>
<polygon fill="#63b8ff" stroke="#63b8ff" points="488.95,-76.86 498.42,-72.11 488.05,-69.92 488.95,-76.86"/>
</a>
</g>
</g>
<!-- Node9 -->
<g id="Node000009" class="node">
<title>Node9</title>
<g id="a_Node000009"><a xlink:href="class_s_v_caller.html#a61ab472662c7fa46bf2d6e6d71f0441f" target="_top" xlink:title=" ">
<polygon fill="white" stroke="#666666" points="262.5,-45.5 189.5,-45.5 189.5,-26.5 262.5,-26.5 262.5,-45.5"/>
<text text-anchor="middle" x="226" y="-33.5" font-family="Helvetica" font-size="10.00">SVCaller::run</text>
</a>
</g>
</g>
<!-- Node8&#45;&gt;Node9 -->
<g id="edge10_Node000008_Node000009" class="edge">
<title>Node8&#45;&gt;Node9</title>
<g id="a_edge10_Node000008_Node000009"><a xlink:title=" ">
<path fill="none" stroke="#63b8ff" d="M486.58,-20.06C415.24,-24.44 315.48,-30.57 262.82,-33.8"/>
<polygon fill="#63b8ff" stroke="#63b8ff" points="487.12,-23.53 496.89,-19.43 486.69,-16.55 487.12,-23.53"/>
</a>
</g>
</g>
<!-- Node9&#45;&gt;Node4 -->
<g id="edge11_Node000009_Node000004" class="edge">
<title>Node9&#45;&gt;Node4</title>
<g id="a_edge11_Node000009_Node000004"><a xlink:title=" ">
<path fill="none" stroke="#63b8ff" d="M179.29,-43.06C169.35,-44.6 158.9,-46.21 149.17,-47.72"/>
<polygon fill="#63b8ff" stroke="#63b8ff" points="180.06,-46.48 189.41,-41.5 179,-39.57 180.06,-46.48"/>
</a>
</g>
</g>
</g>
</svg>
