<?xml version="1.0" encoding="UTF-8" standalone="no"?>
<!DOCTYPE svg PUBLIC "-//W3C//DTD SVG 1.1//EN"
 "http://www.w3.org/Graphics/SVG/1.1/DTD/svg11.dtd">
<!-- Generated by graphviz version 2.44.0 (0)
 -->
<!-- Title: CNVCaller::run Pages: 1 -->
<svg width="1053pt" height="938pt"
 viewBox="0.00 0.00 1053.00 937.83" xmlns="http://www.w3.org/2000/svg" xmlns:xlink="http://www.w3.org/1999/xlink">
<g id="graph0" class="graph" transform="scale(1 1) rotate(0) translate(4 933.83)">
<title>CNVCaller::run</title>
<!-- Node1 -->
<g id="Node000001" class="node">
<title>Node1</title>
<g id="a_Node000001"><a xlink:title=" ">
<polygon fill="#999999" stroke="#666666" points="82,-651.83 0,-651.83 0,-632.83 82,-632.83 82,-651.83"/>
<text text-anchor="middle" x="41" y="-639.83" font-family="Helvetica" font-size="10.00">CNVCaller::run</text>
</a>
</g>
</g>
<!-- Node2 -->
<g id="Node000002" class="node">
<title>Node2</title>
<g id="a_Node000002"><a xlink:href="class_c_n_v_data.html#a9da4349acd1be1d5106c583dca26e00b" target="_top" xlink:title=" ">
<polygon fill="white" stroke="#666666" points="256,-929.83 138,-929.83 138,-910.83 256,-910.83 256,-929.83"/>
<text text-anchor="middle" x="197" y="-917.83" font-family="Helvetica" font-size="10.00">CNVData::addCNVCall</text>
</a>
</g>
</g>
<!-- Node1&#45;&gt;Node2 -->
<g id="edge1_Node000001_Node000002" class="edge">
<title>Node1&#45;&gt;Node2</title>
<g id="a_edge1_Node000001_Node000002"><a xlink:title=" ">
<path fill="none" stroke="#63b8ff" d="M41.85,-651.97C41.83,-689.14 46.84,-824.61 118,-896.33 121.93,-900.29 126.5,-903.6 131.41,-906.36"/>
<polygon fill="#63b8ff" stroke="#63b8ff" points="130.04,-909.59 140.57,-910.78 133.08,-903.28 130.04,-909.59"/>
</a>
</g>
</g>
<!-- Node3 -->
<g id="Node000003" class="node">
<title>Node3</title>
<g id="a_Node000003"><a xlink:href="class_c_n_v_caller.html#a1a4f00ed62c012caa5d5139ee8be81a9" target="_top" xlink:title=" ">
<polygon fill="white" stroke="#666666" points="276,-574.33 118,-574.33 118,-544.33 276,-544.33 276,-574.33"/>
<text text-anchor="start" x="126" y="-562.33" font-family="Helvetica" font-size="10.00">CNVCaller::calculateLogRRatios</text>
<text text-anchor="middle" x="197" y="-551.33" font-family="Helvetica" font-size="10.00">AtSNPS</text>
</a>
</g>
</g>
<!-- Node1&#45;&gt;Node3 -->
<g id="edge2_Node000001_Node000003" class="edge">
<title>Node1&#45;&gt;Node3</title>
<g id="a_edge2_Node000001_Node000003"><a xlink:title=" ">
<path fill="none" stroke="#63b8ff" d="M59.67,-632.81C83.83,-619.78 127.76,-596.1 159.23,-579.14"/>
<polygon fill="#63b8ff" stroke="#63b8ff" points="161.01,-582.16 168.16,-574.33 157.69,-576 161.01,-582.16"/>
</a>
</g>
</g>
<!-- Node6 -->
<g id="Node000006" class="node">
<title>Node6</title>
<g id="a_Node000006"><a xlink:href="class_input_data.html#a77960f595c62556bb7d0ac5f091d8f59" target="_top" xlink:title=" ">
<polygon fill="white" stroke="#666666" points="620,-777.83 496,-777.83 496,-758.83 620,-758.83 620,-777.83"/>
<text text-anchor="middle" x="558" y="-765.83" font-family="Helvetica" font-size="10.00">InputData::getRegionChr</text>
</a>
</g>
</g>
<!-- Node1&#45;&gt;Node6 -->
<g id="edge20_Node000001_Node000006" class="edge">
<title>Node1&#45;&gt;Node6</title>
<g id="a_edge20_Node000001_Node000006"><a xlink:title=" ">
<path fill="none" stroke="#63b8ff" d="M42.05,-651.88C42.79,-685.7 50.39,-800.28 118,-847.33 241.18,-933.04 312.4,-873.09 455,-826.33 485.05,-816.47 516.16,-797.24 535.99,-783.63"/>
<polygon fill="#63b8ff" stroke="#63b8ff" points="538.09,-786.44 544.27,-777.83 534.07,-780.7 538.09,-786.44"/>
</a>
</g>
</g>
<!-- Node15 -->
<g id="Node000015" class="node">
<title>Node15</title>
<g id="a_Node000015"><a xlink:href="class_input_data.html#a3751e2c1c68b0dd0edf0a774f4ec60e3" target="_top" xlink:title=" ">
<polygon fill="white" stroke="#666666" points="443.5,-344.83 323.5,-344.83 323.5,-325.83 443.5,-325.83 443.5,-344.83"/>
<text text-anchor="middle" x="383.5" y="-332.83" font-family="Helvetica" font-size="10.00">InputData::getOutputDir</text>
</a>
</g>
</g>
<!-- Node1&#45;&gt;Node15 -->
<g id="edge18_Node000001_Node000015" class="edge">
<title>Node1&#45;&gt;Node15</title>
<g id="a_edge18_Node000001_Node000015"><a xlink:title=" ">
<path fill="none" stroke="#63b8ff" d="M47.91,-632.69C59.96,-613.35 88.74,-568.77 118,-535.33 195.65,-446.58 208.91,-411.58 312,-354.33 316.15,-352.02 320.58,-349.99 325.14,-348.19"/>
<polygon fill="#63b8ff" stroke="#63b8ff" points="326.36,-351.47 334.61,-344.83 324.02,-344.88 326.36,-351.47"/>
</a>
</g>
</g>
<!-- Node16 -->
<g id="Node000016" class="node">
<title>Node16</title>
<g id="a_Node000016"><a xlink:href="class_input_data.html#a2400ca80dbf8146aba6c04a6341cc94f" target="_top" xlink:title=" ">
<polygon fill="white" stroke="#666666" points="449,-777.83 318,-777.83 318,-758.83 449,-758.83 449,-777.83"/>
<text text-anchor="middle" x="383.5" y="-765.83" font-family="Helvetica" font-size="10.00">InputData::getPFBFilepath</text>
</a>
</g>
</g>
<!-- Node1&#45;&gt;Node16 -->
<g id="edge19_Node000001_Node000016" class="edge">
<title>Node1&#45;&gt;Node16</title>
<g id="a_edge19_Node000001_Node000016"><a xlink:title=" ">
<path fill="none" stroke="#63b8ff" d="M66.47,-651.88C113.74,-670.27 220.98,-711.65 312,-744.33 322.33,-748.03 333.56,-751.92 343.96,-755.46"/>
<polygon fill="#63b8ff" stroke="#63b8ff" points="343.02,-758.84 353.61,-758.73 345.26,-752.21 343.02,-758.84"/>
</a>
</g>
</g>
<!-- Node17 -->
<g id="Node000017" class="node">
<title>Node17</title>
<g id="a_Node000017"><a xlink:href="class_c_n_v_caller.html#a86849c0439b84dfc1eb3fab7a4b4b6a0" target="_top" xlink:title=" ">
<polygon fill="white" stroke="#666666" points="271,-783.33 123,-783.33 123,-753.33 271,-753.33 271,-783.33"/>
<text text-anchor="start" x="131" y="-771.33" font-family="Helvetica" font-size="10.00">CNVCaller::getSNPPopulation</text>
<text text-anchor="middle" x="197" y="-760.33" font-family="Helvetica" font-size="10.00">Frequencies</text>
</a>
</g>
</g>
<!-- Node1&#45;&gt;Node17 -->
<g id="edge21_Node000001_Node000017" class="edge">
<title>Node1&#45;&gt;Node17</title>
<g id="a_edge21_Node000001_Node000017"><a xlink:title=" ">
<path fill="none" stroke="#63b8ff" d="M54.08,-652.21C78.79,-672.43 135.61,-718.91 169.38,-746.55"/>
<polygon fill="#63b8ff" stroke="#63b8ff" points="167.48,-749.51 177.43,-753.14 171.91,-744.1 167.48,-749.51"/>
</a>
</g>
</g>
<!-- Node18 -->
<g id="Node000018" class="node">
<title>Node18</title>
<g id="a_Node000018"><a xlink:href="khmm_8cpp.html#a5ee9a227e8068bbf43d6fb3a19221cc1" target="_top" xlink:title="Read an HMM from a file.">
<polygon fill="white" stroke="#666666" points="232,-232.83 162,-232.83 162,-213.83 232,-213.83 232,-232.83"/>
<text text-anchor="middle" x="197" y="-220.83" font-family="Helvetica" font-size="10.00">ReadCHMM</text>
</a>
</g>
</g>
<!-- Node1&#45;&gt;Node18 -->
<g id="edge24_Node000001_Node000018" class="edge">
<title>Node1&#45;&gt;Node18</title>
<g id="a_edge24_Node000001_Node000018"><a xlink:title=" ">
<path fill="none" stroke="#63b8ff" d="M42.14,-632.58C43.13,-590.02 51.27,-417.28 118,-298.33 131.66,-273.97 155.76,-252.61 173.57,-238.98"/>
<polygon fill="#63b8ff" stroke="#63b8ff" points="175.78,-241.69 181.73,-232.93 171.62,-236.07 175.78,-241.69"/>
</a>
</g>
</g>
<!-- Node21 -->
<g id="Node000021" class="node">
<title>Node21</title>
<g id="a_Node000021"><a xlink:href="class_c_n_v_caller.html#ab4e2177c5253c6e3ce276939644824ee" target="_top" xlink:title=" ">
<polygon fill="white" stroke="#666666" points="263.5,-325.83 130.5,-325.83 130.5,-306.83 263.5,-306.83 263.5,-325.83"/>
<text text-anchor="middle" x="197" y="-313.83" font-family="Helvetica" font-size="10.00">CNVCaller::readSNPBAFs</text>
</a>
</g>
</g>
<!-- Node1&#45;&gt;Node21 -->
<g id="edge27_Node000001_Node000021" class="edge">
<title>Node1&#45;&gt;Node21</title>
<g id="a_edge27_Node000001_Node000021"><a xlink:title=" ">
<path fill="none" stroke="#63b8ff" d="M44.2,-632.64C51.61,-600.96 77.52,-498.14 118,-421.33 135.6,-387.93 163.24,-353.63 180.45,-333.68"/>
<polygon fill="#63b8ff" stroke="#63b8ff" points="183.17,-335.88 187.13,-326.05 177.91,-331.27 183.17,-335.88"/>
</a>
</g>
</g>
<!-- Node24 -->
<g id="Node000024" class="node">
<title>Node24</title>
<g id="a_Node000024"><a xlink:href="class_c_n_v_caller.html#a3b1c3b8698fd0b1b11ef1f5227b10f64" target="_top" xlink:title=" ">
<polygon fill="white" stroke="#666666" points="255.5,-837.83 138.5,-837.83 138.5,-818.83 255.5,-818.83 255.5,-837.83"/>
<text text-anchor="middle" x="197" y="-825.83" font-family="Helvetica" font-size="10.00">CNVCaller::saveToTSV</text>
</a>
</g>
</g>
<!-- Node1&#45;&gt;Node24 -->
<g id="edge31_Node000001_Node000024" class="edge">
<title>Node1&#45;&gt;Node24</title>
<g id="a_edge31_Node000001_Node000024"><a xlink:title=" ">
<path fill="none" stroke="#63b8ff" d="M44.51,-652.1C51.66,-678.2 74.5,-750.38 118,-792.33 128.01,-801.98 141.08,-809.37 153.64,-814.88"/>
<polygon fill="#63b8ff" stroke="#63b8ff" points="152.51,-818.2 163.1,-818.72 155.15,-811.71 152.51,-818.2"/>
</a>
</g>
</g>
<!-- Node25 -->
<g id="Node000025" class="node">
<title>Node25</title>
<g id="a_Node000025"><a xlink:href="khmm_8cpp.html#ac44ba55ccbb73d2b015ca7537479381e" target="_top" xlink:title="Run the main HMM algorithm.">
<polygon fill="white" stroke="#666666" points="237.5,-118.83 156.5,-118.83 156.5,-99.83 237.5,-99.83 237.5,-118.83"/>
<text text-anchor="middle" x="197" y="-106.83" font-family="Helvetica" font-size="10.00">testVit_CHMM</text>
</a>
</g>
</g>
<!-- Node1&#45;&gt;Node25 -->
<g id="edge33_Node000001_Node000025" class="edge">
<title>Node1&#45;&gt;Node25</title>
<g id="a_edge33_Node000001_Node000025"><a xlink:title=" ">
<path fill="none" stroke="#63b8ff" d="M41.92,-632.58C41.85,-584 45.72,-364.07 118,-205.33 132.28,-173.97 159.29,-144.21 177.47,-126.37"/>
<polygon fill="#63b8ff" stroke="#63b8ff" points="180.32,-128.48 185.13,-119.04 175.48,-123.43 180.32,-128.48"/>
</a>
</g>
</g>
<!-- Node4 -->
<g id="Node000004" class="node">
<title>Node4</title>
<g id="a_Node000004"><a xlink:href="class_c_n_v_caller.html#adf3674729125dd11ec7c6ba9d5781b30" target="_top" xlink:title="Calculate the mean chromosome coverage.">
<polygon fill="white" stroke="#666666" points="449,-702.33 318,-702.33 318,-672.33 449,-672.33 449,-702.33"/>
<text text-anchor="start" x="326" y="-690.33" font-family="Helvetica" font-size="10.00">CNVCaller::calculateMean</text>
<text text-anchor="middle" x="383.5" y="-679.33" font-family="Helvetica" font-size="10.00">ChromosomeCoverage</text>
</a>
</g>
</g>
<!-- Node3&#45;&gt;Node4 -->
<g id="edge3_Node000003_Node000004" class="edge">
<title>Node3&#45;&gt;Node4</title>
<g id="a_edge3_Node000003_Node000004"><a xlink:title=" ">
<path fill="none" stroke="#63b8ff" d="M210.87,-574.52C230.55,-596.88 270.26,-638.65 312,-663.33 314.84,-665 317.81,-666.59 320.86,-668.07"/>
<polygon fill="#63b8ff" stroke="#63b8ff" points="319.64,-671.36 330.2,-672.26 322.51,-664.98 319.64,-671.36"/>
</a>
</g>
</g>
<!-- Node5 -->
<g id="Node000005" class="node">
<title>Node5</title>
<g id="a_Node000005"><a xlink:href="class_input_data.html#a25f727c1d41c775b4c136c3c5a7ed11c" target="_top" xlink:title=" ">
<polygon fill="white" stroke="#666666" points="625,-648.83 491,-648.83 491,-629.83 625,-629.83 625,-648.83"/>
<text text-anchor="middle" x="558" y="-636.83" font-family="Helvetica" font-size="10.00">InputData::getBAMFilepath</text>
</a>
</g>
</g>
<!-- Node3&#45;&gt;Node5 -->
<g id="edge9_Node000003_Node000005" class="edge">
<title>Node3&#45;&gt;Node5</title>
<g id="a_edge9_Node000003_Node000005"><a xlink:title=" ">
<path fill="none" stroke="#63b8ff" d="M221.98,-544.27C269.03,-516.81 375.76,-464.88 455,-504.33 504.14,-528.79 535.89,-589.48 549.45,-620.46"/>
<polygon fill="#63b8ff" stroke="#63b8ff" points="546.25,-621.88 553.36,-629.74 552.71,-619.17 546.25,-621.88"/>
</a>
</g>
</g>
<!-- Node3&#45;&gt;Node6 -->
<g id="edge12_Node000003_Node000006" class="edge">
<title>Node3&#45;&gt;Node6</title>
<g id="a_edge12_Node000003_Node000006"><a xlink:title=" ">
<path fill="none" stroke="#63b8ff" d="M208.93,-574.47C236.08,-612.02 304.92,-706.71 312,-711.33 327.55,-721.47 430.51,-743.28 497.92,-756.79"/>
<polygon fill="#63b8ff" stroke="#63b8ff" points="497.51,-760.28 508,-758.8 498.88,-753.41 497.51,-760.28"/>
</a>
</g>
</g>
<!-- Node7 -->
<g id="Node000007" class="node">
<title>Node7</title>
<g id="a_Node000007"><a xlink:href="class_c_n_v_caller.html#ad4fa39b6107dc8fd88e45ed988fc5ece" target="_top" xlink:title=" ">
<polygon fill="white" stroke="#666666" points="455,-654.33 312,-654.33 312,-624.33 455,-624.33 455,-654.33"/>
<text text-anchor="start" x="320" y="-642.33" font-family="Helvetica" font-size="10.00">CNVCaller::calculateWindow</text>
<text text-anchor="middle" x="383.5" y="-631.33" font-family="Helvetica" font-size="10.00">LogRRatio</text>
</a>
</g>
</g>
<!-- Node3&#45;&gt;Node7 -->
<g id="edge6_Node000003_Node000007" class="edge">
<title>Node3&#45;&gt;Node7</title>
<g id="a_edge6_Node000003_Node000007"><a xlink:title=" ">
<path fill="none" stroke="#63b8ff" d="M226.11,-574.4C248.91,-586.31 282.05,-602.93 312,-615.33 316.47,-617.18 321.14,-619 325.85,-620.76"/>
<polygon fill="#63b8ff" stroke="#63b8ff" points="324.95,-624.16 335.54,-624.28 327.34,-617.58 324.95,-624.16"/>
</a>
</g>
</g>
<!-- Node8 -->
<g id="Node000008" class="node">
<title>Node8</title>
<g id="a_Node000008"><a xlink:href="class_input_data.html#af7a013cc30faa2b30a06209e8370c11b" target="_top" xlink:title=" ">
<polygon fill="white" stroke="#666666" points="439.5,-455.83 327.5,-455.83 327.5,-436.83 439.5,-436.83 439.5,-455.83"/>
<text text-anchor="middle" x="383.5" y="-443.83" font-family="Helvetica" font-size="10.00">InputData::getChrCov</text>
</a>
</g>
</g>
<!-- Node3&#45;&gt;Node8 -->
<g id="edge10_Node000003_Node000008" class="edge">
<title>Node3&#45;&gt;Node8</title>
<g id="a_edge10_Node000003_Node000008"><a xlink:title=" ">
<path fill="none" stroke="#63b8ff" d="M213.77,-544.18C234.71,-524.75 273.56,-491.1 312,-470.33 319.85,-466.08 328.59,-462.38 337.18,-459.24"/>
<polygon fill="#63b8ff" stroke="#63b8ff" points="338.43,-462.51 346.74,-455.94 336.15,-455.9 338.43,-462.51"/>
</a>
</g>
</g>
<!-- Node10 -->
<g id="Node000010" class="node">
<title>Node10</title>
<g id="a_Node000010"><a xlink:href="class_input_data.html#a699d2da48f9573630ee0bc6baa3a4509" target="_top" xlink:title=" ">
<polygon fill="white" stroke="#666666" points="446,-381.83 321,-381.83 321,-362.83 446,-362.83 446,-381.83"/>
<text text-anchor="middle" x="383.5" y="-369.83" font-family="Helvetica" font-size="10.00">InputData::getRegionEnd</text>
</a>
</g>
</g>
<!-- Node3&#45;&gt;Node10 -->
<g id="edge13_Node000003_Node000010" class="edge">
<title>Node3&#45;&gt;Node10</title>
<g id="a_edge13_Node000003_Node000010"><a xlink:title=" ">
<path fill="none" stroke="#63b8ff" d="M209.15,-544.23C224.57,-523.22 253.08,-483.85 276,-449.33 292.78,-424.05 287.65,-409.43 312,-391.33 314.51,-389.46 317.2,-387.77 320,-386.26"/>
<polygon fill="#63b8ff" stroke="#63b8ff" points="321.67,-389.34 329.26,-381.95 318.72,-382.99 321.67,-389.34"/>
</a>
</g>
</g>
<!-- Node11 -->
<g id="Node000011" class="node">
<title>Node11</title>
<g id="a_Node000011"><a xlink:href="class_input_data.html#a9fd17a113b232b81eb32b8182cd25ee7" target="_top" xlink:title=" ">
<polygon fill="white" stroke="#666666" points="445,-605.83 322,-605.83 322,-586.83 445,-586.83 445,-605.83"/>
<text text-anchor="middle" x="383.5" y="-593.83" font-family="Helvetica" font-size="10.00">InputData::getRegionSet</text>
</a>
</g>
</g>
<!-- Node3&#45;&gt;Node11 -->
<g id="edge14_Node000003_Node000011" class="edge">
<title>Node3&#45;&gt;Node11</title>
<g id="a_edge14_Node000003_Node000011"><a xlink:title=" ">
<path fill="none" stroke="#63b8ff" d="M273.04,-574.38C290.39,-577.86 308.58,-581.5 325.04,-584.8"/>
<polygon fill="#63b8ff" stroke="#63b8ff" points="324.55,-588.28 335.05,-586.81 325.93,-581.41 324.55,-588.28"/>
</a>
</g>
</g>
<!-- Node12 -->
<g id="Node000012" class="node">
<title>Node12</title>
<g id="a_Node000012"><a xlink:href="class_input_data.html#ad8c9fdf8a3053610ee119ba7002b1f4e" target="_top" xlink:title=" ">
<polygon fill="white" stroke="#666666" points="448.5,-568.83 318.5,-568.83 318.5,-549.83 448.5,-549.83 448.5,-568.83"/>
<text text-anchor="middle" x="383.5" y="-556.83" font-family="Helvetica" font-size="10.00">InputData::getRegionStart</text>
</a>
</g>
</g>
<!-- Node3&#45;&gt;Node12 -->
<g id="edge15_Node000003_Node000012" class="edge">
<title>Node3&#45;&gt;Node12</title>
<g id="a_edge15_Node000003_Node000012"><a xlink:title=" ">
<path fill="none" stroke="#63b8ff" d="M276.24,-559.33C286.89,-559.33 297.79,-559.33 308.35,-559.33"/>
<polygon fill="#63b8ff" stroke="#63b8ff" points="308.37,-562.83 318.37,-559.33 308.37,-555.83 308.37,-562.83"/>
</a>
</g>
</g>
<!-- Node13 -->
<g id="Node000013" class="node">
<title>Node13</title>
<g id="a_Node000013"><a xlink:href="class_input_data.html#a62fa5522dcccf80e66b3708d4e700acb" target="_top" xlink:title=" ">
<polygon fill="white" stroke="#666666" points="449.5,-531.83 317.5,-531.83 317.5,-512.83 449.5,-512.83 449.5,-531.83"/>
<text text-anchor="middle" x="383.5" y="-519.83" font-family="Helvetica" font-size="10.00">InputData::getWindowSize</text>
</a>
</g>
</g>
<!-- Node3&#45;&gt;Node13 -->
<g id="edge16_Node000003_Node000013" class="edge">
<title>Node3&#45;&gt;Node13</title>
<g id="a_edge16_Node000003_Node000013"><a xlink:title=" ">
<path fill="none" stroke="#63b8ff" d="M273.04,-544.28C290.39,-540.8 308.58,-537.15 325.04,-533.85"/>
<polygon fill="#63b8ff" stroke="#63b8ff" points="325.93,-537.24 335.05,-531.84 324.55,-530.38 325.93,-537.24"/>
</a>
</g>
</g>
<!-- Node14 -->
<g id="Node000014" class="node">
<title>Node14</title>
<g id="a_Node000014"><a xlink:href="utils_8cpp.html#a94bd78faf212464ede8144a4be0e8cf8" target="_top" xlink:title=" ">
<polygon fill="white" stroke="#666666" points="420.5,-418.83 346.5,-418.83 346.5,-399.83 420.5,-399.83 420.5,-418.83"/>
<text text-anchor="middle" x="383.5" y="-406.83" font-family="Helvetica" font-size="10.00">printProgress</text>
</a>
</g>
</g>
<!-- Node3&#45;&gt;Node14 -->
<g id="edge17_Node000003_Node000014" class="edge">
<title>Node3&#45;&gt;Node14</title>
<g id="a_edge17_Node000003_Node000014"><a xlink:title=" ">
<path fill="none" stroke="#63b8ff" d="M206.87,-544.19C223.75,-516.76 263.18,-458.86 312,-428.33 319.5,-423.64 328.14,-420.09 336.75,-417.42"/>
<polygon fill="#63b8ff" stroke="#63b8ff" points="337.69,-420.79 346.4,-414.75 335.83,-414.04 337.69,-420.79"/>
</a>
</g>
</g>
<!-- Node4&#45;&gt;Node5 -->
<g id="edge4_Node000004_Node000005" class="edge">
<title>Node4&#45;&gt;Node5</title>
<g id="a_edge4_Node000004_Node000005"><a xlink:title=" ">
<path fill="none" stroke="#63b8ff" d="M438.61,-672.27C462.53,-665.61 490.31,-657.88 512.95,-651.59"/>
<polygon fill="#63b8ff" stroke="#63b8ff" points="513.93,-654.94 522.63,-648.89 512.06,-648.2 513.93,-654.94"/>
</a>
</g>
</g>
<!-- Node4&#45;&gt;Node6 -->
<g id="edge5_Node000004_Node000006" class="edge">
<title>Node4&#45;&gt;Node6</title>
<g id="a_edge5_Node000004_Node000006"><a xlink:title=" ">
<path fill="none" stroke="#63b8ff" d="M422.8,-702.42C433.31,-706.74 444.66,-711.57 455,-716.33 480.88,-728.22 509.75,-743.1 530.15,-753.88"/>
<polygon fill="#63b8ff" stroke="#63b8ff" points="528.69,-757.07 539.16,-758.67 531.97,-750.89 528.69,-757.07"/>
</a>
</g>
</g>
<!-- Node7&#45;&gt;Node5 -->
<g id="edge7_Node000007_Node000005" class="edge">
<title>Node7&#45;&gt;Node5</title>
<g id="a_edge7_Node000007_Node000005"><a xlink:title=" ">
<path fill="none" stroke="#63b8ff" d="M455.16,-639.33C463.56,-639.33 472.17,-639.33 480.64,-639.33"/>
<polygon fill="#63b8ff" stroke="#63b8ff" points="480.89,-642.83 490.89,-639.33 480.89,-635.83 480.89,-642.83"/>
</a>
</g>
</g>
<!-- Node7&#45;&gt;Node6 -->
<g id="edge8_Node000007_Node000006" class="edge">
<title>Node7&#45;&gt;Node6</title>
<g id="a_edge8_Node000007_Node000006"><a xlink:title=" ">
<path fill="none" stroke="#63b8ff" d="M437.74,-654.38C443.76,-656.97 449.65,-659.94 455,-663.33 492.54,-687.07 526.37,-727.35 544.05,-750.5"/>
<polygon fill="#63b8ff" stroke="#63b8ff" points="541.42,-752.83 550.21,-758.74 547.03,-748.64 541.42,-752.83"/>
</a>
</g>
</g>
<!-- Node9 -->
<g id="Node000009" class="node">
<title>Node9</title>
<g id="a_Node000009"><a xlink:href="kc_8cpp.html#a26084b7a5f02a520fedea796faec8a89" target="_top" xlink:title=" ">
<polygon fill="white" stroke="#666666" points="574,-455.83 542,-455.83 542,-436.83 574,-436.83 574,-455.83"/>
<text text-anchor="middle" x="558" y="-443.83" font-family="Helvetica" font-size="10.00">cov</text>
</a>
</g>
</g>
<!-- Node8&#45;&gt;Node9 -->
<g id="edge11_Node000008_Node000009" class="edge">
<title>Node8&#45;&gt;Node9</title>
<g id="a_edge11_Node000008_Node000009"><a xlink:title=" ">
<path fill="none" stroke="#63b8ff" d="M439.55,-446.33C470.51,-446.33 507.65,-446.33 531.76,-446.33"/>
<polygon fill="#63b8ff" stroke="#63b8ff" points="531.86,-449.83 541.86,-446.33 531.86,-442.83 531.86,-449.83"/>
</a>
</g>
</g>
<!-- Node17&#45;&gt;Node6 -->
<g id="edge23_Node000017_Node000006" class="edge">
<title>Node17&#45;&gt;Node6</title>
<g id="a_edge23_Node000017_Node000006"><a xlink:title=" ">
<path fill="none" stroke="#63b8ff" d="M271.06,-782.34C284.62,-784.42 298.7,-786.23 312,-787.33 375.34,-792.57 391.71,-793.17 455,-787.33 471.48,-785.81 489.27,-782.93 505.3,-779.87"/>
<polygon fill="#63b8ff" stroke="#63b8ff" points="506.43,-783.21 515.56,-777.84 505.07,-776.34 506.43,-783.21"/>
</a>
</g>
</g>
<!-- Node17&#45;&gt;Node16 -->
<g id="edge22_Node000017_Node000016" class="edge">
<title>Node17&#45;&gt;Node16</title>
<g id="a_edge22_Node000017_Node000016"><a xlink:title=" ">
<path fill="none" stroke="#63b8ff" d="M271.18,-768.33C283.21,-768.33 295.69,-768.33 307.75,-768.33"/>
<polygon fill="#63b8ff" stroke="#63b8ff" points="307.77,-771.83 317.77,-768.33 307.77,-764.83 307.77,-771.83"/>
</a>
</g>
</g>
<!-- Node19 -->
<g id="Node000019" class="node">
<title>Node19</title>
<g id="a_Node000019"><a xlink:href="kc_8cpp.html#ab1a02a50dfbc26318f6bb296731b6f3a" target="_top" xlink:title=" ">
<polygon fill="white" stroke="#666666" points="582.5,-156.83 533.5,-156.83 533.5,-137.83 582.5,-137.83 582.5,-156.83"/>
<text text-anchor="middle" x="558" y="-144.83" font-family="Helvetica" font-size="10.00">dmatrix</text>
</a>
</g>
</g>
<!-- Node18&#45;&gt;Node19 -->
<g id="edge25_Node000018_Node000019" class="edge">
<title>Node18&#45;&gt;Node19</title>
<g id="a_edge25_Node000018_Node000019"><a xlink:title=" ">
<path fill="none" stroke="#63b8ff" d="M232.11,-225.42C282.15,-227.47 377.87,-227.49 455,-204.33 485.16,-195.27 516.25,-176.24 536.05,-162.66"/>
<polygon fill="#63b8ff" stroke="#63b8ff" points="538.13,-165.47 544.31,-156.86 534.11,-159.74 538.13,-165.47"/>
</a>
</g>
</g>
<!-- Node20 -->
<g id="Node000020" class="node">
<title>Node20</title>
<g id="a_Node000020"><a xlink:href="kc_8cpp.html#ae21c4c252ad5d5710ebd03d6f07e40de" target="_top" xlink:title=" ">
<polygon fill="white" stroke="#666666" points="407.5,-194.83 359.5,-194.83 359.5,-175.83 407.5,-175.83 407.5,-194.83"/>
<text text-anchor="middle" x="383.5" y="-182.83" font-family="Helvetica" font-size="10.00">dvector</text>
</a>
</g>
</g>
<!-- Node18&#45;&gt;Node20 -->
<g id="edge26_Node000018_Node000020" class="edge">
<title>Node18&#45;&gt;Node20</title>
<g id="a_edge26_Node000018_Node000020"><a xlink:title=" ">
<path fill="none" stroke="#63b8ff" d="M232.27,-216.27C265.75,-209.37 316.35,-198.95 349.42,-192.14"/>
<polygon fill="#63b8ff" stroke="#63b8ff" points="350.4,-195.51 359.49,-190.07 348.99,-188.66 350.4,-195.51"/>
</a>
</g>
</g>
<!-- Node21&#45;&gt;Node15 -->
<g id="edge28_Node000021_Node000015" class="edge">
<title>Node21&#45;&gt;Node15</title>
<g id="a_edge28_Node000021_Node000015"><a xlink:title=" ">
<path fill="none" stroke="#63b8ff" d="M263.57,-323.08C279.69,-324.74 297.01,-326.52 313.3,-328.2"/>
<polygon fill="#63b8ff" stroke="#63b8ff" points="312.98,-331.69 323.29,-329.23 313.7,-324.72 312.98,-331.69"/>
</a>
</g>
</g>
<!-- Node22 -->
<g id="Node000022" class="node">
<title>Node22</title>
<g id="a_Node000022"><a xlink:href="class_input_data.html#a7017092982665dbd46128bbf69f9e096" target="_top" xlink:title=" ">
<polygon fill="white" stroke="#666666" points="437.5,-307.83 329.5,-307.83 329.5,-288.83 437.5,-288.83 437.5,-307.83"/>
<text text-anchor="middle" x="383.5" y="-295.83" font-family="Helvetica" font-size="10.00">InputData::getRegion</text>
</a>
</g>
</g>
<!-- Node21&#45;&gt;Node22 -->
<g id="edge29_Node000021_Node000022" class="edge">
<title>Node21&#45;&gt;Node22</title>
<g id="a_edge29_Node000021_Node000022"><a xlink:title=" ">
<path fill="none" stroke="#63b8ff" d="M263.57,-309.93C281.66,-308.17 301.25,-306.25 319.21,-304.5"/>
<polygon fill="#63b8ff" stroke="#63b8ff" points="319.68,-307.97 329.29,-303.52 319,-301.01 319.68,-307.97"/>
</a>
</g>
</g>
<!-- Node23 -->
<g id="Node000023" class="node">
<title>Node23</title>
<g id="a_Node000023"><a xlink:href="class_input_data.html#a286bed06763459714fa8a46d8980019e" target="_top" xlink:title=" ">
<polygon fill="white" stroke="#666666" points="450,-270.83 317,-270.83 317,-251.83 450,-251.83 450,-270.83"/>
<text text-anchor="middle" x="383.5" y="-258.83" font-family="Helvetica" font-size="10.00">InputData::getSNPFilepath</text>
</a>
</g>
</g>
<!-- Node21&#45;&gt;Node23 -->
<g id="edge30_Node000021_Node000023" class="edge">
<title>Node21&#45;&gt;Node23</title>
<g id="a_edge30_Node000021_Node000023"><a xlink:title=" ">
<path fill="none" stroke="#63b8ff" d="M226.95,-306.81C249.93,-299.35 282.92,-288.83 312,-280.33 319.78,-278.05 328.08,-275.72 336.15,-273.52"/>
<polygon fill="#63b8ff" stroke="#63b8ff" points="337.09,-276.89 345.83,-270.89 335.26,-270.13 337.09,-276.89"/>
</a>
</g>
</g>
<!-- Node24&#45;&gt;Node6 -->
<g id="edge32_Node000024_Node000006" class="edge">
<title>Node24&#45;&gt;Node6</title>
<g id="a_edge32_Node000024_Node000006"><a xlink:title=" ">
<path fill="none" stroke="#63b8ff" d="M255.5,-826.57C307.98,-824.06 387.43,-818 455,-803.33 478.79,-798.16 504.73,-789.21 524.49,-781.66"/>
<polygon fill="#63b8ff" stroke="#63b8ff" points="525.9,-784.87 533.94,-777.97 523.36,-778.35 525.9,-784.87"/>
</a>
</g>
</g>
<!-- Node25&#45;&gt;Node19 -->
<g id="edge34_Node000025_Node000019" class="edge">
<title>Node25&#45;&gt;Node19</title>
<g id="a_edge34_Node000025_Node000019"><a xlink:title=" ">
<path fill="none" stroke="#63b8ff" d="M237.71,-116.82C259.56,-120.73 287.2,-125.31 312,-128.33 387.2,-137.49 475.95,-143.08 523.28,-145.65"/>
<polygon fill="#63b8ff" stroke="#63b8ff" points="523.11,-149.15 533.28,-146.18 523.48,-142.16 523.11,-149.15"/>
</a>
</g>
</g>
<!-- Node25&#45;&gt;Node20 -->
<g id="edge35_Node000025_Node000020" class="edge">
<title>Node25&#45;&gt;Node20</title>
<g id="a_edge35_Node000025_Node000020"><a xlink:title=" ">
<path fill="none" stroke="#63b8ff" d="M217.51,-118.95C240.01,-129.88 278.24,-147.92 312,-161.33 324.2,-166.17 337.82,-170.95 349.81,-174.95"/>
<polygon fill="#63b8ff" stroke="#63b8ff" points="348.84,-178.32 359.43,-178.12 351.02,-171.67 348.84,-178.32"/>
</a>
</g>
</g>
<!-- Node26 -->
<g id="Node000026" class="node">
<title>Node26</title>
<g id="a_Node000026"><a xlink:href="kc_8cpp.html#a04fbc9bc53e6303830eb4338bc1f3259" target="_top" xlink:title=" ">
<polygon fill="white" stroke="#666666" points="593.5,-25.83 522.5,-25.83 522.5,-6.83 593.5,-6.83 593.5,-25.83"/>
<text text-anchor="middle" x="558" y="-13.83" font-family="Helvetica" font-size="10.00">free_dmatrix</text>
</a>
</g>
</g>
<!-- Node25&#45;&gt;Node26 -->
<g id="edge36_Node000025_Node000026" class="edge">
<title>Node25&#45;&gt;Node26</title>
<g id="a_edge36_Node000025_Node000026"><a xlink:title=" ">
<path fill="none" stroke="#63b8ff" d="M205.57,-99.78C222.22,-79.65 264.36,-33.29 312,-16.33 378.73,7.44 462.31,0.28 512.59,-7.62"/>
<polygon fill="#63b8ff" stroke="#63b8ff" points="512.05,-11.08 522.49,-9.25 513.19,-4.17 512.05,-11.08"/>
</a>
</g>
</g>
<!-- Node27 -->
<g id="Node000027" class="node">
<title>Node27</title>
<g id="a_Node000027"><a xlink:href="kc_8cpp.html#aefc01b3e130f9ecc15c4a376ba987bae" target="_top" xlink:title=" ">
<polygon fill="white" stroke="#666666" points="417.5,-81.83 349.5,-81.83 349.5,-62.83 417.5,-62.83 417.5,-81.83"/>
<text text-anchor="middle" x="383.5" y="-69.83" font-family="Helvetica" font-size="10.00">free_imatrix</text>
</a>
</g>
</g>
<!-- Node25&#45;&gt;Node27 -->
<g id="edge37_Node000025_Node000027" class="edge">
<title>Node25&#45;&gt;Node27</title>
<g id="a_edge37_Node000025_Node000027"><a xlink:title=" ">
<path fill="none" stroke="#63b8ff" d="M237.58,-101.39C267.55,-95.38 308.66,-87.13 339.45,-80.96"/>
<polygon fill="#63b8ff" stroke="#63b8ff" points="340.34,-84.35 349.46,-78.95 338.97,-77.49 340.34,-84.35"/>
</a>
</g>
</g>
<!-- Node28 -->
<g id="Node000028" class="node">
<title>Node28</title>
<g id="a_Node000028"><a xlink:href="kc_8cpp.html#abf1b4d8302f62d6a4c71bfc56c4e0527" target="_top" xlink:title=" ">
<polygon fill="white" stroke="#666666" points="406.5,-44.83 360.5,-44.83 360.5,-25.83 406.5,-25.83 406.5,-44.83"/>
<text text-anchor="middle" x="383.5" y="-32.83" font-family="Helvetica" font-size="10.00">imatrix</text>
</a>
</g>
</g>
<!-- Node25&#45;&gt;Node28 -->
<g id="edge38_Node000025_Node000028" class="edge">
<title>Node25&#45;&gt;Node28</title>
<g id="a_edge38_Node000025_Node000028"><a xlink:title=" ">
<path fill="none" stroke="#63b8ff" d="M214.89,-99.65C236.73,-87.46 276.21,-66.53 312,-53.33 324.32,-48.79 338.25,-44.97 350.46,-42.03"/>
<polygon fill="#63b8ff" stroke="#63b8ff" points="351.27,-45.43 360.23,-39.77 349.7,-38.61 351.27,-45.43"/>
</a>
</g>
</g>
<!-- Node29 -->
<g id="Node000029" class="node">
<title>Node29</title>
<g id="a_Node000029"><a xlink:href="khmm_8cpp.html#a51dbadd369b498ec093b590f39e8ea96" target="_top" xlink:title="Viterbi algorithm.">
<polygon fill="white" stroke="#666666" points="439,-118.83 328,-118.83 328,-99.83 439,-99.83 439,-118.83"/>
<text text-anchor="middle" x="383.5" y="-106.83" font-family="Helvetica" font-size="10.00">ViterbiLogNP_CHMM</text>
</a>
</g>
</g>
<!-- Node25&#45;&gt;Node29 -->
<g id="edge39_Node000025_Node000029" class="edge">
<title>Node25&#45;&gt;Node29</title>
<g id="a_edge39_Node000025_Node000029"><a xlink:title=" ">
<path fill="none" stroke="#63b8ff" d="M237.58,-109.33C260.96,-109.33 291.12,-109.33 317.87,-109.33"/>
<polygon fill="#63b8ff" stroke="#63b8ff" points="317.94,-112.83 327.94,-109.33 317.94,-105.83 317.94,-112.83"/>
</a>
</g>
</g>
<!-- Node29&#45;&gt;Node19 -->
<g id="edge53_Node000029_Node000019" class="edge">
<title>Node29&#45;&gt;Node19</title>
<g id="a_edge53_Node000029_Node000019"><a xlink:title=" ">
<path fill="none" stroke="#63b8ff" d="M428.03,-118.92C457.59,-125.43 496.1,-133.91 523.32,-139.91"/>
<polygon fill="#63b8ff" stroke="#63b8ff" points="522.64,-143.34 533.16,-142.08 524.15,-136.51 522.64,-143.34"/>
</a>
</g>
</g>
<!-- Node29&#45;&gt;Node26 -->
<g id="edge54_Node000029_Node000026" class="edge">
<title>Node29&#45;&gt;Node26</title>
<g id="a_edge54_Node000029_Node000026"><a xlink:title=" ">
<path fill="none" stroke="#63b8ff" d="M433.67,-99.74C441.09,-97.27 448.44,-94.18 455,-90.33 474.78,-78.7 472.8,-67.3 491,-53.33 502.18,-44.74 515.58,-36.85 527.38,-30.58"/>
<polygon fill="#63b8ff" stroke="#63b8ff" points="529.14,-33.61 536.43,-25.92 525.94,-27.39 529.14,-33.61"/>
</a>
</g>
</g>
<!-- Node30 -->
<g id="Node000030" class="node">
<title>Node30</title>
<g id="a_Node000030"><a xlink:href="khmm_8cpp.html#a02dc04d07f642f9756939ef10af76319" target="_top" xlink:title="O1 emission probability.">
<polygon fill="white" stroke="#666666" points="577,-81.83 539,-81.83 539,-62.83 577,-62.83 577,-81.83"/>
<text text-anchor="middle" x="558" y="-69.83" font-family="Helvetica" font-size="10.00">b1iot</text>
</a>
</g>
</g>
<!-- Node29&#45;&gt;Node30 -->
<g id="edge40_Node000029_Node000030" class="edge">
<title>Node29&#45;&gt;Node30</title>
<g id="a_edge40_Node000029_Node000030"><a xlink:title=" ">
<path fill="none" stroke="#63b8ff" d="M428.92,-99.8C460.47,-93.03 501.87,-84.15 528.94,-78.35"/>
<polygon fill="#63b8ff" stroke="#63b8ff" points="529.87,-81.73 538.91,-76.21 528.4,-74.88 529.87,-81.73"/>
</a>
</g>
</g>
<!-- Node33 -->
<g id="Node000033" class="node">
<title>Node33</title>
<g id="a_Node000033"><a xlink:href="khmm_8cpp.html#a652a672a2d4cba451fe4f5a0af94d977" target="_top" xlink:title="O2 emission probability.">
<polygon fill="white" stroke="#666666" points="577,-118.83 539,-118.83 539,-99.83 577,-99.83 577,-118.83"/>
<text text-anchor="middle" x="558" y="-106.83" font-family="Helvetica" font-size="10.00">b2iot</text>
</a>
</g>
</g>
<!-- Node29&#45;&gt;Node33 -->
<g id="edge43_Node000029_Node000033" class="edge">
<title>Node29&#45;&gt;Node33</title>
<g id="a_edge43_Node000029_Node000033"><a xlink:title=" ">
<path fill="none" stroke="#63b8ff" d="M439.08,-109.33C468.7,-109.33 504.1,-109.33 528.33,-109.33"/>
<polygon fill="#63b8ff" stroke="#63b8ff" points="528.62,-112.83 538.62,-109.33 528.62,-105.83 528.62,-112.83"/>
</a>
</g>
</g>
<!-- Node31 -->
<g id="Node000031" class="node">
<title>Node31</title>
<g id="a_Node000031"><a xlink:href="kc_8cpp.html#ab01d6eb051febfe28b8ac2987dcfe524" target="_top" xlink:title=" ">
<polygon fill="white" stroke="#666666" points="714,-81.83 673,-81.83 673,-62.83 714,-62.83 714,-81.83"/>
<text text-anchor="middle" x="693.5" y="-69.83" font-family="Helvetica" font-size="10.00">mean</text>
</a>
</g>
</g>
<!-- Node30&#45;&gt;Node31 -->
<g id="edge41_Node000030_Node000031" class="edge">
<title>Node30&#45;&gt;Node31</title>
<g id="a_edge41_Node000030_Node000031"><a xlink:title=" ">
<path fill="none" stroke="#63b8ff" d="M577,-72.33C598.9,-72.33 636.17,-72.33 662.45,-72.33"/>
<polygon fill="#63b8ff" stroke="#63b8ff" points="662.61,-75.83 672.61,-72.33 662.61,-68.83 662.61,-75.83"/>
</a>
</g>
</g>
<!-- Node32 -->
<g id="Node000032" class="node">
<title>Node32</title>
<g id="a_Node000032"><a xlink:href="kc_8cpp.html#a2b0a97c4c082620572646f0324ea6fc7" target="_top" xlink:title=" ">
<polygon fill="white" stroke="#666666" points="726,-118.83 661,-118.83 661,-99.83 726,-99.83 726,-118.83"/>
<text text-anchor="middle" x="693.5" y="-106.83" font-family="Helvetica" font-size="10.00">pdf_normal</text>
</a>
</g>
</g>
<!-- Node30&#45;&gt;Node32 -->
<g id="edge42_Node000030_Node000032" class="edge">
<title>Node30&#45;&gt;Node32</title>
<g id="a_edge42_Node000030_Node000032"><a xlink:title=" ">
<path fill="none" stroke="#63b8ff" d="M577.22,-77.25C590.48,-80.85 608.86,-85.86 625,-90.33 633.43,-92.66 642.45,-95.19 651.06,-97.61"/>
<polygon fill="#63b8ff" stroke="#63b8ff" points="650.35,-101.04 660.92,-100.38 652.24,-94.3 650.35,-101.04"/>
</a>
</g>
</g>
<!-- Node33&#45;&gt;Node31 -->
<g id="edge51_Node000033_Node000031" class="edge">
<title>Node33&#45;&gt;Node31</title>
<g id="a_edge51_Node000033_Node000031"><a xlink:title=" ">
<path fill="none" stroke="#63b8ff" d="M577,-104.34C599,-98.24 636.51,-87.85 662.8,-80.56"/>
<polygon fill="#63b8ff" stroke="#63b8ff" points="663.91,-83.88 672.61,-77.84 662.04,-77.14 663.91,-83.88"/>
</a>
</g>
</g>
<!-- Node33&#45;&gt;Node32 -->
<g id="edge52_Node000033_Node000032" class="edge">
<title>Node33&#45;&gt;Node32</title>
<g id="a_edge52_Node000033_Node000032"><a xlink:title=" ">
<path fill="none" stroke="#63b8ff" d="M577,-109.33C595.81,-109.33 625.97,-109.33 650.75,-109.33"/>
<polygon fill="#63b8ff" stroke="#63b8ff" points="651,-112.83 661,-109.33 651,-105.83 651,-112.83"/>
</a>
</g>
</g>
<!-- Node34 -->
<g id="Node000034" class="node">
<title>Node34</title>
<g id="a_Node000034"><a xlink:href="kc_8cpp.html#ad7f21bf6ad62e142c785825e00a546e3" target="_top" xlink:title=" ">
<polygon fill="white" stroke="#666666" points="726,-155.83 661,-155.83 661,-136.83 726,-136.83 726,-155.83"/>
<text text-anchor="middle" x="693.5" y="-143.83" font-family="Helvetica" font-size="10.00">cdf_normal</text>
</a>
</g>
</g>
<!-- Node33&#45;&gt;Node34 -->
<g id="edge44_Node000033_Node000034" class="edge">
<title>Node33&#45;&gt;Node34</title>
<g id="a_edge44_Node000033_Node000034"><a xlink:title=" ">
<path fill="none" stroke="#63b8ff" d="M577,-114.32C595.9,-119.55 626.24,-127.96 651.09,-134.85"/>
<polygon fill="#63b8ff" stroke="#63b8ff" points="650.43,-138.3 661,-137.6 652.3,-131.55 650.43,-138.3"/>
</a>
</g>
</g>
<!-- Node35 -->
<g id="Node000035" class="node">
<title>Node35</title>
<g id="a_Node000035"><a xlink:href="kc_8cpp.html#afafd5c993f50f8676e0a2095ce62c012" target="_top" xlink:title=" ">
<polygon fill="white" stroke="#666666" points="802,-155.83 762,-155.83 762,-136.83 802,-136.83 802,-155.83"/>
<text text-anchor="middle" x="782" y="-143.83" font-family="Helvetica" font-size="10.00">errorf</text>
</a>
</g>
</g>
<!-- Node34&#45;&gt;Node35 -->
<g id="edge45_Node000034_Node000035" class="edge">
<title>Node34&#45;&gt;Node35</title>
<g id="a_edge45_Node000034_Node000035"><a xlink:title=" ">
<path fill="none" stroke="#63b8ff" d="M726.22,-146.33C734.53,-146.33 743.46,-146.33 751.65,-146.33"/>
<polygon fill="#63b8ff" stroke="#63b8ff" points="751.86,-149.83 761.86,-146.33 751.86,-142.83 751.86,-149.83"/>
</a>
</g>
</g>
<!-- Node36 -->
<g id="Node000036" class="node">
<title>Node36</title>
<g id="a_Node000036"><a xlink:href="kc_8cpp.html#aa1745417f9696825bc7cc68538800b5b" target="_top" xlink:title=" ">
<polygon fill="white" stroke="#666666" points="887,-155.83 838,-155.83 838,-136.83 887,-136.83 887,-155.83"/>
<text text-anchor="middle" x="862.5" y="-143.83" font-family="Helvetica" font-size="10.00">gammp</text>
</a>
</g>
</g>
<!-- Node35&#45;&gt;Node36 -->
<g id="edge46_Node000035_Node000036" class="edge">
<title>Node35&#45;&gt;Node36</title>
<g id="a_edge46_Node000035_Node000036"><a xlink:title=" ">
<path fill="none" stroke="#63b8ff" d="M802,-146.33C809.76,-146.33 818.98,-146.33 827.81,-146.33"/>
<polygon fill="#63b8ff" stroke="#63b8ff" points="827.9,-149.83 837.9,-146.33 827.9,-142.83 827.9,-149.83"/>
</a>
</g>
</g>
<!-- Node37 -->
<g id="Node000037" class="node">
<title>Node37</title>
<g id="a_Node000037"><a xlink:href="kc_8cpp.html#a5b446e3e8ec13c8e2383ac156f0cf77f" target="_top" xlink:title=" ">
<polygon fill="white" stroke="#666666" points="955.5,-174.83 925.5,-174.83 925.5,-155.83 955.5,-155.83 955.5,-174.83"/>
<text text-anchor="middle" x="940.5" y="-162.83" font-family="Helvetica" font-size="10.00">gcf</text>
</a>
</g>
</g>
<!-- Node36&#45;&gt;Node37 -->
<g id="edge47_Node000036_Node000037" class="edge">
<title>Node36&#45;&gt;Node37</title>
<g id="a_edge47_Node000036_Node000037"><a xlink:title=" ">
<path fill="none" stroke="#63b8ff" d="M887.13,-152.23C896.15,-154.49 906.44,-157.06 915.49,-159.32"/>
<polygon fill="#63b8ff" stroke="#63b8ff" points="914.85,-162.77 925.41,-161.8 916.55,-155.98 914.85,-162.77"/>
</a>
</g>
</g>
<!-- Node39 -->
<g id="Node000039" class="node">
<title>Node39</title>
<g id="a_Node000039"><a xlink:href="kc_8cpp.html#a5277079b0c65d166db9553deb8a92de2" target="_top" xlink:title=" ">
<polygon fill="white" stroke="#666666" points="958,-137.83 923,-137.83 923,-118.83 958,-118.83 958,-137.83"/>
<text text-anchor="middle" x="940.5" y="-125.83" font-family="Helvetica" font-size="10.00">gser</text>
</a>
</g>
</g>
<!-- Node36&#45;&gt;Node39 -->
<g id="edge49_Node000036_Node000039" class="edge">
<title>Node36&#45;&gt;Node39</title>
<g id="a_edge49_Node000036_Node000039"><a xlink:title=" ">
<path fill="none" stroke="#63b8ff" d="M887.13,-140.73C895.22,-138.81 904.33,-136.66 912.65,-134.69"/>
<polygon fill="#63b8ff" stroke="#63b8ff" points="913.71,-138.03 922.64,-132.32 912.1,-131.22 913.71,-138.03"/>
</a>
</g>
</g>
<!-- Node38 -->
<g id="Node000038" class="node">
<title>Node38</title>
<g id="a_Node000038"><a xlink:href="kc_8cpp.html#a69cc1b545a83a4d9f187e131500aee45" target="_top" xlink:title=" ">
<polygon fill="white" stroke="#666666" points="1045,-155.83 994,-155.83 994,-136.83 1045,-136.83 1045,-155.83"/>
<text text-anchor="middle" x="1019.5" y="-143.83" font-family="Helvetica" font-size="10.00">gammln</text>
</a>
</g>
</g>
<!-- Node37&#45;&gt;Node38 -->
<g id="edge48_Node000037_Node000038" class="edge">
<title>Node37&#45;&gt;Node38</title>
<g id="a_edge48_Node000037_Node000038"><a xlink:title=" ">
<path fill="none" stroke="#63b8ff" d="M955.62,-161.84C963.63,-159.87 974.04,-157.3 984.07,-154.82"/>
<polygon fill="#63b8ff" stroke="#63b8ff" points="985,-158.2 993.87,-152.4 983.32,-151.4 985,-158.2"/>
</a>
</g>
</g>
<!-- Node39&#45;&gt;Node38 -->
<g id="edge50_Node000039_Node000038" class="edge">
<title>Node39&#45;&gt;Node38</title>
<g id="a_edge50_Node000039_Node000038"><a xlink:title=" ">
<path fill="none" stroke="#63b8ff" d="M958.21,-132.23C965.79,-134.01 975.06,-136.17 984.03,-138.27"/>
<polygon fill="#63b8ff" stroke="#63b8ff" points="983.39,-141.71 993.93,-140.58 984.99,-134.9 983.39,-141.71"/>
</a>
</g>
</g>
</g>
</svg>
