<?xml version="1.0" encoding="UTF-8" standalone="no"?>
<!DOCTYPE svg PUBLIC "-//W3C//DTD SVG 1.1//EN"
 "http://www.w3.org/Graphics/SVG/1.1/DTD/svg11.dtd">
<!-- Generated by graphviz version 2.44.0 (0)
 -->
<!-- Title: include/cnv_data.h Pages: 1 -->
<svg width="509pt" height="137pt"
 viewBox="0.00 0.00 509.00 137.00" xmlns="http://www.w3.org/2000/svg" xmlns:xlink="http://www.w3.org/1999/xlink">
<g id="graph0" class="graph" transform="scale(1 1) rotate(0) translate(4 133)">
<title>include/cnv_data.h</title>
<!-- Node1 -->
<g id="Node000001" class="node">
<title>Node1</title>
<g id="a_Node000001"><a xlink:title=" ">
<polygon fill="#999999" stroke="#666666" points="332,-129 234,-129 234,-110 332,-110 332,-129"/>
<text text-anchor="middle" x="283" y="-117" font-family="Helvetica" font-size="10.00">include/cnv_data.h</text>
</a>
</g>
</g>
<!-- Node2 -->
<g id="Node000002" class="node">
<title>Node2</title>
<g id="a_Node000002"><a xlink:href="cnv__caller_8h.html" target="_top" xlink:title=" ">
<polygon fill="white" stroke="#666666" points="155.5,-74 52.5,-74 52.5,-55 155.5,-55 155.5,-74"/>
<text text-anchor="middle" x="104" y="-62" font-family="Helvetica" font-size="10.00">include/cnv_caller.h</text>
</a>
</g>
</g>
<!-- Node1&#45;&gt;Node2 -->
<g id="edge1_Node000001_Node000002" class="edge">
<title>Node1&#45;&gt;Node2</title>
<g id="a_edge1_Node000001_Node000002"><a xlink:title=" ">
<path fill="none" stroke="#63b8ff" d="M244.35,-107.06C210.89,-97.15 163.25,-83.04 132.98,-74.08"/>
<polygon fill="#63b8ff" stroke="#63b8ff" points="243.66,-110.5 254.24,-109.98 245.65,-103.79 243.66,-110.5"/>
</a>
</g>
</g>
<!-- Node5 -->
<g id="Node000005" class="node">
<title>Node5</title>
<g id="a_Node000005"><a xlink:href="contextsv_8h.html" target="_top" xlink:title=" ">
<polygon fill="white" stroke="#666666" points="274.5,-74 173.5,-74 173.5,-55 274.5,-55 274.5,-74"/>
<text text-anchor="middle" x="224" y="-62" font-family="Helvetica" font-size="10.00">include/contextsv.h</text>
</a>
</g>
</g>
<!-- Node1&#45;&gt;Node5 -->
<g id="edge4_Node000001_Node000005" class="edge">
<title>Node1&#45;&gt;Node5</title>
<g id="a_edge4_Node000001_Node000005"><a xlink:title=" ">
<path fill="none" stroke="#63b8ff" d="M265.8,-103.04C255.33,-93.64 242.35,-81.98 233.65,-74.17"/>
<polygon fill="#63b8ff" stroke="#63b8ff" points="263.74,-105.91 273.52,-109.98 268.42,-100.7 263.74,-105.91"/>
</a>
</g>
</g>
<!-- Node7 -->
<g id="Node000007" class="node">
<title>Node7</title>
<g id="a_Node000007"><a xlink:href="sv__caller_8h.html" target="_top" xlink:title=" ">
<polygon fill="white" stroke="#666666" points="391,-74 293,-74 293,-55 391,-55 391,-74"/>
<text text-anchor="middle" x="342" y="-62" font-family="Helvetica" font-size="10.00">include/sv_caller.h</text>
</a>
</g>
</g>
<!-- Node1&#45;&gt;Node7 -->
<g id="edge7_Node000001_Node000007" class="edge">
<title>Node1&#45;&gt;Node7</title>
<g id="a_edge7_Node000001_Node000007"><a xlink:title=" ">
<path fill="none" stroke="#63b8ff" d="M300.2,-103.04C310.67,-93.64 323.65,-81.98 332.35,-74.17"/>
<polygon fill="#63b8ff" stroke="#63b8ff" points="297.58,-100.7 292.48,-109.98 302.26,-105.91 297.58,-100.7"/>
</a>
</g>
</g>
<!-- Node9 -->
<g id="Node000009" class="node">
<title>Node9</title>
<g id="a_Node000009"><a xlink:href="cnv__data_8cpp.html" target="_top" xlink:title=" ">
<polygon fill="white" stroke="#666666" points="501,-74 409,-74 409,-55 501,-55 501,-74"/>
<text text-anchor="middle" x="455" y="-62" font-family="Helvetica" font-size="10.00">src/cnv_data.cpp</text>
</a>
</g>
</g>
<!-- Node1&#45;&gt;Node9 -->
<g id="edge10_Node000001_Node000009" class="edge">
<title>Node1&#45;&gt;Node9</title>
<g id="a_edge10_Node000001_Node000009"><a xlink:title=" ">
<path fill="none" stroke="#63b8ff" d="M320.56,-106.93C352.68,-97.03 398.19,-83.01 427.15,-74.08"/>
<polygon fill="#63b8ff" stroke="#63b8ff" points="319.16,-103.69 310.63,-109.98 321.22,-110.38 319.16,-103.69"/>
</a>
</g>
</g>
<!-- Node3 -->
<g id="Node000003" class="node">
<title>Node3</title>
<g id="a_Node000003"><a xlink:href="cnv__caller_8cpp.html" target="_top" xlink:title=" ">
<polygon fill="white" stroke="#666666" points="96,-19 0,-19 0,0 96,0 96,-19"/>
<text text-anchor="middle" x="48" y="-7" font-family="Helvetica" font-size="10.00">src/cnv_caller.cpp</text>
</a>
</g>
</g>
<!-- Node2&#45;&gt;Node3 -->
<g id="edge2_Node000002_Node000003" class="edge">
<title>Node2&#45;&gt;Node3</title>
<g id="a_edge2_Node000002_Node000003"><a xlink:title=" ">
<path fill="none" stroke="#63b8ff" d="M87.67,-48.04C77.74,-38.64 65.41,-26.98 57.16,-19.17"/>
<polygon fill="#63b8ff" stroke="#63b8ff" points="85.33,-50.65 95,-54.98 90.15,-45.57 85.33,-50.65"/>
</a>
</g>
</g>
<!-- Node4 -->
<g id="Node000004" class="node">
<title>Node4</title>
<g id="a_Node000004"><a xlink:href="contextsv_8cpp.html" target="_top" xlink:title=" ">
<polygon fill="white" stroke="#666666" points="208,-19 114,-19 114,0 208,0 208,-19"/>
<text text-anchor="middle" x="161" y="-7" font-family="Helvetica" font-size="10.00">src/contextsv.cpp</text>
</a>
</g>
</g>
<!-- Node2&#45;&gt;Node4 -->
<g id="edge3_Node000002_Node000004" class="edge">
<title>Node2&#45;&gt;Node4</title>
<g id="a_edge3_Node000002_Node000004"><a xlink:title=" ">
<path fill="none" stroke="#63b8ff" d="M120.62,-48.04C130.73,-38.64 143.28,-26.98 151.68,-19.17"/>
<polygon fill="#63b8ff" stroke="#63b8ff" points="118.1,-45.61 113.16,-54.98 122.86,-50.74 118.1,-45.61"/>
</a>
</g>
</g>
<!-- Node5&#45;&gt;Node4 -->
<g id="edge5_Node000005_Node000004" class="edge">
<title>Node5&#45;&gt;Node4</title>
<g id="a_edge5_Node000005_Node000004"><a xlink:title=" ">
<path fill="none" stroke="#63b8ff" d="M205.96,-48.32C194.73,-38.87 180.68,-27.06 171.31,-19.17"/>
<polygon fill="#63b8ff" stroke="#63b8ff" points="203.97,-51.23 213.88,-54.98 208.48,-45.87 203.97,-51.23"/>
</a>
</g>
</g>
<!-- Node6 -->
<g id="Node000006" class="node">
<title>Node6</title>
<g id="a_Node000006"><a xlink:href="swig__interface_8cpp.html" target="_top" xlink:title=" ">
<polygon fill="white" stroke="#666666" points="342,-19 226,-19 226,0 342,0 342,-19"/>
<text text-anchor="middle" x="284" y="-7" font-family="Helvetica" font-size="10.00">src/swig_interface.cpp</text>
</a>
</g>
</g>
<!-- Node5&#45;&gt;Node6 -->
<g id="edge6_Node000005_Node000006" class="edge">
<title>Node5&#45;&gt;Node6</title>
<g id="a_edge6_Node000005_Node000006"><a xlink:title=" ">
<path fill="none" stroke="#63b8ff" d="M241.18,-48.32C251.88,-38.87 265.26,-27.06 274.18,-19.17"/>
<polygon fill="#63b8ff" stroke="#63b8ff" points="238.82,-45.74 233.64,-54.98 243.45,-50.99 238.82,-45.74"/>
</a>
</g>
</g>
<!-- Node7&#45;&gt;Node4 -->
<g id="edge8_Node000007_Node000004" class="edge">
<title>Node7&#45;&gt;Node4</title>
<g id="a_edge8_Node000007_Node000004"><a xlink:title=" ">
<path fill="none" stroke="#63b8ff" d="M302.92,-52.06C269.09,-42.15 220.92,-28.04 190.31,-19.08"/>
<polygon fill="#63b8ff" stroke="#63b8ff" points="302.34,-55.53 312.92,-54.98 304.31,-48.82 302.34,-55.53"/>
</a>
</g>
</g>
<!-- Node8 -->
<g id="Node000008" class="node">
<title>Node8</title>
<g id="a_Node000008"><a xlink:href="sv__caller_8cpp.html" target="_top" xlink:title=" ">
<polygon fill="white" stroke="#666666" points="451.5,-19 360.5,-19 360.5,0 451.5,0 451.5,-19"/>
<text text-anchor="middle" x="406" y="-7" font-family="Helvetica" font-size="10.00">src/sv_caller.cpp</text>
</a>
</g>
</g>
<!-- Node7&#45;&gt;Node8 -->
<g id="edge9_Node000007_Node000008" class="edge">
<title>Node7&#45;&gt;Node8</title>
<g id="a_edge9_Node000007_Node000008"><a xlink:title=" ">
<path fill="none" stroke="#63b8ff" d="M359.99,-48.6C371.46,-39.11 385.91,-27.13 395.53,-19.17"/>
<polygon fill="#63b8ff" stroke="#63b8ff" points="357.75,-45.91 352.28,-54.98 362.22,-51.3 357.75,-45.91"/>
</a>
</g>
</g>
</g>
</svg>
