<?xml version="1.0" encoding="UTF-8" standalone="no"?>
<!DOCTYPE svg PUBLIC "-//W3C//DTD SVG 1.1//EN"
 "http://www.w3.org/Graphics/SVG/1.1/DTD/svg11.dtd">
<!-- Generated by graphviz version 2.44.0 (0)
 -->
<!-- Title: include/cnv_caller.h Pages: 1 -->
<svg width="216pt" height="82pt"
 viewBox="0.00 0.00 216.00 82.00" xmlns="http://www.w3.org/2000/svg" xmlns:xlink="http://www.w3.org/1999/xlink">
<g id="graph0" class="graph" transform="scale(1 1) rotate(0) translate(4 78)">
<title>include/cnv_caller.h</title>
<!-- Node1 -->
<g id="Node000001" class="node">
<title>Node1</title>
<g id="a_Node000001"><a xlink:title=" ">
<polygon fill="#999999" stroke="#666666" points="155.5,-74 52.5,-74 52.5,-55 155.5,-55 155.5,-74"/>
<text text-anchor="middle" x="104" y="-62" font-family="Helvetica" font-size="10.00">include/cnv_caller.h</text>
</a>
</g>
</g>
<!-- Node2 -->
<g id="Node000002" class="node">
<title>Node2</title>
<g id="a_Node000002"><a xlink:href="cnv__caller_8cpp.html" target="_top" xlink:title=" ">
<polygon fill="white" stroke="#666666" points="96,-19 0,-19 0,0 96,0 96,-19"/>
<text text-anchor="middle" x="48" y="-7" font-family="Helvetica" font-size="10.00">src/cnv_caller.cpp</text>
</a>
</g>
</g>
<!-- Node1&#45;&gt;Node2 -->
<g id="edge1_Node000001_Node000002" class="edge">
<title>Node1&#45;&gt;Node2</title>
<g id="a_edge1_Node000001_Node000002"><a xlink:title=" ">
<path fill="none" stroke="#63b8ff" d="M87.67,-48.04C77.74,-38.64 65.41,-26.98 57.16,-19.17"/>
<polygon fill="#63b8ff" stroke="#63b8ff" points="85.33,-50.65 95,-54.98 90.15,-45.57 85.33,-50.65"/>
</a>
</g>
</g>
<!-- Node3 -->
<g id="Node000003" class="node">
<title>Node3</title>
<g id="a_Node000003"><a xlink:href="contextsv_8cpp.html" target="_top" xlink:title=" ">
<polygon fill="white" stroke="#666666" points="208,-19 114,-19 114,0 208,0 208,-19"/>
<text text-anchor="middle" x="161" y="-7" font-family="Helvetica" font-size="10.00">src/contextsv.cpp</text>
</a>
</g>
</g>
<!-- Node1&#45;&gt;Node3 -->
<g id="edge2_Node000001_Node000003" class="edge">
<title>Node1&#45;&gt;Node3</title>
<g id="a_edge2_Node000001_Node000003"><a xlink:title=" ">
<path fill="none" stroke="#63b8ff" d="M120.62,-48.04C130.73,-38.64 143.28,-26.98 151.68,-19.17"/>
<polygon fill="#63b8ff" stroke="#63b8ff" points="118.1,-45.61 113.16,-54.98 122.86,-50.74 118.1,-45.61"/>
</a>
</g>
</g>
</g>
</svg>
