<?xml version="1.0" encoding="UTF-8" standalone="no"?>
<!DOCTYPE svg PUBLIC "-//W3C//DTD SVG 1.1//EN"
 "http://www.w3.org/Graphics/SVG/1.1/DTD/svg11.dtd">
<!-- Generated by graphviz version 2.44.0 (0)
 -->
<!-- Title: include/cnv_caller.h Pages: 1 -->
<svg width="232pt" height="137pt"
 viewBox="0.00 0.00 231.50 137.00" xmlns="http://www.w3.org/2000/svg" xmlns:xlink="http://www.w3.org/1999/xlink">
<g id="graph0" class="graph" transform="scale(1 1) rotate(0) translate(4 133)">
<title>include/cnv_caller.h</title>
<!-- Node1 -->
<g id="Node000001" class="node">
<title>Node1</title>
<g id="a_Node000001"><a xlink:title=" ">
<polygon fill="#999999" stroke="#666666" points="156.5,-129 53.5,-129 53.5,-110 156.5,-110 156.5,-129"/>
<text text-anchor="middle" x="105" y="-117" font-family="Helvetica" font-size="10.00">include/cnv_caller.h</text>
</a>
</g>
</g>
<!-- Node2 -->
<g id="Node000002" class="node">
<title>Node2</title>
<g id="a_Node000002"><a xlink:href="khmm_8h.html" target="_top" xlink:title=" ">
<polygon fill="white" stroke="#666666" points="52,-74 0,-74 0,-55 52,-55 52,-74"/>
<text text-anchor="middle" x="26" y="-62" font-family="Helvetica" font-size="10.00">khmm.h</text>
</a>
</g>
</g>
<!-- Node1&#45;&gt;Node2 -->
<g id="edge1_Node000001_Node000002" class="edge">
<title>Node1&#45;&gt;Node2</title>
<g id="a_edge1_Node000001_Node000002"><a xlink:title=" ">
<path fill="none" stroke="#63b8ff" d="M92.31,-109.98C80.17,-101.84 61.64,-89.41 47.25,-79.76"/>
<polygon fill="#63b8ff" stroke="#63b8ff" points="49.18,-76.84 38.92,-74.17 45.28,-82.65 49.18,-76.84"/>
</a>
</g>
</g>
<!-- Node3 -->
<g id="Node000003" class="node">
<title>Node3</title>
<g id="a_Node000003"><a xlink:href="input__data_8h.html" target="_top" xlink:title=" ">
<polygon fill="white" stroke="#666666" points="140,-74 70,-74 70,-55 140,-55 140,-74"/>
<text text-anchor="middle" x="105" y="-62" font-family="Helvetica" font-size="10.00">input_data.h</text>
</a>
</g>
</g>
<!-- Node1&#45;&gt;Node3 -->
<g id="edge2_Node000001_Node000003" class="edge">
<title>Node1&#45;&gt;Node3</title>
<g id="a_edge2_Node000001_Node000003"><a xlink:title=" ">
<path fill="none" stroke="#63b8ff" d="M105,-109.75C105,-102.8 105,-92.85 105,-84.13"/>
<polygon fill="#63b8ff" stroke="#63b8ff" points="108.5,-84.09 105,-74.09 101.5,-84.09 108.5,-84.09"/>
</a>
</g>
</g>
<!-- Node5 -->
<g id="Node000005" class="node">
<title>Node5</title>
<g id="a_Node000005"><a xlink:href="cnv__data_8h.html" target="_top" xlink:title=" ">
<polygon fill="white" stroke="#666666" points="223.5,-74 158.5,-74 158.5,-55 223.5,-55 223.5,-74"/>
<text text-anchor="middle" x="191" y="-62" font-family="Helvetica" font-size="10.00">cnv_data.h</text>
</a>
</g>
</g>
<!-- Node1&#45;&gt;Node5 -->
<g id="edge4_Node000001_Node000005" class="edge">
<title>Node1&#45;&gt;Node5</title>
<g id="a_edge4_Node000001_Node000005"><a xlink:title=" ">
<path fill="none" stroke="#63b8ff" d="M118.82,-109.98C132.15,-101.77 152.58,-89.18 168.31,-79.49"/>
<polygon fill="#63b8ff" stroke="#63b8ff" points="170.25,-82.4 176.93,-74.17 166.58,-76.44 170.25,-82.4"/>
</a>
</g>
</g>
<!-- Node4 -->
<g id="Node000004" class="node">
<title>Node4</title>
<g id="a_Node000004"><a xlink:href="fasta__query_8h.html" target="_top" xlink:title=" ">
<polygon fill="white" stroke="#666666" points="143,-19 67,-19 67,0 143,0 143,-19"/>
<text text-anchor="middle" x="105" y="-7" font-family="Helvetica" font-size="10.00">fasta_query.h</text>
</a>
</g>
</g>
<!-- Node3&#45;&gt;Node4 -->
<g id="edge3_Node000003_Node000004" class="edge">
<title>Node3&#45;&gt;Node4</title>
<g id="a_edge3_Node000003_Node000004"><a xlink:title=" ">
<path fill="none" stroke="#63b8ff" d="M105,-54.75C105,-47.8 105,-37.85 105,-29.13"/>
<polygon fill="#63b8ff" stroke="#63b8ff" points="108.5,-29.09 105,-19.09 101.5,-29.09 108.5,-29.09"/>
</a>
</g>
</g>
<!-- Node6 -->
<g id="Node000006" class="node">
<title>Node6</title>
<g id="a_Node000006"><a xlink:href="types_8h.html" target="_top" xlink:title=" ">
<polygon fill="white" stroke="#666666" points="215.5,-19 166.5,-19 166.5,0 215.5,0 215.5,-19"/>
<text text-anchor="middle" x="191" y="-7" font-family="Helvetica" font-size="10.00">types.h</text>
</a>
</g>
</g>
<!-- Node5&#45;&gt;Node6 -->
<g id="edge5_Node000005_Node000006" class="edge">
<title>Node5&#45;&gt;Node6</title>
<g id="a_edge5_Node000005_Node000006"><a xlink:title=" ">
<path fill="none" stroke="#63b8ff" d="M191,-54.75C191,-47.8 191,-37.85 191,-29.13"/>
<polygon fill="#63b8ff" stroke="#63b8ff" points="194.5,-29.09 191,-19.09 187.5,-29.09 194.5,-29.09"/>
</a>
</g>
</g>
</g>
</svg>
