<?xml version="1.0" encoding="UTF-8" standalone="no"?>
<!DOCTYPE svg PUBLIC "-//W3C//DTD SVG 1.1//EN"
 "http://www.w3.org/Graphics/SVG/1.1/DTD/svg11.dtd">
<!-- Generated by graphviz version 2.44.0 (0)
 -->
<!-- Title: src/contextsv.cpp Pages: 1 -->
<svg width="380pt" height="192pt"
 viewBox="0.00 0.00 379.50 192.00" xmlns="http://www.w3.org/2000/svg" xmlns:xlink="http://www.w3.org/1999/xlink">
<g id="graph0" class="graph" transform="scale(1 1) rotate(0) translate(4 188)">
<title>src/contextsv.cpp</title>
<!-- Node1 -->
<g id="Node000001" class="node">
<title>Node1</title>
<g id="a_Node000001"><a xlink:title=" ">
<polygon fill="#999999" stroke="#666666" points="252.5,-184 158.5,-184 158.5,-165 252.5,-165 252.5,-184"/>
<text text-anchor="middle" x="205.5" y="-172" font-family="Helvetica" font-size="10.00">src/contextsv.cpp</text>
</a>
</g>
</g>
<!-- Node2 -->
<g id="Node000002" class="node">
<title>Node2</title>
<g id="a_Node000002"><a xlink:href="contextsv_8h.html" target="_top" xlink:title=" ">
<polygon fill="white" stroke="#666666" points="113,-129 46,-129 46,-110 113,-110 113,-129"/>
<text text-anchor="middle" x="79.5" y="-117" font-family="Helvetica" font-size="10.00">contextsv.h</text>
</a>
</g>
</g>
<!-- Node1&#45;&gt;Node2 -->
<g id="edge1_Node000001_Node000002" class="edge">
<title>Node1&#45;&gt;Node2</title>
<g id="a_edge1_Node000001_Node000002"><a xlink:title=" ">
<path fill="none" stroke="#63b8ff" d="M185.26,-164.98C164.8,-156.38 132.97,-142.99 109.57,-133.15"/>
<polygon fill="#63b8ff" stroke="#63b8ff" points="110.69,-129.82 100.11,-129.17 107.97,-136.27 110.69,-129.82"/>
</a>
</g>
</g>
<!-- Node8 -->
<g id="Node000008" class="node">
<title>Node8</title>
<g id="a_Node000008"><a xlink:href="cnv__caller_8h.html" target="_top" xlink:title=" ">
<polygon fill="white" stroke="#666666" points="283,-129 214,-129 214,-110 283,-110 283,-129"/>
<text text-anchor="middle" x="248.5" y="-117" font-family="Helvetica" font-size="10.00">cnv_caller.h</text>
</a>
</g>
</g>
<!-- Node1&#45;&gt;Node8 -->
<g id="edge9_Node000001_Node000008" class="edge">
<title>Node1&#45;&gt;Node8</title>
<g id="a_edge9_Node000001_Node000008"><a xlink:title=" ">
<path fill="none" stroke="#63b8ff" d="M212.6,-164.75C218.67,-157.26 227.59,-146.28 235.01,-137.13"/>
<polygon fill="#63b8ff" stroke="#63b8ff" points="237.95,-139.06 241.53,-129.09 232.51,-134.65 237.95,-139.06"/>
</a>
</g>
</g>
<!-- Node10 -->
<g id="Node000010" class="node">
<title>Node10</title>
<g id="a_Node000010"><a xlink:href="sv__caller_8h.html" target="_top" xlink:title=" ">
<polygon fill="white" stroke="#666666" points="195.5,-129 131.5,-129 131.5,-110 195.5,-110 195.5,-129"/>
<text text-anchor="middle" x="163.5" y="-117" font-family="Helvetica" font-size="10.00">sv_caller.h</text>
</a>
</g>
</g>
<!-- Node1&#45;&gt;Node10 -->
<g id="edge13_Node000001_Node000010" class="edge">
<title>Node1&#45;&gt;Node10</title>
<g id="a_edge13_Node000001_Node000010"><a xlink:title=" ">
<path fill="none" stroke="#63b8ff" d="M198.56,-164.75C192.63,-157.26 183.93,-146.28 176.68,-137.13"/>
<polygon fill="#63b8ff" stroke="#63b8ff" points="179.26,-134.75 170.31,-129.09 173.77,-139.1 179.26,-134.75"/>
</a>
</g>
</g>
<!-- Node11 -->
<g id="Node000011" class="node">
<title>Node11</title>
<g id="a_Node000011"><a xlink:title=" ">
<polygon fill="#e0e0e0" stroke="#999999" points="371.5,-129 301.5,-129 301.5,-110 371.5,-110 371.5,-129"/>
<text text-anchor="middle" x="336.5" y="-117" font-family="Helvetica" font-size="10.00">htslib/sam.h</text>
</a>
</g>
</g>
<!-- Node1&#45;&gt;Node11 -->
<g id="edge18_Node000001_Node000011" class="edge">
<title>Node1&#45;&gt;Node11</title>
<g id="a_edge18_Node000001_Node000011"><a xlink:title=" ">
<path fill="none" stroke="#63b8ff" d="M226.55,-164.98C247.91,-156.34 281.2,-142.87 305.56,-133.02"/>
<polygon fill="#63b8ff" stroke="#63b8ff" points="307.11,-136.17 315.07,-129.17 304.49,-129.68 307.11,-136.17"/>
</a>
</g>
</g>
<!-- Node3 -->
<g id="Node000003" class="node">
<title>Node3</title>
<g id="a_Node000003"><a xlink:href="input__data_8h.html" target="_top" xlink:title=" ">
<polygon fill="white" stroke="#666666" points="147.5,-74 77.5,-74 77.5,-55 147.5,-55 147.5,-74"/>
<text text-anchor="middle" x="112.5" y="-62" font-family="Helvetica" font-size="10.00">input_data.h</text>
</a>
</g>
</g>
<!-- Node2&#45;&gt;Node3 -->
<g id="edge2_Node000002_Node000003" class="edge">
<title>Node2&#45;&gt;Node3</title>
<g id="a_edge2_Node000002_Node000003"><a xlink:title=" ">
<path fill="none" stroke="#63b8ff" d="M84.95,-109.75C89.51,-102.42 96.17,-91.73 101.79,-82.7"/>
<polygon fill="#63b8ff" stroke="#63b8ff" points="104.84,-84.43 107.15,-74.09 98.9,-80.73 104.84,-84.43"/>
</a>
</g>
</g>
<!-- Node5 -->
<g id="Node000005" class="node">
<title>Node5</title>
<g id="a_Node000005"><a xlink:href="cnv__data_8h.html" target="_top" xlink:title=" ">
<polygon fill="white" stroke="#666666" points="269,-74 204,-74 204,-55 269,-55 269,-74"/>
<text text-anchor="middle" x="236.5" y="-62" font-family="Helvetica" font-size="10.00">cnv_data.h</text>
</a>
</g>
</g>
<!-- Node2&#45;&gt;Node5 -->
<g id="edge4_Node000002_Node000005" class="edge">
<title>Node2&#45;&gt;Node5</title>
<g id="a_edge4_Node000002_Node000005"><a xlink:title=" ">
<path fill="none" stroke="#63b8ff" d="M104.72,-109.98C130.86,-101.16 171.9,-87.31 201.23,-77.41"/>
<polygon fill="#63b8ff" stroke="#63b8ff" points="202.72,-80.6 211.08,-74.08 200.48,-73.96 202.72,-80.6"/>
</a>
</g>
</g>
<!-- Node7 -->
<g id="Node000007" class="node">
<title>Node7</title>
<g id="a_Node000007"><a xlink:href="sv__data_8h.html" target="_top" xlink:title=" ">
<polygon fill="white" stroke="#666666" points="59,-74 0,-74 0,-55 59,-55 59,-74"/>
<text text-anchor="middle" x="29.5" y="-62" font-family="Helvetica" font-size="10.00">sv_data.h</text>
</a>
</g>
</g>
<!-- Node2&#45;&gt;Node7 -->
<g id="edge6_Node000002_Node000007" class="edge">
<title>Node2&#45;&gt;Node7</title>
<g id="a_edge6_Node000002_Node000007"><a xlink:title=" ">
<path fill="none" stroke="#63b8ff" d="M71.24,-109.75C64.04,-102.11 53.39,-90.82 44.65,-81.56"/>
<polygon fill="#63b8ff" stroke="#63b8ff" points="47.01,-78.96 37.6,-74.09 41.92,-83.76 47.01,-78.96"/>
</a>
</g>
</g>
<!-- Node4 -->
<g id="Node000004" class="node">
<title>Node4</title>
<g id="a_Node000004"><a xlink:href="fasta__query_8h.html" target="_top" xlink:title=" ">
<polygon fill="white" stroke="#666666" points="100.5,-19 24.5,-19 24.5,0 100.5,0 100.5,-19"/>
<text text-anchor="middle" x="62.5" y="-7" font-family="Helvetica" font-size="10.00">fasta_query.h</text>
</a>
</g>
</g>
<!-- Node3&#45;&gt;Node4 -->
<g id="edge3_Node000003_Node000004" class="edge">
<title>Node3&#45;&gt;Node4</title>
<g id="a_edge3_Node000003_Node000004"><a xlink:title=" ">
<path fill="none" stroke="#63b8ff" d="M104.24,-54.75C97.04,-47.11 86.39,-35.82 77.65,-26.56"/>
<polygon fill="#63b8ff" stroke="#63b8ff" points="80.01,-23.96 70.6,-19.09 74.92,-28.76 80.01,-23.96"/>
</a>
</g>
</g>
<!-- Node6 -->
<g id="Node000006" class="node">
<title>Node6</title>
<g id="a_Node000006"><a xlink:href="types_8h.html" target="_top" xlink:title=" ">
<polygon fill="white" stroke="#666666" points="200,-19 151,-19 151,0 200,0 200,-19"/>
<text text-anchor="middle" x="175.5" y="-7" font-family="Helvetica" font-size="10.00">types.h</text>
</a>
</g>
</g>
<!-- Node5&#45;&gt;Node6 -->
<g id="edge5_Node000005_Node000006" class="edge">
<title>Node5&#45;&gt;Node6</title>
<g id="a_edge5_Node000005_Node000006"><a xlink:title=" ">
<path fill="none" stroke="#63b8ff" d="M226.7,-54.98C217.68,-47.15 204.09,-35.34 193.18,-25.86"/>
<polygon fill="#63b8ff" stroke="#63b8ff" points="195.32,-23.09 185.48,-19.17 190.73,-28.37 195.32,-23.09"/>
</a>
</g>
</g>
<!-- Node7&#45;&gt;Node4 -->
<g id="edge7_Node000007_Node000004" class="edge">
<title>Node7&#45;&gt;Node4</title>
<g id="a_edge7_Node000007_Node000004"><a xlink:title=" ">
<path fill="none" stroke="#63b8ff" d="M34.95,-54.75C39.51,-47.42 46.17,-36.73 51.79,-27.7"/>
<polygon fill="#63b8ff" stroke="#63b8ff" points="54.84,-29.43 57.15,-19.09 48.9,-25.73 54.84,-29.43"/>
</a>
</g>
</g>
<!-- Node7&#45;&gt;Node6 -->
<g id="edge8_Node000007_Node000006" class="edge">
<title>Node7&#45;&gt;Node6</title>
<g id="a_edge8_Node000007_Node000006"><a xlink:title=" ">
<path fill="none" stroke="#63b8ff" d="M52.96,-54.98C77.08,-46.23 114.87,-32.51 142.1,-22.62"/>
<polygon fill="#63b8ff" stroke="#63b8ff" points="143.41,-25.87 151.62,-19.17 141.02,-19.29 143.41,-25.87"/>
</a>
</g>
</g>
<!-- Node8&#45;&gt;Node3 -->
<g id="edge11_Node000008_Node000003" class="edge">
<title>Node8&#45;&gt;Node3</title>
<g id="a_edge11_Node000008_Node000003"><a xlink:title=" ">
<path fill="none" stroke="#63b8ff" d="M226.65,-109.98C204.38,-101.3 169.6,-87.75 144.28,-77.88"/>
<polygon fill="#63b8ff" stroke="#63b8ff" points="145.34,-74.54 134.75,-74.17 142.79,-81.06 145.34,-74.54"/>
</a>
</g>
</g>
<!-- Node8&#45;&gt;Node5 -->
<g id="edge12_Node000008_Node000005" class="edge">
<title>Node8&#45;&gt;Node5</title>
<g id="a_edge12_Node000008_Node000005"><a xlink:title=" ">
<path fill="none" stroke="#63b8ff" d="M246.52,-109.75C244.93,-102.72 242.64,-92.62 240.65,-83.84"/>
<polygon fill="#63b8ff" stroke="#63b8ff" points="244.07,-83.07 238.44,-74.09 237.24,-84.62 244.07,-83.07"/>
</a>
</g>
</g>
<!-- Node9 -->
<g id="Node000009" class="node">
<title>Node9</title>
<g id="a_Node000009"><a xlink:href="khmm_8h.html" target="_top" xlink:title=" ">
<polygon fill="white" stroke="#666666" points="339.5,-74 287.5,-74 287.5,-55 339.5,-55 339.5,-74"/>
<text text-anchor="middle" x="313.5" y="-62" font-family="Helvetica" font-size="10.00">khmm.h</text>
</a>
</g>
</g>
<!-- Node8&#45;&gt;Node9 -->
<g id="edge10_Node000008_Node000009" class="edge">
<title>Node8&#45;&gt;Node9</title>
<g id="a_edge10_Node000008_Node000009"><a xlink:title=" ">
<path fill="none" stroke="#63b8ff" d="M258.94,-109.98C268.65,-102.07 283.32,-90.11 295,-80.58"/>
<polygon fill="#63b8ff" stroke="#63b8ff" points="297.33,-83.2 302.87,-74.17 292.9,-77.78 297.33,-83.2"/>
</a>
</g>
</g>
<!-- Node10&#45;&gt;Node3 -->
<g id="edge14_Node000010_Node000003" class="edge">
<title>Node10&#45;&gt;Node3</title>
<g id="a_edge14_Node000010_Node000003"><a xlink:title=" ">
<path fill="none" stroke="#63b8ff" d="M155.08,-109.75C147.73,-102.11 136.87,-90.82 127.96,-81.56"/>
<polygon fill="#63b8ff" stroke="#63b8ff" points="130.22,-78.87 120.76,-74.09 125.18,-83.72 130.22,-78.87"/>
</a>
</g>
</g>
<!-- Node10&#45;&gt;Node5 -->
<g id="edge15_Node000010_Node000005" class="edge">
<title>Node10&#45;&gt;Node5</title>
<g id="a_edge15_Node000010_Node000005"><a xlink:title=" ">
<path fill="none" stroke="#63b8ff" d="M175.23,-109.98C186.23,-102 202.92,-89.88 216.1,-80.31"/>
<polygon fill="#63b8ff" stroke="#63b8ff" points="218.52,-82.88 224.56,-74.17 214.41,-77.21 218.52,-82.88"/>
</a>
</g>
</g>
<!-- Node10&#45;&gt;Node6 -->
<g id="edge17_Node000010_Node000006" class="edge">
<title>Node10&#45;&gt;Node6</title>
<g id="a_edge17_Node000010_Node000006"><a xlink:title=" ">
<path fill="none" stroke="#63b8ff" d="M164.48,-109.66C166.43,-92.17 170.8,-52.8 173.41,-29.27"/>
<polygon fill="#63b8ff" stroke="#63b8ff" points="176.91,-29.48 174.54,-19.16 169.95,-28.71 176.91,-29.48"/>
</a>
</g>
</g>
<!-- Node10&#45;&gt;Node7 -->
<g id="edge16_Node000010_Node000007" class="edge">
<title>Node10&#45;&gt;Node7</title>
<g id="a_edge16_Node000010_Node000007"><a xlink:title=" ">
<path fill="none" stroke="#63b8ff" d="M141.97,-109.98C120.03,-101.3 85.76,-87.75 60.81,-77.88"/>
<polygon fill="#63b8ff" stroke="#63b8ff" points="62.01,-74.59 51.42,-74.17 59.43,-81.1 62.01,-74.59"/>
</a>
</g>
</g>
</g>
</svg>
