<?xml version="1.0" encoding="UTF-8" standalone="no"?>
<!DOCTYPE svg PUBLIC "-//W3C//DTD SVG 1.1//EN"
 "http://www.w3.org/Graphics/SVG/1.1/DTD/svg11.dtd">
<!-- Generated by graphviz version 2.44.0 (0)
 -->
<!-- Title: include/contextsv.h Pages: 1 -->
<svg width="239pt" height="137pt"
 viewBox="0.00 0.00 238.50 137.00" xmlns="http://www.w3.org/2000/svg" xmlns:xlink="http://www.w3.org/1999/xlink">
<g id="graph0" class="graph" transform="scale(1 1) rotate(0) translate(4 133)">
<title>include/contextsv.h</title>
<!-- Node1 -->
<g id="Node000001" class="node">
<title>Node1</title>
<g id="a_Node000001"><a xlink:title=" ">
<polygon fill="#999999" stroke="#666666" points="168.5,-129 67.5,-129 67.5,-110 168.5,-110 168.5,-129"/>
<text text-anchor="middle" x="118" y="-117" font-family="Helvetica" font-size="10.00">include/contextsv.h</text>
</a>
</g>
</g>
<!-- Node2 -->
<g id="Node000002" class="node">
<title>Node2</title>
<g id="a_Node000002"><a xlink:href="input__data_8h.html" target="_top" xlink:title=" ">
<polygon fill="white" stroke="#666666" points="70,-74 0,-74 0,-55 70,-55 70,-74"/>
<text text-anchor="middle" x="35" y="-62" font-family="Helvetica" font-size="10.00">input_data.h</text>
</a>
</g>
</g>
<!-- Node1&#45;&gt;Node2 -->
<g id="edge1_Node000001_Node000002" class="edge">
<title>Node1&#45;&gt;Node2</title>
<g id="a_edge1_Node000001_Node000002"><a xlink:title=" ">
<path fill="none" stroke="#63b8ff" d="M104.66,-109.98C91.91,-101.84 72.45,-89.41 57.33,-79.76"/>
<polygon fill="#63b8ff" stroke="#63b8ff" points="58.89,-76.6 48.58,-74.17 55.12,-82.5 58.89,-76.6"/>
</a>
</g>
</g>
<!-- Node4 -->
<g id="Node000004" class="node">
<title>Node4</title>
<g id="a_Node000004"><a xlink:href="cnv__data_8h.html" target="_top" xlink:title=" ">
<polygon fill="white" stroke="#666666" points="230.5,-74 165.5,-74 165.5,-55 230.5,-55 230.5,-74"/>
<text text-anchor="middle" x="198" y="-62" font-family="Helvetica" font-size="10.00">cnv_data.h</text>
</a>
</g>
</g>
<!-- Node1&#45;&gt;Node4 -->
<g id="edge3_Node000001_Node000004" class="edge">
<title>Node1&#45;&gt;Node4</title>
<g id="a_edge3_Node000001_Node000004"><a xlink:title=" ">
<path fill="none" stroke="#63b8ff" d="M130.85,-109.98C143.14,-101.84 161.91,-89.41 176.48,-79.76"/>
<polygon fill="#63b8ff" stroke="#63b8ff" points="178.51,-82.61 184.91,-74.17 174.64,-76.78 178.51,-82.61"/>
</a>
</g>
</g>
<!-- Node6 -->
<g id="Node000006" class="node">
<title>Node6</title>
<g id="a_Node000006"><a xlink:href="sv__data_8h.html" target="_top" xlink:title=" ">
<polygon fill="white" stroke="#666666" points="147.5,-74 88.5,-74 88.5,-55 147.5,-55 147.5,-74"/>
<text text-anchor="middle" x="118" y="-62" font-family="Helvetica" font-size="10.00">sv_data.h</text>
</a>
</g>
</g>
<!-- Node1&#45;&gt;Node6 -->
<g id="edge5_Node000001_Node000006" class="edge">
<title>Node1&#45;&gt;Node6</title>
<g id="a_edge5_Node000001_Node000006"><a xlink:title=" ">
<path fill="none" stroke="#63b8ff" d="M118,-109.75C118,-102.8 118,-92.85 118,-84.13"/>
<polygon fill="#63b8ff" stroke="#63b8ff" points="121.5,-84.09 118,-74.09 114.5,-84.09 121.5,-84.09"/>
</a>
</g>
</g>
<!-- Node3 -->
<g id="Node000003" class="node">
<title>Node3</title>
<g id="a_Node000003"><a xlink:href="fasta__query_8h.html" target="_top" xlink:title=" ">
<polygon fill="white" stroke="#666666" points="114,-19 38,-19 38,0 114,0 114,-19"/>
<text text-anchor="middle" x="76" y="-7" font-family="Helvetica" font-size="10.00">fasta_query.h</text>
</a>
</g>
</g>
<!-- Node2&#45;&gt;Node3 -->
<g id="edge2_Node000002_Node000003" class="edge">
<title>Node2&#45;&gt;Node3</title>
<g id="a_edge2_Node000002_Node000003"><a xlink:title=" ">
<path fill="none" stroke="#63b8ff" d="M41.77,-54.75C47.56,-47.26 56.06,-36.28 63.14,-27.13"/>
<polygon fill="#63b8ff" stroke="#63b8ff" points="66.01,-29.14 69.36,-19.09 60.47,-24.86 66.01,-29.14"/>
</a>
</g>
</g>
<!-- Node5 -->
<g id="Node000005" class="node">
<title>Node5</title>
<g id="a_Node000005"><a xlink:href="types_8h.html" target="_top" xlink:title=" ">
<polygon fill="white" stroke="#666666" points="182.5,-19 133.5,-19 133.5,0 182.5,0 182.5,-19"/>
<text text-anchor="middle" x="158" y="-7" font-family="Helvetica" font-size="10.00">types.h</text>
</a>
</g>
</g>
<!-- Node4&#45;&gt;Node5 -->
<g id="edge4_Node000004_Node000005" class="edge">
<title>Node4&#45;&gt;Node5</title>
<g id="a_edge4_Node000004_Node000005"><a xlink:title=" ">
<path fill="none" stroke="#63b8ff" d="M191.39,-54.75C185.74,-47.26 177.46,-36.28 170.55,-27.13"/>
<polygon fill="#63b8ff" stroke="#63b8ff" points="173.3,-24.96 164.48,-19.09 167.71,-29.18 173.3,-24.96"/>
</a>
</g>
</g>
<!-- Node6&#45;&gt;Node3 -->
<g id="edge6_Node000006_Node000003" class="edge">
<title>Node6&#45;&gt;Node3</title>
<g id="a_edge6_Node000006_Node000003"><a xlink:title=" ">
<path fill="none" stroke="#63b8ff" d="M111.06,-54.75C105.13,-47.26 96.43,-36.28 89.18,-27.13"/>
<polygon fill="#63b8ff" stroke="#63b8ff" points="91.76,-24.75 82.81,-19.09 86.27,-29.1 91.76,-24.75"/>
</a>
</g>
</g>
<!-- Node6&#45;&gt;Node5 -->
<g id="edge7_Node000006_Node000005" class="edge">
<title>Node6&#45;&gt;Node5</title>
<g id="a_edge7_Node000006_Node000005"><a xlink:title=" ">
<path fill="none" stroke="#63b8ff" d="M124.61,-54.75C130.26,-47.26 138.54,-36.28 145.45,-27.13"/>
<polygon fill="#63b8ff" stroke="#63b8ff" points="148.29,-29.18 151.52,-19.09 142.7,-24.96 148.29,-29.18"/>
</a>
</g>
</g>
</g>
</svg>
