<?xml version="1.0" encoding="UTF-8" standalone="no"?>
<!DOCTYPE svg PUBLIC "-//W3C//DTD SVG 1.1//EN"
 "http://www.w3.org/Graphics/SVG/1.1/DTD/svg11.dtd">
<!-- Generated by graphviz version 2.44.0 (0)
 -->
<!-- Title: include/fasta_query.h Pages: 1 -->
<svg width="707pt" height="192pt"
 viewBox="0.00 0.00 706.50 192.00" xmlns="http://www.w3.org/2000/svg" xmlns:xlink="http://www.w3.org/1999/xlink">
<g id="graph0" class="graph" transform="scale(1 1) rotate(0) translate(4 188)">
<title>include/fasta_query.h</title>
<!-- Node1 -->
<g id="Node000001" class="node">
<title>Node1</title>
<g id="a_Node000001"><a xlink:title=" ">
<polygon fill="#999999" stroke="#666666" points="569.5,-184 459.5,-184 459.5,-165 569.5,-165 569.5,-184"/>
<text text-anchor="middle" x="514.5" y="-172" font-family="Helvetica" font-size="10.00">include/fasta_query.h</text>
</a>
</g>
</g>
<!-- Node2 -->
<g id="Node000002" class="node">
<title>Node2</title>
<g id="a_Node000002"><a xlink:href="input__data_8h.html" target="_top" xlink:title=" ">
<polygon fill="white" stroke="#666666" points="418.5,-129 314.5,-129 314.5,-110 418.5,-110 418.5,-129"/>
<text text-anchor="middle" x="366.5" y="-117" font-family="Helvetica" font-size="10.00">include/input_data.h</text>
</a>
</g>
</g>
<!-- Node1&#45;&gt;Node2 -->
<g id="edge1_Node000001_Node000002" class="edge">
<title>Node1&#45;&gt;Node2</title>
<g id="a_edge1_Node000001_Node000002"><a xlink:title=" ">
<path fill="none" stroke="#63b8ff" d="M481.13,-161.55C453.65,-151.71 415.33,-137.98 390.71,-129.17"/>
<polygon fill="#63b8ff" stroke="#63b8ff" points="480.13,-164.91 490.72,-164.98 482.49,-158.32 480.13,-164.91"/>
</a>
</g>
</g>
<!-- Node12 -->
<g id="Node000012" class="node">
<title>Node12</title>
<g id="a_Node000012"><a xlink:href="sv__data_8h.html" target="_top" xlink:title=" ">
<polygon fill="white" stroke="#666666" points="561,-129 468,-129 468,-110 561,-110 561,-129"/>
<text text-anchor="middle" x="514.5" y="-117" font-family="Helvetica" font-size="10.00">include/sv_data.h</text>
</a>
</g>
</g>
<!-- Node1&#45;&gt;Node12 -->
<g id="edge14_Node000001_Node000012" class="edge">
<title>Node1&#45;&gt;Node12</title>
<g id="a_edge14_Node000001_Node000012"><a xlink:title=" ">
<path fill="none" stroke="#63b8ff" d="M514.5,-154.66C514.5,-145.93 514.5,-135.99 514.5,-129.09"/>
<polygon fill="#63b8ff" stroke="#63b8ff" points="511,-154.75 514.5,-164.75 518,-154.75 511,-154.75"/>
</a>
</g>
</g>
<!-- Node14 -->
<g id="Node000014" class="node">
<title>Node14</title>
<g id="a_Node000014"><a xlink:href="fasta__query_8cpp.html" target="_top" xlink:title=" ">
<polygon fill="white" stroke="#666666" points="682,-129 579,-129 579,-110 682,-110 682,-129"/>
<text text-anchor="middle" x="630.5" y="-117" font-family="Helvetica" font-size="10.00">src/fasta_query.cpp</text>
</a>
</g>
</g>
<!-- Node1&#45;&gt;Node14 -->
<g id="edge18_Node000001_Node000014" class="edge">
<title>Node1&#45;&gt;Node14</title>
<g id="a_edge18_Node000001_Node000014"><a xlink:title=" ">
<path fill="none" stroke="#63b8ff" d="M542.37,-160.77C563.77,-150.99 592.74,-137.75 611.52,-129.17"/>
<polygon fill="#63b8ff" stroke="#63b8ff" points="540.78,-157.65 533.14,-164.98 543.69,-164.01 540.78,-157.65"/>
</a>
</g>
</g>
<!-- Node3 -->
<g id="Node000003" class="node">
<title>Node3</title>
<g id="a_Node000003"><a xlink:href="cnv__caller_8h.html" target="_top" xlink:title=" ">
<polygon fill="white" stroke="#666666" points="478,-74 375,-74 375,-55 478,-55 478,-74"/>
<text text-anchor="middle" x="426.5" y="-62" font-family="Helvetica" font-size="10.00">include/cnv_caller.h</text>
</a>
</g>
</g>
<!-- Node2&#45;&gt;Node3 -->
<g id="edge2_Node000002_Node000003" class="edge">
<title>Node2&#45;&gt;Node3</title>
<g id="a_edge2_Node000002_Node000003"><a xlink:title=" ">
<path fill="none" stroke="#63b8ff" d="M383.68,-103.32C394.38,-93.87 407.76,-82.06 416.68,-74.17"/>
<polygon fill="#63b8ff" stroke="#63b8ff" points="381.32,-100.74 376.14,-109.98 385.95,-105.99 381.32,-100.74"/>
</a>
</g>
</g>
<!-- Node6 -->
<g id="Node000006" class="node">
<title>Node6</title>
<g id="a_Node000006"><a xlink:href="contextsv_8h.html" target="_top" xlink:title=" ">
<polygon fill="white" stroke="#666666" points="357,-74 256,-74 256,-55 357,-55 357,-74"/>
<text text-anchor="middle" x="306.5" y="-62" font-family="Helvetica" font-size="10.00">include/contextsv.h</text>
</a>
</g>
</g>
<!-- Node2&#45;&gt;Node6 -->
<g id="edge5_Node000002_Node000006" class="edge">
<title>Node2&#45;&gt;Node6</title>
<g id="a_edge5_Node000002_Node000006"><a xlink:title=" ">
<path fill="none" stroke="#63b8ff" d="M349.32,-103.32C338.62,-93.87 325.24,-82.06 316.32,-74.17"/>
<polygon fill="#63b8ff" stroke="#63b8ff" points="347.05,-105.99 356.86,-109.98 351.68,-100.74 347.05,-105.99"/>
</a>
</g>
</g>
<!-- Node8 -->
<g id="Node000008" class="node">
<title>Node8</title>
<g id="a_Node000008"><a xlink:href="sv__caller_8h.html" target="_top" xlink:title=" ">
<polygon fill="white" stroke="#666666" points="594.5,-74 496.5,-74 496.5,-55 594.5,-55 594.5,-74"/>
<text text-anchor="middle" x="545.5" y="-62" font-family="Helvetica" font-size="10.00">include/sv_caller.h</text>
</a>
</g>
</g>
<!-- Node2&#45;&gt;Node8 -->
<g id="edge8_Node000002_Node000008" class="edge">
<title>Node2&#45;&gt;Node8</title>
<g id="a_edge8_Node000002_Node000008"><a xlink:title=" ">
<path fill="none" stroke="#63b8ff" d="M405.15,-107.06C438.61,-97.15 486.25,-83.04 516.52,-74.08"/>
<polygon fill="#63b8ff" stroke="#63b8ff" points="403.85,-103.79 395.26,-109.98 405.84,-110.5 403.85,-103.79"/>
</a>
</g>
</g>
<!-- Node10 -->
<g id="Node000010" class="node">
<title>Node10</title>
<g id="a_Node000010"><a xlink:href="swig__interface_8h.html" target="_top" xlink:title=" ">
<polygon fill="white" stroke="#666666" points="237.5,-74 115.5,-74 115.5,-55 237.5,-55 237.5,-74"/>
<text text-anchor="middle" x="176.5" y="-62" font-family="Helvetica" font-size="10.00">include/swig_interface.h</text>
</a>
</g>
</g>
<!-- Node2&#45;&gt;Node10 -->
<g id="edge11_Node000002_Node000010" class="edge">
<title>Node2&#45;&gt;Node10</title>
<g id="a_edge11_Node000002_Node000010"><a xlink:title=" ">
<path fill="none" stroke="#63b8ff" d="M325.93,-107.18C290.4,-97.27 239.53,-83.08 207.27,-74.08"/>
<polygon fill="#63b8ff" stroke="#63b8ff" points="325.4,-110.67 335.97,-109.98 327.28,-103.93 325.4,-110.67"/>
</a>
</g>
</g>
<!-- Node11 -->
<g id="Node000011" class="node">
<title>Node11</title>
<g id="a_Node000011"><a xlink:href="input__data_8cpp.html" target="_top" xlink:title=" ">
<polygon fill="white" stroke="#666666" points="97,-74 0,-74 0,-55 97,-55 97,-74"/>
<text text-anchor="middle" x="48.5" y="-62" font-family="Helvetica" font-size="10.00">src/input_data.cpp</text>
</a>
</g>
</g>
<!-- Node2&#45;&gt;Node11 -->
<g id="edge13_Node000002_Node000011" class="edge">
<title>Node2&#45;&gt;Node11</title>
<g id="a_edge13_Node000002_Node000011"><a xlink:title=" ">
<path fill="none" stroke="#63b8ff" d="M305.21,-108.28C244.55,-98.18 152.93,-82.9 97.12,-73.6"/>
<polygon fill="#63b8ff" stroke="#63b8ff" points="304.97,-111.79 315.41,-109.98 306.12,-104.89 304.97,-111.79"/>
</a>
</g>
</g>
<!-- Node4 -->
<g id="Node000004" class="node">
<title>Node4</title>
<g id="a_Node000004"><a xlink:href="cnv__caller_8cpp.html" target="_top" xlink:title=" ">
<polygon fill="white" stroke="#666666" points="365.5,-19 269.5,-19 269.5,0 365.5,0 365.5,-19"/>
<text text-anchor="middle" x="317.5" y="-7" font-family="Helvetica" font-size="10.00">src/cnv_caller.cpp</text>
</a>
</g>
</g>
<!-- Node3&#45;&gt;Node4 -->
<g id="edge3_Node000003_Node000004" class="edge">
<title>Node3&#45;&gt;Node4</title>
<g id="a_edge3_Node000003_Node000004"><a xlink:title=" ">
<path fill="none" stroke="#63b8ff" d="M399.77,-50.5C379.71,-40.75 352.82,-27.68 335.33,-19.17"/>
<polygon fill="#63b8ff" stroke="#63b8ff" points="398.46,-53.76 408.99,-54.98 401.52,-47.46 398.46,-53.76"/>
</a>
</g>
</g>
<!-- Node5 -->
<g id="Node000005" class="node">
<title>Node5</title>
<g id="a_Node000005"><a xlink:href="contextsv_8cpp.html" target="_top" xlink:title=" ">
<polygon fill="white" stroke="#666666" points="477.5,-19 383.5,-19 383.5,0 477.5,0 477.5,-19"/>
<text text-anchor="middle" x="430.5" y="-7" font-family="Helvetica" font-size="10.00">src/contextsv.cpp</text>
</a>
</g>
</g>
<!-- Node3&#45;&gt;Node5 -->
<g id="edge4_Node000003_Node000005" class="edge">
<title>Node3&#45;&gt;Node5</title>
<g id="a_edge4_Node000003_Node000005"><a xlink:title=" ">
<path fill="none" stroke="#63b8ff" d="M427.92,-44.66C428.58,-35.93 429.33,-25.99 429.85,-19.09"/>
<polygon fill="#63b8ff" stroke="#63b8ff" points="424.42,-44.51 427.16,-54.75 431.4,-45.04 424.42,-44.51"/>
</a>
</g>
</g>
<!-- Node6&#45;&gt;Node5 -->
<g id="edge6_Node000006_Node000005" class="edge">
<title>Node6&#45;&gt;Node5</title>
<g id="a_edge6_Node000006_Node000005"><a xlink:title=" ">
<path fill="none" stroke="#63b8ff" d="M335.68,-51.03C358.61,-41.23 389.95,-27.83 410.21,-19.17"/>
<polygon fill="#63b8ff" stroke="#63b8ff" points="334.24,-47.84 326.42,-54.98 336.99,-54.27 334.24,-47.84"/>
</a>
</g>
</g>
<!-- Node7 -->
<g id="Node000007" class="node">
<title>Node7</title>
<g id="a_Node000007"><a xlink:href="swig__interface_8cpp.html" target="_top" xlink:title=" ">
<polygon fill="white" stroke="#666666" points="245.5,-19 129.5,-19 129.5,0 245.5,0 245.5,-19"/>
<text text-anchor="middle" x="187.5" y="-7" font-family="Helvetica" font-size="10.00">src/swig_interface.cpp</text>
</a>
</g>
</g>
<!-- Node6&#45;&gt;Node7 -->
<g id="edge7_Node000006_Node000007" class="edge">
<title>Node6&#45;&gt;Node7</title>
<g id="a_edge7_Node000006_Node000007"><a xlink:title=" ">
<path fill="none" stroke="#63b8ff" d="M278.2,-50.9C256.22,-41.11 226.32,-27.79 206.97,-19.17"/>
<polygon fill="#63b8ff" stroke="#63b8ff" points="276.82,-54.11 287.38,-54.98 279.67,-47.72 276.82,-54.11"/>
</a>
</g>
</g>
<!-- Node8&#45;&gt;Node5 -->
<g id="edge9_Node000008_Node000005" class="edge">
<title>Node8&#45;&gt;Node5</title>
<g id="a_edge9_Node000008_Node000005"><a xlink:title=" ">
<path fill="none" stroke="#63b8ff" d="M517.87,-50.77C496.66,-40.99 467.94,-27.75 449.31,-19.17"/>
<polygon fill="#63b8ff" stroke="#63b8ff" points="516.48,-53.98 527.02,-54.98 519.41,-47.62 516.48,-53.98"/>
</a>
</g>
</g>
<!-- Node9 -->
<g id="Node000009" class="node">
<title>Node9</title>
<g id="a_Node000009"><a xlink:href="sv__caller_8cpp.html" target="_top" xlink:title=" ">
<polygon fill="white" stroke="#666666" points="591,-19 500,-19 500,0 591,0 591,-19"/>
<text text-anchor="middle" x="545.5" y="-7" font-family="Helvetica" font-size="10.00">src/sv_caller.cpp</text>
</a>
</g>
</g>
<!-- Node8&#45;&gt;Node9 -->
<g id="edge10_Node000008_Node000009" class="edge">
<title>Node8&#45;&gt;Node9</title>
<g id="a_edge10_Node000008_Node000009"><a xlink:title=" ">
<path fill="none" stroke="#63b8ff" d="M545.5,-44.66C545.5,-35.93 545.5,-25.99 545.5,-19.09"/>
<polygon fill="#63b8ff" stroke="#63b8ff" points="542,-44.75 545.5,-54.75 549,-44.75 542,-44.75"/>
</a>
</g>
</g>
<!-- Node10&#45;&gt;Node7 -->
<g id="edge12_Node000010_Node000007" class="edge">
<title>Node10&#45;&gt;Node7</title>
<g id="a_edge12_Node000010_Node000007"><a xlink:title=" ">
<path fill="none" stroke="#63b8ff" d="M180.35,-44.95C182.18,-36.15 184.27,-26.06 185.72,-19.09"/>
<polygon fill="#63b8ff" stroke="#63b8ff" points="176.92,-44.25 178.32,-54.75 183.78,-45.67 176.92,-44.25"/>
</a>
</g>
</g>
<!-- Node12&#45;&gt;Node6 -->
<g id="edge15_Node000012_Node000006" class="edge">
<title>Node12&#45;&gt;Node6</title>
<g id="a_edge15_Node000012_Node000006"><a xlink:title=" ">
<path fill="none" stroke="#63b8ff" d="M471.09,-107.44C432.15,-97.52 375.81,-83.16 340.18,-74.08"/>
<polygon fill="#63b8ff" stroke="#63b8ff" points="470.53,-110.91 481.08,-109.98 472.26,-104.12 470.53,-110.91"/>
</a>
</g>
</g>
<!-- Node12&#45;&gt;Node8 -->
<g id="edge16_Node000012_Node000008" class="edge">
<title>Node12&#45;&gt;Node8</title>
<g id="a_edge16_Node000012_Node000008"><a xlink:title=" ">
<path fill="none" stroke="#63b8ff" d="M524.68,-101.1C529.97,-92.04 536.22,-81.37 540.48,-74.09"/>
<polygon fill="#63b8ff" stroke="#63b8ff" points="521.65,-99.35 519.62,-109.75 527.69,-102.88 521.65,-99.35"/>
</a>
</g>
</g>
<!-- Node13 -->
<g id="Node000013" class="node">
<title>Node13</title>
<g id="a_Node000013"><a xlink:href="sv__data_8cpp.html" target="_top" xlink:title=" ">
<polygon fill="white" stroke="#666666" points="698.5,-74 612.5,-74 612.5,-55 698.5,-55 698.5,-74"/>
<text text-anchor="middle" x="655.5" y="-62" font-family="Helvetica" font-size="10.00">src/sv_data.cpp</text>
</a>
</g>
</g>
<!-- Node12&#45;&gt;Node13 -->
<g id="edge17_Node000012_Node000013" class="edge">
<title>Node12&#45;&gt;Node13</title>
<g id="a_edge17_Node000012_Node000013"><a xlink:title=" ">
<path fill="none" stroke="#63b8ff" d="M546.64,-106.42C572.79,-96.59 609.09,-82.95 632.43,-74.17"/>
<polygon fill="#63b8ff" stroke="#63b8ff" points="545.28,-103.19 537.15,-109.98 547.75,-109.74 545.28,-103.19"/>
</a>
</g>
</g>
</g>
</svg>
