<?xml version="1.0" encoding="UTF-8" standalone="no"?>
<!DOCTYPE svg PUBLIC "-//W3C//DTD SVG 1.1//EN"
 "http://www.w3.org/Graphics/SVG/1.1/DTD/svg11.dtd">
<!-- Generated by graphviz version 2.44.0 (0)
 -->
<!-- Title: src/input_data.cpp Pages: 1 -->
<svg width="105pt" height="137pt"
 viewBox="0.00 0.00 105.00 137.00" xmlns="http://www.w3.org/2000/svg" xmlns:xlink="http://www.w3.org/1999/xlink">
<g id="graph0" class="graph" transform="scale(1 1) rotate(0) translate(4 133)">
<title>src/input_data.cpp</title>
<!-- Node1 -->
<g id="Node000001" class="node">
<title>Node1</title>
<g id="a_Node000001"><a xlink:title=" ">
<polygon fill="#999999" stroke="#666666" points="97,-129 0,-129 0,-110 97,-110 97,-129"/>
<text text-anchor="middle" x="48.5" y="-117" font-family="Helvetica" font-size="10.00">src/input_data.cpp</text>
</a>
</g>
</g>
<!-- Node2 -->
<g id="Node000002" class="node">
<title>Node2</title>
<g id="a_Node000002"><a xlink:href="input__data_8h.html" target="_top" xlink:title=" ">
<polygon fill="white" stroke="#666666" points="83.5,-74 13.5,-74 13.5,-55 83.5,-55 83.5,-74"/>
<text text-anchor="middle" x="48.5" y="-62" font-family="Helvetica" font-size="10.00">input_data.h</text>
</a>
</g>
</g>
<!-- Node1&#45;&gt;Node2 -->
<g id="edge1_Node000001_Node000002" class="edge">
<title>Node1&#45;&gt;Node2</title>
<g id="a_edge1_Node000001_Node000002"><a xlink:title=" ">
<path fill="none" stroke="#63b8ff" d="M48.5,-109.75C48.5,-102.8 48.5,-92.85 48.5,-84.13"/>
<polygon fill="#63b8ff" stroke="#63b8ff" points="52,-84.09 48.5,-74.09 45,-84.09 52,-84.09"/>
</a>
</g>
</g>
<!-- Node3 -->
<g id="Node000003" class="node">
<title>Node3</title>
<g id="a_Node000003"><a xlink:href="fasta__query_8h.html" target="_top" xlink:title=" ">
<polygon fill="white" stroke="#666666" points="86.5,-19 10.5,-19 10.5,0 86.5,0 86.5,-19"/>
<text text-anchor="middle" x="48.5" y="-7" font-family="Helvetica" font-size="10.00">fasta_query.h</text>
</a>
</g>
</g>
<!-- Node2&#45;&gt;Node3 -->
<g id="edge2_Node000002_Node000003" class="edge">
<title>Node2&#45;&gt;Node3</title>
<g id="a_edge2_Node000002_Node000003"><a xlink:title=" ">
<path fill="none" stroke="#63b8ff" d="M48.5,-54.75C48.5,-47.8 48.5,-37.85 48.5,-29.13"/>
<polygon fill="#63b8ff" stroke="#63b8ff" points="52,-29.09 48.5,-19.09 45,-29.09 52,-29.09"/>
</a>
</g>
</g>
</g>
</svg>
