<?xml version="1.0" encoding="UTF-8" standalone="no"?>
<!DOCTYPE svg PUBLIC "-//W3C//DTD SVG 1.1//EN"
 "http://www.w3.org/Graphics/SVG/1.1/DTD/svg11.dtd">
<!-- Generated by graphviz version 2.44.0 (0)
 -->
<!-- Title: include/input_data.h Pages: 1 -->
<svg width="603pt" height="137pt"
 viewBox="0.00 0.00 603.00 137.00" xmlns="http://www.w3.org/2000/svg" xmlns:xlink="http://www.w3.org/1999/xlink">
<g id="graph0" class="graph" transform="scale(1 1) rotate(0) translate(4 133)">
<title>include/input_data.h</title>
<!-- Node1 -->
<g id="Node000001" class="node">
<title>Node1</title>
<g id="a_Node000001"><a xlink:title=" ">
<polygon fill="#999999" stroke="#666666" points="340.5,-129 236.5,-129 236.5,-110 340.5,-110 340.5,-129"/>
<text text-anchor="middle" x="288.5" y="-117" font-family="Helvetica" font-size="10.00">include/input_data.h</text>
</a>
</g>
</g>
<!-- Node2 -->
<g id="Node000002" class="node">
<title>Node2</title>
<g id="a_Node000002"><a xlink:href="cnv__caller_8h.html" target="_top" xlink:title=" ">
<polygon fill="white" stroke="#666666" points="103,-74 0,-74 0,-55 103,-55 103,-74"/>
<text text-anchor="middle" x="51.5" y="-62" font-family="Helvetica" font-size="10.00">include/cnv_caller.h</text>
</a>
</g>
</g>
<!-- Node1&#45;&gt;Node2 -->
<g id="edge1_Node000001_Node000002" class="edge">
<title>Node1&#45;&gt;Node2</title>
<g id="a_edge1_Node000001_Node000002"><a xlink:title=" ">
<path fill="none" stroke="#63b8ff" d="M240.44,-107.75C196.03,-97.82 130.9,-83.26 89.88,-74.08"/>
<polygon fill="#63b8ff" stroke="#63b8ff" points="239.9,-111.22 250.42,-109.98 241.43,-104.39 239.9,-111.22"/>
</a>
</g>
</g>
<!-- Node5 -->
<g id="Node000005" class="node">
<title>Node5</title>
<g id="a_Node000005"><a xlink:href="contextsv_8h.html" target="_top" xlink:title=" ">
<polygon fill="white" stroke="#666666" points="339,-74 238,-74 238,-55 339,-55 339,-74"/>
<text text-anchor="middle" x="288.5" y="-62" font-family="Helvetica" font-size="10.00">include/contextsv.h</text>
</a>
</g>
</g>
<!-- Node1&#45;&gt;Node5 -->
<g id="edge4_Node000001_Node000005" class="edge">
<title>Node1&#45;&gt;Node5</title>
<g id="a_edge4_Node000001_Node000005"><a xlink:title=" ">
<path fill="none" stroke="#63b8ff" d="M288.5,-99.66C288.5,-90.93 288.5,-80.99 288.5,-74.09"/>
<polygon fill="#63b8ff" stroke="#63b8ff" points="285,-99.75 288.5,-109.75 292,-99.75 285,-99.75"/>
</a>
</g>
</g>
<!-- Node7 -->
<g id="Node000007" class="node">
<title>Node7</title>
<g id="a_Node000007"><a xlink:href="sv__caller_8h.html" target="_top" xlink:title=" ">
<polygon fill="white" stroke="#666666" points="219.5,-74 121.5,-74 121.5,-55 219.5,-55 219.5,-74"/>
<text text-anchor="middle" x="170.5" y="-62" font-family="Helvetica" font-size="10.00">include/sv_caller.h</text>
</a>
</g>
</g>
<!-- Node1&#45;&gt;Node7 -->
<g id="edge7_Node000001_Node000007" class="edge">
<title>Node1&#45;&gt;Node7</title>
<g id="a_edge7_Node000001_Node000007"><a xlink:title=" ">
<path fill="none" stroke="#63b8ff" d="M260.15,-105.77C238.38,-95.99 208.91,-82.75 189.8,-74.17"/>
<polygon fill="#63b8ff" stroke="#63b8ff" points="258.99,-109.08 269.54,-109.98 261.85,-102.69 258.99,-109.08"/>
</a>
</g>
</g>
<!-- Node9 -->
<g id="Node000009" class="node">
<title>Node9</title>
<g id="a_Node000009"><a xlink:href="swig__interface_8h.html" target="_top" xlink:title=" ">
<polygon fill="white" stroke="#666666" points="479.5,-74 357.5,-74 357.5,-55 479.5,-55 479.5,-74"/>
<text text-anchor="middle" x="418.5" y="-62" font-family="Helvetica" font-size="10.00">include/swig_interface.h</text>
</a>
</g>
</g>
<!-- Node1&#45;&gt;Node9 -->
<g id="edge10_Node000001_Node000009" class="edge">
<title>Node1&#45;&gt;Node9</title>
<g id="a_edge10_Node000001_Node000009"><a xlink:title=" ">
<path fill="none" stroke="#63b8ff" d="M318.77,-106.16C342.84,-96.35 375.9,-82.87 397.23,-74.17"/>
<polygon fill="#63b8ff" stroke="#63b8ff" points="317.33,-102.97 309.39,-109.98 319.97,-109.45 317.33,-102.97"/>
</a>
</g>
</g>
<!-- Node10 -->
<g id="Node000010" class="node">
<title>Node10</title>
<g id="a_Node000010"><a xlink:href="input__data_8cpp.html" target="_top" xlink:title=" ">
<polygon fill="white" stroke="#666666" points="595,-74 498,-74 498,-55 595,-55 595,-74"/>
<text text-anchor="middle" x="546.5" y="-62" font-family="Helvetica" font-size="10.00">src/input_data.cpp</text>
</a>
</g>
</g>
<!-- Node1&#45;&gt;Node10 -->
<g id="edge12_Node000001_Node000010" class="edge">
<title>Node1&#45;&gt;Node10</title>
<g id="a_edge12_Node000001_Node000010"><a xlink:title=" ">
<path fill="none" stroke="#63b8ff" d="M339.9,-107.94C388.26,-98.01 459.78,-83.31 504.72,-74.08"/>
<polygon fill="#63b8ff" stroke="#63b8ff" points="339.04,-104.54 329.95,-109.98 340.45,-111.4 339.04,-104.54"/>
</a>
</g>
</g>
<!-- Node3 -->
<g id="Node000003" class="node">
<title>Node3</title>
<g id="a_Node000003"><a xlink:href="cnv__caller_8cpp.html" target="_top" xlink:title=" ">
<polygon fill="white" stroke="#666666" points="99.5,-19 3.5,-19 3.5,0 99.5,0 99.5,-19"/>
<text text-anchor="middle" x="51.5" y="-7" font-family="Helvetica" font-size="10.00">src/cnv_caller.cpp</text>
</a>
</g>
</g>
<!-- Node2&#45;&gt;Node3 -->
<g id="edge2_Node000002_Node000003" class="edge">
<title>Node2&#45;&gt;Node3</title>
<g id="a_edge2_Node000002_Node000003"><a xlink:title=" ">
<path fill="none" stroke="#63b8ff" d="M51.5,-44.66C51.5,-35.93 51.5,-25.99 51.5,-19.09"/>
<polygon fill="#63b8ff" stroke="#63b8ff" points="48,-44.75 51.5,-54.75 55,-44.75 48,-44.75"/>
</a>
</g>
</g>
<!-- Node4 -->
<g id="Node000004" class="node">
<title>Node4</title>
<g id="a_Node000004"><a xlink:href="contextsv_8cpp.html" target="_top" xlink:title=" ">
<polygon fill="white" stroke="#666666" points="324.5,-19 230.5,-19 230.5,0 324.5,0 324.5,-19"/>
<text text-anchor="middle" x="277.5" y="-7" font-family="Helvetica" font-size="10.00">src/contextsv.cpp</text>
</a>
</g>
</g>
<!-- Node2&#45;&gt;Node4 -->
<g id="edge3_Node000002_Node000004" class="edge">
<title>Node2&#45;&gt;Node4</title>
<g id="a_edge3_Node000002_Node000004"><a xlink:title=" ">
<path fill="none" stroke="#63b8ff" d="M97.59,-52.69C139.94,-42.76 201.86,-28.24 240.9,-19.08"/>
<polygon fill="#63b8ff" stroke="#63b8ff" points="96.75,-49.29 87.81,-54.98 98.35,-56.11 96.75,-49.29"/>
</a>
</g>
</g>
<!-- Node5&#45;&gt;Node4 -->
<g id="edge5_Node000005_Node000004" class="edge">
<title>Node5&#45;&gt;Node4</title>
<g id="a_edge5_Node000005_Node000004"><a xlink:title=" ">
<path fill="none" stroke="#63b8ff" d="M284.65,-44.95C282.82,-36.15 280.73,-26.06 279.28,-19.09"/>
<polygon fill="#63b8ff" stroke="#63b8ff" points="281.22,-45.67 286.68,-54.75 288.08,-44.25 281.22,-45.67"/>
</a>
</g>
</g>
<!-- Node6 -->
<g id="Node000006" class="node">
<title>Node6</title>
<g id="a_Node000006"><a xlink:href="swig__interface_8cpp.html" target="_top" xlink:title=" ">
<polygon fill="white" stroke="#666666" points="467.5,-19 351.5,-19 351.5,0 467.5,0 467.5,-19"/>
<text text-anchor="middle" x="409.5" y="-7" font-family="Helvetica" font-size="10.00">src/swig_interface.cpp</text>
</a>
</g>
</g>
<!-- Node5&#45;&gt;Node6 -->
<g id="edge6_Node000005_Node000006" class="edge">
<title>Node5&#45;&gt;Node6</title>
<g id="a_edge6_Node000005_Node000006"><a xlink:title=" ">
<path fill="none" stroke="#63b8ff" d="M317.27,-50.9C339.62,-41.11 370.02,-27.79 389.71,-19.17"/>
<polygon fill="#63b8ff" stroke="#63b8ff" points="315.7,-47.77 307.94,-54.98 318.5,-54.18 315.7,-47.77"/>
</a>
</g>
</g>
<!-- Node7&#45;&gt;Node4 -->
<g id="edge8_Node000007_Node000004" class="edge">
<title>Node7&#45;&gt;Node4</title>
<g id="a_edge8_Node000007_Node000004"><a xlink:title=" ">
<path fill="none" stroke="#63b8ff" d="M196.74,-50.5C216.43,-40.75 242.82,-27.68 260,-19.17"/>
<polygon fill="#63b8ff" stroke="#63b8ff" points="195.1,-47.41 187.69,-54.98 198.21,-53.68 195.1,-47.41"/>
</a>
</g>
</g>
<!-- Node8 -->
<g id="Node000008" class="node">
<title>Node8</title>
<g id="a_Node000008"><a xlink:href="sv__caller_8cpp.html" target="_top" xlink:title=" ">
<polygon fill="white" stroke="#666666" points="212,-19 121,-19 121,0 212,0 212,-19"/>
<text text-anchor="middle" x="166.5" y="-7" font-family="Helvetica" font-size="10.00">src/sv_caller.cpp</text>
</a>
</g>
</g>
<!-- Node7&#45;&gt;Node8 -->
<g id="edge9_Node000007_Node000008" class="edge">
<title>Node7&#45;&gt;Node8</title>
<g id="a_edge9_Node000007_Node000008"><a xlink:title=" ">
<path fill="none" stroke="#63b8ff" d="M169.08,-44.66C168.42,-35.93 167.67,-25.99 167.15,-19.09"/>
<polygon fill="#63b8ff" stroke="#63b8ff" points="165.6,-45.04 169.84,-54.75 172.58,-44.51 165.6,-45.04"/>
</a>
</g>
</g>
<!-- Node9&#45;&gt;Node6 -->
<g id="edge11_Node000009_Node000006" class="edge">
<title>Node9&#45;&gt;Node6</title>
<g id="a_edge11_Node000009_Node000006"><a xlink:title=" ">
<path fill="none" stroke="#63b8ff" d="M415.3,-44.66C413.82,-35.93 412.13,-25.99 410.96,-19.09"/>
<polygon fill="#63b8ff" stroke="#63b8ff" points="411.89,-45.48 417.01,-54.75 418.79,-44.3 411.89,-45.48"/>
</a>
</g>
</g>
</g>
</svg>
