<?xml version="1.0" encoding="UTF-8" standalone="no"?>
<!DOCTYPE svg PUBLIC "-//W3C//DTD SVG 1.1//EN"
 "http://www.w3.org/Graphics/SVG/1.1/DTD/svg11.dtd">
<!-- Generated by graphviz version 2.44.0 (0)
 -->
<!-- Title: pdf_normal Pages: 1 -->
<svg width="714pt" height="64pt"
 viewBox="0.00 0.00 714.00 64.00" xmlns="http://www.w3.org/2000/svg" xmlns:xlink="http://www.w3.org/1999/xlink">
<g id="graph0" class="graph" transform="scale(1 1) rotate(0) translate(4 60)">
<title>pdf_normal</title>
<!-- Node1 -->
<g id="Node000001" class="node">
<title>Node1</title>
<g id="a_Node000001"><a xlink:title=" ">
<polygon fill="#999999" stroke="#666666" points="706,-37 641,-37 641,-18 706,-18 706,-37"/>
<text text-anchor="middle" x="673.5" y="-25" font-family="Helvetica" font-size="10.00">pdf_normal</text>
</a>
</g>
</g>
<!-- Node2 -->
<g id="Node000002" class="node">
<title>Node2</title>
<g id="a_Node000002"><a xlink:href="khmm_8cpp.html#a02dc04d07f642f9756939ef10af76319" target="_top" xlink:title="O1 emission probability.">
<polygon fill="white" stroke="#666666" points="605,-56 567,-56 567,-37 605,-37 605,-56"/>
<text text-anchor="middle" x="586" y="-44" font-family="Helvetica" font-size="10.00">b1iot</text>
</a>
</g>
</g>
<!-- Node1&#45;&gt;Node2 -->
<g id="edge1_Node000001_Node000002" class="edge">
<title>Node1&#45;&gt;Node2</title>
<g id="a_edge1_Node000001_Node000002"><a xlink:title=" ">
<path fill="none" stroke="#63b8ff" d="M630.66,-36.8C621.7,-38.79 612.69,-40.79 605.2,-42.45"/>
<polygon fill="#63b8ff" stroke="#63b8ff" points="631.66,-40.16 640.66,-34.57 630.14,-33.33 631.66,-40.16"/>
</a>
</g>
</g>
<!-- Node8 -->
<g id="Node000008" class="node">
<title>Node8</title>
<g id="a_Node000008"><a xlink:href="khmm_8cpp.html#a652a672a2d4cba451fe4f5a0af94d977" target="_top" xlink:title="O2 emission probability.">
<polygon fill="white" stroke="#666666" points="605,-19 567,-19 567,0 605,0 605,-19"/>
<text text-anchor="middle" x="586" y="-7" font-family="Helvetica" font-size="10.00">b2iot</text>
</a>
</g>
</g>
<!-- Node1&#45;&gt;Node8 -->
<g id="edge7_Node000001_Node000008" class="edge">
<title>Node1&#45;&gt;Node8</title>
<g id="a_edge7_Node000001_Node000008"><a xlink:title=" ">
<path fill="none" stroke="#63b8ff" d="M630.66,-18.69C621.7,-16.81 612.69,-14.91 605.2,-13.33"/>
<polygon fill="#63b8ff" stroke="#63b8ff" points="630.16,-22.16 640.66,-20.8 631.6,-15.31 630.16,-22.16"/>
</a>
</g>
</g>
<!-- Node3 -->
<g id="Node000003" class="node">
<title>Node3</title>
<g id="a_Node000003"><a xlink:href="khmm_8cpp.html#a51dbadd369b498ec093b590f39e8ea96" target="_top" xlink:title="Viterbi algorithm.">
<polygon fill="white" stroke="#666666" points="531,-37 420,-37 420,-18 531,-18 531,-37"/>
<text text-anchor="middle" x="475.5" y="-25" font-family="Helvetica" font-size="10.00">ViterbiLogNP_CHMM</text>
</a>
</g>
</g>
<!-- Node2&#45;&gt;Node3 -->
<g id="edge2_Node000002_Node000003" class="edge">
<title>Node2&#45;&gt;Node3</title>
<g id="a_edge2_Node000002_Node000003"><a xlink:title=" ">
<path fill="none" stroke="#63b8ff" d="M556.54,-41.52C548.67,-40.14 539.86,-38.6 531.04,-37.05"/>
<polygon fill="#63b8ff" stroke="#63b8ff" points="556.14,-45 566.59,-43.28 557.35,-38.1 556.14,-45"/>
</a>
</g>
</g>
<!-- Node4 -->
<g id="Node000004" class="node">
<title>Node4</title>
<g id="a_Node000004"><a xlink:href="khmm_8cpp.html#ac44ba55ccbb73d2b015ca7537479381e" target="_top" xlink:title="Run the main HMM algorithm.">
<polygon fill="white" stroke="#666666" points="384,-37 303,-37 303,-18 384,-18 384,-37"/>
<text text-anchor="middle" x="343.5" y="-25" font-family="Helvetica" font-size="10.00">testVit_CHMM</text>
</a>
</g>
</g>
<!-- Node3&#45;&gt;Node4 -->
<g id="edge3_Node000003_Node000004" class="edge">
<title>Node3&#45;&gt;Node4</title>
<g id="a_edge3_Node000003_Node000004"><a xlink:title=" ">
<path fill="none" stroke="#63b8ff" d="M409.6,-27.5C400.92,-27.5 392.25,-27.5 384.19,-27.5"/>
<polygon fill="#63b8ff" stroke="#63b8ff" points="409.75,-31 419.75,-27.5 409.75,-24 409.75,-31"/>
</a>
</g>
</g>
<!-- Node5 -->
<g id="Node000005" class="node">
<title>Node5</title>
<g id="a_Node000005"><a xlink:href="class_c_n_v_caller.html#a49824c662095f9af9a38056dadc8933f" target="_top" xlink:title=" ">
<polygon fill="white" stroke="#666666" points="267,-37 185,-37 185,-18 267,-18 267,-37"/>
<text text-anchor="middle" x="226" y="-25" font-family="Helvetica" font-size="10.00">CNVCaller::run</text>
</a>
</g>
</g>
<!-- Node4&#45;&gt;Node5 -->
<g id="edge4_Node000004_Node000005" class="edge">
<title>Node4&#45;&gt;Node5</title>
<g id="a_edge4_Node000004_Node000005"><a xlink:title=" ">
<path fill="none" stroke="#63b8ff" d="M292.58,-27.5C284.1,-27.5 275.4,-27.5 267.21,-27.5"/>
<polygon fill="#63b8ff" stroke="#63b8ff" points="292.75,-31 302.75,-27.5 292.75,-24 292.75,-31"/>
</a>
</g>
</g>
<!-- Node6 -->
<g id="Node000006" class="node">
<title>Node6</title>
<g id="a_Node000006"><a xlink:href="class_context_s_v.html#ac9d32b6e28e5bfdf10e314db0e90e4cd" target="_top" xlink:title=" ">
<polygon fill="white" stroke="#666666" points="149,-37 66,-37 66,-18 149,-18 149,-37"/>
<text text-anchor="middle" x="107.5" y="-25" font-family="Helvetica" font-size="10.00">ContextSV::run</text>
</a>
</g>
</g>
<!-- Node5&#45;&gt;Node6 -->
<g id="edge5_Node000005_Node000006" class="edge">
<title>Node5&#45;&gt;Node6</title>
<g id="a_edge5_Node000005_Node000006"><a xlink:title=" ">
<path fill="none" stroke="#63b8ff" d="M174.65,-27.5C166.1,-27.5 157.32,-27.5 149.06,-27.5"/>
<polygon fill="#63b8ff" stroke="#63b8ff" points="174.91,-31 184.91,-27.5 174.91,-24 174.91,-31"/>
</a>
</g>
</g>
<!-- Node7 -->
<g id="Node000007" class="node">
<title>Node7</title>
<g id="a_Node000007"><a xlink:href="swig__interface_8cpp.html#ade07e2f2bb85b7aaac8af156f3e962f6" target="_top" xlink:title=" ">
<polygon fill="white" stroke="#666666" points="30,-37 0,-37 0,-18 30,-18 30,-37"/>
<text text-anchor="middle" x="15" y="-25" font-family="Helvetica" font-size="10.00">run</text>
</a>
</g>
</g>
<!-- Node6&#45;&gt;Node7 -->
<g id="edge6_Node000006_Node000007" class="edge">
<title>Node6&#45;&gt;Node7</title>
<g id="a_edge6_Node000006_Node000007"><a xlink:title=" ">
<path fill="none" stroke="#63b8ff" d="M55.56,-27.5C46.21,-27.5 37.19,-27.5 30.13,-27.5"/>
<polygon fill="#63b8ff" stroke="#63b8ff" points="55.75,-31 65.75,-27.5 55.75,-24 55.75,-31"/>
</a>
</g>
</g>
<!-- Node8&#45;&gt;Node3 -->
<g id="edge8_Node000008_Node000003" class="edge">
<title>Node8&#45;&gt;Node3</title>
<g id="a_edge8_Node000008_Node000003"><a xlink:title=" ">
<path fill="none" stroke="#63b8ff" d="M556.54,-14.22C548.67,-15.53 539.86,-16.99 531.04,-18.45"/>
<polygon fill="#63b8ff" stroke="#63b8ff" points="557.3,-17.64 566.59,-12.55 556.16,-10.74 557.3,-17.64"/>
</a>
</g>
</g>
</g>
</svg>
