<?xml version="1.0" encoding="UTF-8" standalone="no"?>
<!DOCTYPE svg PUBLIC "-//W3C//DTD SVG 1.1//EN"
 "http://www.w3.org/Graphics/SVG/1.1/DTD/svg11.dtd">
<!-- Generated by graphviz version 2.44.0 (0)
 -->
<!-- Title: matrix_free Pages: 1 -->
<svg width="454pt" height="518pt"
 viewBox="0.00 0.00 454.00 517.95" xmlns="http://www.w3.org/2000/svg" xmlns:xlink="http://www.w3.org/1999/xlink">
<g id="graph0" class="graph" transform="scale(1 1) rotate(0) translate(4 513.95)">
<title>matrix_free</title>
<!-- Node1 -->
<g id="Node000001" class="node">
<title>Node1</title>
<g id="a_Node000001"><a xlink:title=" ">
<polygon fill="#999999" stroke="#666666" points="446,-264 381,-264 381,-245 446,-245 446,-264"/>
<text text-anchor="middle" x="413.5" y="-252" font-family="Helvetica" font-size="10.00">matrix_free</text>
</a>
</g>
</g>
<!-- Node2 -->
<g id="Node000002" class="node">
<title>Node2</title>
<g id="a_Node000002"><a xlink:href="kc_8cpp.html#a673ed8b4d0eee5e7e60df48435e0d8ba" target="_top" xlink:title=" ">
<polygon fill="white" stroke="#666666" points="211,-509 122,-509 122,-490 211,-490 211,-509"/>
<text text-anchor="middle" x="166.5" y="-497" font-family="Helvetica" font-size="10.00">matrix_corMatrix</text>
</a>
</g>
</g>
<!-- Node1&#45;&gt;Node2 -->
<g id="edge1_Node000001_Node000002" class="edge">
<title>Node1&#45;&gt;Node2</title>
<g id="a_edge1_Node000001_Node000002"><a xlink:title=" ">
<path fill="none" stroke="#63b8ff" d="M413.31,-274.44C413.94,-319.42 408.52,-428.93 345,-481.5 308.02,-512.11 250.75,-512.25 211.32,-507.6"/>
<polygon fill="#63b8ff" stroke="#63b8ff" points="416.81,-274.15 413.04,-264.24 409.81,-274.33 416.81,-274.15"/>
</a>
</g>
</g>
<!-- Node3 -->
<g id="Node000003" class="node">
<title>Node3</title>
<g id="a_Node000003"><a xlink:href="kc_8cpp.html#a165e97bd10a48d3c5da908938468212b" target="_top" xlink:title=" ">
<polygon fill="white" stroke="#666666" points="80,-471 0,-471 0,-452 80,-452 80,-471"/>
<text text-anchor="middle" x="40" y="-459" font-family="Helvetica" font-size="10.00">matrix_pcaCor</text>
</a>
</g>
</g>
<!-- Node1&#45;&gt;Node3 -->
<g id="edge11_Node000001_Node000003" class="edge">
<title>Node1&#45;&gt;Node3</title>
<g id="a_edge11_Node000001_Node000003"><a xlink:title=" ">
<path fill="none" stroke="#63b8ff" d="M408.29,-274.07C400.86,-303.74 382.52,-359.78 345,-389.5 342.37,-391.59 161.5,-433.62 80.03,-452.48"/>
<polygon fill="#63b8ff" stroke="#63b8ff" points="411.76,-274.64 410.62,-264.1 404.94,-273.04 411.76,-274.64"/>
</a>
</g>
</g>
<!-- Node4 -->
<g id="Node000004" class="node">
<title>Node4</title>
<g id="a_Node000004"><a xlink:href="kc_8cpp.html#aa51dbc9f02003e376630381db9eab42c" target="_top" xlink:title=" ">
<polygon fill="white" stroke="#666666" points="345,-358 253,-358 253,-339 345,-339 345,-358"/>
<text text-anchor="middle" x="299" y="-346" font-family="Helvetica" font-size="10.00">matrix_covMatrix</text>
</a>
</g>
</g>
<!-- Node1&#45;&gt;Node4 -->
<g id="edge3_Node000001_Node000004" class="edge">
<title>Node1&#45;&gt;Node4</title>
<g id="a_edge3_Node000001_Node000004"><a xlink:title=" ">
<path fill="none" stroke="#63b8ff" d="M400.18,-272.68C387.9,-289.61 367.66,-314.58 345,-330.5 340.32,-333.79 334.95,-336.6 329.59,-338.96"/>
<polygon fill="#63b8ff" stroke="#63b8ff" points="403.25,-274.4 406.14,-264.21 397.53,-270.37 403.25,-274.4"/>
</a>
</g>
</g>
<!-- Node5 -->
<g id="Node000005" class="node">
<title>Node5</title>
<g id="a_Node000005"><a xlink:href="kc_8cpp.html#ae64a3eb3736d5788d72eaf7ad6927421" target="_top" xlink:title=" ">
<polygon fill="white" stroke="#666666" points="208,-377 125,-377 125,-358 208,-358 208,-377"/>
<text text-anchor="middle" x="166.5" y="-365" font-family="Helvetica" font-size="10.00">matrix_pcaCov</text>
</a>
</g>
</g>
<!-- Node1&#45;&gt;Node5 -->
<g id="edge12_Node000001_Node000005" class="edge">
<title>Node1&#45;&gt;Node5</title>
<g id="a_edge12_Node000001_Node000005"><a xlink:title=" ">
<path fill="none" stroke="#63b8ff" d="M407.43,-273.8C399.28,-300.42 380.46,-347.38 345,-367.5 300.78,-392.6 239.82,-385.34 202.08,-377.01"/>
<polygon fill="#63b8ff" stroke="#63b8ff" points="410.82,-274.66 410.21,-264.08 404.09,-272.73 410.82,-274.66"/>
</a>
</g>
</g>
<!-- Node6 -->
<g id="Node000006" class="node">
<title>Node6</title>
<g id="a_Node000006"><a xlink:href="kc_8cpp.html#a4709c372281713ec9baaf5fb939cb10e" target="_top" xlink:title=" ">
<polygon fill="white" stroke="#666666" points="330,-321 268,-321 268,-302 330,-302 330,-321"/>
<text text-anchor="middle" x="299" y="-309" font-family="Helvetica" font-size="10.00">matrix_det</text>
</a>
</g>
</g>
<!-- Node1&#45;&gt;Node6 -->
<g id="edge5_Node000001_Node000006" class="edge">
<title>Node1&#45;&gt;Node6</title>
<g id="a_edge5_Node000001_Node000006"><a xlink:title=" ">
<path fill="none" stroke="#63b8ff" d="M384.52,-268.68C364.05,-279.05 336.84,-292.83 318.89,-301.93"/>
<polygon fill="#63b8ff" stroke="#63b8ff" points="386.33,-271.68 393.67,-264.04 383.17,-265.44 386.33,-271.68"/>
</a>
</g>
</g>
<!-- Node7 -->
<g id="Node000007" class="node">
<title>Node7</title>
<g id="a_Node000007"><a xlink:href="kc_8cpp.html#af0e16ee0cbf76fe1a067c0f4132e8774" target="_top" xlink:title=" ">
<polygon fill="white" stroke="#666666" points="339,-245 259,-245 259,-226 339,-226 339,-245"/>
<text text-anchor="middle" x="299" y="-233" font-family="Helvetica" font-size="10.00">matrix_inverse</text>
</a>
</g>
</g>
<!-- Node1&#45;&gt;Node7 -->
<g id="edge6_Node000001_Node000007" class="edge">
<title>Node1&#45;&gt;Node7</title>
<g id="a_edge6_Node000001_Node000007"><a xlink:title=" ">
<path fill="none" stroke="#63b8ff" d="M370.76,-247.45C360.37,-245.7 349.26,-243.82 339.01,-242.09"/>
<polygon fill="#63b8ff" stroke="#63b8ff" points="370.42,-250.94 380.86,-249.16 371.59,-244.04 370.42,-250.94"/>
</a>
</g>
</g>
<!-- Node8 -->
<g id="Node000008" class="node">
<title>Node8</title>
<g id="a_Node000008"><a xlink:href="kc_8cpp.html#a0458e14ed6d01fb333ea0b2a06035d87" target="_top" xlink:title=" ">
<polygon fill="white" stroke="#666666" points="197.5,-264 135.5,-264 135.5,-245 197.5,-245 197.5,-264"/>
<text text-anchor="middle" x="166.5" y="-252" font-family="Helvetica" font-size="10.00">matrix_reg</text>
</a>
</g>
</g>
<!-- Node1&#45;&gt;Node8 -->
<g id="edge16_Node000001_Node000008" class="edge">
<title>Node1&#45;&gt;Node8</title>
<g id="a_edge16_Node000001_Node000008"><a xlink:title=" ">
<path fill="none" stroke="#63b8ff" d="M370.69,-254.5C321.56,-254.5 241.24,-254.5 197.75,-254.5"/>
<polygon fill="#63b8ff" stroke="#63b8ff" points="370.97,-258 380.97,-254.5 370.97,-251 370.97,-258"/>
</a>
</g>
</g>
<!-- Node9 -->
<g id="Node000009" class="node">
<title>Node9</title>
<g id="a_Node000009"><a xlink:href="kc_8cpp.html#a77077c3de17b2dd212a275a4e0ff1750" target="_top" xlink:title=" ">
<polygon fill="white" stroke="#666666" points="217,-207 116,-207 116,-188 217,-188 217,-207"/>
<text text-anchor="middle" x="166.5" y="-195" font-family="Helvetica" font-size="10.00">matrix_regCoefStat</text>
</a>
</g>
</g>
<!-- Node1&#45;&gt;Node9 -->
<g id="edge17_Node000001_Node000009" class="edge">
<title>Node1&#45;&gt;Node9</title>
<g id="a_edge17_Node000001_Node000009"><a xlink:title=" ">
<path fill="none" stroke="#63b8ff" d="M390.24,-239.41C377.53,-231.56 360.99,-222.57 345,-217.5 303.17,-204.25 253.35,-199.53 217.16,-197.97"/>
<polygon fill="#63b8ff" stroke="#63b8ff" points="388.44,-242.42 398.75,-244.86 392.21,-236.52 388.44,-242.42"/>
</a>
</g>
</g>
<!-- Node10 -->
<g id="Node000010" class="node">
<title>Node10</title>
<g id="a_Node000010"><a xlink:href="kc_8cpp.html#ad66fdb823fdc1c7260a0459c1912203f" target="_top" xlink:title=" ">
<polygon fill="white" stroke="#666666" points="215.5,-150 117.5,-150 117.5,-131 215.5,-131 215.5,-150"/>
<text text-anchor="middle" x="166.5" y="-138" font-family="Helvetica" font-size="10.00">matrix_regObsStat</text>
</a>
</g>
</g>
<!-- Node1&#45;&gt;Node10 -->
<g id="edge21_Node000001_Node000010" class="edge">
<title>Node1&#45;&gt;Node10</title>
<g id="a_edge21_Node000001_Node000010"><a xlink:title=" ">
<path fill="none" stroke="#63b8ff" d="M407.41,-235.23C399.24,-208.64 380.4,-161.72 345,-141.5 301.38,-116.59 241.35,-122.99 203.49,-130.94"/>
<polygon fill="#63b8ff" stroke="#63b8ff" points="404.08,-236.29 410.2,-244.93 410.81,-234.36 404.08,-236.29"/>
</a>
</g>
</g>
<!-- Node11 -->
<g id="Node000011" class="node">
<title>Node11</title>
<g id="a_Node000011"><a xlink:href="kc_8cpp.html#a81683e0787ad3491e6e65a83bf05124f" target="_top" xlink:title=" ">
<polygon fill="white" stroke="#666666" points="342,-56 256,-56 256,-37 342,-37 342,-56"/>
<text text-anchor="middle" x="299" y="-44" font-family="Helvetica" font-size="10.00">matrix_inverse2</text>
</a>
</g>
</g>
<!-- Node1&#45;&gt;Node11 -->
<g id="edge10_Node000001_Node000011" class="edge">
<title>Node1&#45;&gt;Node11</title>
<g id="a_edge10_Node000001_Node000011"><a xlink:title=" ">
<path fill="none" stroke="#63b8ff" d="M410.76,-234.51C406.42,-196.49 391.84,-113.21 345,-64.5 341.73,-61.1 337.74,-58.33 333.5,-56.07"/>
<polygon fill="#63b8ff" stroke="#63b8ff" points="407.31,-235.17 411.8,-244.77 414.27,-234.47 407.31,-235.17"/>
</a>
</g>
</g>
<!-- Node12 -->
<g id="Node000012" class="node">
<title>Node12</title>
<g id="a_Node000012"><a xlink:href="kc_8cpp.html#a32977ea97f5f917acfc83aec5817a0e0" target="_top" xlink:title=" ">
<polygon fill="white" stroke="#666666" points="344,-19 254,-19 254,0 344,0 344,-19"/>
<text text-anchor="middle" x="299" y="-7" font-family="Helvetica" font-size="10.00">matrix_pcaScore</text>
</a>
</g>
</g>
<!-- Node1&#45;&gt;Node12 -->
<g id="edge13_Node000001_Node000012" class="edge">
<title>Node1&#45;&gt;Node12</title>
<g id="a_edge13_Node000001_Node000012"><a xlink:title=" ">
<path fill="none" stroke="#63b8ff" d="M412.16,-234.87C410.37,-191.79 400.2,-88 345,-27.5 341.94,-24.14 338.16,-21.4 334.12,-19.17"/>
<polygon fill="#63b8ff" stroke="#63b8ff" points="408.66,-235 412.46,-244.89 415.66,-234.79 408.66,-235"/>
</a>
</g>
</g>
<!-- Node13 -->
<g id="Node000013" class="node">
<title>Node13</title>
<g id="a_Node000013"><a xlink:href="kc_8cpp.html#a00f5b59ec000eae7a009cd437008050d" target="_top" xlink:title=" ">
<polygon fill="white" stroke="#666666" points="342,-93 256,-93 256,-74 342,-74 342,-93"/>
<text text-anchor="middle" x="299" y="-81" font-family="Helvetica" font-size="10.00">matrix_product3</text>
</a>
</g>
</g>
<!-- Node1&#45;&gt;Node13 -->
<g id="edge14_Node000001_Node000013" class="edge">
<title>Node1&#45;&gt;Node13</title>
<g id="a_edge14_Node000001_Node000013"><a xlink:title=" ">
<path fill="none" stroke="#63b8ff" d="M407.82,-234.82C399.69,-204.25 380.33,-145 345,-107.5 339.41,-101.57 332.03,-96.8 324.86,-93.13"/>
<polygon fill="#63b8ff" stroke="#63b8ff" points="404.47,-235.85 410.32,-244.69 411.26,-234.13 404.47,-235.85"/>
</a>
</g>
</g>
<!-- Node14 -->
<g id="Node000014" class="node">
<title>Node14</title>
<g id="a_Node000014"><a xlink:href="kc_8cpp.html#ad57651ec26e71d842d15f65ae9484098" target="_top" xlink:title=" ">
<polygon fill="white" stroke="#666666" points="341,-169 257,-169 257,-150 341,-150 341,-169"/>
<text text-anchor="middle" x="299" y="-157" font-family="Helvetica" font-size="10.00">matrix_regMSE</text>
</a>
</g>
</g>
<!-- Node1&#45;&gt;Node14 -->
<g id="edge18_Node000001_Node000014" class="edge">
<title>Node1&#45;&gt;Node14</title>
<g id="a_edge18_Node000001_Node000014"><a xlink:title=" ">
<path fill="none" stroke="#63b8ff" d="M398.35,-236.66C385.55,-221.29 365.59,-199.17 345,-183.5 337.81,-178.03 329.21,-173.11 321.46,-169.17"/>
<polygon fill="#63b8ff" stroke="#63b8ff" points="395.98,-239.29 405.02,-244.83 401.41,-234.87 395.98,-239.29"/>
</a>
</g>
</g>
<!-- Node15 -->
<g id="Node000015" class="node">
<title>Node15</title>
<g id="a_Node000015"><a xlink:href="kc_8cpp.html#aa824316c0d7768e230ae809a3e679a66" target="_top" xlink:title=" ">
<polygon fill="white" stroke="#666666" points="337.5,-472 260.5,-472 260.5,-453 337.5,-453 337.5,-472"/>
<text text-anchor="middle" x="299" y="-460" font-family="Helvetica" font-size="10.00">matrix_stdCol</text>
</a>
</g>
</g>
<!-- Node1&#45;&gt;Node15 -->
<g id="edge22_Node000001_Node000015" class="edge">
<title>Node1&#45;&gt;Node15</title>
<g id="a_edge22_Node000001_Node000015"><a xlink:title=" ">
<path fill="none" stroke="#63b8ff" d="M409.93,-274.41C404.29,-310.94 387.73,-389.4 345,-438.5 339.77,-444.51 332.65,-449.26 325.63,-452.9"/>
<polygon fill="#63b8ff" stroke="#63b8ff" points="413.45,-274.51 411.4,-264.12 406.52,-273.52 413.45,-274.51"/>
</a>
</g>
</g>
<!-- Node2&#45;&gt;Node3 -->
<g id="edge2_Node000002_Node000003" class="edge">
<title>Node2&#45;&gt;Node3</title>
<g id="a_edge2_Node000002_Node000003"><a xlink:title=" ">
<path fill="none" stroke="#63b8ff" d="M124.43,-486.96C107.49,-481.8 88.18,-475.9 72.41,-471.09"/>
<polygon fill="#63b8ff" stroke="#63b8ff" points="123.5,-490.34 134.08,-489.91 125.54,-483.64 123.5,-490.34"/>
</a>
</g>
</g>
<!-- Node4&#45;&gt;Node5 -->
<g id="edge4_Node000004_Node000005" class="edge">
<title>Node4&#45;&gt;Node5</title>
<g id="a_edge4_Node000004_Node000005"><a xlink:title=" ">
<path fill="none" stroke="#63b8ff" d="M242.73,-356.55C231.19,-358.23 219.23,-359.97 208.33,-361.56"/>
<polygon fill="#63b8ff" stroke="#63b8ff" points="243.33,-360 252.72,-355.09 242.32,-353.07 243.33,-360"/>
</a>
</g>
</g>
<!-- Node7&#45;&gt;Node8 -->
<g id="edge7_Node000007_Node000008" class="edge">
<title>Node7&#45;&gt;Node8</title>
<g id="a_edge7_Node000007_Node000008"><a xlink:title=" ">
<path fill="none" stroke="#63b8ff" d="M248.49,-242.71C231.48,-245.18 212.95,-247.88 197.92,-250.07"/>
<polygon fill="#63b8ff" stroke="#63b8ff" points="249.45,-246.1 258.85,-241.2 248.45,-239.18 249.45,-246.1"/>
</a>
</g>
</g>
<!-- Node7&#45;&gt;Node9 -->
<g id="edge8_Node000007_Node000009" class="edge">
<title>Node7&#45;&gt;Node9</title>
<g id="a_edge8_Node000007_Node000009"><a xlink:title=" ">
<path fill="none" stroke="#63b8ff" d="M255.45,-223.11C237.58,-217.91 217.11,-211.95 200.42,-207.09"/>
<polygon fill="#63b8ff" stroke="#63b8ff" points="254.49,-226.48 265.07,-225.91 256.45,-219.75 254.49,-226.48"/>
</a>
</g>
</g>
<!-- Node7&#45;&gt;Node10 -->
<g id="edge9_Node000007_Node000010" class="edge">
<title>Node7&#45;&gt;Node10</title>
<g id="a_edge9_Node000007_Node000010"><a xlink:title=" ">
<path fill="none" stroke="#63b8ff" d="M276.4,-219.77C249.17,-199.95 203.2,-166.49 180.71,-150.11"/>
<polygon fill="#63b8ff" stroke="#63b8ff" points="274.38,-222.64 284.53,-225.69 278.5,-216.98 274.38,-222.64"/>
</a>
</g>
</g>
<!-- Node13&#45;&gt;Node10 -->
<g id="edge15_Node000013_Node000010" class="edge">
<title>Node13&#45;&gt;Node10</title>
<g id="a_edge15_Node000013_Node000010"><a xlink:title=" ">
<path fill="none" stroke="#63b8ff" d="M266.82,-97.12C242.95,-107.55 210.61,-121.67 189.41,-130.93"/>
<polygon fill="#63b8ff" stroke="#63b8ff" points="268.39,-100.25 276.16,-93.04 265.59,-93.84 268.39,-100.25"/>
</a>
</g>
</g>
<!-- Node14&#45;&gt;Node9 -->
<g id="edge19_Node000014_Node000009" class="edge">
<title>Node14&#45;&gt;Node9</title>
<g id="a_edge19_Node000014_Node000009"><a xlink:title=" ">
<path fill="none" stroke="#63b8ff" d="M255.45,-171.89C237.58,-177.09 217.11,-183.05 200.42,-187.91"/>
<polygon fill="#63b8ff" stroke="#63b8ff" points="256.45,-175.25 265.07,-169.09 254.49,-168.52 256.45,-175.25"/>
</a>
</g>
</g>
<!-- Node14&#45;&gt;Node10 -->
<g id="edge20_Node000014_Node000010" class="edge">
<title>Node14&#45;&gt;Node10</title>
<g id="a_edge20_Node000014_Node000010"><a xlink:title=" ">
<path fill="none" stroke="#63b8ff" d="M246.73,-152.04C236.55,-150.55 225.89,-149 215.82,-147.53"/>
<polygon fill="#63b8ff" stroke="#63b8ff" points="246.31,-155.51 256.71,-153.49 247.32,-148.58 246.31,-155.51"/>
</a>
</g>
</g>
<!-- Node15&#45;&gt;Node2 -->
<g id="edge23_Node000015_Node000002" class="edge">
<title>Node15&#45;&gt;Node2</title>
<g id="a_edge23_Node000015_Node000002"><a xlink:title=" ">
<path fill="none" stroke="#63b8ff" d="M254.53,-474.83C237.24,-479.73 217.66,-485.28 201.45,-489.88"/>
<polygon fill="#63b8ff" stroke="#63b8ff" points="255.73,-478.12 264.39,-472.03 253.82,-471.39 255.73,-478.12"/>
</a>
</g>
</g>
<!-- Node16 -->
<g id="Node000016" class="node">
<title>Node16</title>
<g id="a_Node000016"><a xlink:href="kc_8cpp.html#aa04426b6994cdcfbbf77c3bb77e7a021" target="_top" xlink:title=" ">
<polygon fill="white" stroke="#666666" points="216.5,-472 116.5,-472 116.5,-453 216.5,-453 216.5,-472"/>
<text text-anchor="middle" x="166.5" y="-460" font-family="Helvetica" font-size="10.00">matrix_pcaComVar</text>
</a>
</g>
</g>
<!-- Node15&#45;&gt;Node16 -->
<g id="edge24_Node000015_Node000016" class="edge">
<title>Node15&#45;&gt;Node16</title>
<g id="a_edge24_Node000015_Node000016"><a xlink:title=" ">
<path fill="none" stroke="#63b8ff" d="M250.11,-462.5C239.27,-462.5 227.73,-462.5 216.83,-462.5"/>
<polygon fill="#63b8ff" stroke="#63b8ff" points="250.25,-466 260.25,-462.5 250.25,-459 250.25,-466"/>
</a>
</g>
</g>
</g>
</svg>
