<?xml version="1.0" encoding="UTF-8" standalone="no"?>
<!DOCTYPE svg PUBLIC "-//W3C//DTD SVG 1.1//EN"
 "http://www.w3.org/Graphics/SVG/1.1/DTD/svg11.dtd">
<!-- Generated by graphviz version 2.44.0 (0)
 -->
<!-- Title: matrixi_new Pages: 1 -->
<svg width="207pt" height="138pt"
 viewBox="0.00 0.00 207.00 138.00" xmlns="http://www.w3.org/2000/svg" xmlns:xlink="http://www.w3.org/1999/xlink">
<g id="graph0" class="graph" transform="scale(1 1) rotate(0) translate(4 134)">
<title>matrixi_new</title>
<!-- Node1 -->
<g id="Node000001" class="node">
<title>Node1</title>
<g id="a_Node000001"><a xlink:title=" ">
<polygon fill="#999999" stroke="#666666" points="199,-74 130,-74 130,-55 199,-55 199,-74"/>
<text text-anchor="middle" x="164.5" y="-62" font-family="Helvetica" font-size="10.00">matrixi_new</text>
</a>
</g>
</g>
<!-- Node2 -->
<g id="Node000002" class="node">
<title>Node2</title>
<g id="a_Node000002"><a xlink:href="kc_8cpp.html#a601585a3e7b819a147843979d9e807b2" target="_top" xlink:title=" ">
<polygon fill="white" stroke="#666666" points="90,-130 4,-130 4,-111 90,-111 90,-130"/>
<text text-anchor="middle" x="47" y="-118" font-family="Helvetica" font-size="10.00">matrix_toMatrixi</text>
</a>
</g>
</g>
<!-- Node1&#45;&gt;Node2 -->
<g id="edge1_Node000001_Node000002" class="edge">
<title>Node1&#45;&gt;Node2</title>
<g id="a_edge1_Node000001_Node000002"><a xlink:title=" ">
<path fill="none" stroke="#63b8ff" d="M138.65,-79.09C125.57,-86.51 109.14,-95.43 94,-102.5 87.63,-105.47 80.62,-108.39 74.03,-110.98"/>
<polygon fill="#63b8ff" stroke="#63b8ff" points="140.58,-82.02 147.51,-74 137.1,-75.95 140.58,-82.02"/>
</a>
</g>
</g>
<!-- Node3 -->
<g id="Node000003" class="node">
<title>Node3</title>
<g id="a_Node000003"><a xlink:href="kc_8cpp.html#a3a2b7cc7f10f08176242f1d85983c3e9" target="_top" xlink:title=" ">
<polygon fill="white" stroke="#666666" points="83,-93 11,-93 11,-74 83,-74 83,-93"/>
<text text-anchor="middle" x="47" y="-81" font-family="Helvetica" font-size="10.00">matrixi_copy</text>
</a>
</g>
</g>
<!-- Node1&#45;&gt;Node3 -->
<g id="edge2_Node000001_Node000003" class="edge">
<title>Node1&#45;&gt;Node3</title>
<g id="a_edge2_Node000001_Node000003"><a xlink:title=" ">
<path fill="none" stroke="#63b8ff" d="M119.86,-71.68C107.74,-73.67 94.73,-75.81 83.17,-77.72"/>
<polygon fill="#63b8ff" stroke="#63b8ff" points="120.48,-75.12 129.78,-70.05 119.35,-68.22 120.48,-75.12"/>
</a>
</g>
</g>
<!-- Node4 -->
<g id="Node000004" class="node">
<title>Node4</title>
<g id="a_Node000004"><a xlink:href="kc_8cpp.html#a291c00821c2fba1622f7851ce6e38332" target="_top" xlink:title=" ">
<polygon fill="white" stroke="#666666" points="90,-56 4,-56 4,-37 90,-37 90,-56"/>
<text text-anchor="middle" x="47" y="-44" font-family="Helvetica" font-size="10.00">matrixi_newSeq</text>
</a>
</g>
</g>
<!-- Node1&#45;&gt;Node4 -->
<g id="edge3_Node000001_Node000004" class="edge">
<title>Node1&#45;&gt;Node4</title>
<g id="a_edge3_Node000001_Node000004"><a xlink:title=" ">
<path fill="none" stroke="#63b8ff" d="M119.9,-57.7C110.16,-56.19 99.86,-54.58 90.18,-53.07"/>
<polygon fill="#63b8ff" stroke="#63b8ff" points="119.36,-61.16 129.78,-59.25 120.44,-54.25 119.36,-61.16"/>
</a>
</g>
</g>
<!-- Node5 -->
<g id="Node000005" class="node">
<title>Node5</title>
<g id="a_Node000005"><a xlink:href="kc_8cpp.html#a1142f8e34ec4c4cee7c9a7a3b09e3863" target="_top" xlink:title=" ">
<polygon fill="white" stroke="#666666" points="94,-19 0,-19 0,0 94,0 94,-19"/>
<text text-anchor="middle" x="47" y="-7" font-family="Helvetica" font-size="10.00">matrixi_transpose</text>
</a>
</g>
</g>
<!-- Node1&#45;&gt;Node5 -->
<g id="edge4_Node000001_Node000005" class="edge">
<title>Node1&#45;&gt;Node5</title>
<g id="a_edge4_Node000001_Node000005"><a xlink:title=" ">
<path fill="none" stroke="#63b8ff" d="M136.82,-49.99C124,-43.2 108.34,-35.16 94,-28.5 87.1,-25.3 79.51,-22.05 72.52,-19.17"/>
<polygon fill="#63b8ff" stroke="#63b8ff" points="135.53,-53.27 146,-54.9 138.83,-47.1 135.53,-53.27"/>
</a>
</g>
</g>
</g>
</svg>
