<?xml version="1.0" encoding="UTF-8" standalone="no"?>
<!DOCTYPE svg PUBLIC "-//W3C//DTD SVG 1.1//EN"
 "http://www.w3.org/Graphics/SVG/1.1/DTD/svg11.dtd">
<!-- Generated by graphviz version 2.44.0 (0)
 -->
<!-- Title: reg_linear Pages: 1 -->
<svg width="302pt" height="64pt"
 viewBox="0.00 0.00 302.00 64.00" xmlns="http://www.w3.org/2000/svg" xmlns:xlink="http://www.w3.org/1999/xlink">
<g id="graph0" class="graph" transform="scale(1 1) rotate(0) translate(4 60)">
<title>reg_linear</title>
<!-- Node1 -->
<g id="Node000001" class="node">
<title>Node1</title>
<g id="a_Node000001"><a xlink:title=" ">
<polygon fill="#999999" stroke="#666666" points="59,-37 0,-37 0,-18 59,-18 59,-37"/>
<text text-anchor="middle" x="29.5" y="-25" font-family="Helvetica" font-size="10.00">reg_linear</text>
</a>
</g>
</g>
<!-- Node2 -->
<g id="Node000002" class="node">
<title>Node2</title>
<g id="a_Node000002"><a xlink:href="kc_8cpp.html#a44281fba5e514c76d3867c7cc899eb7c" target="_top" xlink:title=" ">
<polygon fill="white" stroke="#666666" points="133,-37 95,-37 95,-18 133,-18 133,-37"/>
<text text-anchor="middle" x="114" y="-25" font-family="Helvetica" font-size="10.00">cdf_f</text>
</a>
</g>
</g>
<!-- Node1&#45;&gt;Node2 -->
<g id="edge1_Node000001_Node000002" class="edge">
<title>Node1&#45;&gt;Node2</title>
<g id="a_edge1_Node000001_Node000002"><a xlink:title=" ">
<path fill="none" stroke="#63b8ff" d="M59.35,-27.5C67.5,-27.5 76.35,-27.5 84.47,-27.5"/>
<polygon fill="#63b8ff" stroke="#63b8ff" points="84.61,-31 94.61,-27.5 84.61,-24 84.61,-31"/>
</a>
</g>
</g>
<!-- Node3 -->
<g id="Node000003" class="node">
<title>Node3</title>
<g id="a_Node000003"><a xlink:href="kc_8cpp.html#aff974d448122c33ebffbaf2666c42092" target="_top" xlink:title=" ">
<polygon fill="white" stroke="#666666" points="207,-37 169,-37 169,-18 207,-18 207,-37"/>
<text text-anchor="middle" x="188" y="-25" font-family="Helvetica" font-size="10.00">betai</text>
</a>
</g>
</g>
<!-- Node2&#45;&gt;Node3 -->
<g id="edge2_Node000002_Node000003" class="edge">
<title>Node2&#45;&gt;Node3</title>
<g id="a_edge2_Node000002_Node000003"><a xlink:title=" ">
<path fill="none" stroke="#63b8ff" d="M133.17,-27.5C140.87,-27.5 150.03,-27.5 158.58,-27.5"/>
<polygon fill="#63b8ff" stroke="#63b8ff" points="158.59,-31 168.59,-27.5 158.59,-24 158.59,-31"/>
</a>
</g>
</g>
<!-- Node4 -->
<g id="Node000004" class="node">
<title>Node4</title>
<g id="a_Node000004"><a xlink:href="kc_8cpp.html#a1d6e649feccbc1d73424037ed02d7418" target="_top" xlink:title=" ">
<polygon fill="white" stroke="#666666" points="290.5,-56 246.5,-56 246.5,-37 290.5,-37 290.5,-56"/>
<text text-anchor="middle" x="268.5" y="-44" font-family="Helvetica" font-size="10.00">betacf</text>
</a>
</g>
</g>
<!-- Node3&#45;&gt;Node4 -->
<g id="edge3_Node000003_Node000004" class="edge">
<title>Node3&#45;&gt;Node4</title>
<g id="a_edge3_Node000003_Node000004"><a xlink:title=" ">
<path fill="none" stroke="#63b8ff" d="M207.21,-31.91C215.88,-34.01 226.5,-36.58 236.39,-38.97"/>
<polygon fill="#63b8ff" stroke="#63b8ff" points="235.79,-42.43 246.33,-41.38 237.44,-35.62 235.79,-42.43"/>
</a>
</g>
</g>
<!-- Node5 -->
<g id="Node000005" class="node">
<title>Node5</title>
<g id="a_Node000005"><a xlink:href="kc_8cpp.html#a69cc1b545a83a4d9f187e131500aee45" target="_top" xlink:title=" ">
<polygon fill="white" stroke="#666666" points="294,-19 243,-19 243,0 294,0 294,-19"/>
<text text-anchor="middle" x="268.5" y="-7" font-family="Helvetica" font-size="10.00">gammln</text>
</a>
</g>
</g>
<!-- Node3&#45;&gt;Node5 -->
<g id="edge4_Node000003_Node000005" class="edge">
<title>Node3&#45;&gt;Node5</title>
<g id="a_edge4_Node000003_Node000005"><a xlink:title=" ">
<path fill="none" stroke="#63b8ff" d="M207.21,-23.33C214.91,-21.56 224.14,-19.44 233.04,-17.4"/>
<polygon fill="#63b8ff" stroke="#63b8ff" points="233.89,-20.8 242.85,-15.15 232.32,-13.98 233.89,-20.8"/>
</a>
</g>
</g>
</g>
</svg>
