<?xml version="1.0" encoding="UTF-8" standalone="no"?>
<!DOCTYPE svg PUBLIC "-//W3C//DTD SVG 1.1//EN"
 "http://www.w3.org/Graphics/SVG/1.1/DTD/svg11.dtd">
<!-- Generated by graphviz version 2.44.0 (0)
 -->
<!-- Title: chi2test Pages: 1 -->
<svg width="391pt" height="64pt"
 viewBox="0.00 0.00 391.00 64.00" xmlns="http://www.w3.org/2000/svg" xmlns:xlink="http://www.w3.org/1999/xlink">
<g id="graph0" class="graph" transform="scale(1 1) rotate(0) translate(4 60)">
<title>chi2test</title>
<!-- Node1 -->
<g id="Node000001" class="node">
<title>Node1</title>
<g id="a_Node000001"><a xlink:title=" ">
<polygon fill="#999999" stroke="#666666" points="51,-37 0,-37 0,-18 51,-18 51,-37"/>
<text text-anchor="middle" x="25.5" y="-25" font-family="Helvetica" font-size="10.00">chi2test</text>
</a>
</g>
</g>
<!-- Node2 -->
<g id="Node000002" class="node">
<title>Node2</title>
<g id="a_Node000002"><a xlink:href="kc_8cpp.html#ab600bf758ebb6d37ebd914533e27691d" target="_top" xlink:title=" ">
<polygon fill="white" stroke="#666666" points="140,-37 87,-37 87,-18 140,-18 140,-37"/>
<text text-anchor="middle" x="113.5" y="-25" font-family="Helvetica" font-size="10.00">cdf_chi2</text>
</a>
</g>
</g>
<!-- Node1&#45;&gt;Node2 -->
<g id="edge1_Node000001_Node000002" class="edge">
<title>Node1&#45;&gt;Node2</title>
<g id="a_edge1_Node000001_Node000002"><a xlink:title=" ">
<path fill="none" stroke="#63b8ff" d="M51.37,-27.5C59.27,-27.5 68.17,-27.5 76.69,-27.5"/>
<polygon fill="#63b8ff" stroke="#63b8ff" points="76.78,-31 86.78,-27.5 76.78,-24 76.78,-31"/>
</a>
</g>
</g>
<!-- Node3 -->
<g id="Node000003" class="node">
<title>Node3</title>
<g id="a_Node000003"><a xlink:href="kc_8cpp.html#aa1745417f9696825bc7cc68538800b5b" target="_top" xlink:title=" ">
<polygon fill="white" stroke="#666666" points="225,-37 176,-37 176,-18 225,-18 225,-37"/>
<text text-anchor="middle" x="200.5" y="-25" font-family="Helvetica" font-size="10.00">gammp</text>
</a>
</g>
</g>
<!-- Node2&#45;&gt;Node3 -->
<g id="edge2_Node000002_Node000003" class="edge">
<title>Node2&#45;&gt;Node3</title>
<g id="a_edge2_Node000002_Node000003"><a xlink:title=" ">
<path fill="none" stroke="#63b8ff" d="M140,-27.5C148.07,-27.5 157.11,-27.5 165.67,-27.5"/>
<polygon fill="#63b8ff" stroke="#63b8ff" points="165.76,-31 175.76,-27.5 165.76,-24 165.76,-31"/>
</a>
</g>
</g>
<!-- Node4 -->
<g id="Node000004" class="node">
<title>Node4</title>
<g id="a_Node000004"><a xlink:href="kc_8cpp.html#a5b446e3e8ec13c8e2383ac156f0cf77f" target="_top" xlink:title=" ">
<polygon fill="white" stroke="#666666" points="293.5,-56 263.5,-56 263.5,-37 293.5,-37 293.5,-56"/>
<text text-anchor="middle" x="278.5" y="-44" font-family="Helvetica" font-size="10.00">gcf</text>
</a>
</g>
</g>
<!-- Node3&#45;&gt;Node4 -->
<g id="edge3_Node000003_Node000004" class="edge">
<title>Node3&#45;&gt;Node4</title>
<g id="a_edge3_Node000003_Node000004"><a xlink:title=" ">
<path fill="none" stroke="#63b8ff" d="M225.13,-33.41C234.15,-35.66 244.44,-38.23 253.49,-40.5"/>
<polygon fill="#63b8ff" stroke="#63b8ff" points="252.85,-43.95 263.41,-42.98 254.55,-37.16 252.85,-43.95"/>
</a>
</g>
</g>
<!-- Node6 -->
<g id="Node000006" class="node">
<title>Node6</title>
<g id="a_Node000006"><a xlink:href="kc_8cpp.html#a5277079b0c65d166db9553deb8a92de2" target="_top" xlink:title=" ">
<polygon fill="white" stroke="#666666" points="296,-19 261,-19 261,0 296,0 296,-19"/>
<text text-anchor="middle" x="278.5" y="-7" font-family="Helvetica" font-size="10.00">gser</text>
</a>
</g>
</g>
<!-- Node3&#45;&gt;Node6 -->
<g id="edge5_Node000003_Node000006" class="edge">
<title>Node3&#45;&gt;Node6</title>
<g id="a_edge5_Node000003_Node000006"><a xlink:title=" ">
<path fill="none" stroke="#63b8ff" d="M225.13,-21.9C233.22,-19.99 242.33,-17.83 250.65,-15.86"/>
<polygon fill="#63b8ff" stroke="#63b8ff" points="251.71,-19.2 260.64,-13.49 250.1,-12.39 251.71,-19.2"/>
</a>
</g>
</g>
<!-- Node5 -->
<g id="Node000005" class="node">
<title>Node5</title>
<g id="a_Node000005"><a xlink:href="kc_8cpp.html#a69cc1b545a83a4d9f187e131500aee45" target="_top" xlink:title=" ">
<polygon fill="white" stroke="#666666" points="383,-37 332,-37 332,-18 383,-18 383,-37"/>
<text text-anchor="middle" x="357.5" y="-25" font-family="Helvetica" font-size="10.00">gammln</text>
</a>
</g>
</g>
<!-- Node4&#45;&gt;Node5 -->
<g id="edge4_Node000004_Node000005" class="edge">
<title>Node4&#45;&gt;Node5</title>
<g id="a_edge4_Node000004_Node000005"><a xlink:title=" ">
<path fill="none" stroke="#63b8ff" d="M293.62,-43.02C301.63,-41.04 312.04,-38.47 322.07,-36"/>
<polygon fill="#63b8ff" stroke="#63b8ff" points="323,-39.37 331.87,-33.58 321.32,-32.58 323,-39.37"/>
</a>
</g>
</g>
<!-- Node6&#45;&gt;Node5 -->
<g id="edge6_Node000006_Node000005" class="edge">
<title>Node6&#45;&gt;Node5</title>
<g id="a_edge6_Node000006_Node000005"><a xlink:title=" ">
<path fill="none" stroke="#63b8ff" d="M296.21,-13.41C303.79,-15.18 313.06,-17.34 322.03,-19.44"/>
<polygon fill="#63b8ff" stroke="#63b8ff" points="321.39,-22.89 331.93,-21.76 322.99,-16.07 321.39,-22.89"/>
</a>
</g>
</g>
</g>
</svg>
