<?xml version="1.0" encoding="UTF-8" standalone="no"?>
<!DOCTYPE svg PUBLIC "-//W3C//DTD SVG 1.1//EN"
 "http://www.w3.org/Graphics/SVG/1.1/DTD/svg11.dtd">
<!-- Generated by graphviz version 2.44.0 (0)
 -->
<!-- Title: avevar Pages: 1 -->
<svg width="542pt" height="251pt"
 viewBox="0.00 0.00 542.00 251.00" xmlns="http://www.w3.org/2000/svg" xmlns:xlink="http://www.w3.org/1999/xlink">
<g id="graph0" class="graph" transform="scale(1 1) rotate(0) translate(4 247)">
<title>avevar</title>
<!-- Node1 -->
<g id="Node000001" class="node">
<title>Node1</title>
<g id="a_Node000001"><a xlink:title=" ">
<polygon fill="#999999" stroke="#666666" points="534,-130 490,-130 490,-111 534,-111 534,-130"/>
<text text-anchor="middle" x="512" y="-118" font-family="Helvetica" font-size="10.00">avevar</text>
</a>
</g>
</g>
<!-- Node2 -->
<g id="Node000002" class="node">
<title>Node2</title>
<g id="a_Node000002"><a xlink:href="kc_8cpp.html#aeb063515d33aaf1d9131611c38b21fa4" target="_top" xlink:title=" ">
<polygon fill="white" stroke="#666666" points="427.5,-243 391.5,-243 391.5,-224 427.5,-224 427.5,-243"/>
<text text-anchor="middle" x="409.5" y="-231" font-family="Helvetica" font-size="10.00">ftest</text>
</a>
</g>
</g>
<!-- Node1&#45;&gt;Node2 -->
<g id="edge1_Node000001_Node000002" class="edge">
<title>Node1&#45;&gt;Node2</title>
<g id="a_edge1_Node000001_Node000002"><a xlink:title=" ">
<path fill="none" stroke="#63b8ff" d="M502.48,-139.23C492.89,-158.7 475.78,-189.1 454,-209.5 446.45,-216.58 436.42,-222.29 427.89,-226.37"/>
<polygon fill="#63b8ff" stroke="#63b8ff" points="505.66,-140.7 506.79,-130.17 499.34,-137.7 505.66,-140.7"/>
</a>
</g>
</g>
<!-- Node3 -->
<g id="Node000003" class="node">
<title>Node3</title>
<g id="a_Node000003"><a xlink:href="kc_8cpp.html#ad5ea42776f7ed1dcb54d04db645487c3" target="_top" xlink:title=" ">
<polygon fill="white" stroke="#666666" points="328.5,-195 252.5,-195 252.5,-176 328.5,-176 328.5,-195"/>
<text text-anchor="middle" x="290.5" y="-183" font-family="Helvetica" font-size="10.00">matrix_colVar</text>
</a>
</g>
</g>
<!-- Node1&#45;&gt;Node3 -->
<g id="edge2_Node000001_Node000003" class="edge">
<title>Node1&#45;&gt;Node3</title>
<g id="a_edge2_Node000001_Node000003"><a xlink:title=" ">
<path fill="none" stroke="#63b8ff" d="M498.44,-138.47C488.16,-151.57 472.35,-168.39 454,-176.5 413.94,-194.2 362.82,-193.76 328.72,-190.67"/>
<polygon fill="#63b8ff" stroke="#63b8ff" points="501.47,-140.26 504.64,-130.15 495.86,-136.08 501.47,-140.26"/>
</a>
</g>
</g>
<!-- Node5 -->
<g id="Node000005" class="node">
<title>Node5</title>
<g id="a_Node000005"><a xlink:href="kc_8cpp.html#a92e391e59a08cba2c92774a03b97f038" target="_top" xlink:title=" ">
<polygon fill="white" stroke="#666666" points="449,-167 370,-167 370,-148 449,-148 449,-167"/>
<text text-anchor="middle" x="409.5" y="-155" font-family="Helvetica" font-size="10.00">matrix_rowVar</text>
</a>
</g>
</g>
<!-- Node1&#45;&gt;Node5 -->
<g id="edge4_Node000001_Node000005" class="edge">
<title>Node1&#45;&gt;Node5</title>
<g id="a_edge4_Node000001_Node000005"><a xlink:title=" ">
<path fill="none" stroke="#63b8ff" d="M480.01,-131.91C466.04,-137.05 449.73,-143.06 436.42,-147.96"/>
<polygon fill="#63b8ff" stroke="#63b8ff" points="481.51,-135.09 489.69,-128.35 479.09,-128.52 481.51,-135.09"/>
</a>
</g>
</g>
<!-- Node6 -->
<g id="Node000006" class="node">
<title>Node6</title>
<g id="a_Node000006"><a xlink:href="kc_8cpp.html#a1e079ca755a3861bccd94f64677e1d54" target="_top" xlink:title=" ">
<polygon fill="white" stroke="#666666" points="451,-130 368,-130 368,-111 451,-111 451,-130"/>
<text text-anchor="middle" x="409.5" y="-118" font-family="Helvetica" font-size="10.00">matrix_stdRow</text>
</a>
</g>
</g>
<!-- Node1&#45;&gt;Node6 -->
<g id="edge5_Node000001_Node000006" class="edge">
<title>Node1&#45;&gt;Node6</title>
<g id="a_edge5_Node000001_Node000006"><a xlink:title=" ">
<path fill="none" stroke="#63b8ff" d="M479.65,-120.5C470.66,-120.5 460.73,-120.5 451.26,-120.5"/>
<polygon fill="#63b8ff" stroke="#63b8ff" points="479.69,-124 489.69,-120.5 479.69,-117 479.69,-124"/>
</a>
</g>
</g>
<!-- Node10 -->
<g id="Node000010" class="node">
<title>Node10</title>
<g id="a_Node000010"><a xlink:href="kc_8cpp.html#a9e38b2816c8d12a153ea2a22d1241ba2" target="_top" xlink:title=" ">
<polygon fill="white" stroke="#666666" points="435.5,-93 383.5,-93 383.5,-74 435.5,-74 435.5,-93"/>
<text text-anchor="middle" x="409.5" y="-81" font-family="Helvetica" font-size="10.00">ttest_ev</text>
</a>
</g>
</g>
<!-- Node1&#45;&gt;Node10 -->
<g id="edge10_Node000001_Node000010" class="edge">
<title>Node1&#45;&gt;Node10</title>
<g id="a_edge10_Node000001_Node000010"><a xlink:title=" ">
<path fill="none" stroke="#63b8ff" d="M480.27,-109.19C465.98,-103.93 449.21,-97.75 435.69,-92.77"/>
<polygon fill="#63b8ff" stroke="#63b8ff" points="479.09,-112.48 489.69,-112.65 481.51,-105.91 479.09,-112.48"/>
</a>
</g>
</g>
<!-- Node11 -->
<g id="Node000011" class="node">
<title>Node11</title>
<g id="a_Node000011"><a xlink:href="kc_8cpp.html#a74f76187c76268c668bfe62efddb21d3" target="_top" xlink:title=" ">
<polygon fill="white" stroke="#666666" points="454,-56 365,-56 365,-37 454,-37 454,-56"/>
<text text-anchor="middle" x="409.5" y="-44" font-family="Helvetica" font-size="10.00">ttest_onesample</text>
</a>
</g>
</g>
<!-- Node1&#45;&gt;Node11 -->
<g id="edge11_Node000001_Node000011" class="edge">
<title>Node1&#45;&gt;Node11</title>
<g id="a_edge11_Node000001_Node000011"><a xlink:title=" ">
<path fill="none" stroke="#63b8ff" d="M496.42,-102.96C485.67,-90.9 470.17,-75.2 454,-64.5 449.23,-61.34 443.81,-58.57 438.46,-56.2"/>
<polygon fill="#63b8ff" stroke="#63b8ff" points="493.85,-105.35 503.04,-110.62 499.15,-100.77 493.85,-105.35"/>
</a>
</g>
</g>
<!-- Node12 -->
<g id="Node000012" class="node">
<title>Node12</title>
<g id="a_Node000012"><a xlink:href="kc_8cpp.html#a99f03c3631c210c7091d184e108d57a5" target="_top" xlink:title=" ">
<polygon fill="white" stroke="#666666" points="438,-19 381,-19 381,0 438,0 438,-19"/>
<text text-anchor="middle" x="409.5" y="-7" font-family="Helvetica" font-size="10.00">ttest_uev</text>
</a>
</g>
</g>
<!-- Node1&#45;&gt;Node12 -->
<g id="edge12_Node000001_Node000012" class="edge">
<title>Node1&#45;&gt;Node12</title>
<g id="a_edge12_Node000001_Node000012"><a xlink:title=" ">
<path fill="none" stroke="#63b8ff" d="M503.68,-101.65C494.77,-80.94 477.9,-47.91 454,-27.5 449.4,-23.57 443.82,-20.41 438.22,-17.9"/>
<polygon fill="#63b8ff" stroke="#63b8ff" points="500.47,-103.05 507.51,-110.97 506.94,-100.39 500.47,-103.05"/>
</a>
</g>
</g>
<!-- Node4 -->
<g id="Node000004" class="node">
<title>Node4</title>
<g id="a_Node000004"><a xlink:href="kc_8cpp.html#aa04426b6994cdcfbbf77c3bb77e7a021" target="_top" xlink:title=" ">
<polygon fill="white" stroke="#666666" points="216,-186 116,-186 116,-167 216,-167 216,-186"/>
<text text-anchor="middle" x="166" y="-174" font-family="Helvetica" font-size="10.00">matrix_pcaComVar</text>
</a>
</g>
</g>
<!-- Node3&#45;&gt;Node4 -->
<g id="edge3_Node000003_Node000004" class="edge">
<title>Node3&#45;&gt;Node4</title>
<g id="a_edge3_Node000003_Node000004"><a xlink:title=" ">
<path fill="none" stroke="#63b8ff" d="M242.23,-182.03C233.69,-181.4 224.77,-180.74 216.18,-180.11"/>
<polygon fill="#63b8ff" stroke="#63b8ff" points="242.18,-185.53 252.41,-182.78 242.7,-178.55 242.18,-185.53"/>
</a>
</g>
</g>
<!-- Node7 -->
<g id="Node000007" class="node">
<title>Node7</title>
<g id="a_Node000007"><a xlink:href="kc_8cpp.html#aa824316c0d7768e230ae809a3e679a66" target="_top" xlink:title=" ">
<polygon fill="white" stroke="#666666" points="329,-149 252,-149 252,-130 329,-130 329,-149"/>
<text text-anchor="middle" x="290.5" y="-137" font-family="Helvetica" font-size="10.00">matrix_stdCol</text>
</a>
</g>
</g>
<!-- Node6&#45;&gt;Node7 -->
<g id="edge6_Node000006_Node000007" class="edge">
<title>Node6&#45;&gt;Node7</title>
<g id="a_edge6_Node000006_Node000007"><a xlink:title=" ">
<path fill="none" stroke="#63b8ff" d="M358.01,-128.7C348.37,-130.26 338.43,-131.88 329.27,-133.37"/>
<polygon fill="#63b8ff" stroke="#63b8ff" points="358.6,-132.15 367.91,-127.09 357.48,-125.24 358.6,-132.15"/>
</a>
</g>
</g>
<!-- Node7&#45;&gt;Node4 -->
<g id="edge9_Node000007_Node000004" class="edge">
<title>Node7&#45;&gt;Node4</title>
<g id="a_edge9_Node000007_Node000004"><a xlink:title=" ">
<path fill="none" stroke="#63b8ff" d="M248.24,-151.96C232.12,-156.83 213.94,-162.32 198.87,-166.88"/>
<polygon fill="#63b8ff" stroke="#63b8ff" points="249.39,-155.27 257.95,-149.03 247.37,-148.57 249.39,-155.27"/>
</a>
</g>
</g>
<!-- Node8 -->
<g id="Node000008" class="node">
<title>Node8</title>
<g id="a_Node000008"><a xlink:href="kc_8cpp.html#a673ed8b4d0eee5e7e60df48435e0d8ba" target="_top" xlink:title=" ">
<polygon fill="white" stroke="#666666" points="210.5,-149 121.5,-149 121.5,-130 210.5,-130 210.5,-149"/>
<text text-anchor="middle" x="166" y="-137" font-family="Helvetica" font-size="10.00">matrix_corMatrix</text>
</a>
</g>
</g>
<!-- Node7&#45;&gt;Node8 -->
<g id="edge7_Node000007_Node000008" class="edge">
<title>Node7&#45;&gt;Node8</title>
<g id="a_edge7_Node000007_Node000008"><a xlink:title=" ">
<path fill="none" stroke="#63b8ff" d="M241.46,-139.5C231.37,-139.5 220.78,-139.5 210.85,-139.5"/>
<polygon fill="#63b8ff" stroke="#63b8ff" points="241.75,-143 251.75,-139.5 241.75,-136 241.75,-143"/>
</a>
</g>
</g>
<!-- Node9 -->
<g id="Node000009" class="node">
<title>Node9</title>
<g id="a_Node000009"><a xlink:href="kc_8cpp.html#a165e97bd10a48d3c5da908938468212b" target="_top" xlink:title=" ">
<polygon fill="white" stroke="#666666" points="80,-149 0,-149 0,-130 80,-130 80,-149"/>
<text text-anchor="middle" x="40" y="-137" font-family="Helvetica" font-size="10.00">matrix_pcaCor</text>
</a>
</g>
</g>
<!-- Node8&#45;&gt;Node9 -->
<g id="edge8_Node000008_Node000009" class="edge">
<title>Node8&#45;&gt;Node9</title>
<g id="a_edge8_Node000008_Node000009"><a xlink:title=" ">
<path fill="none" stroke="#63b8ff" d="M111.05,-139.5C100.67,-139.5 89.99,-139.5 80.19,-139.5"/>
<polygon fill="#63b8ff" stroke="#63b8ff" points="111.28,-143 121.28,-139.5 111.28,-136 111.28,-143"/>
</a>
</g>
</g>
</g>
</svg>
