<?xml version="1.0" encoding="UTF-8" standalone="no"?>
<!DOCTYPE svg PUBLIC "-//W3C//DTD SVG 1.1//EN"
 "http://www.w3.org/Graphics/SVG/1.1/DTD/svg11.dtd">
<!-- Generated by graphviz version 2.44.0 (0)
 -->
<!-- Title: cdf_poisson_inc Pages: 1 -->
<svg width="469pt" height="101pt"
 viewBox="0.00 0.00 469.00 101.00" xmlns="http://www.w3.org/2000/svg" xmlns:xlink="http://www.w3.org/1999/xlink">
<g id="graph0" class="graph" transform="scale(1 1) rotate(0) translate(4 97)">
<title>cdf_poisson_inc</title>
<!-- Node1 -->
<g id="Node000001" class="node">
<title>Node1</title>
<g id="a_Node000001"><a xlink:title=" ">
<polygon fill="#999999" stroke="#666666" points="87,-73 0,-73 0,-54 87,-54 87,-73"/>
<text text-anchor="middle" x="43.5" y="-61" font-family="Helvetica" font-size="10.00">cdf_poisson_inc</text>
</a>
</g>
</g>
<!-- Node2 -->
<g id="Node000002" class="node">
<title>Node2</title>
<g id="a_Node000002"><a xlink:href="kc_8cpp.html#a1f7aff47eacc48937a5dd3ae419c6066" target="_top" xlink:title=" ">
<polygon fill="white" stroke="#666666" points="192,-55 123,-55 123,-36 192,-36 192,-55"/>
<text text-anchor="middle" x="157.5" y="-43" font-family="Helvetica" font-size="10.00">cdf_poisson</text>
</a>
</g>
</g>
<!-- Node1&#45;&gt;Node2 -->
<g id="edge1_Node000001_Node000002" class="edge">
<title>Node1&#45;&gt;Node2</title>
<g id="a_edge1_Node000001_Node000002"><a xlink:title=" ">
<path fill="none" stroke="#63b8ff" d="M87.16,-56.64C95.51,-55.3 104.28,-53.89 112.67,-52.54"/>
<polygon fill="#63b8ff" stroke="#63b8ff" points="113.34,-55.98 122.66,-50.94 112.23,-49.07 113.34,-55.98"/>
</a>
</g>
</g>
<!-- Node9 -->
<g id="Node000009" class="node">
<title>Node9</title>
<g id="a_Node000009"><a xlink:href="kc_8cpp.html#ad402504da1d8913d034b6db754886e90" target="_top" xlink:title=" ">
<polygon fill="white" stroke="#666666" points="192,-92 123,-92 123,-73 192,-73 192,-92"/>
<text text-anchor="middle" x="157.5" y="-80" font-family="Helvetica" font-size="10.00">pdf_poisson</text>
</a>
</g>
</g>
<!-- Node1&#45;&gt;Node9 -->
<g id="edge10_Node000001_Node000009" class="edge">
<title>Node1&#45;&gt;Node9</title>
<g id="a_edge10_Node000001_Node000009"><a xlink:title=" ">
<path fill="none" stroke="#63b8ff" d="M87.16,-70.74C95.51,-72.15 104.28,-73.64 112.67,-75.06"/>
<polygon fill="#63b8ff" stroke="#63b8ff" points="112.21,-78.54 122.66,-76.76 113.38,-71.64 112.21,-78.54"/>
</a>
</g>
</g>
<!-- Node3 -->
<g id="Node000003" class="node">
<title>Node3</title>
<g id="a_Node000003"><a xlink:href="kc_8cpp.html#a20614b0260f5c699044c6514b6479e34" target="_top" xlink:title=" ">
<polygon fill="white" stroke="#666666" points="279,-74 228,-74 228,-55 279,-55 279,-74"/>
<text text-anchor="middle" x="253.5" y="-62" font-family="Helvetica" font-size="10.00">factorial</text>
</a>
</g>
</g>
<!-- Node2&#45;&gt;Node3 -->
<g id="edge2_Node000002_Node000003" class="edge">
<title>Node2&#45;&gt;Node3</title>
<g id="a_edge2_Node000002_Node000003"><a xlink:title=" ">
<path fill="none" stroke="#63b8ff" d="M192.17,-52.31C200.56,-54 209.57,-55.82 218,-57.53"/>
<polygon fill="#63b8ff" stroke="#63b8ff" points="217.41,-60.98 227.91,-59.53 218.8,-54.12 217.41,-60.98"/>
</a>
</g>
</g>
<!-- Node6 -->
<g id="Node000006" class="node">
<title>Node6</title>
<g id="a_Node000006"><a xlink:href="kc_8cpp.html#aa1745417f9696825bc7cc68538800b5b" target="_top" xlink:title=" ">
<polygon fill="white" stroke="#666666" points="278,-37 229,-37 229,-18 278,-18 278,-37"/>
<text text-anchor="middle" x="253.5" y="-25" font-family="Helvetica" font-size="10.00">gammp</text>
</a>
</g>
</g>
<!-- Node2&#45;&gt;Node6 -->
<g id="edge5_Node000002_Node000006" class="edge">
<title>Node2&#45;&gt;Node6</title>
<g id="a_edge5_Node000002_Node000006"><a xlink:title=" ">
<path fill="none" stroke="#63b8ff" d="M192.17,-39.05C200.88,-37.38 210.25,-35.59 218.96,-33.92"/>
<polygon fill="#63b8ff" stroke="#63b8ff" points="219.62,-37.36 228.78,-32.04 218.3,-30.48 219.62,-37.36"/>
</a>
</g>
</g>
<!-- Node4 -->
<g id="Node000004" class="node">
<title>Node4</title>
<g id="a_Node000004"><a xlink:href="kc_8cpp.html#a1b8ed1e5e0530035c186d182ebe747b3" target="_top" xlink:title=" ">
<polygon fill="white" stroke="#666666" points="374,-93 315,-93 315,-74 374,-74 374,-93"/>
<text text-anchor="middle" x="344.5" y="-81" font-family="Helvetica" font-size="10.00">lnfactorial</text>
</a>
</g>
</g>
<!-- Node3&#45;&gt;Node4 -->
<g id="edge3_Node000003_Node000004" class="edge">
<title>Node3&#45;&gt;Node4</title>
<g id="a_edge3_Node000003_Node000004"><a xlink:title=" ">
<path fill="none" stroke="#63b8ff" d="M279.29,-69.79C287.2,-71.48 296.16,-73.39 304.81,-75.24"/>
<polygon fill="#63b8ff" stroke="#63b8ff" points="304.24,-78.7 314.75,-77.36 305.7,-71.85 304.24,-78.7"/>
</a>
</g>
</g>
<!-- Node5 -->
<g id="Node000005" class="node">
<title>Node5</title>
<g id="a_Node000005"><a xlink:href="kc_8cpp.html#a69cc1b545a83a4d9f187e131500aee45" target="_top" xlink:title=" ">
<polygon fill="white" stroke="#666666" points="461,-56 410,-56 410,-37 461,-37 461,-56"/>
<text text-anchor="middle" x="435.5" y="-44" font-family="Helvetica" font-size="10.00">gammln</text>
</a>
</g>
</g>
<!-- Node4&#45;&gt;Node5 -->
<g id="edge4_Node000004_Node000005" class="edge">
<title>Node4&#45;&gt;Node5</title>
<g id="a_edge4_Node000004_Node000005"><a xlink:title=" ">
<path fill="none" stroke="#63b8ff" d="M368.42,-73.97C378.62,-69.73 390.81,-64.66 401.93,-60.04"/>
<polygon fill="#63b8ff" stroke="#63b8ff" points="403.46,-63.2 411.35,-56.12 400.77,-56.73 403.46,-63.2"/>
</a>
</g>
</g>
<!-- Node7 -->
<g id="Node000007" class="node">
<title>Node7</title>
<g id="a_Node000007"><a xlink:href="kc_8cpp.html#a5b446e3e8ec13c8e2383ac156f0cf77f" target="_top" xlink:title=" ">
<polygon fill="white" stroke="#666666" points="359.5,-56 329.5,-56 329.5,-37 359.5,-37 359.5,-56"/>
<text text-anchor="middle" x="344.5" y="-44" font-family="Helvetica" font-size="10.00">gcf</text>
</a>
</g>
</g>
<!-- Node6&#45;&gt;Node7 -->
<g id="edge6_Node000006_Node000007" class="edge">
<title>Node6&#45;&gt;Node7</title>
<g id="a_edge6_Node000006_Node000007"><a xlink:title=" ">
<path fill="none" stroke="#63b8ff" d="M278.35,-32.59C291.06,-35.31 306.66,-38.64 319.41,-41.36"/>
<polygon fill="#63b8ff" stroke="#63b8ff" points="318.81,-44.81 329.32,-43.47 320.27,-37.96 318.81,-44.81"/>
</a>
</g>
</g>
<!-- Node8 -->
<g id="Node000008" class="node">
<title>Node8</title>
<g id="a_Node000008"><a xlink:href="kc_8cpp.html#a5277079b0c65d166db9553deb8a92de2" target="_top" xlink:title=" ">
<polygon fill="white" stroke="#666666" points="362,-19 327,-19 327,0 362,0 362,-19"/>
<text text-anchor="middle" x="344.5" y="-7" font-family="Helvetica" font-size="10.00">gser</text>
</a>
</g>
</g>
<!-- Node6&#45;&gt;Node8 -->
<g id="edge8_Node000006_Node000008" class="edge">
<title>Node6&#45;&gt;Node8</title>
<g id="a_edge8_Node000006_Node000008"><a xlink:title=" ">
<path fill="none" stroke="#63b8ff" d="M278.35,-22.68C290.22,-20.28 304.6,-17.37 316.83,-14.89"/>
<polygon fill="#63b8ff" stroke="#63b8ff" points="317.8,-18.27 326.91,-12.85 316.42,-11.41 317.8,-18.27"/>
</a>
</g>
</g>
<!-- Node7&#45;&gt;Node5 -->
<g id="edge7_Node000007_Node000005" class="edge">
<title>Node7&#45;&gt;Node5</title>
<g id="a_edge7_Node000007_Node000005"><a xlink:title=" ">
<path fill="none" stroke="#63b8ff" d="M359.8,-46.5C370.53,-46.5 385.69,-46.5 399.56,-46.5"/>
<polygon fill="#63b8ff" stroke="#63b8ff" points="399.81,-50 409.81,-46.5 399.81,-43 399.81,-50"/>
</a>
</g>
</g>
<!-- Node8&#45;&gt;Node5 -->
<g id="edge9_Node000008_Node000005" class="edge">
<title>Node8&#45;&gt;Node5</title>
<g id="a_edge9_Node000008_Node000005"><a xlink:title=" ">
<path fill="none" stroke="#63b8ff" d="M362.24,-16.46C373.42,-21.11 388.5,-27.38 401.99,-32.98"/>
<polygon fill="#63b8ff" stroke="#63b8ff" points="400.88,-36.31 411.45,-36.92 403.56,-29.85 400.88,-36.31"/>
</a>
</g>
</g>
<!-- Node9&#45;&gt;Node3 -->
<g id="edge11_Node000009_Node000003" class="edge">
<title>Node9&#45;&gt;Node3</title>
<g id="a_edge11_Node000009_Node000003"><a xlink:title=" ">
<path fill="none" stroke="#63b8ff" d="M192.17,-76.05C200.56,-74.45 209.57,-72.72 218,-71.11"/>
<polygon fill="#63b8ff" stroke="#63b8ff" points="218.75,-74.53 227.91,-69.21 217.43,-67.65 218.75,-74.53"/>
</a>
</g>
</g>
<!-- Node9&#45;&gt;Node4 -->
<g id="edge12_Node000009_Node000004" class="edge">
<title>Node9&#45;&gt;Node4</title>
<g id="a_edge12_Node000009_Node000004"><a xlink:title=" ">
<path fill="none" stroke="#63b8ff" d="M192.08,-83.08C203.48,-83.25 216.3,-83.42 228,-83.5 253.45,-83.68 282.05,-83.68 304.42,-83.64"/>
<polygon fill="#63b8ff" stroke="#63b8ff" points="304.55,-87.14 314.54,-83.62 304.54,-80.14 304.55,-87.14"/>
</a>
</g>
</g>
</g>
</svg>
