<?xml version="1.0" encoding="UTF-8" standalone="no"?>
<!DOCTYPE svg PUBLIC "-//W3C//DTD SVG 1.1//EN"
 "http://www.w3.org/Graphics/SVG/1.1/DTD/svg11.dtd">
<!-- Generated by graphviz version 2.44.0 (0)
 -->
<!-- Title: errorf Pages: 1 -->
<svg width="803pt" height="64pt"
 viewBox="0.00 0.00 803.00 64.00" xmlns="http://www.w3.org/2000/svg" xmlns:xlink="http://www.w3.org/1999/xlink">
<g id="graph0" class="graph" transform="scale(1 1) rotate(0) translate(4 60)">
<title>errorf</title>
<!-- Node1 -->
<g id="Node000001" class="node">
<title>Node1</title>
<g id="a_Node000001"><a xlink:title=" ">
<polygon fill="#999999" stroke="#666666" points="795,-37 755,-37 755,-18 795,-18 795,-37"/>
<text text-anchor="middle" x="775" y="-25" font-family="Helvetica" font-size="10.00">errorf</text>
</a>
</g>
</g>
<!-- Node2 -->
<g id="Node000002" class="node">
<title>Node2</title>
<g id="a_Node000002"><a xlink:href="kc_8cpp.html#ad7f21bf6ad62e142c785825e00a546e3" target="_top" xlink:title=" ">
<polygon fill="white" stroke="#666666" points="712.5,-56 647.5,-56 647.5,-37 712.5,-37 712.5,-56"/>
<text text-anchor="middle" x="680" y="-44" font-family="Helvetica" font-size="10.00">cdf_normal</text>
</a>
</g>
</g>
<!-- Node1&#45;&gt;Node2 -->
<g id="edge1_Node000001_Node000002" class="edge">
<title>Node1&#45;&gt;Node2</title>
<g id="a_edge1_Node000001_Node000002"><a xlink:title=" ">
<path fill="none" stroke="#63b8ff" d="M744.69,-33.49C734.51,-35.57 723.05,-37.91 712.69,-40.03"/>
<polygon fill="#63b8ff" stroke="#63b8ff" points="745.63,-36.87 754.73,-31.44 744.23,-30.01 745.63,-36.87"/>
</a>
</g>
</g>
<!-- Node9 -->
<g id="Node000009" class="node">
<title>Node9</title>
<g id="a_Node000009"><a xlink:href="kc_8cpp.html#a05188c3bfc69f9c84a6e22f6b0e11cc7" target="_top" xlink:title=" ">
<polygon fill="white" stroke="#666666" points="719,-19 641,-19 641,0 719,0 719,-19"/>
<text text-anchor="middle" x="680" y="-7" font-family="Helvetica" font-size="10.00">cdf_stdnormal</text>
</a>
</g>
</g>
<!-- Node1&#45;&gt;Node9 -->
<g id="edge8_Node000001_Node000009" class="edge">
<title>Node1&#45;&gt;Node9</title>
<g id="a_edge8_Node000001_Node000009"><a xlink:title=" ">
<path fill="none" stroke="#63b8ff" d="M744.9,-21.87C736.71,-20.28 727.68,-18.53 719.05,-16.86"/>
<polygon fill="#63b8ff" stroke="#63b8ff" points="744.25,-25.31 754.73,-23.77 745.58,-18.43 744.25,-25.31"/>
</a>
</g>
</g>
<!-- Node3 -->
<g id="Node000003" class="node">
<title>Node3</title>
<g id="a_Node000003"><a xlink:href="khmm_8cpp.html#a652a672a2d4cba451fe4f5a0af94d977" target="_top" xlink:title="O2 emission probability.">
<polygon fill="white" stroke="#666666" points="605,-56 567,-56 567,-37 605,-37 605,-56"/>
<text text-anchor="middle" x="586" y="-44" font-family="Helvetica" font-size="10.00">b2iot</text>
</a>
</g>
</g>
<!-- Node2&#45;&gt;Node3 -->
<g id="edge2_Node000002_Node000003" class="edge">
<title>Node2&#45;&gt;Node3</title>
<g id="a_edge2_Node000002_Node000003"><a xlink:title=" ">
<path fill="none" stroke="#63b8ff" d="M637.15,-46.5C625.86,-46.5 614.24,-46.5 605.03,-46.5"/>
<polygon fill="#63b8ff" stroke="#63b8ff" points="637.34,-50 647.34,-46.5 637.34,-43 637.34,-50"/>
</a>
</g>
</g>
<!-- Node4 -->
<g id="Node000004" class="node">
<title>Node4</title>
<g id="a_Node000004"><a xlink:href="khmm_8cpp.html#a51dbadd369b498ec093b590f39e8ea96" target="_top" xlink:title="Viterbi algorithm.">
<polygon fill="white" stroke="#666666" points="531,-56 420,-56 420,-37 531,-37 531,-56"/>
<text text-anchor="middle" x="475.5" y="-44" font-family="Helvetica" font-size="10.00">ViterbiLogNP_CHMM</text>
</a>
</g>
</g>
<!-- Node3&#45;&gt;Node4 -->
<g id="edge3_Node000003_Node000004" class="edge">
<title>Node3&#45;&gt;Node4</title>
<g id="a_edge3_Node000003_Node000004"><a xlink:title=" ">
<path fill="none" stroke="#63b8ff" d="M556.54,-46.5C548.67,-46.5 539.86,-46.5 531.04,-46.5"/>
<polygon fill="#63b8ff" stroke="#63b8ff" points="556.59,-50 566.59,-46.5 556.59,-43 556.59,-50"/>
</a>
</g>
</g>
<!-- Node5 -->
<g id="Node000005" class="node">
<title>Node5</title>
<g id="a_Node000005"><a xlink:href="khmm_8cpp.html#ac44ba55ccbb73d2b015ca7537479381e" target="_top" xlink:title="Run the main HMM algorithm.">
<polygon fill="white" stroke="#666666" points="384,-56 303,-56 303,-37 384,-37 384,-56"/>
<text text-anchor="middle" x="343.5" y="-44" font-family="Helvetica" font-size="10.00">testVit_CHMM</text>
</a>
</g>
</g>
<!-- Node4&#45;&gt;Node5 -->
<g id="edge4_Node000004_Node000005" class="edge">
<title>Node4&#45;&gt;Node5</title>
<g id="a_edge4_Node000004_Node000005"><a xlink:title=" ">
<path fill="none" stroke="#63b8ff" d="M409.6,-46.5C400.92,-46.5 392.25,-46.5 384.19,-46.5"/>
<polygon fill="#63b8ff" stroke="#63b8ff" points="409.75,-50 419.75,-46.5 409.75,-43 409.75,-50"/>
</a>
</g>
</g>
<!-- Node6 -->
<g id="Node000006" class="node">
<title>Node6</title>
<g id="a_Node000006"><a xlink:href="class_c_n_v_caller.html#a49824c662095f9af9a38056dadc8933f" target="_top" xlink:title=" ">
<polygon fill="white" stroke="#666666" points="267,-56 185,-56 185,-37 267,-37 267,-56"/>
<text text-anchor="middle" x="226" y="-44" font-family="Helvetica" font-size="10.00">CNVCaller::run</text>
</a>
</g>
</g>
<!-- Node5&#45;&gt;Node6 -->
<g id="edge5_Node000005_Node000006" class="edge">
<title>Node5&#45;&gt;Node6</title>
<g id="a_edge5_Node000005_Node000006"><a xlink:title=" ">
<path fill="none" stroke="#63b8ff" d="M292.58,-46.5C284.1,-46.5 275.4,-46.5 267.21,-46.5"/>
<polygon fill="#63b8ff" stroke="#63b8ff" points="292.75,-50 302.75,-46.5 292.75,-43 292.75,-50"/>
</a>
</g>
</g>
<!-- Node7 -->
<g id="Node000007" class="node">
<title>Node7</title>
<g id="a_Node000007"><a xlink:href="class_context_s_v.html#ac9d32b6e28e5bfdf10e314db0e90e4cd" target="_top" xlink:title=" ">
<polygon fill="white" stroke="#666666" points="149,-56 66,-56 66,-37 149,-37 149,-56"/>
<text text-anchor="middle" x="107.5" y="-44" font-family="Helvetica" font-size="10.00">ContextSV::run</text>
</a>
</g>
</g>
<!-- Node6&#45;&gt;Node7 -->
<g id="edge6_Node000006_Node000007" class="edge">
<title>Node6&#45;&gt;Node7</title>
<g id="a_edge6_Node000006_Node000007"><a xlink:title=" ">
<path fill="none" stroke="#63b8ff" d="M174.65,-46.5C166.1,-46.5 157.32,-46.5 149.06,-46.5"/>
<polygon fill="#63b8ff" stroke="#63b8ff" points="174.91,-50 184.91,-46.5 174.91,-43 174.91,-50"/>
</a>
</g>
</g>
<!-- Node8 -->
<g id="Node000008" class="node">
<title>Node8</title>
<g id="a_Node000008"><a xlink:href="swig__interface_8cpp.html#ade07e2f2bb85b7aaac8af156f3e962f6" target="_top" xlink:title=" ">
<polygon fill="white" stroke="#666666" points="30,-56 0,-56 0,-37 30,-37 30,-56"/>
<text text-anchor="middle" x="15" y="-44" font-family="Helvetica" font-size="10.00">run</text>
</a>
</g>
</g>
<!-- Node7&#45;&gt;Node8 -->
<g id="edge7_Node000007_Node000008" class="edge">
<title>Node7&#45;&gt;Node8</title>
<g id="a_edge7_Node000007_Node000008"><a xlink:title=" ">
<path fill="none" stroke="#63b8ff" d="M55.56,-46.5C46.21,-46.5 37.19,-46.5 30.13,-46.5"/>
<polygon fill="#63b8ff" stroke="#63b8ff" points="55.75,-50 65.75,-46.5 55.75,-43 55.75,-50"/>
</a>
</g>
</g>
</g>
</svg>
