<?xml version="1.0" encoding="UTF-8" standalone="no"?>
<!DOCTYPE svg PUBLIC "-//W3C//DTD SVG 1.1//EN"
 "http://www.w3.org/Graphics/SVG/1.1/DTD/svg11.dtd">
<!-- Generated by graphviz version 2.44.0 (0)
 -->
<!-- Title: free_dvector Pages: 1 -->
<svg width="373pt" height="140pt"
 viewBox="0.00 0.00 373.00 140.00" xmlns="http://www.w3.org/2000/svg" xmlns:xlink="http://www.w3.org/1999/xlink">
<g id="graph0" class="graph" transform="scale(1 1) rotate(0) translate(4 136)">
<title>free_dvector</title>
<!-- Node1 -->
<g id="Node000001" class="node">
<title>Node1</title>
<g id="a_Node000001"><a xlink:title=" ">
<polygon fill="#999999" stroke="#666666" points="365,-75 295,-75 295,-56 365,-56 365,-75"/>
<text text-anchor="middle" x="330" y="-63" font-family="Helvetica" font-size="10.00">free_dvector</text>
</a>
</g>
</g>
<!-- Node2 -->
<g id="Node000002" class="node">
<title>Node2</title>
<g id="a_Node000002"><a xlink:href="kc_8cpp.html#a96ec673538c48e142ea769df221d2ca9" target="_top" xlink:title=" ">
<polygon fill="white" stroke="#666666" points="245.5,-132 147.5,-132 147.5,-113 245.5,-113 245.5,-132"/>
<text text-anchor="middle" x="196.5" y="-120" font-family="Helvetica" font-size="10.00">chi2test_2by3table</text>
</a>
</g>
</g>
<!-- Node1&#45;&gt;Node2 -->
<g id="edge1_Node000001_Node000002" class="edge">
<title>Node1&#45;&gt;Node2</title>
<g id="a_edge1_Node000001_Node000002"><a xlink:title=" ">
<path fill="none" stroke="#63b8ff" d="M300.44,-79.5C287.83,-85.55 272.77,-92.58 259,-98.5 247.31,-103.53 234.2,-108.71 223.09,-112.96"/>
<polygon fill="#63b8ff" stroke="#63b8ff" points="302.07,-82.61 309.55,-75.11 299.02,-76.3 302.07,-82.61"/>
</a>
</g>
</g>
<!-- Node3 -->
<g id="Node000003" class="node">
<title>Node3</title>
<g id="a_Node000003"><a xlink:href="kc_8cpp.html#a3208fdc700d8fc604d6446c1180e58cd" target="_top" xlink:title=" ">
<polygon fill="white" stroke="#666666" points="98,-113 0,-113 0,-94 98,-94 98,-113"/>
<text text-anchor="middle" x="49" y="-101" font-family="Helvetica" font-size="10.00">chi2test_3by2table</text>
</a>
</g>
</g>
<!-- Node1&#45;&gt;Node3 -->
<g id="edge3_Node000001_Node000003" class="edge">
<title>Node1&#45;&gt;Node3</title>
<g id="a_edge3_Node000001_Node000003"><a xlink:title=" ">
<path fill="none" stroke="#63b8ff" d="M284.75,-71.53C233.84,-78.46 150.53,-89.81 98.06,-96.95"/>
<polygon fill="#63b8ff" stroke="#63b8ff" points="285.35,-74.98 294.79,-70.16 284.41,-68.04 285.35,-74.98"/>
</a>
</g>
</g>
<!-- Node4 -->
<g id="Node000004" class="node">
<title>Node4</title>
<g id="a_Node000004"><a xlink:href="kc_8cpp.html#a5ac369578aba21ff5f35f9e2c7320fa4" target="_top" xlink:title=" ">
<polygon fill="white" stroke="#666666" points="259,-56 134,-56 134,-37 259,-37 259,-56"/>
<text text-anchor="middle" x="196.5" y="-44" font-family="Helvetica" font-size="10.00">chi2test_trend_3by2table</text>
</a>
</g>
</g>
<!-- Node1&#45;&gt;Node4 -->
<g id="edge4_Node000001_Node000004" class="edge">
<title>Node1&#45;&gt;Node4</title>
<g id="a_edge4_Node000001_Node000004"><a xlink:title=" ">
<path fill="none" stroke="#63b8ff" d="M284.67,-59.1C276.44,-57.91 267.69,-56.64 259.05,-55.39"/>
<polygon fill="#63b8ff" stroke="#63b8ff" points="284.4,-62.59 294.79,-60.56 285.4,-55.66 284.4,-62.59"/>
</a>
</g>
</g>
<!-- Node5 -->
<g id="Node000005" class="node">
<title>Node5</title>
<g id="a_Node000005"><a xlink:href="khmm_8cpp.html#ae1a70c28c22aa817cf0ecdfe2d8bd0d8" target="_top" xlink:title="Free the memory allocated for an HMM.">
<polygon fill="white" stroke="#666666" points="230,-19 163,-19 163,0 230,0 230,-19"/>
<text text-anchor="middle" x="196.5" y="-7" font-family="Helvetica" font-size="10.00">FreeCHMM</text>
</a>
</g>
</g>
<!-- Node1&#45;&gt;Node5 -->
<g id="edge5_Node000001_Node000005" class="edge">
<title>Node1&#45;&gt;Node5</title>
<g id="a_edge5_Node000001_Node000005"><a xlink:title=" ">
<path fill="none" stroke="#63b8ff" d="M304.12,-50.89C290.98,-43.56 274.43,-34.9 259,-28.5 249.81,-24.69 239.58,-21.23 230.14,-18.35"/>
<polygon fill="#63b8ff" stroke="#63b8ff" points="302.59,-54.05 313.01,-55.94 306.04,-47.96 302.59,-54.05"/>
</a>
</g>
</g>
<!-- Node2&#45;&gt;Node3 -->
<g id="edge2_Node000002_Node000003" class="edge">
<title>Node2&#45;&gt;Node3</title>
<g id="a_edge2_Node000002_Node000003"><a xlink:title=" ">
<path fill="none" stroke="#63b8ff" d="M137.3,-114.9C124.43,-113.22 110.93,-111.46 98.49,-109.83"/>
<polygon fill="#63b8ff" stroke="#63b8ff" points="137.09,-118.4 147.45,-116.23 137.99,-111.46 137.09,-118.4"/>
</a>
</g>
</g>
</g>
</svg>
