<?xml version="1.0" encoding="UTF-8" standalone="no"?>
<!DOCTYPE svg PUBLIC "-//W3C//DTD SVG 1.1//EN"
 "http://www.w3.org/Graphics/SVG/1.1/DTD/svg11.dtd">
<!-- Generated by graphviz version 2.44.0 (0)
 -->
<!-- Title: ttest_uev Pages: 1 -->
<svg width="306pt" height="82pt"
 viewBox="0.00 0.00 306.00 82.00" xmlns="http://www.w3.org/2000/svg" xmlns:xlink="http://www.w3.org/1999/xlink">
<g id="graph0" class="graph" transform="scale(1 1) rotate(0) translate(4 78)">
<title>ttest_uev</title>
<!-- Node1 -->
<g id="Node000001" class="node">
<title>Node1</title>
<g id="a_Node000001"><a xlink:title=" ">
<polygon fill="#999999" stroke="#666666" points="57,-55 0,-55 0,-36 57,-36 57,-55"/>
<text text-anchor="middle" x="28.5" y="-43" font-family="Helvetica" font-size="10.00">ttest_uev</text>
</a>
</g>
</g>
<!-- Node2 -->
<g id="Node000002" class="node">
<title>Node2</title>
<g id="a_Node000002"><a xlink:href="kc_8cpp.html#ae263d464ebb9d7304f3c8043c41622b7" target="_top" xlink:title=" ">
<polygon fill="white" stroke="#666666" points="137,-74 93,-74 93,-55 137,-55 137,-74"/>
<text text-anchor="middle" x="115" y="-62" font-family="Helvetica" font-size="10.00">avevar</text>
</a>
</g>
</g>
<!-- Node1&#45;&gt;Node2 -->
<g id="edge1_Node000001_Node000002" class="edge">
<title>Node1&#45;&gt;Node2</title>
<g id="a_edge1_Node000001_Node000002"><a xlink:title=" ">
<path fill="none" stroke="#63b8ff" d="M57.17,-51.72C65.45,-53.58 74.58,-55.64 83.06,-57.54"/>
<polygon fill="#63b8ff" stroke="#63b8ff" points="82.45,-60.99 92.97,-59.77 83.98,-54.16 82.45,-60.99"/>
</a>
</g>
</g>
<!-- Node3 -->
<g id="Node000003" class="node">
<title>Node3</title>
<g id="a_Node000003"><a xlink:href="kc_8cpp.html#a996626bdadc539b36a6ddce1f8262f1e" target="_top" xlink:title=" ">
<polygon fill="white" stroke="#666666" points="134,-37 96,-37 96,-18 134,-18 134,-37"/>
<text text-anchor="middle" x="115" y="-25" font-family="Helvetica" font-size="10.00">cdf_t</text>
</a>
</g>
</g>
<!-- Node1&#45;&gt;Node3 -->
<g id="edge2_Node000001_Node000003" class="edge">
<title>Node1&#45;&gt;Node3</title>
<g id="a_edge2_Node000001_Node000003"><a xlink:title=" ">
<path fill="none" stroke="#63b8ff" d="M57.17,-39.61C66.4,-37.64 76.69,-35.45 85.95,-33.47"/>
<polygon fill="#63b8ff" stroke="#63b8ff" points="86.81,-36.87 95.86,-31.36 85.35,-30.02 86.81,-36.87"/>
</a>
</g>
</g>
<!-- Node4 -->
<g id="Node000004" class="node">
<title>Node4</title>
<g id="a_Node000004"><a xlink:href="kc_8cpp.html#aff974d448122c33ebffbaf2666c42092" target="_top" xlink:title=" ">
<polygon fill="white" stroke="#666666" points="211,-37 173,-37 173,-18 211,-18 211,-37"/>
<text text-anchor="middle" x="192" y="-25" font-family="Helvetica" font-size="10.00">betai</text>
</a>
</g>
</g>
<!-- Node3&#45;&gt;Node4 -->
<g id="edge3_Node000003_Node000004" class="edge">
<title>Node3&#45;&gt;Node4</title>
<g id="a_edge3_Node000003_Node000004"><a xlink:title=" ">
<path fill="none" stroke="#63b8ff" d="M134.16,-27.5C142.66,-27.5 152.99,-27.5 162.5,-27.5"/>
<polygon fill="#63b8ff" stroke="#63b8ff" points="162.75,-31 172.75,-27.5 162.75,-24 162.75,-31"/>
</a>
</g>
</g>
<!-- Node5 -->
<g id="Node000005" class="node">
<title>Node5</title>
<g id="a_Node000005"><a xlink:href="kc_8cpp.html#a1d6e649feccbc1d73424037ed02d7418" target="_top" xlink:title=" ">
<polygon fill="white" stroke="#666666" points="294.5,-56 250.5,-56 250.5,-37 294.5,-37 294.5,-56"/>
<text text-anchor="middle" x="272.5" y="-44" font-family="Helvetica" font-size="10.00">betacf</text>
</a>
</g>
</g>
<!-- Node4&#45;&gt;Node5 -->
<g id="edge4_Node000004_Node000005" class="edge">
<title>Node4&#45;&gt;Node5</title>
<g id="a_edge4_Node000004_Node000005"><a xlink:title=" ">
<path fill="none" stroke="#63b8ff" d="M211.21,-31.91C219.88,-34.01 230.5,-36.58 240.39,-38.97"/>
<polygon fill="#63b8ff" stroke="#63b8ff" points="239.79,-42.43 250.33,-41.38 241.44,-35.62 239.79,-42.43"/>
</a>
</g>
</g>
<!-- Node6 -->
<g id="Node000006" class="node">
<title>Node6</title>
<g id="a_Node000006"><a xlink:href="kc_8cpp.html#a69cc1b545a83a4d9f187e131500aee45" target="_top" xlink:title=" ">
<polygon fill="white" stroke="#666666" points="298,-19 247,-19 247,0 298,0 298,-19"/>
<text text-anchor="middle" x="272.5" y="-7" font-family="Helvetica" font-size="10.00">gammln</text>
</a>
</g>
</g>
<!-- Node4&#45;&gt;Node6 -->
<g id="edge5_Node000004_Node000006" class="edge">
<title>Node4&#45;&gt;Node6</title>
<g id="a_edge5_Node000004_Node000006"><a xlink:title=" ">
<path fill="none" stroke="#63b8ff" d="M211.21,-23.33C218.91,-21.56 228.14,-19.44 237.04,-17.4"/>
<polygon fill="#63b8ff" stroke="#63b8ff" points="237.89,-20.8 246.85,-15.15 236.32,-13.98 237.89,-20.8"/>
</a>
</g>
</g>
</g>
</svg>
