<?xml version="1.0" encoding="UTF-8" standalone="no"?>
<!DOCTYPE svg PUBLIC "-//W3C//DTD SVG 1.1//EN"
 "http://www.w3.org/Graphics/SVG/1.1/DTD/svg11.dtd">
<!-- Generated by graphviz version 2.44.0 (0)
 -->
<!-- Title: cdf_f Pages: 1 -->
<svg width="189pt" height="101pt"
 viewBox="0.00 0.00 189.00 101.00" xmlns="http://www.w3.org/2000/svg" xmlns:xlink="http://www.w3.org/1999/xlink">
<g id="graph0" class="graph" transform="scale(1 1) rotate(0) translate(4 97)">
<title>cdf_f</title>
<!-- Node1 -->
<g id="Node000001" class="node">
<title>Node1</title>
<g id="a_Node000001"><a xlink:title=" ">
<polygon fill="#999999" stroke="#666666" points="181,-56 143,-56 143,-37 181,-37 181,-56"/>
<text text-anchor="middle" x="162" y="-44" font-family="Helvetica" font-size="10.00">cdf_f</text>
</a>
</g>
</g>
<!-- Node2 -->
<g id="Node000002" class="node">
<title>Node2</title>
<g id="a_Node000002"><a xlink:href="kc_8cpp.html#aeb063515d33aaf1d9131611c38b21fa4" target="_top" xlink:title=" ">
<polygon fill="white" stroke="#666666" points="71.5,-93 35.5,-93 35.5,-74 71.5,-74 71.5,-93"/>
<text text-anchor="middle" x="53.5" y="-81" font-family="Helvetica" font-size="10.00">ftest</text>
</a>
</g>
</g>
<!-- Node1&#45;&gt;Node2 -->
<g id="edge1_Node000001_Node000002" class="edge">
<title>Node1&#45;&gt;Node2</title>
<g id="a_edge1_Node000001_Node000002"><a xlink:title=" ">
<path fill="none" stroke="#63b8ff" d="M132.87,-56.45C124.55,-59.38 115.41,-62.58 107,-65.5 95.17,-69.61 81.81,-74.19 71.54,-77.7"/>
<polygon fill="#63b8ff" stroke="#63b8ff" points="134.25,-59.67 142.52,-53.04 131.92,-53.07 134.25,-59.67"/>
</a>
</g>
</g>
<!-- Node3 -->
<g id="Node000003" class="node">
<title>Node3</title>
<g id="a_Node000003"><a xlink:href="kc_8cpp.html#acf18fe54721a1ca7a61f70f4fdc637e3" target="_top" xlink:title=" ">
<polygon fill="white" stroke="#666666" points="107,-56 0,-56 0,-37 107,-37 107,-56"/>
<text text-anchor="middle" x="53.5" y="-44" font-family="Helvetica" font-size="10.00">matrix_regModelStat</text>
</a>
</g>
</g>
<!-- Node1&#45;&gt;Node3 -->
<g id="edge2_Node000001_Node000003" class="edge">
<title>Node1&#45;&gt;Node3</title>
<g id="a_edge2_Node000001_Node000003"><a xlink:title=" ">
<path fill="none" stroke="#63b8ff" d="M132.81,-46.5C124.88,-46.5 115.98,-46.5 107.12,-46.5"/>
<polygon fill="#63b8ff" stroke="#63b8ff" points="132.93,-50 142.93,-46.5 132.93,-43 132.93,-50"/>
</a>
</g>
</g>
<!-- Node4 -->
<g id="Node000004" class="node">
<title>Node4</title>
<g id="a_Node000004"><a xlink:href="kc_8cpp.html#a66d8af160cff194f4aa44bf2bd5eb2f5" target="_top" xlink:title=" ">
<polygon fill="white" stroke="#666666" points="83,-19 24,-19 24,0 83,0 83,-19"/>
<text text-anchor="middle" x="53.5" y="-7" font-family="Helvetica" font-size="10.00">reg_linear</text>
</a>
</g>
</g>
<!-- Node1&#45;&gt;Node4 -->
<g id="edge3_Node000001_Node000004" class="edge">
<title>Node1&#45;&gt;Node4</title>
<g id="a_edge3_Node000001_Node000004"><a xlink:title=" ">
<path fill="none" stroke="#63b8ff" d="M133.18,-36.84C117.36,-31.34 97.62,-24.48 81.87,-19.01"/>
<polygon fill="#63b8ff" stroke="#63b8ff" points="132.34,-40.25 142.93,-40.22 134.64,-33.64 132.34,-40.25"/>
</a>
</g>
</g>
</g>
</svg>
