<?xml version="1.0" encoding="UTF-8" standalone="no"?>
<!DOCTYPE svg PUBLIC "-//W3C//DTD SVG 1.1//EN"
 "http://www.w3.org/Graphics/SVG/1.1/DTD/svg11.dtd">
<!-- Generated by graphviz version 2.44.0 (0)
 -->
<!-- Title: matrix_rowVar Pages: 1 -->
<svg width="189pt" height="101pt"
 viewBox="0.00 0.00 189.00 101.00" xmlns="http://www.w3.org/2000/svg" xmlns:xlink="http://www.w3.org/1999/xlink">
<g id="graph0" class="graph" transform="scale(1 1) rotate(0) translate(4 97)">
<title>matrix_rowVar</title>
<!-- Node1 -->
<g id="Node000001" class="node">
<title>Node1</title>
<g id="a_Node000001"><a xlink:title=" ">
<polygon fill="#999999" stroke="#666666" points="79,-56 0,-56 0,-37 79,-37 79,-56"/>
<text text-anchor="middle" x="39.5" y="-44" font-family="Helvetica" font-size="10.00">matrix_rowVar</text>
</a>
</g>
</g>
<!-- Node2 -->
<g id="Node000002" class="node">
<title>Node2</title>
<g id="a_Node000002"><a xlink:href="kc_8cpp.html#ae263d464ebb9d7304f3c8043c41622b7" target="_top" xlink:title=" ">
<polygon fill="white" stroke="#666666" points="170,-93 126,-93 126,-74 170,-74 170,-93"/>
<text text-anchor="middle" x="148" y="-81" font-family="Helvetica" font-size="10.00">avevar</text>
</a>
</g>
</g>
<!-- Node1&#45;&gt;Node2 -->
<g id="edge1_Node000001_Node000002" class="edge">
<title>Node1&#45;&gt;Node2</title>
<g id="a_edge1_Node000001_Node000002"><a xlink:title=" ">
<path fill="none" stroke="#63b8ff" d="M67.93,-56.03C82.69,-61.16 100.95,-67.5 116.2,-72.8"/>
<polygon fill="#63b8ff" stroke="#63b8ff" points="115.12,-76.13 125.72,-76.11 117.42,-69.52 115.12,-76.13"/>
</a>
</g>
</g>
<!-- Node3 -->
<g id="Node000003" class="node">
<title>Node3</title>
<g id="a_Node000003"><a xlink:href="kc_8cpp.html#a551c44bbe1dfb82808f03d8c2ec65fdd" target="_top" xlink:title=" ">
<polygon fill="white" stroke="#666666" points="180.5,-56 115.5,-56 115.5,-37 180.5,-37 180.5,-56"/>
<text text-anchor="middle" x="148" y="-44" font-family="Helvetica" font-size="10.00">matrix_row</text>
</a>
</g>
</g>
<!-- Node1&#45;&gt;Node3 -->
<g id="edge2_Node000001_Node000003" class="edge">
<title>Node1&#45;&gt;Node3</title>
<g id="a_edge2_Node000001_Node000003"><a xlink:title=" ">
<path fill="none" stroke="#63b8ff" d="M79.25,-46.5C87.71,-46.5 96.69,-46.5 105.26,-46.5"/>
<polygon fill="#63b8ff" stroke="#63b8ff" points="105.44,-50 115.44,-46.5 105.44,-43 105.44,-50"/>
</a>
</g>
</g>
<!-- Node4 -->
<g id="Node000004" class="node">
<title>Node4</title>
<g id="a_Node000004"><a xlink:href="kc_8cpp.html#a155bb2cc033bfd9bafbde8d31432f7ad" target="_top" xlink:title=" ">
<polygon fill="white" stroke="#666666" points="181,-19 115,-19 115,0 181,0 181,-19"/>
<text text-anchor="middle" x="148" y="-7" font-family="Helvetica" font-size="10.00">vector_new</text>
</a>
</g>
</g>
<!-- Node1&#45;&gt;Node4 -->
<g id="edge3_Node000001_Node000004" class="edge">
<title>Node1&#45;&gt;Node4</title>
<g id="a_edge3_Node000001_Node000004"><a xlink:title=" ">
<path fill="none" stroke="#63b8ff" d="M67.93,-36.97C80.62,-32.56 95.9,-27.25 109.63,-22.48"/>
<polygon fill="#63b8ff" stroke="#63b8ff" points="111,-25.71 119.3,-19.12 108.7,-19.1 111,-25.71"/>
</a>
</g>
</g>
</g>
</svg>
