<?xml version="1.0" encoding="UTF-8" standalone="no"?>
<!DOCTYPE svg PUBLIC "-//W3C//DTD SVG 1.1//EN"
 "http://www.w3.org/Graphics/SVG/1.1/DTD/svg11.dtd">
<!-- Generated by graphviz version 2.44.0 (0)
 -->
<!-- Title: cdf_t Pages: 1 -->
<svg width="308pt" height="202pt"
 viewBox="0.00 0.00 308.00 202.19" xmlns="http://www.w3.org/2000/svg" xmlns:xlink="http://www.w3.org/1999/xlink">
<g id="graph0" class="graph" transform="scale(1 1) rotate(0) translate(4 198.19)">
<title>cdf_t</title>
<!-- Node1 -->
<g id="Node000001" class="node">
<title>Node1</title>
<g id="a_Node000001"><a xlink:title=" ">
<polygon fill="#999999" stroke="#666666" points="300,-112 262,-112 262,-93 300,-93 300,-112"/>
<text text-anchor="middle" x="281" y="-100" font-family="Helvetica" font-size="10.00">cdf_t</text>
</a>
</g>
</g>
<!-- Node2 -->
<g id="Node000002" class="node">
<title>Node2</title>
<g id="a_Node000002"><a xlink:href="kc_8cpp.html#aeca8344f58357afa063ffc8cc119f8b7" target="_top" xlink:title=" ">
<polygon fill="white" stroke="#666666" points="207,-169 156,-169 156,-150 207,-150 207,-169"/>
<text text-anchor="middle" x="181.5" y="-157" font-family="Helvetica" font-size="10.00">cdfinv_t</text>
</a>
</g>
</g>
<!-- Node1&#45;&gt;Node2 -->
<g id="edge1_Node000001_Node000002" class="edge">
<title>Node1&#45;&gt;Node2</title>
<g id="a_edge1_Node000001_Node000002"><a xlink:title=" ">
<path fill="none" stroke="#63b8ff" d="M255.81,-117.6C246.54,-123.3 235.83,-129.79 226,-135.5 217.65,-140.35 208.28,-145.55 200.38,-149.87"/>
<polygon fill="#63b8ff" stroke="#63b8ff" points="257.85,-120.45 264.51,-112.22 254.17,-114.5 257.85,-120.45"/>
</a>
</g>
</g>
<!-- Node3 -->
<g id="Node000003" class="node">
<title>Node3</title>
<g id="a_Node000003"><a xlink:href="kc_8cpp.html#a77077c3de17b2dd212a275a4e0ff1750" target="_top" xlink:title=" ">
<polygon fill="white" stroke="#666666" points="101,-187 0,-187 0,-168 101,-168 101,-187"/>
<text text-anchor="middle" x="50.5" y="-175" font-family="Helvetica" font-size="10.00">matrix_regCoefStat</text>
</a>
</g>
</g>
<!-- Node1&#45;&gt;Node3 -->
<g id="edge4_Node000001_Node000003" class="edge">
<title>Node1&#45;&gt;Node3</title>
<g id="a_edge4_Node000001_Node000003"><a xlink:title=" ">
<path fill="none" stroke="#63b8ff" d="M272.56,-121.68C264.27,-140.05 248.95,-166.65 226,-178.5 182.66,-200.87 124.81,-194.71 87.85,-187.05"/>
<polygon fill="#63b8ff" stroke="#63b8ff" points="275.88,-122.81 276.53,-112.24 269.43,-120.1 275.88,-122.81"/>
</a>
</g>
</g>
<!-- Node4 -->
<g id="Node000004" class="node">
<title>Node4</title>
<g id="a_Node000004"><a xlink:href="kc_8cpp.html#ad66fdb823fdc1c7260a0459c1912203f" target="_top" xlink:title=" ">
<polygon fill="white" stroke="#666666" points="99.5,-150 1.5,-150 1.5,-131 99.5,-131 99.5,-150"/>
<text text-anchor="middle" x="50.5" y="-138" font-family="Helvetica" font-size="10.00">matrix_regObsStat</text>
</a>
</g>
</g>
<!-- Node1&#45;&gt;Node4 -->
<g id="edge5_Node000001_Node000004" class="edge">
<title>Node1&#45;&gt;Node4</title>
<g id="a_edge5_Node000001_Node000004"><a xlink:title=" ">
<path fill="none" stroke="#63b8ff" d="M251.82,-107.19C213.83,-113.5 145.65,-124.84 99.51,-132.52"/>
<polygon fill="#63b8ff" stroke="#63b8ff" points="252.4,-110.64 261.69,-105.55 251.25,-103.73 252.4,-110.64"/>
</a>
</g>
</g>
<!-- Node5 -->
<g id="Node000005" class="node">
<title>Node5</title>
<g id="a_Node000005"><a xlink:href="kc_8cpp.html#a9e38b2816c8d12a153ea2a22d1241ba2" target="_top" xlink:title=" ">
<polygon fill="white" stroke="#666666" points="207.5,-93 155.5,-93 155.5,-74 207.5,-74 207.5,-93"/>
<text text-anchor="middle" x="181.5" y="-81" font-family="Helvetica" font-size="10.00">ttest_ev</text>
</a>
</g>
</g>
<!-- Node1&#45;&gt;Node5 -->
<g id="edge6_Node000001_Node000005" class="edge">
<title>Node1&#45;&gt;Node5</title>
<g id="a_edge6_Node000001_Node000005"><a xlink:title=" ">
<path fill="none" stroke="#63b8ff" d="M251.66,-96.98C237.78,-94.27 221.19,-91.04 207.75,-88.42"/>
<polygon fill="#63b8ff" stroke="#63b8ff" points="251.18,-100.45 261.66,-98.93 252.52,-93.58 251.18,-100.45"/>
</a>
</g>
</g>
<!-- Node6 -->
<g id="Node000006" class="node">
<title>Node6</title>
<g id="a_Node000006"><a xlink:href="kc_8cpp.html#a74f76187c76268c668bfe62efddb21d3" target="_top" xlink:title=" ">
<polygon fill="white" stroke="#666666" points="226,-56 137,-56 137,-37 226,-37 226,-56"/>
<text text-anchor="middle" x="181.5" y="-44" font-family="Helvetica" font-size="10.00">ttest_onesample</text>
</a>
</g>
</g>
<!-- Node1&#45;&gt;Node6 -->
<g id="edge7_Node000001_Node000006" class="edge">
<title>Node1&#45;&gt;Node6</title>
<g id="a_edge7_Node000001_Node000006"><a xlink:title=" ">
<path fill="none" stroke="#63b8ff" d="M260.06,-86.88C250.16,-79.54 237.81,-70.99 226,-64.5 220.41,-61.43 214.19,-58.56 208.24,-56.05"/>
<polygon fill="#63b8ff" stroke="#63b8ff" points="257.98,-89.69 268.06,-92.94 262.21,-84.11 257.98,-89.69"/>
</a>
</g>
</g>
<!-- Node7 -->
<g id="Node000007" class="node">
<title>Node7</title>
<g id="a_Node000007"><a xlink:href="kc_8cpp.html#a99f03c3631c210c7091d184e108d57a5" target="_top" xlink:title=" ">
<polygon fill="white" stroke="#666666" points="210,-19 153,-19 153,0 210,0 210,-19"/>
<text text-anchor="middle" x="181.5" y="-7" font-family="Helvetica" font-size="10.00">ttest_uev</text>
</a>
</g>
</g>
<!-- Node1&#45;&gt;Node7 -->
<g id="edge8_Node000001_Node000007" class="edge">
<title>Node1&#45;&gt;Node7</title>
<g id="a_edge8_Node000001_Node000007"><a xlink:title=" ">
<path fill="none" stroke="#63b8ff" d="M270.61,-84.05C261.28,-67.33 245.56,-42.98 226,-27.5 221.26,-23.75 215.62,-20.66 210.01,-18.17"/>
<polygon fill="#63b8ff" stroke="#63b8ff" points="267.54,-85.73 275.34,-92.9 273.71,-82.43 267.54,-85.73"/>
</a>
</g>
</g>
<!-- Node2&#45;&gt;Node3 -->
<g id="edge2_Node000002_Node000003" class="edge">
<title>Node2&#45;&gt;Node3</title>
<g id="a_edge2_Node000002_Node000003"><a xlink:title=" ">
<path fill="none" stroke="#63b8ff" d="M145.92,-164.33C132.15,-166.25 116.05,-168.49 101.08,-170.58"/>
<polygon fill="#63b8ff" stroke="#63b8ff" points="146.51,-167.78 155.93,-162.93 145.54,-160.84 146.51,-167.78"/>
</a>
</g>
</g>
<!-- Node2&#45;&gt;Node4 -->
<g id="edge3_Node000002_Node000004" class="edge">
<title>Node2&#45;&gt;Node4</title>
<g id="a_edge3_Node000002_Node000004"><a xlink:title=" ">
<path fill="none" stroke="#63b8ff" d="M145.67,-154.37C131.55,-152.29 115.01,-149.85 99.76,-147.61"/>
<polygon fill="#63b8ff" stroke="#63b8ff" points="145.53,-157.89 155.93,-155.88 146.55,-150.96 145.53,-157.89"/>
</a>
</g>
</g>
</g>
</svg>
