<?xml version="1.0" encoding="UTF-8" standalone="no"?>
<!DOCTYPE svg PUBLIC "-//W3C//DTD SVG 1.1//EN"
 "http://www.w3.org/Graphics/SVG/1.1/DTD/svg11.dtd">
<!-- Generated by graphviz version 2.44.0 (0)
 -->
<!-- Title: matrix_eigen Pages: 1 -->
<svg width="182pt" height="64pt"
 viewBox="0.00 0.00 182.00 64.00" xmlns="http://www.w3.org/2000/svg" xmlns:xlink="http://www.w3.org/1999/xlink">
<g id="graph0" class="graph" transform="scale(1 1) rotate(0) translate(4 60)">
<title>matrix_eigen</title>
<!-- Node1 -->
<g id="Node000001" class="node">
<title>Node1</title>
<g id="a_Node000001"><a xlink:title=" ">
<polygon fill="#999999" stroke="#666666" points="72,-37 0,-37 0,-18 72,-18 72,-37"/>
<text text-anchor="middle" x="36" y="-25" font-family="Helvetica" font-size="10.00">matrix_eigen</text>
</a>
</g>
</g>
<!-- Node2 -->
<g id="Node000002" class="node">
<title>Node2</title>
<g id="a_Node000002"><a xlink:href="kc_8cpp.html#afc00baa57142e5db16101ade3200eea8" target="_top" xlink:title=" ">
<polygon fill="white" stroke="#666666" points="173.5,-56 108.5,-56 108.5,-37 173.5,-37 173.5,-56"/>
<text text-anchor="middle" x="141" y="-44" font-family="Helvetica" font-size="10.00">vector_free</text>
</a>
</g>
</g>
<!-- Node1&#45;&gt;Node2 -->
<g id="edge1_Node000001_Node000002" class="edge">
<title>Node1&#45;&gt;Node2</title>
<g id="a_edge1_Node000001_Node000002"><a xlink:title=" ">
<path fill="none" stroke="#63b8ff" d="M72.16,-33.99C80.62,-35.55 89.74,-37.23 98.46,-38.84"/>
<polygon fill="#63b8ff" stroke="#63b8ff" points="97.98,-42.31 108.45,-40.68 99.25,-35.42 97.98,-42.31"/>
</a>
</g>
</g>
<!-- Node3 -->
<g id="Node000003" class="node">
<title>Node3</title>
<g id="a_Node000003"><a xlink:href="kc_8cpp.html#a155bb2cc033bfd9bafbde8d31432f7ad" target="_top" xlink:title=" ">
<polygon fill="white" stroke="#666666" points="174,-19 108,-19 108,0 174,0 174,-19"/>
<text text-anchor="middle" x="141" y="-7" font-family="Helvetica" font-size="10.00">vector_new</text>
</a>
</g>
</g>
<!-- Node1&#45;&gt;Node3 -->
<g id="edge2_Node000001_Node000003" class="edge">
<title>Node1&#45;&gt;Node3</title>
<g id="a_edge2_Node000001_Node000003"><a xlink:title=" ">
<path fill="none" stroke="#63b8ff" d="M72.16,-21.36C80.36,-19.92 89.18,-18.38 97.66,-16.9"/>
<polygon fill="#63b8ff" stroke="#63b8ff" points="98.52,-20.3 107.77,-15.13 97.32,-13.41 98.52,-20.3"/>
</a>
</g>
</g>
</g>
</svg>
