<?xml version="1.0" encoding="UTF-8" standalone="no"?>
<!DOCTYPE svg PUBLIC "-//W3C//DTD SVG 1.1//EN"
 "http://www.w3.org/Graphics/SVG/1.1/DTD/svg11.dtd">
<!-- Generated by graphviz version 2.44.0 (0)
 -->
<!-- Title: pdf_binomial Pages: 1 -->
<svg width="244pt" height="64pt"
 viewBox="0.00 0.00 244.00 64.00" xmlns="http://www.w3.org/2000/svg" xmlns:xlink="http://www.w3.org/1999/xlink">
<g id="graph0" class="graph" transform="scale(1 1) rotate(0) translate(4 60)">
<title>pdf_binomial</title>
<!-- Node1 -->
<g id="Node000001" class="node">
<title>Node1</title>
<g id="a_Node000001"><a xlink:title=" ">
<polygon fill="#999999" stroke="#666666" points="71,-37 0,-37 0,-18 71,-18 71,-37"/>
<text text-anchor="middle" x="35.5" y="-25" font-family="Helvetica" font-size="10.00">pdf_binomial</text>
</a>
</g>
</g>
<!-- Node2 -->
<g id="Node000002" class="node">
<title>Node2</title>
<g id="a_Node000002"><a xlink:href="kc_8cpp.html#a16ca21352ca6ebe67c4ba6142b0a6e1b" target="_top" xlink:title=" ">
<polygon fill="white" stroke="#666666" points="145.5,-56 110.5,-56 110.5,-37 145.5,-37 145.5,-56"/>
<text text-anchor="middle" x="128" y="-44" font-family="Helvetica" font-size="10.00">bico</text>
</a>
</g>
</g>
<!-- Node1&#45;&gt;Node2 -->
<g id="edge1_Node000001_Node000002" class="edge">
<title>Node1&#45;&gt;Node2</title>
<g id="a_edge1_Node000001_Node000002"><a xlink:title=" ">
<path fill="none" stroke="#63b8ff" d="M71.23,-34.79C80.83,-36.81 91.1,-38.96 100.18,-40.87"/>
<polygon fill="#63b8ff" stroke="#63b8ff" points="99.67,-44.34 110.18,-42.97 101.11,-37.49 99.67,-44.34"/>
</a>
</g>
</g>
<!-- Node4 -->
<g id="Node000004" class="node">
<title>Node4</title>
<g id="a_Node000004"><a xlink:href="kc_8cpp.html#aa25b6ecd23d45f7dcaa2932138388c74" target="_top" xlink:title=" ">
<polygon fill="white" stroke="#666666" points="149,-19 107,-19 107,0 149,0 149,-19"/>
<text text-anchor="middle" x="128" y="-7" font-family="Helvetica" font-size="10.00">lnbico</text>
</a>
</g>
</g>
<!-- Node1&#45;&gt;Node4 -->
<g id="edge3_Node000001_Node000004" class="edge">
<title>Node1&#45;&gt;Node4</title>
<g id="a_edge3_Node000001_Node000004"><a xlink:title=" ">
<path fill="none" stroke="#63b8ff" d="M71.23,-20.59C79.71,-18.91 88.72,-17.11 96.96,-15.48"/>
<polygon fill="#63b8ff" stroke="#63b8ff" points="97.77,-18.88 106.89,-13.5 96.4,-12.02 97.77,-18.88"/>
</a>
</g>
</g>
<!-- Node3 -->
<g id="Node000003" class="node">
<title>Node3</title>
<g id="a_Node000003"><a xlink:href="kc_8cpp.html#a69cc1b545a83a4d9f187e131500aee45" target="_top" xlink:title=" ">
<polygon fill="white" stroke="#666666" points="236,-37 185,-37 185,-18 236,-18 236,-37"/>
<text text-anchor="middle" x="210.5" y="-25" font-family="Helvetica" font-size="10.00">gammln</text>
</a>
</g>
</g>
<!-- Node2&#45;&gt;Node3 -->
<g id="edge2_Node000002_Node000003" class="edge">
<title>Node2&#45;&gt;Node3</title>
<g id="a_edge2_Node000002_Node000003"><a xlink:title=" ">
<path fill="none" stroke="#63b8ff" d="M145.68,-42.56C154.18,-40.56 164.84,-38.04 175,-35.64"/>
<polygon fill="#63b8ff" stroke="#63b8ff" points="175.97,-39.01 184.89,-33.31 174.36,-32.2 175.97,-39.01"/>
</a>
</g>
</g>
<!-- Node4&#45;&gt;Node3 -->
<g id="edge4_Node000004_Node000003" class="edge">
<title>Node4&#45;&gt;Node3</title>
<g id="a_edge4_Node000004_Node000003"><a xlink:title=" ">
<path fill="none" stroke="#63b8ff" d="M149.31,-14.04C157.08,-15.78 166.17,-17.81 174.9,-19.76"/>
<polygon fill="#63b8ff" stroke="#63b8ff" points="174.36,-23.23 184.88,-22 175.89,-16.4 174.36,-23.23"/>
</a>
</g>
</g>
</g>
</svg>
