<?xml version="1.0" encoding="UTF-8" standalone="no"?>
<!DOCTYPE svg PUBLIC "-//W3C//DTD SVG 1.1//EN"
 "http://www.w3.org/Graphics/SVG/1.1/DTD/svg11.dtd">
<!-- Generated by graphviz version 2.44.0 (0)
 -->
<!-- Title: probks Pages: 1 -->
<svg width="186pt" height="64pt"
 viewBox="0.00 0.00 186.00 64.00" xmlns="http://www.w3.org/2000/svg" xmlns:xlink="http://www.w3.org/1999/xlink">
<g id="graph0" class="graph" transform="scale(1 1) rotate(0) translate(4 60)">
<title>probks</title>
<!-- Node1 -->
<g id="Node000001" class="node">
<title>Node1</title>
<g id="a_Node000001"><a xlink:title=" ">
<polygon fill="#999999" stroke="#666666" points="178,-37 132,-37 132,-18 178,-18 178,-37"/>
<text text-anchor="middle" x="155" y="-25" font-family="Helvetica" font-size="10.00">probks</text>
</a>
</g>
</g>
<!-- Node2 -->
<g id="Node000002" class="node">
<title>Node2</title>
<g id="a_Node000002"><a xlink:href="kc_8cpp.html#af6ec36938a2387245faa43e8799ed03f" target="_top" xlink:title=" ">
<polygon fill="white" stroke="#666666" points="70,-56 26,-56 26,-37 70,-37 70,-56"/>
<text text-anchor="middle" x="48" y="-44" font-family="Helvetica" font-size="10.00">kstest</text>
</a>
</g>
</g>
<!-- Node1&#45;&gt;Node2 -->
<g id="edge1_Node000001_Node000002" class="edge">
<title>Node1&#45;&gt;Node2</title>
<g id="a_edge1_Node000001_Node000002"><a xlink:title=" ">
<path fill="none" stroke="#63b8ff" d="M122.04,-33.28C105.25,-36.32 85.13,-39.96 70.27,-42.65"/>
<polygon fill="#63b8ff" stroke="#63b8ff" points="122.77,-36.71 131.99,-31.48 121.53,-29.82 122.77,-36.71"/>
</a>
</g>
</g>
<!-- Node3 -->
<g id="Node000003" class="node">
<title>Node3</title>
<g id="a_Node000003"><a xlink:href="kc_8cpp.html#adf02e6b141f0fbfb89ffdd700c7f5f51" target="_top" xlink:title=" ">
<polygon fill="white" stroke="#666666" points="96,-19 0,-19 0,0 96,0 96,-19"/>
<text text-anchor="middle" x="48" y="-7" font-family="Helvetica" font-size="10.00">kstest_onesample</text>
</a>
</g>
</g>
<!-- Node1&#45;&gt;Node3 -->
<g id="edge2_Node000001_Node000003" class="edge">
<title>Node1&#45;&gt;Node3</title>
<g id="a_edge2_Node000001_Node000003"><a xlink:title=" ">
<path fill="none" stroke="#63b8ff" d="M122.09,-22.03C113.88,-20.62 104.87,-19.08 96.07,-17.57"/>
<polygon fill="#63b8ff" stroke="#63b8ff" points="121.54,-25.49 131.99,-23.73 122.72,-18.59 121.54,-25.49"/>
</a>
</g>
</g>
</g>
</svg>
