<?xml version="1.0" encoding="UTF-8" standalone="no"?>
<!DOCTYPE svg PUBLIC "-//W3C//DTD SVG 1.1//EN"
 "http://www.w3.org/Graphics/SVG/1.1/DTD/svg11.dtd">
<!-- Generated by graphviz version 2.44.0 (0)
 -->
<!-- Title: cdf_stdnormal Pages: 1 -->
<svg width="405pt" height="64pt"
 viewBox="0.00 0.00 405.00 64.00" xmlns="http://www.w3.org/2000/svg" xmlns:xlink="http://www.w3.org/1999/xlink">
<g id="graph0" class="graph" transform="scale(1 1) rotate(0) translate(4 60)">
<title>cdf_stdnormal</title>
<!-- Node1 -->
<g id="Node000001" class="node">
<title>Node1</title>
<g id="a_Node000001"><a xlink:title=" ">
<polygon fill="#999999" stroke="#666666" points="78,-37 0,-37 0,-18 78,-18 78,-37"/>
<text text-anchor="middle" x="39" y="-25" font-family="Helvetica" font-size="10.00">cdf_stdnormal</text>
</a>
</g>
</g>
<!-- Node2 -->
<g id="Node000002" class="node">
<title>Node2</title>
<g id="a_Node000002"><a xlink:href="kc_8cpp.html#afafd5c993f50f8676e0a2095ce62c012" target="_top" xlink:title=" ">
<polygon fill="white" stroke="#666666" points="154,-37 114,-37 114,-18 154,-18 154,-37"/>
<text text-anchor="middle" x="134" y="-25" font-family="Helvetica" font-size="10.00">errorf</text>
</a>
</g>
</g>
<!-- Node1&#45;&gt;Node2 -->
<g id="edge1_Node000001_Node000002" class="edge">
<title>Node1&#45;&gt;Node2</title>
<g id="a_edge1_Node000001_Node000002"><a xlink:title=" ">
<path fill="none" stroke="#63b8ff" d="M78.09,-27.5C86.68,-27.5 95.65,-27.5 103.8,-27.5"/>
<polygon fill="#63b8ff" stroke="#63b8ff" points="103.93,-31 113.93,-27.5 103.93,-24 103.93,-31"/>
</a>
</g>
</g>
<!-- Node3 -->
<g id="Node000003" class="node">
<title>Node3</title>
<g id="a_Node000003"><a xlink:href="kc_8cpp.html#aa1745417f9696825bc7cc68538800b5b" target="_top" xlink:title=" ">
<polygon fill="white" stroke="#666666" points="239,-37 190,-37 190,-18 239,-18 239,-37"/>
<text text-anchor="middle" x="214.5" y="-25" font-family="Helvetica" font-size="10.00">gammp</text>
</a>
</g>
</g>
<!-- Node2&#45;&gt;Node3 -->
<g id="edge2_Node000002_Node000003" class="edge">
<title>Node2&#45;&gt;Node3</title>
<g id="a_edge2_Node000002_Node000003"><a xlink:title=" ">
<path fill="none" stroke="#63b8ff" d="M154,-27.5C161.76,-27.5 170.98,-27.5 179.81,-27.5"/>
<polygon fill="#63b8ff" stroke="#63b8ff" points="179.9,-31 189.9,-27.5 179.9,-24 179.9,-31"/>
</a>
</g>
</g>
<!-- Node4 -->
<g id="Node000004" class="node">
<title>Node4</title>
<g id="a_Node000004"><a xlink:href="kc_8cpp.html#a5b446e3e8ec13c8e2383ac156f0cf77f" target="_top" xlink:title=" ">
<polygon fill="white" stroke="#666666" points="307.5,-56 277.5,-56 277.5,-37 307.5,-37 307.5,-56"/>
<text text-anchor="middle" x="292.5" y="-44" font-family="Helvetica" font-size="10.00">gcf</text>
</a>
</g>
</g>
<!-- Node3&#45;&gt;Node4 -->
<g id="edge3_Node000003_Node000004" class="edge">
<title>Node3&#45;&gt;Node4</title>
<g id="a_edge3_Node000003_Node000004"><a xlink:title=" ">
<path fill="none" stroke="#63b8ff" d="M239.13,-33.41C248.15,-35.66 258.44,-38.23 267.49,-40.5"/>
<polygon fill="#63b8ff" stroke="#63b8ff" points="266.85,-43.95 277.41,-42.98 268.55,-37.16 266.85,-43.95"/>
</a>
</g>
</g>
<!-- Node6 -->
<g id="Node000006" class="node">
<title>Node6</title>
<g id="a_Node000006"><a xlink:href="kc_8cpp.html#a5277079b0c65d166db9553deb8a92de2" target="_top" xlink:title=" ">
<polygon fill="white" stroke="#666666" points="310,-19 275,-19 275,0 310,0 310,-19"/>
<text text-anchor="middle" x="292.5" y="-7" font-family="Helvetica" font-size="10.00">gser</text>
</a>
</g>
</g>
<!-- Node3&#45;&gt;Node6 -->
<g id="edge5_Node000003_Node000006" class="edge">
<title>Node3&#45;&gt;Node6</title>
<g id="a_edge5_Node000003_Node000006"><a xlink:title=" ">
<path fill="none" stroke="#63b8ff" d="M239.13,-21.9C247.22,-19.99 256.33,-17.83 264.65,-15.86"/>
<polygon fill="#63b8ff" stroke="#63b8ff" points="265.71,-19.2 274.64,-13.49 264.1,-12.39 265.71,-19.2"/>
</a>
</g>
</g>
<!-- Node5 -->
<g id="Node000005" class="node">
<title>Node5</title>
<g id="a_Node000005"><a xlink:href="kc_8cpp.html#a69cc1b545a83a4d9f187e131500aee45" target="_top" xlink:title=" ">
<polygon fill="white" stroke="#666666" points="397,-37 346,-37 346,-18 397,-18 397,-37"/>
<text text-anchor="middle" x="371.5" y="-25" font-family="Helvetica" font-size="10.00">gammln</text>
</a>
</g>
</g>
<!-- Node4&#45;&gt;Node5 -->
<g id="edge4_Node000004_Node000005" class="edge">
<title>Node4&#45;&gt;Node5</title>
<g id="a_edge4_Node000004_Node000005"><a xlink:title=" ">
<path fill="none" stroke="#63b8ff" d="M307.62,-43.02C315.63,-41.04 326.04,-38.47 336.07,-36"/>
<polygon fill="#63b8ff" stroke="#63b8ff" points="337,-39.37 345.87,-33.58 335.32,-32.58 337,-39.37"/>
</a>
</g>
</g>
<!-- Node6&#45;&gt;Node5 -->
<g id="edge6_Node000006_Node000005" class="edge">
<title>Node6&#45;&gt;Node5</title>
<g id="a_edge6_Node000006_Node000005"><a xlink:title=" ">
<path fill="none" stroke="#63b8ff" d="M310.21,-13.41C317.79,-15.18 327.06,-17.34 336.03,-19.44"/>
<polygon fill="#63b8ff" stroke="#63b8ff" points="335.39,-22.89 345.93,-21.76 336.99,-16.07 335.39,-22.89"/>
</a>
</g>
</g>
</g>
</svg>
