<?xml version="1.0" encoding="UTF-8" standalone="no"?>
<!DOCTYPE svg PUBLIC "-//W3C//DTD SVG 1.1//EN"
 "http://www.w3.org/Graphics/SVG/1.1/DTD/svg11.dtd">
<!-- Generated by graphviz version 2.44.0 (0)
 -->
<!-- Title: matrix_solve Pages: 1 -->
<svg width="183pt" height="64pt"
 viewBox="0.00 0.00 183.00 64.00" xmlns="http://www.w3.org/2000/svg" xmlns:xlink="http://www.w3.org/1999/xlink">
<g id="graph0" class="graph" transform="scale(1 1) rotate(0) translate(4 60)">
<title>matrix_solve</title>
<!-- Node1 -->
<g id="Node000001" class="node">
<title>Node1</title>
<g id="a_Node000001"><a xlink:title=" ">
<polygon fill="#999999" stroke="#666666" points="71,-37 0,-37 0,-18 71,-18 71,-37"/>
<text text-anchor="middle" x="35.5" y="-25" font-family="Helvetica" font-size="10.00">matrix_solve</text>
</a>
</g>
</g>
<!-- Node2 -->
<g id="Node000002" class="node">
<title>Node2</title>
<g id="a_Node000002"><a xlink:href="kc_8cpp.html#a595f09d7b5e2d197a0d8d4cef8a061ae" target="_top" xlink:title=" ">
<polygon fill="white" stroke="#666666" points="174.5,-56 107.5,-56 107.5,-37 174.5,-37 174.5,-56"/>
<text text-anchor="middle" x="141" y="-44" font-family="Helvetica" font-size="10.00">vectori_free</text>
</a>
</g>
</g>
<!-- Node1&#45;&gt;Node2 -->
<g id="edge1_Node000001_Node000002" class="edge">
<title>Node1&#45;&gt;Node2</title>
<g id="a_edge1_Node000001_Node000002"><a xlink:title=" ">
<path fill="none" stroke="#63b8ff" d="M71.25,-33.88C79.61,-35.41 88.63,-37.07 97.3,-38.66"/>
<polygon fill="#63b8ff" stroke="#63b8ff" points="96.8,-42.13 107.26,-40.49 98.06,-35.24 96.8,-42.13"/>
</a>
</g>
</g>
<!-- Node3 -->
<g id="Node000003" class="node">
<title>Node3</title>
<g id="a_Node000003"><a xlink:href="kc_8cpp.html#a0fad130527c83326c9dfe7da022700e0" target="_top" xlink:title=" ">
<polygon fill="white" stroke="#666666" points="175,-19 107,-19 107,0 175,0 175,-19"/>
<text text-anchor="middle" x="141" y="-7" font-family="Helvetica" font-size="10.00">vectori_new</text>
</a>
</g>
</g>
<!-- Node1&#45;&gt;Node3 -->
<g id="edge2_Node000001_Node000003" class="edge">
<title>Node1&#45;&gt;Node3</title>
<g id="a_edge2_Node000001_Node000003"><a xlink:title=" ">
<path fill="none" stroke="#63b8ff" d="M71.25,-21.46C79.52,-20.02 88.45,-18.47 97.04,-16.97"/>
<polygon fill="#63b8ff" stroke="#63b8ff" points="97.66,-20.42 106.92,-15.25 96.46,-13.52 97.66,-20.42"/>
</a>
</g>
</g>
</g>
</svg>
