<?xml version="1.0" encoding="UTF-8" standalone="no"?>
<!DOCTYPE svg PUBLIC "-//W3C//DTD SVG 1.1//EN"
 "http://www.w3.org/Graphics/SVG/1.1/DTD/svg11.dtd">
<!-- Generated by graphviz version 2.44.0 (0)
 -->
<!-- Title: matrix_product Pages: 1 -->
<svg width="369pt" height="351pt"
 viewBox="0.00 0.00 369.00 350.73" xmlns="http://www.w3.org/2000/svg" xmlns:xlink="http://www.w3.org/1999/xlink">
<g id="graph0" class="graph" transform="scale(1 1) rotate(0) translate(4 346.73)">
<title>matrix_product</title>
<!-- Node1 -->
<g id="Node000001" class="node">
<title>Node1</title>
<g id="a_Node000001"><a xlink:title=" ">
<polygon fill="#999999" stroke="#666666" points="361,-175.73 280,-175.73 280,-156.73 361,-156.73 361,-175.73"/>
<text text-anchor="middle" x="320.5" y="-163.73" font-family="Helvetica" font-size="10.00">matrix_product</text>
</a>
</g>
</g>
<!-- Node2 -->
<g id="Node000002" class="node">
<title>Node2</title>
<g id="a_Node000002"><a xlink:href="kc_8cpp.html#a673ed8b4d0eee5e7e60df48435e0d8ba" target="_top" xlink:title=" ">
<polygon fill="white" stroke="#666666" points="235,-342.73 146,-342.73 146,-323.73 235,-323.73 235,-342.73"/>
<text text-anchor="middle" x="190.5" y="-330.73" font-family="Helvetica" font-size="10.00">matrix_corMatrix</text>
</a>
</g>
</g>
<!-- Node1&#45;&gt;Node2 -->
<g id="edge1_Node000001_Node000002" class="edge">
<title>Node1&#45;&gt;Node2</title>
<g id="a_edge1_Node000001_Node000002"><a xlink:title=" ">
<path fill="none" stroke="#63b8ff" d="M314.79,-185.59C306.12,-217.17 284.71,-279.82 244,-315.23 240.07,-318.65 235.47,-321.42 230.65,-323.68"/>
<polygon fill="#63b8ff" stroke="#63b8ff" points="318.2,-186.37 317.33,-175.81 311.43,-184.61 318.2,-186.37"/>
</a>
</g>
</g>
<!-- Node4 -->
<g id="Node000004" class="node">
<title>Node4</title>
<g id="a_Node000004"><a xlink:href="kc_8cpp.html#aa51dbc9f02003e376630381db9eab42c" target="_top" xlink:title=" ">
<polygon fill="white" stroke="#666666" points="236.5,-305.73 144.5,-305.73 144.5,-286.73 236.5,-286.73 236.5,-305.73"/>
<text text-anchor="middle" x="190.5" y="-293.73" font-family="Helvetica" font-size="10.00">matrix_covMatrix</text>
</a>
</g>
</g>
<!-- Node1&#45;&gt;Node4 -->
<g id="edge3_Node000001_Node000004" class="edge">
<title>Node1&#45;&gt;Node4</title>
<g id="a_edge3_Node000001_Node000004"><a xlink:title=" ">
<path fill="none" stroke="#63b8ff" d="M311.39,-185.28C299.89,-210.1 276.57,-253.27 244,-278.23 239.56,-281.63 234.44,-284.42 229.18,-286.69"/>
<polygon fill="#63b8ff" stroke="#63b8ff" points="314.71,-186.43 315.59,-175.87 308.32,-183.58 314.71,-186.43"/>
</a>
</g>
</g>
<!-- Node6 -->
<g id="Node000006" class="node">
<title>Node6</title>
<g id="a_Node000006"><a xlink:href="kc_8cpp.html#aa04426b6994cdcfbbf77c3bb77e7a021" target="_top" xlink:title=" ">
<polygon fill="white" stroke="#666666" points="240.5,-268.73 140.5,-268.73 140.5,-249.73 240.5,-249.73 240.5,-268.73"/>
<text text-anchor="middle" x="190.5" y="-256.73" font-family="Helvetica" font-size="10.00">matrix_pcaComVar</text>
</a>
</g>
</g>
<!-- Node1&#45;&gt;Node6 -->
<g id="edge5_Node000001_Node000006" class="edge">
<title>Node1&#45;&gt;Node6</title>
<g id="a_edge5_Node000001_Node000006"><a xlink:title=" ">
<path fill="none" stroke="#63b8ff" d="M305.78,-183.89C291.85,-200.74 268.85,-225.78 244,-241.23 238.68,-244.54 232.68,-247.33 226.68,-249.65"/>
<polygon fill="#63b8ff" stroke="#63b8ff" points="308.65,-185.9 312.2,-175.92 303.2,-181.51 308.65,-185.9"/>
</a>
</g>
</g>
<!-- Node7 -->
<g id="Node000007" class="node">
<title>Node7</title>
<g id="a_Node000007"><a xlink:href="kc_8cpp.html#a32977ea97f5f917acfc83aec5817a0e0" target="_top" xlink:title=" ">
<polygon fill="white" stroke="#666666" points="235.5,-231.73 145.5,-231.73 145.5,-212.73 235.5,-212.73 235.5,-231.73"/>
<text text-anchor="middle" x="190.5" y="-219.73" font-family="Helvetica" font-size="10.00">matrix_pcaScore</text>
</a>
</g>
</g>
<!-- Node1&#45;&gt;Node7 -->
<g id="edge6_Node000001_Node000007" class="edge">
<title>Node1&#45;&gt;Node7</title>
<g id="a_edge6_Node000001_Node000007"><a xlink:title=" ">
<path fill="none" stroke="#63b8ff" d="M292.9,-180.74C278.62,-188.23 260.59,-197.25 244,-204.23 236.9,-207.22 229.1,-210.1 221.75,-212.65"/>
<polygon fill="#63b8ff" stroke="#63b8ff" points="294.94,-183.62 302.12,-175.83 291.65,-177.44 294.94,-183.62"/>
</a>
</g>
</g>
<!-- Node8 -->
<g id="Node000008" class="node">
<title>Node8</title>
<g id="a_Node000008"><a xlink:href="kc_8cpp.html#a00f5b59ec000eae7a009cd437008050d" target="_top" xlink:title=" ">
<polygon fill="white" stroke="#666666" points="233.5,-194.73 147.5,-194.73 147.5,-175.73 233.5,-175.73 233.5,-194.73"/>
<text text-anchor="middle" x="190.5" y="-182.73" font-family="Helvetica" font-size="10.00">matrix_product3</text>
</a>
</g>
</g>
<!-- Node1&#45;&gt;Node8 -->
<g id="edge7_Node000001_Node000008" class="edge">
<title>Node1&#45;&gt;Node8</title>
<g id="a_edge7_Node000001_Node000008"><a xlink:title=" ">
<path fill="none" stroke="#63b8ff" d="M269.57,-173.65C257.79,-175.39 245.35,-177.24 233.94,-178.93"/>
<polygon fill="#63b8ff" stroke="#63b8ff" points="270.32,-177.07 279.7,-172.14 269.3,-170.15 270.32,-177.07"/>
</a>
</g>
</g>
<!-- Node9 -->
<g id="Node000009" class="node">
<title>Node9</title>
<g id="a_Node000009"><a xlink:href="kc_8cpp.html#ad66fdb823fdc1c7260a0459c1912203f" target="_top" xlink:title=" ">
<polygon fill="white" stroke="#666666" points="99.5,-156.73 1.5,-156.73 1.5,-137.73 99.5,-137.73 99.5,-156.73"/>
<text text-anchor="middle" x="50.5" y="-144.73" font-family="Helvetica" font-size="10.00">matrix_regObsStat</text>
</a>
</g>
</g>
<!-- Node1&#45;&gt;Node9 -->
<g id="edge15_Node000001_Node000009" class="edge">
<title>Node1&#45;&gt;Node9</title>
<g id="a_edge15_Node000001_Node000009"><a xlink:title=" ">
<path fill="none" stroke="#63b8ff" d="M269.69,-162.7C221.16,-159.26 147.86,-154.06 99.83,-150.66"/>
<polygon fill="#63b8ff" stroke="#63b8ff" points="269.73,-166.21 279.96,-163.43 270.23,-159.23 269.73,-166.21"/>
</a>
</g>
</g>
<!-- Node10 -->
<g id="Node000010" class="node">
<title>Node10</title>
<g id="a_Node000010"><a xlink:href="kc_8cpp.html#a0458e14ed6d01fb333ea0b2a06035d87" target="_top" xlink:title=" ">
<polygon fill="white" stroke="#666666" points="221.5,-118.73 159.5,-118.73 159.5,-99.73 221.5,-99.73 221.5,-118.73"/>
<text text-anchor="middle" x="190.5" y="-106.73" font-family="Helvetica" font-size="10.00">matrix_reg</text>
</a>
</g>
</g>
<!-- Node1&#45;&gt;Node10 -->
<g id="edge9_Node000001_Node000010" class="edge">
<title>Node1&#45;&gt;Node10</title>
<g id="a_edge9_Node000001_Node000010"><a xlink:title=" ">
<path fill="none" stroke="#63b8ff" d="M288.92,-152.62C265.5,-142.19 233.79,-128.06 212.99,-118.81"/>
<polygon fill="#63b8ff" stroke="#63b8ff" points="287.52,-155.82 298.08,-156.69 290.36,-149.43 287.52,-155.82"/>
</a>
</g>
</g>
<!-- Node11 -->
<g id="Node000011" class="node">
<title>Node11</title>
<g id="a_Node000011"><a xlink:href="kc_8cpp.html#a77077c3de17b2dd212a275a4e0ff1750" target="_top" xlink:title=" ">
<polygon fill="white" stroke="#666666" points="101,-44.73 0,-44.73 0,-25.73 101,-25.73 101,-44.73"/>
<text text-anchor="middle" x="50.5" y="-32.73" font-family="Helvetica" font-size="10.00">matrix_regCoefStat</text>
</a>
</g>
</g>
<!-- Node1&#45;&gt;Node11 -->
<g id="edge10_Node000001_Node000011" class="edge">
<title>Node1&#45;&gt;Node11</title>
<g id="a_edge10_Node000001_Node000011"><a xlink:title=" ">
<path fill="none" stroke="#63b8ff" d="M316.3,-146.55C309.64,-112.89 290.83,-45.09 244,-16.23 189.39,17.42 109.11,-9.72 71.87,-25.67"/>
<polygon fill="#63b8ff" stroke="#63b8ff" points="312.88,-147.34 318.11,-156.56 319.77,-146.09 312.88,-147.34"/>
</a>
</g>
</g>
<!-- Node12 -->
<g id="Node000012" class="node">
<title>Node12</title>
<g id="a_Node000012"><a xlink:href="kc_8cpp.html#acf18fe54721a1ca7a61f70f4fdc637e3" target="_top" xlink:title=" ">
<polygon fill="white" stroke="#666666" points="244,-44.73 137,-44.73 137,-25.73 244,-25.73 244,-44.73"/>
<text text-anchor="middle" x="190.5" y="-32.73" font-family="Helvetica" font-size="10.00">matrix_regModelStat</text>
</a>
</g>
</g>
<!-- Node1&#45;&gt;Node12 -->
<g id="edge11_Node000001_Node000012" class="edge">
<title>Node1&#45;&gt;Node12</title>
<g id="a_edge11_Node000001_Node000012"><a xlink:title=" ">
<path fill="none" stroke="#63b8ff" d="M311.33,-147.27C299.76,-122.54 276.36,-79.47 244,-54.23 239.11,-50.42 233.38,-47.32 227.54,-44.83"/>
<polygon fill="#63b8ff" stroke="#63b8ff" points="308.25,-148.96 315.55,-156.64 314.63,-146.09 308.25,-148.96"/>
</a>
</g>
</g>
<!-- Node13 -->
<g id="Node000013" class="node">
<title>Node13</title>
<g id="a_Node000013"><a xlink:href="kc_8cpp.html#ad57651ec26e71d842d15f65ae9484098" target="_top" xlink:title=" ">
<polygon fill="white" stroke="#666666" points="232.5,-81.73 148.5,-81.73 148.5,-62.73 232.5,-62.73 232.5,-81.73"/>
<text text-anchor="middle" x="190.5" y="-69.73" font-family="Helvetica" font-size="10.00">matrix_regMSE</text>
</a>
</g>
</g>
<!-- Node1&#45;&gt;Node13 -->
<g id="edge12_Node000001_Node000013" class="edge">
<title>Node1&#45;&gt;Node13</title>
<g id="a_edge12_Node000001_Node000013"><a xlink:title=" ">
<path fill="none" stroke="#63b8ff" d="M305.72,-148.67C291.75,-131.89 268.72,-106.89 244,-91.23 238.1,-87.5 231.37,-84.36 224.74,-81.78"/>
<polygon fill="#63b8ff" stroke="#63b8ff" points="303.14,-151.04 312.16,-156.6 308.58,-146.63 303.14,-151.04"/>
</a>
</g>
</g>
<!-- Node3 -->
<g id="Node000003" class="node">
<title>Node3</title>
<g id="a_Node000003"><a xlink:href="kc_8cpp.html#a165e97bd10a48d3c5da908938468212b" target="_top" xlink:title=" ">
<polygon fill="white" stroke="#666666" points="90.5,-342.73 10.5,-342.73 10.5,-323.73 90.5,-323.73 90.5,-342.73"/>
<text text-anchor="middle" x="50.5" y="-330.73" font-family="Helvetica" font-size="10.00">matrix_pcaCor</text>
</a>
</g>
</g>
<!-- Node2&#45;&gt;Node3 -->
<g id="edge2_Node000002_Node000003" class="edge">
<title>Node2&#45;&gt;Node3</title>
<g id="a_edge2_Node000002_Node000003"><a xlink:title=" ">
<path fill="none" stroke="#63b8ff" d="M135.65,-333.23C120.66,-333.23 104.65,-333.23 90.68,-333.23"/>
<polygon fill="#63b8ff" stroke="#63b8ff" points="135.84,-336.73 145.84,-333.23 135.84,-329.73 135.84,-336.73"/>
</a>
</g>
</g>
<!-- Node5 -->
<g id="Node000005" class="node">
<title>Node5</title>
<g id="a_Node000005"><a xlink:href="kc_8cpp.html#ae64a3eb3736d5788d72eaf7ad6927421" target="_top" xlink:title=" ">
<polygon fill="white" stroke="#666666" points="92,-305.73 9,-305.73 9,-286.73 92,-286.73 92,-305.73"/>
<text text-anchor="middle" x="50.5" y="-293.73" font-family="Helvetica" font-size="10.00">matrix_pcaCov</text>
</a>
</g>
</g>
<!-- Node4&#45;&gt;Node5 -->
<g id="edge4_Node000004_Node000005" class="edge">
<title>Node4&#45;&gt;Node5</title>
<g id="a_edge4_Node000004_Node000005"><a xlink:title=" ">
<path fill="none" stroke="#63b8ff" d="M134.25,-296.23C120.18,-296.23 105.32,-296.23 92.13,-296.23"/>
<polygon fill="#63b8ff" stroke="#63b8ff" points="134.31,-299.73 144.31,-296.23 134.31,-292.73 134.31,-299.73"/>
</a>
</g>
</g>
<!-- Node8&#45;&gt;Node9 -->
<g id="edge8_Node000008_Node000009" class="edge">
<title>Node8&#45;&gt;Node9</title>
<g id="a_edge8_Node000008_Node000009"><a xlink:title=" ">
<path fill="none" stroke="#63b8ff" d="M145.03,-172.99C126.01,-167.75 104.12,-161.72 86.31,-156.82"/>
<polygon fill="#63b8ff" stroke="#63b8ff" points="144.11,-176.36 154.68,-175.64 145.96,-169.62 144.11,-176.36"/>
</a>
</g>
</g>
<!-- Node13&#45;&gt;Node9 -->
<g id="edge14_Node000013_Node000009" class="edge">
<title>Node13&#45;&gt;Node9</title>
<g id="a_edge14_Node000013_Node000009"><a xlink:title=" ">
<path fill="none" stroke="#63b8ff" d="M149.76,-85.49C145.39,-87.28 141.06,-89.2 137,-91.23 109.54,-104.96 80.15,-125.71 63.98,-137.72"/>
<polygon fill="#63b8ff" stroke="#63b8ff" points="151.22,-88.68 159.29,-81.81 148.7,-82.15 151.22,-88.68"/>
</a>
</g>
</g>
<!-- Node13&#45;&gt;Node11 -->
<g id="edge13_Node000013_Node000011" class="edge">
<title>Node13&#45;&gt;Node11</title>
<g id="a_edge13_Node000013_Node000011"><a xlink:title=" ">
<path fill="none" stroke="#63b8ff" d="M144.29,-60.11C125.83,-55.16 104.78,-49.52 87.4,-44.86"/>
<polygon fill="#63b8ff" stroke="#63b8ff" points="143.4,-63.5 153.96,-62.71 145.21,-56.73 143.4,-63.5"/>
</a>
</g>
</g>
</g>
</svg>
