<?xml version="1.0" encoding="UTF-8" standalone="no"?>
<!DOCTYPE svg PUBLIC "-//W3C//DTD SVG 1.1//EN"
 "http://www.w3.org/Graphics/SVG/1.1/DTD/svg11.dtd">
<!-- Generated by graphviz version 2.44.0 (0)
 -->
<!-- Title: matrix_pcaCor Pages: 1 -->
<svg width="580pt" height="456pt"
 viewBox="0.00 0.00 580.00 455.91" xmlns="http://www.w3.org/2000/svg" xmlns:xlink="http://www.w3.org/1999/xlink">
<g id="graph0" class="graph" transform="scale(1 1) rotate(0) translate(4 451.91)">
<title>matrix_pcaCor</title>
<!-- Node1 -->
<g id="Node000001" class="node">
<title>Node1</title>
<g id="a_Node000001"><a xlink:title=" ">
<polygon fill="#999999" stroke="#666666" points="80,-151 0,-151 0,-132 80,-132 80,-151"/>
<text text-anchor="middle" x="40" y="-139" font-family="Helvetica" font-size="10.00">matrix_pcaCor</text>
</a>
</g>
</g>
<!-- Node2 -->
<g id="Node000002" class="node">
<title>Node2</title>
<g id="a_Node000002"><a xlink:href="kc_8cpp.html#a865598a7017730b2bdf24cf6269d0f23" target="_top" xlink:title=" ">
<polygon fill="white" stroke="#666666" points="212,-56 126,-56 126,-37 212,-37 212,-56"/>
<text text-anchor="middle" x="169" y="-44" font-family="Helvetica" font-size="10.00">matrix_colMean</text>
</a>
</g>
</g>
<!-- Node1&#45;&gt;Node2 -->
<g id="edge1_Node000001_Node000002" class="edge">
<title>Node1&#45;&gt;Node2</title>
<g id="a_edge1_Node000001_Node000002"><a xlink:title=" ">
<path fill="none" stroke="#63b8ff" d="M49.4,-131.72C62.47,-116.96 88.98,-88.8 116,-70.5 121.46,-66.8 127.57,-63.41 133.64,-60.42"/>
<polygon fill="#63b8ff" stroke="#63b8ff" points="135.45,-63.44 143.04,-56.05 132.5,-57.09 135.45,-63.44"/>
</a>
</g>
</g>
<!-- Node4 -->
<g id="Node000004" class="node">
<title>Node4</title>
<g id="a_Node000004"><a xlink:href="kc_8cpp.html#afc00baa57142e5db16101ade3200eea8" target="_top" xlink:title=" ">
<polygon fill="white" stroke="#666666" points="332,-132 267,-132 267,-113 332,-113 332,-132"/>
<text text-anchor="middle" x="299.5" y="-120" font-family="Helvetica" font-size="10.00">vector_free</text>
</a>
</g>
</g>
<!-- Node1&#45;&gt;Node4 -->
<g id="edge27_Node000001_Node000004" class="edge">
<title>Node1&#45;&gt;Node4</title>
<g id="a_edge27_Node000001_Node000004"><a xlink:title=" ">
<path fill="none" stroke="#63b8ff" d="M80,-144.22C116.77,-146.15 173.34,-147.45 222,-141.5 233.77,-140.06 246.33,-137.42 257.8,-134.56"/>
<polygon fill="#63b8ff" stroke="#63b8ff" points="258.77,-137.92 267.56,-132.01 257,-131.15 258.77,-137.92"/>
</a>
</g>
</g>
<!-- Node5 -->
<g id="Node000005" class="node">
<title>Node5</title>
<g id="a_Node000005"><a xlink:href="kc_8cpp.html#a155bb2cc033bfd9bafbde8d31432f7ad" target="_top" xlink:title=" ">
<polygon fill="white" stroke="#666666" points="332.5,-94 266.5,-94 266.5,-75 332.5,-75 332.5,-94"/>
<text text-anchor="middle" x="299.5" y="-82" font-family="Helvetica" font-size="10.00">vector_new</text>
</a>
</g>
</g>
<!-- Node1&#45;&gt;Node5 -->
<g id="edge28_Node000001_Node000005" class="edge">
<title>Node1&#45;&gt;Node5</title>
<g id="a_edge28_Node000001_Node000005"><a xlink:title=" ">
<path fill="none" stroke="#63b8ff" d="M56.44,-131.88C71.16,-123.19 94.26,-110.84 116,-104.5 162.71,-90.88 218.6,-86.39 256.12,-84.99"/>
<polygon fill="#63b8ff" stroke="#63b8ff" points="256.31,-88.48 266.19,-84.67 256.09,-81.49 256.31,-88.48"/>
</a>
</g>
</g>
<!-- Node6 -->
<g id="Node000006" class="node">
<title>Node6</title>
<g id="a_Node000006"><a xlink:href="kc_8cpp.html#a673ed8b4d0eee5e7e60df48435e0d8ba" target="_top" xlink:title=" ">
<polygon fill="white" stroke="#666666" points="213.5,-321 124.5,-321 124.5,-302 213.5,-302 213.5,-321"/>
<text text-anchor="middle" x="169" y="-309" font-family="Helvetica" font-size="10.00">matrix_corMatrix</text>
</a>
</g>
</g>
<!-- Node1&#45;&gt;Node6 -->
<g id="edge5_Node000001_Node000006" class="edge">
<title>Node1&#45;&gt;Node6</title>
<g id="a_edge5_Node000001_Node000006"><a xlink:title=" ">
<path fill="none" stroke="#63b8ff" d="M48.19,-151.13C68.8,-178.71 128.28,-258.33 154.88,-293.93"/>
<polygon fill="#63b8ff" stroke="#63b8ff" points="152.1,-296.06 160.89,-301.98 157.71,-291.87 152.1,-296.06"/>
</a>
</g>
</g>
<!-- Node8 -->
<g id="Node000008" class="node">
<title>Node8</title>
<g id="a_Node000008"><a xlink:href="kc_8cpp.html#ac75528b11a2997977101b6e9ded2c7cf" target="_top" xlink:title=" ">
<polygon fill="white" stroke="#666666" points="572,-414 505,-414 505,-395 572,-395 572,-414"/>
<text text-anchor="middle" x="538.5" y="-402" font-family="Helvetica" font-size="10.00">matrix_new</text>
</a>
</g>
</g>
<!-- Node1&#45;&gt;Node8 -->
<g id="edge25_Node000001_Node000008" class="edge">
<title>Node1&#45;&gt;Node8</title>
<g id="a_edge25_Node000001_Node000008"><a xlink:title=" ">
<path fill="none" stroke="#63b8ff" d="M43.04,-151.41C49.49,-181.04 71.75,-270.58 116,-330.5 164.08,-395.61 181.65,-417.65 258,-444.5 280.69,-452.48 452.89,-443.71 469,-439.5 485.12,-435.29 501.79,-426.87 514.65,-419.35"/>
<polygon fill="#63b8ff" stroke="#63b8ff" points="516.55,-422.29 523.28,-414.1 512.92,-416.31 516.55,-422.29"/>
</a>
</g>
</g>
<!-- Node9 -->
<g id="Node000009" class="node">
<title>Node9</title>
<g id="a_Node000009"><a xlink:href="kc_8cpp.html#aa517f6dc1cd623e0f2fdc5f0f9ab8534" target="_top" xlink:title=" ">
<polygon fill="white" stroke="#666666" points="455.5,-246 390.5,-246 390.5,-227 455.5,-227 455.5,-246"/>
<text text-anchor="middle" x="423" y="-234" font-family="Helvetica" font-size="10.00">matrix_free</text>
</a>
</g>
</g>
<!-- Node1&#45;&gt;Node9 -->
<g id="edge24_Node000001_Node000009" class="edge">
<title>Node1&#45;&gt;Node9</title>
<g id="a_edge24_Node000001_Node000009"><a xlink:title=" ">
<path fill="none" stroke="#63b8ff" d="M79.28,-151.04C151.19,-168.97 305.91,-207.55 380.34,-226.11"/>
<polygon fill="#63b8ff" stroke="#63b8ff" points="379.74,-229.57 390.29,-228.59 381.43,-222.78 379.74,-229.57"/>
</a>
</g>
</g>
<!-- Node17 -->
<g id="Node000017" class="node">
<title>Node17</title>
<g id="a_Node000017"><a xlink:href="kc_8cpp.html#a68b4f000503d404e2dcd3b4cdbae952f" target="_top" xlink:title=" ">
<polygon fill="white" stroke="#666666" points="205,-132 133,-132 133,-113 205,-113 205,-132"/>
<text text-anchor="middle" x="169" y="-120" font-family="Helvetica" font-size="10.00">matrix_eigen</text>
</a>
</g>
</g>
<!-- Node1&#45;&gt;Node17 -->
<g id="edge21_Node000001_Node000017" class="edge">
<title>Node1&#45;&gt;Node17</title>
<g id="a_edge21_Node000001_Node000017"><a xlink:title=" ">
<path fill="none" stroke="#63b8ff" d="M80.14,-135.64C93.5,-133.65 108.55,-131.39 122.37,-129.33"/>
<polygon fill="#63b8ff" stroke="#63b8ff" points="123.28,-132.73 132.66,-127.79 122.25,-125.81 123.28,-132.73"/>
</a>
</g>
</g>
<!-- Node18 -->
<g id="Node000018" class="node">
<title>Node18</title>
<g id="a_Node000018"><a xlink:href="kc_8cpp.html#a6f44909f9dcb95b38fe728721b011fca" target="_top" xlink:title=" ">
<polygon fill="white" stroke="#666666" points="222,-19 116,-19 116,0 222,0 222,-19"/>
<text text-anchor="middle" x="169" y="-7" font-family="Helvetica" font-size="10.00">matrix_sortByVector</text>
</a>
</g>
</g>
<!-- Node1&#45;&gt;Node18 -->
<g id="edge26_Node000001_Node000018" class="edge">
<title>Node1&#45;&gt;Node18</title>
<g id="a_edge26_Node000001_Node000018"><a xlink:title=" ">
<path fill="none" stroke="#63b8ff" d="M44.83,-131.7C53.86,-109.81 78.6,-56.59 116,-27.5 117.78,-26.12 119.67,-24.84 121.63,-23.65"/>
<polygon fill="#63b8ff" stroke="#63b8ff" points="123.34,-26.71 130.65,-19.04 120.15,-20.48 123.34,-26.71"/>
</a>
</g>
</g>
<!-- Node3 -->
<g id="Node000003" class="node">
<title>Node3</title>
<g id="a_Node000003"><a xlink:href="kc_8cpp.html#ab01d6eb051febfe28b8ac2987dcfe524" target="_top" xlink:title=" ">
<polygon fill="white" stroke="#666666" points="559,-160 518,-160 518,-141 559,-141 559,-160"/>
<text text-anchor="middle" x="538.5" y="-148" font-family="Helvetica" font-size="10.00">mean</text>
</a>
</g>
</g>
<!-- Node2&#45;&gt;Node3 -->
<g id="edge2_Node000002_Node000003" class="edge">
<title>Node2&#45;&gt;Node3</title>
<g id="a_edge2_Node000002_Node000003"><a xlink:title=" ">
<path fill="none" stroke="#63b8ff" d="M212.1,-47.7C247.11,-49.52 297.98,-54.08 341,-65.5 404.65,-82.4 474.31,-116.62 511.18,-136.09"/>
<polygon fill="#63b8ff" stroke="#63b8ff" points="509.78,-139.31 520.25,-140.93 513.08,-133.14 509.78,-139.31"/>
</a>
</g>
</g>
<!-- Node2&#45;&gt;Node4 -->
<g id="edge3_Node000002_Node000004" class="edge">
<title>Node2&#45;&gt;Node4</title>
<g id="a_edge3_Node000002_Node000004"><a xlink:title=" ">
<path fill="none" stroke="#63b8ff" d="M183.66,-56.18C200.66,-68.04 230.78,-88.39 258,-103.5 261.08,-105.21 264.34,-106.91 267.62,-108.55"/>
<polygon fill="#63b8ff" stroke="#63b8ff" points="266.26,-111.78 276.79,-112.98 269.3,-105.48 266.26,-111.78"/>
</a>
</g>
</g>
<!-- Node2&#45;&gt;Node5 -->
<g id="edge4_Node000002_Node000005" class="edge">
<title>Node2&#45;&gt;Node5</title>
<g id="a_edge4_Node000002_Node000005"><a xlink:title=" ">
<path fill="none" stroke="#63b8ff" d="M202.43,-56.09C218.71,-60.9 238.64,-66.8 256.12,-71.97"/>
<polygon fill="#63b8ff" stroke="#63b8ff" points="255.5,-75.43 266.08,-74.91 257.49,-68.72 255.5,-75.43"/>
</a>
</g>
</g>
<!-- Node7 -->
<g id="Node000007" class="node">
<title>Node7</title>
<g id="a_Node000007"><a xlink:href="kc_8cpp.html#a487b6171c617a9bdb3b3337dab2fc046" target="_top" xlink:title=" ">
<polygon fill="white" stroke="#666666" points="458,-377 388,-377 388,-358 458,-358 458,-377"/>
<text text-anchor="middle" x="423" y="-365" font-family="Helvetica" font-size="10.00">matrix_copy</text>
</a>
</g>
</g>
<!-- Node6&#45;&gt;Node7 -->
<g id="edge6_Node000006_Node000007" class="edge">
<title>Node6&#45;&gt;Node7</title>
<g id="a_edge6_Node000006_Node000007"><a xlink:title=" ">
<path fill="none" stroke="#63b8ff" d="M190.53,-321.02C208.08,-328.77 234.2,-339.4 258,-345.5 297.8,-355.71 344.32,-361.37 377.62,-364.39"/>
<polygon fill="#63b8ff" stroke="#63b8ff" points="377.68,-367.91 387.95,-365.28 378.28,-360.93 377.68,-367.91"/>
</a>
</g>
</g>
<!-- Node6&#45;&gt;Node9 -->
<g id="edge8_Node000006_Node000009" class="edge">
<title>Node6&#45;&gt;Node9</title>
<g id="a_edge8_Node000006_Node000009"><a xlink:title=" ">
<path fill="none" stroke="#63b8ff" d="M181.65,-301.84C197.72,-289.1 228.11,-267.07 258,-256.5 297.95,-242.37 346.4,-237.89 380.24,-236.62"/>
<polygon fill="#63b8ff" stroke="#63b8ff" points="380.35,-240.12 390.25,-236.33 380.15,-233.13 380.35,-240.12"/>
</a>
</g>
</g>
<!-- Node10 -->
<g id="Node000010" class="node">
<title>Node10</title>
<g id="a_Node000010"><a xlink:href="kc_8cpp.html#a434b0afbcca14a331a887ef5f456cef9" target="_top" xlink:title=" ">
<polygon fill="white" stroke="#666666" points="341,-284 258,-284 258,-265 341,-265 341,-284"/>
<text text-anchor="middle" x="299.5" y="-272" font-family="Helvetica" font-size="10.00">matrix_multiply</text>
</a>
</g>
</g>
<!-- Node6&#45;&gt;Node10 -->
<g id="edge9_Node000006_Node000010" class="edge">
<title>Node6&#45;&gt;Node10</title>
<g id="a_edge9_Node000006_Node000010"><a xlink:title=" ">
<path fill="none" stroke="#63b8ff" d="M203.09,-301.97C219.01,-297.39 238.28,-291.84 255.33,-286.93"/>
<polygon fill="#63b8ff" stroke="#63b8ff" points="256.43,-290.26 265.07,-284.12 254.5,-283.53 256.43,-290.26"/>
</a>
</g>
</g>
<!-- Node11 -->
<g id="Node000011" class="node">
<title>Node11</title>
<g id="a_Node000011"><a xlink:href="kc_8cpp.html#aef4d42f4197a1db7f6667dc7ea67956b" target="_top" xlink:title=" ">
<polygon fill="white" stroke="#666666" points="340,-435 259,-435 259,-416 340,-416 340,-435"/>
<text text-anchor="middle" x="299.5" y="-423" font-family="Helvetica" font-size="10.00">matrix_product</text>
</a>
</g>
</g>
<!-- Node6&#45;&gt;Node11 -->
<g id="edge10_Node000006_Node000011" class="edge">
<title>Node6&#45;&gt;Node11</title>
<g id="a_edge10_Node000006_Node000011"><a xlink:title=" ">
<path fill="none" stroke="#63b8ff" d="M178.02,-321.25C192.69,-338.7 225.35,-375.85 258,-401.5 262.15,-404.76 266.79,-407.9 271.4,-410.78"/>
<polygon fill="#63b8ff" stroke="#63b8ff" points="269.71,-413.85 280.1,-415.95 273.29,-407.83 269.71,-413.85"/>
</a>
</g>
</g>
<!-- Node13 -->
<g id="Node000013" class="node">
<title>Node13</title>
<g id="a_Node000013"><a xlink:href="kc_8cpp.html#aa824316c0d7768e230ae809a3e679a66" target="_top" xlink:title=" ">
<polygon fill="white" stroke="#666666" points="338,-321 261,-321 261,-302 338,-302 338,-321"/>
<text text-anchor="middle" x="299.5" y="-309" font-family="Helvetica" font-size="10.00">matrix_stdCol</text>
</a>
</g>
</g>
<!-- Node6&#45;&gt;Node13 -->
<g id="edge13_Node000006_Node000013" class="edge">
<title>Node6&#45;&gt;Node13</title>
<g id="a_edge13_Node000006_Node000013"><a xlink:title=" ">
<path fill="none" stroke="#63b8ff" d="M213.5,-311.5C225.33,-311.5 238.21,-311.5 250.28,-311.5"/>
<polygon fill="#63b8ff" stroke="#63b8ff" points="250.63,-315 260.63,-311.5 250.63,-308 250.63,-315"/>
</a>
</g>
</g>
<!-- Node16 -->
<g id="Node000016" class="node">
<title>Node16</title>
<g id="a_Node000016"><a xlink:href="kc_8cpp.html#a89a2987a60a852f56603492790999aba" target="_top" xlink:title=" ">
<polygon fill="white" stroke="#666666" points="469,-340 377,-340 377,-321 469,-321 469,-340"/>
<text text-anchor="middle" x="423" y="-328" font-family="Helvetica" font-size="10.00">matrix_transpose</text>
</a>
</g>
</g>
<!-- Node6&#45;&gt;Node16 -->
<g id="edge20_Node000006_Node000016" class="edge">
<title>Node6&#45;&gt;Node16</title>
<g id="a_edge20_Node000006_Node000016"><a xlink:title=" ">
<path fill="none" stroke="#63b8ff" d="M205.68,-321.01C221.57,-324.77 240.59,-328.64 258,-330.5 294.15,-334.36 335.03,-334.37 366.94,-333.41"/>
<polygon fill="#63b8ff" stroke="#63b8ff" points="367.09,-336.9 376.97,-333.07 366.85,-329.91 367.09,-336.9"/>
</a>
</g>
</g>
<!-- Node7&#45;&gt;Node8 -->
<g id="edge7_Node000007_Node000008" class="edge">
<title>Node7&#45;&gt;Node8</title>
<g id="a_edge7_Node000007_Node000008"><a xlink:title=" ">
<path fill="none" stroke="#63b8ff" d="M453.23,-377.03C466.89,-381.48 483.36,-386.85 498.1,-391.66"/>
<polygon fill="#63b8ff" stroke="#63b8ff" points="497.38,-395.1 507.98,-394.88 499.55,-388.45 497.38,-395.1"/>
</a>
</g>
</g>
<!-- Node11&#45;&gt;Node8 -->
<g id="edge11_Node000011_Node000008" class="edge">
<title>Node11&#45;&gt;Node8</title>
<g id="a_edge11_Node000011_Node000008"><a xlink:title=" ">
<path fill="none" stroke="#63b8ff" d="M340.21,-427.9C374.5,-429.3 425.26,-429.72 469,-423.5 479.07,-422.07 489.75,-419.59 499.61,-416.89"/>
<polygon fill="#63b8ff" stroke="#63b8ff" points="500.88,-420.16 509.52,-414.03 498.94,-413.44 500.88,-420.16"/>
</a>
</g>
</g>
<!-- Node12 -->
<g id="Node000012" class="node">
<title>Node12</title>
<g id="a_Node000012"><a xlink:href="kc_8cpp.html#adbdc6116401c49523c4c62dde6147310" target="_top" xlink:title=" ">
<polygon fill="white" stroke="#666666" points="456.5,-414 389.5,-414 389.5,-395 456.5,-395 456.5,-414"/>
<text text-anchor="middle" x="423" y="-402" font-family="Helvetica" font-size="10.00">matrix_zero</text>
</a>
</g>
</g>
<!-- Node11&#45;&gt;Node12 -->
<g id="edge12_Node000011_Node000012" class="edge">
<title>Node11&#45;&gt;Node12</title>
<g id="a_edge12_Node000011_Node000012"><a xlink:title=" ">
<path fill="none" stroke="#63b8ff" d="M340.28,-418.62C352.84,-416.45 366.77,-414.05 379.51,-411.84"/>
<polygon fill="#63b8ff" stroke="#63b8ff" points="380.17,-415.28 389.43,-410.13 378.98,-408.38 380.17,-415.28"/>
</a>
</g>
</g>
<!-- Node13&#45;&gt;Node9 -->
<g id="edge14_Node000013_Node000009" class="edge">
<title>Node13&#45;&gt;Node9</title>
<g id="a_edge14_Node000013_Node000009"><a xlink:title=" ">
<path fill="none" stroke="#63b8ff" d="M324.54,-301.97C330.08,-299.46 335.85,-296.58 341,-293.5 358.39,-283.08 360.46,-277.22 377,-265.5 383.57,-260.84 390.84,-256.02 397.6,-251.67"/>
<polygon fill="#63b8ff" stroke="#63b8ff" points="399.8,-254.42 406.36,-246.1 396.05,-248.51 399.8,-254.42"/>
</a>
</g>
</g>
<!-- Node14 -->
<g id="Node000014" class="node">
<title>Node14</title>
<g id="a_Node000014"><a xlink:href="kc_8cpp.html#a1e079ca755a3861bccd94f64677e1d54" target="_top" xlink:title=" ">
<polygon fill="white" stroke="#666666" points="464.5,-293 381.5,-293 381.5,-274 464.5,-274 464.5,-293"/>
<text text-anchor="middle" x="423" y="-281" font-family="Helvetica" font-size="10.00">matrix_stdRow</text>
</a>
</g>
</g>
<!-- Node13&#45;&gt;Node14 -->
<g id="edge15_Node000013_Node000014" class="edge">
<title>Node13&#45;&gt;Node14</title>
<g id="a_edge15_Node000013_Node000014"><a xlink:title=" ">
<path fill="none" stroke="#63b8ff" d="M338.28,-302.79C348.73,-300.39 360.25,-297.73 371.31,-295.18"/>
<polygon fill="#63b8ff" stroke="#63b8ff" points="372.34,-298.54 381.29,-292.88 370.76,-291.72 372.34,-298.54"/>
</a>
</g>
</g>
<!-- Node13&#45;&gt;Node16 -->
<g id="edge18_Node000013_Node000016" class="edge">
<title>Node13&#45;&gt;Node16</title>
<g id="a_edge18_Node000013_Node000016"><a xlink:title=" ">
<path fill="none" stroke="#63b8ff" d="M338.28,-317.41C347.38,-318.83 357.28,-320.38 366.99,-321.9"/>
<polygon fill="#63b8ff" stroke="#63b8ff" points="366.57,-325.38 377,-323.46 367.66,-318.46 366.57,-325.38"/>
</a>
</g>
</g>
<!-- Node14&#45;&gt;Node3 -->
<g id="edge17_Node000014_Node000003" class="edge">
<title>Node14&#45;&gt;Node3</title>
<g id="a_edge17_Node000014_Node000003"><a xlink:title=" ">
<path fill="none" stroke="#63b8ff" d="M443.26,-273.98C451.76,-269.19 461.5,-262.84 469,-255.5 495.44,-229.62 516.97,-191.82 528.45,-169.34"/>
<polygon fill="#63b8ff" stroke="#63b8ff" points="531.68,-170.69 533,-160.18 525.41,-167.58 531.68,-170.69"/>
</a>
</g>
</g>
<!-- Node15 -->
<g id="Node000015" class="node">
<title>Node15</title>
<g id="a_Node000015"><a xlink:href="kc_8cpp.html#ae263d464ebb9d7304f3c8043c41622b7" target="_top" xlink:title=" ">
<polygon fill="white" stroke="#666666" points="560.5,-293 516.5,-293 516.5,-274 560.5,-274 560.5,-293"/>
<text text-anchor="middle" x="538.5" y="-281" font-family="Helvetica" font-size="10.00">avevar</text>
</a>
</g>
</g>
<!-- Node14&#45;&gt;Node15 -->
<g id="edge16_Node000014_Node000015" class="edge">
<title>Node14&#45;&gt;Node15</title>
<g id="a_edge16_Node000014_Node000015"><a xlink:title=" ">
<path fill="none" stroke="#63b8ff" d="M464.66,-283.5C478.27,-283.5 493.24,-283.5 506.04,-283.5"/>
<polygon fill="#63b8ff" stroke="#63b8ff" points="506.21,-287 516.21,-283.5 506.21,-280 506.21,-287"/>
</a>
</g>
</g>
<!-- Node16&#45;&gt;Node8 -->
<g id="edge19_Node000016_Node000008" class="edge">
<title>Node16&#45;&gt;Node8</title>
<g id="a_edge19_Node000016_Node000008"><a xlink:title=" ">
<path fill="none" stroke="#63b8ff" d="M450.3,-340.16C456.59,-342.86 463.17,-346.02 469,-349.5 487.65,-360.63 506.76,-376.4 520.03,-388.2"/>
<polygon fill="#63b8ff" stroke="#63b8ff" points="517.73,-390.84 527.49,-394.96 522.43,-385.65 517.73,-390.84"/>
</a>
</g>
</g>
<!-- Node17&#45;&gt;Node4 -->
<g id="edge22_Node000017_Node000004" class="edge">
<title>Node17&#45;&gt;Node4</title>
<g id="a_edge22_Node000017_Node000004"><a xlink:title=" ">
<path fill="none" stroke="#63b8ff" d="M205.11,-122.5C221.11,-122.5 240.17,-122.5 256.89,-122.5"/>
<polygon fill="#63b8ff" stroke="#63b8ff" points="256.94,-126 266.94,-122.5 256.94,-119 256.94,-126"/>
</a>
</g>
</g>
<!-- Node17&#45;&gt;Node5 -->
<g id="edge23_Node000017_Node000005" class="edge">
<title>Node17&#45;&gt;Node5</title>
<g id="a_edge23_Node000017_Node000005"><a xlink:title=" ">
<path fill="none" stroke="#63b8ff" d="M202.43,-112.91C218.71,-108.1 238.64,-102.2 256.12,-97.03"/>
<polygon fill="#63b8ff" stroke="#63b8ff" points="257.49,-100.28 266.08,-94.09 255.5,-93.57 257.49,-100.28"/>
</a>
</g>
</g>
</g>
</svg>
