<?xml version="1.0" encoding="UTF-8" standalone="no"?>
<!DOCTYPE svg PUBLIC "-//W3C//DTD SVG 1.1//EN"
 "http://www.w3.org/Graphics/SVG/1.1/DTD/svg11.dtd">
<!-- Generated by graphviz version 2.44.0 (0)
 -->
<!-- Title: dmatrix Pages: 1 -->
<svg width="624pt" height="102pt"
 viewBox="0.00 0.00 624.00 102.00" xmlns="http://www.w3.org/2000/svg" xmlns:xlink="http://www.w3.org/1999/xlink">
<g id="graph0" class="graph" transform="scale(1 1) rotate(0) translate(4 98)">
<title>dmatrix</title>
<!-- Node1 -->
<g id="Node000001" class="node">
<title>Node1</title>
<g id="a_Node000001"><a xlink:title=" ">
<polygon fill="#999999" stroke="#666666" points="616,-57 567,-57 567,-38 616,-38 616,-57"/>
<text text-anchor="middle" x="591.5" y="-45" font-family="Helvetica" font-size="10.00">dmatrix</text>
</a>
</g>
</g>
<!-- Node2 -->
<g id="Node000002" class="node">
<title>Node2</title>
<g id="a_Node000002"><a xlink:href="khmm_8cpp.html#a5ee9a227e8068bbf43d6fb3a19221cc1" target="_top" xlink:title="Read an HMM from a file.">
<polygon fill="white" stroke="#666666" points="378.5,-94 308.5,-94 308.5,-75 378.5,-75 378.5,-94"/>
<text text-anchor="middle" x="343.5" y="-82" font-family="Helvetica" font-size="10.00">ReadCHMM</text>
</a>
</g>
</g>
<!-- Node1&#45;&gt;Node2 -->
<g id="edge1_Node000001_Node000002" class="edge">
<title>Node1&#45;&gt;Node2</title>
<g id="a_edge1_Node000001_Node000002"><a xlink:title=" ">
<path fill="none" stroke="#63b8ff" d="M556.98,-56.06C548.54,-58.03 539.47,-59.99 531,-61.5 478.17,-70.94 416.23,-77.75 378.7,-81.41"/>
<polygon fill="#63b8ff" stroke="#63b8ff" points="557.98,-59.42 566.88,-53.68 556.34,-52.61 557.98,-59.42"/>
</a>
</g>
</g>
<!-- Node6 -->
<g id="Node000006" class="node">
<title>Node6</title>
<g id="a_Node000006"><a xlink:href="khmm_8cpp.html#ac44ba55ccbb73d2b015ca7537479381e" target="_top" xlink:title="Run the main HMM algorithm.">
<polygon fill="white" stroke="#666666" points="384,-57 303,-57 303,-38 384,-38 384,-57"/>
<text text-anchor="middle" x="343.5" y="-45" font-family="Helvetica" font-size="10.00">testVit_CHMM</text>
</a>
</g>
</g>
<!-- Node1&#45;&gt;Node6 -->
<g id="edge5_Node000001_Node000006" class="edge">
<title>Node1&#45;&gt;Node6</title>
<g id="a_edge5_Node000001_Node000006"><a xlink:title=" ">
<path fill="none" stroke="#63b8ff" d="M556.78,-47.5C511.72,-47.5 432,-47.5 384.12,-47.5"/>
<polygon fill="#63b8ff" stroke="#63b8ff" points="556.91,-51 566.91,-47.5 556.91,-44 556.91,-51"/>
</a>
</g>
</g>
<!-- Node7 -->
<g id="Node000007" class="node">
<title>Node7</title>
<g id="a_Node000007"><a xlink:href="khmm_8cpp.html#a51dbadd369b498ec093b590f39e8ea96" target="_top" xlink:title="Viterbi algorithm.">
<polygon fill="white" stroke="#666666" points="531,-19 420,-19 420,0 531,0 531,-19"/>
<text text-anchor="middle" x="475.5" y="-7" font-family="Helvetica" font-size="10.00">ViterbiLogNP_CHMM</text>
</a>
</g>
</g>
<!-- Node1&#45;&gt;Node7 -->
<g id="edge7_Node000001_Node000007" class="edge">
<title>Node1&#45;&gt;Node7</title>
<g id="a_edge7_Node000001_Node000007"><a xlink:title=" ">
<path fill="none" stroke="#63b8ff" d="M557.13,-36.38C540.71,-30.9 521.11,-24.37 505.35,-19.12"/>
<polygon fill="#63b8ff" stroke="#63b8ff" points="556.29,-39.78 566.88,-39.63 558.5,-33.14 556.29,-39.78"/>
</a>
</g>
</g>
<!-- Node3 -->
<g id="Node000003" class="node">
<title>Node3</title>
<g id="a_Node000003"><a xlink:href="class_c_n_v_caller.html#a49824c662095f9af9a38056dadc8933f" target="_top" xlink:title=" ">
<polygon fill="white" stroke="#666666" points="267,-75 185,-75 185,-56 267,-56 267,-75"/>
<text text-anchor="middle" x="226" y="-63" font-family="Helvetica" font-size="10.00">CNVCaller::run</text>
</a>
</g>
</g>
<!-- Node2&#45;&gt;Node3 -->
<g id="edge2_Node000002_Node000003" class="edge">
<title>Node2&#45;&gt;Node3</title>
<g id="a_edge2_Node000002_Node000003"><a xlink:title=" ">
<path fill="none" stroke="#63b8ff" d="M298.48,-77.26C288.24,-75.57 277.38,-73.79 267.31,-72.13"/>
<polygon fill="#63b8ff" stroke="#63b8ff" points="298.04,-80.73 308.47,-78.9 299.17,-73.83 298.04,-80.73"/>
</a>
</g>
</g>
<!-- Node4 -->
<g id="Node000004" class="node">
<title>Node4</title>
<g id="a_Node000004"><a xlink:href="class_context_s_v.html#ac9d32b6e28e5bfdf10e314db0e90e4cd" target="_top" xlink:title=" ">
<polygon fill="white" stroke="#666666" points="149,-75 66,-75 66,-56 149,-56 149,-75"/>
<text text-anchor="middle" x="107.5" y="-63" font-family="Helvetica" font-size="10.00">ContextSV::run</text>
</a>
</g>
</g>
<!-- Node3&#45;&gt;Node4 -->
<g id="edge3_Node000003_Node000004" class="edge">
<title>Node3&#45;&gt;Node4</title>
<g id="a_edge3_Node000003_Node000004"><a xlink:title=" ">
<path fill="none" stroke="#63b8ff" d="M174.65,-65.5C166.1,-65.5 157.32,-65.5 149.06,-65.5"/>
<polygon fill="#63b8ff" stroke="#63b8ff" points="174.91,-69 184.91,-65.5 174.91,-62 174.91,-69"/>
</a>
</g>
</g>
<!-- Node5 -->
<g id="Node000005" class="node">
<title>Node5</title>
<g id="a_Node000005"><a xlink:href="swig__interface_8cpp.html#ade07e2f2bb85b7aaac8af156f3e962f6" target="_top" xlink:title=" ">
<polygon fill="white" stroke="#666666" points="30,-75 0,-75 0,-56 30,-56 30,-75"/>
<text text-anchor="middle" x="15" y="-63" font-family="Helvetica" font-size="10.00">run</text>
</a>
</g>
</g>
<!-- Node4&#45;&gt;Node5 -->
<g id="edge4_Node000004_Node000005" class="edge">
<title>Node4&#45;&gt;Node5</title>
<g id="a_edge4_Node000004_Node000005"><a xlink:title=" ">
<path fill="none" stroke="#63b8ff" d="M55.56,-65.5C46.21,-65.5 37.19,-65.5 30.13,-65.5"/>
<polygon fill="#63b8ff" stroke="#63b8ff" points="55.75,-69 65.75,-65.5 55.75,-62 55.75,-69"/>
</a>
</g>
</g>
<!-- Node6&#45;&gt;Node3 -->
<g id="edge6_Node000006_Node000003" class="edge">
<title>Node6&#45;&gt;Node3</title>
<g id="a_edge6_Node000006_Node000003"><a xlink:title=" ">
<path fill="none" stroke="#63b8ff" d="M292.86,-55.24C284.29,-56.57 275.49,-57.94 267.21,-59.23"/>
<polygon fill="#63b8ff" stroke="#63b8ff" points="293.41,-58.69 302.75,-53.69 292.33,-51.78 293.41,-58.69"/>
</a>
</g>
</g>
<!-- Node7&#45;&gt;Node6 -->
<g id="edge8_Node000007_Node000006" class="edge">
<title>Node7&#45;&gt;Node6</title>
<g id="a_edge8_Node000007_Node000006"><a xlink:title=" ">
<path fill="none" stroke="#63b8ff" d="M431.62,-22.04C413.93,-27.2 393.77,-33.1 377.29,-37.91"/>
<polygon fill="#63b8ff" stroke="#63b8ff" points="433.08,-25.25 441.7,-19.09 431.12,-18.54 433.08,-25.25"/>
</a>
</g>
</g>
</g>
</svg>
