<?xml version="1.0" encoding="UTF-8" standalone="no"?>
<!DOCTYPE svg PUBLIC "-//W3C//DTD SVG 1.1//EN"
 "http://www.w3.org/Graphics/SVG/1.1/DTD/svg11.dtd">
<!-- Generated by graphviz version 2.44.0 (0)
 -->
<!-- Title: vectori_new Pages: 1 -->
<svg width="335pt" height="212pt"
 viewBox="0.00 0.00 335.00 212.00" xmlns="http://www.w3.org/2000/svg" xmlns:xlink="http://www.w3.org/1999/xlink">
<g id="graph0" class="graph" transform="scale(1 1) rotate(0) translate(4 208)">
<title>vectori_new</title>
<!-- Node1 -->
<g id="Node000001" class="node">
<title>Node1</title>
<g id="a_Node000001"><a xlink:title=" ">
<polygon fill="#999999" stroke="#666666" points="327,-111 259,-111 259,-92 327,-92 327,-111"/>
<text text-anchor="middle" x="293" y="-99" font-family="Helvetica" font-size="10.00">vectori_new</text>
</a>
</g>
</g>
<!-- Node2 -->
<g id="Node000002" class="node">
<title>Node2</title>
<g id="a_Node000002"><a xlink:href="kc_8cpp.html#a4709c372281713ec9baaf5fb939cb10e" target="_top" xlink:title=" ">
<polygon fill="white" stroke="#666666" points="211,-204 149,-204 149,-185 211,-185 211,-204"/>
<text text-anchor="middle" x="180" y="-192" font-family="Helvetica" font-size="10.00">matrix_det</text>
</a>
</g>
</g>
<!-- Node1&#45;&gt;Node2 -->
<g id="edge1_Node000001_Node000002" class="edge">
<title>Node1&#45;&gt;Node2</title>
<g id="a_edge1_Node000001_Node000002"><a xlink:title=" ">
<path fill="none" stroke="#63b8ff" d="M278.77,-119.83C266.02,-136.43 245.42,-160.63 223,-176.5 218.47,-179.71 213.27,-182.51 208.12,-184.88"/>
<polygon fill="#63b8ff" stroke="#63b8ff" points="281.82,-121.6 285,-111.5 276.21,-117.41 281.82,-121.6"/>
</a>
</g>
</g>
<!-- Node3 -->
<g id="Node000003" class="node">
<title>Node3</title>
<g id="a_Node000003"><a xlink:href="kc_8cpp.html#af0e16ee0cbf76fe1a067c0f4132e8774" target="_top" xlink:title=" ">
<polygon fill="white" stroke="#666666" points="220,-167 140,-167 140,-148 220,-148 220,-167"/>
<text text-anchor="middle" x="180" y="-155" font-family="Helvetica" font-size="10.00">matrix_inverse</text>
</a>
</g>
</g>
<!-- Node1&#45;&gt;Node3 -->
<g id="edge2_Node000001_Node000003" class="edge">
<title>Node1&#45;&gt;Node3</title>
<g id="a_edge2_Node000001_Node000003"><a xlink:title=" ">
<path fill="none" stroke="#63b8ff" d="M266.98,-116.05C254.02,-123.4 237.83,-132.26 223,-139.5 217.15,-142.35 210.74,-145.23 204.73,-147.81"/>
<polygon fill="#63b8ff" stroke="#63b8ff" points="268.84,-119.02 275.79,-111.02 265.37,-112.95 268.84,-119.02"/>
</a>
</g>
</g>
<!-- Node7 -->
<g id="Node000007" class="node">
<title>Node7</title>
<g id="a_Node000007"><a xlink:href="kc_8cpp.html#a81683e0787ad3491e6e65a83bf05124f" target="_top" xlink:title=" ">
<polygon fill="white" stroke="#666666" points="223,-130 137,-130 137,-111 223,-111 223,-130"/>
<text text-anchor="middle" x="180" y="-118" font-family="Helvetica" font-size="10.00">matrix_inverse2</text>
</a>
</g>
</g>
<!-- Node1&#45;&gt;Node7 -->
<g id="edge6_Node000001_Node000007" class="edge">
<title>Node1&#45;&gt;Node7</title>
<g id="a_edge6_Node000001_Node000007"><a xlink:title=" ">
<path fill="none" stroke="#63b8ff" d="M248.93,-108.87C240.46,-110.32 231.59,-111.84 223.15,-113.28"/>
<polygon fill="#63b8ff" stroke="#63b8ff" points="249.73,-112.29 259,-107.15 248.55,-105.39 249.73,-112.29"/>
</a>
</g>
</g>
<!-- Node8 -->
<g id="Node000008" class="node">
<title>Node8</title>
<g id="a_Node000008"><a xlink:href="kc_8cpp.html#a7d45b4d89c9e4dfd5cf06ff773c4f048" target="_top" xlink:title=" ">
<polygon fill="white" stroke="#666666" points="215.5,-93 144.5,-93 144.5,-74 215.5,-74 215.5,-93"/>
<text text-anchor="middle" x="180" y="-81" font-family="Helvetica" font-size="10.00">matrix_solve</text>
</a>
</g>
</g>
<!-- Node1&#45;&gt;Node8 -->
<g id="edge7_Node000001_Node000008" class="edge">
<title>Node1&#45;&gt;Node8</title>
<g id="a_edge7_Node000001_Node000008"><a xlink:title=" ">
<path fill="none" stroke="#63b8ff" d="M249.07,-94.54C237.99,-92.74 226.21,-90.83 215.61,-89.11"/>
<polygon fill="#63b8ff" stroke="#63b8ff" points="248.57,-98 259,-96.15 249.69,-91.09 248.57,-98"/>
</a>
</g>
</g>
<!-- Node9 -->
<g id="Node000009" class="node">
<title>Node9</title>
<g id="a_Node000009"><a xlink:href="kc_8cpp.html#ad88cc38b4dca64717a3149003bda35a1" target="_top" xlink:title=" ">
<polygon fill="white" stroke="#666666" points="223,-56 137,-56 137,-37 223,-37 223,-56"/>
<text text-anchor="middle" x="180" y="-44" font-family="Helvetica" font-size="10.00">vector_toVectori</text>
</a>
</g>
</g>
<!-- Node1&#45;&gt;Node9 -->
<g id="edge8_Node000001_Node000009" class="edge">
<title>Node1&#45;&gt;Node9</title>
<g id="a_edge8_Node000001_Node000009"><a xlink:title=" ">
<path fill="none" stroke="#63b8ff" d="M265.16,-87.05C252.46,-80.33 237.04,-72.33 223,-65.5 216.52,-62.35 209.41,-59.06 202.91,-56.13"/>
<polygon fill="#63b8ff" stroke="#63b8ff" points="263.8,-90.29 274.27,-91.9 267.09,-84.11 263.8,-90.29"/>
</a>
</g>
</g>
<!-- Node10 -->
<g id="Node000010" class="node">
<title>Node10</title>
<g id="a_Node000010"><a xlink:href="kc_8cpp.html#a4dbb823fcb47138656221cd90a59bac2" target="_top" xlink:title=" ">
<polygon fill="white" stroke="#666666" points="215.5,-19 144.5,-19 144.5,0 215.5,0 215.5,-19"/>
<text text-anchor="middle" x="180" y="-7" font-family="Helvetica" font-size="10.00">vectori_copy</text>
</a>
</g>
</g>
<!-- Node1&#45;&gt;Node10 -->
<g id="edge9_Node000001_Node000010" class="edge">
<title>Node1&#45;&gt;Node10</title>
<g id="a_edge9_Node000001_Node000010"><a xlink:title=" ">
<path fill="none" stroke="#63b8ff" d="M278.72,-83.42C265.94,-67.06 245.31,-43.18 223,-27.5 218.46,-24.31 213.26,-21.51 208.1,-19.14"/>
<polygon fill="#63b8ff" stroke="#63b8ff" points="276.13,-85.8 284.97,-91.64 281.7,-81.56 276.13,-85.8"/>
</a>
</g>
</g>
<!-- Node4 -->
<g id="Node000004" class="node">
<title>Node4</title>
<g id="a_Node000004"><a xlink:href="kc_8cpp.html#a0458e14ed6d01fb333ea0b2a06035d87" target="_top" xlink:title=" ">
<polygon fill="white" stroke="#666666" points="81.5,-204 19.5,-204 19.5,-185 81.5,-185 81.5,-204"/>
<text text-anchor="middle" x="50.5" y="-192" font-family="Helvetica" font-size="10.00">matrix_reg</text>
</a>
</g>
</g>
<!-- Node3&#45;&gt;Node4 -->
<g id="edge3_Node000003_Node000004" class="edge">
<title>Node3&#45;&gt;Node4</title>
<g id="a_edge3_Node000003_Node000004"><a xlink:title=" ">
<path fill="none" stroke="#63b8ff" d="M136.48,-169.84C118.5,-175.06 97.98,-181.01 81.6,-185.76"/>
<polygon fill="#63b8ff" stroke="#63b8ff" points="137.54,-173.18 146.17,-167.03 135.59,-166.45 137.54,-173.18"/>
</a>
</g>
</g>
<!-- Node5 -->
<g id="Node000005" class="node">
<title>Node5</title>
<g id="a_Node000005"><a xlink:href="kc_8cpp.html#a77077c3de17b2dd212a275a4e0ff1750" target="_top" xlink:title=" ">
<polygon fill="white" stroke="#666666" points="101,-167 0,-167 0,-148 101,-148 101,-167"/>
<text text-anchor="middle" x="50.5" y="-155" font-family="Helvetica" font-size="10.00">matrix_regCoefStat</text>
</a>
</g>
</g>
<!-- Node3&#45;&gt;Node5 -->
<g id="edge4_Node000003_Node000005" class="edge">
<title>Node3&#45;&gt;Node5</title>
<g id="a_edge4_Node000003_Node000005"><a xlink:title=" ">
<path fill="none" stroke="#63b8ff" d="M129.47,-157.5C120.21,-157.5 110.53,-157.5 101.26,-157.5"/>
<polygon fill="#63b8ff" stroke="#63b8ff" points="129.71,-161 139.71,-157.5 129.71,-154 129.71,-161"/>
</a>
</g>
</g>
<!-- Node6 -->
<g id="Node000006" class="node">
<title>Node6</title>
<g id="a_Node000006"><a xlink:href="kc_8cpp.html#ad66fdb823fdc1c7260a0459c1912203f" target="_top" xlink:title=" ">
<polygon fill="white" stroke="#666666" points="99.5,-130 1.5,-130 1.5,-111 99.5,-111 99.5,-130"/>
<text text-anchor="middle" x="50.5" y="-118" font-family="Helvetica" font-size="10.00">matrix_regObsStat</text>
</a>
</g>
</g>
<!-- Node3&#45;&gt;Node6 -->
<g id="edge5_Node000003_Node000006" class="edge">
<title>Node3&#45;&gt;Node6</title>
<g id="a_edge5_Node000003_Node000006"><a xlink:title=" ">
<path fill="none" stroke="#63b8ff" d="M136.52,-145.17C119.64,-140.27 100.5,-134.72 84.67,-130.12"/>
<polygon fill="#63b8ff" stroke="#63b8ff" points="135.59,-148.55 146.17,-147.97 137.54,-141.82 135.59,-148.55"/>
</a>
</g>
</g>
</g>
</svg>
