<?xml version="1.0" encoding="UTF-8" standalone="no"?>
<!DOCTYPE svg PUBLIC "-//W3C//DTD SVG 1.1//EN"
 "http://www.w3.org/Graphics/SVG/1.1/DTD/svg11.dtd">
<!-- Generated by graphviz version 2.44.0 (0)
 -->
<!-- Title: matrix_svd Pages: 1 -->
<svg width="175pt" height="101pt"
 viewBox="0.00 0.00 175.00 101.00" xmlns="http://www.w3.org/2000/svg" xmlns:xlink="http://www.w3.org/1999/xlink">
<g id="graph0" class="graph" transform="scale(1 1) rotate(0) translate(4 97)">
<title>matrix_svd</title>
<!-- Node1 -->
<g id="Node000001" class="node">
<title>Node1</title>
<g id="a_Node000001"><a xlink:title=" ">
<polygon fill="#999999" stroke="#666666" points="65,-56 0,-56 0,-37 65,-37 65,-56"/>
<text text-anchor="middle" x="32.5" y="-44" font-family="Helvetica" font-size="10.00">matrix_svd</text>
</a>
</g>
</g>
<!-- Node2 -->
<g id="Node000002" class="node">
<title>Node2</title>
<g id="a_Node000002"><a xlink:href="kc_8cpp.html#a7f43e2c062f2de6dbd14da6799d78030" target="_top" xlink:title=" ">
<polygon fill="white" stroke="#666666" points="157,-93 111,-93 111,-74 157,-74 157,-93"/>
<text text-anchor="middle" x="134" y="-81" font-family="Helvetica" font-size="10.00">pythag</text>
</a>
</g>
</g>
<!-- Node1&#45;&gt;Node2 -->
<g id="edge1_Node000001_Node000002" class="edge">
<title>Node1&#45;&gt;Node2</title>
<g id="a_edge1_Node000001_Node000002"><a xlink:title=" ">
<path fill="none" stroke="#63b8ff" d="M59.12,-56.03C72,-60.82 87.73,-66.67 101.36,-71.73"/>
<polygon fill="#63b8ff" stroke="#63b8ff" points="100.25,-75.06 110.84,-75.26 102.69,-68.49 100.25,-75.06"/>
</a>
</g>
</g>
<!-- Node3 -->
<g id="Node000003" class="node">
<title>Node3</title>
<g id="a_Node000003"><a xlink:href="kc_8cpp.html#afc00baa57142e5db16101ade3200eea8" target="_top" xlink:title=" ">
<polygon fill="white" stroke="#666666" points="166.5,-56 101.5,-56 101.5,-37 166.5,-37 166.5,-56"/>
<text text-anchor="middle" x="134" y="-44" font-family="Helvetica" font-size="10.00">vector_free</text>
</a>
</g>
</g>
<!-- Node1&#45;&gt;Node3 -->
<g id="edge2_Node000001_Node000003" class="edge">
<title>Node1&#45;&gt;Node3</title>
<g id="a_edge2_Node000001_Node000003"><a xlink:title=" ">
<path fill="none" stroke="#63b8ff" d="M65.26,-46.5C73.42,-46.5 82.34,-46.5 90.94,-46.5"/>
<polygon fill="#63b8ff" stroke="#63b8ff" points="91.2,-50 101.2,-46.5 91.2,-43 91.2,-50"/>
</a>
</g>
</g>
<!-- Node4 -->
<g id="Node000004" class="node">
<title>Node4</title>
<g id="a_Node000004"><a xlink:href="kc_8cpp.html#a155bb2cc033bfd9bafbde8d31432f7ad" target="_top" xlink:title=" ">
<polygon fill="white" stroke="#666666" points="167,-19 101,-19 101,0 167,0 167,-19"/>
<text text-anchor="middle" x="134" y="-7" font-family="Helvetica" font-size="10.00">vector_new</text>
</a>
</g>
</g>
<!-- Node1&#45;&gt;Node4 -->
<g id="edge3_Node000001_Node000004" class="edge">
<title>Node1&#45;&gt;Node4</title>
<g id="a_edge3_Node000001_Node000004"><a xlink:title=" ">
<path fill="none" stroke="#63b8ff" d="M59.12,-36.97C70.87,-32.6 84.98,-27.36 97.71,-22.62"/>
<polygon fill="#63b8ff" stroke="#63b8ff" points="98.96,-25.89 107.12,-19.12 96.52,-19.33 98.96,-25.89"/>
</a>
</g>
</g>
</g>
</svg>
