<?xml version="1.0" encoding="UTF-8" standalone="no"?>
<!DOCTYPE svg PUBLIC "-//W3C//DTD SVG 1.1//EN"
 "http://www.w3.org/Graphics/SVG/1.1/DTD/svg11.dtd">
<!-- Generated by graphviz version 2.44.0 (0)
 -->
<!-- Title: matrix_stdRow Pages: 1 -->
<svg width="456pt" height="64pt"
 viewBox="0.00 0.00 456.00 64.00" xmlns="http://www.w3.org/2000/svg" xmlns:xlink="http://www.w3.org/1999/xlink">
<g id="graph0" class="graph" transform="scale(1 1) rotate(0) translate(4 60)">
<title>matrix_stdRow</title>
<!-- Node1 -->
<g id="Node000001" class="node">
<title>Node1</title>
<g id="a_Node000001"><a xlink:title=" ">
<polygon fill="#999999" stroke="#666666" points="448,-37 365,-37 365,-18 448,-18 448,-37"/>
<text text-anchor="middle" x="406.5" y="-25" font-family="Helvetica" font-size="10.00">matrix_stdRow</text>
</a>
</g>
</g>
<!-- Node2 -->
<g id="Node000002" class="node">
<title>Node2</title>
<g id="a_Node000002"><a xlink:href="kc_8cpp.html#aa824316c0d7768e230ae809a3e679a66" target="_top" xlink:title=" ">
<polygon fill="white" stroke="#666666" points="329,-37 252,-37 252,-18 329,-18 329,-37"/>
<text text-anchor="middle" x="290.5" y="-25" font-family="Helvetica" font-size="10.00">matrix_stdCol</text>
</a>
</g>
</g>
<!-- Node1&#45;&gt;Node2 -->
<g id="edge1_Node000001_Node000002" class="edge">
<title>Node1&#45;&gt;Node2</title>
<g id="a_edge1_Node000001_Node000002"><a xlink:title=" ">
<path fill="none" stroke="#63b8ff" d="M354.97,-27.5C346.32,-27.5 337.46,-27.5 329.22,-27.5"/>
<polygon fill="#63b8ff" stroke="#63b8ff" points="354.99,-31 364.99,-27.5 354.99,-24 354.99,-31"/>
</a>
</g>
</g>
<!-- Node3 -->
<g id="Node000003" class="node">
<title>Node3</title>
<g id="a_Node000003"><a xlink:href="kc_8cpp.html#a673ed8b4d0eee5e7e60df48435e0d8ba" target="_top" xlink:title=" ">
<polygon fill="white" stroke="#666666" points="210.5,-56 121.5,-56 121.5,-37 210.5,-37 210.5,-56"/>
<text text-anchor="middle" x="166" y="-44" font-family="Helvetica" font-size="10.00">matrix_corMatrix</text>
</a>
</g>
</g>
<!-- Node2&#45;&gt;Node3 -->
<g id="edge2_Node000002_Node000003" class="edge">
<title>Node2&#45;&gt;Node3</title>
<g id="a_edge2_Node000002_Node000003"><a xlink:title=" ">
<path fill="none" stroke="#63b8ff" d="M241.78,-34.9C231.6,-36.48 220.88,-38.14 210.85,-39.7"/>
<polygon fill="#63b8ff" stroke="#63b8ff" points="242.4,-38.35 251.75,-33.36 241.33,-31.43 242.4,-38.35"/>
</a>
</g>
</g>
<!-- Node5 -->
<g id="Node000005" class="node">
<title>Node5</title>
<g id="a_Node000005"><a xlink:href="kc_8cpp.html#aa04426b6994cdcfbbf77c3bb77e7a021" target="_top" xlink:title=" ">
<polygon fill="white" stroke="#666666" points="216,-19 116,-19 116,0 216,0 216,-19"/>
<text text-anchor="middle" x="166" y="-7" font-family="Helvetica" font-size="10.00">matrix_pcaComVar</text>
</a>
</g>
</g>
<!-- Node2&#45;&gt;Node5 -->
<g id="edge4_Node000002_Node000005" class="edge">
<title>Node2&#45;&gt;Node5</title>
<g id="a_edge4_Node000002_Node000005"><a xlink:title=" ">
<path fill="none" stroke="#63b8ff" d="M241.73,-20.48C233.33,-19.25 224.58,-17.96 216.14,-16.72"/>
<polygon fill="#63b8ff" stroke="#63b8ff" points="241.34,-23.96 251.75,-21.95 242.36,-17.04 241.34,-23.96"/>
</a>
</g>
</g>
<!-- Node4 -->
<g id="Node000004" class="node">
<title>Node4</title>
<g id="a_Node000004"><a xlink:href="kc_8cpp.html#a165e97bd10a48d3c5da908938468212b" target="_top" xlink:title=" ">
<polygon fill="white" stroke="#666666" points="80,-56 0,-56 0,-37 80,-37 80,-56"/>
<text text-anchor="middle" x="40" y="-44" font-family="Helvetica" font-size="10.00">matrix_pcaCor</text>
</a>
</g>
</g>
<!-- Node3&#45;&gt;Node4 -->
<g id="edge3_Node000003_Node000004" class="edge">
<title>Node3&#45;&gt;Node4</title>
<g id="a_edge3_Node000003_Node000004"><a xlink:title=" ">
<path fill="none" stroke="#63b8ff" d="M111.05,-46.5C100.67,-46.5 89.99,-46.5 80.19,-46.5"/>
<polygon fill="#63b8ff" stroke="#63b8ff" points="111.28,-50 121.28,-46.5 111.28,-43 111.28,-50"/>
</a>
</g>
</g>
</g>
</svg>
