<?xml version="1.0" encoding="UTF-8" standalone="no"?>
<!DOCTYPE svg PUBLIC "-//W3C//DTD SVG 1.1//EN"
 "http://www.w3.org/Graphics/SVG/1.1/DTD/svg11.dtd">
<!-- Generated by graphviz version 2.44.0 (0)
 -->
<!-- Title: lnfactorial Pages: 1 -->
<svg width="434pt" height="140pt"
 viewBox="0.00 0.00 434.00 140.00" xmlns="http://www.w3.org/2000/svg" xmlns:xlink="http://www.w3.org/1999/xlink">
<g id="graph0" class="graph" transform="scale(1 1) rotate(0) translate(4 136)">
<title>lnfactorial</title>
<!-- Node1 -->
<g id="Node000001" class="node">
<title>Node1</title>
<g id="a_Node000001"><a xlink:title=" ">
<polygon fill="#999999" stroke="#666666" points="426,-75 367,-75 367,-56 426,-56 426,-75"/>
<text text-anchor="middle" x="396.5" y="-63" font-family="Helvetica" font-size="10.00">lnfactorial</text>
</a>
</g>
</g>
<!-- Node2 -->
<g id="Node000002" class="node">
<title>Node2</title>
<g id="a_Node000002"><a xlink:href="kc_8cpp.html#a20614b0260f5c699044c6514b6479e34" target="_top" xlink:title=" ">
<polygon fill="white" stroke="#666666" points="305,-132 254,-132 254,-113 305,-113 305,-132"/>
<text text-anchor="middle" x="279.5" y="-120" font-family="Helvetica" font-size="10.00">factorial</text>
</a>
</g>
</g>
<!-- Node1&#45;&gt;Node2 -->
<g id="edge1_Node000001_Node000002" class="edge">
<title>Node1&#45;&gt;Node2</title>
<g id="a_edge1_Node000001_Node000002"><a xlink:title=" ">
<path fill="none" stroke="#63b8ff" d="M368.16,-79.71C356.71,-85.6 343.25,-92.46 331,-98.5 321.25,-103.31 310.37,-108.5 301.2,-112.83"/>
<polygon fill="#63b8ff" stroke="#63b8ff" points="369.94,-82.73 377.22,-75.03 366.73,-76.51 369.94,-82.73"/>
</a>
</g>
</g>
<!-- Node5 -->
<g id="Node000005" class="node">
<title>Node5</title>
<g id="a_Node000005"><a xlink:href="kc_8cpp.html#ad402504da1d8913d034b6db754886e90" target="_top" xlink:title=" ">
<polygon fill="white" stroke="#666666" points="192,-95 123,-95 123,-76 192,-76 192,-95"/>
<text text-anchor="middle" x="157.5" y="-83" font-family="Helvetica" font-size="10.00">pdf_poisson</text>
</a>
</g>
</g>
<!-- Node1&#45;&gt;Node5 -->
<g id="edge8_Node000001_Node000005" class="edge">
<title>Node1&#45;&gt;Node5</title>
<g id="a_edge8_Node000001_Node000005"><a xlink:title=" ">
<path fill="none" stroke="#63b8ff" d="M356.79,-68.77C311.02,-72.63 235.59,-78.99 192.15,-82.66"/>
<polygon fill="#63b8ff" stroke="#63b8ff" points="357.24,-72.24 366.91,-67.91 356.65,-65.27 357.24,-72.24"/>
</a>
</g>
</g>
<!-- Node6 -->
<g id="Node000006" class="node">
<title>Node6</title>
<g id="a_Node000006"><a xlink:href="kc_8cpp.html#ab2a4b7063b009f90e6db6deface43386" target="_top" xlink:title=" ">
<polygon fill="white" stroke="#666666" points="331,-56 228,-56 228,-37 331,-37 331,-56"/>
<text text-anchor="middle" x="279.5" y="-44" font-family="Helvetica" font-size="10.00">fisher_exact_1sided</text>
</a>
</g>
</g>
<!-- Node1&#45;&gt;Node6 -->
<g id="edge6_Node000001_Node000006" class="edge">
<title>Node1&#45;&gt;Node6</title>
<g id="a_edge6_Node000001_Node000006"><a xlink:title=" ">
<path fill="none" stroke="#63b8ff" d="M356.76,-59.1C348.56,-57.74 339.79,-56.3 331.22,-54.88"/>
<polygon fill="#63b8ff" stroke="#63b8ff" points="356.34,-62.58 366.78,-60.75 357.48,-55.67 356.34,-62.58"/>
</a>
</g>
</g>
<!-- Node7 -->
<g id="Node000007" class="node">
<title>Node7</title>
<g id="a_Node000007"><a xlink:href="kc_8cpp.html#a5879c832b572d6cf16d7fe0dea2af315" target="_top" xlink:title=" ">
<polygon fill="white" stroke="#666666" points="331,-19 228,-19 228,0 331,0 331,-19"/>
<text text-anchor="middle" x="279.5" y="-7" font-family="Helvetica" font-size="10.00">fisher_exact_2sided</text>
</a>
</g>
</g>
<!-- Node1&#45;&gt;Node7 -->
<g id="edge7_Node000001_Node000007" class="edge">
<title>Node1&#45;&gt;Node7</title>
<g id="a_edge7_Node000001_Node000007"><a xlink:title=" ">
<path fill="none" stroke="#63b8ff" d="M372.53,-50.52C360.47,-43.03 345.26,-34.17 331,-27.5 324.42,-24.42 317.17,-21.55 310.25,-19.04"/>
<polygon fill="#63b8ff" stroke="#63b8ff" points="370.75,-53.54 381.07,-55.92 374.49,-47.62 370.75,-53.54"/>
</a>
</g>
</g>
<!-- Node3 -->
<g id="Node000003" class="node">
<title>Node3</title>
<g id="a_Node000003"><a xlink:href="kc_8cpp.html#a1f7aff47eacc48937a5dd3ae419c6066" target="_top" xlink:title=" ">
<polygon fill="white" stroke="#666666" points="192,-132 123,-132 123,-113 192,-113 192,-132"/>
<text text-anchor="middle" x="157.5" y="-120" font-family="Helvetica" font-size="10.00">cdf_poisson</text>
</a>
</g>
</g>
<!-- Node2&#45;&gt;Node3 -->
<g id="edge2_Node000002_Node000003" class="edge">
<title>Node2&#45;&gt;Node3</title>
<g id="a_edge2_Node000002_Node000003"><a xlink:title=" ">
<path fill="none" stroke="#63b8ff" d="M243.75,-122.5C227.51,-122.5 208.24,-122.5 192.14,-122.5"/>
<polygon fill="#63b8ff" stroke="#63b8ff" points="243.93,-126 253.93,-122.5 243.93,-119 243.93,-126"/>
</a>
</g>
</g>
<!-- Node2&#45;&gt;Node5 -->
<g id="edge4_Node000002_Node000005" class="edge">
<title>Node2&#45;&gt;Node5</title>
<g id="a_edge4_Node000002_Node000005"><a xlink:title=" ">
<path fill="none" stroke="#63b8ff" d="M244.23,-111.93C226.97,-106.61 206.22,-100.21 189.45,-95.04"/>
<polygon fill="#63b8ff" stroke="#63b8ff" points="243.34,-115.32 253.93,-114.92 245.4,-108.63 243.34,-115.32"/>
</a>
</g>
</g>
<!-- Node4 -->
<g id="Node000004" class="node">
<title>Node4</title>
<g id="a_Node000004"><a xlink:href="kc_8cpp.html#a5e787a5eb2287b478478048a9a621fca" target="_top" xlink:title=" ">
<polygon fill="white" stroke="#666666" points="87,-113 0,-113 0,-94 87,-94 87,-113"/>
<text text-anchor="middle" x="43.5" y="-101" font-family="Helvetica" font-size="10.00">cdf_poisson_inc</text>
</a>
</g>
</g>
<!-- Node3&#45;&gt;Node4 -->
<g id="edge3_Node000003_Node000004" class="edge">
<title>Node3&#45;&gt;Node4</title>
<g id="a_edge3_Node000003_Node000004"><a xlink:title=" ">
<path fill="none" stroke="#63b8ff" d="M112.87,-115.1C104.44,-113.67 95.63,-112.17 87.23,-110.75"/>
<polygon fill="#63b8ff" stroke="#63b8ff" points="112.45,-118.58 122.9,-116.8 113.62,-111.68 112.45,-118.58"/>
</a>
</g>
</g>
<!-- Node5&#45;&gt;Node4 -->
<g id="edge5_Node000005_Node000004" class="edge">
<title>Node5&#45;&gt;Node4</title>
<g id="a_edge5_Node000005_Node000004"><a xlink:title=" ">
<path fill="none" stroke="#63b8ff" d="M112.87,-92.51C104.44,-93.87 95.63,-95.28 87.23,-96.63"/>
<polygon fill="#63b8ff" stroke="#63b8ff" points="113.58,-95.94 122.9,-90.9 112.47,-89.03 113.58,-95.94"/>
</a>
</g>
</g>
</g>
</svg>
