<?xml version="1.0" encoding="UTF-8" standalone="no"?>
<!DOCTYPE svg PUBLIC "-//W3C//DTD SVG 1.1//EN"
 "http://www.w3.org/Graphics/SVG/1.1/DTD/svg11.dtd">
<!-- Generated by graphviz version 2.44.0 (0)
 -->
<!-- Title: matrix_lusubst Pages: 1 -->
<svg width="341pt" height="101pt"
 viewBox="0.00 0.00 341.00 101.00" xmlns="http://www.w3.org/2000/svg" xmlns:xlink="http://www.w3.org/1999/xlink">
<g id="graph0" class="graph" transform="scale(1 1) rotate(0) translate(4 97)">
<title>matrix_lusubst</title>
<!-- Node1 -->
<g id="Node000001" class="node">
<title>Node1</title>
<g id="a_Node000001"><a xlink:title=" ">
<polygon fill="#999999" stroke="#666666" points="333,-56 253,-56 253,-37 333,-37 333,-56"/>
<text text-anchor="middle" x="293" y="-44" font-family="Helvetica" font-size="10.00">matrix_lusubst</text>
</a>
</g>
</g>
<!-- Node2 -->
<g id="Node000002" class="node">
<title>Node2</title>
<g id="a_Node000002"><a xlink:href="kc_8cpp.html#af0e16ee0cbf76fe1a067c0f4132e8774" target="_top" xlink:title=" ">
<polygon fill="white" stroke="#666666" points="217,-56 137,-56 137,-37 217,-37 217,-56"/>
<text text-anchor="middle" x="177" y="-44" font-family="Helvetica" font-size="10.00">matrix_inverse</text>
</a>
</g>
</g>
<!-- Node1&#45;&gt;Node2 -->
<g id="edge1_Node000001_Node000002" class="edge">
<title>Node1&#45;&gt;Node2</title>
<g id="a_edge1_Node000001_Node000002"><a xlink:title=" ">
<path fill="none" stroke="#63b8ff" d="M242.61,-46.5C234.15,-46.5 225.46,-46.5 217.3,-46.5"/>
<polygon fill="#63b8ff" stroke="#63b8ff" points="242.77,-50 252.77,-46.5 242.77,-43 242.77,-50"/>
</a>
</g>
</g>
<!-- Node3 -->
<g id="Node000003" class="node">
<title>Node3</title>
<g id="a_Node000003"><a xlink:href="kc_8cpp.html#a0458e14ed6d01fb333ea0b2a06035d87" target="_top" xlink:title=" ">
<polygon fill="white" stroke="#666666" points="81.5,-93 19.5,-93 19.5,-74 81.5,-74 81.5,-93"/>
<text text-anchor="middle" x="50.5" y="-81" font-family="Helvetica" font-size="10.00">matrix_reg</text>
</a>
</g>
</g>
<!-- Node2&#45;&gt;Node3 -->
<g id="edge2_Node000002_Node000003" class="edge">
<title>Node2&#45;&gt;Node3</title>
<g id="a_edge2_Node000002_Node000003"><a xlink:title=" ">
<path fill="none" stroke="#63b8ff" d="M134.14,-58.94C116.98,-64.04 97.48,-69.83 81.74,-74.51"/>
<polygon fill="#63b8ff" stroke="#63b8ff" points="135.35,-62.23 143.94,-56.03 133.36,-55.52 135.35,-62.23"/>
</a>
</g>
</g>
<!-- Node4 -->
<g id="Node000004" class="node">
<title>Node4</title>
<g id="a_Node000004"><a xlink:href="kc_8cpp.html#a77077c3de17b2dd212a275a4e0ff1750" target="_top" xlink:title=" ">
<polygon fill="white" stroke="#666666" points="101,-56 0,-56 0,-37 101,-37 101,-56"/>
<text text-anchor="middle" x="50.5" y="-44" font-family="Helvetica" font-size="10.00">matrix_regCoefStat</text>
</a>
</g>
</g>
<!-- Node2&#45;&gt;Node4 -->
<g id="edge3_Node000002_Node000004" class="edge">
<title>Node2&#45;&gt;Node4</title>
<g id="a_edge3_Node000002_Node000004"><a xlink:title=" ">
<path fill="none" stroke="#63b8ff" d="M126.93,-46.5C118.54,-46.5 109.81,-46.5 101.4,-46.5"/>
<polygon fill="#63b8ff" stroke="#63b8ff" points="126.95,-50 136.95,-46.5 126.95,-43 126.95,-50"/>
</a>
</g>
</g>
<!-- Node5 -->
<g id="Node000005" class="node">
<title>Node5</title>
<g id="a_Node000005"><a xlink:href="kc_8cpp.html#ad66fdb823fdc1c7260a0459c1912203f" target="_top" xlink:title=" ">
<polygon fill="white" stroke="#666666" points="99.5,-19 1.5,-19 1.5,0 99.5,0 99.5,-19"/>
<text text-anchor="middle" x="50.5" y="-7" font-family="Helvetica" font-size="10.00">matrix_regObsStat</text>
</a>
</g>
</g>
<!-- Node2&#45;&gt;Node5 -->
<g id="edge4_Node000002_Node000005" class="edge">
<title>Node2&#45;&gt;Node5</title>
<g id="a_edge4_Node000002_Node000005"><a xlink:title=" ">
<path fill="none" stroke="#63b8ff" d="M134.06,-34.04C117.69,-29.17 99.2,-23.68 83.89,-19.12"/>
<polygon fill="#63b8ff" stroke="#63b8ff" points="133.36,-37.48 143.94,-36.97 135.35,-30.77 133.36,-37.48"/>
</a>
</g>
</g>
</g>
</svg>
