<?xml version="1.0" encoding="UTF-8" standalone="no"?>
<!DOCTYPE svg PUBLIC "-//W3C//DTD SVG 1.1//EN"
 "http://www.w3.org/Graphics/SVG/1.1/DTD/svg11.dtd">
<!-- Generated by graphviz version 2.44.0 (0)
 -->
<!-- Title: matrix_colVar Pages: 1 -->
<svg width="186pt" height="101pt"
 viewBox="0.00 0.00 186.00 101.00" xmlns="http://www.w3.org/2000/svg" xmlns:xlink="http://www.w3.org/1999/xlink">
<g id="graph0" class="graph" transform="scale(1 1) rotate(0) translate(4 97)">
<title>matrix_colVar</title>
<!-- Node1 -->
<g id="Node000001" class="node">
<title>Node1</title>
<g id="a_Node000001"><a xlink:title=" ">
<polygon fill="#999999" stroke="#666666" points="76,-56 0,-56 0,-37 76,-37 76,-56"/>
<text text-anchor="middle" x="38" y="-44" font-family="Helvetica" font-size="10.00">matrix_colVar</text>
</a>
</g>
</g>
<!-- Node2 -->
<g id="Node000002" class="node">
<title>Node2</title>
<g id="a_Node000002"><a xlink:href="kc_8cpp.html#ae263d464ebb9d7304f3c8043c41622b7" target="_top" xlink:title=" ">
<polygon fill="white" stroke="#666666" points="167,-93 123,-93 123,-74 167,-74 167,-93"/>
<text text-anchor="middle" x="145" y="-81" font-family="Helvetica" font-size="10.00">avevar</text>
</a>
</g>
</g>
<!-- Node1&#45;&gt;Node2 -->
<g id="edge1_Node000001_Node000002" class="edge">
<title>Node1&#45;&gt;Node2</title>
<g id="a_edge1_Node000001_Node000002"><a xlink:title=" ">
<path fill="none" stroke="#63b8ff" d="M66.04,-56.03C80.36,-61.07 98.01,-67.29 112.89,-72.54"/>
<polygon fill="#63b8ff" stroke="#63b8ff" points="112.08,-75.96 122.68,-75.99 114.41,-69.36 112.08,-75.96"/>
</a>
</g>
</g>
<!-- Node3 -->
<g id="Node000003" class="node">
<title>Node3</title>
<g id="a_Node000003"><a xlink:href="kc_8cpp.html#afc00baa57142e5db16101ade3200eea8" target="_top" xlink:title=" ">
<polygon fill="white" stroke="#666666" points="177.5,-56 112.5,-56 112.5,-37 177.5,-37 177.5,-56"/>
<text text-anchor="middle" x="145" y="-44" font-family="Helvetica" font-size="10.00">vector_free</text>
</a>
</g>
</g>
<!-- Node1&#45;&gt;Node3 -->
<g id="edge2_Node000001_Node000003" class="edge">
<title>Node1&#45;&gt;Node3</title>
<g id="a_edge2_Node000001_Node000003"><a xlink:title=" ">
<path fill="none" stroke="#63b8ff" d="M76.02,-46.5C84.41,-46.5 93.39,-46.5 101.98,-46.5"/>
<polygon fill="#63b8ff" stroke="#63b8ff" points="102.19,-50 112.19,-46.5 102.19,-43 102.19,-50"/>
</a>
</g>
</g>
<!-- Node4 -->
<g id="Node000004" class="node">
<title>Node4</title>
<g id="a_Node000004"><a xlink:href="kc_8cpp.html#a155bb2cc033bfd9bafbde8d31432f7ad" target="_top" xlink:title=" ">
<polygon fill="white" stroke="#666666" points="178,-19 112,-19 112,0 178,0 178,-19"/>
<text text-anchor="middle" x="145" y="-7" font-family="Helvetica" font-size="10.00">vector_new</text>
</a>
</g>
</g>
<!-- Node1&#45;&gt;Node4 -->
<g id="edge3_Node000001_Node000004" class="edge">
<title>Node1&#45;&gt;Node4</title>
<g id="a_edge3_Node000001_Node000004"><a xlink:title=" ">
<path fill="none" stroke="#63b8ff" d="M66.04,-36.97C78.56,-32.56 93.62,-27.25 107.16,-22.48"/>
<polygon fill="#63b8ff" stroke="#63b8ff" points="108.42,-25.75 116.69,-19.12 106.09,-19.15 108.42,-25.75"/>
</a>
</g>
</g>
</g>
</svg>
