<?xml version="1.0" encoding="UTF-8" standalone="no"?>
<!DOCTYPE svg PUBLIC "-//W3C//DTD SVG 1.1//EN"
 "http://www.w3.org/Graphics/SVG/1.1/DTD/svg11.dtd">
<!-- Generated by graphviz version 2.44.0 (0)
 -->
<!-- Title: gammln Pages: 1 -->
<svg width="1325pt" height="597pt"
 viewBox="0.00 0.00 1325.00 597.00" xmlns="http://www.w3.org/2000/svg" xmlns:xlink="http://www.w3.org/1999/xlink">
<g id="graph0" class="graph" transform="scale(1 1) rotate(0) translate(4 593)">
<title>gammln</title>
<!-- Node1 -->
<g id="Node000001" class="node">
<title>Node1</title>
<g id="a_Node000001"><a xlink:title=" ">
<polygon fill="#999999" stroke="#666666" points="1317,-289 1266,-289 1266,-270 1317,-270 1317,-289"/>
<text text-anchor="middle" x="1291.5" y="-277" font-family="Helvetica" font-size="10.00">gammln</text>
</a>
</g>
</g>
<!-- Node2 -->
<g id="Node000002" class="node">
<title>Node2</title>
<g id="a_Node000002"><a xlink:href="kc_8cpp.html#a226dce75202a4f2ed57a6ee91ccabd93" target="_top" xlink:title=" ">
<polygon fill="white" stroke="#666666" points="1218,-514 1183,-514 1183,-495 1218,-495 1218,-514"/>
<text text-anchor="middle" x="1200.5" y="-502" font-family="Helvetica" font-size="10.00">beta</text>
</a>
</g>
</g>
<!-- Node1&#45;&gt;Node2 -->
<g id="edge1_Node000001_Node000002" class="edge">
<title>Node1&#45;&gt;Node2</title>
<g id="a_edge1_Node000001_Node000002"><a xlink:title=" ">
<path fill="none" stroke="#63b8ff" d="M1284.48,-299.12C1274.45,-331.12 1253.12,-396.3 1230,-449.5 1222.88,-465.87 1213.01,-484.14 1206.95,-494.96"/>
<polygon fill="#63b8ff" stroke="#63b8ff" points="1287.92,-299.85 1287.54,-289.26 1281.23,-297.78 1287.92,-299.85"/>
</a>
</g>
</g>
<!-- Node4 -->
<g id="Node000004" class="node">
<title>Node4</title>
<g id="a_Node000004"><a xlink:href="kc_8cpp.html#aff974d448122c33ebffbaf2666c42092" target="_top" xlink:title=" ">
<polygon fill="white" stroke="#666666" points="1219.5,-440 1181.5,-440 1181.5,-421 1219.5,-421 1219.5,-440"/>
<text text-anchor="middle" x="1200.5" y="-428" font-family="Helvetica" font-size="10.00">betai</text>
</a>
</g>
</g>
<!-- Node1&#45;&gt;Node4 -->
<g id="edge3_Node000001_Node000004" class="edge">
<title>Node1&#45;&gt;Node4</title>
<g id="a_edge3_Node000001_Node000004"><a xlink:title=" ">
<path fill="none" stroke="#63b8ff" d="M1279.4,-298.34C1260.28,-330.78 1221.79,-396.07 1207.25,-420.75"/>
<polygon fill="#63b8ff" stroke="#63b8ff" points="1282.6,-299.8 1284.66,-289.41 1276.57,-296.25 1282.6,-299.8"/>
</a>
</g>
</g>
<!-- Node17 -->
<g id="Node000017" class="node">
<title>Node17</title>
<g id="a_Node000017"><a xlink:href="kc_8cpp.html#a16ca21352ca6ebe67c4ba6142b0a6e1b" target="_top" xlink:title=" ">
<polygon fill="white" stroke="#666666" points="1218,-326 1183,-326 1183,-307 1218,-307 1218,-326"/>
<text text-anchor="middle" x="1200.5" y="-314" font-family="Helvetica" font-size="10.00">bico</text>
</a>
</g>
</g>
<!-- Node1&#45;&gt;Node17 -->
<g id="edge18_Node000001_Node000017" class="edge">
<title>Node1&#45;&gt;Node17</title>
<g id="a_edge18_Node000001_Node000017"><a xlink:title=" ">
<path fill="none" stroke="#63b8ff" d="M1258.08,-292.98C1244.54,-298.61 1229.38,-304.91 1218.16,-309.57"/>
<polygon fill="#63b8ff" stroke="#63b8ff" points="1259.69,-296.1 1267.58,-289.03 1257,-289.64 1259.69,-296.1"/>
</a>
</g>
</g>
<!-- Node21 -->
<g id="Node000021" class="node">
<title>Node21</title>
<g id="a_Node000021"><a xlink:href="kc_8cpp.html#a5b446e3e8ec13c8e2383ac156f0cf77f" target="_top" xlink:title=" ">
<polygon fill="white" stroke="#666666" points="1215.5,-252 1185.5,-252 1185.5,-233 1215.5,-233 1215.5,-252"/>
<text text-anchor="middle" x="1200.5" y="-240" font-family="Helvetica" font-size="10.00">gcf</text>
</a>
</g>
</g>
<!-- Node1&#45;&gt;Node21 -->
<g id="edge22_Node000001_Node000021" class="edge">
<title>Node1&#45;&gt;Node21</title>
<g id="a_edge22_Node000001_Node000021"><a xlink:title=" ">
<path fill="none" stroke="#63b8ff" d="M1258.33,-266.12C1243.71,-260.05 1227.17,-253.17 1215.72,-248.41"/>
<polygon fill="#63b8ff" stroke="#63b8ff" points="1257,-269.36 1267.58,-269.97 1259.69,-262.9 1257,-269.36"/>
</a>
</g>
</g>
<!-- Node43 -->
<g id="Node000043" class="node">
<title>Node43</title>
<g id="a_Node000043"><a xlink:href="kc_8cpp.html#a5277079b0c65d166db9553deb8a92de2" target="_top" xlink:title=" ">
<polygon fill="white" stroke="#666666" points="1218,-215 1183,-215 1183,-196 1218,-196 1218,-215"/>
<text text-anchor="middle" x="1200.5" y="-203" font-family="Helvetica" font-size="10.00">gser</text>
</a>
</g>
</g>
<!-- Node1&#45;&gt;Node43 -->
<g id="edge44_Node000001_Node000043" class="edge">
<title>Node1&#45;&gt;Node43</title>
<g id="a_edge44_Node000001_Node000043"><a xlink:title=" ">
<path fill="none" stroke="#63b8ff" d="M1273.8,-262.48C1262.05,-250.89 1245.68,-235.54 1230,-223.5 1226.19,-220.58 1221.9,-217.68 1217.83,-215.09"/>
<polygon fill="#63b8ff" stroke="#63b8ff" points="1271.59,-265.21 1281.14,-269.81 1276.54,-260.26 1271.59,-265.21"/>
</a>
</g>
</g>
<!-- Node44 -->
<g id="Node000044" class="node">
<title>Node44</title>
<g id="a_Node000044"><a xlink:href="kc_8cpp.html#aa25b6ecd23d45f7dcaa2932138388c74" target="_top" xlink:title=" ">
<polygon fill="white" stroke="#666666" points="1221.5,-289 1179.5,-289 1179.5,-270 1221.5,-270 1221.5,-289"/>
<text text-anchor="middle" x="1200.5" y="-277" font-family="Helvetica" font-size="10.00">lnbico</text>
</a>
</g>
</g>
<!-- Node1&#45;&gt;Node44 -->
<g id="edge46_Node000001_Node000044" class="edge">
<title>Node1&#45;&gt;Node44</title>
<g id="a_edge46_Node000001_Node000044"><a xlink:title=" ">
<path fill="none" stroke="#63b8ff" d="M1255.51,-279.5C1244.03,-279.5 1231.66,-279.5 1221.67,-279.5"/>
<polygon fill="#63b8ff" stroke="#63b8ff" points="1255.71,-283 1265.71,-279.5 1255.71,-276 1255.71,-283"/>
</a>
</g>
</g>
<!-- Node45 -->
<g id="Node000045" class="node">
<title>Node45</title>
<g id="a_Node000045"><a xlink:href="kc_8cpp.html#a1b8ed1e5e0530035c186d182ebe747b3" target="_top" xlink:title=" ">
<polygon fill="white" stroke="#666666" points="1230,-94 1171,-94 1171,-75 1230,-75 1230,-94"/>
<text text-anchor="middle" x="1200.5" y="-82" font-family="Helvetica" font-size="10.00">lnfactorial</text>
</a>
</g>
</g>
<!-- Node1&#45;&gt;Node45 -->
<g id="edge48_Node000001_Node000045" class="edge">
<title>Node1&#45;&gt;Node45</title>
<g id="a_edge48_Node000001_Node000045"><a xlink:title=" ">
<path fill="none" stroke="#63b8ff" d="M1281.93,-260.73C1263.36,-220.04 1219.95,-124.92 1205.94,-94.23"/>
<polygon fill="#63b8ff" stroke="#63b8ff" points="1278.75,-262.19 1286.09,-269.83 1285.12,-259.28 1278.75,-262.19"/>
</a>
</g>
</g>
<!-- Node3 -->
<g id="Node000003" class="node">
<title>Node3</title>
<g id="a_Node000003"><a xlink:href="kc_8cpp.html#a69c8440b22fa5a24aa3fde1f09e5ac95" target="_top" xlink:title=" ">
<polygon fill="white" stroke="#666666" points="1110.5,-551 1056.5,-551 1056.5,-532 1110.5,-532 1110.5,-551"/>
<text text-anchor="middle" x="1083.5" y="-539" font-family="Helvetica" font-size="10.00">pdf_beta</text>
</a>
</g>
</g>
<!-- Node2&#45;&gt;Node3 -->
<g id="edge2_Node000002_Node000003" class="edge">
<title>Node2&#45;&gt;Node3</title>
<g id="a_edge2_Node000002_Node000003"><a xlink:title=" ">
<path fill="none" stroke="#63b8ff" d="M1172.9,-513.06C1154.28,-519.05 1129.51,-527.02 1110.92,-533"/>
<polygon fill="#63b8ff" stroke="#63b8ff" points="1174.08,-516.35 1182.53,-509.96 1171.94,-509.69 1174.08,-516.35"/>
</a>
</g>
</g>
<!-- Node5 -->
<g id="Node000005" class="node">
<title>Node5</title>
<g id="a_Node000005"><a xlink:href="kc_8cpp.html#a42a8993650aee30084689ad35b6c5ea8" target="_top" xlink:title=" ">
<polygon fill="white" stroke="#666666" points="1119,-514 1048,-514 1048,-495 1119,-495 1119,-514"/>
<text text-anchor="middle" x="1083.5" y="-502" font-family="Helvetica" font-size="10.00">cdf_binomial</text>
</a>
</g>
</g>
<!-- Node4&#45;&gt;Node5 -->
<g id="edge4_Node000004_Node000005" class="edge">
<title>Node4&#45;&gt;Node5</title>
<g id="a_edge4_Node000004_Node000005"><a xlink:title=" ">
<path fill="none" stroke="#63b8ff" d="M1183.53,-447.42C1171.22,-459.64 1153.28,-475.82 1135,-486.5 1129.45,-489.74 1123.23,-492.54 1117.09,-494.9"/>
<polygon fill="#63b8ff" stroke="#63b8ff" points="1186.25,-449.64 1190.74,-440.05 1181.25,-444.74 1186.25,-449.64"/>
</a>
</g>
</g>
<!-- Node6 -->
<g id="Node000006" class="node">
<title>Node6</title>
<g id="a_Node000006"><a xlink:href="kc_8cpp.html#a44281fba5e514c76d3867c7cc899eb7c" target="_top" xlink:title=" ">
<polygon fill="white" stroke="#666666" points="1102.5,-477 1064.5,-477 1064.5,-458 1102.5,-458 1102.5,-477"/>
<text text-anchor="middle" x="1083.5" y="-465" font-family="Helvetica" font-size="10.00">cdf_f</text>
</a>
</g>
</g>
<!-- Node4&#45;&gt;Node6 -->
<g id="edge5_Node000004_Node000006" class="edge">
<title>Node4&#45;&gt;Node6</title>
<g id="a_edge5_Node000004_Node000006"><a xlink:title=" ">
<path fill="none" stroke="#63b8ff" d="M1171.73,-439.44C1150.27,-446.34 1121.19,-455.69 1102.64,-461.66"/>
<polygon fill="#63b8ff" stroke="#63b8ff" points="1172.83,-442.76 1181.28,-436.36 1170.69,-436.09 1172.83,-442.76"/>
</a>
</g>
</g>
<!-- Node10 -->
<g id="Node000010" class="node">
<title>Node10</title>
<g id="a_Node000010"><a xlink:href="kc_8cpp.html#a996626bdadc539b36a6ddce1f8262f1e" target="_top" xlink:title=" ">
<polygon fill="white" stroke="#666666" points="1102.5,-403 1064.5,-403 1064.5,-384 1102.5,-384 1102.5,-403"/>
<text text-anchor="middle" x="1083.5" y="-391" font-family="Helvetica" font-size="10.00">cdf_t</text>
</a>
</g>
</g>
<!-- Node4&#45;&gt;Node10 -->
<g id="edge9_Node000004_Node000010" class="edge">
<title>Node4&#45;&gt;Node10</title>
<g id="a_edge9_Node000004_Node000010"><a xlink:title=" ">
<path fill="none" stroke="#63b8ff" d="M1171.73,-421.56C1150.27,-414.66 1121.19,-405.31 1102.64,-399.34"/>
<polygon fill="#63b8ff" stroke="#63b8ff" points="1170.69,-424.91 1181.28,-424.64 1172.83,-418.24 1170.69,-424.91"/>
</a>
</g>
</g>
<!-- Node7 -->
<g id="Node000007" class="node">
<title>Node7</title>
<g id="a_Node000007"><a xlink:href="kc_8cpp.html#aeb063515d33aaf1d9131611c38b21fa4" target="_top" xlink:title=" ">
<polygon fill="white" stroke="#666666" points="960.5,-515 924.5,-515 924.5,-496 960.5,-496 960.5,-515"/>
<text text-anchor="middle" x="942.5" y="-503" font-family="Helvetica" font-size="10.00">ftest</text>
</a>
</g>
</g>
<!-- Node6&#45;&gt;Node7 -->
<g id="edge6_Node000006_Node000007" class="edge">
<title>Node6&#45;&gt;Node7</title>
<g id="a_edge6_Node000006_Node000007"><a xlink:title=" ">
<path fill="none" stroke="#63b8ff" d="M1054.35,-475.2C1026.33,-482.86 984.23,-494.36 960.8,-500.77"/>
<polygon fill="#63b8ff" stroke="#63b8ff" points="1055.61,-478.48 1064.33,-472.47 1053.76,-471.73 1055.61,-478.48"/>
</a>
</g>
</g>
<!-- Node8 -->
<g id="Node000008" class="node">
<title>Node8</title>
<g id="a_Node000008"><a xlink:href="kc_8cpp.html#acf18fe54721a1ca7a61f70f4fdc637e3" target="_top" xlink:title=" ">
<polygon fill="white" stroke="#666666" points="996,-589 889,-589 889,-570 996,-570 996,-589"/>
<text text-anchor="middle" x="942.5" y="-577" font-family="Helvetica" font-size="10.00">matrix_regModelStat</text>
</a>
</g>
</g>
<!-- Node6&#45;&gt;Node8 -->
<g id="edge7_Node000006_Node000008" class="edge">
<title>Node6&#45;&gt;Node8</title>
<g id="a_edge7_Node000006_Node000008"><a xlink:title=" ">
<path fill="none" stroke="#63b8ff" d="M1054.55,-473.79C1046.56,-476.64 1038.31,-480.72 1032,-486.5 1004.73,-511.47 1023.63,-536.93 996,-561.5 992.18,-564.89 987.7,-567.65 982.98,-569.9"/>
<polygon fill="#63b8ff" stroke="#63b8ff" points="1055.82,-477.06 1064.37,-470.8 1053.78,-470.37 1055.82,-477.06"/>
</a>
</g>
</g>
<!-- Node9 -->
<g id="Node000009" class="node">
<title>Node9</title>
<g id="a_Node000009"><a xlink:href="kc_8cpp.html#a66d8af160cff194f4aa44bf2bd5eb2f5" target="_top" xlink:title=" ">
<polygon fill="white" stroke="#666666" points="972,-552 913,-552 913,-533 972,-533 972,-552"/>
<text text-anchor="middle" x="942.5" y="-540" font-family="Helvetica" font-size="10.00">reg_linear</text>
</a>
</g>
</g>
<!-- Node6&#45;&gt;Node9 -->
<g id="edge8_Node000006_Node000009" class="edge">
<title>Node6&#45;&gt;Node9</title>
<g id="a_edge8_Node000006_Node000009"><a xlink:title=" ">
<path fill="none" stroke="#63b8ff" d="M1054.57,-475.46C1046.91,-478.3 1038.84,-481.96 1032,-486.5 1012.62,-499.37 1015.57,-511.92 996,-524.5 988.79,-529.14 980.24,-532.73 972.17,-535.43"/>
<polygon fill="#63b8ff" stroke="#63b8ff" points="1055.92,-478.69 1064.27,-472.17 1053.67,-472.06 1055.92,-478.69"/>
</a>
</g>
</g>
<!-- Node11 -->
<g id="Node000011" class="node">
<title>Node11</title>
<g id="a_Node000011"><a xlink:href="kc_8cpp.html#aeca8344f58357afa063ffc8cc119f8b7" target="_top" xlink:title=" ">
<polygon fill="white" stroke="#666666" points="968,-365 917,-365 917,-346 968,-346 968,-365"/>
<text text-anchor="middle" x="942.5" y="-353" font-family="Helvetica" font-size="10.00">cdfinv_t</text>
</a>
</g>
</g>
<!-- Node10&#45;&gt;Node11 -->
<g id="edge10_Node000010_Node000011" class="edge">
<title>Node10&#45;&gt;Node11</title>
<g id="a_edge10_Node000010_Node000011"><a xlink:title=" ">
<path fill="none" stroke="#63b8ff" d="M1054.61,-385.88C1029.35,-378.97 992.48,-368.89 968.25,-362.26"/>
<polygon fill="#63b8ff" stroke="#63b8ff" points="1053.76,-389.27 1064.33,-388.53 1055.61,-382.52 1053.76,-389.27"/>
</a>
</g>
</g>
<!-- Node12 -->
<g id="Node000012" class="node">
<title>Node12</title>
<g id="a_Node000012"><a xlink:href="kc_8cpp.html#a77077c3de17b2dd212a275a4e0ff1750" target="_top" xlink:title=" ">
<polygon fill="white" stroke="#666666" points="841,-374 740,-374 740,-355 841,-355 841,-374"/>
<text text-anchor="middle" x="790.5" y="-362" font-family="Helvetica" font-size="10.00">matrix_regCoefStat</text>
</a>
</g>
</g>
<!-- Node10&#45;&gt;Node12 -->
<g id="edge13_Node000010_Node000012" class="edge">
<title>Node10&#45;&gt;Node12</title>
<g id="a_edge13_Node000010_Node000012"><a xlink:title=" ">
<path fill="none" stroke="#63b8ff" d="M1054.13,-390.75C1016.42,-387.09 947.69,-380.39 889,-374.5 873.42,-372.94 856.45,-371.21 841.1,-369.63"/>
<polygon fill="#63b8ff" stroke="#63b8ff" points="1054.07,-394.26 1064.36,-391.74 1054.74,-387.3 1054.07,-394.26"/>
</a>
</g>
</g>
<!-- Node13 -->
<g id="Node000013" class="node">
<title>Node13</title>
<g id="a_Node000013"><a xlink:href="kc_8cpp.html#ad66fdb823fdc1c7260a0459c1912203f" target="_top" xlink:title=" ">
<polygon fill="white" stroke="#666666" points="839.5,-336 741.5,-336 741.5,-317 839.5,-317 839.5,-336"/>
<text text-anchor="middle" x="790.5" y="-324" font-family="Helvetica" font-size="10.00">matrix_regObsStat</text>
</a>
</g>
</g>
<!-- Node10&#45;&gt;Node13 -->
<g id="edge14_Node000010_Node000013" class="edge">
<title>Node10&#45;&gt;Node13</title>
<g id="a_edge14_Node000010_Node000013"><a xlink:title=" ">
<path fill="none" stroke="#63b8ff" d="M1054.97,-384.24C1047.23,-381.07 1039.02,-377.13 1032,-372.5 1013.37,-360.22 1016.44,-346.45 996,-337.5 946,-315.62 882.44,-316.02 839.55,-319.85"/>
<polygon fill="#63b8ff" stroke="#63b8ff" points="1053.8,-387.54 1064.39,-387.85 1056.3,-381 1053.8,-387.54"/>
</a>
</g>
</g>
<!-- Node14 -->
<g id="Node000014" class="node">
<title>Node14</title>
<g id="a_Node000014"><a xlink:href="kc_8cpp.html#a9e38b2816c8d12a153ea2a22d1241ba2" target="_top" xlink:title=" ">
<polygon fill="white" stroke="#666666" points="968.5,-289 916.5,-289 916.5,-270 968.5,-270 968.5,-289"/>
<text text-anchor="middle" x="942.5" y="-277" font-family="Helvetica" font-size="10.00">ttest_ev</text>
</a>
</g>
</g>
<!-- Node10&#45;&gt;Node14 -->
<g id="edge15_Node000010_Node000014" class="edge">
<title>Node10&#45;&gt;Node14</title>
<g id="a_edge15_Node000010_Node000014"><a xlink:title=" ">
<path fill="none" stroke="#63b8ff" d="M1054.92,-386C1046.85,-382.82 1038.47,-378.43 1032,-372.5 1006.5,-349.13 1021.09,-327.31 996,-303.5 988.3,-296.19 977.97,-290.81 968.52,-287.03"/>
<polygon fill="#63b8ff" stroke="#63b8ff" points="1053.86,-389.34 1064.45,-389.31 1056.15,-382.72 1053.86,-389.34"/>
</a>
</g>
</g>
<!-- Node15 -->
<g id="Node000015" class="node">
<title>Node15</title>
<g id="a_Node000015"><a xlink:href="kc_8cpp.html#a74f76187c76268c668bfe62efddb21d3" target="_top" xlink:title=" ">
<polygon fill="white" stroke="#666666" points="987,-478 898,-478 898,-459 987,-459 987,-478"/>
<text text-anchor="middle" x="942.5" y="-466" font-family="Helvetica" font-size="10.00">ttest_onesample</text>
</a>
</g>
</g>
<!-- Node10&#45;&gt;Node15 -->
<g id="edge16_Node000010_Node000015" class="edge">
<title>Node10&#45;&gt;Node15</title>
<g id="a_edge16_Node000010_Node000015"><a xlink:title=" ">
<path fill="none" stroke="#63b8ff" d="M1062.12,-409.07C1045.13,-421.51 1019.92,-438.75 996,-450.5 989.6,-453.64 982.51,-456.47 975.67,-458.91"/>
<polygon fill="#63b8ff" stroke="#63b8ff" points="1064.27,-411.83 1070.21,-403.05 1060.09,-406.21 1064.27,-411.83"/>
</a>
</g>
</g>
<!-- Node16 -->
<g id="Node000016" class="node">
<title>Node16</title>
<g id="a_Node000016"><a xlink:href="kc_8cpp.html#a99f03c3631c210c7091d184e108d57a5" target="_top" xlink:title=" ">
<polygon fill="white" stroke="#666666" points="971,-441 914,-441 914,-422 971,-422 971,-441"/>
<text text-anchor="middle" x="942.5" y="-429" font-family="Helvetica" font-size="10.00">ttest_uev</text>
</a>
</g>
</g>
<!-- Node10&#45;&gt;Node16 -->
<g id="edge17_Node000010_Node000016" class="edge">
<title>Node10&#45;&gt;Node16</title>
<g id="a_edge17_Node000010_Node000016"><a xlink:title=" ">
<path fill="none" stroke="#63b8ff" d="M1054.63,-401.12C1030.31,-407.77 995.23,-417.36 971.02,-423.98"/>
<polygon fill="#63b8ff" stroke="#63b8ff" points="1055.61,-404.48 1064.33,-398.47 1053.76,-397.73 1055.61,-404.48"/>
</a>
</g>
</g>
<!-- Node11&#45;&gt;Node12 -->
<g id="edge11_Node000011_Node000012" class="edge">
<title>Node11&#45;&gt;Node12</title>
<g id="a_edge11_Node000011_Node000012"><a xlink:title=" ">
<path fill="none" stroke="#63b8ff" d="M906.51,-357.6C887.08,-358.77 862.59,-360.23 841.21,-361.52"/>
<polygon fill="#63b8ff" stroke="#63b8ff" points="906.96,-361.08 916.73,-356.99 906.54,-354.09 906.96,-361.08"/>
</a>
</g>
</g>
<!-- Node11&#45;&gt;Node13 -->
<g id="edge12_Node000011_Node000013" class="edge">
<title>Node11&#45;&gt;Node13</title>
<g id="a_edge12_Node000011_Node000013"><a xlink:title=" ">
<path fill="none" stroke="#63b8ff" d="M906.84,-348.8C886.89,-344.94 861.53,-340.04 839.67,-335.81"/>
<polygon fill="#63b8ff" stroke="#63b8ff" points="906.25,-352.25 916.73,-350.71 907.58,-345.38 906.25,-352.25"/>
</a>
</g>
</g>
<!-- Node18 -->
<g id="Node000018" class="node">
<title>Node18</title>
<g id="a_Node000018"><a xlink:href="kc_8cpp.html#abc817004395072b1695cfaa85444f1e7" target="_top" xlink:title=" ">
<polygon fill="white" stroke="#666666" points="1104,-363 1063,-363 1063,-344 1104,-344 1104,-363"/>
<text text-anchor="middle" x="1083.5" y="-351" font-family="Helvetica" font-size="10.00">bitest</text>
</a>
</g>
</g>
<!-- Node17&#45;&gt;Node18 -->
<g id="edge19_Node000017_Node000018" class="edge">
<title>Node17&#45;&gt;Node18</title>
<g id="a_edge19_Node000017_Node000018"><a xlink:title=" ">
<path fill="none" stroke="#63b8ff" d="M1172.95,-325.04C1151.98,-331.79 1123.2,-341.05 1104.24,-347.15"/>
<polygon fill="#63b8ff" stroke="#63b8ff" points="1174.08,-328.35 1182.53,-321.96 1171.94,-321.69 1174.08,-328.35"/>
</a>
</g>
</g>
<!-- Node19 -->
<g id="Node000019" class="node">
<title>Node19</title>
<g id="a_Node000019"><a xlink:href="kc_8cpp.html#aa46a006334c47841787f731dc8549788" target="_top" xlink:title=" ">
<polygon fill="white" stroke="#666666" points="1119,-289 1048,-289 1048,-270 1119,-270 1119,-289"/>
<text text-anchor="middle" x="1083.5" y="-277" font-family="Helvetica" font-size="10.00">pdf_binomial</text>
</a>
</g>
</g>
<!-- Node17&#45;&gt;Node19 -->
<g id="edge20_Node000017_Node000019" class="edge">
<title>Node17&#45;&gt;Node19</title>
<g id="a_edge20_Node000017_Node000019"><a xlink:title=" ">
<path fill="none" stroke="#63b8ff" d="M1172.88,-307.94C1155.29,-302.28 1132.2,-294.85 1114.04,-289"/>
<polygon fill="#63b8ff" stroke="#63b8ff" points="1171.94,-311.31 1182.53,-311.04 1174.08,-304.65 1171.94,-311.31"/>
</a>
</g>
</g>
<!-- Node20 -->
<g id="Node000020" class="node">
<title>Node20</title>
<g id="a_Node000020"><a xlink:href="kc_8cpp.html#a71a16b3fb6e64dabbd74bfa358b6e6f0" target="_top" xlink:title=" ">
<polygon fill="white" stroke="#666666" points="1134.5,-326 1032.5,-326 1032.5,-307 1134.5,-307 1134.5,-326"/>
<text text-anchor="middle" x="1083.5" y="-314" font-family="Helvetica" font-size="10.00">pdf_hypergeometric</text>
</a>
</g>
</g>
<!-- Node17&#45;&gt;Node20 -->
<g id="edge21_Node000017_Node000020" class="edge">
<title>Node17&#45;&gt;Node20</title>
<g id="a_edge21_Node000017_Node000020"><a xlink:title=" ">
<path fill="none" stroke="#63b8ff" d="M1172.46,-316.5C1161.16,-316.5 1147.66,-316.5 1134.66,-316.5"/>
<polygon fill="#63b8ff" stroke="#63b8ff" points="1172.53,-320 1182.53,-316.5 1172.53,-313 1172.53,-320"/>
</a>
</g>
</g>
<!-- Node22 -->
<g id="Node000022" class="node">
<title>Node22</title>
<g id="a_Node000022"><a xlink:href="kc_8cpp.html#aa1745417f9696825bc7cc68538800b5b" target="_top" xlink:title=" ">
<polygon fill="white" stroke="#666666" points="1108,-215 1059,-215 1059,-196 1108,-196 1108,-215"/>
<text text-anchor="middle" x="1083.5" y="-203" font-family="Helvetica" font-size="10.00">gammp</text>
</a>
</g>
</g>
<!-- Node21&#45;&gt;Node22 -->
<g id="edge23_Node000021_Node000022" class="edge">
<title>Node21&#45;&gt;Node22</title>
<g id="a_edge23_Node000021_Node000022"><a xlink:title=" ">
<path fill="none" stroke="#63b8ff" d="M1175.65,-234.83C1155.92,-228.48 1128.05,-219.51 1108.33,-213.17"/>
<polygon fill="#63b8ff" stroke="#63b8ff" points="1174.81,-238.23 1185.4,-237.96 1176.95,-231.57 1174.81,-238.23"/>
</a>
</g>
</g>
<!-- Node23 -->
<g id="Node000023" class="node">
<title>Node23</title>
<g id="a_Node000023"><a xlink:href="kc_8cpp.html#ab600bf758ebb6d37ebd914533e27691d" target="_top" xlink:title=" ">
<polygon fill="white" stroke="#666666" points="969,-178 916,-178 916,-159 969,-159 969,-178"/>
<text text-anchor="middle" x="942.5" y="-166" font-family="Helvetica" font-size="10.00">cdf_chi2</text>
</a>
</g>
</g>
<!-- Node22&#45;&gt;Node23 -->
<g id="edge24_Node000022_Node000023" class="edge">
<title>Node22&#45;&gt;Node23</title>
<g id="a_edge24_Node000022_Node000023"><a xlink:title=" ">
<path fill="none" stroke="#63b8ff" d="M1048.95,-196.57C1024.39,-190.03 991.55,-181.29 969.08,-175.31"/>
<polygon fill="#63b8ff" stroke="#63b8ff" points="1048.36,-200.03 1058.92,-199.22 1050.16,-193.27 1048.36,-200.03"/>
</a>
</g>
</g>
<!-- Node31 -->
<g id="Node000031" class="node">
<title>Node31</title>
<g id="a_Node000031"><a xlink:href="kc_8cpp.html#a1f7aff47eacc48937a5dd3ae419c6066" target="_top" xlink:title=" ">
<polygon fill="white" stroke="#666666" points="977,-132 908,-132 908,-113 977,-113 977,-132"/>
<text text-anchor="middle" x="942.5" y="-120" font-family="Helvetica" font-size="10.00">cdf_poisson</text>
</a>
</g>
</g>
<!-- Node22&#45;&gt;Node31 -->
<g id="edge32_Node000022_Node000031" class="edge">
<title>Node22&#45;&gt;Node31</title>
<g id="a_edge32_Node000022_Node000031"><a xlink:title=" ">
<path fill="none" stroke="#63b8ff" d="M1060.39,-190.32C1043.14,-178.68 1018.41,-162.48 996,-149.5 985.36,-143.34 973.15,-137.02 963.2,-132.05"/>
<polygon fill="#63b8ff" stroke="#63b8ff" points="1058.44,-193.23 1068.68,-195.95 1062.38,-187.43 1058.44,-193.23"/>
</a>
</g>
</g>
<!-- Node33 -->
<g id="Node000033" class="node">
<title>Node33</title>
<g id="a_Node000033"><a xlink:href="kc_8cpp.html#afafd5c993f50f8676e0a2095ce62c012" target="_top" xlink:title=" ">
<polygon fill="white" stroke="#666666" points="962.5,-252 922.5,-252 922.5,-233 962.5,-233 962.5,-252"/>
<text text-anchor="middle" x="942.5" y="-240" font-family="Helvetica" font-size="10.00">errorf</text>
</a>
</g>
</g>
<!-- Node22&#45;&gt;Node33 -->
<g id="edge34_Node000022_Node000033" class="edge">
<title>Node22&#45;&gt;Node33</title>
<g id="a_edge34_Node000022_Node000033"><a xlink:title=" ">
<path fill="none" stroke="#63b8ff" d="M1049.11,-214.39C1022.09,-221.58 984.98,-231.46 962.71,-237.39"/>
<polygon fill="#63b8ff" stroke="#63b8ff" points="1050.16,-217.73 1058.92,-211.78 1048.36,-210.97 1050.16,-217.73"/>
</a>
</g>
</g>
<!-- Node42 -->
<g id="Node000042" class="node">
<title>Node42</title>
<g id="a_Node000042"><a xlink:href="kc_8cpp.html#a3875415d74d3aaf6f58d9e58fc061efd" target="_top" xlink:title=" ">
<polygon fill="white" stroke="#666666" points="967,-215 918,-215 918,-196 967,-196 967,-215"/>
<text text-anchor="middle" x="942.5" y="-203" font-family="Helvetica" font-size="10.00">gammq</text>
</a>
</g>
</g>
<!-- Node22&#45;&gt;Node42 -->
<g id="edge43_Node000022_Node000042" class="edge">
<title>Node22&#45;&gt;Node42</title>
<g id="a_edge43_Node000022_Node000042"><a xlink:title=" ">
<path fill="none" stroke="#63b8ff" d="M1048.69,-205.5C1023.45,-205.5 989.6,-205.5 967.2,-205.5"/>
<polygon fill="#63b8ff" stroke="#63b8ff" points="1048.92,-209 1058.92,-205.5 1048.92,-202 1048.92,-209"/>
</a>
</g>
</g>
<!-- Node24 -->
<g id="Node000024" class="node">
<title>Node24</title>
<g id="a_Node000024"><a xlink:href="kc_8cpp.html#adf37c70a909881088c54291500d5f848" target="_top" xlink:title=" ">
<polygon fill="white" stroke="#666666" points="816,-113 765,-113 765,-94 816,-94 816,-113"/>
<text text-anchor="middle" x="790.5" y="-101" font-family="Helvetica" font-size="10.00">chi2test</text>
</a>
</g>
</g>
<!-- Node23&#45;&gt;Node24 -->
<g id="edge25_Node000023_Node000024" class="edge">
<title>Node23&#45;&gt;Node24</title>
<g id="a_edge25_Node000023_Node000024"><a xlink:title=" ">
<path fill="none" stroke="#63b8ff" d="M914.75,-154.21C889.29,-140.63 854.62,-122.16 853,-121.5 841.15,-116.68 827.54,-112.56 816.13,-109.48"/>
<polygon fill="#63b8ff" stroke="#63b8ff" points="913.16,-157.33 923.63,-158.95 916.46,-151.16 913.16,-157.33"/>
</a>
</g>
</g>
<!-- Node25 -->
<g id="Node000025" class="node">
<title>Node25</title>
<g id="a_Node000025"><a xlink:href="kc_8cpp.html#ac06495bdbe2a0b6c4f235664bc002c80" target="_top" xlink:title=" ">
<polygon fill="white" stroke="#666666" points="839.5,-224 741.5,-224 741.5,-205 839.5,-205 839.5,-224"/>
<text text-anchor="middle" x="790.5" y="-212" font-family="Helvetica" font-size="10.00">chi2test_2by2table</text>
</a>
</g>
</g>
<!-- Node23&#45;&gt;Node25 -->
<g id="edge26_Node000023_Node000025" class="edge">
<title>Node23&#45;&gt;Node25</title>
<g id="a_edge26_Node000023_Node000025"><a xlink:title=" ">
<path fill="none" stroke="#63b8ff" d="M906.11,-179.35C880.77,-187.12 846.98,-197.49 822.66,-204.95"/>
<polygon fill="#63b8ff" stroke="#63b8ff" points="907.18,-182.69 915.71,-176.41 905.13,-175.99 907.18,-182.69"/>
</a>
</g>
</g>
<!-- Node26 -->
<g id="Node000026" class="node">
<title>Node26</title>
<g id="a_Node000026"><a xlink:href="kc_8cpp.html#a6f7008da290a84b7ba4e26e232a645dc" target="_top" xlink:title=" ">
<polygon fill="white" stroke="#666666" points="842.5,-187 738.5,-187 738.5,-168 842.5,-168 842.5,-187"/>
<text text-anchor="middle" x="790.5" y="-175" font-family="Helvetica" font-size="10.00">chi2test_onesample</text>
</a>
</g>
</g>
<!-- Node23&#45;&gt;Node26 -->
<g id="edge27_Node000023_Node000026" class="edge">
<title>Node23&#45;&gt;Node26</title>
<g id="a_edge27_Node000023_Node000026"><a xlink:title=" ">
<path fill="none" stroke="#63b8ff" d="M905.5,-170.66C886.7,-171.79 863.36,-173.19 842.71,-174.43"/>
<polygon fill="#63b8ff" stroke="#63b8ff" points="905.94,-174.14 915.71,-170.05 905.52,-167.15 905.94,-174.14"/>
</a>
</g>
</g>
<!-- Node29 -->
<g id="Node000029" class="node">
<title>Node29</title>
<g id="a_Node000029"><a xlink:href="kc_8cpp.html#a229578c847d01eeceb5d7bfe5ddf6c37" target="_top" xlink:title=" ">
<polygon fill="white" stroke="#666666" points="853,-150 728,-150 728,-131 853,-131 853,-150"/>
<text text-anchor="middle" x="790.5" y="-138" font-family="Helvetica" font-size="10.00">chi2test_trend_2by3table</text>
</a>
</g>
</g>
<!-- Node23&#45;&gt;Node29 -->
<g id="edge30_Node000023_Node000029" class="edge">
<title>Node23&#45;&gt;Node29</title>
<g id="a_edge30_Node000023_Node000029"><a xlink:title=" ">
<path fill="none" stroke="#63b8ff" d="M905.72,-161.82C886.78,-158.29 863.21,-153.89 842.4,-150"/>
<polygon fill="#63b8ff" stroke="#63b8ff" points="905.24,-165.29 915.71,-163.69 906.53,-158.41 905.24,-165.29"/>
</a>
</g>
</g>
<!-- Node27 -->
<g id="Node000027" class="node">
<title>Node27</title>
<g id="a_Node000027"><a xlink:href="kc_8cpp.html#a96ec673538c48e142ea769df221d2ca9" target="_top" xlink:title=" ">
<polygon fill="white" stroke="#666666" points="678.5,-187 580.5,-187 580.5,-168 678.5,-168 678.5,-187"/>
<text text-anchor="middle" x="629.5" y="-175" font-family="Helvetica" font-size="10.00">chi2test_2by3table</text>
</a>
</g>
</g>
<!-- Node26&#45;&gt;Node27 -->
<g id="edge28_Node000026_Node000027" class="edge">
<title>Node26&#45;&gt;Node27</title>
<g id="a_edge28_Node000026_Node000027"><a xlink:title=" ">
<path fill="none" stroke="#63b8ff" d="M728.24,-177.5C711.79,-177.5 694.24,-177.5 678.61,-177.5"/>
<polygon fill="#63b8ff" stroke="#63b8ff" points="728.32,-181 738.32,-177.5 728.32,-174 728.32,-181"/>
</a>
</g>
</g>
<!-- Node28 -->
<g id="Node000028" class="node">
<title>Node28</title>
<g id="a_Node000028"><a xlink:href="kc_8cpp.html#a3208fdc700d8fc604d6446c1180e58cd" target="_top" xlink:title=" ">
<polygon fill="white" stroke="#666666" points="524.5,-187 426.5,-187 426.5,-168 524.5,-168 524.5,-187"/>
<text text-anchor="middle" x="475.5" y="-175" font-family="Helvetica" font-size="10.00">chi2test_3by2table</text>
</a>
</g>
</g>
<!-- Node27&#45;&gt;Node28 -->
<g id="edge29_Node000027_Node000028" class="edge">
<title>Node27&#45;&gt;Node28</title>
<g id="a_edge29_Node000027_Node000028"><a xlink:title=" ">
<path fill="none" stroke="#63b8ff" d="M570.16,-177.5C555.08,-177.5 539.02,-177.5 524.54,-177.5"/>
<polygon fill="#63b8ff" stroke="#63b8ff" points="570.41,-181 580.41,-177.5 570.41,-174 570.41,-181"/>
</a>
</g>
</g>
<!-- Node30 -->
<g id="Node000030" class="node">
<title>Node30</title>
<g id="a_Node000030"><a xlink:href="kc_8cpp.html#a5ac369578aba21ff5f35f9e2c7320fa4" target="_top" xlink:title=" ">
<polygon fill="white" stroke="#666666" points="692,-150 567,-150 567,-131 692,-131 692,-150"/>
<text text-anchor="middle" x="629.5" y="-138" font-family="Helvetica" font-size="10.00">chi2test_trend_3by2table</text>
</a>
</g>
</g>
<!-- Node29&#45;&gt;Node30 -->
<g id="edge31_Node000029_Node000030" class="edge">
<title>Node29&#45;&gt;Node30</title>
<g id="a_edge31_Node000029_Node000030"><a xlink:title=" ">
<path fill="none" stroke="#63b8ff" d="M717.41,-140.5C709.01,-140.5 700.5,-140.5 692.26,-140.5"/>
<polygon fill="#63b8ff" stroke="#63b8ff" points="717.57,-144 727.57,-140.5 717.57,-137 717.57,-144"/>
</a>
</g>
</g>
<!-- Node32 -->
<g id="Node000032" class="node">
<title>Node32</title>
<g id="a_Node000032"><a xlink:href="kc_8cpp.html#a5e787a5eb2287b478478048a9a621fca" target="_top" xlink:title=" ">
<polygon fill="white" stroke="#666666" points="834,-76 747,-76 747,-57 834,-57 834,-76"/>
<text text-anchor="middle" x="790.5" y="-64" font-family="Helvetica" font-size="10.00">cdf_poisson_inc</text>
</a>
</g>
</g>
<!-- Node31&#45;&gt;Node32 -->
<g id="edge33_Node000031_Node000032" class="edge">
<title>Node31&#45;&gt;Node32</title>
<g id="a_edge33_Node000031_Node000032"><a xlink:title=" ">
<path fill="none" stroke="#63b8ff" d="M905.19,-109.21C899.73,-107.06 894.19,-104.78 889,-102.5 872.62,-95.31 869.65,-91.04 853,-84.5 845.03,-81.37 836.29,-78.49 827.96,-76"/>
<polygon fill="#63b8ff" stroke="#63b8ff" points="904.26,-112.6 914.85,-112.94 906.78,-106.07 904.26,-112.6"/>
</a>
</g>
</g>
<!-- Node34 -->
<g id="Node000034" class="node">
<title>Node34</title>
<g id="a_Node000034"><a xlink:href="kc_8cpp.html#ad7f21bf6ad62e142c785825e00a546e3" target="_top" xlink:title=" ">
<polygon fill="white" stroke="#666666" points="823,-261 758,-261 758,-242 823,-242 823,-261"/>
<text text-anchor="middle" x="790.5" y="-249" font-family="Helvetica" font-size="10.00">cdf_normal</text>
</a>
</g>
</g>
<!-- Node33&#45;&gt;Node34 -->
<g id="edge35_Node000033_Node000034" class="edge">
<title>Node33&#45;&gt;Node34</title>
<g id="a_edge35_Node000033_Node000034"><a xlink:title=" ">
<path fill="none" stroke="#63b8ff" d="M911.96,-244.27C886.3,-245.81 849.24,-248.04 823.02,-249.61"/>
<polygon fill="#63b8ff" stroke="#63b8ff" points="912.42,-247.75 922.2,-243.66 912.01,-240.76 912.42,-247.75"/>
</a>
</g>
</g>
<!-- Node41 -->
<g id="Node000041" class="node">
<title>Node41</title>
<g id="a_Node000041"><a xlink:href="kc_8cpp.html#a05188c3bfc69f9c84a6e22f6b0e11cc7" target="_top" xlink:title=" ">
<polygon fill="white" stroke="#666666" points="829.5,-298 751.5,-298 751.5,-279 829.5,-279 829.5,-298"/>
<text text-anchor="middle" x="790.5" y="-286" font-family="Helvetica" font-size="10.00">cdf_stdnormal</text>
</a>
</g>
</g>
<!-- Node33&#45;&gt;Node41 -->
<g id="edge42_Node000033_Node000041" class="edge">
<title>Node33&#45;&gt;Node41</title>
<g id="a_edge42_Node000033_Node000041"><a xlink:title=" ">
<path fill="none" stroke="#63b8ff" d="M912.62,-251.36C886.84,-259.26 849.2,-270.81 822.74,-278.92"/>
<polygon fill="#63b8ff" stroke="#63b8ff" points="913.66,-254.7 922.2,-248.42 911.61,-248.01 913.66,-254.7"/>
</a>
</g>
</g>
<!-- Node35 -->
<g id="Node000035" class="node">
<title>Node35</title>
<g id="a_Node000035"><a xlink:href="khmm_8cpp.html#a652a672a2d4cba451fe4f5a0af94d977" target="_top" xlink:title="O2 emission probability.">
<polygon fill="white" stroke="#666666" points="648.5,-261 610.5,-261 610.5,-242 648.5,-242 648.5,-261"/>
<text text-anchor="middle" x="629.5" y="-249" font-family="Helvetica" font-size="10.00">b2iot</text>
</a>
</g>
</g>
<!-- Node34&#45;&gt;Node35 -->
<g id="edge36_Node000034_Node000035" class="edge">
<title>Node34&#45;&gt;Node35</title>
<g id="a_edge36_Node000034_Node000035"><a xlink:title=" ">
<path fill="none" stroke="#63b8ff" d="M747.7,-251.5C715.61,-251.5 672.85,-251.5 648.85,-251.5"/>
<polygon fill="#63b8ff" stroke="#63b8ff" points="747.71,-255 757.71,-251.5 747.71,-248 747.71,-255"/>
</a>
</g>
</g>
<!-- Node36 -->
<g id="Node000036" class="node">
<title>Node36</title>
<g id="a_Node000036"><a xlink:href="khmm_8cpp.html#a51dbadd369b498ec093b590f39e8ea96" target="_top" xlink:title="Viterbi algorithm.">
<polygon fill="white" stroke="#666666" points="531,-261 420,-261 420,-242 531,-242 531,-261"/>
<text text-anchor="middle" x="475.5" y="-249" font-family="Helvetica" font-size="10.00">ViterbiLogNP_CHMM</text>
</a>
</g>
</g>
<!-- Node35&#45;&gt;Node36 -->
<g id="edge37_Node000035_Node000036" class="edge">
<title>Node35&#45;&gt;Node36</title>
<g id="a_edge37_Node000035_Node000036"><a xlink:title=" ">
<path fill="none" stroke="#63b8ff" d="M600.2,-251.5C580.81,-251.5 554.46,-251.5 531.07,-251.5"/>
<polygon fill="#63b8ff" stroke="#63b8ff" points="600.47,-255 610.47,-251.5 600.47,-248 600.47,-255"/>
</a>
</g>
</g>
<!-- Node37 -->
<g id="Node000037" class="node">
<title>Node37</title>
<g id="a_Node000037"><a xlink:href="khmm_8cpp.html#ac44ba55ccbb73d2b015ca7537479381e" target="_top" xlink:title="Run the main HMM algorithm.">
<polygon fill="white" stroke="#666666" points="384,-261 303,-261 303,-242 384,-242 384,-261"/>
<text text-anchor="middle" x="343.5" y="-249" font-family="Helvetica" font-size="10.00">testVit_CHMM</text>
</a>
</g>
</g>
<!-- Node36&#45;&gt;Node37 -->
<g id="edge38_Node000036_Node000037" class="edge">
<title>Node36&#45;&gt;Node37</title>
<g id="a_edge38_Node000036_Node000037"><a xlink:title=" ">
<path fill="none" stroke="#63b8ff" d="M409.6,-251.5C400.92,-251.5 392.25,-251.5 384.19,-251.5"/>
<polygon fill="#63b8ff" stroke="#63b8ff" points="409.75,-255 419.75,-251.5 409.75,-248 409.75,-255"/>
</a>
</g>
</g>
<!-- Node38 -->
<g id="Node000038" class="node">
<title>Node38</title>
<g id="a_Node000038"><a xlink:href="class_c_n_v_caller.html#a49824c662095f9af9a38056dadc8933f" target="_top" xlink:title=" ">
<polygon fill="white" stroke="#666666" points="267,-261 185,-261 185,-242 267,-242 267,-261"/>
<text text-anchor="middle" x="226" y="-249" font-family="Helvetica" font-size="10.00">CNVCaller::run</text>
</a>
</g>
</g>
<!-- Node37&#45;&gt;Node38 -->
<g id="edge39_Node000037_Node000038" class="edge">
<title>Node37&#45;&gt;Node38</title>
<g id="a_edge39_Node000037_Node000038"><a xlink:title=" ">
<path fill="none" stroke="#63b8ff" d="M292.58,-251.5C284.1,-251.5 275.4,-251.5 267.21,-251.5"/>
<polygon fill="#63b8ff" stroke="#63b8ff" points="292.75,-255 302.75,-251.5 292.75,-248 292.75,-255"/>
</a>
</g>
</g>
<!-- Node39 -->
<g id="Node000039" class="node">
<title>Node39</title>
<g id="a_Node000039"><a xlink:href="class_context_s_v.html#ac9d32b6e28e5bfdf10e314db0e90e4cd" target="_top" xlink:title=" ">
<polygon fill="white" stroke="#666666" points="149,-261 66,-261 66,-242 149,-242 149,-261"/>
<text text-anchor="middle" x="107.5" y="-249" font-family="Helvetica" font-size="10.00">ContextSV::run</text>
</a>
</g>
</g>
<!-- Node38&#45;&gt;Node39 -->
<g id="edge40_Node000038_Node000039" class="edge">
<title>Node38&#45;&gt;Node39</title>
<g id="a_edge40_Node000038_Node000039"><a xlink:title=" ">
<path fill="none" stroke="#63b8ff" d="M174.65,-251.5C166.1,-251.5 157.32,-251.5 149.06,-251.5"/>
<polygon fill="#63b8ff" stroke="#63b8ff" points="174.91,-255 184.91,-251.5 174.91,-248 174.91,-255"/>
</a>
</g>
</g>
<!-- Node40 -->
<g id="Node000040" class="node">
<title>Node40</title>
<g id="a_Node000040"><a xlink:href="swig__interface_8cpp.html#ade07e2f2bb85b7aaac8af156f3e962f6" target="_top" xlink:title=" ">
<polygon fill="white" stroke="#666666" points="30,-261 0,-261 0,-242 30,-242 30,-261"/>
<text text-anchor="middle" x="15" y="-249" font-family="Helvetica" font-size="10.00">run</text>
</a>
</g>
</g>
<!-- Node39&#45;&gt;Node40 -->
<g id="edge41_Node000039_Node000040" class="edge">
<title>Node39&#45;&gt;Node40</title>
<g id="a_edge41_Node000039_Node000040"><a xlink:title=" ">
<path fill="none" stroke="#63b8ff" d="M55.56,-251.5C46.21,-251.5 37.19,-251.5 30.13,-251.5"/>
<polygon fill="#63b8ff" stroke="#63b8ff" points="55.75,-255 65.75,-251.5 55.75,-248 55.75,-255"/>
</a>
</g>
</g>
<!-- Node43&#45;&gt;Node22 -->
<g id="edge45_Node000043_Node000022" class="edge">
<title>Node43&#45;&gt;Node22</title>
<g id="a_edge45_Node000043_Node000022"><a xlink:title=" ">
<path fill="none" stroke="#63b8ff" d="M1172.49,-205.5C1153.03,-205.5 1127.03,-205.5 1108.34,-205.5"/>
<polygon fill="#63b8ff" stroke="#63b8ff" points="1172.53,-209 1182.53,-205.5 1172.53,-202 1172.53,-209"/>
</a>
</g>
</g>
<!-- Node44&#45;&gt;Node19 -->
<g id="edge47_Node000044_Node000019" class="edge">
<title>Node44&#45;&gt;Node19</title>
<g id="a_edge47_Node000044_Node000019"><a xlink:title=" ">
<path fill="none" stroke="#63b8ff" d="M1169.43,-279.5C1154.02,-279.5 1135.18,-279.5 1119.17,-279.5"/>
<polygon fill="#63b8ff" stroke="#63b8ff" points="1169.47,-283 1179.47,-279.5 1169.47,-276 1169.47,-283"/>
</a>
</g>
</g>
<!-- Node46 -->
<g id="Node000046" class="node">
<title>Node46</title>
<g id="a_Node000046"><a xlink:href="kc_8cpp.html#a20614b0260f5c699044c6514b6479e34" target="_top" xlink:title=" ">
<polygon fill="white" stroke="#666666" points="1109,-132 1058,-132 1058,-113 1109,-113 1109,-132"/>
<text text-anchor="middle" x="1083.5" y="-120" font-family="Helvetica" font-size="10.00">factorial</text>
</a>
</g>
</g>
<!-- Node45&#45;&gt;Node46 -->
<g id="edge49_Node000045_Node000046" class="edge">
<title>Node45&#45;&gt;Node46</title>
<g id="a_edge49_Node000045_Node000046"><a xlink:title=" ">
<path fill="none" stroke="#63b8ff" d="M1161.08,-97.2C1144.02,-102.83 1124.44,-109.3 1109.35,-114.29"/>
<polygon fill="#63b8ff" stroke="#63b8ff" points="1162.38,-100.45 1170.78,-93.99 1160.18,-93.81 1162.38,-100.45"/>
</a>
</g>
</g>
<!-- Node47 -->
<g id="Node000047" class="node">
<title>Node47</title>
<g id="a_Node000047"><a xlink:href="kc_8cpp.html#ad402504da1d8913d034b6db754886e90" target="_top" xlink:title=" ">
<polygon fill="white" stroke="#666666" points="977,-94 908,-94 908,-75 977,-75 977,-94"/>
<text text-anchor="middle" x="942.5" y="-82" font-family="Helvetica" font-size="10.00">pdf_poisson</text>
</a>
</g>
</g>
<!-- Node45&#45;&gt;Node47 -->
<g id="edge55_Node000045_Node000047" class="edge">
<title>Node45&#45;&gt;Node47</title>
<g id="a_edge55_Node000045_Node000047"><a xlink:title=" ">
<path fill="none" stroke="#63b8ff" d="M1160.52,-84.5C1110.47,-84.5 1024.43,-84.5 977.11,-84.5"/>
<polygon fill="#63b8ff" stroke="#63b8ff" points="1160.63,-88 1170.63,-84.5 1160.63,-81 1160.63,-88"/>
</a>
</g>
</g>
<!-- Node48 -->
<g id="Node000048" class="node">
<title>Node48</title>
<g id="a_Node000048"><a xlink:href="kc_8cpp.html#ab2a4b7063b009f90e6db6deface43386" target="_top" xlink:title=" ">
<polygon fill="white" stroke="#666666" points="1135,-56 1032,-56 1032,-37 1135,-37 1135,-56"/>
<text text-anchor="middle" x="1083.5" y="-44" font-family="Helvetica" font-size="10.00">fisher_exact_1sided</text>
</a>
</g>
</g>
<!-- Node45&#45;&gt;Node48 -->
<g id="edge53_Node000045_Node000048" class="edge">
<title>Node45&#45;&gt;Node48</title>
<g id="a_edge53_Node000045_Node000048"><a xlink:title=" ">
<path fill="none" stroke="#63b8ff" d="M1160.9,-71.74C1145.32,-66.6 1127.67,-60.76 1113.26,-56"/>
<polygon fill="#63b8ff" stroke="#63b8ff" points="1160.18,-75.19 1170.78,-75.01 1162.38,-68.55 1160.18,-75.19"/>
</a>
</g>
</g>
<!-- Node49 -->
<g id="Node000049" class="node">
<title>Node49</title>
<g id="a_Node000049"><a xlink:href="kc_8cpp.html#a5879c832b572d6cf16d7fe0dea2af315" target="_top" xlink:title=" ">
<polygon fill="white" stroke="#666666" points="1135,-19 1032,-19 1032,0 1135,0 1135,-19"/>
<text text-anchor="middle" x="1083.5" y="-7" font-family="Helvetica" font-size="10.00">fisher_exact_2sided</text>
</a>
</g>
</g>
<!-- Node45&#45;&gt;Node49 -->
<g id="edge54_Node000045_Node000049" class="edge">
<title>Node45&#45;&gt;Node49</title>
<g id="a_edge54_Node000045_Node000049"><a xlink:title=" ">
<path fill="none" stroke="#63b8ff" d="M1183.58,-67.27C1171.31,-54.81 1153.37,-38.34 1135,-27.5 1129.47,-24.24 1123.25,-21.42 1117.12,-19.06"/>
<polygon fill="#63b8ff" stroke="#63b8ff" points="1181.33,-69.97 1190.78,-74.77 1186.38,-65.13 1181.33,-69.97"/>
</a>
</g>
</g>
<!-- Node46&#45;&gt;Node31 -->
<g id="edge50_Node000046_Node000031" class="edge">
<title>Node46&#45;&gt;Node31</title>
<g id="a_edge50_Node000046_Node000031"><a xlink:title=" ">
<path fill="none" stroke="#63b8ff" d="M1047.9,-122.5C1026.29,-122.5 998.6,-122.5 977.17,-122.5"/>
<polygon fill="#63b8ff" stroke="#63b8ff" points="1047.97,-126 1057.97,-122.5 1047.97,-119 1047.97,-126"/>
</a>
</g>
</g>
<!-- Node46&#45;&gt;Node47 -->
<g id="edge51_Node000046_Node000047" class="edge">
<title>Node46&#45;&gt;Node47</title>
<g id="a_edge51_Node000046_Node000047"><a xlink:title=" ">
<path fill="none" stroke="#63b8ff" d="M1048.2,-113.12C1026.55,-107.2 998.7,-99.59 977.17,-93.7"/>
<polygon fill="#63b8ff" stroke="#63b8ff" points="1047.4,-116.53 1057.97,-115.79 1049.25,-109.78 1047.4,-116.53"/>
</a>
</g>
</g>
<!-- Node47&#45;&gt;Node32 -->
<g id="edge52_Node000047_Node000032" class="edge">
<title>Node47&#45;&gt;Node32</title>
<g id="a_edge52_Node000047_Node000032"><a xlink:title=" ">
<path fill="none" stroke="#63b8ff" d="M897.74,-79.25C877.72,-76.85 854.08,-74.01 834.19,-71.62"/>
<polygon fill="#63b8ff" stroke="#63b8ff" points="897.49,-82.74 907.84,-80.46 898.33,-75.79 897.49,-82.74"/>
</a>
</g>
</g>
</g>
</svg>
