<?xml version="1.0" encoding="UTF-8" standalone="no"?>
<!DOCTYPE svg PUBLIC "-//W3C//DTD SVG 1.1//EN"
 "http://www.w3.org/Graphics/SVG/1.1/DTD/svg11.dtd">
<!-- Generated by graphviz version 2.44.0 (0)
 -->
<!-- Title: matrix_copy Pages: 1 -->
<svg width="333pt" height="138pt"
 viewBox="0.00 0.00 333.00 138.00" xmlns="http://www.w3.org/2000/svg" xmlns:xlink="http://www.w3.org/1999/xlink">
<g id="graph0" class="graph" transform="scale(1 1) rotate(0) translate(4 134)">
<title>matrix_copy</title>
<!-- Node1 -->
<g id="Node000001" class="node">
<title>Node1</title>
<g id="a_Node000001"><a xlink:title=" ">
<polygon fill="#999999" stroke="#666666" points="325,-74 255,-74 255,-55 325,-55 325,-74"/>
<text text-anchor="middle" x="290" y="-62" font-family="Helvetica" font-size="10.00">matrix_copy</text>
</a>
</g>
</g>
<!-- Node2 -->
<g id="Node000002" class="node">
<title>Node2</title>
<g id="a_Node000002"><a xlink:href="kc_8cpp.html#a673ed8b4d0eee5e7e60df48435e0d8ba" target="_top" xlink:title=" ">
<polygon fill="white" stroke="#666666" points="213.5,-130 124.5,-130 124.5,-111 213.5,-111 213.5,-130"/>
<text text-anchor="middle" x="169" y="-118" font-family="Helvetica" font-size="10.00">matrix_corMatrix</text>
</a>
</g>
</g>
<!-- Node1&#45;&gt;Node2 -->
<g id="edge1_Node000001_Node000002" class="edge">
<title>Node1&#45;&gt;Node2</title>
<g id="a_edge1_Node000001_Node000002"><a xlink:title=" ">
<path fill="none" stroke="#63b8ff" d="M264.02,-79.21C250.86,-86.66 234.31,-95.58 219,-102.5 212.39,-105.49 205.13,-108.37 198.27,-110.91"/>
<polygon fill="#63b8ff" stroke="#63b8ff" points="266,-82.11 272.93,-74.09 262.52,-76.04 266,-82.11"/>
</a>
</g>
</g>
<!-- Node4 -->
<g id="Node000004" class="node">
<title>Node4</title>
<g id="a_Node000004"><a xlink:href="kc_8cpp.html#aa51dbc9f02003e376630381db9eab42c" target="_top" xlink:title=" ">
<polygon fill="white" stroke="#666666" points="215,-93 123,-93 123,-74 215,-74 215,-93"/>
<text text-anchor="middle" x="169" y="-81" font-family="Helvetica" font-size="10.00">matrix_covMatrix</text>
</a>
</g>
</g>
<!-- Node1&#45;&gt;Node4 -->
<g id="edge3_Node000001_Node000004" class="edge">
<title>Node1&#45;&gt;Node4</title>
<g id="a_edge3_Node000001_Node000004"><a xlink:title=" ">
<path fill="none" stroke="#63b8ff" d="M244.72,-71.57C235.08,-73.11 224.88,-74.74 215.2,-76.28"/>
<polygon fill="#63b8ff" stroke="#63b8ff" points="245.58,-74.98 254.9,-69.94 244.47,-68.07 245.58,-74.98"/>
</a>
</g>
</g>
<!-- Node6 -->
<g id="Node000006" class="node">
<title>Node6</title>
<g id="a_Node000006"><a xlink:href="kc_8cpp.html#a4709c372281713ec9baaf5fb939cb10e" target="_top" xlink:title=" ">
<polygon fill="white" stroke="#666666" points="200,-56 138,-56 138,-37 200,-37 200,-56"/>
<text text-anchor="middle" x="169" y="-44" font-family="Helvetica" font-size="10.00">matrix_det</text>
</a>
</g>
</g>
<!-- Node1&#45;&gt;Node6 -->
<g id="edge5_Node000001_Node000006" class="edge">
<title>Node1&#45;&gt;Node6</title>
<g id="a_edge5_Node000001_Node000006"><a xlink:title=" ">
<path fill="none" stroke="#63b8ff" d="M244.84,-57.82C229.92,-55.56 213.62,-53.1 200.06,-51.05"/>
<polygon fill="#63b8ff" stroke="#63b8ff" points="244.49,-61.31 254.9,-59.34 245.54,-54.39 244.49,-61.31"/>
</a>
</g>
</g>
<!-- Node7 -->
<g id="Node000007" class="node">
<title>Node7</title>
<g id="a_Node000007"><a xlink:href="kc_8cpp.html#aa04426b6994cdcfbbf77c3bb77e7a021" target="_top" xlink:title=" ">
<polygon fill="white" stroke="#666666" points="219,-19 119,-19 119,0 219,0 219,-19"/>
<text text-anchor="middle" x="169" y="-7" font-family="Helvetica" font-size="10.00">matrix_pcaComVar</text>
</a>
</g>
</g>
<!-- Node1&#45;&gt;Node7 -->
<g id="edge6_Node000001_Node000007" class="edge">
<title>Node1&#45;&gt;Node7</title>
<g id="a_edge6_Node000001_Node000007"><a xlink:title=" ">
<path fill="none" stroke="#63b8ff" d="M262.82,-50.21C249.81,-43.32 233.74,-35.13 219,-28.5 211.68,-25.21 203.6,-21.93 196.15,-19.05"/>
<polygon fill="#63b8ff" stroke="#63b8ff" points="261.23,-53.33 271.7,-54.96 264.53,-47.15 261.23,-53.33"/>
</a>
</g>
</g>
<!-- Node3 -->
<g id="Node000003" class="node">
<title>Node3</title>
<g id="a_Node000003"><a xlink:href="kc_8cpp.html#a165e97bd10a48d3c5da908938468212b" target="_top" xlink:title=" ">
<polygon fill="white" stroke="#666666" points="81.5,-130 1.5,-130 1.5,-111 81.5,-111 81.5,-130"/>
<text text-anchor="middle" x="41.5" y="-118" font-family="Helvetica" font-size="10.00">matrix_pcaCor</text>
</a>
</g>
</g>
<!-- Node2&#45;&gt;Node3 -->
<g id="edge2_Node000002_Node000003" class="edge">
<title>Node2&#45;&gt;Node3</title>
<g id="a_edge2_Node000002_Node000003"><a xlink:title=" ">
<path fill="none" stroke="#63b8ff" d="M114.18,-120.5C103.29,-120.5 92.04,-120.5 81.77,-120.5"/>
<polygon fill="#63b8ff" stroke="#63b8ff" points="114.46,-124 124.46,-120.5 114.46,-117 114.46,-124"/>
</a>
</g>
</g>
<!-- Node5 -->
<g id="Node000005" class="node">
<title>Node5</title>
<g id="a_Node000005"><a xlink:href="kc_8cpp.html#ae64a3eb3736d5788d72eaf7ad6927421" target="_top" xlink:title=" ">
<polygon fill="white" stroke="#666666" points="83,-93 0,-93 0,-74 83,-74 83,-93"/>
<text text-anchor="middle" x="41.5" y="-81" font-family="Helvetica" font-size="10.00">matrix_pcaCov</text>
</a>
</g>
</g>
<!-- Node4&#45;&gt;Node5 -->
<g id="edge4_Node000004_Node000005" class="edge">
<title>Node4&#45;&gt;Node5</title>
<g id="a_edge4_Node000004_Node000005"><a xlink:title=" ">
<path fill="none" stroke="#63b8ff" d="M112.53,-83.5C102.65,-83.5 92.53,-83.5 83.16,-83.5"/>
<polygon fill="#63b8ff" stroke="#63b8ff" points="112.69,-87 122.69,-83.5 112.69,-80 112.69,-87"/>
</a>
</g>
</g>
</g>
</svg>
