<?xml version="1.0" encoding="UTF-8" standalone="no"?>
<!DOCTYPE svg PUBLIC "-//W3C//DTD SVG 1.1//EN"
 "http://www.w3.org/Graphics/SVG/1.1/DTD/svg11.dtd">
<!-- Generated by graphviz version 2.44.0 (0)
 -->
<!-- Title: matrix_covMatrix Pages: 1 -->
<svg width="331pt" height="287pt"
 viewBox="0.00 0.00 331.00 287.00" xmlns="http://www.w3.org/2000/svg" xmlns:xlink="http://www.w3.org/1999/xlink">
<g id="graph0" class="graph" transform="scale(1 1) rotate(0) translate(4 283)">
<title>matrix_covMatrix</title>
<!-- Node1 -->
<g id="Node000001" class="node">
<title>Node1</title>
<g id="a_Node000001"><a xlink:title=" ">
<polygon fill="#999999" stroke="#666666" points="92,-130 0,-130 0,-111 92,-111 92,-130"/>
<text text-anchor="middle" x="46" y="-118" font-family="Helvetica" font-size="10.00">matrix_covMatrix</text>
</a>
</g>
</g>
<!-- Node2 -->
<g id="Node000002" class="node">
<title>Node2</title>
<g id="a_Node000002"><a xlink:href="kc_8cpp.html#a865598a7017730b2bdf24cf6269d0f23" target="_top" xlink:title=" ">
<polygon fill="white" stroke="#666666" points="217,-243 131,-243 131,-224 217,-224 217,-243"/>
<text text-anchor="middle" x="174" y="-231" font-family="Helvetica" font-size="10.00">matrix_colMean</text>
</a>
</g>
</g>
<!-- Node1&#45;&gt;Node2 -->
<g id="edge1_Node000001_Node000002" class="edge">
<title>Node1&#45;&gt;Node2</title>
<g id="a_edge1_Node000001_Node000002"><a xlink:title=" ">
<path fill="none" stroke="#63b8ff" d="M53.92,-130.06C66.92,-147.51 96.5,-185 128,-209.5 132.46,-212.97 137.48,-216.19 142.52,-219.09"/>
<polygon fill="#63b8ff" stroke="#63b8ff" points="141.01,-222.25 151.48,-223.91 144.33,-216.09 141.01,-222.25"/>
</a>
</g>
</g>
<!-- Node4 -->
<g id="Node000004" class="node">
<title>Node4</title>
<g id="a_Node000004"><a xlink:href="kc_8cpp.html#afc00baa57142e5db16101ade3200eea8" target="_top" xlink:title=" ">
<polygon fill="white" stroke="#666666" points="322,-205 257,-205 257,-186 322,-186 322,-205"/>
<text text-anchor="middle" x="289.5" y="-193" font-family="Helvetica" font-size="10.00">vector_free</text>
</a>
</g>
</g>
<!-- Node1&#45;&gt;Node4 -->
<g id="edge14_Node000001_Node000004" class="edge">
<title>Node1&#45;&gt;Node4</title>
<g id="a_edge14_Node000001_Node000004"><a xlink:title=" ">
<path fill="none" stroke="#63b8ff" d="M57.54,-130.37C72.12,-143.38 99.85,-165.86 128,-176.5 166.49,-191.05 213.54,-195.16 246.72,-196.02"/>
<polygon fill="#63b8ff" stroke="#63b8ff" points="246.92,-199.53 256.98,-196.2 247.04,-192.53 246.92,-199.53"/>
</a>
</g>
</g>
<!-- Node6 -->
<g id="Node000006" class="node">
<title>Node6</title>
<g id="a_Node000006"><a xlink:href="kc_8cpp.html#a487b6171c617a9bdb3b3337dab2fc046" target="_top" xlink:title=" ">
<polygon fill="white" stroke="#666666" points="209,-167 139,-167 139,-148 209,-148 209,-167"/>
<text text-anchor="middle" x="174" y="-155" font-family="Helvetica" font-size="10.00">matrix_copy</text>
</a>
</g>
</g>
<!-- Node1&#45;&gt;Node6 -->
<g id="edge5_Node000001_Node000006" class="edge">
<title>Node1&#45;&gt;Node6</title>
<g id="a_edge5_Node000001_Node000006"><a xlink:title=" ">
<path fill="none" stroke="#63b8ff" d="M79.45,-130.03C94.91,-134.57 113.6,-140.06 130.2,-144.93"/>
<polygon fill="#63b8ff" stroke="#63b8ff" points="129.64,-148.42 140.22,-147.88 131.62,-141.7 129.64,-148.42"/>
</a>
</g>
</g>
<!-- Node8 -->
<g id="Node000008" class="node">
<title>Node8</title>
<g id="a_Node000008"><a xlink:href="kc_8cpp.html#aa517f6dc1cd623e0f2fdc5f0f9ab8534" target="_top" xlink:title=" ">
<polygon fill="white" stroke="#666666" points="206.5,-130 141.5,-130 141.5,-111 206.5,-111 206.5,-130"/>
<text text-anchor="middle" x="174" y="-118" font-family="Helvetica" font-size="10.00">matrix_free</text>
</a>
</g>
</g>
<!-- Node1&#45;&gt;Node8 -->
<g id="edge7_Node000001_Node000008" class="edge">
<title>Node1&#45;&gt;Node8</title>
<g id="a_edge7_Node000001_Node000008"><a xlink:title=" ">
<path fill="none" stroke="#63b8ff" d="M92.13,-120.5C104.82,-120.5 118.56,-120.5 131.06,-120.5"/>
<polygon fill="#63b8ff" stroke="#63b8ff" points="131.21,-124 141.21,-120.5 131.21,-117 131.21,-124"/>
</a>
</g>
</g>
<!-- Node9 -->
<g id="Node000009" class="node">
<title>Node9</title>
<g id="a_Node000009"><a xlink:href="kc_8cpp.html#a434b0afbcca14a331a887ef5f456cef9" target="_top" xlink:title=" ">
<polygon fill="white" stroke="#666666" points="215.5,-93 132.5,-93 132.5,-74 215.5,-74 215.5,-93"/>
<text text-anchor="middle" x="174" y="-81" font-family="Helvetica" font-size="10.00">matrix_multiply</text>
</a>
</g>
</g>
<!-- Node1&#45;&gt;Node9 -->
<g id="edge8_Node000001_Node000009" class="edge">
<title>Node1&#45;&gt;Node9</title>
<g id="a_edge8_Node000001_Node000009"><a xlink:title=" ">
<path fill="none" stroke="#63b8ff" d="M79.45,-110.97C94.91,-106.43 113.6,-100.94 130.2,-96.07"/>
<polygon fill="#63b8ff" stroke="#63b8ff" points="131.62,-99.3 140.22,-93.12 129.64,-92.58 131.62,-99.3"/>
</a>
</g>
</g>
<!-- Node10 -->
<g id="Node000010" class="node">
<title>Node10</title>
<g id="a_Node000010"><a xlink:href="kc_8cpp.html#aef4d42f4197a1db7f6667dc7ea67956b" target="_top" xlink:title=" ">
<polygon fill="white" stroke="#666666" points="214.5,-19 133.5,-19 133.5,0 214.5,0 214.5,-19"/>
<text text-anchor="middle" x="174" y="-7" font-family="Helvetica" font-size="10.00">matrix_product</text>
</a>
</g>
</g>
<!-- Node1&#45;&gt;Node10 -->
<g id="edge9_Node000001_Node000010" class="edge">
<title>Node1&#45;&gt;Node10</title>
<g id="a_edge9_Node000001_Node000010"><a xlink:title=" ">
<path fill="none" stroke="#63b8ff" d="M53.25,-110.89C65.56,-92.61 94.67,-52.5 128,-28.5 130.47,-26.72 133.12,-25.07 135.87,-23.55"/>
<polygon fill="#63b8ff" stroke="#63b8ff" points="137.43,-26.68 144.83,-19.09 134.31,-20.41 137.43,-26.68"/>
</a>
</g>
</g>
<!-- Node12 -->
<g id="Node000012" class="node">
<title>Node12</title>
<g id="a_Node000012"><a xlink:href="kc_8cpp.html#a89a2987a60a852f56603492790999aba" target="_top" xlink:title=" ">
<polygon fill="white" stroke="#666666" points="220,-56 128,-56 128,-37 220,-37 220,-56"/>
<text text-anchor="middle" x="174" y="-44" font-family="Helvetica" font-size="10.00">matrix_transpose</text>
</a>
</g>
</g>
<!-- Node1&#45;&gt;Node12 -->
<g id="edge12_Node000001_Node000012" class="edge">
<title>Node1&#45;&gt;Node12</title>
<g id="a_edge12_Node000001_Node000012"><a xlink:title=" ">
<path fill="none" stroke="#63b8ff" d="M59.41,-110.93C74.9,-99.26 102.46,-79.38 128,-65.5 131.32,-63.69 134.86,-61.94 138.43,-60.27"/>
<polygon fill="#63b8ff" stroke="#63b8ff" points="140.11,-63.35 147.83,-56.1 137.27,-56.96 140.11,-63.35"/>
</a>
</g>
</g>
<!-- Node3 -->
<g id="Node000003" class="node">
<title>Node3</title>
<g id="a_Node000003"><a xlink:href="kc_8cpp.html#ab01d6eb051febfe28b8ac2987dcfe524" target="_top" xlink:title=" ">
<polygon fill="white" stroke="#666666" points="310,-279 269,-279 269,-260 310,-260 310,-279"/>
<text text-anchor="middle" x="289.5" y="-267" font-family="Helvetica" font-size="10.00">mean</text>
</a>
</g>
</g>
<!-- Node2&#45;&gt;Node3 -->
<g id="edge2_Node000002_Node000003" class="edge">
<title>Node2&#45;&gt;Node3</title>
<g id="a_edge2_Node000002_Node000003"><a xlink:title=" ">
<path fill="none" stroke="#63b8ff" d="M205.12,-243.05C221.87,-248.37 242.62,-254.95 259.24,-260.22"/>
<polygon fill="#63b8ff" stroke="#63b8ff" points="258.38,-263.62 268.97,-263.31 260.5,-256.95 258.38,-263.62"/>
</a>
</g>
</g>
<!-- Node2&#45;&gt;Node4 -->
<g id="edge3_Node000002_Node000004" class="edge">
<title>Node2&#45;&gt;Node4</title>
<g id="a_edge3_Node000002_Node000004"><a xlink:title=" ">
<path fill="none" stroke="#63b8ff" d="M203.64,-223.91C217.75,-219.19 234.97,-213.42 250.2,-208.32"/>
<polygon fill="#63b8ff" stroke="#63b8ff" points="251.5,-211.58 259.87,-205.09 249.27,-204.94 251.5,-211.58"/>
</a>
</g>
</g>
<!-- Node5 -->
<g id="Node000005" class="node">
<title>Node5</title>
<g id="a_Node000005"><a xlink:href="kc_8cpp.html#a155bb2cc033bfd9bafbde8d31432f7ad" target="_top" xlink:title=" ">
<polygon fill="white" stroke="#666666" points="322.5,-242 256.5,-242 256.5,-223 322.5,-223 322.5,-242"/>
<text text-anchor="middle" x="289.5" y="-230" font-family="Helvetica" font-size="10.00">vector_new</text>
</a>
</g>
</g>
<!-- Node2&#45;&gt;Node5 -->
<g id="edge4_Node000002_Node000005" class="edge">
<title>Node2&#45;&gt;Node5</title>
<g id="a_edge4_Node000002_Node000005"><a xlink:title=" ">
<path fill="none" stroke="#63b8ff" d="M217.26,-233.13C226.8,-233.04 236.92,-232.95 246.44,-232.87"/>
<polygon fill="#63b8ff" stroke="#63b8ff" points="246.52,-236.37 256.49,-232.78 246.46,-229.37 246.52,-236.37"/>
</a>
</g>
</g>
<!-- Node7 -->
<g id="Node000007" class="node">
<title>Node7</title>
<g id="a_Node000007"><a xlink:href="kc_8cpp.html#ac75528b11a2997977101b6e9ded2c7cf" target="_top" xlink:title=" ">
<polygon fill="white" stroke="#666666" points="323,-56 256,-56 256,-37 323,-37 323,-56"/>
<text text-anchor="middle" x="289.5" y="-44" font-family="Helvetica" font-size="10.00">matrix_new</text>
</a>
</g>
</g>
<!-- Node6&#45;&gt;Node7 -->
<g id="edge6_Node000006_Node000007" class="edge">
<title>Node6&#45;&gt;Node7</title>
<g id="a_edge6_Node000006_Node000007"><a xlink:title=" ">
<path fill="none" stroke="#63b8ff" d="M205.78,-147.87C210.8,-145.57 215.74,-142.79 220,-139.5 246.45,-119.05 267.5,-85.79 278.97,-65.08"/>
<polygon fill="#63b8ff" stroke="#63b8ff" points="282.18,-66.5 283.81,-56.03 276,-63.2 282.18,-66.5"/>
</a>
</g>
</g>
<!-- Node10&#45;&gt;Node7 -->
<g id="edge10_Node000010_Node000007" class="edge">
<title>Node10&#45;&gt;Node7</title>
<g id="a_edge10_Node000010_Node000007"><a xlink:title=" ">
<path fill="none" stroke="#63b8ff" d="M204.23,-19.03C217.89,-23.48 234.36,-28.85 249.1,-33.66"/>
<polygon fill="#63b8ff" stroke="#63b8ff" points="248.38,-37.1 258.98,-36.88 250.55,-30.45 248.38,-37.1"/>
</a>
</g>
</g>
<!-- Node11 -->
<g id="Node000011" class="node">
<title>Node11</title>
<g id="a_Node000011"><a xlink:href="kc_8cpp.html#adbdc6116401c49523c4c62dde6147310" target="_top" xlink:title=" ">
<polygon fill="white" stroke="#666666" points="323,-19 256,-19 256,0 323,0 323,-19"/>
<text text-anchor="middle" x="289.5" y="-7" font-family="Helvetica" font-size="10.00">matrix_zero</text>
</a>
</g>
</g>
<!-- Node10&#45;&gt;Node11 -->
<g id="edge11_Node000010_Node000011" class="edge">
<title>Node10&#45;&gt;Node11</title>
<g id="a_edge11_Node000010_Node000011"><a xlink:title=" ">
<path fill="none" stroke="#63b8ff" d="M214.7,-9.5C224.66,-9.5 235.4,-9.5 245.51,-9.5"/>
<polygon fill="#63b8ff" stroke="#63b8ff" points="245.77,-13 255.77,-9.5 245.77,-6 245.77,-13"/>
</a>
</g>
</g>
<!-- Node12&#45;&gt;Node7 -->
<g id="edge13_Node000012_Node000007" class="edge">
<title>Node12&#45;&gt;Node7</title>
<g id="a_edge13_Node000012_Node000007"><a xlink:title=" ">
<path fill="none" stroke="#63b8ff" d="M220.18,-46.5C228.53,-46.5 237.22,-46.5 245.5,-46.5"/>
<polygon fill="#63b8ff" stroke="#63b8ff" points="245.71,-50 255.71,-46.5 245.71,-43 245.71,-50"/>
</a>
</g>
</g>
</g>
</svg>
