<?xml version="1.0" encoding="UTF-8" standalone="no"?>
<!DOCTYPE svg PUBLIC "-//W3C//DTD SVG 1.1//EN"
 "http://www.w3.org/Graphics/SVG/1.1/DTD/svg11.dtd">
<!-- Generated by graphviz version 2.44.0 (0)
 -->
<!-- Title: chi2test_2by2table Pages: 1 -->
<svg width="438pt" height="64pt"
 viewBox="0.00 0.00 438.00 64.00" xmlns="http://www.w3.org/2000/svg" xmlns:xlink="http://www.w3.org/1999/xlink">
<g id="graph0" class="graph" transform="scale(1 1) rotate(0) translate(4 60)">
<title>chi2test_2by2table</title>
<!-- Node1 -->
<g id="Node000001" class="node">
<title>Node1</title>
<g id="a_Node000001"><a xlink:title=" ">
<polygon fill="#999999" stroke="#666666" points="98,-37 0,-37 0,-18 98,-18 98,-37"/>
<text text-anchor="middle" x="49" y="-25" font-family="Helvetica" font-size="10.00">chi2test_2by2table</text>
</a>
</g>
</g>
<!-- Node2 -->
<g id="Node000002" class="node">
<title>Node2</title>
<g id="a_Node000002"><a xlink:href="kc_8cpp.html#ab600bf758ebb6d37ebd914533e27691d" target="_top" xlink:title=" ">
<polygon fill="white" stroke="#666666" points="187,-37 134,-37 134,-18 187,-18 187,-37"/>
<text text-anchor="middle" x="160.5" y="-25" font-family="Helvetica" font-size="10.00">cdf_chi2</text>
</a>
</g>
</g>
<!-- Node1&#45;&gt;Node2 -->
<g id="edge1_Node000001_Node000002" class="edge">
<title>Node1&#45;&gt;Node2</title>
<g id="a_edge1_Node000001_Node000002"><a xlink:title=" ">
<path fill="none" stroke="#63b8ff" d="M98.03,-27.5C106.58,-27.5 115.35,-27.5 123.49,-27.5"/>
<polygon fill="#63b8ff" stroke="#63b8ff" points="123.77,-31 133.77,-27.5 123.77,-24 123.77,-31"/>
</a>
</g>
</g>
<!-- Node3 -->
<g id="Node000003" class="node">
<title>Node3</title>
<g id="a_Node000003"><a xlink:href="kc_8cpp.html#aa1745417f9696825bc7cc68538800b5b" target="_top" xlink:title=" ">
<polygon fill="white" stroke="#666666" points="272,-37 223,-37 223,-18 272,-18 272,-37"/>
<text text-anchor="middle" x="247.5" y="-25" font-family="Helvetica" font-size="10.00">gammp</text>
</a>
</g>
</g>
<!-- Node2&#45;&gt;Node3 -->
<g id="edge2_Node000002_Node000003" class="edge">
<title>Node2&#45;&gt;Node3</title>
<g id="a_edge2_Node000002_Node000003"><a xlink:title=" ">
<path fill="none" stroke="#63b8ff" d="M187,-27.5C195.07,-27.5 204.11,-27.5 212.67,-27.5"/>
<polygon fill="#63b8ff" stroke="#63b8ff" points="212.76,-31 222.76,-27.5 212.76,-24 212.76,-31"/>
</a>
</g>
</g>
<!-- Node4 -->
<g id="Node000004" class="node">
<title>Node4</title>
<g id="a_Node000004"><a xlink:href="kc_8cpp.html#a5b446e3e8ec13c8e2383ac156f0cf77f" target="_top" xlink:title=" ">
<polygon fill="white" stroke="#666666" points="340.5,-56 310.5,-56 310.5,-37 340.5,-37 340.5,-56"/>
<text text-anchor="middle" x="325.5" y="-44" font-family="Helvetica" font-size="10.00">gcf</text>
</a>
</g>
</g>
<!-- Node3&#45;&gt;Node4 -->
<g id="edge3_Node000003_Node000004" class="edge">
<title>Node3&#45;&gt;Node4</title>
<g id="a_edge3_Node000003_Node000004"><a xlink:title=" ">
<path fill="none" stroke="#63b8ff" d="M272.13,-33.41C281.15,-35.66 291.44,-38.23 300.49,-40.5"/>
<polygon fill="#63b8ff" stroke="#63b8ff" points="299.85,-43.95 310.41,-42.98 301.55,-37.16 299.85,-43.95"/>
</a>
</g>
</g>
<!-- Node6 -->
<g id="Node000006" class="node">
<title>Node6</title>
<g id="a_Node000006"><a xlink:href="kc_8cpp.html#a5277079b0c65d166db9553deb8a92de2" target="_top" xlink:title=" ">
<polygon fill="white" stroke="#666666" points="343,-19 308,-19 308,0 343,0 343,-19"/>
<text text-anchor="middle" x="325.5" y="-7" font-family="Helvetica" font-size="10.00">gser</text>
</a>
</g>
</g>
<!-- Node3&#45;&gt;Node6 -->
<g id="edge5_Node000003_Node000006" class="edge">
<title>Node3&#45;&gt;Node6</title>
<g id="a_edge5_Node000003_Node000006"><a xlink:title=" ">
<path fill="none" stroke="#63b8ff" d="M272.13,-21.9C280.22,-19.99 289.33,-17.83 297.65,-15.86"/>
<polygon fill="#63b8ff" stroke="#63b8ff" points="298.71,-19.2 307.64,-13.49 297.1,-12.39 298.71,-19.2"/>
</a>
</g>
</g>
<!-- Node5 -->
<g id="Node000005" class="node">
<title>Node5</title>
<g id="a_Node000005"><a xlink:href="kc_8cpp.html#a69cc1b545a83a4d9f187e131500aee45" target="_top" xlink:title=" ">
<polygon fill="white" stroke="#666666" points="430,-37 379,-37 379,-18 430,-18 430,-37"/>
<text text-anchor="middle" x="404.5" y="-25" font-family="Helvetica" font-size="10.00">gammln</text>
</a>
</g>
</g>
<!-- Node4&#45;&gt;Node5 -->
<g id="edge4_Node000004_Node000005" class="edge">
<title>Node4&#45;&gt;Node5</title>
<g id="a_edge4_Node000004_Node000005"><a xlink:title=" ">
<path fill="none" stroke="#63b8ff" d="M340.62,-43.02C348.63,-41.04 359.04,-38.47 369.07,-36"/>
<polygon fill="#63b8ff" stroke="#63b8ff" points="370,-39.37 378.87,-33.58 368.32,-32.58 370,-39.37"/>
</a>
</g>
</g>
<!-- Node6&#45;&gt;Node5 -->
<g id="edge6_Node000006_Node000005" class="edge">
<title>Node6&#45;&gt;Node5</title>
<g id="a_edge6_Node000006_Node000005"><a xlink:title=" ">
<path fill="none" stroke="#63b8ff" d="M343.21,-13.41C350.79,-15.18 360.06,-17.34 369.03,-19.44"/>
<polygon fill="#63b8ff" stroke="#63b8ff" points="368.39,-22.89 378.93,-21.76 369.99,-16.07 368.39,-22.89"/>
</a>
</g>
</g>
</g>
</svg>
