<?xml version="1.0" encoding="UTF-8" standalone="no"?>
<!DOCTYPE svg PUBLIC "-//W3C//DTD SVG 1.1//EN"
 "http://www.w3.org/Graphics/SVG/1.1/DTD/svg11.dtd">
<!-- Generated by graphviz version 2.44.0 (0)
 -->
<!-- Title: free_dmatrix Pages: 1 -->
<svg width="646pt" height="103pt"
 viewBox="0.00 0.00 646.00 103.00" xmlns="http://www.w3.org/2000/svg" xmlns:xlink="http://www.w3.org/1999/xlink">
<g id="graph0" class="graph" transform="scale(1 1) rotate(0) translate(4 99)">
<title>free_dmatrix</title>
<!-- Node1 -->
<g id="Node000001" class="node">
<title>Node1</title>
<g id="a_Node000001"><a xlink:title=" ">
<polygon fill="#999999" stroke="#666666" points="638,-57 567,-57 567,-38 638,-38 638,-57"/>
<text text-anchor="middle" x="602.5" y="-45" font-family="Helvetica" font-size="10.00">free_dmatrix</text>
</a>
</g>
</g>
<!-- Node2 -->
<g id="Node000002" class="node">
<title>Node2</title>
<g id="a_Node000002"><a xlink:href="khmm_8cpp.html#ae1a70c28c22aa817cf0ecdfe2d8bd0d8" target="_top" xlink:title="Free the memory allocated for an HMM.">
<polygon fill="white" stroke="#666666" points="509,-95 442,-95 442,-76 509,-76 509,-95"/>
<text text-anchor="middle" x="475.5" y="-83" font-family="Helvetica" font-size="10.00">FreeCHMM</text>
</a>
</g>
</g>
<!-- Node1&#45;&gt;Node2 -->
<g id="edge1_Node000001_Node000002" class="edge">
<title>Node1&#45;&gt;Node2</title>
<g id="a_edge1_Node000001_Node000002"><a xlink:title=" ">
<path fill="none" stroke="#63b8ff" d="M560.27,-60.04C543.26,-65.2 523.87,-71.1 508.03,-75.91"/>
<polygon fill="#63b8ff" stroke="#63b8ff" points="561.41,-63.35 569.96,-57.09 559.37,-56.65 561.41,-63.35"/>
</a>
</g>
</g>
<!-- Node3 -->
<g id="Node000003" class="node">
<title>Node3</title>
<g id="a_Node000003"><a xlink:href="khmm_8cpp.html#ac44ba55ccbb73d2b015ca7537479381e" target="_top" xlink:title="Run the main HMM algorithm.">
<polygon fill="white" stroke="#666666" points="384,-38 303,-38 303,-19 384,-19 384,-38"/>
<text text-anchor="middle" x="343.5" y="-26" font-family="Helvetica" font-size="10.00">testVit_CHMM</text>
</a>
</g>
</g>
<!-- Node1&#45;&gt;Node3 -->
<g id="edge2_Node000001_Node000003" class="edge">
<title>Node1&#45;&gt;Node3</title>
<g id="a_edge2_Node000001_Node000003"><a xlink:title=" ">
<path fill="none" stroke="#63b8ff" d="M556.58,-44.18C507.81,-40.57 430.65,-34.87 384.08,-31.43"/>
<polygon fill="#63b8ff" stroke="#63b8ff" points="556.61,-47.69 566.84,-44.94 557.13,-40.71 556.61,-47.69"/>
</a>
</g>
</g>
<!-- Node7 -->
<g id="Node000007" class="node">
<title>Node7</title>
<g id="a_Node000007"><a xlink:href="khmm_8cpp.html#a51dbadd369b498ec093b590f39e8ea96" target="_top" xlink:title="Viterbi algorithm.">
<polygon fill="white" stroke="#666666" points="531,-19 420,-19 420,0 531,0 531,-19"/>
<text text-anchor="middle" x="475.5" y="-7" font-family="Helvetica" font-size="10.00">ViterbiLogNP_CHMM</text>
</a>
</g>
</g>
<!-- Node1&#45;&gt;Node7 -->
<g id="edge6_Node000001_Node000007" class="edge">
<title>Node1&#45;&gt;Node7</title>
<g id="a_edge6_Node000001_Node000007"><a xlink:title=" ">
<path fill="none" stroke="#63b8ff" d="M560.27,-34.96C543.26,-29.8 523.87,-23.9 508.03,-19.09"/>
<polygon fill="#63b8ff" stroke="#63b8ff" points="559.37,-38.35 569.96,-37.91 561.41,-31.65 559.37,-38.35"/>
</a>
</g>
</g>
<!-- Node4 -->
<g id="Node000004" class="node">
<title>Node4</title>
<g id="a_Node000004"><a xlink:href="class_c_n_v_caller.html#a49824c662095f9af9a38056dadc8933f" target="_top" xlink:title=" ">
<polygon fill="white" stroke="#666666" points="267,-38 185,-38 185,-19 267,-19 267,-38"/>
<text text-anchor="middle" x="226" y="-26" font-family="Helvetica" font-size="10.00">CNVCaller::run</text>
</a>
</g>
</g>
<!-- Node3&#45;&gt;Node4 -->
<g id="edge3_Node000003_Node000004" class="edge">
<title>Node3&#45;&gt;Node4</title>
<g id="a_edge3_Node000003_Node000004"><a xlink:title=" ">
<path fill="none" stroke="#63b8ff" d="M292.58,-28.5C284.1,-28.5 275.4,-28.5 267.21,-28.5"/>
<polygon fill="#63b8ff" stroke="#63b8ff" points="292.75,-32 302.75,-28.5 292.75,-25 292.75,-32"/>
</a>
</g>
</g>
<!-- Node5 -->
<g id="Node000005" class="node">
<title>Node5</title>
<g id="a_Node000005"><a xlink:href="class_context_s_v.html#ac9d32b6e28e5bfdf10e314db0e90e4cd" target="_top" xlink:title=" ">
<polygon fill="white" stroke="#666666" points="149,-38 66,-38 66,-19 149,-19 149,-38"/>
<text text-anchor="middle" x="107.5" y="-26" font-family="Helvetica" font-size="10.00">ContextSV::run</text>
</a>
</g>
</g>
<!-- Node4&#45;&gt;Node5 -->
<g id="edge4_Node000004_Node000005" class="edge">
<title>Node4&#45;&gt;Node5</title>
<g id="a_edge4_Node000004_Node000005"><a xlink:title=" ">
<path fill="none" stroke="#63b8ff" d="M174.65,-28.5C166.1,-28.5 157.32,-28.5 149.06,-28.5"/>
<polygon fill="#63b8ff" stroke="#63b8ff" points="174.91,-32 184.91,-28.5 174.91,-25 174.91,-32"/>
</a>
</g>
</g>
<!-- Node6 -->
<g id="Node000006" class="node">
<title>Node6</title>
<g id="a_Node000006"><a xlink:href="swig__interface_8cpp.html#ade07e2f2bb85b7aaac8af156f3e962f6" target="_top" xlink:title=" ">
<polygon fill="white" stroke="#666666" points="30,-38 0,-38 0,-19 30,-19 30,-38"/>
<text text-anchor="middle" x="15" y="-26" font-family="Helvetica" font-size="10.00">run</text>
</a>
</g>
</g>
<!-- Node5&#45;&gt;Node6 -->
<g id="edge5_Node000005_Node000006" class="edge">
<title>Node5&#45;&gt;Node6</title>
<g id="a_edge5_Node000005_Node000006"><a xlink:title=" ">
<path fill="none" stroke="#63b8ff" d="M55.56,-28.5C46.21,-28.5 37.19,-28.5 30.13,-28.5"/>
<polygon fill="#63b8ff" stroke="#63b8ff" points="55.75,-32 65.75,-28.5 55.75,-25 55.75,-32"/>
</a>
</g>
</g>
<!-- Node7&#45;&gt;Node3 -->
<g id="edge7_Node000007_Node000003" class="edge">
<title>Node7&#45;&gt;Node3</title>
<g id="a_edge7_Node000007_Node000003"><a xlink:title=" ">
<path fill="none" stroke="#63b8ff" d="M409.6,-18.99C400.92,-20.25 392.25,-21.52 384.19,-22.7"/>
<polygon fill="#63b8ff" stroke="#63b8ff" points="410.36,-22.41 419.75,-17.5 409.34,-15.49 410.36,-22.41"/>
</a>
</g>
</g>
</g>
</svg>
