<?xml version="1.0" encoding="UTF-8" standalone="no"?>
<!DOCTYPE svg PUBLIC "-//W3C//DTD SVG 1.1//EN"
 "http://www.w3.org/Graphics/SVG/1.1/DTD/svg11.dtd">
<!-- Generated by graphviz version 2.44.0 (0)
 -->
<!-- Title: matrix_det Pages: 1 -->
<svg width="300pt" height="175pt"
 viewBox="0.00 0.00 300.00 175.00" xmlns="http://www.w3.org/2000/svg" xmlns:xlink="http://www.w3.org/1999/xlink">
<g id="graph0" class="graph" transform="scale(1 1) rotate(0) translate(4 171)">
<title>matrix_det</title>
<!-- Node1 -->
<g id="Node000001" class="node">
<title>Node1</title>
<g id="a_Node000001"><a xlink:title=" ">
<polygon fill="#999999" stroke="#666666" points="62,-93 0,-93 0,-74 62,-74 62,-93"/>
<text text-anchor="middle" x="31" y="-81" font-family="Helvetica" font-size="10.00">matrix_det</text>
</a>
</g>
</g>
<!-- Node2 -->
<g id="Node000002" class="node">
<title>Node2</title>
<g id="a_Node000002"><a xlink:href="kc_8cpp.html#a487b6171c617a9bdb3b3337dab2fc046" target="_top" xlink:title=" ">
<polygon fill="white" stroke="#666666" points="178.5,-167 108.5,-167 108.5,-148 178.5,-148 178.5,-167"/>
<text text-anchor="middle" x="143.5" y="-155" font-family="Helvetica" font-size="10.00">matrix_copy</text>
</a>
</g>
</g>
<!-- Node1&#45;&gt;Node2 -->
<g id="edge1_Node000001_Node000002" class="edge">
<title>Node1&#45;&gt;Node2</title>
<g id="a_edge1_Node000001_Node000002"><a xlink:title=" ">
<path fill="none" stroke="#63b8ff" d="M41.51,-93.31C53.69,-105.44 75.88,-126.12 98,-139.5 100.47,-141 103.09,-142.42 105.78,-143.76"/>
<polygon fill="#63b8ff" stroke="#63b8ff" points="104.46,-147 115.01,-147.98 107.37,-140.64 104.46,-147"/>
</a>
</g>
</g>
<!-- Node4 -->
<g id="Node000004" class="node">
<title>Node4</title>
<g id="a_Node000004"><a xlink:href="kc_8cpp.html#aa517f6dc1cd623e0f2fdc5f0f9ab8534" target="_top" xlink:title=" ">
<polygon fill="white" stroke="#666666" points="176,-130 111,-130 111,-111 176,-111 176,-130"/>
<text text-anchor="middle" x="143.5" y="-118" font-family="Helvetica" font-size="10.00">matrix_free</text>
</a>
</g>
</g>
<!-- Node1&#45;&gt;Node4 -->
<g id="edge3_Node000001_Node000004" class="edge">
<title>Node1&#45;&gt;Node4</title>
<g id="a_edge3_Node000001_Node000004"><a xlink:title=" ">
<path fill="none" stroke="#63b8ff" d="M60.46,-93.03C73.76,-97.48 89.79,-102.85 104.14,-107.66"/>
<polygon fill="#63b8ff" stroke="#63b8ff" points="103.16,-111.02 113.76,-110.88 105.38,-104.38 103.16,-111.02"/>
</a>
</g>
</g>
<!-- Node5 -->
<g id="Node000005" class="node">
<title>Node5</title>
<g id="a_Node000005"><a xlink:href="kc_8cpp.html#a85a2f9c7ff758c36a67d0b8a58424404" target="_top" xlink:title=" ">
<polygon fill="white" stroke="#666666" points="189,-93 98,-93 98,-74 189,-74 189,-93"/>
<text text-anchor="middle" x="143.5" y="-81" font-family="Helvetica" font-size="10.00">matrix_ludecomp</text>
</a>
</g>
</g>
<!-- Node1&#45;&gt;Node5 -->
<g id="edge4_Node000001_Node000005" class="edge">
<title>Node1&#45;&gt;Node5</title>
<g id="a_edge4_Node000001_Node000005"><a xlink:title=" ">
<path fill="none" stroke="#63b8ff" d="M62.19,-83.5C70.09,-83.5 78.86,-83.5 87.62,-83.5"/>
<polygon fill="#63b8ff" stroke="#63b8ff" points="87.83,-87 97.83,-83.5 87.83,-80 87.83,-87"/>
</a>
</g>
</g>
<!-- Node8 -->
<g id="Node000008" class="node">
<title>Node8</title>
<g id="a_Node000008"><a xlink:href="kc_8cpp.html#a595f09d7b5e2d197a0d8d4cef8a061ae" target="_top" xlink:title=" ">
<polygon fill="white" stroke="#666666" points="177,-56 110,-56 110,-37 177,-37 177,-56"/>
<text text-anchor="middle" x="143.5" y="-44" font-family="Helvetica" font-size="10.00">vectori_free</text>
</a>
</g>
</g>
<!-- Node1&#45;&gt;Node8 -->
<g id="edge7_Node000001_Node000008" class="edge">
<title>Node1&#45;&gt;Node8</title>
<g id="a_edge7_Node000001_Node000008"><a xlink:title=" ">
<path fill="none" stroke="#63b8ff" d="M60.46,-73.97C73.76,-69.52 89.79,-64.15 104.14,-59.34"/>
<polygon fill="#63b8ff" stroke="#63b8ff" points="105.38,-62.62 113.76,-56.12 103.16,-55.98 105.38,-62.62"/>
</a>
</g>
</g>
<!-- Node9 -->
<g id="Node000009" class="node">
<title>Node9</title>
<g id="a_Node000009"><a xlink:href="kc_8cpp.html#a0fad130527c83326c9dfe7da022700e0" target="_top" xlink:title=" ">
<polygon fill="white" stroke="#666666" points="177.5,-19 109.5,-19 109.5,0 177.5,0 177.5,-19"/>
<text text-anchor="middle" x="143.5" y="-7" font-family="Helvetica" font-size="10.00">vectori_new</text>
</a>
</g>
</g>
<!-- Node1&#45;&gt;Node9 -->
<g id="edge8_Node000001_Node000009" class="edge">
<title>Node1&#45;&gt;Node9</title>
<g id="a_edge8_Node000001_Node000009"><a xlink:title=" ">
<path fill="none" stroke="#63b8ff" d="M41.51,-73.69C53.69,-61.56 75.88,-40.88 98,-27.5 100.47,-26 103.09,-24.58 105.78,-23.24"/>
<polygon fill="#63b8ff" stroke="#63b8ff" points="107.37,-26.36 115.01,-19.02 104.46,-20 107.37,-26.36"/>
</a>
</g>
</g>
<!-- Node3 -->
<g id="Node000003" class="node">
<title>Node3</title>
<g id="a_Node000003"><a xlink:href="kc_8cpp.html#ac75528b11a2997977101b6e9ded2c7cf" target="_top" xlink:title=" ">
<polygon fill="white" stroke="#666666" points="292,-167 225,-167 225,-148 292,-148 292,-167"/>
<text text-anchor="middle" x="258.5" y="-155" font-family="Helvetica" font-size="10.00">matrix_new</text>
</a>
</g>
</g>
<!-- Node2&#45;&gt;Node3 -->
<g id="edge2_Node000002_Node000003" class="edge">
<title>Node2&#45;&gt;Node3</title>
<g id="a_edge2_Node000002_Node000003"><a xlink:title=" ">
<path fill="none" stroke="#63b8ff" d="M178.71,-157.5C190.06,-157.5 202.85,-157.5 214.77,-157.5"/>
<polygon fill="#63b8ff" stroke="#63b8ff" points="214.95,-161 224.95,-157.5 214.95,-154 214.95,-161"/>
</a>
</g>
</g>
<!-- Node6 -->
<g id="Node000006" class="node">
<title>Node6</title>
<g id="a_Node000006"><a xlink:href="kc_8cpp.html#afc00baa57142e5db16101ade3200eea8" target="_top" xlink:title=" ">
<polygon fill="white" stroke="#666666" points="291,-112 226,-112 226,-93 291,-93 291,-112"/>
<text text-anchor="middle" x="258.5" y="-100" font-family="Helvetica" font-size="10.00">vector_free</text>
</a>
</g>
</g>
<!-- Node5&#45;&gt;Node6 -->
<g id="edge5_Node000005_Node000006" class="edge">
<title>Node5&#45;&gt;Node6</title>
<g id="a_edge5_Node000005_Node000006"><a xlink:title=" ">
<path fill="none" stroke="#63b8ff" d="M189.16,-91.01C197.94,-92.49 207.12,-94.03 215.8,-95.49"/>
<polygon fill="#63b8ff" stroke="#63b8ff" points="215.26,-98.95 225.7,-97.15 216.42,-92.04 215.26,-98.95"/>
</a>
</g>
</g>
<!-- Node7 -->
<g id="Node000007" class="node">
<title>Node7</title>
<g id="a_Node000007"><a xlink:href="kc_8cpp.html#a155bb2cc033bfd9bafbde8d31432f7ad" target="_top" xlink:title=" ">
<polygon fill="white" stroke="#666666" points="291.5,-75 225.5,-75 225.5,-56 291.5,-56 291.5,-75"/>
<text text-anchor="middle" x="258.5" y="-63" font-family="Helvetica" font-size="10.00">vector_new</text>
</a>
</g>
</g>
<!-- Node5&#45;&gt;Node7 -->
<g id="edge6_Node000005_Node000007" class="edge">
<title>Node5&#45;&gt;Node7</title>
<g id="a_edge6_Node000005_Node000007"><a xlink:title=" ">
<path fill="none" stroke="#63b8ff" d="M189.16,-76.39C197.76,-75.02 206.74,-73.59 215.25,-72.23"/>
<polygon fill="#63b8ff" stroke="#63b8ff" points="216.03,-75.65 225.35,-70.62 214.93,-68.74 216.03,-75.65"/>
</a>
</g>
</g>
</g>
</svg>
