<?xml version="1.0" encoding="UTF-8" standalone="no"?>
<!DOCTYPE svg PUBLIC "-//W3C//DTD SVG 1.1//EN"
 "http://www.w3.org/Graphics/SVG/1.1/DTD/svg11.dtd">
<!-- Generated by graphviz version 2.44.0 (0)
 -->
<!-- Title: ttest_ev Pages: 1 -->
<svg width="301pt" height="82pt"
 viewBox="0.00 0.00 301.00 82.00" xmlns="http://www.w3.org/2000/svg" xmlns:xlink="http://www.w3.org/1999/xlink">
<g id="graph0" class="graph" transform="scale(1 1) rotate(0) translate(4 78)">
<title>ttest_ev</title>
<!-- Node1 -->
<g id="Node000001" class="node">
<title>Node1</title>
<g id="a_Node000001"><a xlink:title=" ">
<polygon fill="#999999" stroke="#666666" points="52,-55 0,-55 0,-36 52,-36 52,-55"/>
<text text-anchor="middle" x="26" y="-43" font-family="Helvetica" font-size="10.00">ttest_ev</text>
</a>
</g>
</g>
<!-- Node2 -->
<g id="Node000002" class="node">
<title>Node2</title>
<g id="a_Node000002"><a xlink:href="kc_8cpp.html#ae263d464ebb9d7304f3c8043c41622b7" target="_top" xlink:title=" ">
<polygon fill="white" stroke="#666666" points="132,-74 88,-74 88,-55 132,-55 132,-74"/>
<text text-anchor="middle" x="110" y="-62" font-family="Helvetica" font-size="10.00">avevar</text>
</a>
</g>
</g>
<!-- Node1&#45;&gt;Node2 -->
<g id="edge1_Node000001_Node000002" class="edge">
<title>Node1&#45;&gt;Node2</title>
<g id="a_edge1_Node000001_Node000002"><a xlink:title=" ">
<path fill="none" stroke="#63b8ff" d="M52.05,-51.3C60.22,-53.2 69.39,-55.32 77.95,-57.3"/>
<polygon fill="#63b8ff" stroke="#63b8ff" points="77.44,-60.78 87.97,-59.63 79.02,-53.96 77.44,-60.78"/>
</a>
</g>
</g>
<!-- Node3 -->
<g id="Node000003" class="node">
<title>Node3</title>
<g id="a_Node000003"><a xlink:href="kc_8cpp.html#a996626bdadc539b36a6ddce1f8262f1e" target="_top" xlink:title=" ">
<polygon fill="white" stroke="#666666" points="129,-37 91,-37 91,-18 129,-18 129,-37"/>
<text text-anchor="middle" x="110" y="-25" font-family="Helvetica" font-size="10.00">cdf_t</text>
</a>
</g>
</g>
<!-- Node1&#45;&gt;Node3 -->
<g id="edge2_Node000001_Node000003" class="edge">
<title>Node1&#45;&gt;Node3</title>
<g id="a_edge2_Node000001_Node000003"><a xlink:title=" ">
<path fill="none" stroke="#63b8ff" d="M52.05,-40C61.15,-38 71.5,-35.73 80.85,-33.68"/>
<polygon fill="#63b8ff" stroke="#63b8ff" points="81.85,-37.04 90.87,-31.48 80.35,-30.21 81.85,-37.04"/>
</a>
</g>
</g>
<!-- Node4 -->
<g id="Node000004" class="node">
<title>Node4</title>
<g id="a_Node000004"><a xlink:href="kc_8cpp.html#aff974d448122c33ebffbaf2666c42092" target="_top" xlink:title=" ">
<polygon fill="white" stroke="#666666" points="206,-37 168,-37 168,-18 206,-18 206,-37"/>
<text text-anchor="middle" x="187" y="-25" font-family="Helvetica" font-size="10.00">betai</text>
</a>
</g>
</g>
<!-- Node3&#45;&gt;Node4 -->
<g id="edge3_Node000003_Node000004" class="edge">
<title>Node3&#45;&gt;Node4</title>
<g id="a_edge3_Node000003_Node000004"><a xlink:title=" ">
<path fill="none" stroke="#63b8ff" d="M129.16,-27.5C137.66,-27.5 147.99,-27.5 157.5,-27.5"/>
<polygon fill="#63b8ff" stroke="#63b8ff" points="157.75,-31 167.75,-27.5 157.75,-24 157.75,-31"/>
</a>
</g>
</g>
<!-- Node5 -->
<g id="Node000005" class="node">
<title>Node5</title>
<g id="a_Node000005"><a xlink:href="kc_8cpp.html#a1d6e649feccbc1d73424037ed02d7418" target="_top" xlink:title=" ">
<polygon fill="white" stroke="#666666" points="289.5,-56 245.5,-56 245.5,-37 289.5,-37 289.5,-56"/>
<text text-anchor="middle" x="267.5" y="-44" font-family="Helvetica" font-size="10.00">betacf</text>
</a>
</g>
</g>
<!-- Node4&#45;&gt;Node5 -->
<g id="edge4_Node000004_Node000005" class="edge">
<title>Node4&#45;&gt;Node5</title>
<g id="a_edge4_Node000004_Node000005"><a xlink:title=" ">
<path fill="none" stroke="#63b8ff" d="M206.21,-31.91C214.88,-34.01 225.5,-36.58 235.39,-38.97"/>
<polygon fill="#63b8ff" stroke="#63b8ff" points="234.79,-42.43 245.33,-41.38 236.44,-35.62 234.79,-42.43"/>
</a>
</g>
</g>
<!-- Node6 -->
<g id="Node000006" class="node">
<title>Node6</title>
<g id="a_Node000006"><a xlink:href="kc_8cpp.html#a69cc1b545a83a4d9f187e131500aee45" target="_top" xlink:title=" ">
<polygon fill="white" stroke="#666666" points="293,-19 242,-19 242,0 293,0 293,-19"/>
<text text-anchor="middle" x="267.5" y="-7" font-family="Helvetica" font-size="10.00">gammln</text>
</a>
</g>
</g>
<!-- Node4&#45;&gt;Node6 -->
<g id="edge5_Node000004_Node000006" class="edge">
<title>Node4&#45;&gt;Node6</title>
<g id="a_edge5_Node000004_Node000006"><a xlink:title=" ">
<path fill="none" stroke="#63b8ff" d="M206.21,-23.33C213.91,-21.56 223.14,-19.44 232.04,-17.4"/>
<polygon fill="#63b8ff" stroke="#63b8ff" points="232.89,-20.8 241.85,-15.15 231.32,-13.98 232.89,-20.8"/>
</a>
</g>
</g>
</g>
</svg>
