<?xml version="1.0" encoding="UTF-8" standalone="no"?>
<!DOCTYPE svg PUBLIC "-//W3C//DTD SVG 1.1//EN"
 "http://www.w3.org/Graphics/SVG/1.1/DTD/svg11.dtd">
<!-- Generated by graphviz version 2.44.0 (0)
 -->
<!-- Title: betai Pages: 1 -->
<svg width="433pt" height="327pt"
 viewBox="0.00 0.00 433.00 327.00" xmlns="http://www.w3.org/2000/svg" xmlns:xlink="http://www.w3.org/1999/xlink">
<g id="graph0" class="graph" transform="scale(1 1) rotate(0) translate(4 323)">
<title>betai</title>
<!-- Node1 -->
<g id="Node000001" class="node">
<title>Node1</title>
<g id="a_Node000001"><a xlink:title=" ">
<polygon fill="#999999" stroke="#666666" points="425,-263 387,-263 387,-244 425,-244 425,-263"/>
<text text-anchor="middle" x="406" y="-251" font-family="Helvetica" font-size="10.00">betai</text>
</a>
</g>
</g>
<!-- Node2 -->
<g id="Node000002" class="node">
<title>Node2</title>
<g id="a_Node000002"><a xlink:href="kc_8cpp.html#a42a8993650aee30084689ad35b6c5ea8" target="_top" xlink:title=" ">
<polygon fill="white" stroke="#666666" points="351,-300 280,-300 280,-281 351,-281 351,-300"/>
<text text-anchor="middle" x="315.5" y="-288" font-family="Helvetica" font-size="10.00">cdf_binomial</text>
</a>
</g>
</g>
<!-- Node1&#45;&gt;Node2 -->
<g id="edge1_Node000001_Node000002" class="edge">
<title>Node1&#45;&gt;Node2</title>
<g id="a_edge1_Node000001_Node000002"><a xlink:title=" ">
<path fill="none" stroke="#63b8ff" d="M377.42,-265.03C365.26,-270.12 351.13,-276.02 339.54,-280.87"/>
<polygon fill="#63b8ff" stroke="#63b8ff" points="378.79,-268.25 386.66,-261.17 376.09,-261.79 378.79,-268.25"/>
</a>
</g>
</g>
<!-- Node3 -->
<g id="Node000003" class="node">
<title>Node3</title>
<g id="a_Node000003"><a xlink:href="kc_8cpp.html#a44281fba5e514c76d3867c7cc899eb7c" target="_top" xlink:title=" ">
<polygon fill="white" stroke="#666666" points="334.5,-263 296.5,-263 296.5,-244 334.5,-244 334.5,-263"/>
<text text-anchor="middle" x="315.5" y="-251" font-family="Helvetica" font-size="10.00">cdf_f</text>
</a>
</g>
</g>
<!-- Node1&#45;&gt;Node3 -->
<g id="edge2_Node000001_Node000003" class="edge">
<title>Node1&#45;&gt;Node3</title>
<g id="a_edge2_Node000001_Node000003"><a xlink:title=" ">
<path fill="none" stroke="#63b8ff" d="M376.26,-253.5C362.52,-253.5 346.5,-253.5 334.51,-253.5"/>
<polygon fill="#63b8ff" stroke="#63b8ff" points="376.66,-257 386.66,-253.5 376.66,-250 376.66,-257"/>
</a>
</g>
</g>
<!-- Node7 -->
<g id="Node000007" class="node">
<title>Node7</title>
<g id="a_Node000007"><a xlink:href="kc_8cpp.html#a996626bdadc539b36a6ddce1f8262f1e" target="_top" xlink:title=" ">
<polygon fill="white" stroke="#666666" points="334.5,-131 296.5,-131 296.5,-112 334.5,-112 334.5,-131"/>
<text text-anchor="middle" x="315.5" y="-119" font-family="Helvetica" font-size="10.00">cdf_t</text>
</a>
</g>
</g>
<!-- Node1&#45;&gt;Node7 -->
<g id="edge6_Node000001_Node000007" class="edge">
<title>Node1&#45;&gt;Node7</title>
<g id="a_edge6_Node000001_Node000007"><a xlink:title=" ">
<path fill="none" stroke="#63b8ff" d="M392.57,-234.97C373.49,-206.5 337.64,-153.03 322.99,-131.18"/>
<polygon fill="#63b8ff" stroke="#63b8ff" points="389.87,-237.22 398.35,-243.58 395.69,-233.32 389.87,-237.22"/>
</a>
</g>
</g>
<!-- Node4 -->
<g id="Node000004" class="node">
<title>Node4</title>
<g id="a_Node000004"><a xlink:href="kc_8cpp.html#aeb063515d33aaf1d9131611c38b21fa4" target="_top" xlink:title=" ">
<polygon fill="white" stroke="#666666" points="208.5,-319 172.5,-319 172.5,-300 208.5,-300 208.5,-319"/>
<text text-anchor="middle" x="190.5" y="-307" font-family="Helvetica" font-size="10.00">ftest</text>
</a>
</g>
</g>
<!-- Node3&#45;&gt;Node4 -->
<g id="edge3_Node000003_Node000004" class="edge">
<title>Node3&#45;&gt;Node4</title>
<g id="a_edge3_Node000003_Node000004"><a xlink:title=" ">
<path fill="none" stroke="#63b8ff" d="M288.1,-268C270.04,-277.87 248.56,-289.51 244,-291.5 232.52,-296.52 219.16,-301.08 208.79,-304.36"/>
<polygon fill="#63b8ff" stroke="#63b8ff" points="290.04,-270.93 297.13,-263.05 286.68,-264.79 290.04,-270.93"/>
</a>
</g>
</g>
<!-- Node5 -->
<g id="Node000005" class="node">
<title>Node5</title>
<g id="a_Node000005"><a xlink:href="kc_8cpp.html#acf18fe54721a1ca7a61f70f4fdc637e3" target="_top" xlink:title=" ">
<polygon fill="white" stroke="#666666" points="244,-282 137,-282 137,-263 244,-263 244,-282"/>
<text text-anchor="middle" x="190.5" y="-270" font-family="Helvetica" font-size="10.00">matrix_regModelStat</text>
</a>
</g>
</g>
<!-- Node3&#45;&gt;Node5 -->
<g id="edge4_Node000003_Node000005" class="edge">
<title>Node3&#45;&gt;Node5</title>
<g id="a_edge4_Node000003_Node000005"><a xlink:title=" ">
<path fill="none" stroke="#63b8ff" d="M286.11,-257.88C273.61,-259.82 258.5,-262.15 244.07,-264.38"/>
<polygon fill="#63b8ff" stroke="#63b8ff" points="287,-261.29 296.35,-256.3 285.93,-254.37 287,-261.29"/>
</a>
</g>
</g>
<!-- Node6 -->
<g id="Node000006" class="node">
<title>Node6</title>
<g id="a_Node000006"><a xlink:href="kc_8cpp.html#a66d8af160cff194f4aa44bf2bd5eb2f5" target="_top" xlink:title=" ">
<polygon fill="white" stroke="#666666" points="220,-245 161,-245 161,-226 220,-226 220,-245"/>
<text text-anchor="middle" x="190.5" y="-233" font-family="Helvetica" font-size="10.00">reg_linear</text>
</a>
</g>
</g>
<!-- Node3&#45;&gt;Node6 -->
<g id="edge5_Node000003_Node000006" class="edge">
<title>Node3&#45;&gt;Node6</title>
<g id="a_edge5_Node000003_Node000006"><a xlink:title=" ">
<path fill="none" stroke="#63b8ff" d="M286.39,-249.39C266.59,-246.49 240.17,-242.62 220.23,-239.7"/>
<polygon fill="#63b8ff" stroke="#63b8ff" points="285.95,-252.86 296.35,-250.84 286.96,-245.93 285.95,-252.86"/>
</a>
</g>
</g>
<!-- Node8 -->
<g id="Node000008" class="node">
<title>Node8</title>
<g id="a_Node000008"><a xlink:href="kc_8cpp.html#aeca8344f58357afa063ffc8cc119f8b7" target="_top" xlink:title=" ">
<polygon fill="white" stroke="#666666" points="216,-169 165,-169 165,-150 216,-150 216,-169"/>
<text text-anchor="middle" x="190.5" y="-157" font-family="Helvetica" font-size="10.00">cdfinv_t</text>
</a>
</g>
</g>
<!-- Node7&#45;&gt;Node8 -->
<g id="edge7_Node000007_Node000008" class="edge">
<title>Node7&#45;&gt;Node8</title>
<g id="a_edge7_Node000007_Node000008"><a xlink:title=" ">
<path fill="none" stroke="#63b8ff" d="M286.62,-130.11C265.4,-136.67 236.47,-145.61 216.1,-151.9"/>
<polygon fill="#63b8ff" stroke="#63b8ff" points="287.83,-133.4 296.35,-127.11 285.76,-126.71 287.83,-133.4"/>
</a>
</g>
</g>
<!-- Node9 -->
<g id="Node000009" class="node">
<title>Node9</title>
<g id="a_Node000009"><a xlink:href="kc_8cpp.html#a77077c3de17b2dd212a275a4e0ff1750" target="_top" xlink:title=" ">
<polygon fill="white" stroke="#666666" points="101,-187 0,-187 0,-168 101,-168 101,-187"/>
<text text-anchor="middle" x="50.5" y="-175" font-family="Helvetica" font-size="10.00">matrix_regCoefStat</text>
</a>
</g>
</g>
<!-- Node7&#45;&gt;Node9 -->
<g id="edge10_Node000007_Node000009" class="edge">
<title>Node7&#45;&gt;Node9</title>
<g id="a_edge10_Node000007_Node000009"><a xlink:title=" ">
<path fill="none" stroke="#63b8ff" d="M299.82,-138.55C286.76,-152.3 266.33,-170.6 244,-178.5 197.68,-194.88 141.09,-192.12 101.29,-186.8"/>
<polygon fill="#63b8ff" stroke="#63b8ff" points="302.46,-140.84 306.61,-131.09 297.29,-136.13 302.46,-140.84"/>
</a>
</g>
</g>
<!-- Node10 -->
<g id="Node000010" class="node">
<title>Node10</title>
<g id="a_Node000010"><a xlink:href="kc_8cpp.html#ad66fdb823fdc1c7260a0459c1912203f" target="_top" xlink:title=" ">
<polygon fill="white" stroke="#666666" points="99.5,-150 1.5,-150 1.5,-131 99.5,-131 99.5,-150"/>
<text text-anchor="middle" x="50.5" y="-138" font-family="Helvetica" font-size="10.00">matrix_regObsStat</text>
</a>
</g>
</g>
<!-- Node7&#45;&gt;Node10 -->
<g id="edge11_Node000007_Node000010" class="edge">
<title>Node7&#45;&gt;Node10</title>
<g id="a_edge11_Node000007_Node000010"><a xlink:title=" ">
<path fill="none" stroke="#63b8ff" d="M286.3,-123.54C241.69,-126.76 154.31,-133.07 99.64,-137.02"/>
<polygon fill="#63b8ff" stroke="#63b8ff" points="286.7,-127.02 296.42,-122.81 286.2,-120.04 286.7,-127.02"/>
</a>
</g>
</g>
<!-- Node11 -->
<g id="Node000011" class="node">
<title>Node11</title>
<g id="a_Node000011"><a xlink:href="kc_8cpp.html#a9e38b2816c8d12a153ea2a22d1241ba2" target="_top" xlink:title=" ">
<polygon fill="white" stroke="#666666" points="216.5,-93 164.5,-93 164.5,-74 216.5,-74 216.5,-93"/>
<text text-anchor="middle" x="190.5" y="-81" font-family="Helvetica" font-size="10.00">ttest_ev</text>
</a>
</g>
</g>
<!-- Node7&#45;&gt;Node11 -->
<g id="edge12_Node000007_Node000011" class="edge">
<title>Node7&#45;&gt;Node11</title>
<g id="a_edge12_Node000007_Node000011"><a xlink:title=" ">
<path fill="none" stroke="#63b8ff" d="M286.69,-112.91C265.62,-106.4 236.91,-97.53 216.55,-91.24"/>
<polygon fill="#63b8ff" stroke="#63b8ff" points="285.76,-116.29 296.35,-115.89 287.83,-109.6 285.76,-116.29"/>
</a>
</g>
</g>
<!-- Node12 -->
<g id="Node000012" class="node">
<title>Node12</title>
<g id="a_Node000012"><a xlink:href="kc_8cpp.html#a74f76187c76268c668bfe62efddb21d3" target="_top" xlink:title=" ">
<polygon fill="white" stroke="#666666" points="235,-56 146,-56 146,-37 235,-37 235,-56"/>
<text text-anchor="middle" x="190.5" y="-44" font-family="Helvetica" font-size="10.00">ttest_onesample</text>
</a>
</g>
</g>
<!-- Node7&#45;&gt;Node12 -->
<g id="edge13_Node000007_Node000012" class="edge">
<title>Node7&#45;&gt;Node12</title>
<g id="a_edge13_Node000007_Node000012"><a xlink:title=" ">
<path fill="none" stroke="#63b8ff" d="M297.24,-104.64C283.69,-92.15 263.85,-75.47 244,-64.5 238.1,-61.24 231.5,-58.41 225.02,-56.03"/>
<polygon fill="#63b8ff" stroke="#63b8ff" points="295.14,-107.46 304.81,-111.78 299.94,-102.37 295.14,-107.46"/>
</a>
</g>
</g>
<!-- Node13 -->
<g id="Node000013" class="node">
<title>Node13</title>
<g id="a_Node000013"><a xlink:href="kc_8cpp.html#a99f03c3631c210c7091d184e108d57a5" target="_top" xlink:title=" ">
<polygon fill="white" stroke="#666666" points="219,-19 162,-19 162,0 219,0 219,-19"/>
<text text-anchor="middle" x="190.5" y="-7" font-family="Helvetica" font-size="10.00">ttest_uev</text>
</a>
</g>
</g>
<!-- Node7&#45;&gt;Node13 -->
<g id="edge14_Node000007_Node000013" class="edge">
<title>Node7&#45;&gt;Node13</title>
<g id="a_edge14_Node000007_Node000013"><a xlink:title=" ">
<path fill="none" stroke="#63b8ff" d="M304.95,-102.76C293.28,-81.63 271.63,-47.59 244,-27.5 236.68,-22.17 227.65,-18.33 219.16,-15.6"/>
<polygon fill="#63b8ff" stroke="#63b8ff" points="301.94,-104.55 309.73,-111.73 308.11,-101.25 301.94,-104.55"/>
</a>
</g>
</g>
<!-- Node8&#45;&gt;Node9 -->
<g id="edge8_Node000008_Node000009" class="edge">
<title>Node8&#45;&gt;Node9</title>
<g id="a_edge8_Node000008_Node000009"><a xlink:title=" ">
<path fill="none" stroke="#63b8ff" d="M154.7,-164.04C138.47,-166.16 118.86,-168.71 101.11,-171.03"/>
<polygon fill="#63b8ff" stroke="#63b8ff" points="155.37,-167.48 164.83,-162.72 154.46,-160.54 155.37,-167.48"/>
</a>
</g>
</g>
<!-- Node8&#45;&gt;Node10 -->
<g id="edge9_Node000008_Node000010" class="edge">
<title>Node8&#45;&gt;Node10</title>
<g id="a_edge9_Node000008_Node000010"><a xlink:title=" ">
<path fill="none" stroke="#63b8ff" d="M154.47,-154.68C137.85,-152.39 117.72,-149.62 99.69,-147.13"/>
<polygon fill="#63b8ff" stroke="#63b8ff" points="154.44,-158.21 164.83,-156.1 155.4,-151.27 154.44,-158.21"/>
</a>
</g>
</g>
</g>
</svg>
