<?xml version="1.0" encoding="UTF-8" standalone="no"?>
<!DOCTYPE svg PUBLIC "-//W3C//DTD SVG 1.1//EN"
 "http://www.w3.org/Graphics/SVG/1.1/DTD/svg11.dtd">
<!-- Generated by graphviz version 2.44.0 (0)
 -->
<!-- Title: ftest Pages: 1 -->
<svg width="285pt" height="82pt"
 viewBox="0.00 0.00 285.00 82.00" xmlns="http://www.w3.org/2000/svg" xmlns:xlink="http://www.w3.org/1999/xlink">
<g id="graph0" class="graph" transform="scale(1 1) rotate(0) translate(4 78)">
<title>ftest</title>
<!-- Node1 -->
<g id="Node000001" class="node">
<title>Node1</title>
<g id="a_Node000001"><a xlink:title=" ">
<polygon fill="#999999" stroke="#666666" points="36,-55 0,-55 0,-36 36,-36 36,-55"/>
<text text-anchor="middle" x="18" y="-43" font-family="Helvetica" font-size="10.00">ftest</text>
</a>
</g>
</g>
<!-- Node2 -->
<g id="Node000002" class="node">
<title>Node2</title>
<g id="a_Node000002"><a xlink:href="kc_8cpp.html#ae263d464ebb9d7304f3c8043c41622b7" target="_top" xlink:title=" ">
<polygon fill="white" stroke="#666666" points="116,-74 72,-74 72,-55 116,-55 116,-74"/>
<text text-anchor="middle" x="94" y="-62" font-family="Helvetica" font-size="10.00">avevar</text>
</a>
</g>
</g>
<!-- Node1&#45;&gt;Node2 -->
<g id="edge1_Node000001_Node000002" class="edge">
<title>Node1&#45;&gt;Node2</title>
<g id="a_edge1_Node000001_Node000002"><a xlink:title=" ">
<path fill="none" stroke="#63b8ff" d="M36.16,-49.91C43.92,-51.9 53.32,-54.31 62.23,-56.6"/>
<polygon fill="#63b8ff" stroke="#63b8ff" points="61.41,-60 71.97,-59.1 63.15,-53.22 61.41,-60"/>
</a>
</g>
</g>
<!-- Node3 -->
<g id="Node000003" class="node">
<title>Node3</title>
<g id="a_Node000003"><a xlink:href="kc_8cpp.html#a44281fba5e514c76d3867c7cc899eb7c" target="_top" xlink:title=" ">
<polygon fill="white" stroke="#666666" points="113,-37 75,-37 75,-18 113,-18 113,-37"/>
<text text-anchor="middle" x="94" y="-25" font-family="Helvetica" font-size="10.00">cdf_f</text>
</a>
</g>
</g>
<!-- Node1&#45;&gt;Node3 -->
<g id="edge2_Node000001_Node000003" class="edge">
<title>Node1&#45;&gt;Node3</title>
<g id="a_edge2_Node000001_Node000003"><a xlink:title=" ">
<path fill="none" stroke="#63b8ff" d="M36.16,-41.33C44.69,-39.25 55.22,-36.69 64.88,-34.34"/>
<polygon fill="#63b8ff" stroke="#63b8ff" points="66.01,-37.67 74.9,-31.9 64.35,-30.87 66.01,-37.67"/>
</a>
</g>
</g>
<!-- Node4 -->
<g id="Node000004" class="node">
<title>Node4</title>
<g id="a_Node000004"><a xlink:href="kc_8cpp.html#aff974d448122c33ebffbaf2666c42092" target="_top" xlink:title=" ">
<polygon fill="white" stroke="#666666" points="190,-37 152,-37 152,-18 190,-18 190,-37"/>
<text text-anchor="middle" x="171" y="-25" font-family="Helvetica" font-size="10.00">betai</text>
</a>
</g>
</g>
<!-- Node3&#45;&gt;Node4 -->
<g id="edge3_Node000003_Node000004" class="edge">
<title>Node3&#45;&gt;Node4</title>
<g id="a_edge3_Node000003_Node000004"><a xlink:title=" ">
<path fill="none" stroke="#63b8ff" d="M113.16,-27.5C121.66,-27.5 131.99,-27.5 141.5,-27.5"/>
<polygon fill="#63b8ff" stroke="#63b8ff" points="141.75,-31 151.75,-27.5 141.75,-24 141.75,-31"/>
</a>
</g>
</g>
<!-- Node5 -->
<g id="Node000005" class="node">
<title>Node5</title>
<g id="a_Node000005"><a xlink:href="kc_8cpp.html#a1d6e649feccbc1d73424037ed02d7418" target="_top" xlink:title=" ">
<polygon fill="white" stroke="#666666" points="273.5,-56 229.5,-56 229.5,-37 273.5,-37 273.5,-56"/>
<text text-anchor="middle" x="251.5" y="-44" font-family="Helvetica" font-size="10.00">betacf</text>
</a>
</g>
</g>
<!-- Node4&#45;&gt;Node5 -->
<g id="edge4_Node000004_Node000005" class="edge">
<title>Node4&#45;&gt;Node5</title>
<g id="a_edge4_Node000004_Node000005"><a xlink:title=" ">
<path fill="none" stroke="#63b8ff" d="M190.21,-31.91C198.88,-34.01 209.5,-36.58 219.39,-38.97"/>
<polygon fill="#63b8ff" stroke="#63b8ff" points="218.79,-42.43 229.33,-41.38 220.44,-35.62 218.79,-42.43"/>
</a>
</g>
</g>
<!-- Node6 -->
<g id="Node000006" class="node">
<title>Node6</title>
<g id="a_Node000006"><a xlink:href="kc_8cpp.html#a69cc1b545a83a4d9f187e131500aee45" target="_top" xlink:title=" ">
<polygon fill="white" stroke="#666666" points="277,-19 226,-19 226,0 277,0 277,-19"/>
<text text-anchor="middle" x="251.5" y="-7" font-family="Helvetica" font-size="10.00">gammln</text>
</a>
</g>
</g>
<!-- Node4&#45;&gt;Node6 -->
<g id="edge5_Node000004_Node000006" class="edge">
<title>Node4&#45;&gt;Node6</title>
<g id="a_edge5_Node000004_Node000006"><a xlink:title=" ">
<path fill="none" stroke="#63b8ff" d="M190.21,-23.33C197.91,-21.56 207.14,-19.44 216.04,-17.4"/>
<polygon fill="#63b8ff" stroke="#63b8ff" points="216.89,-20.8 225.85,-15.15 215.32,-13.98 216.89,-20.8"/>
</a>
</g>
</g>
</g>
</svg>
