<?xml version="1.0" encoding="UTF-8" standalone="no"?>
<!DOCTYPE svg PUBLIC "-//W3C//DTD SVG 1.1//EN"
 "http://www.w3.org/Graphics/SVG/1.1/DTD/svg11.dtd">
<!-- Generated by graphviz version 2.44.0 (0)
 -->
<!-- Title: chi2test_onesample Pages: 1 -->
<svg width="380pt" height="27pt"
 viewBox="0.00 0.00 380.00 27.00" xmlns="http://www.w3.org/2000/svg" xmlns:xlink="http://www.w3.org/1999/xlink">
<g id="graph0" class="graph" transform="scale(1 1) rotate(0) translate(4 23)">
<title>chi2test_onesample</title>
<!-- Node1 -->
<g id="Node000001" class="node">
<title>Node1</title>
<g id="a_Node000001"><a xlink:title=" ">
<polygon fill="#999999" stroke="#666666" points="372,-19 268,-19 268,0 372,0 372,-19"/>
<text text-anchor="middle" x="320" y="-7" font-family="Helvetica" font-size="10.00">chi2test_onesample</text>
</a>
</g>
</g>
<!-- Node2 -->
<g id="Node000002" class="node">
<title>Node2</title>
<g id="a_Node000002"><a xlink:href="kc_8cpp.html#a96ec673538c48e142ea769df221d2ca9" target="_top" xlink:title=" ">
<polygon fill="white" stroke="#666666" points="232,-19 134,-19 134,0 232,0 232,-19"/>
<text text-anchor="middle" x="183" y="-7" font-family="Helvetica" font-size="10.00">chi2test_2by3table</text>
</a>
</g>
</g>
<!-- Node1&#45;&gt;Node2 -->
<g id="edge1_Node000001_Node000002" class="edge">
<title>Node1&#45;&gt;Node2</title>
<g id="a_edge1_Node000001_Node000002"><a xlink:title=" ">
<path fill="none" stroke="#63b8ff" d="M257.72,-9.5C249.25,-9.5 240.64,-9.5 232.43,-9.5"/>
<polygon fill="#63b8ff" stroke="#63b8ff" points="257.96,-13 267.96,-9.5 257.96,-6 257.96,-13"/>
</a>
</g>
</g>
<!-- Node3 -->
<g id="Node000003" class="node">
<title>Node3</title>
<g id="a_Node000003"><a xlink:href="kc_8cpp.html#a3208fdc700d8fc604d6446c1180e58cd" target="_top" xlink:title=" ">
<polygon fill="white" stroke="#666666" points="98,-19 0,-19 0,0 98,0 98,-19"/>
<text text-anchor="middle" x="49" y="-7" font-family="Helvetica" font-size="10.00">chi2test_3by2table</text>
</a>
</g>
</g>
<!-- Node2&#45;&gt;Node3 -->
<g id="edge2_Node000002_Node000003" class="edge">
<title>Node2&#45;&gt;Node3</title>
<g id="a_edge2_Node000002_Node000003"><a xlink:title=" ">
<path fill="none" stroke="#63b8ff" d="M123.71,-9.5C115.19,-9.5 106.5,-9.5 98.21,-9.5"/>
<polygon fill="#63b8ff" stroke="#63b8ff" points="123.97,-13 133.97,-9.5 123.97,-6 123.97,-13"/>
</a>
</g>
</g>
</g>
</svg>
