<?xml version="1.0" encoding="UTF-8" standalone="no"?>
<!DOCTYPE svg PUBLIC "-//W3C//DTD SVG 1.1//EN"
 "http://www.w3.org/Graphics/SVG/1.1/DTD/svg11.dtd">
<!-- Generated by graphviz version 2.44.0 (0)
 -->
<!-- Title: chi2test_2by3table Pages: 1 -->
<svg width="578pt" height="120pt"
 viewBox="0.00 0.00 578.00 120.00" xmlns="http://www.w3.org/2000/svg" xmlns:xlink="http://www.w3.org/1999/xlink">
<g id="graph0" class="graph" transform="scale(1 1) rotate(0) translate(4 116)">
<title>chi2test_2by3table</title>
<!-- Node1 -->
<g id="Node000001" class="node">
<title>Node1</title>
<g id="a_Node000001"><a xlink:title=" ">
<polygon fill="#999999" stroke="#666666" points="98,-56 0,-56 0,-37 98,-37 98,-56"/>
<text text-anchor="middle" x="49" y="-44" font-family="Helvetica" font-size="10.00">chi2test_2by3table</text>
</a>
</g>
</g>
<!-- Node2 -->
<g id="Node000002" class="node">
<title>Node2</title>
<g id="a_Node000002"><a xlink:href="kc_8cpp.html#a6f7008da290a84b7ba4e26e232a645dc" target="_top" xlink:title=" ">
<polygon fill="white" stroke="#666666" points="238,-93 134,-93 134,-74 238,-74 238,-93"/>
<text text-anchor="middle" x="186" y="-81" font-family="Helvetica" font-size="10.00">chi2test_onesample</text>
</a>
</g>
</g>
<!-- Node1&#45;&gt;Node2 -->
<g id="edge1_Node000001_Node000002" class="edge">
<title>Node1&#45;&gt;Node2</title>
<g id="a_edge1_Node000001_Node000002"><a xlink:title=" ">
<path fill="none" stroke="#63b8ff" d="M84.77,-56.03C101.64,-60.65 122.12,-66.27 140.15,-71.21"/>
<polygon fill="#63b8ff" stroke="#63b8ff" points="139.31,-74.61 149.88,-73.88 141.16,-67.86 139.31,-74.61"/>
</a>
</g>
</g>
<!-- Node8 -->
<g id="Node000008" class="node">
<title>Node8</title>
<g id="a_Node000008"><a xlink:href="kc_8cpp.html#ae21c4c252ad5d5710ebd03d6f07e40de" target="_top" xlink:title=" ">
<polygon fill="white" stroke="#666666" points="210,-56 162,-56 162,-37 210,-37 210,-56"/>
<text text-anchor="middle" x="186" y="-44" font-family="Helvetica" font-size="10.00">dvector</text>
</a>
</g>
</g>
<!-- Node1&#45;&gt;Node8 -->
<g id="edge8_Node000001_Node000008" class="edge">
<title>Node1&#45;&gt;Node8</title>
<g id="a_edge8_Node000001_Node000008"><a xlink:title=" ">
<path fill="none" stroke="#63b8ff" d="M98.36,-46.5C116.11,-46.5 135.78,-46.5 151.89,-46.5"/>
<polygon fill="#63b8ff" stroke="#63b8ff" points="151.91,-50 161.91,-46.5 151.91,-43 151.91,-50"/>
</a>
</g>
</g>
<!-- Node9 -->
<g id="Node000009" class="node">
<title>Node9</title>
<g id="a_Node000009"><a xlink:href="kc_8cpp.html#ac7ec1a76a4b8d3d8423246676977c919" target="_top" xlink:title=" ">
<polygon fill="white" stroke="#666666" points="221,-19 151,-19 151,0 221,0 221,-19"/>
<text text-anchor="middle" x="186" y="-7" font-family="Helvetica" font-size="10.00">free_dvector</text>
</a>
</g>
</g>
<!-- Node1&#45;&gt;Node9 -->
<g id="edge9_Node000001_Node000009" class="edge">
<title>Node1&#45;&gt;Node9</title>
<g id="a_edge9_Node000001_Node000009"><a xlink:title=" ">
<path fill="none" stroke="#63b8ff" d="M84.77,-36.97C101.9,-32.27 122.76,-26.56 141,-21.56"/>
<polygon fill="#63b8ff" stroke="#63b8ff" points="142.1,-24.89 150.82,-18.87 140.25,-18.14 142.1,-24.89"/>
</a>
</g>
</g>
<!-- Node3 -->
<g id="Node000003" class="node">
<title>Node3</title>
<g id="a_Node000003"><a xlink:href="kc_8cpp.html#ab600bf758ebb6d37ebd914533e27691d" target="_top" xlink:title=" ">
<polygon fill="white" stroke="#666666" points="327,-93 274,-93 274,-74 327,-74 327,-93"/>
<text text-anchor="middle" x="300.5" y="-81" font-family="Helvetica" font-size="10.00">cdf_chi2</text>
</a>
</g>
</g>
<!-- Node2&#45;&gt;Node3 -->
<g id="edge2_Node000002_Node000003" class="edge">
<title>Node2&#45;&gt;Node3</title>
<g id="a_edge2_Node000002_Node000003"><a xlink:title=" ">
<path fill="none" stroke="#63b8ff" d="M238.31,-83.5C246.85,-83.5 255.55,-83.5 263.6,-83.5"/>
<polygon fill="#63b8ff" stroke="#63b8ff" points="263.75,-87 273.75,-83.5 263.75,-80 263.75,-87"/>
</a>
</g>
</g>
<!-- Node4 -->
<g id="Node000004" class="node">
<title>Node4</title>
<g id="a_Node000004"><a xlink:href="kc_8cpp.html#aa1745417f9696825bc7cc68538800b5b" target="_top" xlink:title=" ">
<polygon fill="white" stroke="#666666" points="412,-93 363,-93 363,-74 412,-74 412,-93"/>
<text text-anchor="middle" x="387.5" y="-81" font-family="Helvetica" font-size="10.00">gammp</text>
</a>
</g>
</g>
<!-- Node3&#45;&gt;Node4 -->
<g id="edge3_Node000003_Node000004" class="edge">
<title>Node3&#45;&gt;Node4</title>
<g id="a_edge3_Node000003_Node000004"><a xlink:title=" ">
<path fill="none" stroke="#63b8ff" d="M327,-83.5C335.07,-83.5 344.11,-83.5 352.67,-83.5"/>
<polygon fill="#63b8ff" stroke="#63b8ff" points="352.76,-87 362.76,-83.5 352.76,-80 352.76,-87"/>
</a>
</g>
</g>
<!-- Node5 -->
<g id="Node000005" class="node">
<title>Node5</title>
<g id="a_Node000005"><a xlink:href="kc_8cpp.html#a5b446e3e8ec13c8e2383ac156f0cf77f" target="_top" xlink:title=" ">
<polygon fill="white" stroke="#666666" points="480.5,-112 450.5,-112 450.5,-93 480.5,-93 480.5,-112"/>
<text text-anchor="middle" x="465.5" y="-100" font-family="Helvetica" font-size="10.00">gcf</text>
</a>
</g>
</g>
<!-- Node4&#45;&gt;Node5 -->
<g id="edge4_Node000004_Node000005" class="edge">
<title>Node4&#45;&gt;Node5</title>
<g id="a_edge4_Node000004_Node000005"><a xlink:title=" ">
<path fill="none" stroke="#63b8ff" d="M412.13,-89.41C421.15,-91.66 431.44,-94.23 440.49,-96.5"/>
<polygon fill="#63b8ff" stroke="#63b8ff" points="439.85,-99.95 450.41,-98.98 441.55,-93.16 439.85,-99.95"/>
</a>
</g>
</g>
<!-- Node7 -->
<g id="Node000007" class="node">
<title>Node7</title>
<g id="a_Node000007"><a xlink:href="kc_8cpp.html#a5277079b0c65d166db9553deb8a92de2" target="_top" xlink:title=" ">
<polygon fill="white" stroke="#666666" points="483,-75 448,-75 448,-56 483,-56 483,-75"/>
<text text-anchor="middle" x="465.5" y="-63" font-family="Helvetica" font-size="10.00">gser</text>
</a>
</g>
</g>
<!-- Node4&#45;&gt;Node7 -->
<g id="edge6_Node000004_Node000007" class="edge">
<title>Node4&#45;&gt;Node7</title>
<g id="a_edge6_Node000004_Node000007"><a xlink:title=" ">
<path fill="none" stroke="#63b8ff" d="M412.13,-77.9C420.22,-75.99 429.33,-73.83 437.65,-71.86"/>
<polygon fill="#63b8ff" stroke="#63b8ff" points="438.71,-75.2 447.64,-69.49 437.1,-68.39 438.71,-75.2"/>
</a>
</g>
</g>
<!-- Node6 -->
<g id="Node000006" class="node">
<title>Node6</title>
<g id="a_Node000006"><a xlink:href="kc_8cpp.html#a69cc1b545a83a4d9f187e131500aee45" target="_top" xlink:title=" ">
<polygon fill="white" stroke="#666666" points="570,-93 519,-93 519,-74 570,-74 570,-93"/>
<text text-anchor="middle" x="544.5" y="-81" font-family="Helvetica" font-size="10.00">gammln</text>
</a>
</g>
</g>
<!-- Node5&#45;&gt;Node6 -->
<g id="edge5_Node000005_Node000006" class="edge">
<title>Node5&#45;&gt;Node6</title>
<g id="a_edge5_Node000005_Node000006"><a xlink:title=" ">
<path fill="none" stroke="#63b8ff" d="M480.62,-99.02C488.63,-97.04 499.04,-94.47 509.07,-92"/>
<polygon fill="#63b8ff" stroke="#63b8ff" points="510,-95.37 518.87,-89.58 508.32,-88.58 510,-95.37"/>
</a>
</g>
</g>
<!-- Node7&#45;&gt;Node6 -->
<g id="edge7_Node000007_Node000006" class="edge">
<title>Node7&#45;&gt;Node6</title>
<g id="a_edge7_Node000007_Node000006"><a xlink:title=" ">
<path fill="none" stroke="#63b8ff" d="M483.21,-69.41C490.79,-71.18 500.06,-73.34 509.03,-75.44"/>
<polygon fill="#63b8ff" stroke="#63b8ff" points="508.39,-78.89 518.93,-77.76 509.99,-72.07 508.39,-78.89"/>
</a>
</g>
</g>
</g>
</svg>
