<?xml version="1.0" encoding="UTF-8" standalone="no"?>
<!DOCTYPE svg PUBLIC "-//W3C//DTD SVG 1.1//EN"
 "http://www.w3.org/Graphics/SVG/1.1/DTD/svg11.dtd">
<!-- Generated by graphviz version 2.44.0 (0)
 -->
<!-- Title: ran3 Pages: 1 -->
<svg width="176pt" height="64pt"
 viewBox="0.00 0.00 176.00 64.00" xmlns="http://www.w3.org/2000/svg" xmlns:xlink="http://www.w3.org/1999/xlink">
<g id="graph0" class="graph" transform="scale(1 1) rotate(0) translate(4 60)">
<title>ran3</title>
<!-- Node1 -->
<g id="Node000001" class="node">
<title>Node1</title>
<g id="a_Node000001"><a xlink:title=" ">
<polygon fill="#999999" stroke="#666666" points="168,-37 133,-37 133,-18 168,-18 168,-37"/>
<text text-anchor="middle" x="150.5" y="-25" font-family="Helvetica" font-size="10.00">ran3</text>
</a>
</g>
</g>
<!-- Node2 -->
<g id="Node000002" class="node">
<title>Node2</title>
<g id="a_Node000002"><a xlink:href="kc_8cpp.html#a69a4bf2250052e68ef90fa0dbc0c85ff" target="_top" xlink:title=" ">
<polygon fill="white" stroke="#666666" points="83.5,-56 13.5,-56 13.5,-37 83.5,-37 83.5,-56"/>
<text text-anchor="middle" x="48.5" y="-44" font-family="Helvetica" font-size="10.00">random_exp</text>
</a>
</g>
</g>
<!-- Node1&#45;&gt;Node2 -->
<g id="edge1_Node000001_Node000002" class="edge">
<title>Node1&#45;&gt;Node2</title>
<g id="a_edge1_Node000001_Node000002"><a xlink:title=" ">
<path fill="none" stroke="#63b8ff" d="M123.13,-32.51C111.12,-34.79 96.73,-37.53 83.88,-39.97"/>
<polygon fill="#63b8ff" stroke="#63b8ff" points="123.82,-35.94 132.99,-30.64 122.51,-29.07 123.82,-35.94"/>
</a>
</g>
</g>
<!-- Node3 -->
<g id="Node000003" class="node">
<title>Node3</title>
<g id="a_Node000003"><a xlink:href="kc_8cpp.html#a66f8e089376af0493659445c359577fe" target="_top" xlink:title=" ">
<polygon fill="white" stroke="#666666" points="97,-19 0,-19 0,0 97,0 97,-19"/>
<text text-anchor="middle" x="48.5" y="-7" font-family="Helvetica" font-size="10.00">random_stdnormal</text>
</a>
</g>
</g>
<!-- Node1&#45;&gt;Node3 -->
<g id="edge2_Node000001_Node000003" class="edge">
<title>Node1&#45;&gt;Node3</title>
<g id="a_edge2_Node000001_Node000003"><a xlink:title=" ">
<path fill="none" stroke="#63b8ff" d="M122.89,-22.71C114.95,-21.28 105.99,-19.67 97.13,-18.07"/>
<polygon fill="#63b8ff" stroke="#63b8ff" points="122.53,-26.2 132.99,-24.53 123.77,-19.31 122.53,-26.2"/>
</a>
</g>
</g>
</g>
</svg>
