<?xml version="1.0" encoding="UTF-8" standalone="no"?>
<!DOCTYPE svg PUBLIC "-//W3C//DTD SVG 1.1//EN"
 "http://www.w3.org/Graphics/SVG/1.1/DTD/svg11.dtd">
<!-- Generated by graphviz version 2.44.0 (0)
 -->
<!-- Title: matrix_inverse Pages: 1 -->
<svg width="317pt" height="290pt"
 viewBox="0.00 0.00 317.00 290.00" xmlns="http://www.w3.org/2000/svg" xmlns:xlink="http://www.w3.org/1999/xlink">
<g id="graph0" class="graph" transform="scale(1 1) rotate(0) translate(4 286)">
<title>matrix_inverse</title>
<!-- Node1 -->
<g id="Node000001" class="node">
<title>Node1</title>
<g id="a_Node000001"><a xlink:title=" ">
<polygon fill="#999999" stroke="#666666" points="80,-149 0,-149 0,-130 80,-130 80,-149"/>
<text text-anchor="middle" x="40" y="-137" font-family="Helvetica" font-size="10.00">matrix_inverse</text>
</a>
</g>
</g>
<!-- Node2 -->
<g id="Node000002" class="node">
<title>Node2</title>
<g id="a_Node000002"><a xlink:href="kc_8cpp.html#aa517f6dc1cd623e0f2fdc5f0f9ab8534" target="_top" xlink:title=" ">
<polygon fill="white" stroke="#666666" points="194,-282 129,-282 129,-263 194,-263 194,-282"/>
<text text-anchor="middle" x="161.5" y="-270" font-family="Helvetica" font-size="10.00">matrix_free</text>
</a>
</g>
</g>
<!-- Node1&#45;&gt;Node2 -->
<g id="edge1_Node000001_Node000002" class="edge">
<title>Node1&#45;&gt;Node2</title>
<g id="a_edge1_Node000001_Node000002"><a xlink:title=" ">
<path fill="none" stroke="#63b8ff" d="M45.59,-149.07C55.8,-169.53 82.15,-218.12 116,-248.5 119.9,-252 124.4,-255.17 129.02,-257.98"/>
<polygon fill="#63b8ff" stroke="#63b8ff" points="127.45,-261.12 137.89,-262.92 130.85,-255 127.45,-261.12"/>
</a>
</g>
</g>
<!-- Node3 -->
<g id="Node000003" class="node">
<title>Node3</title>
<g id="a_Node000003"><a xlink:href="kc_8cpp.html#a85a2f9c7ff758c36a67d0b8a58424404" target="_top" xlink:title=" ">
<polygon fill="white" stroke="#666666" points="207,-206 116,-206 116,-187 207,-187 207,-206"/>
<text text-anchor="middle" x="161.5" y="-194" font-family="Helvetica" font-size="10.00">matrix_ludecomp</text>
</a>
</g>
</g>
<!-- Node1&#45;&gt;Node3 -->
<g id="edge2_Node000001_Node000003" class="edge">
<title>Node1&#45;&gt;Node3</title>
<g id="a_edge2_Node000001_Node000003"><a xlink:title=" ">
<path fill="none" stroke="#63b8ff" d="M61,-149.04C80.22,-158.21 109.47,-172.16 131.29,-182.57"/>
<polygon fill="#63b8ff" stroke="#63b8ff" points="129.9,-185.78 140.43,-186.93 132.91,-179.46 129.9,-185.78"/>
</a>
</g>
</g>
<!-- Node4 -->
<g id="Node000004" class="node">
<title>Node4</title>
<g id="a_Node000004"><a xlink:href="kc_8cpp.html#afc00baa57142e5db16101ade3200eea8" target="_top" xlink:title=" ">
<polygon fill="white" stroke="#666666" points="308.5,-224 243.5,-224 243.5,-205 308.5,-205 308.5,-224"/>
<text text-anchor="middle" x="276" y="-212" font-family="Helvetica" font-size="10.00">vector_free</text>
</a>
</g>
</g>
<!-- Node1&#45;&gt;Node4 -->
<g id="edge7_Node000001_Node000004" class="edge">
<title>Node1&#45;&gt;Node4</title>
<g id="a_edge7_Node000001_Node000004"><a xlink:title=" ">
<path fill="none" stroke="#63b8ff" d="M46.73,-149.07C57.66,-166.26 83.33,-201.84 116,-215.5 153.34,-231.11 200.07,-228.51 233.18,-223.44"/>
<polygon fill="#63b8ff" stroke="#63b8ff" points="234.14,-226.83 243.43,-221.73 232.98,-219.93 234.14,-226.83"/>
</a>
</g>
</g>
<!-- Node5 -->
<g id="Node000005" class="node">
<title>Node5</title>
<g id="a_Node000005"><a xlink:href="kc_8cpp.html#a155bb2cc033bfd9bafbde8d31432f7ad" target="_top" xlink:title=" ">
<polygon fill="white" stroke="#666666" points="309,-187 243,-187 243,-168 309,-168 309,-187"/>
<text text-anchor="middle" x="276" y="-175" font-family="Helvetica" font-size="10.00">vector_new</text>
</a>
</g>
</g>
<!-- Node1&#45;&gt;Node5 -->
<g id="edge8_Node000001_Node000005" class="edge">
<title>Node1&#45;&gt;Node5</title>
<g id="a_edge8_Node000001_Node000005"><a xlink:title=" ">
<path fill="none" stroke="#63b8ff" d="M80.17,-145.86C122.44,-152.73 189.54,-163.62 232.92,-170.67"/>
<polygon fill="#63b8ff" stroke="#63b8ff" points="232.44,-174.13 242.87,-172.28 233.56,-167.22 232.44,-174.13"/>
</a>
</g>
</g>
<!-- Node6 -->
<g id="Node000006" class="node">
<title>Node6</title>
<g id="a_Node000006"><a xlink:href="kc_8cpp.html#ad99cb91ebff0903217880cd395ccef58" target="_top" xlink:title=" ">
<polygon fill="white" stroke="#666666" points="201.5,-130 121.5,-130 121.5,-111 201.5,-111 201.5,-130"/>
<text text-anchor="middle" x="161.5" y="-118" font-family="Helvetica" font-size="10.00">matrix_lusubst</text>
</a>
</g>
</g>
<!-- Node1&#45;&gt;Node6 -->
<g id="edge5_Node000001_Node000006" class="edge">
<title>Node1&#45;&gt;Node6</title>
<g id="a_edge5_Node000001_Node000006"><a xlink:title=" ">
<path fill="none" stroke="#63b8ff" d="M80.13,-133.28C90.03,-131.7 100.8,-129.99 111.14,-128.35"/>
<polygon fill="#63b8ff" stroke="#63b8ff" points="111.96,-131.76 121.28,-126.74 110.86,-124.85 111.96,-131.76"/>
</a>
</g>
</g>
<!-- Node7 -->
<g id="Node000007" class="node">
<title>Node7</title>
<g id="a_Node000007"><a xlink:href="kc_8cpp.html#ac75528b11a2997977101b6e9ded2c7cf" target="_top" xlink:title=" ">
<polygon fill="white" stroke="#666666" points="195,-93 128,-93 128,-74 195,-74 195,-93"/>
<text text-anchor="middle" x="161.5" y="-81" font-family="Helvetica" font-size="10.00">matrix_new</text>
</a>
</g>
</g>
<!-- Node1&#45;&gt;Node7 -->
<g id="edge6_Node000001_Node000007" class="edge">
<title>Node1&#45;&gt;Node7</title>
<g id="a_edge6_Node000001_Node000007"><a xlink:title=" ">
<path fill="none" stroke="#63b8ff" d="M58.98,-129.85C74.04,-121.9 96.2,-110.5 116,-101.5 119.39,-99.96 122.94,-98.41 126.51,-96.9"/>
<polygon fill="#63b8ff" stroke="#63b8ff" points="127.96,-100.09 135.86,-93.03 125.28,-93.62 127.96,-100.09"/>
</a>
</g>
</g>
<!-- Node8 -->
<g id="Node000008" class="node">
<title>Node8</title>
<g id="a_Node000008"><a xlink:href="kc_8cpp.html#a595f09d7b5e2d197a0d8d4cef8a061ae" target="_top" xlink:title=" ">
<polygon fill="white" stroke="#666666" points="195,-56 128,-56 128,-37 195,-37 195,-56"/>
<text text-anchor="middle" x="161.5" y="-44" font-family="Helvetica" font-size="10.00">vectori_free</text>
</a>
</g>
</g>
<!-- Node1&#45;&gt;Node8 -->
<g id="edge9_Node000001_Node000008" class="edge">
<title>Node1&#45;&gt;Node8</title>
<g id="a_edge9_Node000001_Node000008"><a xlink:title=" ">
<path fill="none" stroke="#63b8ff" d="M48.35,-129.99C60.79,-114.43 87.44,-83.41 116,-64.5 118.13,-63.09 120.38,-61.76 122.71,-60.51"/>
<polygon fill="#63b8ff" stroke="#63b8ff" points="124.38,-63.59 131.86,-56.1 121.34,-57.29 124.38,-63.59"/>
</a>
</g>
</g>
<!-- Node9 -->
<g id="Node000009" class="node">
<title>Node9</title>
<g id="a_Node000009"><a xlink:href="kc_8cpp.html#a0fad130527c83326c9dfe7da022700e0" target="_top" xlink:title=" ">
<polygon fill="white" stroke="#666666" points="195.5,-19 127.5,-19 127.5,0 195.5,0 195.5,-19"/>
<text text-anchor="middle" x="161.5" y="-7" font-family="Helvetica" font-size="10.00">vectori_new</text>
</a>
</g>
</g>
<!-- Node1&#45;&gt;Node9 -->
<g id="edge10_Node000001_Node000009" class="edge">
<title>Node1&#45;&gt;Node9</title>
<g id="a_edge10_Node000001_Node000009"><a xlink:title=" ">
<path fill="none" stroke="#63b8ff" d="M45.12,-129.68C54.59,-108.26 79.86,-56.87 116,-27.5 117.55,-26.24 119.2,-25.06 120.92,-23.95"/>
<polygon fill="#63b8ff" stroke="#63b8ff" points="122.85,-26.88 129.94,-19.01 119.49,-20.74 122.85,-26.88"/>
</a>
</g>
</g>
<!-- Node3&#45;&gt;Node4 -->
<g id="edge3_Node000003_Node000004" class="edge">
<title>Node3&#45;&gt;Node4</title>
<g id="a_edge3_Node000003_Node000004"><a xlink:title=" ">
<path fill="none" stroke="#63b8ff" d="M207.29,-203.67C215.82,-205.03 224.73,-206.46 233.17,-207.81"/>
<polygon fill="#63b8ff" stroke="#63b8ff" points="232.76,-211.29 243.18,-209.41 233.86,-204.37 232.76,-211.29"/>
</a>
</g>
</g>
<!-- Node3&#45;&gt;Node5 -->
<g id="edge4_Node000003_Node000005" class="edge">
<title>Node3&#45;&gt;Node5</title>
<g id="a_edge4_Node000003_Node000005"><a xlink:title=" ">
<path fill="none" stroke="#63b8ff" d="M207.29,-188.94C215.74,-187.51 224.55,-186.02 232.91,-184.61"/>
<polygon fill="#63b8ff" stroke="#63b8ff" points="233.56,-188.05 242.84,-182.93 232.4,-181.15 233.56,-188.05"/>
</a>
</g>
</g>
</g>
</svg>
