<?xml version="1.0" encoding="UTF-8" standalone="no"?>
<!DOCTYPE svg PUBLIC "-//W3C//DTD SVG 1.1//EN"
 "http://www.w3.org/Graphics/SVG/1.1/DTD/svg11.dtd">
<!-- Generated by graphviz version 2.44.0 (0)
 -->
<!-- Title: matrix_regObsStat Pages: 1 -->
<svg width="551pt" height="591pt"
 viewBox="0.00 0.00 551.00 591.00" xmlns="http://www.w3.org/2000/svg" xmlns:xlink="http://www.w3.org/1999/xlink">
<g id="graph0" class="graph" transform="scale(1 1) rotate(0) translate(4 587)">
<title>matrix_regObsStat</title>
<!-- Node1 -->
<g id="Node000001" class="node">
<title>Node1</title>
<g id="a_Node000001"><a xlink:title=" ">
<polygon fill="#999999" stroke="#666666" points="98,-226 0,-226 0,-207 98,-207 98,-226"/>
<text text-anchor="middle" x="49" y="-214" font-family="Helvetica" font-size="10.00">matrix_regObsStat</text>
</a>
</g>
</g>
<!-- Node2 -->
<g id="Node000002" class="node">
<title>Node2</title>
<g id="a_Node000002"><a xlink:href="kc_8cpp.html#a996626bdadc539b36a6ddce1f8262f1e" target="_top" xlink:title=" ">
<polygon fill="white" stroke="#666666" points="326.5,-565 288.5,-565 288.5,-546 326.5,-546 326.5,-565"/>
<text text-anchor="middle" x="307.5" y="-553" font-family="Helvetica" font-size="10.00">cdf_t</text>
</a>
</g>
</g>
<!-- Node1&#45;&gt;Node2 -->
<g id="edge1_Node000001_Node000002" class="edge">
<title>Node1&#45;&gt;Node2</title>
<g id="a_edge1_Node000001_Node000002"><a xlink:title=" ">
<path fill="none" stroke="#63b8ff" d="M50.84,-226.25C55.46,-277.28 79.56,-512.9 134,-555.5 175.5,-587.97 241.45,-575.81 278.63,-565.02"/>
<polygon fill="#63b8ff" stroke="#63b8ff" points="279.77,-568.33 288.31,-562.06 277.72,-561.64 279.77,-568.33"/>
</a>
</g>
</g>
<!-- Node6 -->
<g id="Node000006" class="node">
<title>Node6</title>
<g id="a_Node000006"><a xlink:href="kc_8cpp.html#aeca8344f58357afa063ffc8cc119f8b7" target="_top" xlink:title=" ">
<polygon fill="white" stroke="#666666" points="205.5,-546 154.5,-546 154.5,-527 205.5,-527 205.5,-546"/>
<text text-anchor="middle" x="180" y="-534" font-family="Helvetica" font-size="10.00">cdfinv_t</text>
</a>
</g>
</g>
<!-- Node1&#45;&gt;Node6 -->
<g id="edge5_Node000001_Node000006" class="edge">
<title>Node1&#45;&gt;Node6</title>
<g id="a_edge5_Node000001_Node000006"><a xlink:title=" ">
<path fill="none" stroke="#63b8ff" d="M50.12,-226.16C51.09,-266.08 59.72,-420.4 134,-512.5 137.25,-516.53 141.37,-519.97 145.78,-522.89"/>
<polygon fill="#63b8ff" stroke="#63b8ff" points="144.07,-525.94 154.49,-527.85 147.53,-519.86 144.07,-525.94"/>
</a>
</g>
</g>
<!-- Node7 -->
<g id="Node000007" class="node">
<title>Node7</title>
<g id="a_Node000007"><a xlink:href="kc_8cpp.html#aa517f6dc1cd623e0f2fdc5f0f9ab8534" target="_top" xlink:title=" ">
<polygon fill="white" stroke="#666666" points="340,-169 275,-169 275,-150 340,-150 340,-169"/>
<text text-anchor="middle" x="307.5" y="-157" font-family="Helvetica" font-size="10.00">matrix_free</text>
</a>
</g>
</g>
<!-- Node1&#45;&gt;Node7 -->
<g id="edge7_Node000001_Node000007" class="edge">
<title>Node1&#45;&gt;Node7</title>
<g id="a_edge7_Node000001_Node000007"><a xlink:title=" ">
<path fill="none" stroke="#63b8ff" d="M98.04,-225.66C134.43,-230.46 184.99,-232.45 226,-216.5 246.23,-208.63 244.31,-196.08 262,-183.5 266.74,-180.13 272,-176.9 277.21,-173.95"/>
<polygon fill="#63b8ff" stroke="#63b8ff" points="279.24,-176.84 286.38,-169.01 275.92,-170.67 279.24,-176.84"/>
</a>
</g>
</g>
<!-- Node8 -->
<g id="Node000008" class="node">
<title>Node8</title>
<g id="a_Node000008"><a xlink:href="kc_8cpp.html#af0e16ee0cbf76fe1a067c0f4132e8774" target="_top" xlink:title=" ">
<polygon fill="white" stroke="#666666" points="220,-283 140,-283 140,-264 220,-264 220,-283"/>
<text text-anchor="middle" x="180" y="-271" font-family="Helvetica" font-size="10.00">matrix_inverse</text>
</a>
</g>
</g>
<!-- Node1&#45;&gt;Node8 -->
<g id="edge8_Node000001_Node000008" class="edge">
<title>Node1&#45;&gt;Node8</title>
<g id="a_edge8_Node000001_Node000008"><a xlink:title=" ">
<path fill="none" stroke="#63b8ff" d="M71.59,-226.04C92.52,-235.29 124.48,-249.41 148.1,-259.85"/>
<polygon fill="#63b8ff" stroke="#63b8ff" points="146.78,-263.09 157.34,-263.93 149.61,-256.69 146.78,-263.09"/>
</a>
</g>
</g>
<!-- Node10 -->
<g id="Node000010" class="node">
<title>Node10</title>
<g id="a_Node000010"><a xlink:href="kc_8cpp.html#afc00baa57142e5db16101ade3200eea8" target="_top" xlink:title=" ">
<polygon fill="white" stroke="#666666" points="455,-470 390,-470 390,-451 455,-451 455,-470"/>
<text text-anchor="middle" x="422.5" y="-458" font-family="Helvetica" font-size="10.00">vector_free</text>
</a>
</g>
</g>
<!-- Node1&#45;&gt;Node10 -->
<g id="edge31_Node000001_Node000010" class="edge">
<title>Node1&#45;&gt;Node10</title>
<g id="a_edge31_Node000001_Node000010"><a xlink:title=" ">
<path fill="none" stroke="#63b8ff" d="M53.42,-226.37C62.75,-252.08 90.85,-322.14 134,-365.5 180.19,-411.92 199.99,-417.42 262,-438.5 300.57,-451.61 346.91,-456.92 379.68,-459.07"/>
<polygon fill="#63b8ff" stroke="#63b8ff" points="379.63,-462.57 389.82,-459.66 380.04,-455.58 379.63,-462.57"/>
</a>
</g>
</g>
<!-- Node11 -->
<g id="Node000011" class="node">
<title>Node11</title>
<g id="a_Node000011"><a xlink:href="kc_8cpp.html#a155bb2cc033bfd9bafbde8d31432f7ad" target="_top" xlink:title=" ">
<polygon fill="white" stroke="#666666" points="455.5,-394 389.5,-394 389.5,-375 455.5,-375 455.5,-394"/>
<text text-anchor="middle" x="422.5" y="-382" font-family="Helvetica" font-size="10.00">vector_new</text>
</a>
</g>
</g>
<!-- Node1&#45;&gt;Node11 -->
<g id="edge32_Node000001_Node000011" class="edge">
<title>Node1&#45;&gt;Node11</title>
<g id="a_edge32_Node000001_Node000011"><a xlink:title=" ">
<path fill="none" stroke="#63b8ff" d="M56.64,-226.05C80.04,-258.79 162.68,-366.43 262,-403.5 303.55,-419.01 355.04,-407.91 388.08,-397.28"/>
<polygon fill="#63b8ff" stroke="#63b8ff" points="389.35,-400.55 397.71,-394.03 387.11,-393.92 389.35,-400.55"/>
</a>
</g>
</g>
<!-- Node13 -->
<g id="Node000013" class="node">
<title>Node13</title>
<g id="a_Node000013"><a xlink:href="kc_8cpp.html#ac75528b11a2997977101b6e9ded2c7cf" target="_top" xlink:title=" ">
<polygon fill="white" stroke="#666666" points="456,-95 389,-95 389,-76 456,-76 456,-95"/>
<text text-anchor="middle" x="422.5" y="-83" font-family="Helvetica" font-size="10.00">matrix_new</text>
</a>
</g>
</g>
<!-- Node1&#45;&gt;Node13 -->
<g id="edge19_Node000001_Node000013" class="edge">
<title>Node1&#45;&gt;Node13</title>
<g id="a_edge19_Node000001_Node000013"><a xlink:title=" ">
<path fill="none" stroke="#63b8ff" d="M54.91,-206.79C65.9,-186.22 94.6,-138.47 134,-117.5 212.42,-75.77 319.72,-76.43 378.56,-80.82"/>
<polygon fill="#63b8ff" stroke="#63b8ff" points="378.37,-84.32 388.62,-81.65 378.94,-77.34 378.37,-84.32"/>
</a>
</g>
</g>
<!-- Node16 -->
<g id="Node000016" class="node">
<title>Node16</title>
<g id="a_Node000016"><a xlink:href="kc_8cpp.html#aef4d42f4197a1db7f6667dc7ea67956b" target="_top" xlink:title=" ">
<polygon fill="white" stroke="#666666" points="348,-132 267,-132 267,-113 348,-113 348,-132"/>
<text text-anchor="middle" x="307.5" y="-120" font-family="Helvetica" font-size="10.00">matrix_product</text>
</a>
</g>
</g>
<!-- Node1&#45;&gt;Node16 -->
<g id="edge20_Node000001_Node000016" class="edge">
<title>Node1&#45;&gt;Node16</title>
<g id="a_edge20_Node000001_Node000016"><a xlink:title=" ">
<path fill="none" stroke="#63b8ff" d="M57.57,-206.76C70.96,-190.3 100.62,-157.36 134,-142.5 172.73,-125.26 220.96,-120.92 256.57,-120.52"/>
<polygon fill="#63b8ff" stroke="#63b8ff" points="256.73,-124.02 266.72,-120.51 256.72,-117.02 256.73,-124.02"/>
</a>
</g>
</g>
<!-- Node18 -->
<g id="Node000018" class="node">
<title>Node18</title>
<g id="a_Node000018"><a xlink:href="kc_8cpp.html#a00f5b59ec000eae7a009cd437008050d" target="_top" xlink:title=" ">
<polygon fill="white" stroke="#666666" points="223,-207 137,-207 137,-188 223,-188 223,-207"/>
<text text-anchor="middle" x="180" y="-195" font-family="Helvetica" font-size="10.00">matrix_product3</text>
</a>
</g>
</g>
<!-- Node1&#45;&gt;Node18 -->
<g id="edge23_Node000001_Node000018" class="edge">
<title>Node1&#45;&gt;Node18</title>
<g id="a_edge23_Node000001_Node000018"><a xlink:title=" ">
<path fill="none" stroke="#63b8ff" d="M98.03,-209.43C107.4,-208.05 117.26,-206.59 126.75,-205.2"/>
<polygon fill="#63b8ff" stroke="#63b8ff" points="127.48,-208.63 136.87,-203.71 126.46,-201.7 127.48,-208.63"/>
</a>
</g>
</g>
<!-- Node19 -->
<g id="Node000019" class="node">
<title>Node19</title>
<g id="a_Node000019"><a xlink:href="kc_8cpp.html#ad57651ec26e71d842d15f65ae9484098" target="_top" xlink:title=" ">
<polygon fill="white" stroke="#666666" points="222,-170 138,-170 138,-151 222,-151 222,-170"/>
<text text-anchor="middle" x="180" y="-158" font-family="Helvetica" font-size="10.00">matrix_regMSE</text>
</a>
</g>
</g>
<!-- Node1&#45;&gt;Node19 -->
<g id="edge26_Node000001_Node000019" class="edge">
<title>Node1&#45;&gt;Node19</title>
<g id="a_edge26_Node000001_Node000019"><a xlink:title=" ">
<path fill="none" stroke="#63b8ff" d="M71.37,-206.98C88.32,-199.45 112.64,-188.71 134,-179.5 138.14,-177.71 142.5,-175.85 146.82,-174.02"/>
<polygon fill="#63b8ff" stroke="#63b8ff" points="148.23,-177.22 156.08,-170.1 145.5,-170.77 148.23,-177.22"/>
</a>
</g>
</g>
<!-- Node20 -->
<g id="Node000020" class="node">
<title>Node20</title>
<g id="a_Node000020"><a xlink:href="kc_8cpp.html#a89a2987a60a852f56603492790999aba" target="_top" xlink:title=" ">
<polygon fill="white" stroke="#666666" points="226,-56 134,-56 134,-37 226,-37 226,-56"/>
<text text-anchor="middle" x="180" y="-44" font-family="Helvetica" font-size="10.00">matrix_transpose</text>
</a>
</g>
</g>
<!-- Node1&#45;&gt;Node20 -->
<g id="edge29_Node000001_Node000020" class="edge">
<title>Node1&#45;&gt;Node20</title>
<g id="a_edge29_Node000001_Node000020"><a xlink:title=" ">
<path fill="none" stroke="#63b8ff" d="M53.41,-206.76C62.7,-181.41 90.72,-112.41 134,-70.5 137.55,-67.06 141.69,-63.98 146,-61.27"/>
<polygon fill="#63b8ff" stroke="#63b8ff" points="147.95,-64.18 154.93,-56.21 144.5,-58.09 147.95,-64.18"/>
</a>
</g>
</g>
<!-- Node21 -->
<g id="Node000021" class="node">
<title>Node21</title>
<g id="a_Node000021"><a xlink:href="kc_8cpp.html#aaa2a453c704de36a8f120f155f762c62" target="_top" xlink:title=" ">
<polygon fill="white" stroke="#666666" points="213,-19 147,-19 147,0 213,0 213,-19"/>
<text text-anchor="middle" x="180" y="-7" font-family="Helvetica" font-size="10.00">vector_zero</text>
</a>
</g>
</g>
<!-- Node1&#45;&gt;Node21 -->
<g id="edge33_Node000001_Node000021" class="edge">
<title>Node1&#45;&gt;Node21</title>
<g id="a_edge33_Node000001_Node000021"><a xlink:title=" ">
<path fill="none" stroke="#63b8ff" d="M51.65,-206.78C57.34,-176.16 78.91,-80.55 134,-27.5 135.25,-26.3 136.59,-25.17 138,-24.12"/>
<polygon fill="#63b8ff" stroke="#63b8ff" points="139.94,-27.03 146.65,-18.84 136.29,-21.06 139.94,-27.03"/>
</a>
</g>
</g>
<!-- Node3 -->
<g id="Node000003" class="node">
<title>Node3</title>
<g id="a_Node000003"><a xlink:href="kc_8cpp.html#aff974d448122c33ebffbaf2666c42092" target="_top" xlink:title=" ">
<polygon fill="white" stroke="#666666" points="441.5,-565 403.5,-565 403.5,-546 441.5,-546 441.5,-565"/>
<text text-anchor="middle" x="422.5" y="-553" font-family="Helvetica" font-size="10.00">betai</text>
</a>
</g>
</g>
<!-- Node2&#45;&gt;Node3 -->
<g id="edge2_Node000002_Node000003" class="edge">
<title>Node2&#45;&gt;Node3</title>
<g id="a_edge2_Node000002_Node000003"><a xlink:title=" ">
<path fill="none" stroke="#63b8ff" d="M326.66,-555.5C344.61,-555.5 372.35,-555.5 393.2,-555.5"/>
<polygon fill="#63b8ff" stroke="#63b8ff" points="393.39,-559 403.39,-555.5 393.39,-552 393.39,-559"/>
</a>
</g>
</g>
<!-- Node4 -->
<g id="Node000004" class="node">
<title>Node4</title>
<g id="a_Node000004"><a xlink:href="kc_8cpp.html#a1d6e649feccbc1d73424037ed02d7418" target="_top" xlink:title=" ">
<polygon fill="white" stroke="#666666" points="539.5,-583 495.5,-583 495.5,-564 539.5,-564 539.5,-583"/>
<text text-anchor="middle" x="517.5" y="-571" font-family="Helvetica" font-size="10.00">betacf</text>
</a>
</g>
</g>
<!-- Node3&#45;&gt;Node4 -->
<g id="edge3_Node000003_Node000004" class="edge">
<title>Node3&#45;&gt;Node4</title>
<g id="a_edge3_Node000003_Node000004"><a xlink:title=" ">
<path fill="none" stroke="#63b8ff" d="M441.87,-559.06C454.23,-561.45 470.82,-564.66 485.23,-567.45"/>
<polygon fill="#63b8ff" stroke="#63b8ff" points="484.75,-570.92 495.23,-569.38 486.08,-564.05 484.75,-570.92"/>
</a>
</g>
</g>
<!-- Node5 -->
<g id="Node000005" class="node">
<title>Node5</title>
<g id="a_Node000005"><a xlink:href="kc_8cpp.html#a69cc1b545a83a4d9f187e131500aee45" target="_top" xlink:title=" ">
<polygon fill="white" stroke="#666666" points="543,-546 492,-546 492,-527 543,-527 543,-546"/>
<text text-anchor="middle" x="517.5" y="-534" font-family="Helvetica" font-size="10.00">gammln</text>
</a>
</g>
</g>
<!-- Node3&#45;&gt;Node5 -->
<g id="edge4_Node000003_Node000005" class="edge">
<title>Node3&#45;&gt;Node5</title>
<g id="a_edge4_Node000003_Node000005"><a xlink:title=" ">
<path fill="none" stroke="#63b8ff" d="M441.87,-551.75C453.26,-549.42 468.26,-546.36 481.82,-543.59"/>
<polygon fill="#63b8ff" stroke="#63b8ff" points="482.73,-546.97 491.82,-541.54 481.33,-540.11 482.73,-546.97"/>
</a>
</g>
</g>
<!-- Node6&#45;&gt;Node2 -->
<g id="edge6_Node000006_Node000002" class="edge">
<title>Node6&#45;&gt;Node2</title>
<g id="a_edge6_Node000006_Node000002"><a xlink:title=" ">
<path fill="none" stroke="#63b8ff" d="M205.79,-540.25C226.67,-543.41 256.51,-547.93 278.29,-551.23"/>
<polygon fill="#63b8ff" stroke="#63b8ff" points="277.85,-554.7 288.26,-552.74 278.9,-547.78 277.85,-554.7"/>
</a>
</g>
</g>
<!-- Node8&#45;&gt;Node7 -->
<g id="edge9_Node000008_Node000007" class="edge">
<title>Node8&#45;&gt;Node7</title>
<g id="a_edge9_Node000008_Node000007"><a xlink:title=" ">
<path fill="none" stroke="#63b8ff" d="M205.15,-263.87C212.45,-260.15 220.09,-255.36 226,-249.5 249.74,-225.98 238.32,-207.07 262,-183.5 265.47,-180.04 269.55,-176.95 273.79,-174.24"/>
<polygon fill="#63b8ff" stroke="#63b8ff" points="275.68,-177.19 282.62,-169.18 272.2,-171.11 275.68,-177.19"/>
</a>
</g>
</g>
<!-- Node9 -->
<g id="Node000009" class="node">
<title>Node9</title>
<g id="a_Node000009"><a xlink:href="kc_8cpp.html#a85a2f9c7ff758c36a67d0b8a58424404" target="_top" xlink:title=" ">
<polygon fill="white" stroke="#666666" points="353,-394 262,-394 262,-375 353,-375 353,-394"/>
<text text-anchor="middle" x="307.5" y="-382" font-family="Helvetica" font-size="10.00">matrix_ludecomp</text>
</a>
</g>
</g>
<!-- Node8&#45;&gt;Node9 -->
<g id="edge10_Node000008_Node000009" class="edge">
<title>Node8&#45;&gt;Node9</title>
<g id="a_edge10_Node000008_Node000009"><a xlink:title=" ">
<path fill="none" stroke="#63b8ff" d="M187.19,-283.27C199.4,-301.83 228.35,-342.51 262,-366.5 263.87,-367.84 265.86,-369.09 267.92,-370.27"/>
<polygon fill="#63b8ff" stroke="#63b8ff" points="266.71,-373.59 277.22,-374.96 269.86,-367.33 266.71,-373.59"/>
</a>
</g>
</g>
<!-- Node8&#45;&gt;Node10 -->
<g id="edge15_Node000008_Node000010" class="edge">
<title>Node8&#45;&gt;Node10</title>
<g id="a_edge15_Node000008_Node000010"><a xlink:title=" ">
<path fill="none" stroke="#63b8ff" d="M184.44,-283.2C193.41,-307.12 219.76,-369.46 262,-403.5 296.34,-431.18 345.19,-445.99 379.76,-453.51"/>
<polygon fill="#63b8ff" stroke="#63b8ff" points="379.5,-457.03 390,-455.62 380.91,-450.17 379.5,-457.03"/>
</a>
</g>
</g>
<!-- Node8&#45;&gt;Node11 -->
<g id="edge16_Node000008_Node000011" class="edge">
<title>Node8&#45;&gt;Node11</title>
<g id="a_edge16_Node000008_Node000011"><a xlink:title=" ">
<path fill="none" stroke="#63b8ff" d="M201.26,-263.98C235.28,-249.51 304.88,-226.57 353,-255.5 392.7,-279.37 410.62,-334.85 417.63,-364.68"/>
<polygon fill="#63b8ff" stroke="#63b8ff" points="414.27,-365.71 419.8,-374.74 421.11,-364.23 414.27,-365.71"/>
</a>
</g>
</g>
<!-- Node12 -->
<g id="Node000012" class="node">
<title>Node12</title>
<g id="a_Node000012"><a xlink:href="kc_8cpp.html#ad99cb91ebff0903217880cd395ccef58" target="_top" xlink:title=" ">
<polygon fill="white" stroke="#666666" points="347.5,-357 267.5,-357 267.5,-338 347.5,-338 347.5,-357"/>
<text text-anchor="middle" x="307.5" y="-345" font-family="Helvetica" font-size="10.00">matrix_lusubst</text>
</a>
</g>
</g>
<!-- Node8&#45;&gt;Node12 -->
<g id="edge13_Node000008_Node000012" class="edge">
<title>Node8&#45;&gt;Node12</title>
<g id="a_edge13_Node000008_Node000012"><a xlink:title=" ">
<path fill="none" stroke="#63b8ff" d="M193.08,-283.12C208.45,-295.06 236.12,-315.54 262,-329.5 264.86,-331.04 267.88,-332.53 270.95,-333.95"/>
<polygon fill="#63b8ff" stroke="#63b8ff" points="269.61,-337.18 280.17,-337.97 272.4,-330.77 269.61,-337.18"/>
</a>
</g>
</g>
<!-- Node8&#45;&gt;Node13 -->
<g id="edge14_Node000008_Node000013" class="edge">
<title>Node8&#45;&gt;Node13</title>
<g id="a_edge14_Node000008_Node000013"><a xlink:title=" ">
<path fill="none" stroke="#63b8ff" d="M202.07,-263.86C242.77,-244.93 330.22,-202.62 353,-178.5 378.39,-151.62 363.63,-130.4 389,-103.5 389.75,-102.7 390.55,-101.93 391.38,-101.19"/>
<polygon fill="#63b8ff" stroke="#63b8ff" points="393.54,-103.94 399.53,-95.2 389.4,-98.3 393.54,-103.94"/>
</a>
</g>
</g>
<!-- Node14 -->
<g id="Node000014" class="node">
<title>Node14</title>
<g id="a_Node000014"><a xlink:href="kc_8cpp.html#a595f09d7b5e2d197a0d8d4cef8a061ae" target="_top" xlink:title=" ">
<polygon fill="white" stroke="#666666" points="341,-320 274,-320 274,-301 341,-301 341,-320"/>
<text text-anchor="middle" x="307.5" y="-308" font-family="Helvetica" font-size="10.00">vectori_free</text>
</a>
</g>
</g>
<!-- Node8&#45;&gt;Node14 -->
<g id="edge17_Node000008_Node000014" class="edge">
<title>Node8&#45;&gt;Node14</title>
<g id="a_edge17_Node000008_Node000014"><a xlink:title=" ">
<path fill="none" stroke="#63b8ff" d="M213.32,-283.03C228.72,-287.57 247.34,-293.06 263.87,-297.93"/>
<polygon fill="#63b8ff" stroke="#63b8ff" points="263.27,-301.4 273.85,-300.88 265.25,-294.69 263.27,-301.4"/>
</a>
</g>
</g>
<!-- Node15 -->
<g id="Node000015" class="node">
<title>Node15</title>
<g id="a_Node000015"><a xlink:href="kc_8cpp.html#a0fad130527c83326c9dfe7da022700e0" target="_top" xlink:title=" ">
<polygon fill="white" stroke="#666666" points="341.5,-283 273.5,-283 273.5,-264 341.5,-264 341.5,-283"/>
<text text-anchor="middle" x="307.5" y="-271" font-family="Helvetica" font-size="10.00">vectori_new</text>
</a>
</g>
</g>
<!-- Node8&#45;&gt;Node15 -->
<g id="edge18_Node000008_Node000015" class="edge">
<title>Node8&#45;&gt;Node15</title>
<g id="a_edge18_Node000008_Node000015"><a xlink:title=" ">
<path fill="none" stroke="#63b8ff" d="M220.02,-273.5C233.67,-273.5 249.07,-273.5 263.06,-273.5"/>
<polygon fill="#63b8ff" stroke="#63b8ff" points="263.42,-277 273.42,-273.5 263.42,-270 263.42,-277"/>
</a>
</g>
</g>
<!-- Node9&#45;&gt;Node10 -->
<g id="edge11_Node000009_Node000010" class="edge">
<title>Node9&#45;&gt;Node10</title>
<g id="a_edge11_Node000009_Node000010"><a xlink:title=" ">
<path fill="none" stroke="#63b8ff" d="M322.81,-394.13C342,-407.03 376.27,-430.08 398.95,-445.33"/>
<polygon fill="#63b8ff" stroke="#63b8ff" points="397.05,-448.28 407.3,-450.95 400.96,-442.47 397.05,-448.28"/>
</a>
</g>
</g>
<!-- Node9&#45;&gt;Node11 -->
<g id="edge12_Node000009_Node000011" class="edge">
<title>Node9&#45;&gt;Node11</title>
<g id="a_edge12_Node000009_Node000011"><a xlink:title=" ">
<path fill="none" stroke="#63b8ff" d="M353.16,-384.5C361.76,-384.5 370.74,-384.5 379.25,-384.5"/>
<polygon fill="#63b8ff" stroke="#63b8ff" points="379.35,-388 389.35,-384.5 379.35,-381 379.35,-388"/>
</a>
</g>
</g>
<!-- Node16&#45;&gt;Node13 -->
<g id="edge21_Node000016_Node000013" class="edge">
<title>Node16&#45;&gt;Node13</title>
<g id="a_edge21_Node000016_Node000013"><a xlink:title=" ">
<path fill="none" stroke="#63b8ff" d="M337.6,-112.97C351.2,-108.52 367.6,-103.15 382.28,-98.34"/>
<polygon fill="#63b8ff" stroke="#63b8ff" points="383.69,-101.56 392.11,-95.12 381.51,-94.91 383.69,-101.56"/>
</a>
</g>
</g>
<!-- Node17 -->
<g id="Node000017" class="node">
<title>Node17</title>
<g id="a_Node000017"><a xlink:href="kc_8cpp.html#adbdc6116401c49523c4c62dde6147310" target="_top" xlink:title=" ">
<polygon fill="white" stroke="#666666" points="456,-132 389,-132 389,-113 456,-113 456,-132"/>
<text text-anchor="middle" x="422.5" y="-120" font-family="Helvetica" font-size="10.00">matrix_zero</text>
</a>
</g>
</g>
<!-- Node16&#45;&gt;Node17 -->
<g id="edge22_Node000016_Node000017" class="edge">
<title>Node16&#45;&gt;Node17</title>
<g id="a_edge22_Node000016_Node000017"><a xlink:title=" ">
<path fill="none" stroke="#63b8ff" d="M348.02,-122.5C357.94,-122.5 368.63,-122.5 378.7,-122.5"/>
<polygon fill="#63b8ff" stroke="#63b8ff" points="378.92,-126 388.92,-122.5 378.92,-119 378.92,-126"/>
</a>
</g>
</g>
<!-- Node18&#45;&gt;Node7 -->
<g id="edge24_Node000018_Node000007" class="edge">
<title>Node18&#45;&gt;Node7</title>
<g id="a_edge24_Node000018_Node000007"><a xlink:title=" ">
<path fill="none" stroke="#63b8ff" d="M212.67,-187.91C228.57,-183.1 248.04,-177.2 265.11,-172.03"/>
<polygon fill="#63b8ff" stroke="#63b8ff" points="266.28,-175.33 274.84,-169.09 264.26,-168.63 266.28,-175.33"/>
</a>
</g>
</g>
<!-- Node18&#45;&gt;Node16 -->
<g id="edge25_Node000018_Node000016" class="edge">
<title>Node18&#45;&gt;Node16</title>
<g id="a_edge25_Node000018_Node000016"><a xlink:title=" ">
<path fill="none" stroke="#63b8ff" d="M210.5,-187.84C215.87,-185.49 221.27,-182.71 226,-179.5 245.25,-166.43 242.9,-154.79 262,-141.5 264.54,-139.73 267.27,-138.08 270.08,-136.55"/>
<polygon fill="#63b8ff" stroke="#63b8ff" points="271.78,-139.61 279.21,-132.06 268.69,-133.33 271.78,-139.61"/>
</a>
</g>
</g>
<!-- Node19&#45;&gt;Node7 -->
<g id="edge27_Node000019_Node000007" class="edge">
<title>Node19&#45;&gt;Node7</title>
<g id="a_edge27_Node000019_Node000007"><a xlink:title=" ">
<path fill="none" stroke="#63b8ff" d="M222.09,-160.17C235.77,-160.06 251,-159.94 264.72,-159.83"/>
<polygon fill="#63b8ff" stroke="#63b8ff" points="264.9,-163.33 274.87,-159.75 264.84,-156.33 264.9,-163.33"/>
</a>
</g>
</g>
<!-- Node19&#45;&gt;Node16 -->
<g id="edge28_Node000019_Node000016" class="edge">
<title>Node19&#45;&gt;Node16</title>
<g id="a_edge28_Node000019_Node000016"><a xlink:title=" ">
<path fill="none" stroke="#63b8ff" d="M212.67,-150.91C228.57,-146.1 248.04,-140.2 265.11,-135.03"/>
<polygon fill="#63b8ff" stroke="#63b8ff" points="266.28,-138.33 274.84,-132.09 264.26,-131.63 266.28,-138.33"/>
</a>
</g>
</g>
<!-- Node20&#45;&gt;Node13 -->
<g id="edge30_Node000020_Node000013" class="edge">
<title>Node20&#45;&gt;Node13</title>
<g id="a_edge30_Node000020_Node000013"><a xlink:title=" ">
<path fill="none" stroke="#63b8ff" d="M226.06,-51.82C260.84,-56.17 310.11,-62.82 353,-70.5 361.44,-72.01 370.42,-73.83 379.01,-75.66"/>
<polygon fill="#63b8ff" stroke="#63b8ff" points="378.33,-79.1 388.85,-77.81 379.83,-72.26 378.33,-79.1"/>
</a>
</g>
</g>
</g>
</svg>
