<?xml version="1.0" encoding="UTF-8" standalone="no"?>
<!DOCTYPE svg PUBLIC "-//W3C//DTD SVG 1.1//EN"
 "http://www.w3.org/Graphics/SVG/1.1/DTD/svg11.dtd">
<!-- Generated by graphviz version 2.44.0 (0)
 -->
<!-- Title: kstest Pages: 1 -->
<svg width="150pt" height="64pt"
 viewBox="0.00 0.00 150.00 64.00" xmlns="http://www.w3.org/2000/svg" xmlns:xlink="http://www.w3.org/1999/xlink">
<g id="graph0" class="graph" transform="scale(1 1) rotate(0) translate(4 60)">
<title>kstest</title>
<!-- Node1 -->
<g id="Node000001" class="node">
<title>Node1</title>
<g id="a_Node000001"><a xlink:title=" ">
<polygon fill="#999999" stroke="#666666" points="44,-37 0,-37 0,-18 44,-18 44,-37"/>
<text text-anchor="middle" x="22" y="-25" font-family="Helvetica" font-size="10.00">kstest</text>
</a>
</g>
</g>
<!-- Node2 -->
<g id="Node000002" class="node">
<title>Node2</title>
<g id="a_Node000002"><a xlink:href="kc_8cpp.html#a143f0d120ce98a745cf55be12076967a" target="_top" xlink:title=" ">
<polygon fill="white" stroke="#666666" points="134,-56 88,-56 88,-37 134,-37 134,-56"/>
<text text-anchor="middle" x="111" y="-44" font-family="Helvetica" font-size="10.00">probks</text>
</a>
</g>
</g>
<!-- Node1&#45;&gt;Node2 -->
<g id="edge1_Node000001_Node000002" class="edge">
<title>Node1&#45;&gt;Node2</title>
<g id="a_edge1_Node000001_Node000002"><a xlink:title=" ">
<path fill="none" stroke="#63b8ff" d="M44.06,-32.1C54.22,-34.32 66.64,-37.03 77.95,-39.5"/>
<polygon fill="#63b8ff" stroke="#63b8ff" points="77.4,-42.96 87.92,-41.68 78.9,-36.12 77.4,-42.96"/>
</a>
</g>
</g>
<!-- Node3 -->
<g id="Node000003" class="node">
<title>Node3</title>
<g id="a_Node000003"><a xlink:href="kc_8cpp.html#a09f1787a49a1a27fcfaa05325d628b57" target="_top" xlink:title=" ">
<polygon fill="white" stroke="#666666" points="142,-19 80,-19 80,0 142,0 142,-19"/>
<text text-anchor="middle" x="111" y="-7" font-family="Helvetica" font-size="10.00">quick_sort</text>
</a>
</g>
</g>
<!-- Node1&#45;&gt;Node3 -->
<g id="edge2_Node000001_Node000003" class="edge">
<title>Node1&#45;&gt;Node3</title>
<g id="a_edge2_Node000001_Node000003"><a xlink:title=" ">
<path fill="none" stroke="#63b8ff" d="M44.06,-23.14C51.88,-21.52 61.03,-19.63 69.98,-17.78"/>
<polygon fill="#63b8ff" stroke="#63b8ff" points="70.84,-21.18 79.93,-15.72 69.42,-14.32 70.84,-21.18"/>
</a>
</g>
</g>
</g>
</svg>
