<?xml version="1.0" encoding="UTF-8" standalone="no"?>
<!DOCTYPE svg PUBLIC "-//W3C//DTD SVG 1.1//EN"
 "http://www.w3.org/Graphics/SVG/1.1/DTD/svg11.dtd">
<!-- Generated by graphviz version 2.44.0 (0)
 -->
<!-- Title: matrix_regMSE Pages: 1 -->
<svg width="312pt" height="82pt"
 viewBox="0.00 0.00 312.00 82.00" xmlns="http://www.w3.org/2000/svg" xmlns:xlink="http://www.w3.org/1999/xlink">
<g id="graph0" class="graph" transform="scale(1 1) rotate(0) translate(4 78)">
<title>matrix_regMSE</title>
<!-- Node1 -->
<g id="Node000001" class="node">
<title>Node1</title>
<g id="a_Node000001"><a xlink:title=" ">
<polygon fill="#999999" stroke="#666666" points="84,-55 0,-55 0,-36 84,-36 84,-55"/>
<text text-anchor="middle" x="42" y="-43" font-family="Helvetica" font-size="10.00">matrix_regMSE</text>
</a>
</g>
</g>
<!-- Node2 -->
<g id="Node000002" class="node">
<title>Node2</title>
<g id="a_Node000002"><a xlink:href="kc_8cpp.html#aa517f6dc1cd623e0f2fdc5f0f9ab8534" target="_top" xlink:title=" ">
<polygon fill="white" stroke="#666666" points="193,-74 128,-74 128,-55 193,-55 193,-74"/>
<text text-anchor="middle" x="160.5" y="-62" font-family="Helvetica" font-size="10.00">matrix_free</text>
</a>
</g>
</g>
<!-- Node1&#45;&gt;Node2 -->
<g id="edge1_Node000001_Node000002" class="edge">
<title>Node1&#45;&gt;Node2</title>
<g id="a_edge1_Node000001_Node000002"><a xlink:title=" ">
<path fill="none" stroke="#63b8ff" d="M84.07,-52.2C95,-53.98 106.8,-55.91 117.76,-57.69"/>
<polygon fill="#63b8ff" stroke="#63b8ff" points="117.51,-61.2 127.95,-59.35 118.64,-54.29 117.51,-61.2"/>
</a>
</g>
</g>
<!-- Node3 -->
<g id="Node000003" class="node">
<title>Node3</title>
<g id="a_Node000003"><a xlink:href="kc_8cpp.html#aef4d42f4197a1db7f6667dc7ea67956b" target="_top" xlink:title=" ">
<polygon fill="white" stroke="#666666" points="201,-37 120,-37 120,-18 201,-18 201,-37"/>
<text text-anchor="middle" x="160.5" y="-25" font-family="Helvetica" font-size="10.00">matrix_product</text>
</a>
</g>
</g>
<!-- Node1&#45;&gt;Node3 -->
<g id="edge2_Node000001_Node000003" class="edge">
<title>Node1&#45;&gt;Node3</title>
<g id="a_edge2_Node000001_Node000003"><a xlink:title=" ">
<path fill="none" stroke="#63b8ff" d="M84.07,-39.15C92.45,-37.86 101.36,-36.48 110,-35.15"/>
<polygon fill="#63b8ff" stroke="#63b8ff" points="110.62,-38.59 119.97,-33.61 109.55,-31.68 110.62,-38.59"/>
</a>
</g>
</g>
<!-- Node4 -->
<g id="Node000004" class="node">
<title>Node4</title>
<g id="a_Node000004"><a xlink:href="kc_8cpp.html#ac75528b11a2997977101b6e9ded2c7cf" target="_top" xlink:title=" ">
<polygon fill="white" stroke="#666666" points="304,-56 237,-56 237,-37 304,-37 304,-56"/>
<text text-anchor="middle" x="270.5" y="-44" font-family="Helvetica" font-size="10.00">matrix_new</text>
</a>
</g>
</g>
<!-- Node3&#45;&gt;Node4 -->
<g id="edge3_Node000003_Node000004" class="edge">
<title>Node3&#45;&gt;Node4</title>
<g id="a_edge3_Node000003_Node000004"><a xlink:title=" ">
<path fill="none" stroke="#63b8ff" d="M201.1,-34.47C209.49,-35.94 218.38,-37.51 226.87,-39"/>
<polygon fill="#63b8ff" stroke="#63b8ff" points="226.53,-42.49 236.98,-40.78 227.74,-35.6 226.53,-42.49"/>
</a>
</g>
</g>
<!-- Node5 -->
<g id="Node000005" class="node">
<title>Node5</title>
<g id="a_Node000005"><a xlink:href="kc_8cpp.html#adbdc6116401c49523c4c62dde6147310" target="_top" xlink:title=" ">
<polygon fill="white" stroke="#666666" points="304,-19 237,-19 237,0 304,0 304,-19"/>
<text text-anchor="middle" x="270.5" y="-7" font-family="Helvetica" font-size="10.00">matrix_zero</text>
</a>
</g>
</g>
<!-- Node3&#45;&gt;Node5 -->
<g id="edge4_Node000003_Node000005" class="edge">
<title>Node3&#45;&gt;Node5</title>
<g id="a_edge4_Node000003_Node000005"><a xlink:title=" ">
<path fill="none" stroke="#63b8ff" d="M201.1,-20.9C209.49,-19.5 218.38,-18.02 226.87,-16.6"/>
<polygon fill="#63b8ff" stroke="#63b8ff" points="227.69,-20.02 236.98,-14.92 226.54,-13.11 227.69,-20.02"/>
</a>
</g>
</g>
</g>
</svg>
