<?xml version="1.0" encoding="UTF-8" standalone="no"?>
<!DOCTYPE svg PUBLIC "-//W3C//DTD SVG 1.1//EN"
 "http://www.w3.org/Graphics/SVG/1.1/DTD/svg11.dtd">
<!-- Generated by graphviz version 2.44.0 (0)
 -->
<!-- Title: matrix_transpose Pages: 1 -->
<svg width="489pt" height="214pt"
 viewBox="0.00 0.00 489.00 214.00" xmlns="http://www.w3.org/2000/svg" xmlns:xlink="http://www.w3.org/1999/xlink">
<g id="graph0" class="graph" transform="scale(1 1) rotate(0) translate(4 210)">
<title>matrix_transpose</title>
<!-- Node1 -->
<g id="Node000001" class="node">
<title>Node1</title>
<g id="a_Node000001"><a xlink:title=" ">
<polygon fill="#999999" stroke="#666666" points="481,-111 389,-111 389,-92 481,-92 481,-111"/>
<text text-anchor="middle" x="435" y="-99" font-family="Helvetica" font-size="10.00">matrix_transpose</text>
</a>
</g>
</g>
<!-- Node2 -->
<g id="Node000002" class="node">
<title>Node2</title>
<g id="a_Node000002"><a xlink:href="kc_8cpp.html#a673ed8b4d0eee5e7e60df48435e0d8ba" target="_top" xlink:title=" ">
<polygon fill="white" stroke="#666666" points="210.5,-112 121.5,-112 121.5,-93 210.5,-93 210.5,-112"/>
<text text-anchor="middle" x="166" y="-100" font-family="Helvetica" font-size="10.00">matrix_corMatrix</text>
</a>
</g>
</g>
<!-- Node1&#45;&gt;Node2 -->
<g id="edge1_Node000001_Node000002" class="edge">
<title>Node1&#45;&gt;Node2</title>
<g id="a_edge1_Node000001_Node000002"><a xlink:title=" ">
<path fill="none" stroke="#63b8ff" d="M409.95,-116.21C394.34,-124.87 373.21,-134.99 353,-139.5 309.19,-149.27 295.95,-148.65 252,-139.5 226.95,-134.28 200.23,-121.27 183.57,-112.16"/>
<polygon fill="#63b8ff" stroke="#63b8ff" points="411.97,-119.09 418.9,-111.07 408.49,-113.02 411.97,-119.09"/>
</a>
</g>
</g>
<!-- Node4 -->
<g id="Node000004" class="node">
<title>Node4</title>
<g id="a_Node000004"><a xlink:href="kc_8cpp.html#aa51dbc9f02003e376630381db9eab42c" target="_top" xlink:title=" ">
<polygon fill="white" stroke="#666666" points="348.5,-206 256.5,-206 256.5,-187 348.5,-187 348.5,-206"/>
<text text-anchor="middle" x="302.5" y="-194" font-family="Helvetica" font-size="10.00">matrix_covMatrix</text>
</a>
</g>
</g>
<!-- Node1&#45;&gt;Node4 -->
<g id="edge3_Node000001_Node000004" class="edge">
<title>Node1&#45;&gt;Node4</title>
<g id="a_edge3_Node000001_Node000004"><a xlink:title=" ">
<path fill="none" stroke="#63b8ff" d="M417.4,-118.46C401.75,-133.84 377.15,-156.48 353,-172.5 344.72,-177.99 335,-182.98 326.37,-186.97"/>
<polygon fill="#63b8ff" stroke="#63b8ff" points="420.11,-120.69 424.72,-111.15 415.17,-115.74 420.11,-120.69"/>
</a>
</g>
</g>
<!-- Node6 -->
<g id="Node000006" class="node">
<title>Node6</title>
<g id="a_Node000006"><a xlink:href="kc_8cpp.html#a0458e14ed6d01fb333ea0b2a06035d87" target="_top" xlink:title=" ">
<polygon fill="white" stroke="#666666" points="333.5,-130 271.5,-130 271.5,-111 333.5,-111 333.5,-130"/>
<text text-anchor="middle" x="302.5" y="-118" font-family="Helvetica" font-size="10.00">matrix_reg</text>
</a>
</g>
</g>
<!-- Node1&#45;&gt;Node6 -->
<g id="edge5_Node000001_Node000006" class="edge">
<title>Node1&#45;&gt;Node6</title>
<g id="a_edge5_Node000001_Node000006"><a xlink:title=" ">
<path fill="none" stroke="#63b8ff" d="M378.7,-109.55C363.21,-111.81 346.96,-114.17 333.55,-116.13"/>
<polygon fill="#63b8ff" stroke="#63b8ff" points="379.33,-113 388.72,-108.09 378.32,-106.07 379.33,-113"/>
</a>
</g>
</g>
<!-- Node7 -->
<g id="Node000007" class="node">
<title>Node7</title>
<g id="a_Node000007"><a xlink:href="kc_8cpp.html#a77077c3de17b2dd212a275a4e0ff1750" target="_top" xlink:title=" ">
<polygon fill="white" stroke="#666666" points="353,-93 252,-93 252,-74 353,-74 353,-93"/>
<text text-anchor="middle" x="302.5" y="-81" font-family="Helvetica" font-size="10.00">matrix_regCoefStat</text>
</a>
</g>
</g>
<!-- Node1&#45;&gt;Node7 -->
<g id="edge6_Node000001_Node000007" class="edge">
<title>Node1&#45;&gt;Node7</title>
<g id="a_edge6_Node000001_Node000007"><a xlink:title=" ">
<path fill="none" stroke="#63b8ff" d="M378.57,-93.86C370.13,-92.69 361.46,-91.49 353.15,-90.35"/>
<polygon fill="#63b8ff" stroke="#63b8ff" points="378.34,-97.36 388.72,-95.25 379.3,-90.42 378.34,-97.36"/>
</a>
</g>
</g>
<!-- Node8 -->
<g id="Node000008" class="node">
<title>Node8</title>
<g id="a_Node000008"><a xlink:href="kc_8cpp.html#ad66fdb823fdc1c7260a0459c1912203f" target="_top" xlink:title=" ">
<polygon fill="white" stroke="#666666" points="351.5,-56 253.5,-56 253.5,-37 351.5,-37 351.5,-56"/>
<text text-anchor="middle" x="302.5" y="-44" font-family="Helvetica" font-size="10.00">matrix_regObsStat</text>
</a>
</g>
</g>
<!-- Node1&#45;&gt;Node8 -->
<g id="edge7_Node000001_Node000008" class="edge">
<title>Node1&#45;&gt;Node8</title>
<g id="a_edge7_Node000001_Node000008"><a xlink:title=" ">
<path fill="none" stroke="#63b8ff" d="M404.78,-87.47C389.48,-80.3 370.37,-71.61 353,-64.5 345.89,-61.59 338.12,-58.65 330.88,-56.02"/>
<polygon fill="#63b8ff" stroke="#63b8ff" points="403.68,-90.82 414.22,-91.93 406.67,-84.49 403.68,-90.82"/>
</a>
</g>
</g>
<!-- Node9 -->
<g id="Node000009" class="node">
<title>Node9</title>
<g id="a_Node000009"><a xlink:href="kc_8cpp.html#aa824316c0d7768e230ae809a3e679a66" target="_top" xlink:title=" ">
<polygon fill="white" stroke="#666666" points="341,-19 264,-19 264,0 341,0 341,-19"/>
<text text-anchor="middle" x="302.5" y="-7" font-family="Helvetica" font-size="10.00">matrix_stdCol</text>
</a>
</g>
</g>
<!-- Node1&#45;&gt;Node9 -->
<g id="edge8_Node000001_Node000009" class="edge">
<title>Node1&#45;&gt;Node9</title>
<g id="a_edge8_Node000001_Node000009"><a xlink:title=" ">
<path fill="none" stroke="#63b8ff" d="M418.41,-83.71C403.15,-67.22 378.53,-42.96 353,-27.5 347.6,-24.23 341.52,-21.42 335.51,-19.05"/>
<polygon fill="#63b8ff" stroke="#63b8ff" points="416.19,-86.47 425.5,-91.54 421.38,-81.78 416.19,-86.47"/>
</a>
</g>
</g>
<!-- Node3 -->
<g id="Node000003" class="node">
<title>Node3</title>
<g id="a_Node000003"><a xlink:href="kc_8cpp.html#a165e97bd10a48d3c5da908938468212b" target="_top" xlink:title=" ">
<polygon fill="white" stroke="#666666" points="80,-112 0,-112 0,-93 80,-93 80,-112"/>
<text text-anchor="middle" x="40" y="-100" font-family="Helvetica" font-size="10.00">matrix_pcaCor</text>
</a>
</g>
</g>
<!-- Node2&#45;&gt;Node3 -->
<g id="edge2_Node000002_Node000003" class="edge">
<title>Node2&#45;&gt;Node3</title>
<g id="a_edge2_Node000002_Node000003"><a xlink:title=" ">
<path fill="none" stroke="#63b8ff" d="M111.05,-102.5C100.67,-102.5 89.99,-102.5 80.19,-102.5"/>
<polygon fill="#63b8ff" stroke="#63b8ff" points="111.28,-106 121.28,-102.5 111.28,-99 111.28,-106"/>
</a>
</g>
</g>
<!-- Node5 -->
<g id="Node000005" class="node">
<title>Node5</title>
<g id="a_Node000005"><a xlink:href="kc_8cpp.html#ae64a3eb3736d5788d72eaf7ad6927421" target="_top" xlink:title=" ">
<polygon fill="white" stroke="#666666" points="207.5,-206 124.5,-206 124.5,-187 207.5,-187 207.5,-206"/>
<text text-anchor="middle" x="166" y="-194" font-family="Helvetica" font-size="10.00">matrix_pcaCov</text>
</a>
</g>
</g>
<!-- Node4&#45;&gt;Node5 -->
<g id="edge4_Node000004_Node000005" class="edge">
<title>Node4&#45;&gt;Node5</title>
<g id="a_edge4_Node000004_Node000005"><a xlink:title=" ">
<path fill="none" stroke="#63b8ff" d="M246.19,-196.5C233.32,-196.5 219.85,-196.5 207.74,-196.5"/>
<polygon fill="#63b8ff" stroke="#63b8ff" points="246.34,-200 256.34,-196.5 246.34,-193 246.34,-200"/>
</a>
</g>
</g>
<!-- Node9&#45;&gt;Node2 -->
<g id="edge9_Node000009_Node000002" class="edge">
<title>Node9&#45;&gt;Node2</title>
<g id="a_edge9_Node000009_Node000002"><a xlink:title=" ">
<path fill="none" stroke="#63b8ff" d="M260.39,-23.06C257.49,-24.44 254.67,-25.92 252,-27.5 220.53,-46.19 189.92,-77.31 175.53,-92.94"/>
<polygon fill="#63b8ff" stroke="#63b8ff" points="261.99,-26.19 269.8,-19.02 259.23,-19.75 261.99,-26.19"/>
</a>
</g>
</g>
<!-- Node10 -->
<g id="Node000010" class="node">
<title>Node10</title>
<g id="a_Node000010"><a xlink:href="kc_8cpp.html#aa04426b6994cdcfbbf77c3bb77e7a021" target="_top" xlink:title=" ">
<polygon fill="white" stroke="#666666" points="216,-19 116,-19 116,0 216,0 216,-19"/>
<text text-anchor="middle" x="166" y="-7" font-family="Helvetica" font-size="10.00">matrix_pcaComVar</text>
</a>
</g>
</g>
<!-- Node9&#45;&gt;Node10 -->
<g id="edge10_Node000009_Node000010" class="edge">
<title>Node9&#45;&gt;Node10</title>
<g id="a_edge10_Node000009_Node000010"><a xlink:title=" ">
<path fill="none" stroke="#63b8ff" d="M253.32,-9.5C241.23,-9.5 228.24,-9.5 216.1,-9.5"/>
<polygon fill="#63b8ff" stroke="#63b8ff" points="253.68,-13 263.68,-9.5 253.68,-6 253.68,-13"/>
</a>
</g>
</g>
</g>
</svg>
