<?xml version="1.0" encoding="UTF-8" standalone="no"?>
<!DOCTYPE svg PUBLIC "-//W3C//DTD SVG 1.1//EN"
 "http://www.w3.org/Graphics/SVG/1.1/DTD/svg11.dtd">
<!-- Generated by graphviz version 2.44.0 (0)
 -->
<!-- Title: cdf_chi2 Pages: 1 -->
<svg width="517pt" height="138pt"
 viewBox="0.00 0.00 517.00 138.00" xmlns="http://www.w3.org/2000/svg" xmlns:xlink="http://www.w3.org/1999/xlink">
<g id="graph0" class="graph" transform="scale(1 1) rotate(0) translate(4 134)">
<title>cdf_chi2</title>
<!-- Node1 -->
<g id="Node000001" class="node">
<title>Node1</title>
<g id="a_Node000001"><a xlink:title=" ">
<polygon fill="#999999" stroke="#666666" points="509,-74 456,-74 456,-55 509,-55 509,-74"/>
<text text-anchor="middle" x="482.5" y="-62" font-family="Helvetica" font-size="10.00">cdf_chi2</text>
</a>
</g>
</g>
<!-- Node2 -->
<g id="Node000002" class="node">
<title>Node2</title>
<g id="a_Node000002"><a xlink:href="kc_8cpp.html#adf37c70a909881088c54291500d5f848" target="_top" xlink:title=" ">
<polygon fill="white" stroke="#666666" points="383,-130 332,-130 332,-111 383,-111 383,-130"/>
<text text-anchor="middle" x="357.5" y="-118" font-family="Helvetica" font-size="10.00">chi2test</text>
</a>
</g>
</g>
<!-- Node1&#45;&gt;Node2 -->
<g id="edge1_Node000001_Node000002" class="edge">
<title>Node1&#45;&gt;Node2</title>
<g id="a_edge1_Node000001_Node000002"><a xlink:title=" ">
<path fill="none" stroke="#63b8ff" d="M459.95,-79.8C448.49,-87.42 433.93,-96.29 420,-102.5 408.31,-107.71 394.72,-111.87 383.28,-114.87"/>
<polygon fill="#63b8ff" stroke="#63b8ff" points="462.11,-82.57 468.4,-74.04 458.16,-76.79 462.11,-82.57"/>
</a>
</g>
</g>
<!-- Node3 -->
<g id="Node000003" class="node">
<title>Node3</title>
<g id="a_Node000003"><a xlink:href="kc_8cpp.html#ac06495bdbe2a0b6c4f235664bc002c80" target="_top" xlink:title=" ">
<polygon fill="white" stroke="#666666" points="406.5,-93 308.5,-93 308.5,-74 406.5,-74 406.5,-93"/>
<text text-anchor="middle" x="357.5" y="-81" font-family="Helvetica" font-size="10.00">chi2test_2by2table</text>
</a>
</g>
</g>
<!-- Node1&#45;&gt;Node3 -->
<g id="edge2_Node000001_Node000003" class="edge">
<title>Node1&#45;&gt;Node3</title>
<g id="a_edge2_Node000001_Node000003"><a xlink:title=" ">
<path fill="none" stroke="#63b8ff" d="M445.5,-70.06C433.34,-71.94 419.56,-74.07 406.61,-76.07"/>
<polygon fill="#63b8ff" stroke="#63b8ff" points="446.37,-73.47 455.72,-68.48 445.3,-66.55 446.37,-73.47"/>
</a>
</g>
</g>
<!-- Node4 -->
<g id="Node000004" class="node">
<title>Node4</title>
<g id="a_Node000004"><a xlink:href="kc_8cpp.html#a6f7008da290a84b7ba4e26e232a645dc" target="_top" xlink:title=" ">
<polygon fill="white" stroke="#666666" points="409.5,-56 305.5,-56 305.5,-37 409.5,-37 409.5,-56"/>
<text text-anchor="middle" x="357.5" y="-44" font-family="Helvetica" font-size="10.00">chi2test_onesample</text>
</a>
</g>
</g>
<!-- Node1&#45;&gt;Node4 -->
<g id="edge3_Node000001_Node000004" class="edge">
<title>Node1&#45;&gt;Node4</title>
<g id="a_edge3_Node000001_Node000004"><a xlink:title=" ">
<path fill="none" stroke="#63b8ff" d="M445.79,-59.27C434.49,-57.62 421.77,-55.76 409.61,-53.98"/>
<polygon fill="#63b8ff" stroke="#63b8ff" points="445.31,-62.74 455.72,-60.73 446.33,-55.82 445.31,-62.74"/>
</a>
</g>
</g>
<!-- Node7 -->
<g id="Node000007" class="node">
<title>Node7</title>
<g id="a_Node000007"><a xlink:href="kc_8cpp.html#a229578c847d01eeceb5d7bfe5ddf6c37" target="_top" xlink:title=" ">
<polygon fill="white" stroke="#666666" points="420,-19 295,-19 295,0 420,0 420,-19"/>
<text text-anchor="middle" x="357.5" y="-7" font-family="Helvetica" font-size="10.00">chi2test_trend_2by3table</text>
</a>
</g>
</g>
<!-- Node1&#45;&gt;Node7 -->
<g id="edge6_Node000001_Node000007" class="edge">
<title>Node1&#45;&gt;Node7</title>
<g id="a_edge6_Node000001_Node000007"><a xlink:title=" ">
<path fill="none" stroke="#63b8ff" d="M459.45,-49.34C448.05,-42 433.69,-33.5 420,-27.5 412.66,-24.28 404.59,-21.45 396.77,-19.05"/>
<polygon fill="#63b8ff" stroke="#63b8ff" points="457.61,-52.32 467.89,-54.91 461.47,-46.48 457.61,-52.32"/>
</a>
</g>
</g>
<!-- Node5 -->
<g id="Node000005" class="node">
<title>Node5</title>
<g id="a_Node000005"><a xlink:href="kc_8cpp.html#a96ec673538c48e142ea769df221d2ca9" target="_top" xlink:title=" ">
<polygon fill="white" stroke="#666666" points="245.5,-56 147.5,-56 147.5,-37 245.5,-37 245.5,-56"/>
<text text-anchor="middle" x="196.5" y="-44" font-family="Helvetica" font-size="10.00">chi2test_2by3table</text>
</a>
</g>
</g>
<!-- Node4&#45;&gt;Node5 -->
<g id="edge4_Node000004_Node000005" class="edge">
<title>Node4&#45;&gt;Node5</title>
<g id="a_edge4_Node000004_Node000005"><a xlink:title=" ">
<path fill="none" stroke="#63b8ff" d="M295.24,-46.5C278.79,-46.5 261.24,-46.5 245.61,-46.5"/>
<polygon fill="#63b8ff" stroke="#63b8ff" points="295.32,-50 305.32,-46.5 295.32,-43 295.32,-50"/>
</a>
</g>
</g>
<!-- Node6 -->
<g id="Node000006" class="node">
<title>Node6</title>
<g id="a_Node000006"><a xlink:href="kc_8cpp.html#a3208fdc700d8fc604d6446c1180e58cd" target="_top" xlink:title=" ">
<polygon fill="white" stroke="#666666" points="98,-56 0,-56 0,-37 98,-37 98,-56"/>
<text text-anchor="middle" x="49" y="-44" font-family="Helvetica" font-size="10.00">chi2test_3by2table</text>
</a>
</g>
</g>
<!-- Node5&#45;&gt;Node6 -->
<g id="edge5_Node000005_Node000006" class="edge">
<title>Node5&#45;&gt;Node6</title>
<g id="a_edge5_Node000005_Node000006"><a xlink:title=" ">
<path fill="none" stroke="#63b8ff" d="M137.3,-46.5C124.43,-46.5 110.93,-46.5 98.49,-46.5"/>
<polygon fill="#63b8ff" stroke="#63b8ff" points="137.45,-50 147.45,-46.5 137.45,-43 137.45,-50"/>
</a>
</g>
</g>
<!-- Node8 -->
<g id="Node000008" class="node">
<title>Node8</title>
<g id="a_Node000008"><a xlink:href="kc_8cpp.html#a5ac369578aba21ff5f35f9e2c7320fa4" target="_top" xlink:title=" ">
<polygon fill="white" stroke="#666666" points="259,-19 134,-19 134,0 259,0 259,-19"/>
<text text-anchor="middle" x="196.5" y="-7" font-family="Helvetica" font-size="10.00">chi2test_trend_3by2table</text>
</a>
</g>
</g>
<!-- Node7&#45;&gt;Node8 -->
<g id="edge7_Node000007_Node000008" class="edge">
<title>Node7&#45;&gt;Node8</title>
<g id="a_edge7_Node000007_Node000008"><a xlink:title=" ">
<path fill="none" stroke="#63b8ff" d="M284.41,-9.5C276.01,-9.5 267.5,-9.5 259.26,-9.5"/>
<polygon fill="#63b8ff" stroke="#63b8ff" points="284.57,-13 294.57,-9.5 284.57,-6 284.57,-13"/>
</a>
</g>
</g>
</g>
</svg>
