<?xml version="1.0" encoding="UTF-8" standalone="no"?>
<!DOCTYPE svg PUBLIC "-//W3C//DTD SVG 1.1//EN"
 "http://www.w3.org/Graphics/SVG/1.1/DTD/svg11.dtd">
<!-- Generated by graphviz version 2.44.0 (0)
 -->
<!-- Title: chi2test_3by2table Pages: 1 -->
<svg width="712pt" height="101pt"
 viewBox="0.00 0.00 712.00 101.00" xmlns="http://www.w3.org/2000/svg" xmlns:xlink="http://www.w3.org/1999/xlink">
<g id="graph0" class="graph" transform="scale(1 1) rotate(0) translate(4 97)">
<title>chi2test_3by2table</title>
<!-- Node1 -->
<g id="Node000001" class="node">
<title>Node1</title>
<g id="a_Node000001"><a xlink:title=" ">
<polygon fill="#999999" stroke="#666666" points="98,-56 0,-56 0,-37 98,-37 98,-56"/>
<text text-anchor="middle" x="49" y="-44" font-family="Helvetica" font-size="10.00">chi2test_3by2table</text>
</a>
</g>
</g>
<!-- Node2 -->
<g id="Node000002" class="node">
<title>Node2</title>
<g id="a_Node000002"><a xlink:href="kc_8cpp.html#a96ec673538c48e142ea769df221d2ca9" target="_top" xlink:title=" ">
<polygon fill="white" stroke="#666666" points="232,-56 134,-56 134,-37 232,-37 232,-56"/>
<text text-anchor="middle" x="183" y="-44" font-family="Helvetica" font-size="10.00">chi2test_2by3table</text>
</a>
</g>
</g>
<!-- Node1&#45;&gt;Node2 -->
<g id="edge1_Node000001_Node000002" class="edge">
<title>Node1&#45;&gt;Node2</title>
<g id="a_edge1_Node000001_Node000002"><a xlink:title=" ">
<path fill="none" stroke="#63b8ff" d="M98.03,-46.5C106.31,-46.5 115,-46.5 123.52,-46.5"/>
<polygon fill="#63b8ff" stroke="#63b8ff" points="123.79,-50 133.79,-46.5 123.79,-43 123.79,-50"/>
</a>
</g>
</g>
<!-- Node9 -->
<g id="Node000009" class="node">
<title>Node9</title>
<g id="a_Node000009"><a xlink:href="kc_8cpp.html#ae21c4c252ad5d5710ebd03d6f07e40de" target="_top" xlink:title=" ">
<polygon fill="white" stroke="#666666" points="344,-93 296,-93 296,-74 344,-74 344,-93"/>
<text text-anchor="middle" x="320" y="-81" font-family="Helvetica" font-size="10.00">dvector</text>
</a>
</g>
</g>
<!-- Node1&#45;&gt;Node9 -->
<g id="edge11_Node000001_Node000009" class="edge">
<title>Node1&#45;&gt;Node9</title>
<g id="a_edge11_Node000001_Node000009"><a xlink:title=" ">
<path fill="none" stroke="#63b8ff" d="M90.42,-56.09C104.19,-59.11 119.71,-62.24 134,-64.5 186.68,-72.82 248.41,-78.32 285.57,-81.17"/>
<polygon fill="#63b8ff" stroke="#63b8ff" points="285.59,-84.68 295.82,-81.93 286.11,-77.7 285.59,-84.68"/>
</a>
</g>
</g>
<!-- Node10 -->
<g id="Node000010" class="node">
<title>Node10</title>
<g id="a_Node000010"><a xlink:href="kc_8cpp.html#ac7ec1a76a4b8d3d8423246676977c919" target="_top" xlink:title=" ">
<polygon fill="white" stroke="#666666" points="355,-19 285,-19 285,0 355,0 355,-19"/>
<text text-anchor="middle" x="320" y="-7" font-family="Helvetica" font-size="10.00">free_dvector</text>
</a>
</g>
</g>
<!-- Node1&#45;&gt;Node10 -->
<g id="edge12_Node000001_Node000010" class="edge">
<title>Node1&#45;&gt;Node10</title>
<g id="a_edge12_Node000001_Node000010"><a xlink:title=" ">
<path fill="none" stroke="#63b8ff" d="M87.44,-36.97C101.91,-33.57 118.65,-29.97 134,-27.5 181.76,-19.81 237.02,-14.95 274.62,-12.25"/>
<polygon fill="#63b8ff" stroke="#63b8ff" points="275.01,-15.73 284.74,-11.54 274.52,-8.75 275.01,-15.73"/>
</a>
</g>
</g>
<!-- Node3 -->
<g id="Node000003" class="node">
<title>Node3</title>
<g id="a_Node000003"><a xlink:href="kc_8cpp.html#a6f7008da290a84b7ba4e26e232a645dc" target="_top" xlink:title=" ">
<polygon fill="white" stroke="#666666" points="372,-56 268,-56 268,-37 372,-37 372,-56"/>
<text text-anchor="middle" x="320" y="-44" font-family="Helvetica" font-size="10.00">chi2test_onesample</text>
</a>
</g>
</g>
<!-- Node2&#45;&gt;Node3 -->
<g id="edge2_Node000002_Node000003" class="edge">
<title>Node2&#45;&gt;Node3</title>
<g id="a_edge2_Node000002_Node000003"><a xlink:title=" ">
<path fill="none" stroke="#63b8ff" d="M232.36,-46.5C240.53,-46.5 249.12,-46.5 257.57,-46.5"/>
<polygon fill="#63b8ff" stroke="#63b8ff" points="257.79,-50 267.79,-46.5 257.79,-43 257.79,-50"/>
</a>
</g>
</g>
<!-- Node2&#45;&gt;Node9 -->
<g id="edge9_Node000002_Node000009" class="edge">
<title>Node2&#45;&gt;Node9</title>
<g id="a_edge9_Node000002_Node000009"><a xlink:title=" ">
<path fill="none" stroke="#63b8ff" d="M218.77,-56.03C239.48,-61.71 265.63,-68.87 286.02,-74.46"/>
<polygon fill="#63b8ff" stroke="#63b8ff" points="285.24,-77.88 295.81,-77.15 287.1,-71.13 285.24,-77.88"/>
</a>
</g>
</g>
<!-- Node2&#45;&gt;Node10 -->
<g id="edge10_Node000002_Node000010" class="edge">
<title>Node2&#45;&gt;Node10</title>
<g id="a_edge10_Node000002_Node000010"><a xlink:title=" ">
<path fill="none" stroke="#63b8ff" d="M218.77,-36.97C235.9,-32.27 256.76,-26.56 275,-21.56"/>
<polygon fill="#63b8ff" stroke="#63b8ff" points="276.1,-24.89 284.82,-18.87 274.25,-18.14 276.1,-24.89"/>
</a>
</g>
</g>
<!-- Node4 -->
<g id="Node000004" class="node">
<title>Node4</title>
<g id="a_Node000004"><a xlink:href="kc_8cpp.html#ab600bf758ebb6d37ebd914533e27691d" target="_top" xlink:title=" ">
<polygon fill="white" stroke="#666666" points="461,-56 408,-56 408,-37 461,-37 461,-56"/>
<text text-anchor="middle" x="434.5" y="-44" font-family="Helvetica" font-size="10.00">cdf_chi2</text>
</a>
</g>
</g>
<!-- Node3&#45;&gt;Node4 -->
<g id="edge3_Node000003_Node000004" class="edge">
<title>Node3&#45;&gt;Node4</title>
<g id="a_edge3_Node000003_Node000004"><a xlink:title=" ">
<path fill="none" stroke="#63b8ff" d="M372.31,-46.5C380.85,-46.5 389.55,-46.5 397.6,-46.5"/>
<polygon fill="#63b8ff" stroke="#63b8ff" points="397.75,-50 407.75,-46.5 397.75,-43 397.75,-50"/>
</a>
</g>
</g>
<!-- Node5 -->
<g id="Node000005" class="node">
<title>Node5</title>
<g id="a_Node000005"><a xlink:href="kc_8cpp.html#aa1745417f9696825bc7cc68538800b5b" target="_top" xlink:title=" ">
<polygon fill="white" stroke="#666666" points="546,-56 497,-56 497,-37 546,-37 546,-56"/>
<text text-anchor="middle" x="521.5" y="-44" font-family="Helvetica" font-size="10.00">gammp</text>
</a>
</g>
</g>
<!-- Node4&#45;&gt;Node5 -->
<g id="edge4_Node000004_Node000005" class="edge">
<title>Node4&#45;&gt;Node5</title>
<g id="a_edge4_Node000004_Node000005"><a xlink:title=" ">
<path fill="none" stroke="#63b8ff" d="M461,-46.5C469.07,-46.5 478.11,-46.5 486.67,-46.5"/>
<polygon fill="#63b8ff" stroke="#63b8ff" points="486.76,-50 496.76,-46.5 486.76,-43 486.76,-50"/>
</a>
</g>
</g>
<!-- Node6 -->
<g id="Node000006" class="node">
<title>Node6</title>
<g id="a_Node000006"><a xlink:href="kc_8cpp.html#a5b446e3e8ec13c8e2383ac156f0cf77f" target="_top" xlink:title=" ">
<polygon fill="white" stroke="#666666" points="614.5,-75 584.5,-75 584.5,-56 614.5,-56 614.5,-75"/>
<text text-anchor="middle" x="599.5" y="-63" font-family="Helvetica" font-size="10.00">gcf</text>
</a>
</g>
</g>
<!-- Node5&#45;&gt;Node6 -->
<g id="edge5_Node000005_Node000006" class="edge">
<title>Node5&#45;&gt;Node6</title>
<g id="a_edge5_Node000005_Node000006"><a xlink:title=" ">
<path fill="none" stroke="#63b8ff" d="M546.13,-52.41C555.15,-54.66 565.44,-57.23 574.49,-59.5"/>
<polygon fill="#63b8ff" stroke="#63b8ff" points="573.85,-62.95 584.41,-61.98 575.55,-56.16 573.85,-62.95"/>
</a>
</g>
</g>
<!-- Node8 -->
<g id="Node000008" class="node">
<title>Node8</title>
<g id="a_Node000008"><a xlink:href="kc_8cpp.html#a5277079b0c65d166db9553deb8a92de2" target="_top" xlink:title=" ">
<polygon fill="white" stroke="#666666" points="617,-38 582,-38 582,-19 617,-19 617,-38"/>
<text text-anchor="middle" x="599.5" y="-26" font-family="Helvetica" font-size="10.00">gser</text>
</a>
</g>
</g>
<!-- Node5&#45;&gt;Node8 -->
<g id="edge7_Node000005_Node000008" class="edge">
<title>Node5&#45;&gt;Node8</title>
<g id="a_edge7_Node000005_Node000008"><a xlink:title=" ">
<path fill="none" stroke="#63b8ff" d="M546.13,-40.9C554.22,-38.99 563.33,-36.83 571.65,-34.86"/>
<polygon fill="#63b8ff" stroke="#63b8ff" points="572.71,-38.2 581.64,-32.49 571.1,-31.39 572.71,-38.2"/>
</a>
</g>
</g>
<!-- Node7 -->
<g id="Node000007" class="node">
<title>Node7</title>
<g id="a_Node000007"><a xlink:href="kc_8cpp.html#a69cc1b545a83a4d9f187e131500aee45" target="_top" xlink:title=" ">
<polygon fill="white" stroke="#666666" points="704,-56 653,-56 653,-37 704,-37 704,-56"/>
<text text-anchor="middle" x="678.5" y="-44" font-family="Helvetica" font-size="10.00">gammln</text>
</a>
</g>
</g>
<!-- Node6&#45;&gt;Node7 -->
<g id="edge6_Node000006_Node000007" class="edge">
<title>Node6&#45;&gt;Node7</title>
<g id="a_edge6_Node000006_Node000007"><a xlink:title=" ">
<path fill="none" stroke="#63b8ff" d="M614.62,-62.02C622.63,-60.04 633.04,-57.47 643.07,-55"/>
<polygon fill="#63b8ff" stroke="#63b8ff" points="644,-58.37 652.87,-52.58 642.32,-51.58 644,-58.37"/>
</a>
</g>
</g>
<!-- Node8&#45;&gt;Node7 -->
<g id="edge8_Node000008_Node000007" class="edge">
<title>Node8&#45;&gt;Node7</title>
<g id="a_edge8_Node000008_Node000007"><a xlink:title=" ">
<path fill="none" stroke="#63b8ff" d="M617.21,-32.41C624.79,-34.18 634.06,-36.34 643.03,-38.44"/>
<polygon fill="#63b8ff" stroke="#63b8ff" points="642.39,-41.89 652.93,-40.76 643.99,-35.07 642.39,-41.89"/>
</a>
</g>
</g>
</g>
</svg>
