<?xml version="1.0" encoding="UTF-8" standalone="no"?>
<!DOCTYPE svg PUBLIC "-//W3C//DTD SVG 1.1//EN"
 "http://www.w3.org/Graphics/SVG/1.1/DTD/svg11.dtd">
<!-- Generated by graphviz version 2.44.0 (0)
 -->
<!-- Title: matrix_new Pages: 1 -->
<svg width="612pt" height="1230pt"
 viewBox="0.00 0.00 612.00 1230.00" xmlns="http://www.w3.org/2000/svg" xmlns:xlink="http://www.w3.org/1999/xlink">
<g id="graph0" class="graph" transform="scale(1 1) rotate(0) translate(4 1226)">
<title>matrix_new</title>
<!-- Node1 -->
<g id="Node000001" class="node">
<title>Node1</title>
<g id="a_Node000001"><a xlink:title=" ">
<polygon fill="#999999" stroke="#666666" points="604,-426 537,-426 537,-407 604,-407 604,-426"/>
<text text-anchor="middle" x="570.5" y="-414" font-family="Helvetica" font-size="10.00">matrix_new</text>
</a>
</g>
</g>
<!-- Node2 -->
<g id="Node000002" class="node">
<title>Node2</title>
<g id="a_Node000002"><a xlink:href="kc_8cpp.html#afe422ba8b591cae1c441249f6075436a" target="_top" xlink:title=" ">
<polygon fill="white" stroke="#666666" points="479.5,-1222 417.5,-1222 417.5,-1203 479.5,-1203 479.5,-1222"/>
<text text-anchor="middle" x="448.5" y="-1210" font-family="Helvetica" font-size="10.00">matrix_cat</text>
</a>
</g>
</g>
<!-- Node1&#45;&gt;Node2 -->
<g id="edge1_Node000001_Node000002" class="edge">
<title>Node1&#45;&gt;Node2</title>
<g id="a_edge1_Node000001_Node000002"><a xlink:title=" ">
<path fill="none" stroke="#63b8ff" d="M568.91,-436.3C565.37,-550.79 545.49,-1125.06 501,-1188.5 495.85,-1195.85 487.85,-1201.01 479.68,-1204.6"/>
<polygon fill="#63b8ff" stroke="#63b8ff" points="572.42,-436.27 569.22,-426.17 565.42,-436.06 572.42,-436.27"/>
</a>
</g>
</g>
<!-- Node3 -->
<g id="Node000003" class="node">
<title>Node3</title>
<g id="a_Node000003"><a xlink:href="kc_8cpp.html#a487b6171c617a9bdb3b3337dab2fc046" target="_top" xlink:title=" ">
<polygon fill="white" stroke="#666666" points="483.5,-1032 413.5,-1032 413.5,-1013 483.5,-1013 483.5,-1032"/>
<text text-anchor="middle" x="448.5" y="-1020" font-family="Helvetica" font-size="10.00">matrix_copy</text>
</a>
</g>
</g>
<!-- Node1&#45;&gt;Node3 -->
<g id="edge2_Node000001_Node000003" class="edge">
<title>Node1&#45;&gt;Node3</title>
<g id="a_edge2_Node000001_Node000003"><a xlink:title=" ">
<path fill="none" stroke="#63b8ff" d="M568.22,-436.52C563.68,-502.33 546.1,-717.63 501,-889.5 488.49,-937.16 464.31,-991.09 454.16,-1012.74"/>
<polygon fill="#63b8ff" stroke="#63b8ff" points="571.73,-436.53 568.9,-426.32 564.74,-436.07 571.73,-436.53"/>
</a>
</g>
</g>
<!-- Node5 -->
<g id="Node000005" class="node">
<title>Node5</title>
<g id="a_Node000005"><a xlink:href="kc_8cpp.html#a165e97bd10a48d3c5da908938468212b" target="_top" xlink:title=" ">
<polygon fill="white" stroke="#666666" points="80,-1070 0,-1070 0,-1051 80,-1051 80,-1070"/>
<text text-anchor="middle" x="40" y="-1058" font-family="Helvetica" font-size="10.00">matrix_pcaCor</text>
</a>
</g>
</g>
<!-- Node1&#45;&gt;Node5 -->
<g id="edge25_Node000001_Node000005" class="edge">
<title>Node1&#45;&gt;Node5</title>
<g id="a_edge25_Node000001_Node000005"><a xlink:title=" ">
<path fill="none" stroke="#63b8ff" d="M568.8,-436.34C564.9,-542.97 544.28,-1045.14 501,-1097.5 388.19,-1233.97 127.34,-1107.24 58.12,-1070.04"/>
<polygon fill="#63b8ff" stroke="#63b8ff" points="572.3,-436.42 569.17,-426.3 565.31,-436.17 572.3,-436.42"/>
</a>
</g>
</g>
<!-- Node7 -->
<g id="Node000007" class="node">
<title>Node7</title>
<g id="a_Node000007"><a xlink:href="kc_8cpp.html#ae64a3eb3736d5788d72eaf7ad6927421" target="_top" xlink:title=" ">
<polygon fill="white" stroke="#666666" points="208,-1070 125,-1070 125,-1051 208,-1051 208,-1070"/>
<text text-anchor="middle" x="166.5" y="-1058" font-family="Helvetica" font-size="10.00">matrix_pcaCov</text>
</a>
</g>
</g>
<!-- Node1&#45;&gt;Node7 -->
<g id="edge26_Node000001_Node000007" class="edge">
<title>Node1&#45;&gt;Node7</title>
<g id="a_edge26_Node000001_Node000007"><a xlink:title=" ">
<path fill="none" stroke="#63b8ff" d="M569.74,-436.54C570.53,-531.9 569.79,-939.38 501,-1041.5 436.59,-1137.11 363.34,-1150.91 253,-1117.5 222.27,-1108.19 192.48,-1083.79 177.51,-1070.13"/>
<polygon fill="#63b8ff" stroke="#63b8ff" points="573.24,-436.24 569.64,-426.28 566.24,-436.31 573.24,-436.24"/>
</a>
</g>
</g>
<!-- Node10 -->
<g id="Node000010" class="node">
<title>Node10</title>
<g id="a_Node000010"><a xlink:href="kc_8cpp.html#af9848a5ae0abf30166d7ca76011014b2" target="_top" xlink:title=" ">
<polygon fill="white" stroke="#666666" points="487,-463 410,-463 410,-444 487,-444 487,-463"/>
<text text-anchor="middle" x="448.5" y="-451" font-family="Helvetica" font-size="10.00">matrix_delCol</text>
</a>
</g>
</g>
<!-- Node1&#45;&gt;Node10 -->
<g id="edge9_Node000001_Node000010" class="edge">
<title>Node1&#45;&gt;Node10</title>
<g id="a_edge9_Node000001_Node000010"><a xlink:title=" ">
<path fill="none" stroke="#63b8ff" d="M528.63,-429.1C512.96,-433.93 495.34,-439.37 480.72,-443.88"/>
<polygon fill="#63b8ff" stroke="#63b8ff" points="530.07,-432.32 538.6,-426.03 528.01,-425.63 530.07,-432.32"/>
</a>
</g>
</g>
<!-- Node11 -->
<g id="Node000011" class="node">
<title>Node11</title>
<g id="a_Node000011"><a xlink:href="kc_8cpp.html#a941f97f06dc11db76a0f4464bcb71e00" target="_top" xlink:title=" ">
<polygon fill="white" stroke="#666666" points="489.5,-426 407.5,-426 407.5,-407 489.5,-407 489.5,-426"/>
<text text-anchor="middle" x="448.5" y="-414" font-family="Helvetica" font-size="10.00">matrix_delRow</text>
</a>
</g>
</g>
<!-- Node1&#45;&gt;Node11 -->
<g id="edge10_Node000001_Node000011" class="edge">
<title>Node1&#45;&gt;Node11</title>
<g id="a_edge10_Node000001_Node000011"><a xlink:title=" ">
<path fill="none" stroke="#63b8ff" d="M526.44,-416.5C514.4,-416.5 501.37,-416.5 489.52,-416.5"/>
<polygon fill="#63b8ff" stroke="#63b8ff" points="526.71,-420 536.71,-416.5 526.71,-413 526.71,-420"/>
</a>
</g>
</g>
<!-- Node12 -->
<g id="Node000012" class="node">
<title>Node12</title>
<g id="a_Node000012"><a xlink:href="kc_8cpp.html#af0e16ee0cbf76fe1a067c0f4132e8774" target="_top" xlink:title=" ">
<polygon fill="white" stroke="#666666" points="488.5,-747 408.5,-747 408.5,-728 488.5,-728 488.5,-747"/>
<text text-anchor="middle" x="448.5" y="-735" font-family="Helvetica" font-size="10.00">matrix_inverse</text>
</a>
</g>
</g>
<!-- Node1&#45;&gt;Node12 -->
<g id="edge11_Node000001_Node000012" class="edge">
<title>Node1&#45;&gt;Node12</title>
<g id="a_edge11_Node000001_Node000012"><a xlink:title=" ">
<path fill="none" stroke="#63b8ff" d="M563.45,-436.07C552.1,-472.36 526.45,-552.42 501,-618.5 485.14,-659.67 463.38,-707.56 454.05,-727.74"/>
<polygon fill="#63b8ff" stroke="#63b8ff" points="566.87,-436.86 566.5,-426.27 560.18,-434.78 566.87,-436.86"/>
</a>
</g>
</g>
<!-- Node14 -->
<g id="Node000014" class="node">
<title>Node14</title>
<g id="a_Node000014"><a xlink:href="kc_8cpp.html#a77077c3de17b2dd212a275a4e0ff1750" target="_top" xlink:title=" ">
<polygon fill="white" stroke="#666666" points="217,-614 116,-614 116,-595 217,-595 217,-614"/>
<text text-anchor="middle" x="166.5" y="-602" font-family="Helvetica" font-size="10.00">matrix_regCoefStat</text>
</a>
</g>
</g>
<!-- Node1&#45;&gt;Node14 -->
<g id="edge41_Node000001_Node000014" class="edge">
<title>Node1&#45;&gt;Node14</title>
<g id="a_edge41_Node000001_Node000014"><a xlink:title=" ">
<path fill="none" stroke="#63b8ff" d="M568.02,-436.67C564.14,-473.31 550.24,-550.25 501,-585.5 411.17,-649.81 270.36,-628.93 204.18,-614.03"/>
<polygon fill="#63b8ff" stroke="#63b8ff" points="571.55,-436.57 568.96,-426.3 564.57,-435.94 571.55,-436.57"/>
</a>
</g>
</g>
<!-- Node15 -->
<g id="Node000015" class="node">
<title>Node15</title>
<g id="a_Node000015"><a xlink:href="kc_8cpp.html#ad66fdb823fdc1c7260a0459c1912203f" target="_top" xlink:title=" ">
<polygon fill="white" stroke="#666666" points="215.5,-501 117.5,-501 117.5,-482 215.5,-482 215.5,-501"/>
<text text-anchor="middle" x="166.5" y="-489" font-family="Helvetica" font-size="10.00">matrix_regObsStat</text>
</a>
</g>
</g>
<!-- Node1&#45;&gt;Node15 -->
<g id="edge42_Node000001_Node000015" class="edge">
<title>Node1&#45;&gt;Node15</title>
<g id="a_edge42_Node000001_Node000015"><a xlink:title=" ">
<path fill="none" stroke="#63b8ff" d="M554.49,-434.07C541.8,-447.48 522.33,-464.89 501,-472.5 457.05,-488.18 433.68,-500.04 396,-472.5 353.45,-441.4 402.55,-390.6 360,-359.5 321.61,-331.44 294.78,-336.78 253,-359.5 203.35,-386.5 178.09,-456.14 170.24,-481.81"/>
<polygon fill="#63b8ff" stroke="#63b8ff" points="557.35,-436.13 561.47,-426.37 552.16,-431.43 557.35,-436.13"/>
</a>
</g>
</g>
<!-- Node16 -->
<g id="Node000016" class="node">
<title>Node16</title>
<g id="a_Node000016"><a xlink:href="kc_8cpp.html#a81683e0787ad3491e6e65a83bf05124f" target="_top" xlink:title=" ">
<polygon fill="white" stroke="#666666" points="491.5,-389 405.5,-389 405.5,-370 491.5,-370 491.5,-389"/>
<text text-anchor="middle" x="448.5" y="-377" font-family="Helvetica" font-size="10.00">matrix_inverse2</text>
</a>
</g>
</g>
<!-- Node1&#45;&gt;Node16 -->
<g id="edge15_Node000001_Node000016" class="edge">
<title>Node1&#45;&gt;Node16</title>
<g id="a_edge15_Node000001_Node000016"><a xlink:title=" ">
<path fill="none" stroke="#63b8ff" d="M528.63,-403.9C512.96,-399.07 495.34,-393.63 480.72,-389.12"/>
<polygon fill="#63b8ff" stroke="#63b8ff" points="528.01,-407.37 538.6,-406.97 530.07,-400.68 528.01,-407.37"/>
</a>
</g>
</g>
<!-- Node17 -->
<g id="Node000017" class="node">
<title>Node17</title>
<g id="a_Node000017"><a xlink:href="kc_8cpp.html#a609d0838618bb6305e85dd167ec08238" target="_top" xlink:title=" ">
<polygon fill="white" stroke="#666666" points="501,-352 396,-352 396,-333 501,-333 501,-352"/>
<text text-anchor="middle" x="448.5" y="-340" font-family="Helvetica" font-size="10.00">matrix_newDiagonal</text>
</a>
</g>
</g>
<!-- Node1&#45;&gt;Node17 -->
<g id="edge16_Node000001_Node000017" class="edge">
<title>Node1&#45;&gt;Node17</title>
<g id="a_edge16_Node000001_Node000017"><a xlink:title=" ">
<path fill="none" stroke="#63b8ff" d="M552.74,-399.96C539.58,-387.7 520.31,-371.32 501,-360.5 495.22,-357.26 488.75,-354.44 482.39,-352.07"/>
<polygon fill="#63b8ff" stroke="#63b8ff" points="550.44,-402.6 560.09,-406.97 555.27,-397.53 550.44,-402.6"/>
</a>
</g>
</g>
<!-- Node18 -->
<g id="Node000018" class="node">
<title>Node18</title>
<g id="a_Node000018"><a xlink:href="kc_8cpp.html#a71f8fde7da24c3d7ff2accceda310498" target="_top" xlink:title=" ">
<polygon fill="white" stroke="#666666" points="498,-315 399,-315 399,-296 498,-296 498,-315"/>
<text text-anchor="middle" x="448.5" y="-303" font-family="Helvetica" font-size="10.00">matrix_newIdentity</text>
</a>
</g>
</g>
<!-- Node1&#45;&gt;Node18 -->
<g id="edge17_Node000001_Node000018" class="edge">
<title>Node1&#45;&gt;Node18</title>
<g id="a_edge17_Node000001_Node000018"><a xlink:title=" ">
<path fill="none" stroke="#63b8ff" d="M560.13,-397.7C548.81,-376.8 527.89,-343.36 501,-323.5 496.43,-320.12 491.17,-317.34 485.8,-315.06"/>
<polygon fill="#63b8ff" stroke="#63b8ff" points="557.17,-399.6 564.9,-406.84 563.38,-396.36 557.17,-399.6"/>
</a>
</g>
</g>
<!-- Node19 -->
<g id="Node000019" class="node">
<title>Node19</title>
<g id="a_Node000019"><a xlink:href="kc_8cpp.html#ab7b71e4683cf71e5accd72c9f4ee2520" target="_top" xlink:title=" ">
<polygon fill="white" stroke="#666666" points="500,-278 397,-278 397,-259 500,-259 500,-278"/>
<text text-anchor="middle" x="448.5" y="-266" font-family="Helvetica" font-size="10.00">matrix_newRandom</text>
</a>
</g>
</g>
<!-- Node1&#45;&gt;Node19 -->
<g id="edge18_Node000001_Node000019" class="edge">
<title>Node1&#45;&gt;Node19</title>
<g id="a_edge18_Node000001_Node000019"><a xlink:title=" ">
<path fill="none" stroke="#63b8ff" d="M564.19,-396.9C555.54,-368.62 535.81,-316.48 501,-286.5 497.05,-283.1 492.42,-280.33 487.59,-278.08"/>
<polygon fill="#63b8ff" stroke="#63b8ff" points="560.91,-398.16 567.05,-406.79 567.63,-396.21 560.91,-398.16"/>
</a>
</g>
</g>
<!-- Node20 -->
<g id="Node000020" class="node">
<title>Node20</title>
<g id="a_Node000020"><a xlink:href="kc_8cpp.html#a34fc6bc5065be03e054201ca6ea792b1" target="_top" xlink:title=" ">
<polygon fill="white" stroke="#666666" points="490.5,-241 406.5,-241 406.5,-222 490.5,-222 490.5,-241"/>
<text text-anchor="middle" x="448.5" y="-229" font-family="Helvetica" font-size="10.00">matrix_newSeq</text>
</a>
</g>
</g>
<!-- Node1&#45;&gt;Node20 -->
<g id="edge19_Node000001_Node000020" class="edge">
<title>Node1&#45;&gt;Node20</title>
<g id="a_edge19_Node000001_Node000020"><a xlink:title=" ">
<path fill="none" stroke="#63b8ff" d="M566.68,-396.36C560.77,-361.61 543.9,-290.18 501,-249.5 497.43,-246.11 493.18,-243.36 488.68,-241.12"/>
<polygon fill="#63b8ff" stroke="#63b8ff" points="563.28,-397.31 568.28,-406.65 570.2,-396.23 563.28,-397.31"/>
</a>
</g>
</g>
<!-- Node21 -->
<g id="Node000021" class="node">
<title>Node21</title>
<g id="a_Node000021"><a xlink:href="kc_8cpp.html#abb5b3d84ab0088a0df21b669e3405b5b" target="_top" xlink:title=" ">
<polygon fill="white" stroke="#666666" points="497,-539 400,-539 400,-520 497,-520 497,-539"/>
<text text-anchor="middle" x="448.5" y="-527" font-family="Helvetica" font-size="10.00">matrix_newSubcol</text>
</a>
</g>
</g>
<!-- Node1&#45;&gt;Node21 -->
<g id="edge20_Node000001_Node000021" class="edge">
<title>Node1&#45;&gt;Node21</title>
<g id="a_edge20_Node000001_Node000021"><a xlink:title=" ">
<path fill="none" stroke="#63b8ff" d="M559.04,-434.89C547.11,-454.51 525.99,-485.48 501,-505.5 493.69,-511.36 484.71,-516.17 476.31,-519.91"/>
<polygon fill="#63b8ff" stroke="#63b8ff" points="562.21,-436.41 564.27,-426.02 556.18,-432.85 562.21,-436.41"/>
</a>
</g>
</g>
<!-- Node23 -->
<g id="Node000023" class="node">
<title>Node23</title>
<g id="a_Node000023"><a xlink:href="kc_8cpp.html#a6be7a4660fd4fa28de1e39c8c3289e6d" target="_top" xlink:title=" ">
<polygon fill="white" stroke="#666666" points="499,-204 398,-204 398,-185 499,-185 499,-204"/>
<text text-anchor="middle" x="448.5" y="-192" font-family="Helvetica" font-size="10.00">matrix_newSubmat</text>
</a>
</g>
</g>
<!-- Node1&#45;&gt;Node23 -->
<g id="edge22_Node000001_Node000023" class="edge">
<title>Node1&#45;&gt;Node23</title>
<g id="a_edge22_Node000001_Node000023"><a xlink:title=" ">
<path fill="none" stroke="#63b8ff" d="M568.46,-396.78C565.29,-356.6 552.49,-264.62 501,-212.5 497.61,-209.06 493.52,-206.28 489.15,-204.03"/>
<polygon fill="#63b8ff" stroke="#63b8ff" points="564.98,-397.13 569.14,-406.88 571.96,-396.66 564.98,-397.13"/>
</a>
</g>
</g>
<!-- Node24 -->
<g id="Node000024" class="node">
<title>Node24</title>
<g id="a_Node000024"><a xlink:href="kc_8cpp.html#a265ea641a46882404b8a295c106869e6" target="_top" xlink:title=" ">
<polygon fill="white" stroke="#666666" points="498.5,-167 398.5,-167 398.5,-148 498.5,-148 498.5,-167"/>
<text text-anchor="middle" x="448.5" y="-155" font-family="Helvetica" font-size="10.00">matrix_newSubrow</text>
</a>
</g>
</g>
<!-- Node1&#45;&gt;Node24 -->
<g id="edge23_Node000001_Node000024" class="edge">
<title>Node1&#45;&gt;Node24</title>
<g id="a_edge23_Node000001_Node000024"><a xlink:title=" ">
<path fill="none" stroke="#63b8ff" d="M569.68,-396.7C568.99,-351.37 560.95,-239.12 501,-175.5 497.75,-172.05 493.81,-169.27 489.56,-167.01"/>
<polygon fill="#63b8ff" stroke="#63b8ff" points="566.18,-396.72 569.72,-406.71 573.18,-396.69 566.18,-396.72"/>
</a>
</g>
</g>
<!-- Node25 -->
<g id="Node000025" class="node">
<title>Node25</title>
<g id="a_Node000025"><a xlink:href="kc_8cpp.html#a1d846becb4123e2b9484de623f92c727" target="_top" xlink:title=" ">
<polygon fill="white" stroke="#666666" points="485,-130 412,-130 412,-111 485,-111 485,-130"/>
<text text-anchor="middle" x="448.5" y="-118" font-family="Helvetica" font-size="10.00">matrix_paste</text>
</a>
</g>
</g>
<!-- Node1&#45;&gt;Node25 -->
<g id="edge24_Node000001_Node000025" class="edge">
<title>Node1&#45;&gt;Node25</title>
<g id="a_edge24_Node000001_Node000025"><a xlink:title=" ">
<path fill="none" stroke="#63b8ff" d="M567.06,-396.56C559.72,-339.49 536.12,-177.12 501,-138.5 496.67,-133.74 491,-130.23 485.02,-127.66"/>
<polygon fill="#63b8ff" stroke="#63b8ff" points="563.63,-397.3 568.35,-406.78 570.57,-396.43 563.63,-397.3"/>
</a>
</g>
</g>
<!-- Node26 -->
<g id="Node000026" class="node">
<title>Node26</title>
<g id="a_Node000026"><a xlink:href="kc_8cpp.html#aef4d42f4197a1db7f6667dc7ea67956b" target="_top" xlink:title=" ">
<polygon fill="white" stroke="#666666" points="489,-576 408,-576 408,-557 489,-557 489,-576"/>
<text text-anchor="middle" x="448.5" y="-564" font-family="Helvetica" font-size="10.00">matrix_product</text>
</a>
</g>
</g>
<!-- Node1&#45;&gt;Node26 -->
<g id="edge27_Node000001_Node000026" class="edge">
<title>Node1&#45;&gt;Node26</title>
<g id="a_edge27_Node000001_Node000026"><a xlink:title=" ">
<path fill="none" stroke="#63b8ff" d="M564.4,-435.98C555.93,-464.59 536.31,-517.89 501,-548.5 497.06,-551.91 492.44,-554.69 487.61,-556.95"/>
<polygon fill="#63b8ff" stroke="#63b8ff" points="567.86,-436.57 567.19,-426 561.12,-434.69 567.86,-436.57"/>
</a>
</g>
</g>
<!-- Node30 -->
<g id="Node000030" class="node">
<title>Node30</title>
<g id="a_Node000030"><a xlink:href="kc_8cpp.html#a89a2987a60a852f56603492790999aba" target="_top" xlink:title=" ">
<polygon fill="white" stroke="#666666" points="494.5,-880 402.5,-880 402.5,-861 494.5,-861 494.5,-880"/>
<text text-anchor="middle" x="448.5" y="-868" font-family="Helvetica" font-size="10.00">matrix_transpose</text>
</a>
</g>
</g>
<!-- Node1&#45;&gt;Node30 -->
<g id="edge43_Node000001_Node000030" class="edge">
<title>Node1&#45;&gt;Node30</title>
<g id="a_edge43_Node000001_Node000030"><a xlink:title=" ">
<path fill="none" stroke="#63b8ff" d="M567.11,-436.2C560.38,-489.04 539.18,-637.96 501,-756.5 488.08,-796.6 465.17,-841.39 454.83,-860.74"/>
<polygon fill="#63b8ff" stroke="#63b8ff" points="570.6,-436.52 568.36,-426.17 563.65,-435.66 570.6,-436.52"/>
</a>
</g>
</g>
<!-- Node32 -->
<g id="Node000032" class="node">
<title>Node32</title>
<g id="a_Node000032"><a xlink:href="kc_8cpp.html#afdf0c39719eaa36901b5b91ee867ad25" target="_top" xlink:title=" ">
<polygon fill="white" stroke="#666666" points="491.5,-93 405.5,-93 405.5,-74 491.5,-74 491.5,-93"/>
<text text-anchor="middle" x="448.5" y="-81" font-family="Helvetica" font-size="10.00">matrixi_toMatrix</text>
</a>
</g>
</g>
<!-- Node1&#45;&gt;Node32 -->
<g id="edge52_Node000001_Node000032" class="edge">
<title>Node1&#45;&gt;Node32</title>
<g id="a_edge52_Node000001_Node000032"><a xlink:title=" ">
<path fill="none" stroke="#63b8ff" d="M567.71,-396.8C561.73,-334.97 540.54,-146.19 501,-101.5 497.99,-98.1 494.29,-95.33 490.28,-93.1"/>
<polygon fill="#63b8ff" stroke="#63b8ff" points="564.23,-397.18 568.65,-406.81 571.2,-396.52 564.23,-397.18"/>
</a>
</g>
</g>
<!-- Node33 -->
<g id="Node000033" class="node">
<title>Node33</title>
<g id="a_Node000033"><a xlink:href="kc_8cpp.html#a43a29f653177107c327548f14d5f2a33" target="_top" xlink:title=" ">
<polygon fill="white" stroke="#666666" points="500.5,-56 396.5,-56 396.5,-37 500.5,-37 500.5,-56"/>
<text text-anchor="middle" x="448.5" y="-44" font-family="Helvetica" font-size="10.00">vector_outerProduct</text>
</a>
</g>
</g>
<!-- Node1&#45;&gt;Node33 -->
<g id="edge53_Node000001_Node000033" class="edge">
<title>Node1&#45;&gt;Node33</title>
<g id="a_edge53_Node000001_Node000033"><a xlink:title=" ">
<path fill="none" stroke="#63b8ff" d="M568.2,-396.7C563.44,-330.05 544.9,-115.23 501,-64.5 498.02,-61.06 494.36,-58.28 490.36,-56.03"/>
<polygon fill="#63b8ff" stroke="#63b8ff" points="564.71,-396.98 568.89,-406.71 571.69,-396.5 564.71,-396.98"/>
</a>
</g>
</g>
<!-- Node34 -->
<g id="Node000034" class="node">
<title>Node34</title>
<g id="a_Node000034"><a xlink:href="kc_8cpp.html#a1a5bdb44faf7a9f65d5aadd9f393a996" target="_top" xlink:title=" ">
<polygon fill="white" stroke="#666666" points="490,-19 407,-19 407,0 490,0 490,-19"/>
<text text-anchor="middle" x="448.5" y="-7" font-family="Helvetica" font-size="10.00">vector_toMatrix</text>
</a>
</g>
</g>
<!-- Node1&#45;&gt;Node34 -->
<g id="edge54_Node000001_Node000034" class="edge">
<title>Node1&#45;&gt;Node34</title>
<g id="a_edge54_Node000001_Node000034"><a xlink:title=" ">
<path fill="none" stroke="#63b8ff" d="M568.59,-396.51C564.96,-325.16 549.27,-84.3 501,-27.5 497.99,-23.96 494.25,-21.12 490.17,-18.84"/>
<polygon fill="#63b8ff" stroke="#63b8ff" points="565.11,-396.97 569.09,-406.79 572.1,-396.63 565.11,-396.97"/>
</a>
</g>
</g>
<!-- Node4 -->
<g id="Node000004" class="node">
<title>Node4</title>
<g id="a_Node000004"><a xlink:href="kc_8cpp.html#a673ed8b4d0eee5e7e60df48435e0d8ba" target="_top" xlink:title=" ">
<polygon fill="white" stroke="#666666" points="211,-956 122,-956 122,-937 211,-937 211,-956"/>
<text text-anchor="middle" x="166.5" y="-944" font-family="Helvetica" font-size="10.00">matrix_corMatrix</text>
</a>
</g>
</g>
<!-- Node3&#45;&gt;Node4 -->
<g id="edge3_Node000003_Node000004" class="edge">
<title>Node3&#45;&gt;Node4</title>
<g id="a_edge3_Node000003_Node000004"><a xlink:title=" ">
<path fill="none" stroke="#63b8ff" d="M410.71,-1034.9C370.3,-1046.35 304.33,-1058.54 253,-1036.5 214.18,-1019.84 184.69,-975.93 172.99,-956.27"/>
<polygon fill="#63b8ff" stroke="#63b8ff" points="411.82,-1038.22 420.41,-1032.03 409.83,-1031.51 411.82,-1038.22"/>
</a>
</g>
</g>
<!-- Node6 -->
<g id="Node000006" class="node">
<title>Node6</title>
<g id="a_Node000006"><a xlink:href="kc_8cpp.html#aa51dbc9f02003e376630381db9eab42c" target="_top" xlink:title=" ">
<polygon fill="white" stroke="#666666" points="352.5,-994 260.5,-994 260.5,-975 352.5,-975 352.5,-994"/>
<text text-anchor="middle" x="306.5" y="-982" font-family="Helvetica" font-size="10.00">matrix_covMatrix</text>
</a>
</g>
</g>
<!-- Node3&#45;&gt;Node6 -->
<g id="edge5_Node000003_Node000006" class="edge">
<title>Node3&#45;&gt;Node6</title>
<g id="a_edge5_Node000003_Node000006"><a xlink:title=" ">
<path fill="none" stroke="#63b8ff" d="M403.37,-1010.52C383.86,-1005.23 361.23,-999.08 342.86,-994.1"/>
<polygon fill="#63b8ff" stroke="#63b8ff" points="402.68,-1013.96 413.25,-1013.2 404.52,-1007.21 402.68,-1013.96"/>
</a>
</g>
</g>
<!-- Node8 -->
<g id="Node000008" class="node">
<title>Node8</title>
<g id="a_Node000008"><a xlink:href="kc_8cpp.html#a4709c372281713ec9baaf5fb939cb10e" target="_top" xlink:title=" ">
<polygon fill="white" stroke="#666666" points="337.5,-1108 275.5,-1108 275.5,-1089 337.5,-1089 337.5,-1108"/>
<text text-anchor="middle" x="306.5" y="-1096" font-family="Helvetica" font-size="10.00">matrix_det</text>
</a>
</g>
</g>
<!-- Node3&#45;&gt;Node8 -->
<g id="edge7_Node000003_Node000008" class="edge">
<title>Node3&#45;&gt;Node8</title>
<g id="a_edge7_Node000003_Node000008"><a xlink:title=" ">
<path fill="none" stroke="#63b8ff" d="M423.72,-1037.58C406.34,-1048.36 382.06,-1062.95 360,-1074.5 350.23,-1079.62 339.17,-1084.77 329.72,-1088.98"/>
<polygon fill="#63b8ff" stroke="#63b8ff" points="425.98,-1040.29 432.61,-1032.02 422.27,-1034.35 425.98,-1040.29"/>
</a>
</g>
</g>
<!-- Node9 -->
<g id="Node000009" class="node">
<title>Node9</title>
<g id="a_Node000009"><a xlink:href="kc_8cpp.html#aa04426b6994cdcfbbf77c3bb77e7a021" target="_top" xlink:title=" ">
<polygon fill="white" stroke="#666666" points="216.5,-918 116.5,-918 116.5,-899 216.5,-899 216.5,-918"/>
<text text-anchor="middle" x="166.5" y="-906" font-family="Helvetica" font-size="10.00">matrix_pcaComVar</text>
</a>
</g>
</g>
<!-- Node3&#45;&gt;Node9 -->
<g id="edge8_Node000003_Node000009" class="edge">
<title>Node3&#45;&gt;Node9</title>
<g id="a_edge8_Node000003_Node000009"><a xlink:title=" ">
<path fill="none" stroke="#63b8ff" d="M403.11,-1029.79C360.7,-1034.26 296.92,-1034.22 253,-1003.5 222.7,-982.31 243.96,-953.8 217,-928.5 212.4,-924.19 206.76,-920.75 200.94,-918.04"/>
<polygon fill="#63b8ff" stroke="#63b8ff" points="403.61,-1033.25 413.14,-1028.6 402.79,-1026.3 403.61,-1033.25"/>
</a>
</g>
</g>
<!-- Node4&#45;&gt;Node5 -->
<g id="edge4_Node000004_Node000005" class="edge">
<title>Node4&#45;&gt;Node5</title>
<g id="a_edge4_Node000004_Node000005"><a xlink:title=" ">
<path fill="none" stroke="#63b8ff" d="M147.46,-963.02C121.1,-987.16 72.88,-1031.31 51.59,-1050.81"/>
<polygon fill="#63b8ff" stroke="#63b8ff" points="149.87,-965.55 154.89,-956.22 145.15,-960.39 149.87,-965.55"/>
</a>
</g>
</g>
<!-- Node6&#45;&gt;Node7 -->
<g id="edge6_Node000006_Node000007" class="edge">
<title>Node6&#45;&gt;Node7</title>
<g id="a_edge6_Node000006_Node000007"><a xlink:title=" ">
<path fill="none" stroke="#63b8ff" d="M279.25,-998.96C251.53,-1014.22 208.61,-1037.86 184.84,-1050.95"/>
<polygon fill="#63b8ff" stroke="#63b8ff" points="280.95,-1002.02 288.02,-994.13 277.57,-995.88 280.95,-1002.02"/>
</a>
</g>
</g>
<!-- Node13 -->
<g id="Node000013" class="node">
<title>Node13</title>
<g id="a_Node000013"><a xlink:href="kc_8cpp.html#a0458e14ed6d01fb333ea0b2a06035d87" target="_top" xlink:title=" ">
<polygon fill="white" stroke="#666666" points="337.5,-766 275.5,-766 275.5,-747 337.5,-747 337.5,-766"/>
<text text-anchor="middle" x="306.5" y="-754" font-family="Helvetica" font-size="10.00">matrix_reg</text>
</a>
</g>
</g>
<!-- Node12&#45;&gt;Node13 -->
<g id="edge12_Node000012_Node000013" class="edge">
<title>Node12&#45;&gt;Node13</title>
<g id="a_edge12_Node000012_Node000013"><a xlink:title=" ">
<path fill="none" stroke="#63b8ff" d="M398.16,-744.2C378,-746.93 355.33,-750.01 337.7,-752.4"/>
<polygon fill="#63b8ff" stroke="#63b8ff" points="398.69,-747.66 408.13,-742.84 397.75,-740.72 398.69,-747.66"/>
</a>
</g>
</g>
<!-- Node12&#45;&gt;Node14 -->
<g id="edge13_Node000012_Node000014" class="edge">
<title>Node12&#45;&gt;Node14</title>
<g id="a_edge13_Node000012_Node000014"><a xlink:title=" ">
<path fill="none" stroke="#63b8ff" d="M423.6,-752.26C384.86,-774.11 307.23,-809.02 253,-775.5 192.86,-738.33 173.61,-644.63 168.84,-614.21"/>
<polygon fill="#63b8ff" stroke="#63b8ff" points="425.69,-755.1 432.57,-747.04 422.17,-749.05 425.69,-755.1"/>
</a>
</g>
</g>
<!-- Node12&#45;&gt;Node15 -->
<g id="edge14_Node000012_Node000015" class="edge">
<title>Node12&#45;&gt;Node15</title>
<g id="a_edge14_Node000012_Node000015"><a xlink:title=" ">
<path fill="none" stroke="#63b8ff" d="M428.77,-721.05C374.92,-673.73 220.78,-538.31 178.4,-501.08"/>
<polygon fill="#63b8ff" stroke="#63b8ff" points="426.7,-723.89 436.52,-727.86 431.32,-718.63 426.7,-723.89"/>
</a>
</g>
</g>
<!-- Node22 -->
<g id="Node000022" class="node">
<title>Node22</title>
<g id="a_Node000022"><a xlink:href="kc_8cpp.html#a32977ea97f5f917acfc83aec5817a0e0" target="_top" xlink:title=" ">
<polygon fill="white" stroke="#666666" points="351.5,-388 261.5,-388 261.5,-369 351.5,-369 351.5,-388"/>
<text text-anchor="middle" x="306.5" y="-376" font-family="Helvetica" font-size="10.00">matrix_pcaScore</text>
</a>
</g>
</g>
<!-- Node21&#45;&gt;Node22 -->
<g id="edge21_Node000021_Node000022" class="edge">
<title>Node21&#45;&gt;Node22</title>
<g id="a_edge21_Node000021_Node000022"><a xlink:title=" ">
<path fill="none" stroke="#63b8ff" d="M407.46,-515.03C403.22,-512.33 399.27,-509.18 396,-505.5 362.1,-467.38 395.87,-432.78 360,-396.5 356.61,-393.07 352.55,-390.3 348.19,-388.05"/>
<polygon fill="#63b8ff" stroke="#63b8ff" points="406,-518.22 416.45,-519.94 409.36,-512.07 406,-518.22"/>
</a>
</g>
</g>
<!-- Node26&#45;&gt;Node4 -->
<g id="edge28_Node000026_Node000004" class="edge">
<title>Node26&#45;&gt;Node4</title>
<g id="a_edge28_Node000026_Node000004"><a xlink:title=" ">
<path fill="none" stroke="#63b8ff" d="M430.52,-583.24C413.11,-600.25 385.11,-627.19 360,-649.5 313.76,-690.58 284.41,-685.21 253,-738.5 209.58,-812.17 271.84,-861.89 217,-927.5 213.81,-931.31 209.77,-934.36 205.37,-936.8"/>
<polygon fill="#63b8ff" stroke="#63b8ff" points="433.03,-585.67 437.72,-576.17 428.13,-580.68 433.03,-585.67"/>
</a>
</g>
</g>
<!-- Node26&#45;&gt;Node6 -->
<g id="edge29_Node000026_Node000006" class="edge">
<title>Node26&#45;&gt;Node6</title>
<g id="a_edge29_Node000026_Node000006"><a xlink:title=" ">
<path fill="none" stroke="#63b8ff" d="M440.02,-585.59C429.02,-614.27 408.45,-670.35 396,-719.5 372.97,-810.45 401.47,-843.34 360,-927.5 350.37,-947.05 331.9,-964.68 319.64,-975"/>
<polygon fill="#63b8ff" stroke="#63b8ff" points="443.38,-586.6 443.73,-576.01 436.85,-584.07 443.38,-586.6"/>
</a>
</g>
</g>
<!-- Node26&#45;&gt;Node9 -->
<g id="edge30_Node000026_Node000009" class="edge">
<title>Node26&#45;&gt;Node9</title>
<g id="a_edge30_Node000026_Node000009"><a xlink:title=" ">
<path fill="none" stroke="#63b8ff" d="M414.5,-579.94C365.24,-600.56 275.83,-640.36 253,-666.5 189.11,-739.67 172.03,-863.71 168.37,-898.92"/>
<polygon fill="#63b8ff" stroke="#63b8ff" points="415.89,-583.15 423.78,-576.08 413.2,-576.68 415.89,-583.15"/>
</a>
</g>
</g>
<!-- Node26&#45;&gt;Node13 -->
<g id="edge34_Node000026_Node000013" class="edge">
<title>Node26&#45;&gt;Node13</title>
<g id="a_edge34_Node000026_Node000013"><a xlink:title=" ">
<path fill="none" stroke="#63b8ff" d="M435.99,-584.57C419.77,-609.74 388.93,-656.53 360,-694.5 345.47,-713.57 327.08,-734.65 316.37,-746.67"/>
<polygon fill="#63b8ff" stroke="#63b8ff" points="439,-586.36 441.45,-576.05 433.11,-582.58 439,-586.36"/>
</a>
</g>
</g>
<!-- Node26&#45;&gt;Node14 -->
<g id="edge35_Node000026_Node000014" class="edge">
<title>Node26&#45;&gt;Node14</title>
<g id="a_edge35_Node000026_Node000014"><a xlink:title=" ">
<path fill="none" stroke="#63b8ff" d="M397.83,-572.08C358.49,-576.63 302.16,-583.45 253,-590.5 241.39,-592.17 228.91,-594.12 217.18,-596.02"/>
<polygon fill="#63b8ff" stroke="#63b8ff" points="398.42,-575.54 407.95,-570.92 397.62,-568.58 398.42,-575.54"/>
</a>
</g>
</g>
<!-- Node26&#45;&gt;Node15 -->
<g id="edge40_Node000026_Node000015" class="edge">
<title>Node26&#45;&gt;Node15</title>
<g id="a_edge40_Node000026_Node000015"><a xlink:title=" ">
<path fill="none" stroke="#63b8ff" d="M400.15,-551.8C398.7,-550.77 397.31,-549.67 396,-548.5 368.44,-523.85 391.29,-493.19 360,-473.5 305.88,-439.45 225.71,-466.04 188.23,-481.88"/>
<polygon fill="#63b8ff" stroke="#63b8ff" points="398.62,-554.95 409.03,-556.93 402.13,-548.89 398.62,-554.95"/>
</a>
</g>
</g>
<!-- Node26&#45;&gt;Node22 -->
<g id="edge31_Node000026_Node000022" class="edge">
<title>Node26&#45;&gt;Node22</title>
<g id="a_edge31_Node000026_Node000022"><a xlink:title=" ">
<path fill="none" stroke="#63b8ff" d="M399.31,-551.72C398.14,-550.71 397.03,-549.64 396,-548.5 349.52,-496.93 406.63,-447.93 360,-396.5 356.89,-393.07 353.11,-390.3 349,-388.05"/>
<polygon fill="#63b8ff" stroke="#63b8ff" points="397.54,-554.74 407.79,-557.4 401.43,-548.92 397.54,-554.74"/>
</a>
</g>
</g>
<!-- Node27 -->
<g id="Node000027" class="node">
<title>Node27</title>
<g id="a_Node000027"><a xlink:href="kc_8cpp.html#a00f5b59ec000eae7a009cd437008050d" target="_top" xlink:title=" ">
<polygon fill="white" stroke="#666666" points="349.5,-425 263.5,-425 263.5,-406 349.5,-406 349.5,-425"/>
<text text-anchor="middle" x="306.5" y="-413" font-family="Helvetica" font-size="10.00">matrix_product3</text>
</a>
</g>
</g>
<!-- Node26&#45;&gt;Node27 -->
<g id="edge32_Node000026_Node000027" class="edge">
<title>Node26&#45;&gt;Node27</title>
<g id="a_edge32_Node000026_Node000027"><a xlink:title=" ">
<path fill="none" stroke="#63b8ff" d="M399.37,-551.54C398.18,-550.59 397.06,-549.58 396,-548.5 360.24,-512.11 394.04,-477.5 360,-439.5 354.45,-433.3 346.98,-428.6 339.42,-425.08"/>
<polygon fill="#63b8ff" stroke="#63b8ff" points="397.53,-554.52 407.83,-556.99 401.31,-548.63 397.53,-554.52"/>
</a>
</g>
</g>
<!-- Node28 -->
<g id="Node000028" class="node">
<title>Node28</title>
<g id="a_Node000028"><a xlink:href="kc_8cpp.html#acf18fe54721a1ca7a61f70f4fdc637e3" target="_top" xlink:title=" ">
<polygon fill="white" stroke="#666666" points="360,-501 253,-501 253,-482 360,-482 360,-501"/>
<text text-anchor="middle" x="306.5" y="-489" font-family="Helvetica" font-size="10.00">matrix_regModelStat</text>
</a>
</g>
</g>
<!-- Node26&#45;&gt;Node28 -->
<g id="edge36_Node000026_Node000028" class="edge">
<title>Node26&#45;&gt;Node28</title>
<g id="a_edge36_Node000026_Node000028"><a xlink:title=" ">
<path fill="none" stroke="#63b8ff" d="M403.66,-552.85C401,-551.52 398.42,-550.07 396,-548.5 376.47,-535.86 379.46,-523.25 360,-510.5 354.24,-506.73 347.64,-503.59 341.11,-501.02"/>
<polygon fill="#63b8ff" stroke="#63b8ff" points="402.35,-556.1 412.91,-556.98 405.2,-549.71 402.35,-556.1"/>
</a>
</g>
</g>
<!-- Node29 -->
<g id="Node000029" class="node">
<title>Node29</title>
<g id="a_Node000029"><a xlink:href="kc_8cpp.html#ad57651ec26e71d842d15f65ae9484098" target="_top" xlink:title=" ">
<polygon fill="white" stroke="#666666" points="348.5,-538 264.5,-538 264.5,-519 348.5,-519 348.5,-538"/>
<text text-anchor="middle" x="306.5" y="-526" font-family="Helvetica" font-size="10.00">matrix_regMSE</text>
</a>
</g>
</g>
<!-- Node26&#45;&gt;Node29 -->
<g id="edge37_Node000026_Node000029" class="edge">
<title>Node26&#45;&gt;Node29</title>
<g id="a_edge37_Node000026_Node000029"><a xlink:title=" ">
<path fill="none" stroke="#63b8ff" d="M402.38,-554.25C383.09,-549.02 360.89,-542.99 342.82,-538.09"/>
<polygon fill="#63b8ff" stroke="#63b8ff" points="401.6,-557.67 412.17,-556.91 403.44,-550.91 401.6,-557.67"/>
</a>
</g>
</g>
<!-- Node27&#45;&gt;Node15 -->
<g id="edge33_Node000027_Node000015" class="edge">
<title>Node27&#45;&gt;Node15</title>
<g id="a_edge33_Node000027_Node000015"><a xlink:title=" ">
<path fill="none" stroke="#63b8ff" d="M273.82,-429.25C266.88,-432.47 259.63,-435.98 253,-439.5 227.37,-453.09 198.79,-471.08 182.02,-481.94"/>
<polygon fill="#63b8ff" stroke="#63b8ff" points="275.34,-432.41 282.99,-425.09 272.44,-426.04 275.34,-432.41"/>
</a>
</g>
</g>
<!-- Node29&#45;&gt;Node14 -->
<g id="edge38_Node000029_Node000014" class="edge">
<title>Node29&#45;&gt;Node14</title>
<g id="a_edge38_Node000029_Node000014"><a xlink:title=" ">
<path fill="none" stroke="#63b8ff" d="M273.82,-542.25C266.88,-545.47 259.63,-548.98 253,-552.5 227.37,-566.09 198.79,-584.08 182.02,-594.94"/>
<polygon fill="#63b8ff" stroke="#63b8ff" points="275.34,-545.41 282.99,-538.09 272.44,-539.04 275.34,-545.41"/>
</a>
</g>
</g>
<!-- Node29&#45;&gt;Node15 -->
<g id="edge39_Node000029_Node000015" class="edge">
<title>Node29&#45;&gt;Node15</title>
<g id="a_edge39_Node000029_Node000015"><a xlink:title=" ">
<path fill="none" stroke="#63b8ff" d="M260.29,-516.38C241.83,-511.43 220.78,-505.78 203.4,-501.12"/>
<polygon fill="#63b8ff" stroke="#63b8ff" points="259.4,-519.76 269.96,-518.97 261.21,-513 259.4,-519.76"/>
</a>
</g>
</g>
<!-- Node30&#45;&gt;Node4 -->
<g id="edge44_Node000030_Node000004" class="edge">
<title>Node30&#45;&gt;Node4</title>
<g id="a_edge44_Node000030_Node000004"><a xlink:title=" ">
<path fill="none" stroke="#63b8ff" d="M428.64,-886.67C411.83,-900.09 385.93,-918.39 360,-927.5 311.05,-944.7 251.07,-948.06 211.2,-948.02"/>
<polygon fill="#63b8ff" stroke="#63b8ff" points="431.05,-889.22 436.56,-880.17 426.61,-883.81 431.05,-889.22"/>
</a>
</g>
</g>
<!-- Node30&#45;&gt;Node6 -->
<g id="edge45_Node000030_Node000006" class="edge">
<title>Node30&#45;&gt;Node6</title>
<g id="a_edge45_Node000030_Node000006"><a xlink:title=" ">
<path fill="none" stroke="#63b8ff" d="M433.98,-887.88C418,-907.52 389.79,-939.5 360,-960.5 351.89,-966.22 342.2,-971.1 333.37,-974.94"/>
<polygon fill="#63b8ff" stroke="#63b8ff" points="436.74,-890.04 440.24,-880.04 431.26,-885.67 436.74,-890.04"/>
</a>
</g>
</g>
<!-- Node30&#45;&gt;Node13 -->
<g id="edge46_Node000030_Node000013" class="edge">
<title>Node30&#45;&gt;Node13</title>
<g id="a_edge46_Node000030_Node000013"><a xlink:title=" ">
<path fill="none" stroke="#63b8ff" d="M433.98,-853.12C418,-833.48 389.79,-801.5 360,-780.5 351.89,-774.78 342.2,-769.9 333.37,-766.06"/>
<polygon fill="#63b8ff" stroke="#63b8ff" points="431.26,-855.33 440.24,-860.96 436.74,-850.96 431.26,-855.33"/>
</a>
</g>
</g>
<!-- Node30&#45;&gt;Node14 -->
<g id="edge47_Node000030_Node000014" class="edge">
<title>Node30&#45;&gt;Node14</title>
<g id="a_edge47_Node000030_Node000014"><a xlink:title=" ">
<path fill="none" stroke="#63b8ff" d="M392.51,-861.15C349.79,-851.34 291.53,-832.05 253,-795.5 196.85,-742.25 174.95,-645.39 169.17,-614.35"/>
<polygon fill="#63b8ff" stroke="#63b8ff" points="391.95,-864.61 402.46,-863.33 393.44,-857.77 391.95,-864.61"/>
</a>
</g>
</g>
<!-- Node30&#45;&gt;Node15 -->
<g id="edge48_Node000030_Node000015" class="edge">
<title>Node30&#45;&gt;Node15</title>
<g id="a_edge48_Node000030_Node000015"><a xlink:title=" ">
<path fill="none" stroke="#63b8ff" d="M428.34,-854.19C411.33,-840.41 385.31,-820.97 360,-808.5 315.36,-786.5 286.18,-812.59 253,-775.5 195.98,-711.78 245.06,-667.28 217,-586.5 205.53,-553.47 184.21,-517.72 173.69,-501.06"/>
<polygon fill="#63b8ff" stroke="#63b8ff" points="426.42,-857.15 436.36,-860.82 430.88,-851.75 426.42,-857.15"/>
</a>
</g>
</g>
<!-- Node31 -->
<g id="Node000031" class="node">
<title>Node31</title>
<g id="a_Node000031"><a xlink:href="kc_8cpp.html#aa824316c0d7768e230ae809a3e679a66" target="_top" xlink:title=" ">
<polygon fill="white" stroke="#666666" points="345,-918 268,-918 268,-899 345,-899 345,-918"/>
<text text-anchor="middle" x="306.5" y="-906" font-family="Helvetica" font-size="10.00">matrix_stdCol</text>
</a>
</g>
</g>
<!-- Node30&#45;&gt;Node31 -->
<g id="edge49_Node000030_Node000031" class="edge">
<title>Node30&#45;&gt;Node31</title>
<g id="a_edge49_Node000030_Node000031"><a xlink:title=" ">
<path fill="none" stroke="#63b8ff" d="M402.38,-882.75C383.09,-887.98 360.89,-894.01 342.82,-898.91"/>
<polygon fill="#63b8ff" stroke="#63b8ff" points="403.44,-886.09 412.17,-880.09 401.6,-879.33 403.44,-886.09"/>
</a>
</g>
</g>
<!-- Node31&#45;&gt;Node4 -->
<g id="edge50_Node000031_Node000004" class="edge">
<title>Node31&#45;&gt;Node4</title>
<g id="a_edge50_Node000031_Node000004"><a xlink:title=" ">
<path fill="none" stroke="#63b8ff" d="M261.03,-920.75C242.01,-925.98 220.12,-932.01 202.31,-936.91"/>
<polygon fill="#63b8ff" stroke="#63b8ff" points="261.96,-924.12 270.68,-918.09 260.11,-917.37 261.96,-924.12"/>
</a>
</g>
</g>
<!-- Node31&#45;&gt;Node9 -->
<g id="edge51_Node000031_Node000009" class="edge">
<title>Node31&#45;&gt;Node9</title>
<g id="a_edge51_Node000031_Node000009"><a xlink:title=" ">
<path fill="none" stroke="#63b8ff" d="M257.46,-908.5C244.23,-908.5 229.86,-908.5 216.57,-908.5"/>
<polygon fill="#63b8ff" stroke="#63b8ff" points="257.79,-912 267.79,-908.5 257.79,-905 257.79,-912"/>
</a>
</g>
</g>
</g>
</svg>
