<?xml version="1.0" encoding="UTF-8" standalone="no"?>
<!DOCTYPE svg PUBLIC "-//W3C//DTD SVG 1.1//EN"
 "http://www.w3.org/Graphics/SVG/1.1/DTD/svg11.dtd">
<!-- Generated by graphviz version 2.44.0 (0)
 -->
<!-- Title: matrix_pcaCov Pages: 1 -->
<svg width="464pt" height="381pt"
 viewBox="0.00 0.00 464.00 380.98" xmlns="http://www.w3.org/2000/svg" xmlns:xlink="http://www.w3.org/1999/xlink">
<g id="graph0" class="graph" transform="scale(1 1) rotate(0) translate(4 376.98)">
<title>matrix_pcaCov</title>
<!-- Node1 -->
<g id="Node000001" class="node">
<title>Node1</title>
<g id="a_Node000001"><a xlink:title=" ">
<polygon fill="#999999" stroke="#666666" points="83,-224 0,-224 0,-205 83,-205 83,-224"/>
<text text-anchor="middle" x="41.5" y="-212" font-family="Helvetica" font-size="10.00">matrix_pcaCov</text>
</a>
</g>
</g>
<!-- Node2 -->
<g id="Node000002" class="node">
<title>Node2</title>
<g id="a_Node000002"><a xlink:href="kc_8cpp.html#a865598a7017730b2bdf24cf6269d0f23" target="_top" xlink:title=" ">
<polygon fill="white" stroke="#666666" points="350,-243 264,-243 264,-224 350,-224 350,-243"/>
<text text-anchor="middle" x="307" y="-231" font-family="Helvetica" font-size="10.00">matrix_colMean</text>
</a>
</g>
</g>
<!-- Node1&#45;&gt;Node2 -->
<g id="edge1_Node000001_Node000002" class="edge">
<title>Node1&#45;&gt;Node2</title>
<g id="a_edge1_Node000001_Node000002"><a xlink:title=" ">
<path fill="none" stroke="#63b8ff" d="M83.09,-217.43C128.88,-220.73 203.47,-226.11 253.61,-229.72"/>
<polygon fill="#63b8ff" stroke="#63b8ff" points="253.39,-233.22 263.61,-230.44 253.89,-226.23 253.39,-233.22"/>
</a>
</g>
</g>
<!-- Node4 -->
<g id="Node000004" class="node">
<title>Node4</title>
<g id="a_Node000004"><a xlink:href="kc_8cpp.html#afc00baa57142e5db16101ade3200eea8" target="_top" xlink:title=" ">
<polygon fill="white" stroke="#666666" points="455,-338 390,-338 390,-319 455,-319 455,-338"/>
<text text-anchor="middle" x="422.5" y="-326" font-family="Helvetica" font-size="10.00">vector_free</text>
</a>
</g>
</g>
<!-- Node1&#45;&gt;Node4 -->
<g id="edge23_Node000001_Node000004" class="edge">
<title>Node1&#45;&gt;Node4</title>
<g id="a_edge23_Node000001_Node000004"><a xlink:title=" ">
<path fill="none" stroke="#63b8ff" d="M46.91,-224.28C56.78,-245.1 82.68,-294.05 119,-320.5 172.63,-359.56 195.47,-356.15 261,-366.5 301.39,-372.88 313.42,-376.74 353,-366.5 369.95,-362.11 387.18,-352.53 400.12,-344.08"/>
<polygon fill="#63b8ff" stroke="#63b8ff" points="402.42,-346.75 408.71,-338.22 398.48,-340.96 402.42,-346.75"/>
</a>
</g>
</g>
<!-- Node5 -->
<g id="Node000005" class="node">
<title>Node5</title>
<g id="a_Node000005"><a xlink:href="kc_8cpp.html#a155bb2cc033bfd9bafbde8d31432f7ad" target="_top" xlink:title=" ">
<polygon fill="white" stroke="#666666" points="455.5,-281 389.5,-281 389.5,-262 455.5,-262 455.5,-281"/>
<text text-anchor="middle" x="422.5" y="-269" font-family="Helvetica" font-size="10.00">vector_new</text>
</a>
</g>
</g>
<!-- Node1&#45;&gt;Node5 -->
<g id="edge24_Node000001_Node000005" class="edge">
<title>Node1&#45;&gt;Node5</title>
<g id="a_edge24_Node000001_Node000005"><a xlink:title=" ">
<path fill="none" stroke="#63b8ff" d="M68.37,-224C83.03,-229.04 101.83,-234.91 119,-238.5 210.71,-257.69 320.53,-266.13 379.36,-269.5"/>
<polygon fill="#63b8ff" stroke="#63b8ff" points="379.21,-273 389.39,-270.06 379.59,-266.01 379.21,-273"/>
</a>
</g>
</g>
<!-- Node6 -->
<g id="Node000006" class="node">
<title>Node6</title>
<g id="a_Node000006"><a xlink:href="kc_8cpp.html#aa51dbc9f02003e376630381db9eab42c" target="_top" xlink:title=" ">
<polygon fill="white" stroke="#666666" points="218,-167 126,-167 126,-148 218,-148 218,-167"/>
<text text-anchor="middle" x="172" y="-155" font-family="Helvetica" font-size="10.00">matrix_covMatrix</text>
</a>
</g>
</g>
<!-- Node1&#45;&gt;Node6 -->
<g id="edge5_Node000001_Node000006" class="edge">
<title>Node1&#45;&gt;Node6</title>
<g id="a_edge5_Node000001_Node000006"><a xlink:title=" ">
<path fill="none" stroke="#63b8ff" d="M64.01,-204.96C84.86,-195.71 116.69,-181.59 140.22,-171.15"/>
<polygon fill="#63b8ff" stroke="#63b8ff" points="141.7,-174.33 149.42,-167.07 138.86,-167.93 141.7,-174.33"/>
</a>
</g>
</g>
<!-- Node8 -->
<g id="Node000008" class="node">
<title>Node8</title>
<g id="a_Node000008"><a xlink:href="kc_8cpp.html#ac75528b11a2997977101b6e9ded2c7cf" target="_top" xlink:title=" ">
<polygon fill="white" stroke="#666666" points="456,-148 389,-148 389,-129 456,-129 456,-148"/>
<text text-anchor="middle" x="422.5" y="-136" font-family="Helvetica" font-size="10.00">matrix_new</text>
</a>
</g>
</g>
<!-- Node1&#45;&gt;Node8 -->
<g id="edge21_Node000001_Node000008" class="edge">
<title>Node1&#45;&gt;Node8</title>
<g id="a_edge21_Node000001_Node000008"><a xlink:title=" ">
<path fill="none" stroke="#63b8ff" d="M83.22,-214.13C143.56,-212.54 259.61,-205.42 353,-175.5 369.16,-170.32 385.94,-161.33 398.85,-153.5"/>
<polygon fill="#63b8ff" stroke="#63b8ff" points="400.88,-156.36 407.5,-148.08 397.17,-150.42 400.88,-156.36"/>
</a>
</g>
</g>
<!-- Node9 -->
<g id="Node000009" class="node">
<title>Node9</title>
<g id="a_Node000009"><a xlink:href="kc_8cpp.html#aa517f6dc1cd623e0f2fdc5f0f9ab8534" target="_top" xlink:title=" ">
<polygon fill="white" stroke="#666666" points="339.5,-19 274.5,-19 274.5,0 339.5,0 339.5,-19"/>
<text text-anchor="middle" x="307" y="-7" font-family="Helvetica" font-size="10.00">matrix_free</text>
</a>
</g>
</g>
<!-- Node1&#45;&gt;Node9 -->
<g id="edge20_Node000001_Node000009" class="edge">
<title>Node1&#45;&gt;Node9</title>
<g id="a_edge20_Node000001_Node000009"><a xlink:title=" ">
<path fill="none" stroke="#63b8ff" d="M49.94,-204.76C62.56,-188.85 89.63,-157.21 119,-138.5 161.33,-111.52 187.59,-132.97 225,-99.5 251.66,-75.65 234.67,-51.73 261,-27.5 262.32,-26.29 263.73,-25.15 265.21,-24.09"/>
<polygon fill="#63b8ff" stroke="#63b8ff" points="267.41,-26.85 274.25,-18.76 263.86,-20.82 267.41,-26.85"/>
</a>
</g>
</g>
<!-- Node14 -->
<g id="Node000014" class="node">
<title>Node14</title>
<g id="a_Node000014"><a xlink:href="kc_8cpp.html#a68b4f000503d404e2dcd3b4cdbae952f" target="_top" xlink:title=" ">
<polygon fill="white" stroke="#666666" points="343,-357 271,-357 271,-338 343,-338 343,-357"/>
<text text-anchor="middle" x="307" y="-345" font-family="Helvetica" font-size="10.00">matrix_eigen</text>
</a>
</g>
</g>
<!-- Node1&#45;&gt;Node14 -->
<g id="edge17_Node000001_Node000014" class="edge">
<title>Node1&#45;&gt;Node14</title>
<g id="a_edge17_Node000001_Node000014"><a xlink:title=" ">
<path fill="none" stroke="#63b8ff" d="M50.44,-224.16C63.34,-239.27 90.3,-268.53 119,-285.5 163.82,-312.01 221.47,-328.92 260.84,-338.27"/>
<polygon fill="#63b8ff" stroke="#63b8ff" points="260.15,-341.7 270.68,-340.54 261.72,-334.88 260.15,-341.7"/>
</a>
</g>
</g>
<!-- Node15 -->
<g id="Node000015" class="node">
<title>Node15</title>
<g id="a_Node000015"><a xlink:href="kc_8cpp.html#a6f44909f9dcb95b38fe728721b011fca" target="_top" xlink:title=" ">
<polygon fill="white" stroke="#666666" points="225,-91 119,-91 119,-72 225,-72 225,-91"/>
<text text-anchor="middle" x="172" y="-79" font-family="Helvetica" font-size="10.00">matrix_sortByVector</text>
</a>
</g>
</g>
<!-- Node1&#45;&gt;Node15 -->
<g id="edge22_Node000001_Node000015" class="edge">
<title>Node1&#45;&gt;Node15</title>
<g id="a_edge22_Node000001_Node000015"><a xlink:title=" ">
<path fill="none" stroke="#63b8ff" d="M47.09,-204.77C57.31,-184 83.86,-134.84 119,-105.5 123.55,-101.7 128.79,-98.37 134.17,-95.5"/>
<polygon fill="#63b8ff" stroke="#63b8ff" points="135.77,-98.61 143.24,-91.09 132.71,-92.32 135.77,-98.61"/>
</a>
</g>
</g>
<!-- Node3 -->
<g id="Node000003" class="node">
<title>Node3</title>
<g id="a_Node000003"><a xlink:href="kc_8cpp.html#ab01d6eb051febfe28b8ac2987dcfe524" target="_top" xlink:title=" ">
<polygon fill="white" stroke="#666666" points="443,-243 402,-243 402,-224 443,-224 443,-243"/>
<text text-anchor="middle" x="422.5" y="-231" font-family="Helvetica" font-size="10.00">mean</text>
</a>
</g>
</g>
<!-- Node2&#45;&gt;Node3 -->
<g id="edge2_Node000002_Node000003" class="edge">
<title>Node2&#45;&gt;Node3</title>
<g id="a_edge2_Node000002_Node000003"><a xlink:title=" ">
<path fill="none" stroke="#63b8ff" d="M350.26,-233.5C364.05,-233.5 379.06,-233.5 391.73,-233.5"/>
<polygon fill="#63b8ff" stroke="#63b8ff" points="391.75,-237 401.75,-233.5 391.75,-230 391.75,-237"/>
</a>
</g>
</g>
<!-- Node2&#45;&gt;Node4 -->
<g id="edge3_Node000002_Node000004" class="edge">
<title>Node2&#45;&gt;Node4</title>
<g id="a_edge3_Node000002_Node000004"><a xlink:title=" ">
<path fill="none" stroke="#63b8ff" d="M319.72,-243.31C339.19,-259.61 378.4,-292.43 402.06,-312.23"/>
<polygon fill="#63b8ff" stroke="#63b8ff" points="400.1,-315.15 410.01,-318.89 404.59,-309.78 400.1,-315.15"/>
</a>
</g>
</g>
<!-- Node2&#45;&gt;Node5 -->
<g id="edge4_Node000002_Node000005" class="edge">
<title>Node2&#45;&gt;Node5</title>
<g id="a_edge4_Node000002_Node000005"><a xlink:title=" ">
<path fill="none" stroke="#63b8ff" d="M336.64,-243.09C350.75,-247.81 367.97,-253.58 383.2,-258.68"/>
<polygon fill="#63b8ff" stroke="#63b8ff" points="382.27,-262.06 392.87,-261.91 384.5,-255.42 382.27,-262.06"/>
</a>
</g>
</g>
<!-- Node6&#45;&gt;Node2 -->
<g id="edge6_Node000006_Node000002" class="edge">
<title>Node6&#45;&gt;Node2</title>
<g id="a_edge6_Node000006_Node000002"><a xlink:title=" ">
<path fill="none" stroke="#63b8ff" d="M189.84,-167.13C212.73,-180.2 253.84,-203.7 280.51,-218.94"/>
<polygon fill="#63b8ff" stroke="#63b8ff" points="278.87,-222.03 289.29,-223.95 282.35,-215.95 278.87,-222.03"/>
</a>
</g>
</g>
<!-- Node6&#45;&gt;Node4 -->
<g id="edge16_Node000006_Node000004" class="edge">
<title>Node6&#45;&gt;Node4</title>
<g id="a_edge16_Node000006_Node000004"><a xlink:title=" ">
<path fill="none" stroke="#63b8ff" d="M180.04,-167.14C193.86,-185.51 226.21,-225.98 261,-251.5 299.67,-279.86 350.44,-302.14 384.42,-315.28"/>
<polygon fill="#63b8ff" stroke="#63b8ff" points="383.38,-318.62 393.97,-318.9 385.86,-312.08 383.38,-318.62"/>
</a>
</g>
</g>
<!-- Node7 -->
<g id="Node000007" class="node">
<title>Node7</title>
<g id="a_Node000007"><a xlink:href="kc_8cpp.html#a487b6171c617a9bdb3b3337dab2fc046" target="_top" xlink:title=" ">
<polygon fill="white" stroke="#666666" points="342,-130 272,-130 272,-111 342,-111 342,-130"/>
<text text-anchor="middle" x="307" y="-118" font-family="Helvetica" font-size="10.00">matrix_copy</text>
</a>
</g>
</g>
<!-- Node6&#45;&gt;Node7 -->
<g id="edge7_Node000006_Node000007" class="edge">
<title>Node6&#45;&gt;Node7</title>
<g id="a_edge7_Node000006_Node000007"><a xlink:title=" ">
<path fill="none" stroke="#63b8ff" d="M207.25,-147.97C223.85,-143.35 243.99,-137.75 261.74,-132.81"/>
<polygon fill="#63b8ff" stroke="#63b8ff" points="263.17,-136.05 271.87,-130 261.29,-129.3 263.17,-136.05"/>
</a>
</g>
</g>
<!-- Node6&#45;&gt;Node9 -->
<g id="edge9_Node000006_Node000009" class="edge">
<title>Node6&#45;&gt;Node9</title>
<g id="a_edge9_Node000006_Node000009"><a xlink:title=" ">
<path fill="none" stroke="#63b8ff" d="M204.31,-147.96C211.89,-144.43 219.41,-139.71 225,-133.5 258.29,-96.52 226.77,-63.6 261,-27.5 262.39,-26.03 263.91,-24.69 265.54,-23.44"/>
<polygon fill="#63b8ff" stroke="#63b8ff" points="267.58,-26.3 274.28,-18.09 263.93,-20.33 267.58,-26.3"/>
</a>
</g>
</g>
<!-- Node10 -->
<g id="Node000010" class="node">
<title>Node10</title>
<g id="a_Node000010"><a xlink:href="kc_8cpp.html#a434b0afbcca14a331a887ef5f456cef9" target="_top" xlink:title=" ">
<polygon fill="white" stroke="#666666" points="348.5,-56 265.5,-56 265.5,-37 348.5,-37 348.5,-56"/>
<text text-anchor="middle" x="307" y="-44" font-family="Helvetica" font-size="10.00">matrix_multiply</text>
</a>
</g>
</g>
<!-- Node6&#45;&gt;Node10 -->
<g id="edge10_Node000006_Node000010" class="edge">
<title>Node6&#45;&gt;Node10</title>
<g id="a_edge10_Node000006_Node000010"><a xlink:title=" ">
<path fill="none" stroke="#63b8ff" d="M202.34,-147.98C210.36,-144.36 218.59,-139.6 225,-133.5 250.04,-109.64 235.35,-87.7 261,-64.5 262.29,-63.34 263.66,-62.24 265.09,-61.22"/>
<polygon fill="#63b8ff" stroke="#63b8ff" points="267.02,-64.15 273.84,-56.04 263.45,-58.12 267.02,-64.15"/>
</a>
</g>
</g>
<!-- Node11 -->
<g id="Node000011" class="node">
<title>Node11</title>
<g id="a_Node000011"><a xlink:href="kc_8cpp.html#aef4d42f4197a1db7f6667dc7ea67956b" target="_top" xlink:title=" ">
<polygon fill="white" stroke="#666666" points="347.5,-93 266.5,-93 266.5,-74 347.5,-74 347.5,-93"/>
<text text-anchor="middle" x="307" y="-81" font-family="Helvetica" font-size="10.00">matrix_product</text>
</a>
</g>
</g>
<!-- Node6&#45;&gt;Node11 -->
<g id="edge11_Node000006_Node000011" class="edge">
<title>Node6&#45;&gt;Node11</title>
<g id="a_edge11_Node000006_Node000011"><a xlink:title=" ">
<path fill="none" stroke="#63b8ff" d="M197.6,-147.92C206.54,-143.99 216.51,-139.05 225,-133.5 242.91,-121.78 242.79,-112.75 261,-101.5 263.34,-100.06 265.81,-98.69 268.34,-97.4"/>
<polygon fill="#63b8ff" stroke="#63b8ff" points="270.05,-100.46 277.66,-93.09 267.12,-94.11 270.05,-100.46"/>
</a>
</g>
</g>
<!-- Node13 -->
<g id="Node000013" class="node">
<title>Node13</title>
<g id="a_Node000013"><a xlink:href="kc_8cpp.html#a89a2987a60a852f56603492790999aba" target="_top" xlink:title=" ">
<polygon fill="white" stroke="#666666" points="353,-167 261,-167 261,-148 353,-148 353,-167"/>
<text text-anchor="middle" x="307" y="-155" font-family="Helvetica" font-size="10.00">matrix_transpose</text>
</a>
</g>
</g>
<!-- Node6&#45;&gt;Node13 -->
<g id="edge14_Node000006_Node000013" class="edge">
<title>Node6&#45;&gt;Node13</title>
<g id="a_edge14_Node000006_Node000013"><a xlink:title=" ">
<path fill="none" stroke="#63b8ff" d="M218.03,-157.5C228.42,-157.5 239.6,-157.5 250.38,-157.5"/>
<polygon fill="#63b8ff" stroke="#63b8ff" points="250.57,-161 260.57,-157.5 250.57,-154 250.57,-161"/>
</a>
</g>
</g>
<!-- Node7&#45;&gt;Node8 -->
<g id="edge8_Node000007_Node000008" class="edge">
<title>Node7&#45;&gt;Node8</title>
<g id="a_edge8_Node000007_Node000008"><a xlink:title=" ">
<path fill="none" stroke="#63b8ff" d="M342.05,-125.9C353.58,-127.73 366.61,-129.79 378.73,-131.72"/>
<polygon fill="#63b8ff" stroke="#63b8ff" points="378.22,-135.18 388.64,-133.29 379.31,-128.27 378.22,-135.18"/>
</a>
</g>
</g>
<!-- Node11&#45;&gt;Node8 -->
<g id="edge12_Node000011_Node000008" class="edge">
<title>Node11&#45;&gt;Node8</title>
<g id="a_edge12_Node000011_Node000008"><a xlink:title=" ">
<path fill="none" stroke="#63b8ff" d="M333.45,-93.09C339.89,-95.68 346.75,-98.57 353,-101.5 367.68,-108.37 383.63,-116.92 396.45,-124.07"/>
<polygon fill="#63b8ff" stroke="#63b8ff" points="394.73,-127.12 405.16,-128.99 398.17,-121.03 394.73,-127.12"/>
</a>
</g>
</g>
<!-- Node12 -->
<g id="Node000012" class="node">
<title>Node12</title>
<g id="a_Node000012"><a xlink:href="kc_8cpp.html#adbdc6116401c49523c4c62dde6147310" target="_top" xlink:title=" ">
<polygon fill="white" stroke="#666666" points="456,-93 389,-93 389,-74 456,-74 456,-93"/>
<text text-anchor="middle" x="422.5" y="-81" font-family="Helvetica" font-size="10.00">matrix_zero</text>
</a>
</g>
</g>
<!-- Node11&#45;&gt;Node12 -->
<g id="edge13_Node000011_Node000012" class="edge">
<title>Node11&#45;&gt;Node12</title>
<g id="a_edge13_Node000011_Node000012"><a xlink:title=" ">
<path fill="none" stroke="#63b8ff" d="M347.7,-83.5C357.66,-83.5 368.4,-83.5 378.51,-83.5"/>
<polygon fill="#63b8ff" stroke="#63b8ff" points="378.77,-87 388.77,-83.5 378.77,-80 378.77,-87"/>
</a>
</g>
</g>
<!-- Node13&#45;&gt;Node8 -->
<g id="edge15_Node000013_Node000008" class="edge">
<title>Node13&#45;&gt;Node8</title>
<g id="a_edge15_Node000013_Node000008"><a xlink:title=" ">
<path fill="none" stroke="#63b8ff" d="M353.18,-149.94C361.62,-148.52 370.42,-147.05 378.78,-145.65"/>
<polygon fill="#63b8ff" stroke="#63b8ff" points="379.42,-149.09 388.71,-143.99 378.27,-142.19 379.42,-149.09"/>
</a>
</g>
</g>
<!-- Node14&#45;&gt;Node4 -->
<g id="edge18_Node000014_Node000004" class="edge">
<title>Node14&#45;&gt;Node4</title>
<g id="a_edge18_Node000014_Node000004"><a xlink:title=" ">
<path fill="none" stroke="#63b8ff" d="M343.29,-341.59C354.77,-339.67 367.61,-337.52 379.53,-335.53"/>
<polygon fill="#63b8ff" stroke="#63b8ff" points="380.42,-338.93 389.7,-333.82 379.26,-332.02 380.42,-338.93"/>
</a>
</g>
</g>
<!-- Node14&#45;&gt;Node5 -->
<g id="edge19_Node000014_Node000005" class="edge">
<title>Node14&#45;&gt;Node5</title>
<g id="a_edge19_Node000014_Node000005"><a xlink:title=" ">
<path fill="none" stroke="#63b8ff" d="M322.37,-337.87C341.65,-324.97 376.07,-301.92 398.85,-286.67"/>
<polygon fill="#63b8ff" stroke="#63b8ff" points="400.88,-289.52 407.24,-281.05 396.99,-283.7 400.88,-289.52"/>
</a>
</g>
</g>
</g>
</svg>
