<?xml version="1.0" encoding="UTF-8" standalone="no"?>
<!DOCTYPE svg PUBLIC "-//W3C//DTD SVG 1.1//EN"
 "http://www.w3.org/Graphics/SVG/1.1/DTD/svg11.dtd">
<!-- Generated by graphviz version 2.44.0 (0)
 -->
<!-- Title: matrix_colMean Pages: 1 -->
<svg width="196pt" height="101pt"
 viewBox="0.00 0.00 196.00 101.00" xmlns="http://www.w3.org/2000/svg" xmlns:xlink="http://www.w3.org/1999/xlink">
<g id="graph0" class="graph" transform="scale(1 1) rotate(0) translate(4 97)">
<title>matrix_colMean</title>
<!-- Node1 -->
<g id="Node000001" class="node">
<title>Node1</title>
<g id="a_Node000001"><a xlink:title=" ">
<polygon fill="#999999" stroke="#666666" points="86,-56 0,-56 0,-37 86,-37 86,-56"/>
<text text-anchor="middle" x="43" y="-44" font-family="Helvetica" font-size="10.00">matrix_colMean</text>
</a>
</g>
</g>
<!-- Node2 -->
<g id="Node000002" class="node">
<title>Node2</title>
<g id="a_Node000002"><a xlink:href="kc_8cpp.html#ab01d6eb051febfe28b8ac2987dcfe524" target="_top" xlink:title=" ">
<polygon fill="white" stroke="#666666" points="175.5,-93 134.5,-93 134.5,-74 175.5,-74 175.5,-93"/>
<text text-anchor="middle" x="155" y="-81" font-family="Helvetica" font-size="10.00">mean</text>
</a>
</g>
</g>
<!-- Node1&#45;&gt;Node2 -->
<g id="edge1_Node000001_Node000002" class="edge">
<title>Node1&#45;&gt;Node2</title>
<g id="a_edge1_Node000001_Node000002"><a xlink:title=" ">
<path fill="none" stroke="#63b8ff" d="M72.33,-56.03C88.46,-61.45 108.63,-68.24 124.89,-73.71"/>
<polygon fill="#63b8ff" stroke="#63b8ff" points="123.84,-77.05 134.44,-76.92 126.07,-70.41 123.84,-77.05"/>
</a>
</g>
</g>
<!-- Node3 -->
<g id="Node000003" class="node">
<title>Node3</title>
<g id="a_Node000003"><a xlink:href="kc_8cpp.html#afc00baa57142e5db16101ade3200eea8" target="_top" xlink:title=" ">
<polygon fill="white" stroke="#666666" points="187.5,-56 122.5,-56 122.5,-37 187.5,-37 187.5,-56"/>
<text text-anchor="middle" x="155" y="-44" font-family="Helvetica" font-size="10.00">vector_free</text>
</a>
</g>
</g>
<!-- Node1&#45;&gt;Node3 -->
<g id="edge2_Node000001_Node000003" class="edge">
<title>Node1&#45;&gt;Node3</title>
<g id="a_edge2_Node000001_Node000003"><a xlink:title=" ">
<path fill="none" stroke="#63b8ff" d="M86.21,-46.5C94.74,-46.5 103.71,-46.5 112.22,-46.5"/>
<polygon fill="#63b8ff" stroke="#63b8ff" points="112.32,-50 122.32,-46.5 112.32,-43 112.32,-50"/>
</a>
</g>
</g>
<!-- Node4 -->
<g id="Node000004" class="node">
<title>Node4</title>
<g id="a_Node000004"><a xlink:href="kc_8cpp.html#a155bb2cc033bfd9bafbde8d31432f7ad" target="_top" xlink:title=" ">
<polygon fill="white" stroke="#666666" points="188,-19 122,-19 122,0 188,0 188,-19"/>
<text text-anchor="middle" x="155" y="-7" font-family="Helvetica" font-size="10.00">vector_new</text>
</a>
</g>
</g>
<!-- Node1&#45;&gt;Node4 -->
<g id="edge3_Node000001_Node000004" class="edge">
<title>Node1&#45;&gt;Node4</title>
<g id="a_edge3_Node000001_Node000004"><a xlink:title=" ">
<path fill="none" stroke="#63b8ff" d="M72.33,-36.97C85.57,-32.52 101.53,-27.15 115.82,-22.34"/>
<polygon fill="#63b8ff" stroke="#63b8ff" points="117.02,-25.63 125.39,-19.12 114.79,-19 117.02,-25.63"/>
</a>
</g>
</g>
</g>
</svg>
