<?xml version="1.0" encoding="UTF-8" standalone="no"?>
<!DOCTYPE svg PUBLIC "-//W3C//DTD SVG 1.1//EN"
 "http://www.w3.org/Graphics/SVG/1.1/DTD/svg11.dtd">
<!-- Generated by graphviz version 2.44.0 (0)
 -->
<!-- Title: ttest_onesample Pages: 1 -->
<svg width="338pt" height="82pt"
 viewBox="0.00 0.00 338.00 82.00" xmlns="http://www.w3.org/2000/svg" xmlns:xlink="http://www.w3.org/1999/xlink">
<g id="graph0" class="graph" transform="scale(1 1) rotate(0) translate(4 78)">
<title>ttest_onesample</title>
<!-- Node1 -->
<g id="Node000001" class="node">
<title>Node1</title>
<g id="a_Node000001"><a xlink:title=" ">
<polygon fill="#999999" stroke="#666666" points="89,-55 0,-55 0,-36 89,-36 89,-55"/>
<text text-anchor="middle" x="44.5" y="-43" font-family="Helvetica" font-size="10.00">ttest_onesample</text>
</a>
</g>
</g>
<!-- Node2 -->
<g id="Node000002" class="node">
<title>Node2</title>
<g id="a_Node000002"><a xlink:href="kc_8cpp.html#ae263d464ebb9d7304f3c8043c41622b7" target="_top" xlink:title=" ">
<polygon fill="white" stroke="#666666" points="169,-74 125,-74 125,-55 169,-55 169,-74"/>
<text text-anchor="middle" x="147" y="-62" font-family="Helvetica" font-size="10.00">avevar</text>
</a>
</g>
</g>
<!-- Node1&#45;&gt;Node2 -->
<g id="edge1_Node000001_Node000002" class="edge">
<title>Node1&#45;&gt;Node2</title>
<g id="a_edge1_Node000001_Node000002"><a xlink:title=" ">
<path fill="none" stroke="#63b8ff" d="M89.29,-53.78C97.99,-55.42 106.96,-57.12 115.12,-58.66"/>
<polygon fill="#63b8ff" stroke="#63b8ff" points="114.47,-62.1 124.95,-60.52 115.77,-55.22 114.47,-62.1"/>
</a>
</g>
</g>
<!-- Node3 -->
<g id="Node000003" class="node">
<title>Node3</title>
<g id="a_Node000003"><a xlink:href="kc_8cpp.html#a996626bdadc539b36a6ddce1f8262f1e" target="_top" xlink:title=" ">
<polygon fill="white" stroke="#666666" points="166,-37 128,-37 128,-18 166,-18 166,-37"/>
<text text-anchor="middle" x="147" y="-25" font-family="Helvetica" font-size="10.00">cdf_t</text>
</a>
</g>
</g>
<!-- Node1&#45;&gt;Node3 -->
<g id="edge2_Node000001_Node000003" class="edge">
<title>Node1&#45;&gt;Node3</title>
<g id="a_edge2_Node000001_Node000003"><a xlink:title=" ">
<path fill="none" stroke="#63b8ff" d="M89.29,-37.66C98.92,-35.93 108.86,-34.15 117.69,-32.57"/>
<polygon fill="#63b8ff" stroke="#63b8ff" points="118.57,-35.97 127.8,-30.76 117.34,-29.08 118.57,-35.97"/>
</a>
</g>
</g>
<!-- Node4 -->
<g id="Node000004" class="node">
<title>Node4</title>
<g id="a_Node000004"><a xlink:href="kc_8cpp.html#aff974d448122c33ebffbaf2666c42092" target="_top" xlink:title=" ">
<polygon fill="white" stroke="#666666" points="243,-37 205,-37 205,-18 243,-18 243,-37"/>
<text text-anchor="middle" x="224" y="-25" font-family="Helvetica" font-size="10.00">betai</text>
</a>
</g>
</g>
<!-- Node3&#45;&gt;Node4 -->
<g id="edge3_Node000003_Node000004" class="edge">
<title>Node3&#45;&gt;Node4</title>
<g id="a_edge3_Node000003_Node000004"><a xlink:title=" ">
<path fill="none" stroke="#63b8ff" d="M166.16,-27.5C174.66,-27.5 184.99,-27.5 194.5,-27.5"/>
<polygon fill="#63b8ff" stroke="#63b8ff" points="194.75,-31 204.75,-27.5 194.75,-24 194.75,-31"/>
</a>
</g>
</g>
<!-- Node5 -->
<g id="Node000005" class="node">
<title>Node5</title>
<g id="a_Node000005"><a xlink:href="kc_8cpp.html#a1d6e649feccbc1d73424037ed02d7418" target="_top" xlink:title=" ">
<polygon fill="white" stroke="#666666" points="326.5,-56 282.5,-56 282.5,-37 326.5,-37 326.5,-56"/>
<text text-anchor="middle" x="304.5" y="-44" font-family="Helvetica" font-size="10.00">betacf</text>
</a>
</g>
</g>
<!-- Node4&#45;&gt;Node5 -->
<g id="edge4_Node000004_Node000005" class="edge">
<title>Node4&#45;&gt;Node5</title>
<g id="a_edge4_Node000004_Node000005"><a xlink:title=" ">
<path fill="none" stroke="#63b8ff" d="M243.21,-31.91C251.88,-34.01 262.5,-36.58 272.39,-38.97"/>
<polygon fill="#63b8ff" stroke="#63b8ff" points="271.79,-42.43 282.33,-41.38 273.44,-35.62 271.79,-42.43"/>
</a>
</g>
</g>
<!-- Node6 -->
<g id="Node000006" class="node">
<title>Node6</title>
<g id="a_Node000006"><a xlink:href="kc_8cpp.html#a69cc1b545a83a4d9f187e131500aee45" target="_top" xlink:title=" ">
<polygon fill="white" stroke="#666666" points="330,-19 279,-19 279,0 330,0 330,-19"/>
<text text-anchor="middle" x="304.5" y="-7" font-family="Helvetica" font-size="10.00">gammln</text>
</a>
</g>
</g>
<!-- Node4&#45;&gt;Node6 -->
<g id="edge5_Node000004_Node000006" class="edge">
<title>Node4&#45;&gt;Node6</title>
<g id="a_edge5_Node000004_Node000006"><a xlink:title=" ">
<path fill="none" stroke="#63b8ff" d="M243.21,-23.33C250.91,-21.56 260.14,-19.44 269.04,-17.4"/>
<polygon fill="#63b8ff" stroke="#63b8ff" points="269.89,-20.8 278.85,-15.15 268.32,-13.98 269.89,-20.8"/>
</a>
</g>
</g>
</g>
</svg>
