<?xml version="1.0" encoding="UTF-8" standalone="no"?>
<!DOCTYPE svg PUBLIC "-//W3C//DTD SVG 1.1//EN"
 "http://www.w3.org/Graphics/SVG/1.1/DTD/svg11.dtd">
<!-- Generated by graphviz version 2.44.0 (0)
 -->
<!-- Title: chi2test_onesample Pages: 1 -->
<svg width="444pt" height="64pt"
 viewBox="0.00 0.00 444.00 64.00" xmlns="http://www.w3.org/2000/svg" xmlns:xlink="http://www.w3.org/1999/xlink">
<g id="graph0" class="graph" transform="scale(1 1) rotate(0) translate(4 60)">
<title>chi2test_onesample</title>
<!-- Node1 -->
<g id="Node000001" class="node">
<title>Node1</title>
<g id="a_Node000001"><a xlink:title=" ">
<polygon fill="#999999" stroke="#666666" points="104,-37 0,-37 0,-18 104,-18 104,-37"/>
<text text-anchor="middle" x="52" y="-25" font-family="Helvetica" font-size="10.00">chi2test_onesample</text>
</a>
</g>
</g>
<!-- Node2 -->
<g id="Node000002" class="node">
<title>Node2</title>
<g id="a_Node000002"><a xlink:href="kc_8cpp.html#ab600bf758ebb6d37ebd914533e27691d" target="_top" xlink:title=" ">
<polygon fill="white" stroke="#666666" points="193,-37 140,-37 140,-18 193,-18 193,-37"/>
<text text-anchor="middle" x="166.5" y="-25" font-family="Helvetica" font-size="10.00">cdf_chi2</text>
</a>
</g>
</g>
<!-- Node1&#45;&gt;Node2 -->
<g id="edge1_Node000001_Node000002" class="edge">
<title>Node1&#45;&gt;Node2</title>
<g id="a_edge1_Node000001_Node000002"><a xlink:title=" ">
<path fill="none" stroke="#63b8ff" d="M104.31,-27.5C112.85,-27.5 121.55,-27.5 129.6,-27.5"/>
<polygon fill="#63b8ff" stroke="#63b8ff" points="129.75,-31 139.75,-27.5 129.75,-24 129.75,-31"/>
</a>
</g>
</g>
<!-- Node3 -->
<g id="Node000003" class="node">
<title>Node3</title>
<g id="a_Node000003"><a xlink:href="kc_8cpp.html#aa1745417f9696825bc7cc68538800b5b" target="_top" xlink:title=" ">
<polygon fill="white" stroke="#666666" points="278,-37 229,-37 229,-18 278,-18 278,-37"/>
<text text-anchor="middle" x="253.5" y="-25" font-family="Helvetica" font-size="10.00">gammp</text>
</a>
</g>
</g>
<!-- Node2&#45;&gt;Node3 -->
<g id="edge2_Node000002_Node000003" class="edge">
<title>Node2&#45;&gt;Node3</title>
<g id="a_edge2_Node000002_Node000003"><a xlink:title=" ">
<path fill="none" stroke="#63b8ff" d="M193,-27.5C201.07,-27.5 210.11,-27.5 218.67,-27.5"/>
<polygon fill="#63b8ff" stroke="#63b8ff" points="218.76,-31 228.76,-27.5 218.76,-24 218.76,-31"/>
</a>
</g>
</g>
<!-- Node4 -->
<g id="Node000004" class="node">
<title>Node4</title>
<g id="a_Node000004"><a xlink:href="kc_8cpp.html#a5b446e3e8ec13c8e2383ac156f0cf77f" target="_top" xlink:title=" ">
<polygon fill="white" stroke="#666666" points="346.5,-56 316.5,-56 316.5,-37 346.5,-37 346.5,-56"/>
<text text-anchor="middle" x="331.5" y="-44" font-family="Helvetica" font-size="10.00">gcf</text>
</a>
</g>
</g>
<!-- Node3&#45;&gt;Node4 -->
<g id="edge3_Node000003_Node000004" class="edge">
<title>Node3&#45;&gt;Node4</title>
<g id="a_edge3_Node000003_Node000004"><a xlink:title=" ">
<path fill="none" stroke="#63b8ff" d="M278.13,-33.41C287.15,-35.66 297.44,-38.23 306.49,-40.5"/>
<polygon fill="#63b8ff" stroke="#63b8ff" points="305.85,-43.95 316.41,-42.98 307.55,-37.16 305.85,-43.95"/>
</a>
</g>
</g>
<!-- Node6 -->
<g id="Node000006" class="node">
<title>Node6</title>
<g id="a_Node000006"><a xlink:href="kc_8cpp.html#a5277079b0c65d166db9553deb8a92de2" target="_top" xlink:title=" ">
<polygon fill="white" stroke="#666666" points="349,-19 314,-19 314,0 349,0 349,-19"/>
<text text-anchor="middle" x="331.5" y="-7" font-family="Helvetica" font-size="10.00">gser</text>
</a>
</g>
</g>
<!-- Node3&#45;&gt;Node6 -->
<g id="edge5_Node000003_Node000006" class="edge">
<title>Node3&#45;&gt;Node6</title>
<g id="a_edge5_Node000003_Node000006"><a xlink:title=" ">
<path fill="none" stroke="#63b8ff" d="M278.13,-21.9C286.22,-19.99 295.33,-17.83 303.65,-15.86"/>
<polygon fill="#63b8ff" stroke="#63b8ff" points="304.71,-19.2 313.64,-13.49 303.1,-12.39 304.71,-19.2"/>
</a>
</g>
</g>
<!-- Node5 -->
<g id="Node000005" class="node">
<title>Node5</title>
<g id="a_Node000005"><a xlink:href="kc_8cpp.html#a69cc1b545a83a4d9f187e131500aee45" target="_top" xlink:title=" ">
<polygon fill="white" stroke="#666666" points="436,-37 385,-37 385,-18 436,-18 436,-37"/>
<text text-anchor="middle" x="410.5" y="-25" font-family="Helvetica" font-size="10.00">gammln</text>
</a>
</g>
</g>
<!-- Node4&#45;&gt;Node5 -->
<g id="edge4_Node000004_Node000005" class="edge">
<title>Node4&#45;&gt;Node5</title>
<g id="a_edge4_Node000004_Node000005"><a xlink:title=" ">
<path fill="none" stroke="#63b8ff" d="M346.62,-43.02C354.63,-41.04 365.04,-38.47 375.07,-36"/>
<polygon fill="#63b8ff" stroke="#63b8ff" points="376,-39.37 384.87,-33.58 374.32,-32.58 376,-39.37"/>
</a>
</g>
</g>
<!-- Node6&#45;&gt;Node5 -->
<g id="edge6_Node000006_Node000005" class="edge">
<title>Node6&#45;&gt;Node5</title>
<g id="a_edge6_Node000006_Node000005"><a xlink:title=" ">
<path fill="none" stroke="#63b8ff" d="M349.21,-13.41C356.79,-15.18 366.06,-17.34 375.03,-19.44"/>
<polygon fill="#63b8ff" stroke="#63b8ff" points="374.39,-22.89 384.93,-21.76 375.99,-16.07 374.39,-22.89"/>
</a>
</g>
</g>
</g>
</svg>
