<?xml version="1.0" encoding="UTF-8" standalone="no"?>
<!DOCTYPE svg PUBLIC "-//W3C//DTD SVG 1.1//EN"
 "http://www.w3.org/Graphics/SVG/1.1/DTD/svg11.dtd">
<!-- Generated by graphviz version 2.44.0 (0)
 -->
<!-- Title: bico Pages: 1 -->
<svg width="181pt" height="101pt"
 viewBox="0.00 0.00 181.00 101.00" xmlns="http://www.w3.org/2000/svg" xmlns:xlink="http://www.w3.org/1999/xlink">
<g id="graph0" class="graph" transform="scale(1 1) rotate(0) translate(4 97)">
<title>bico</title>
<!-- Node1 -->
<g id="Node000001" class="node">
<title>Node1</title>
<g id="a_Node000001"><a xlink:title=" ">
<polygon fill="#999999" stroke="#666666" points="173,-56 138,-56 138,-37 173,-37 173,-56"/>
<text text-anchor="middle" x="155.5" y="-44" font-family="Helvetica" font-size="10.00">bico</text>
</a>
</g>
</g>
<!-- Node2 -->
<g id="Node000002" class="node">
<title>Node2</title>
<g id="a_Node000002"><a xlink:href="kc_8cpp.html#abc817004395072b1695cfaa85444f1e7" target="_top" xlink:title=" ">
<polygon fill="white" stroke="#666666" points="71.5,-93 30.5,-93 30.5,-74 71.5,-74 71.5,-93"/>
<text text-anchor="middle" x="51" y="-81" font-family="Helvetica" font-size="10.00">bitest</text>
</a>
</g>
</g>
<!-- Node1&#45;&gt;Node2 -->
<g id="edge1_Node000001_Node000002" class="edge">
<title>Node1&#45;&gt;Node2</title>
<g id="a_edge1_Node000001_Node000002"><a xlink:title=" ">
<path fill="none" stroke="#63b8ff" d="M128.29,-55.99C119.89,-59.03 110.56,-62.41 102,-65.5 92.11,-69.07 81.11,-73.03 71.95,-76.33"/>
<polygon fill="#63b8ff" stroke="#63b8ff" points="129.74,-59.19 137.95,-52.5 127.36,-52.61 129.74,-59.19"/>
</a>
</g>
</g>
<!-- Node3 -->
<g id="Node000003" class="node">
<title>Node3</title>
<g id="a_Node000003"><a xlink:href="kc_8cpp.html#aa46a006334c47841787f731dc8549788" target="_top" xlink:title=" ">
<polygon fill="white" stroke="#666666" points="86.5,-56 15.5,-56 15.5,-37 86.5,-37 86.5,-56"/>
<text text-anchor="middle" x="51" y="-44" font-family="Helvetica" font-size="10.00">pdf_binomial</text>
</a>
</g>
</g>
<!-- Node1&#45;&gt;Node3 -->
<g id="edge2_Node000001_Node000003" class="edge">
<title>Node1&#45;&gt;Node3</title>
<g id="a_edge2_Node000001_Node000003"><a xlink:title=" ">
<path fill="none" stroke="#63b8ff" d="M127.38,-46.5C114.95,-46.5 100.06,-46.5 86.81,-46.5"/>
<polygon fill="#63b8ff" stroke="#63b8ff" points="127.57,-50 137.57,-46.5 127.57,-43 127.57,-50"/>
</a>
</g>
</g>
<!-- Node4 -->
<g id="Node000004" class="node">
<title>Node4</title>
<g id="a_Node000004"><a xlink:href="kc_8cpp.html#a71a16b3fb6e64dabbd74bfa358b6e6f0" target="_top" xlink:title=" ">
<polygon fill="white" stroke="#666666" points="102,-19 0,-19 0,0 102,0 102,-19"/>
<text text-anchor="middle" x="51" y="-7" font-family="Helvetica" font-size="10.00">pdf_hypergeometric</text>
</a>
</g>
</g>
<!-- Node1&#45;&gt;Node4 -->
<g id="edge3_Node000001_Node000004" class="edge">
<title>Node1&#45;&gt;Node4</title>
<g id="a_edge3_Node000001_Node000004"><a xlink:title=" ">
<path fill="none" stroke="#63b8ff" d="M127.77,-36.85C112.62,-31.38 93.72,-24.56 78.58,-19.1"/>
<polygon fill="#63b8ff" stroke="#63b8ff" points="126.98,-40.29 137.57,-40.39 129.36,-33.7 126.98,-40.29"/>
</a>
</g>
</g>
</g>
</svg>
