<?xml version="1.0" encoding="UTF-8" standalone="no"?>
<!DOCTYPE svg PUBLIC "-//W3C//DTD SVG 1.1//EN"
 "http://www.w3.org/Graphics/SVG/1.1/DTD/svg11.dtd">
<!-- Generated by graphviz version 2.44.0 (0)
 -->
<!-- Title: chi2test_trend_3by2table Pages: 1 -->
<svg width="626pt" height="120pt"
 viewBox="0.00 0.00 626.00 120.00" xmlns="http://www.w3.org/2000/svg" xmlns:xlink="http://www.w3.org/1999/xlink">
<g id="graph0" class="graph" transform="scale(1 1) rotate(0) translate(4 116)">
<title>chi2test_trend_3by2table</title>
<!-- Node1 -->
<g id="Node000001" class="node">
<title>Node1</title>
<g id="a_Node000001"><a xlink:title=" ">
<polygon fill="#999999" stroke="#666666" points="125,-56 0,-56 0,-37 125,-37 125,-56"/>
<text text-anchor="middle" x="62.5" y="-44" font-family="Helvetica" font-size="10.00">chi2test_trend_3by2table</text>
</a>
</g>
</g>
<!-- Node2 -->
<g id="Node000002" class="node">
<title>Node2</title>
<g id="a_Node000002"><a xlink:href="kc_8cpp.html#a229578c847d01eeceb5d7bfe5ddf6c37" target="_top" xlink:title=" ">
<polygon fill="white" stroke="#666666" points="286,-93 161,-93 161,-74 286,-74 286,-93"/>
<text text-anchor="middle" x="223.5" y="-81" font-family="Helvetica" font-size="10.00">chi2test_trend_2by3table</text>
</a>
</g>
</g>
<!-- Node1&#45;&gt;Node2 -->
<g id="edge1_Node000001_Node000002" class="edge">
<title>Node1&#45;&gt;Node2</title>
<g id="a_edge1_Node000001_Node000002"><a xlink:title=" ">
<path fill="none" stroke="#63b8ff" d="M104.45,-56.03C124.86,-60.78 149.75,-66.57 171.4,-71.61"/>
<polygon fill="#63b8ff" stroke="#63b8ff" points="170.88,-75.08 181.42,-73.94 172.47,-68.26 170.88,-75.08"/>
</a>
</g>
</g>
<!-- Node8 -->
<g id="Node000008" class="node">
<title>Node8</title>
<g id="a_Node000008"><a xlink:href="kc_8cpp.html#ae21c4c252ad5d5710ebd03d6f07e40de" target="_top" xlink:title=" ">
<polygon fill="white" stroke="#666666" points="247.5,-56 199.5,-56 199.5,-37 247.5,-37 247.5,-56"/>
<text text-anchor="middle" x="223.5" y="-44" font-family="Helvetica" font-size="10.00">dvector</text>
</a>
</g>
</g>
<!-- Node1&#45;&gt;Node8 -->
<g id="edge8_Node000001_Node000008" class="edge">
<title>Node1&#45;&gt;Node8</title>
<g id="a_edge8_Node000001_Node000008"><a xlink:title=" ">
<path fill="none" stroke="#63b8ff" d="M125.43,-46.5C147.15,-46.5 170.71,-46.5 189.19,-46.5"/>
<polygon fill="#63b8ff" stroke="#63b8ff" points="189.42,-50 199.42,-46.5 189.42,-43 189.42,-50"/>
</a>
</g>
</g>
<!-- Node9 -->
<g id="Node000009" class="node">
<title>Node9</title>
<g id="a_Node000009"><a xlink:href="kc_8cpp.html#ac7ec1a76a4b8d3d8423246676977c919" target="_top" xlink:title=" ">
<polygon fill="white" stroke="#666666" points="258.5,-19 188.5,-19 188.5,0 258.5,0 258.5,-19"/>
<text text-anchor="middle" x="223.5" y="-7" font-family="Helvetica" font-size="10.00">free_dvector</text>
</a>
</g>
</g>
<!-- Node1&#45;&gt;Node9 -->
<g id="edge9_Node000001_Node000009" class="edge">
<title>Node1&#45;&gt;Node9</title>
<g id="a_edge9_Node000001_Node000009"><a xlink:title=" ">
<path fill="none" stroke="#63b8ff" d="M104.45,-36.97C127.13,-31.69 155.34,-25.13 178.49,-19.74"/>
<polygon fill="#63b8ff" stroke="#63b8ff" points="179.46,-23.11 188.4,-17.43 177.87,-16.29 179.46,-23.11"/>
</a>
</g>
</g>
<!-- Node3 -->
<g id="Node000003" class="node">
<title>Node3</title>
<g id="a_Node000003"><a xlink:href="kc_8cpp.html#ab600bf758ebb6d37ebd914533e27691d" target="_top" xlink:title=" ">
<polygon fill="white" stroke="#666666" points="375,-93 322,-93 322,-74 375,-74 375,-93"/>
<text text-anchor="middle" x="348.5" y="-81" font-family="Helvetica" font-size="10.00">cdf_chi2</text>
</a>
</g>
</g>
<!-- Node2&#45;&gt;Node3 -->
<g id="edge2_Node000002_Node000003" class="edge">
<title>Node2&#45;&gt;Node3</title>
<g id="a_edge2_Node000002_Node000003"><a xlink:title=" ">
<path fill="none" stroke="#63b8ff" d="M286.36,-83.5C295.1,-83.5 303.82,-83.5 311.83,-83.5"/>
<polygon fill="#63b8ff" stroke="#63b8ff" points="311.89,-87 321.89,-83.5 311.89,-80 311.89,-87"/>
</a>
</g>
</g>
<!-- Node4 -->
<g id="Node000004" class="node">
<title>Node4</title>
<g id="a_Node000004"><a xlink:href="kc_8cpp.html#aa1745417f9696825bc7cc68538800b5b" target="_top" xlink:title=" ">
<polygon fill="white" stroke="#666666" points="460,-93 411,-93 411,-74 460,-74 460,-93"/>
<text text-anchor="middle" x="435.5" y="-81" font-family="Helvetica" font-size="10.00">gammp</text>
</a>
</g>
</g>
<!-- Node3&#45;&gt;Node4 -->
<g id="edge3_Node000003_Node000004" class="edge">
<title>Node3&#45;&gt;Node4</title>
<g id="a_edge3_Node000003_Node000004"><a xlink:title=" ">
<path fill="none" stroke="#63b8ff" d="M375,-83.5C383.07,-83.5 392.11,-83.5 400.67,-83.5"/>
<polygon fill="#63b8ff" stroke="#63b8ff" points="400.76,-87 410.76,-83.5 400.76,-80 400.76,-87"/>
</a>
</g>
</g>
<!-- Node5 -->
<g id="Node000005" class="node">
<title>Node5</title>
<g id="a_Node000005"><a xlink:href="kc_8cpp.html#a5b446e3e8ec13c8e2383ac156f0cf77f" target="_top" xlink:title=" ">
<polygon fill="white" stroke="#666666" points="528.5,-112 498.5,-112 498.5,-93 528.5,-93 528.5,-112"/>
<text text-anchor="middle" x="513.5" y="-100" font-family="Helvetica" font-size="10.00">gcf</text>
</a>
</g>
</g>
<!-- Node4&#45;&gt;Node5 -->
<g id="edge4_Node000004_Node000005" class="edge">
<title>Node4&#45;&gt;Node5</title>
<g id="a_edge4_Node000004_Node000005"><a xlink:title=" ">
<path fill="none" stroke="#63b8ff" d="M460.13,-89.41C469.15,-91.66 479.44,-94.23 488.49,-96.5"/>
<polygon fill="#63b8ff" stroke="#63b8ff" points="487.85,-99.95 498.41,-98.98 489.55,-93.16 487.85,-99.95"/>
</a>
</g>
</g>
<!-- Node7 -->
<g id="Node000007" class="node">
<title>Node7</title>
<g id="a_Node000007"><a xlink:href="kc_8cpp.html#a5277079b0c65d166db9553deb8a92de2" target="_top" xlink:title=" ">
<polygon fill="white" stroke="#666666" points="531,-75 496,-75 496,-56 531,-56 531,-75"/>
<text text-anchor="middle" x="513.5" y="-63" font-family="Helvetica" font-size="10.00">gser</text>
</a>
</g>
</g>
<!-- Node4&#45;&gt;Node7 -->
<g id="edge6_Node000004_Node000007" class="edge">
<title>Node4&#45;&gt;Node7</title>
<g id="a_edge6_Node000004_Node000007"><a xlink:title=" ">
<path fill="none" stroke="#63b8ff" d="M460.13,-77.9C468.22,-75.99 477.33,-73.83 485.65,-71.86"/>
<polygon fill="#63b8ff" stroke="#63b8ff" points="486.71,-75.2 495.64,-69.49 485.1,-68.39 486.71,-75.2"/>
</a>
</g>
</g>
<!-- Node6 -->
<g id="Node000006" class="node">
<title>Node6</title>
<g id="a_Node000006"><a xlink:href="kc_8cpp.html#a69cc1b545a83a4d9f187e131500aee45" target="_top" xlink:title=" ">
<polygon fill="white" stroke="#666666" points="618,-93 567,-93 567,-74 618,-74 618,-93"/>
<text text-anchor="middle" x="592.5" y="-81" font-family="Helvetica" font-size="10.00">gammln</text>
</a>
</g>
</g>
<!-- Node5&#45;&gt;Node6 -->
<g id="edge5_Node000005_Node000006" class="edge">
<title>Node5&#45;&gt;Node6</title>
<g id="a_edge5_Node000005_Node000006"><a xlink:title=" ">
<path fill="none" stroke="#63b8ff" d="M528.62,-99.02C536.63,-97.04 547.04,-94.47 557.07,-92"/>
<polygon fill="#63b8ff" stroke="#63b8ff" points="558,-95.37 566.87,-89.58 556.32,-88.58 558,-95.37"/>
</a>
</g>
</g>
<!-- Node7&#45;&gt;Node6 -->
<g id="edge7_Node000007_Node000006" class="edge">
<title>Node7&#45;&gt;Node6</title>
<g id="a_edge7_Node000007_Node000006"><a xlink:title=" ">
<path fill="none" stroke="#63b8ff" d="M531.21,-69.41C538.79,-71.18 548.06,-73.34 557.03,-75.44"/>
<polygon fill="#63b8ff" stroke="#63b8ff" points="556.39,-78.89 566.93,-77.76 557.99,-72.07 556.39,-78.89"/>
</a>
</g>
</g>
</g>
</svg>
