<?xml version="1.0" encoding="UTF-8" standalone="no"?>
<!DOCTYPE svg PUBLIC "-//W3C//DTD SVG 1.1//EN"
 "http://www.w3.org/Graphics/SVG/1.1/DTD/svg11.dtd">
<!-- Generated by graphviz version 2.44.0 (0)
 -->
<!-- Title: matrix_corMatrix Pages: 1 -->
<svg width="447pt" height="234pt"
 viewBox="0.00 0.00 447.00 234.00" xmlns="http://www.w3.org/2000/svg" xmlns:xlink="http://www.w3.org/1999/xlink">
<g id="graph0" class="graph" transform="scale(1 1) rotate(0) translate(4 230)">
<title>matrix_corMatrix</title>
<!-- Node1 -->
<g id="Node000001" class="node">
<title>Node1</title>
<g id="a_Node000001"><a xlink:title=" ">
<polygon fill="#999999" stroke="#666666" points="89,-114 0,-114 0,-95 89,-95 89,-114"/>
<text text-anchor="middle" x="44.5" y="-102" font-family="Helvetica" font-size="10.00">matrix_corMatrix</text>
</a>
</g>
</g>
<!-- Node2 -->
<g id="Node000002" class="node">
<title>Node2</title>
<g id="a_Node000002"><a xlink:href="kc_8cpp.html#a487b6171c617a9bdb3b3337dab2fc046" target="_top" xlink:title=" ">
<polygon fill="white" stroke="#666666" points="201.5,-226 131.5,-226 131.5,-207 201.5,-207 201.5,-226"/>
<text text-anchor="middle" x="166.5" y="-214" font-family="Helvetica" font-size="10.00">matrix_copy</text>
</a>
</g>
</g>
<!-- Node1&#45;&gt;Node2 -->
<g id="edge1_Node000001_Node000002" class="edge">
<title>Node1&#45;&gt;Node2</title>
<g id="a_edge1_Node000001_Node000002"><a xlink:title=" ">
<path fill="none" stroke="#63b8ff" d="M55.68,-114.46C70.69,-129.09 99.73,-157.2 125,-180.5 132.06,-187.01 139.93,-194.05 146.84,-200.16"/>
<polygon fill="#63b8ff" stroke="#63b8ff" points="144.58,-202.84 154.4,-206.83 149.21,-197.59 144.58,-202.84"/>
</a>
</g>
</g>
<!-- Node4 -->
<g id="Node000004" class="node">
<title>Node4</title>
<g id="a_Node000004"><a xlink:href="kc_8cpp.html#aa517f6dc1cd623e0f2fdc5f0f9ab8534" target="_top" xlink:title=" ">
<polygon fill="white" stroke="#666666" points="322.5,-57 257.5,-57 257.5,-38 322.5,-38 322.5,-57"/>
<text text-anchor="middle" x="290" y="-45" font-family="Helvetica" font-size="10.00">matrix_free</text>
</a>
</g>
</g>
<!-- Node1&#45;&gt;Node4 -->
<g id="edge3_Node000001_Node000004" class="edge">
<title>Node1&#45;&gt;Node4</title>
<g id="a_edge3_Node000001_Node000004"><a xlink:title=" ">
<path fill="none" stroke="#63b8ff" d="M61.96,-94.96C77.64,-86.34 102.17,-74.03 125,-67.5 165.44,-55.94 213.36,-51.06 246.92,-49"/>
<polygon fill="#63b8ff" stroke="#63b8ff" points="247.49,-52.48 257.28,-48.43 247.11,-45.49 247.49,-52.48"/>
</a>
</g>
</g>
<!-- Node5 -->
<g id="Node000005" class="node">
<title>Node5</title>
<g id="a_Node000005"><a xlink:href="kc_8cpp.html#a434b0afbcca14a331a887ef5f456cef9" target="_top" xlink:title=" ">
<polygon fill="white" stroke="#666666" points="208,-19 125,-19 125,0 208,0 208,-19"/>
<text text-anchor="middle" x="166.5" y="-7" font-family="Helvetica" font-size="10.00">matrix_multiply</text>
</a>
</g>
</g>
<!-- Node1&#45;&gt;Node5 -->
<g id="edge4_Node000001_Node000005" class="edge">
<title>Node1&#45;&gt;Node5</title>
<g id="a_edge4_Node000001_Node000005"><a xlink:title=" ">
<path fill="none" stroke="#63b8ff" d="M55.25,-94.65C69.74,-80.28 98.12,-53.18 125,-33.5 129.34,-30.32 134.13,-27.19 138.84,-24.3"/>
<polygon fill="#63b8ff" stroke="#63b8ff" points="140.86,-27.17 147.68,-19.06 137.3,-21.14 140.86,-27.17"/>
</a>
</g>
</g>
<!-- Node6 -->
<g id="Node000006" class="node">
<title>Node6</title>
<g id="a_Node000006"><a xlink:href="kc_8cpp.html#aef4d42f4197a1db7f6667dc7ea67956b" target="_top" xlink:title=" ">
<polygon fill="white" stroke="#666666" points="207,-171 126,-171 126,-152 207,-152 207,-171"/>
<text text-anchor="middle" x="166.5" y="-159" font-family="Helvetica" font-size="10.00">matrix_product</text>
</a>
</g>
</g>
<!-- Node1&#45;&gt;Node6 -->
<g id="edge5_Node000001_Node000006" class="edge">
<title>Node1&#45;&gt;Node6</title>
<g id="a_edge5_Node000001_Node000006"><a xlink:title=" ">
<path fill="none" stroke="#63b8ff" d="M65.59,-114.04C84.88,-123.21 114.26,-137.16 136.17,-147.57"/>
<polygon fill="#63b8ff" stroke="#63b8ff" points="134.81,-150.8 145.35,-151.93 137.82,-144.48 134.81,-150.8"/>
</a>
</g>
</g>
<!-- Node8 -->
<g id="Node000008" class="node">
<title>Node8</title>
<g id="a_Node000008"><a xlink:href="kc_8cpp.html#aa824316c0d7768e230ae809a3e679a66" target="_top" xlink:title=" ">
<polygon fill="white" stroke="#666666" points="205,-95 128,-95 128,-76 205,-76 205,-95"/>
<text text-anchor="middle" x="166.5" y="-83" font-family="Helvetica" font-size="10.00">matrix_stdCol</text>
</a>
</g>
</g>
<!-- Node1&#45;&gt;Node8 -->
<g id="edge8_Node000001_Node000008" class="edge">
<title>Node1&#45;&gt;Node8</title>
<g id="a_edge8_Node000001_Node000008"><a xlink:title=" ">
<path fill="none" stroke="#63b8ff" d="M89.16,-97.59C98.41,-96.12 108.23,-94.57 117.63,-93.08"/>
<polygon fill="#63b8ff" stroke="#63b8ff" points="118.29,-96.52 127.62,-91.5 117.19,-89.61 118.29,-96.52"/>
</a>
</g>
</g>
<!-- Node12 -->
<g id="Node000012" class="node">
<title>Node12</title>
<g id="a_Node000012"><a xlink:href="kc_8cpp.html#a89a2987a60a852f56603492790999aba" target="_top" xlink:title=" ">
<polygon fill="white" stroke="#666666" points="336,-131 244,-131 244,-112 336,-112 336,-131"/>
<text text-anchor="middle" x="290" y="-119" font-family="Helvetica" font-size="10.00">matrix_transpose</text>
</a>
</g>
</g>
<!-- Node1&#45;&gt;Node12 -->
<g id="edge15_Node000001_Node000012" class="edge">
<title>Node1&#45;&gt;Node12</title>
<g id="a_edge15_Node000001_Node000012"><a xlink:title=" ">
<path fill="none" stroke="#63b8ff" d="M89.03,-107.54C129.43,-110.36 189.76,-114.57 233.58,-117.63"/>
<polygon fill="#63b8ff" stroke="#63b8ff" points="233.56,-121.14 243.78,-118.34 234.05,-114.15 233.56,-121.14"/>
</a>
</g>
</g>
<!-- Node3 -->
<g id="Node000003" class="node">
<title>Node3</title>
<g id="a_Node000003"><a xlink:href="kc_8cpp.html#ac75528b11a2997977101b6e9ded2c7cf" target="_top" xlink:title=" ">
<polygon fill="white" stroke="#666666" points="439,-206 372,-206 372,-187 439,-187 439,-206"/>
<text text-anchor="middle" x="405.5" y="-194" font-family="Helvetica" font-size="10.00">matrix_new</text>
</a>
</g>
</g>
<!-- Node2&#45;&gt;Node3 -->
<g id="edge2_Node000002_Node000003" class="edge">
<title>Node2&#45;&gt;Node3</title>
<g id="a_edge2_Node000002_Node000003"><a xlink:title=" ">
<path fill="none" stroke="#63b8ff" d="M201.51,-216.94C235.64,-216.99 289.64,-216.02 336,-210.5 344.49,-209.49 353.49,-207.97 362.09,-206.31"/>
<polygon fill="#63b8ff" stroke="#63b8ff" points="362.83,-209.73 371.93,-204.31 361.43,-202.87 362.83,-209.73"/>
</a>
</g>
</g>
<!-- Node6&#45;&gt;Node3 -->
<g id="edge6_Node000006_Node000003" class="edge">
<title>Node6&#45;&gt;Node3</title>
<g id="a_edge6_Node000006_Node000003"><a xlink:title=" ">
<path fill="none" stroke="#63b8ff" d="M207.08,-170.47C218.92,-172.97 231.95,-175.53 244,-177.5 283.73,-183.99 329.34,-189.18 361.76,-192.48"/>
<polygon fill="#63b8ff" stroke="#63b8ff" points="361.5,-195.97 371.8,-193.48 362.2,-189 361.5,-195.97"/>
</a>
</g>
</g>
<!-- Node7 -->
<g id="Node000007" class="node">
<title>Node7</title>
<g id="a_Node000007"><a xlink:href="kc_8cpp.html#adbdc6116401c49523c4c62dde6147310" target="_top" xlink:title=" ">
<polygon fill="white" stroke="#666666" points="323.5,-168 256.5,-168 256.5,-149 323.5,-149 323.5,-168"/>
<text text-anchor="middle" x="290" y="-156" font-family="Helvetica" font-size="10.00">matrix_zero</text>
</a>
</g>
</g>
<!-- Node6&#45;&gt;Node7 -->
<g id="edge7_Node000006_Node000007" class="edge">
<title>Node6&#45;&gt;Node7</title>
<g id="a_edge7_Node000006_Node000007"><a xlink:title=" ">
<path fill="none" stroke="#63b8ff" d="M207.28,-160.52C219.72,-160.21 233.49,-159.87 246.13,-159.56"/>
<polygon fill="#63b8ff" stroke="#63b8ff" points="246.51,-163.05 256.43,-159.3 246.34,-156.05 246.51,-163.05"/>
</a>
</g>
</g>
<!-- Node8&#45;&gt;Node4 -->
<g id="edge9_Node000008_Node000004" class="edge">
<title>Node8&#45;&gt;Node4</title>
<g id="a_edge9_Node000008_Node000004"><a xlink:title=" ">
<path fill="none" stroke="#63b8ff" d="M198.16,-75.91C213.41,-71.14 232.05,-65.31 248.47,-60.18"/>
<polygon fill="#63b8ff" stroke="#63b8ff" points="249.85,-63.41 258.35,-57.09 247.76,-56.73 249.85,-63.41"/>
</a>
</g>
</g>
<!-- Node9 -->
<g id="Node000009" class="node">
<title>Node9</title>
<g id="a_Node000009"><a xlink:href="kc_8cpp.html#a1e079ca755a3861bccd94f64677e1d54" target="_top" xlink:title=" ">
<polygon fill="white" stroke="#666666" points="331.5,-94 248.5,-94 248.5,-75 331.5,-75 331.5,-94"/>
<text text-anchor="middle" x="290" y="-82" font-family="Helvetica" font-size="10.00">matrix_stdRow</text>
</a>
</g>
</g>
<!-- Node8&#45;&gt;Node9 -->
<g id="edge10_Node000008_Node000009" class="edge">
<title>Node8&#45;&gt;Node9</title>
<g id="a_edge10_Node000008_Node000009"><a xlink:title=" ">
<path fill="none" stroke="#63b8ff" d="M205.28,-85.19C215.62,-85.1 227.01,-85.01 237.97,-84.92"/>
<polygon fill="#63b8ff" stroke="#63b8ff" points="238.32,-88.42 248.29,-84.84 238.27,-81.42 238.32,-88.42"/>
</a>
</g>
</g>
<!-- Node8&#45;&gt;Node12 -->
<g id="edge13_Node000008_Node000012" class="edge">
<title>Node8&#45;&gt;Node12</title>
<g id="a_edge13_Node000008_Node000012"><a xlink:title=" ">
<path fill="none" stroke="#63b8ff" d="M199.74,-95.05C214.16,-99.32 231.35,-104.42 246.77,-108.99"/>
<polygon fill="#63b8ff" stroke="#63b8ff" points="246.03,-112.42 256.61,-111.9 248.01,-105.71 246.03,-112.42"/>
</a>
</g>
</g>
<!-- Node10 -->
<g id="Node000010" class="node">
<title>Node10</title>
<g id="a_Node000010"><a xlink:href="kc_8cpp.html#ae263d464ebb9d7304f3c8043c41622b7" target="_top" xlink:title=" ">
<polygon fill="white" stroke="#666666" points="427.5,-113 383.5,-113 383.5,-94 427.5,-94 427.5,-113"/>
<text text-anchor="middle" x="405.5" y="-101" font-family="Helvetica" font-size="10.00">avevar</text>
</a>
</g>
</g>
<!-- Node9&#45;&gt;Node10 -->
<g id="edge11_Node000009_Node000010" class="edge">
<title>Node9&#45;&gt;Node10</title>
<g id="a_edge11_Node000009_Node000010"><a xlink:title=" ">
<path fill="none" stroke="#63b8ff" d="M331.66,-91.31C345.27,-93.59 360.24,-96.09 373.04,-98.23"/>
<polygon fill="#63b8ff" stroke="#63b8ff" points="372.77,-101.74 383.21,-99.94 373.93,-94.83 372.77,-101.74"/>
</a>
</g>
</g>
<!-- Node11 -->
<g id="Node000011" class="node">
<title>Node11</title>
<g id="a_Node000011"><a xlink:href="kc_8cpp.html#ab01d6eb051febfe28b8ac2987dcfe524" target="_top" xlink:title=" ">
<polygon fill="white" stroke="#666666" points="426,-76 385,-76 385,-57 426,-57 426,-76"/>
<text text-anchor="middle" x="405.5" y="-64" font-family="Helvetica" font-size="10.00">mean</text>
</a>
</g>
</g>
<!-- Node9&#45;&gt;Node11 -->
<g id="edge12_Node000009_Node000011" class="edge">
<title>Node9&#45;&gt;Node11</title>
<g id="a_edge12_Node000009_Node000011"><a xlink:title=" ">
<path fill="none" stroke="#63b8ff" d="M331.66,-78.05C345.91,-75.79 361.64,-73.3 374.83,-71.21"/>
<polygon fill="#63b8ff" stroke="#63b8ff" points="375.45,-74.65 384.78,-69.63 374.35,-67.74 375.45,-74.65"/>
</a>
</g>
</g>
<!-- Node12&#45;&gt;Node3 -->
<g id="edge14_Node000012_Node000003" class="edge">
<title>Node12&#45;&gt;Node3</title>
<g id="a_edge14_Node000012_Node000003"><a xlink:title=" ">
<path fill="none" stroke="#63b8ff" d="M317.32,-131.13C323.62,-133.83 330.19,-137 336,-140.5 354.74,-151.79 373.83,-167.86 387.08,-179.88"/>
<polygon fill="#63b8ff" stroke="#63b8ff" points="384.81,-182.55 394.52,-186.77 389.56,-177.41 384.81,-182.55"/>
</a>
</g>
</g>
</g>
</svg>
