<?xml version="1.0" encoding="UTF-8" standalone="no"?>
<!DOCTYPE svg PUBLIC "-//W3C//DTD SVG 1.1//EN"
 "http://www.w3.org/Graphics/SVG/1.1/DTD/svg11.dtd">
<!-- Generated by graphviz version 2.44.0 (0)
 -->
<!-- Title: pdf_poisson Pages: 1 -->
<svg width="346pt" height="46pt"
 viewBox="0.00 0.00 346.00 46.00" xmlns="http://www.w3.org/2000/svg" xmlns:xlink="http://www.w3.org/1999/xlink">
<g id="graph0" class="graph" transform="scale(1 1) rotate(0) translate(4 42)">
<title>pdf_poisson</title>
<!-- Node1 -->
<g id="Node000001" class="node">
<title>Node1</title>
<g id="a_Node000001"><a xlink:title=" ">
<polygon fill="#999999" stroke="#666666" points="69,-19 0,-19 0,0 69,0 69,-19"/>
<text text-anchor="middle" x="34.5" y="-7" font-family="Helvetica" font-size="10.00">pdf_poisson</text>
</a>
</g>
</g>
<!-- Node2 -->
<g id="Node000002" class="node">
<title>Node2</title>
<g id="a_Node000002"><a xlink:href="kc_8cpp.html#a20614b0260f5c699044c6514b6479e34" target="_top" xlink:title=" ">
<polygon fill="white" stroke="#666666" points="156,-38 105,-38 105,-19 156,-19 156,-38"/>
<text text-anchor="middle" x="130.5" y="-26" font-family="Helvetica" font-size="10.00">factorial</text>
</a>
</g>
</g>
<!-- Node1&#45;&gt;Node2 -->
<g id="edge1_Node000001_Node000002" class="edge">
<title>Node1&#45;&gt;Node2</title>
<g id="a_edge1_Node000001_Node000002"><a xlink:title=" ">
<path fill="none" stroke="#63b8ff" d="M69.17,-16.31C77.56,-18 86.57,-19.82 95,-21.53"/>
<polygon fill="#63b8ff" stroke="#63b8ff" points="94.41,-24.98 104.91,-23.53 95.8,-18.12 94.41,-24.98"/>
</a>
</g>
</g>
<!-- Node3 -->
<g id="Node000003" class="node">
<title>Node3</title>
<g id="a_Node000003"><a xlink:href="kc_8cpp.html#a1b8ed1e5e0530035c186d182ebe747b3" target="_top" xlink:title=" ">
<polygon fill="white" stroke="#666666" points="251,-19 192,-19 192,0 251,0 251,-19"/>
<text text-anchor="middle" x="221.5" y="-7" font-family="Helvetica" font-size="10.00">lnfactorial</text>
</a>
</g>
</g>
<!-- Node1&#45;&gt;Node3 -->
<g id="edge4_Node000001_Node000003" class="edge">
<title>Node1&#45;&gt;Node3</title>
<g id="a_edge4_Node000001_Node000003"><a xlink:title=" ">
<path fill="none" stroke="#63b8ff" d="M69,-9.5C100.67,-9.5 148.16,-9.5 181.51,-9.5"/>
<polygon fill="#63b8ff" stroke="#63b8ff" points="181.8,-13 191.8,-9.5 181.8,-6 181.8,-13"/>
</a>
</g>
</g>
<!-- Node2&#45;&gt;Node3 -->
<g id="edge2_Node000002_Node000003" class="edge">
<title>Node2&#45;&gt;Node3</title>
<g id="a_edge2_Node000002_Node000003"><a xlink:title=" ">
<path fill="none" stroke="#63b8ff" d="M156.29,-23.21C164.2,-21.52 173.16,-19.61 181.81,-17.76"/>
<polygon fill="#63b8ff" stroke="#63b8ff" points="182.7,-21.15 191.75,-15.64 181.24,-14.3 182.7,-21.15"/>
</a>
</g>
</g>
<!-- Node4 -->
<g id="Node000004" class="node">
<title>Node4</title>
<g id="a_Node000004"><a xlink:href="kc_8cpp.html#a69cc1b545a83a4d9f187e131500aee45" target="_top" xlink:title=" ">
<polygon fill="white" stroke="#666666" points="338,-19 287,-19 287,0 338,0 338,-19"/>
<text text-anchor="middle" x="312.5" y="-7" font-family="Helvetica" font-size="10.00">gammln</text>
</a>
</g>
</g>
<!-- Node3&#45;&gt;Node4 -->
<g id="edge3_Node000003_Node000004" class="edge">
<title>Node3&#45;&gt;Node4</title>
<g id="a_edge3_Node000003_Node000004"><a xlink:title=" ">
<path fill="none" stroke="#63b8ff" d="M251.15,-9.5C259.31,-9.5 268.3,-9.5 276.78,-9.5"/>
<polygon fill="#63b8ff" stroke="#63b8ff" points="276.8,-13 286.8,-9.5 276.8,-6 276.8,-13"/>
</a>
</g>
</g>
</g>
</svg>
