<?xml version="1.0" encoding="UTF-8" standalone="no"?>
<!DOCTYPE svg PUBLIC "-//W3C//DTD SVG 1.1//EN"
 "http://www.w3.org/Graphics/SVG/1.1/DTD/svg11.dtd">
<!-- Generated by graphviz version 2.44.0 (0)
 -->
<!-- Title: vectori_free Pages: 1 -->
<svg width="334pt" height="138pt"
 viewBox="0.00 0.00 334.00 138.00" xmlns="http://www.w3.org/2000/svg" xmlns:xlink="http://www.w3.org/1999/xlink">
<g id="graph0" class="graph" transform="scale(1 1) rotate(0) translate(4 134)">
<title>vectori_free</title>
<!-- Node1 -->
<g id="Node000001" class="node">
<title>Node1</title>
<g id="a_Node000001"><a xlink:title=" ">
<polygon fill="#999999" stroke="#666666" points="326,-74 259,-74 259,-55 326,-55 326,-74"/>
<text text-anchor="middle" x="292.5" y="-62" font-family="Helvetica" font-size="10.00">vectori_free</text>
</a>
</g>
</g>
<!-- Node2 -->
<g id="Node000002" class="node">
<title>Node2</title>
<g id="a_Node000002"><a xlink:href="kc_8cpp.html#a4709c372281713ec9baaf5fb939cb10e" target="_top" xlink:title=" ">
<polygon fill="white" stroke="#666666" points="211,-130 149,-130 149,-111 211,-111 211,-130"/>
<text text-anchor="middle" x="180" y="-118" font-family="Helvetica" font-size="10.00">matrix_det</text>
</a>
</g>
</g>
<!-- Node1&#45;&gt;Node2 -->
<g id="edge1_Node000001_Node000002" class="edge">
<title>Node1&#45;&gt;Node2</title>
<g id="a_edge1_Node000001_Node000002"><a xlink:title=" ">
<path fill="none" stroke="#63b8ff" d="M266.68,-79.07C253.81,-86.42 237.74,-95.28 223,-102.5 217.16,-105.36 210.75,-108.24 204.74,-110.82"/>
<polygon fill="#63b8ff" stroke="#63b8ff" points="268.5,-82.06 275.41,-74.03 265,-75.99 268.5,-82.06"/>
</a>
</g>
</g>
<!-- Node3 -->
<g id="Node000003" class="node">
<title>Node3</title>
<g id="a_Node000003"><a xlink:href="kc_8cpp.html#af0e16ee0cbf76fe1a067c0f4132e8774" target="_top" xlink:title=" ">
<polygon fill="white" stroke="#666666" points="220,-93 140,-93 140,-74 220,-74 220,-93"/>
<text text-anchor="middle" x="180" y="-81" font-family="Helvetica" font-size="10.00">matrix_inverse</text>
</a>
</g>
</g>
<!-- Node1&#45;&gt;Node3 -->
<g id="edge2_Node000001_Node000003" class="edge">
<title>Node1&#45;&gt;Node3</title>
<g id="a_edge2_Node000001_Node000003"><a xlink:title=" ">
<path fill="none" stroke="#63b8ff" d="M248.99,-71.81C239.57,-73.43 229.64,-75.14 220.36,-76.73"/>
<polygon fill="#63b8ff" stroke="#63b8ff" points="249.68,-75.24 258.94,-70.1 248.5,-68.34 249.68,-75.24"/>
</a>
</g>
</g>
<!-- Node7 -->
<g id="Node000007" class="node">
<title>Node7</title>
<g id="a_Node000007"><a xlink:href="kc_8cpp.html#a81683e0787ad3491e6e65a83bf05124f" target="_top" xlink:title=" ">
<polygon fill="white" stroke="#666666" points="223,-56 137,-56 137,-37 223,-37 223,-56"/>
<text text-anchor="middle" x="180" y="-44" font-family="Helvetica" font-size="10.00">matrix_inverse2</text>
</a>
</g>
</g>
<!-- Node1&#45;&gt;Node7 -->
<g id="edge6_Node000001_Node000007" class="edge">
<title>Node1&#45;&gt;Node7</title>
<g id="a_edge6_Node000001_Node000007"><a xlink:title=" ">
<path fill="none" stroke="#63b8ff" d="M248.91,-57.56C240.46,-56.19 231.6,-54.74 223.17,-53.37"/>
<polygon fill="#63b8ff" stroke="#63b8ff" points="248.51,-61.04 258.94,-59.2 249.64,-54.13 248.51,-61.04"/>
</a>
</g>
</g>
<!-- Node8 -->
<g id="Node000008" class="node">
<title>Node8</title>
<g id="a_Node000008"><a xlink:href="kc_8cpp.html#a7d45b4d89c9e4dfd5cf06ff773c4f048" target="_top" xlink:title=" ">
<polygon fill="white" stroke="#666666" points="215.5,-19 144.5,-19 144.5,0 215.5,0 215.5,-19"/>
<text text-anchor="middle" x="180" y="-7" font-family="Helvetica" font-size="10.00">matrix_solve</text>
</a>
</g>
</g>
<!-- Node1&#45;&gt;Node8 -->
<g id="edge7_Node000001_Node000008" class="edge">
<title>Node1&#45;&gt;Node8</title>
<g id="a_edge7_Node000001_Node000008"><a xlink:title=" ">
<path fill="none" stroke="#63b8ff" d="M265.74,-49.87C253.02,-42.83 237.35,-34.43 223,-27.5 217,-24.6 210.42,-21.67 204.28,-19.03"/>
<polygon fill="#63b8ff" stroke="#63b8ff" points="264.39,-53.13 274.83,-54.95 267.8,-47.02 264.39,-53.13"/>
</a>
</g>
</g>
<!-- Node4 -->
<g id="Node000004" class="node">
<title>Node4</title>
<g id="a_Node000004"><a xlink:href="kc_8cpp.html#a0458e14ed6d01fb333ea0b2a06035d87" target="_top" xlink:title=" ">
<polygon fill="white" stroke="#666666" points="81.5,-130 19.5,-130 19.5,-111 81.5,-111 81.5,-130"/>
<text text-anchor="middle" x="50.5" y="-118" font-family="Helvetica" font-size="10.00">matrix_reg</text>
</a>
</g>
</g>
<!-- Node3&#45;&gt;Node4 -->
<g id="edge3_Node000003_Node000004" class="edge">
<title>Node3&#45;&gt;Node4</title>
<g id="a_edge3_Node000003_Node000004"><a xlink:title=" ">
<path fill="none" stroke="#63b8ff" d="M136.48,-95.84C118.5,-101.06 97.98,-107.01 81.6,-111.76"/>
<polygon fill="#63b8ff" stroke="#63b8ff" points="137.54,-99.18 146.17,-93.03 135.59,-92.45 137.54,-99.18"/>
</a>
</g>
</g>
<!-- Node5 -->
<g id="Node000005" class="node">
<title>Node5</title>
<g id="a_Node000005"><a xlink:href="kc_8cpp.html#a77077c3de17b2dd212a275a4e0ff1750" target="_top" xlink:title=" ">
<polygon fill="white" stroke="#666666" points="101,-93 0,-93 0,-74 101,-74 101,-93"/>
<text text-anchor="middle" x="50.5" y="-81" font-family="Helvetica" font-size="10.00">matrix_regCoefStat</text>
</a>
</g>
</g>
<!-- Node3&#45;&gt;Node5 -->
<g id="edge4_Node000003_Node000005" class="edge">
<title>Node3&#45;&gt;Node5</title>
<g id="a_edge4_Node000003_Node000005"><a xlink:title=" ">
<path fill="none" stroke="#63b8ff" d="M129.47,-83.5C120.21,-83.5 110.53,-83.5 101.26,-83.5"/>
<polygon fill="#63b8ff" stroke="#63b8ff" points="129.71,-87 139.71,-83.5 129.71,-80 129.71,-87"/>
</a>
</g>
</g>
<!-- Node6 -->
<g id="Node000006" class="node">
<title>Node6</title>
<g id="a_Node000006"><a xlink:href="kc_8cpp.html#ad66fdb823fdc1c7260a0459c1912203f" target="_top" xlink:title=" ">
<polygon fill="white" stroke="#666666" points="99.5,-56 1.5,-56 1.5,-37 99.5,-37 99.5,-56"/>
<text text-anchor="middle" x="50.5" y="-44" font-family="Helvetica" font-size="10.00">matrix_regObsStat</text>
</a>
</g>
</g>
<!-- Node3&#45;&gt;Node6 -->
<g id="edge5_Node000003_Node000006" class="edge">
<title>Node3&#45;&gt;Node6</title>
<g id="a_edge5_Node000003_Node000006"><a xlink:title=" ">
<path fill="none" stroke="#63b8ff" d="M136.52,-71.17C119.64,-66.27 100.5,-60.72 84.67,-56.12"/>
<polygon fill="#63b8ff" stroke="#63b8ff" points="135.59,-74.55 146.17,-73.97 137.54,-67.82 135.59,-74.55"/>
</a>
</g>
</g>
</g>
</svg>
