<?xml version="1.0" encoding="UTF-8" standalone="no"?>
<!DOCTYPE svg PUBLIC "-//W3C//DTD SVG 1.1//EN"
 "http://www.w3.org/Graphics/SVG/1.1/DTD/svg11.dtd">
<!-- Generated by graphviz version 2.44.0 (0)
 -->
<!-- Title: cdf_poisson Pages: 1 -->
<svg width="346pt" height="101pt"
 viewBox="0.00 0.00 346.00 101.00" xmlns="http://www.w3.org/2000/svg" xmlns:xlink="http://www.w3.org/1999/xlink">
<g id="graph0" class="graph" transform="scale(1 1) rotate(0) translate(4 97)">
<title>cdf_poisson</title>
<!-- Node1 -->
<g id="Node000001" class="node">
<title>Node1</title>
<g id="a_Node000001"><a xlink:title=" ">
<polygon fill="#999999" stroke="#666666" points="69,-74 0,-74 0,-55 69,-55 69,-74"/>
<text text-anchor="middle" x="34.5" y="-62" font-family="Helvetica" font-size="10.00">cdf_poisson</text>
</a>
</g>
</g>
<!-- Node2 -->
<g id="Node000002" class="node">
<title>Node2</title>
<g id="a_Node000002"><a xlink:href="kc_8cpp.html#a20614b0260f5c699044c6514b6479e34" target="_top" xlink:title=" ">
<polygon fill="white" stroke="#666666" points="156,-93 105,-93 105,-74 156,-74 156,-93"/>
<text text-anchor="middle" x="130.5" y="-81" font-family="Helvetica" font-size="10.00">factorial</text>
</a>
</g>
</g>
<!-- Node1&#45;&gt;Node2 -->
<g id="edge1_Node000001_Node000002" class="edge">
<title>Node1&#45;&gt;Node2</title>
<g id="a_edge1_Node000001_Node000002"><a xlink:title=" ">
<path fill="none" stroke="#63b8ff" d="M69.17,-71.31C77.56,-73 86.57,-74.82 95,-76.53"/>
<polygon fill="#63b8ff" stroke="#63b8ff" points="94.41,-79.98 104.91,-78.53 95.8,-73.12 94.41,-79.98"/>
</a>
</g>
</g>
<!-- Node5 -->
<g id="Node000005" class="node">
<title>Node5</title>
<g id="a_Node000005"><a xlink:href="kc_8cpp.html#aa1745417f9696825bc7cc68538800b5b" target="_top" xlink:title=" ">
<polygon fill="white" stroke="#666666" points="155,-56 106,-56 106,-37 155,-37 155,-56"/>
<text text-anchor="middle" x="130.5" y="-44" font-family="Helvetica" font-size="10.00">gammp</text>
</a>
</g>
</g>
<!-- Node1&#45;&gt;Node5 -->
<g id="edge4_Node000001_Node000005" class="edge">
<title>Node1&#45;&gt;Node5</title>
<g id="a_edge4_Node000001_Node000005"><a xlink:title=" ">
<path fill="none" stroke="#63b8ff" d="M69.17,-58.05C77.88,-56.38 87.25,-54.59 95.96,-52.92"/>
<polygon fill="#63b8ff" stroke="#63b8ff" points="96.62,-56.36 105.78,-51.04 95.3,-49.48 96.62,-56.36"/>
</a>
</g>
</g>
<!-- Node3 -->
<g id="Node000003" class="node">
<title>Node3</title>
<g id="a_Node000003"><a xlink:href="kc_8cpp.html#a1b8ed1e5e0530035c186d182ebe747b3" target="_top" xlink:title=" ">
<polygon fill="white" stroke="#666666" points="251,-93 192,-93 192,-74 251,-74 251,-93"/>
<text text-anchor="middle" x="221.5" y="-81" font-family="Helvetica" font-size="10.00">lnfactorial</text>
</a>
</g>
</g>
<!-- Node2&#45;&gt;Node3 -->
<g id="edge2_Node000002_Node000003" class="edge">
<title>Node2&#45;&gt;Node3</title>
<g id="a_edge2_Node000002_Node000003"><a xlink:title=" ">
<path fill="none" stroke="#63b8ff" d="M156.29,-83.5C164.12,-83.5 172.96,-83.5 181.53,-83.5"/>
<polygon fill="#63b8ff" stroke="#63b8ff" points="181.75,-87 191.75,-83.5 181.75,-80 181.75,-87"/>
</a>
</g>
</g>
<!-- Node4 -->
<g id="Node000004" class="node">
<title>Node4</title>
<g id="a_Node000004"><a xlink:href="kc_8cpp.html#a69cc1b545a83a4d9f187e131500aee45" target="_top" xlink:title=" ">
<polygon fill="white" stroke="#666666" points="338,-56 287,-56 287,-37 338,-37 338,-56"/>
<text text-anchor="middle" x="312.5" y="-44" font-family="Helvetica" font-size="10.00">gammln</text>
</a>
</g>
</g>
<!-- Node3&#45;&gt;Node4 -->
<g id="edge3_Node000003_Node000004" class="edge">
<title>Node3&#45;&gt;Node4</title>
<g id="a_edge3_Node000003_Node000004"><a xlink:title=" ">
<path fill="none" stroke="#63b8ff" d="M245.42,-73.97C255.62,-69.73 267.81,-64.66 278.93,-60.04"/>
<polygon fill="#63b8ff" stroke="#63b8ff" points="280.46,-63.2 288.35,-56.12 277.77,-56.73 280.46,-63.2"/>
</a>
</g>
</g>
<!-- Node6 -->
<g id="Node000006" class="node">
<title>Node6</title>
<g id="a_Node000006"><a xlink:href="kc_8cpp.html#a5b446e3e8ec13c8e2383ac156f0cf77f" target="_top" xlink:title=" ">
<polygon fill="white" stroke="#666666" points="236.5,-56 206.5,-56 206.5,-37 236.5,-37 236.5,-56"/>
<text text-anchor="middle" x="221.5" y="-44" font-family="Helvetica" font-size="10.00">gcf</text>
</a>
</g>
</g>
<!-- Node5&#45;&gt;Node6 -->
<g id="edge5_Node000005_Node000006" class="edge">
<title>Node5&#45;&gt;Node6</title>
<g id="a_edge5_Node000005_Node000006"><a xlink:title=" ">
<path fill="none" stroke="#63b8ff" d="M155.35,-46.5C167.93,-46.5 183.35,-46.5 196.03,-46.5"/>
<polygon fill="#63b8ff" stroke="#63b8ff" points="196.32,-50 206.32,-46.5 196.32,-43 196.32,-50"/>
</a>
</g>
</g>
<!-- Node7 -->
<g id="Node000007" class="node">
<title>Node7</title>
<g id="a_Node000007"><a xlink:href="kc_8cpp.html#a5277079b0c65d166db9553deb8a92de2" target="_top" xlink:title=" ">
<polygon fill="white" stroke="#666666" points="239,-19 204,-19 204,0 239,0 239,-19"/>
<text text-anchor="middle" x="221.5" y="-7" font-family="Helvetica" font-size="10.00">gser</text>
</a>
</g>
</g>
<!-- Node5&#45;&gt;Node7 -->
<g id="edge7_Node000005_Node000007" class="edge">
<title>Node5&#45;&gt;Node7</title>
<g id="a_edge7_Node000005_Node000007"><a xlink:title=" ">
<path fill="none" stroke="#63b8ff" d="M154.42,-36.97C166.61,-31.9 181.66,-25.65 194.31,-20.39"/>
<polygon fill="#63b8ff" stroke="#63b8ff" points="195.95,-23.5 203.84,-16.43 193.26,-17.03 195.95,-23.5"/>
</a>
</g>
</g>
<!-- Node6&#45;&gt;Node4 -->
<g id="edge6_Node000006_Node000004" class="edge">
<title>Node6&#45;&gt;Node4</title>
<g id="a_edge6_Node000006_Node000004"><a xlink:title=" ">
<path fill="none" stroke="#63b8ff" d="M236.8,-46.5C247.53,-46.5 262.69,-46.5 276.56,-46.5"/>
<polygon fill="#63b8ff" stroke="#63b8ff" points="276.81,-50 286.81,-46.5 276.81,-43 276.81,-50"/>
</a>
</g>
</g>
<!-- Node7&#45;&gt;Node4 -->
<g id="edge8_Node000007_Node000004" class="edge">
<title>Node7&#45;&gt;Node4</title>
<g id="a_edge8_Node000007_Node000004"><a xlink:title=" ">
<path fill="none" stroke="#63b8ff" d="M239.24,-16.46C250.42,-21.11 265.5,-27.38 278.99,-32.98"/>
<polygon fill="#63b8ff" stroke="#63b8ff" points="277.88,-36.31 288.45,-36.92 280.56,-29.85 277.88,-36.31"/>
</a>
</g>
</g>
</g>
</svg>
