<?xml version="1.0" encoding="UTF-8" standalone="no"?>
<!DOCTYPE svg PUBLIC "-//W3C//DTD SVG 1.1//EN"
 "http://www.w3.org/Graphics/SVG/1.1/DTD/svg11.dtd">
<!-- Generated by graphviz version 2.44.0 (0)
 -->
<!-- Title: matrix_reg Pages: 1 -->
<svg width="427pt" height="327pt"
 viewBox="0.00 0.00 427.00 327.00" xmlns="http://www.w3.org/2000/svg" xmlns:xlink="http://www.w3.org/1999/xlink">
<g id="graph0" class="graph" transform="scale(1 1) rotate(0) translate(4 323)">
<title>matrix_reg</title>
<!-- Node1 -->
<g id="Node000001" class="node">
<title>Node1</title>
<g id="a_Node000001"><a xlink:title=" ">
<polygon fill="#999999" stroke="#666666" points="62,-148 0,-148 0,-129 62,-129 62,-148"/>
<text text-anchor="middle" x="31" y="-136" font-family="Helvetica" font-size="10.00">matrix_reg</text>
</a>
</g>
</g>
<!-- Node2 -->
<g id="Node000002" class="node">
<title>Node2</title>
<g id="a_Node000002"><a xlink:href="kc_8cpp.html#aa517f6dc1cd623e0f2fdc5f0f9ab8534" target="_top" xlink:title=" ">
<polygon fill="white" stroke="#666666" points="304,-319 239,-319 239,-300 304,-300 304,-319"/>
<text text-anchor="middle" x="271.5" y="-307" font-family="Helvetica" font-size="10.00">matrix_free</text>
</a>
</g>
</g>
<!-- Node1&#45;&gt;Node2 -->
<g id="edge1_Node000001_Node000002" class="edge">
<title>Node1&#45;&gt;Node2</title>
<g id="a_edge1_Node000001_Node000002"><a xlink:title=" ">
<path fill="none" stroke="#63b8ff" d="M45.51,-148.18C85.03,-176.52 200.68,-259.44 248.95,-294.05"/>
<polygon fill="#63b8ff" stroke="#63b8ff" points="246.98,-296.94 257.14,-299.92 251.05,-291.25 246.98,-296.94"/>
</a>
</g>
</g>
<!-- Node3 -->
<g id="Node000003" class="node">
<title>Node3</title>
<g id="a_Node000003"><a xlink:href="kc_8cpp.html#af0e16ee0cbf76fe1a067c0f4132e8774" target="_top" xlink:title=" ">
<polygon fill="white" stroke="#666666" points="184,-167 104,-167 104,-148 184,-148 184,-167"/>
<text text-anchor="middle" x="144" y="-155" font-family="Helvetica" font-size="10.00">matrix_inverse</text>
</a>
</g>
</g>
<!-- Node1&#45;&gt;Node3 -->
<g id="edge2_Node000001_Node000003" class="edge">
<title>Node1&#45;&gt;Node3</title>
<g id="a_edge2_Node000001_Node000003"><a xlink:title=" ">
<path fill="none" stroke="#63b8ff" d="M62.04,-143.64C71.77,-145.31 82.83,-147.2 93.59,-149.04"/>
<polygon fill="#63b8ff" stroke="#63b8ff" points="93.31,-152.54 103.75,-150.78 94.49,-145.65 93.31,-152.54"/>
</a>
</g>
</g>
<!-- Node11 -->
<g id="Node000011" class="node">
<title>Node11</title>
<g id="a_Node000011"><a xlink:href="kc_8cpp.html#aef4d42f4197a1db7f6667dc7ea67956b" target="_top" xlink:title=" ">
<polygon fill="white" stroke="#666666" points="184.5,-56 103.5,-56 103.5,-37 184.5,-37 184.5,-56"/>
<text text-anchor="middle" x="144" y="-44" font-family="Helvetica" font-size="10.00">matrix_product</text>
</a>
</g>
</g>
<!-- Node1&#45;&gt;Node11 -->
<g id="edge13_Node000001_Node000011" class="edge">
<title>Node1&#45;&gt;Node11</title>
<g id="a_edge13_Node000001_Node000011"><a xlink:title=" ">
<path fill="none" stroke="#63b8ff" d="M43.66,-128.74C56.84,-117.73 78.93,-99.29 98,-83.5 106.24,-76.68 115.35,-69.18 123.21,-62.73"/>
<polygon fill="#63b8ff" stroke="#63b8ff" points="125.63,-65.27 131.14,-56.22 121.19,-59.86 125.63,-65.27"/>
</a>
</g>
</g>
<!-- Node13 -->
<g id="Node000013" class="node">
<title>Node13</title>
<g id="a_Node000013"><a xlink:href="kc_8cpp.html#a89a2987a60a852f56603492790999aba" target="_top" xlink:title=" ">
<polygon fill="white" stroke="#666666" points="190,-111 98,-111 98,-92 190,-92 190,-111"/>
<text text-anchor="middle" x="144" y="-99" font-family="Helvetica" font-size="10.00">matrix_transpose</text>
</a>
</g>
</g>
<!-- Node1&#45;&gt;Node13 -->
<g id="edge16_Node000001_Node000013" class="edge">
<title>Node1&#45;&gt;Node13</title>
<g id="a_edge16_Node000001_Node000013"><a xlink:title=" ">
<path fill="none" stroke="#63b8ff" d="M60.59,-128.97C73.95,-124.52 90.05,-119.15 104.47,-114.34"/>
<polygon fill="#63b8ff" stroke="#63b8ff" points="105.75,-117.61 114.13,-111.12 103.53,-110.97 105.75,-117.61"/>
</a>
</g>
</g>
<!-- Node3&#45;&gt;Node2 -->
<g id="edge3_Node000003_Node000002" class="edge">
<title>Node3&#45;&gt;Node2</title>
<g id="a_edge3_Node000003_Node000002"><a xlink:title=" ">
<path fill="none" stroke="#63b8ff" d="M150.37,-167.34C165.03,-194 206,-266.85 226,-285.5 229.66,-288.91 233.89,-292 238.27,-294.73"/>
<polygon fill="#63b8ff" stroke="#63b8ff" points="236.87,-297.96 247.3,-299.83 240.32,-291.86 236.87,-297.96"/>
</a>
</g>
</g>
<!-- Node4 -->
<g id="Node000004" class="node">
<title>Node4</title>
<g id="a_Node000004"><a xlink:href="kc_8cpp.html#a85a2f9c7ff758c36a67d0b8a58424404" target="_top" xlink:title=" ">
<polygon fill="white" stroke="#666666" points="317,-243 226,-243 226,-224 317,-224 317,-243"/>
<text text-anchor="middle" x="271.5" y="-231" font-family="Helvetica" font-size="10.00">matrix_ludecomp</text>
</a>
</g>
</g>
<!-- Node3&#45;&gt;Node4 -->
<g id="edge4_Node000003_Node000004" class="edge">
<title>Node3&#45;&gt;Node4</title>
<g id="a_edge4_Node000003_Node000004"><a xlink:title=" ">
<path fill="none" stroke="#63b8ff" d="M159.13,-167.04C175.14,-177.73 202.1,-195.41 226,-209.5 231.33,-212.64 237.1,-215.87 242.66,-218.9"/>
<polygon fill="#63b8ff" stroke="#63b8ff" points="241.24,-222.12 251.7,-223.77 244.55,-215.95 241.24,-222.12"/>
</a>
</g>
</g>
<!-- Node5 -->
<g id="Node000005" class="node">
<title>Node5</title>
<g id="a_Node000005"><a xlink:href="kc_8cpp.html#afc00baa57142e5db16101ade3200eea8" target="_top" xlink:title=" ">
<polygon fill="white" stroke="#666666" points="418.5,-261 353.5,-261 353.5,-242 418.5,-242 418.5,-261"/>
<text text-anchor="middle" x="386" y="-249" font-family="Helvetica" font-size="10.00">vector_free</text>
</a>
</g>
</g>
<!-- Node3&#45;&gt;Node5 -->
<g id="edge9_Node000003_Node000005" class="edge">
<title>Node3&#45;&gt;Node5</title>
<g id="a_edge9_Node000003_Node000005"><a xlink:title=" ">
<path fill="none" stroke="#63b8ff" d="M149.59,-167.15C159.89,-187.52 187.03,-234.52 226,-252.5 263.02,-269.59 310.26,-266.62 343.6,-261.06"/>
<polygon fill="#63b8ff" stroke="#63b8ff" points="344.26,-264.49 353.47,-259.27 343.01,-257.61 344.26,-264.49"/>
</a>
</g>
</g>
<!-- Node6 -->
<g id="Node000006" class="node">
<title>Node6</title>
<g id="a_Node000006"><a xlink:href="kc_8cpp.html#a155bb2cc033bfd9bafbde8d31432f7ad" target="_top" xlink:title=" ">
<polygon fill="white" stroke="#666666" points="419,-224 353,-224 353,-205 419,-205 419,-224"/>
<text text-anchor="middle" x="386" y="-212" font-family="Helvetica" font-size="10.00">vector_new</text>
</a>
</g>
</g>
<!-- Node3&#45;&gt;Node6 -->
<g id="edge10_Node000003_Node000006" class="edge">
<title>Node3&#45;&gt;Node6</title>
<g id="a_edge10_Node000003_Node000006"><a xlink:title=" ">
<path fill="none" stroke="#63b8ff" d="M184.09,-166.78C227.72,-177.15 298.04,-193.85 342.86,-204.49"/>
<polygon fill="#63b8ff" stroke="#63b8ff" points="342.31,-207.96 352.84,-206.86 343.92,-201.15 342.31,-207.96"/>
</a>
</g>
</g>
<!-- Node7 -->
<g id="Node000007" class="node">
<title>Node7</title>
<g id="a_Node000007"><a xlink:href="kc_8cpp.html#ad99cb91ebff0903217880cd395ccef58" target="_top" xlink:title=" ">
<polygon fill="white" stroke="#666666" points="311.5,-167 231.5,-167 231.5,-148 311.5,-148 311.5,-167"/>
<text text-anchor="middle" x="271.5" y="-155" font-family="Helvetica" font-size="10.00">matrix_lusubst</text>
</a>
</g>
</g>
<!-- Node3&#45;&gt;Node7 -->
<g id="edge7_Node000003_Node000007" class="edge">
<title>Node3&#45;&gt;Node7</title>
<g id="a_edge7_Node000003_Node000007"><a xlink:title=" ">
<path fill="none" stroke="#63b8ff" d="M184.02,-157.5C195.71,-157.5 208.7,-157.5 220.97,-157.5"/>
<polygon fill="#63b8ff" stroke="#63b8ff" points="221.07,-161 231.07,-157.5 221.07,-154 221.07,-161"/>
</a>
</g>
</g>
<!-- Node8 -->
<g id="Node000008" class="node">
<title>Node8</title>
<g id="a_Node000008"><a xlink:href="kc_8cpp.html#ac75528b11a2997977101b6e9ded2c7cf" target="_top" xlink:title=" ">
<polygon fill="white" stroke="#666666" points="305,-56 238,-56 238,-37 305,-37 305,-56"/>
<text text-anchor="middle" x="271.5" y="-44" font-family="Helvetica" font-size="10.00">matrix_new</text>
</a>
</g>
</g>
<!-- Node3&#45;&gt;Node8 -->
<g id="edge8_Node000003_Node000008" class="edge">
<title>Node3&#45;&gt;Node8</title>
<g id="a_edge8_Node000003_Node000008"><a xlink:title=" ">
<path fill="none" stroke="#63b8ff" d="M158.93,-147.79C168.33,-140.83 180.68,-130.89 190,-120.5 209.51,-98.75 203.61,-84.26 226,-65.5 227.97,-63.85 230.11,-62.32 232.34,-60.91"/>
<polygon fill="#63b8ff" stroke="#63b8ff" points="234.19,-63.89 241.3,-56.03 230.84,-57.74 234.19,-63.89"/>
</a>
</g>
</g>
<!-- Node9 -->
<g id="Node000009" class="node">
<title>Node9</title>
<g id="a_Node000009"><a xlink:href="kc_8cpp.html#a595f09d7b5e2d197a0d8d4cef8a061ae" target="_top" xlink:title=" ">
<polygon fill="white" stroke="#666666" points="305,-130 238,-130 238,-111 305,-111 305,-130"/>
<text text-anchor="middle" x="271.5" y="-118" font-family="Helvetica" font-size="10.00">vectori_free</text>
</a>
</g>
</g>
<!-- Node3&#45;&gt;Node9 -->
<g id="edge11_Node000003_Node000009" class="edge">
<title>Node3&#45;&gt;Node9</title>
<g id="a_edge11_Node000003_Node000009"><a xlink:title=" ">
<path fill="none" stroke="#63b8ff" d="M177.32,-147.97C192.72,-143.43 211.34,-137.94 227.87,-133.07"/>
<polygon fill="#63b8ff" stroke="#63b8ff" points="229.25,-136.31 237.85,-130.12 227.27,-129.6 229.25,-136.31"/>
</a>
</g>
</g>
<!-- Node10 -->
<g id="Node000010" class="node">
<title>Node10</title>
<g id="a_Node000010"><a xlink:href="kc_8cpp.html#a0fad130527c83326c9dfe7da022700e0" target="_top" xlink:title=" ">
<polygon fill="white" stroke="#666666" points="305.5,-93 237.5,-93 237.5,-74 305.5,-74 305.5,-93"/>
<text text-anchor="middle" x="271.5" y="-81" font-family="Helvetica" font-size="10.00">vectori_new</text>
</a>
</g>
</g>
<!-- Node3&#45;&gt;Node10 -->
<g id="edge12_Node000003_Node000010" class="edge">
<title>Node3&#45;&gt;Node10</title>
<g id="a_edge12_Node000003_Node000010"><a xlink:title=" ">
<path fill="none" stroke="#63b8ff" d="M157.42,-147.95C172.92,-136.29 200.49,-116.44 226,-102.5 229.29,-100.7 232.78,-98.95 236.31,-97.29"/>
<polygon fill="#63b8ff" stroke="#63b8ff" points="237.92,-100.41 245.62,-93.12 235.06,-94.02 237.92,-100.41"/>
</a>
</g>
</g>
<!-- Node4&#45;&gt;Node5 -->
<g id="edge5_Node000004_Node000005" class="edge">
<title>Node4&#45;&gt;Node5</title>
<g id="a_edge5_Node000004_Node000005"><a xlink:title=" ">
<path fill="none" stroke="#63b8ff" d="M317.29,-240.67C325.82,-242.03 334.73,-243.46 343.17,-244.81"/>
<polygon fill="#63b8ff" stroke="#63b8ff" points="342.76,-248.29 353.18,-246.41 343.86,-241.37 342.76,-248.29"/>
</a>
</g>
</g>
<!-- Node4&#45;&gt;Node6 -->
<g id="edge6_Node000004_Node000006" class="edge">
<title>Node4&#45;&gt;Node6</title>
<g id="a_edge6_Node000004_Node000006"><a xlink:title=" ">
<path fill="none" stroke="#63b8ff" d="M317.29,-225.94C325.74,-224.51 334.55,-223.02 342.91,-221.61"/>
<polygon fill="#63b8ff" stroke="#63b8ff" points="343.56,-225.05 352.84,-219.93 342.4,-218.15 343.56,-225.05"/>
</a>
</g>
</g>
<!-- Node11&#45;&gt;Node8 -->
<g id="edge14_Node000011_Node000008" class="edge">
<title>Node11&#45;&gt;Node8</title>
<g id="a_edge14_Node000011_Node000008"><a xlink:title=" ">
<path fill="none" stroke="#63b8ff" d="M184.71,-46.5C198.33,-46.5 213.63,-46.5 227.5,-46.5"/>
<polygon fill="#63b8ff" stroke="#63b8ff" points="227.77,-50 237.77,-46.5 227.77,-43 227.77,-50"/>
</a>
</g>
</g>
<!-- Node12 -->
<g id="Node000012" class="node">
<title>Node12</title>
<g id="a_Node000012"><a xlink:href="kc_8cpp.html#adbdc6116401c49523c4c62dde6147310" target="_top" xlink:title=" ">
<polygon fill="white" stroke="#666666" points="305,-19 238,-19 238,0 305,0 305,-19"/>
<text text-anchor="middle" x="271.5" y="-7" font-family="Helvetica" font-size="10.00">matrix_zero</text>
</a>
</g>
</g>
<!-- Node11&#45;&gt;Node12 -->
<g id="edge15_Node000011_Node000012" class="edge">
<title>Node11&#45;&gt;Node12</title>
<g id="a_edge15_Node000011_Node000012"><a xlink:title=" ">
<path fill="none" stroke="#63b8ff" d="M177.32,-36.97C192.72,-32.43 211.34,-26.94 227.87,-22.07"/>
<polygon fill="#63b8ff" stroke="#63b8ff" points="229.25,-25.31 237.85,-19.12 227.27,-18.6 229.25,-25.31"/>
</a>
</g>
</g>
<!-- Node13&#45;&gt;Node8 -->
<g id="edge17_Node000013_Node000008" class="edge">
<title>Node13&#45;&gt;Node8</title>
<g id="a_edge17_Node000013_Node000008"><a xlink:title=" ">
<path fill="none" stroke="#63b8ff" d="M166.28,-91.94C182.59,-84.64 205.68,-74.35 226,-65.5 229.99,-63.76 234.18,-61.95 238.33,-60.17"/>
<polygon fill="#63b8ff" stroke="#63b8ff" points="240.02,-63.25 247.83,-56.1 237.26,-56.82 240.02,-63.25"/>
</a>
</g>
</g>
</g>
</svg>
