<?xml version="1.0" encoding="UTF-8" standalone="no"?>
<!DOCTYPE svg PUBLIC "-//W3C//DTD SVG 1.1//EN"
 "http://www.w3.org/Graphics/SVG/1.1/DTD/svg11.dtd">
<!-- Generated by graphviz version 2.44.0 (0)
 -->
<!-- Title: factorial Pages: 1 -->
<svg width="287pt" height="64pt"
 viewBox="0.00 0.00 287.00 64.00" xmlns="http://www.w3.org/2000/svg" xmlns:xlink="http://www.w3.org/1999/xlink">
<g id="graph0" class="graph" transform="scale(1 1) rotate(0) translate(4 60)">
<title>factorial</title>
<!-- Node1 -->
<g id="Node000001" class="node">
<title>Node1</title>
<g id="a_Node000001"><a xlink:title=" ">
<polygon fill="#999999" stroke="#666666" points="279,-37 228,-37 228,-18 279,-18 279,-37"/>
<text text-anchor="middle" x="253.5" y="-25" font-family="Helvetica" font-size="10.00">factorial</text>
</a>
</g>
</g>
<!-- Node2 -->
<g id="Node000002" class="node">
<title>Node2</title>
<g id="a_Node000002"><a xlink:href="kc_8cpp.html#a1f7aff47eacc48937a5dd3ae419c6066" target="_top" xlink:title=" ">
<polygon fill="white" stroke="#666666" points="192,-56 123,-56 123,-37 192,-37 192,-56"/>
<text text-anchor="middle" x="157.5" y="-44" font-family="Helvetica" font-size="10.00">cdf_poisson</text>
</a>
</g>
</g>
<!-- Node1&#45;&gt;Node2 -->
<g id="edge1_Node000001_Node000002" class="edge">
<title>Node1&#45;&gt;Node2</title>
<g id="a_edge1_Node000001_Node000002"><a xlink:title=" ">
<path fill="none" stroke="#63b8ff" d="M217.93,-34.49C209.53,-36.18 200.57,-38 192.22,-39.68"/>
<polygon fill="#63b8ff" stroke="#63b8ff" points="218.69,-37.9 227.8,-32.49 217.31,-31.04 218.69,-37.9"/>
</a>
</g>
</g>
<!-- Node4 -->
<g id="Node000004" class="node">
<title>Node4</title>
<g id="a_Node000004"><a xlink:href="kc_8cpp.html#ad402504da1d8913d034b6db754886e90" target="_top" xlink:title=" ">
<polygon fill="white" stroke="#666666" points="192,-19 123,-19 123,0 192,0 192,-19"/>
<text text-anchor="middle" x="157.5" y="-7" font-family="Helvetica" font-size="10.00">pdf_poisson</text>
</a>
</g>
</g>
<!-- Node1&#45;&gt;Node4 -->
<g id="edge3_Node000001_Node000004" class="edge">
<title>Node1&#45;&gt;Node4</title>
<g id="a_edge3_Node000001_Node000004"><a xlink:title=" ">
<path fill="none" stroke="#63b8ff" d="M217.93,-20.88C209.53,-19.27 200.57,-17.56 192.22,-15.96"/>
<polygon fill="#63b8ff" stroke="#63b8ff" points="217.32,-24.33 227.8,-22.77 218.64,-17.45 217.32,-24.33"/>
</a>
</g>
</g>
<!-- Node3 -->
<g id="Node000003" class="node">
<title>Node3</title>
<g id="a_Node000003"><a xlink:href="kc_8cpp.html#a5e787a5eb2287b478478048a9a621fca" target="_top" xlink:title=" ">
<polygon fill="white" stroke="#666666" points="87,-37 0,-37 0,-18 87,-18 87,-37"/>
<text text-anchor="middle" x="43.5" y="-25" font-family="Helvetica" font-size="10.00">cdf_poisson_inc</text>
</a>
</g>
</g>
<!-- Node2&#45;&gt;Node3 -->
<g id="edge2_Node000002_Node000003" class="edge">
<title>Node2&#45;&gt;Node3</title>
<g id="a_edge2_Node000002_Node000003"><a xlink:title=" ">
<path fill="none" stroke="#63b8ff" d="M112.87,-39.1C104.44,-37.67 95.63,-36.17 87.23,-34.75"/>
<polygon fill="#63b8ff" stroke="#63b8ff" points="112.45,-42.58 122.9,-40.8 113.62,-35.68 112.45,-42.58"/>
</a>
</g>
</g>
<!-- Node4&#45;&gt;Node3 -->
<g id="edge4_Node000004_Node000003" class="edge">
<title>Node4&#45;&gt;Node3</title>
<g id="a_edge4_Node000004_Node000003"><a xlink:title=" ">
<path fill="none" stroke="#63b8ff" d="M112.87,-16.51C104.44,-17.87 95.63,-19.28 87.23,-20.63"/>
<polygon fill="#63b8ff" stroke="#63b8ff" points="113.58,-19.94 122.9,-14.9 112.47,-13.03 113.58,-19.94"/>
</a>
</g>
</g>
</g>
</svg>
