<?xml version="1.0" encoding="UTF-8" standalone="no"?>
<!DOCTYPE svg PUBLIC "-//W3C//DTD SVG 1.1//EN"
 "http://www.w3.org/Graphics/SVG/1.1/DTD/svg11.dtd">
<!-- Generated by graphviz version 2.44.0 (0)
 -->
<!-- Title: matrix_product3 Pages: 1 -->
<svg width="314pt" height="82pt"
 viewBox="0.00 0.00 314.00 82.00" xmlns="http://www.w3.org/2000/svg" xmlns:xlink="http://www.w3.org/1999/xlink">
<g id="graph0" class="graph" transform="scale(1 1) rotate(0) translate(4 78)">
<title>matrix_product3</title>
<!-- Node1 -->
<g id="Node000001" class="node">
<title>Node1</title>
<g id="a_Node000001"><a xlink:title=" ">
<polygon fill="#999999" stroke="#666666" points="86,-55 0,-55 0,-36 86,-36 86,-55"/>
<text text-anchor="middle" x="43" y="-43" font-family="Helvetica" font-size="10.00">matrix_product3</text>
</a>
</g>
</g>
<!-- Node2 -->
<g id="Node000002" class="node">
<title>Node2</title>
<g id="a_Node000002"><a xlink:href="kc_8cpp.html#aa517f6dc1cd623e0f2fdc5f0f9ab8534" target="_top" xlink:title=" ">
<polygon fill="white" stroke="#666666" points="195,-74 130,-74 130,-55 195,-55 195,-74"/>
<text text-anchor="middle" x="162.5" y="-62" font-family="Helvetica" font-size="10.00">matrix_free</text>
</a>
</g>
</g>
<!-- Node1&#45;&gt;Node2 -->
<g id="edge1_Node000001_Node000002" class="edge">
<title>Node1&#45;&gt;Node2</title>
<g id="a_edge1_Node000001_Node000002"><a xlink:title=" ">
<path fill="none" stroke="#63b8ff" d="M86.09,-52.31C96.97,-54.06 108.68,-55.96 119.55,-57.72"/>
<polygon fill="#63b8ff" stroke="#63b8ff" points="119.23,-61.21 129.66,-59.35 120.35,-54.3 119.23,-61.21"/>
</a>
</g>
</g>
<!-- Node3 -->
<g id="Node000003" class="node">
<title>Node3</title>
<g id="a_Node000003"><a xlink:href="kc_8cpp.html#aef4d42f4197a1db7f6667dc7ea67956b" target="_top" xlink:title=" ">
<polygon fill="white" stroke="#666666" points="203,-37 122,-37 122,-18 203,-18 203,-37"/>
<text text-anchor="middle" x="162.5" y="-25" font-family="Helvetica" font-size="10.00">matrix_product</text>
</a>
</g>
</g>
<!-- Node1&#45;&gt;Node3 -->
<g id="edge2_Node000001_Node000003" class="edge">
<title>Node1&#45;&gt;Node3</title>
<g id="a_edge2_Node000001_Node000003"><a xlink:title=" ">
<path fill="none" stroke="#63b8ff" d="M86.09,-39.05C94.33,-37.79 103.04,-36.45 111.51,-35.16"/>
<polygon fill="#63b8ff" stroke="#63b8ff" points="112.31,-38.58 121.67,-33.6 111.25,-31.66 112.31,-38.58"/>
</a>
</g>
</g>
<!-- Node4 -->
<g id="Node000004" class="node">
<title>Node4</title>
<g id="a_Node000004"><a xlink:href="kc_8cpp.html#ac75528b11a2997977101b6e9ded2c7cf" target="_top" xlink:title=" ">
<polygon fill="white" stroke="#666666" points="306,-56 239,-56 239,-37 306,-37 306,-56"/>
<text text-anchor="middle" x="272.5" y="-44" font-family="Helvetica" font-size="10.00">matrix_new</text>
</a>
</g>
</g>
<!-- Node3&#45;&gt;Node4 -->
<g id="edge3_Node000003_Node000004" class="edge">
<title>Node3&#45;&gt;Node4</title>
<g id="a_edge3_Node000003_Node000004"><a xlink:title=" ">
<path fill="none" stroke="#63b8ff" d="M203.1,-34.47C211.49,-35.94 220.38,-37.51 228.87,-39"/>
<polygon fill="#63b8ff" stroke="#63b8ff" points="228.53,-42.49 238.98,-40.78 229.74,-35.6 228.53,-42.49"/>
</a>
</g>
</g>
<!-- Node5 -->
<g id="Node000005" class="node">
<title>Node5</title>
<g id="a_Node000005"><a xlink:href="kc_8cpp.html#adbdc6116401c49523c4c62dde6147310" target="_top" xlink:title=" ">
<polygon fill="white" stroke="#666666" points="306,-19 239,-19 239,0 306,0 306,-19"/>
<text text-anchor="middle" x="272.5" y="-7" font-family="Helvetica" font-size="10.00">matrix_zero</text>
</a>
</g>
</g>
<!-- Node3&#45;&gt;Node5 -->
<g id="edge4_Node000003_Node000005" class="edge">
<title>Node3&#45;&gt;Node5</title>
<g id="a_edge4_Node000003_Node000005"><a xlink:title=" ">
<path fill="none" stroke="#63b8ff" d="M203.1,-20.9C211.49,-19.5 220.38,-18.02 228.87,-16.6"/>
<polygon fill="#63b8ff" stroke="#63b8ff" points="229.69,-20.02 238.98,-14.92 228.54,-13.11 229.69,-20.02"/>
</a>
</g>
</g>
</g>
</svg>
