<?xml version="1.0" encoding="UTF-8" standalone="no"?>
<!DOCTYPE svg PUBLIC "-//W3C//DTD SVG 1.1//EN"
 "http://www.w3.org/Graphics/SVG/1.1/DTD/svg11.dtd">
<!-- Generated by graphviz version 2.44.0 (0)
 -->
<!-- Title: matrix_sortByVector Pages: 1 -->
<svg width="233pt" height="64pt"
 viewBox="0.00 0.00 233.00 64.00" xmlns="http://www.w3.org/2000/svg" xmlns:xlink="http://www.w3.org/1999/xlink">
<g id="graph0" class="graph" transform="scale(1 1) rotate(0) translate(4 60)">
<title>matrix_sortByVector</title>
<!-- Node1 -->
<g id="Node000001" class="node">
<title>Node1</title>
<g id="a_Node000001"><a xlink:title=" ">
<polygon fill="#999999" stroke="#666666" points="225,-37 119,-37 119,-18 225,-18 225,-37"/>
<text text-anchor="middle" x="172" y="-25" font-family="Helvetica" font-size="10.00">matrix_sortByVector</text>
</a>
</g>
</g>
<!-- Node2 -->
<g id="Node000002" class="node">
<title>Node2</title>
<g id="a_Node000002"><a xlink:href="kc_8cpp.html#a165e97bd10a48d3c5da908938468212b" target="_top" xlink:title=" ">
<polygon fill="white" stroke="#666666" points="81.5,-56 1.5,-56 1.5,-37 81.5,-37 81.5,-56"/>
<text text-anchor="middle" x="41.5" y="-44" font-family="Helvetica" font-size="10.00">matrix_pcaCor</text>
</a>
</g>
</g>
<!-- Node1&#45;&gt;Node2 -->
<g id="edge1_Node000001_Node000002" class="edge">
<title>Node1&#45;&gt;Node2</title>
<g id="a_edge1_Node000001_Node000002"><a xlink:title=" ">
<path fill="none" stroke="#63b8ff" d="M108.78,-36.7C99.56,-38.06 90.28,-39.43 81.71,-40.7"/>
<polygon fill="#63b8ff" stroke="#63b8ff" points="109.35,-40.15 118.73,-35.23 108.33,-33.23 109.35,-40.15"/>
</a>
</g>
</g>
<!-- Node3 -->
<g id="Node000003" class="node">
<title>Node3</title>
<g id="a_Node000003"><a xlink:href="kc_8cpp.html#ae64a3eb3736d5788d72eaf7ad6927421" target="_top" xlink:title=" ">
<polygon fill="white" stroke="#666666" points="83,-19 0,-19 0,0 83,0 83,-19"/>
<text text-anchor="middle" x="41.5" y="-7" font-family="Helvetica" font-size="10.00">matrix_pcaCov</text>
</a>
</g>
</g>
<!-- Node1&#45;&gt;Node3 -->
<g id="edge2_Node000001_Node000003" class="edge">
<title>Node1&#45;&gt;Node3</title>
<g id="a_edge2_Node000001_Node000003"><a xlink:title=" ">
<path fill="none" stroke="#63b8ff" d="M108.67,-18.77C100.05,-17.56 91.38,-16.35 83.29,-15.21"/>
<polygon fill="#63b8ff" stroke="#63b8ff" points="108.35,-22.26 118.73,-20.18 109.32,-15.33 108.35,-22.26"/>
</a>
</g>
</g>
</g>
</svg>
