<?xml version="1.0" encoding="UTF-8" standalone="no"?>
<!DOCTYPE svg PUBLIC "-//W3C//DTD SVG 1.1//EN"
 "http://www.w3.org/Graphics/SVG/1.1/DTD/svg11.dtd">
<!-- Generated by graphviz version 2.44.0 (0)
 -->
<!-- Title: kstest_onesample Pages: 1 -->
<svg width="202pt" height="64pt"
 viewBox="0.00 0.00 202.00 64.00" xmlns="http://www.w3.org/2000/svg" xmlns:xlink="http://www.w3.org/1999/xlink">
<g id="graph0" class="graph" transform="scale(1 1) rotate(0) translate(4 60)">
<title>kstest_onesample</title>
<!-- Node1 -->
<g id="Node000001" class="node">
<title>Node1</title>
<g id="a_Node000001"><a xlink:title=" ">
<polygon fill="#999999" stroke="#666666" points="96,-37 0,-37 0,-18 96,-18 96,-37"/>
<text text-anchor="middle" x="48" y="-25" font-family="Helvetica" font-size="10.00">kstest_onesample</text>
</a>
</g>
</g>
<!-- Node2 -->
<g id="Node000002" class="node">
<title>Node2</title>
<g id="a_Node000002"><a xlink:href="kc_8cpp.html#a143f0d120ce98a745cf55be12076967a" target="_top" xlink:title=" ">
<polygon fill="white" stroke="#666666" points="186,-56 140,-56 140,-37 186,-37 186,-56"/>
<text text-anchor="middle" x="163" y="-44" font-family="Helvetica" font-size="10.00">probks</text>
</a>
</g>
</g>
<!-- Node1&#45;&gt;Node2 -->
<g id="edge1_Node000001_Node000002" class="edge">
<title>Node1&#45;&gt;Node2</title>
<g id="a_edge1_Node000001_Node000002"><a xlink:title=" ">
<path fill="none" stroke="#63b8ff" d="M96.27,-35.45C107.61,-37.35 119.46,-39.35 129.92,-41.11"/>
<polygon fill="#63b8ff" stroke="#63b8ff" points="129.41,-44.57 139.86,-42.78 130.57,-37.67 129.41,-44.57"/>
</a>
</g>
</g>
<!-- Node3 -->
<g id="Node000003" class="node">
<title>Node3</title>
<g id="a_Node000003"><a xlink:href="kc_8cpp.html#a09f1787a49a1a27fcfaa05325d628b57" target="_top" xlink:title=" ">
<polygon fill="white" stroke="#666666" points="194,-19 132,-19 132,0 194,0 194,-19"/>
<text text-anchor="middle" x="163" y="-7" font-family="Helvetica" font-size="10.00">quick_sort</text>
</a>
</g>
</g>
<!-- Node1&#45;&gt;Node3 -->
<g id="edge2_Node000001_Node000003" class="edge">
<title>Node1&#45;&gt;Node3</title>
<g id="a_edge2_Node000001_Node000003"><a xlink:title=" ">
<path fill="none" stroke="#63b8ff" d="M96.27,-19.97C104.87,-18.6 113.76,-17.18 122.12,-15.85"/>
<polygon fill="#63b8ff" stroke="#63b8ff" points="122.67,-19.31 132,-14.28 121.57,-12.4 122.67,-19.31"/>
</a>
</g>
</g>
</g>
</svg>
