<?xml version="1.0" encoding="UTF-8" standalone="no"?>
<!DOCTYPE svg PUBLIC "-//W3C//DTD SVG 1.1//EN"
 "http://www.w3.org/Graphics/SVG/1.1/DTD/svg11.dtd">
<!-- Generated by graphviz version 2.44.0 (0)
 -->
<!-- Title: gcf Pages: 1 -->
<svg width="1117pt" height="249pt"
 viewBox="0.00 0.00 1117.00 249.00" xmlns="http://www.w3.org/2000/svg" xmlns:xlink="http://www.w3.org/1999/xlink">
<g id="graph0" class="graph" transform="scale(1 1) rotate(0) translate(4 245)">
<title>gcf</title>
<!-- Node1 -->
<g id="Node000001" class="node">
<title>Node1</title>
<g id="a_Node000001"><a xlink:title=" ">
<polygon fill="#999999" stroke="#666666" points="1109,-74 1079,-74 1079,-55 1109,-55 1109,-74"/>
<text text-anchor="middle" x="1094" y="-62" font-family="Helvetica" font-size="10.00">gcf</text>
</a>
</g>
</g>
<!-- Node2 -->
<g id="Node000002" class="node">
<title>Node2</title>
<g id="a_Node000002"><a xlink:href="kc_8cpp.html#aa1745417f9696825bc7cc68538800b5b" target="_top" xlink:title=" ">
<polygon fill="white" stroke="#666666" points="1043,-74 994,-74 994,-55 1043,-55 1043,-74"/>
<text text-anchor="middle" x="1018.5" y="-62" font-family="Helvetica" font-size="10.00">gammp</text>
</a>
</g>
</g>
<!-- Node1&#45;&gt;Node2 -->
<g id="edge1_Node000001_Node000002" class="edge">
<title>Node1&#45;&gt;Node2</title>
<g id="a_edge1_Node000001_Node000002"><a xlink:title=" ">
<path fill="none" stroke="#63b8ff" d="M1068.73,-64.5C1060.51,-64.5 1051.35,-64.5 1043.17,-64.5"/>
<polygon fill="#63b8ff" stroke="#63b8ff" points="1068.83,-68 1078.83,-64.5 1068.83,-61 1068.83,-68"/>
</a>
</g>
</g>
<!-- Node3 -->
<g id="Node000003" class="node">
<title>Node3</title>
<g id="a_Node000003"><a xlink:href="kc_8cpp.html#ab600bf758ebb6d37ebd914533e27691d" target="_top" xlink:title=" ">
<polygon fill="white" stroke="#666666" points="950,-167 897,-167 897,-148 950,-148 950,-167"/>
<text text-anchor="middle" x="923.5" y="-155" font-family="Helvetica" font-size="10.00">cdf_chi2</text>
</a>
</g>
</g>
<!-- Node2&#45;&gt;Node3 -->
<g id="edge2_Node000002_Node000003" class="edge">
<title>Node2&#45;&gt;Node3</title>
<g id="a_edge2_Node000002_Node000003"><a xlink:title=" ">
<path fill="none" stroke="#63b8ff" d="M1000.61,-81.39C981.17,-100.83 949.91,-132.09 934.19,-147.81"/>
<polygon fill="#63b8ff" stroke="#63b8ff" points="1003.3,-83.65 1007.9,-74.1 998.35,-78.7 1003.3,-83.65"/>
</a>
</g>
</g>
<!-- Node11 -->
<g id="Node000011" class="node">
<title>Node11</title>
<g id="a_Node000011"><a xlink:href="kc_8cpp.html#a1f7aff47eacc48937a5dd3ae419c6066" target="_top" xlink:title=" ">
<polygon fill="white" stroke="#666666" points="958,-93 889,-93 889,-74 958,-74 958,-93"/>
<text text-anchor="middle" x="923.5" y="-81" font-family="Helvetica" font-size="10.00">cdf_poisson</text>
</a>
</g>
</g>
<!-- Node2&#45;&gt;Node11 -->
<g id="edge10_Node000002_Node000011" class="edge">
<title>Node2&#45;&gt;Node11</title>
<g id="a_edge10_Node000002_Node000011"><a xlink:title=" ">
<path fill="none" stroke="#63b8ff" d="M983.49,-71.45C975.24,-73.13 966.42,-74.94 958.18,-76.62"/>
<polygon fill="#63b8ff" stroke="#63b8ff" points="984.45,-74.82 993.55,-69.39 983.05,-67.97 984.45,-74.82"/>
</a>
</g>
</g>
<!-- Node13 -->
<g id="Node000013" class="node">
<title>Node13</title>
<g id="a_Node000013"><a xlink:href="kc_8cpp.html#afafd5c993f50f8676e0a2095ce62c012" target="_top" xlink:title=" ">
<polygon fill="white" stroke="#666666" points="943.5,-56 903.5,-56 903.5,-37 943.5,-37 943.5,-56"/>
<text text-anchor="middle" x="923.5" y="-44" font-family="Helvetica" font-size="10.00">errorf</text>
</a>
</g>
</g>
<!-- Node2&#45;&gt;Node13 -->
<g id="edge12_Node000002_Node000013" class="edge">
<title>Node2&#45;&gt;Node13</title>
<g id="a_edge12_Node000002_Node000013"><a xlink:title=" ">
<path fill="none" stroke="#63b8ff" d="M983.64,-57.95C970.19,-55.34 955.2,-52.44 943.69,-50.21"/>
<polygon fill="#63b8ff" stroke="#63b8ff" points="983.07,-61.4 993.55,-59.86 984.4,-54.53 983.07,-61.4"/>
</a>
</g>
</g>
<!-- Node22 -->
<g id="Node000022" class="node">
<title>Node22</title>
<g id="a_Node000022"><a xlink:href="kc_8cpp.html#a3875415d74d3aaf6f58d9e58fc061efd" target="_top" xlink:title=" ">
<polygon fill="white" stroke="#666666" points="948,-19 899,-19 899,0 948,0 948,-19"/>
<text text-anchor="middle" x="923.5" y="-7" font-family="Helvetica" font-size="10.00">gammq</text>
</a>
</g>
</g>
<!-- Node2&#45;&gt;Node22 -->
<g id="edge21_Node000002_Node000022" class="edge">
<title>Node2&#45;&gt;Node22</title>
<g id="a_edge21_Node000002_Node000022"><a xlink:title=" ">
<path fill="none" stroke="#63b8ff" d="M993.1,-49.52C982.37,-42.99 969.6,-35.3 958,-28.5 952.69,-25.39 946.87,-22.06 941.6,-19.07"/>
<polygon fill="#63b8ff" stroke="#63b8ff" points="991.55,-52.68 1001.91,-54.9 995.2,-46.71 991.55,-52.68"/>
</a>
</g>
</g>
<!-- Node4 -->
<g id="Node000004" class="node">
<title>Node4</title>
<g id="a_Node000004"><a xlink:href="kc_8cpp.html#adf37c70a909881088c54291500d5f848" target="_top" xlink:title=" ">
<polygon fill="white" stroke="#666666" points="816,-241 765,-241 765,-222 816,-222 816,-241"/>
<text text-anchor="middle" x="790.5" y="-229" font-family="Helvetica" font-size="10.00">chi2test</text>
</a>
</g>
</g>
<!-- Node3&#45;&gt;Node4 -->
<g id="edge3_Node000003_Node000004" class="edge">
<title>Node3&#45;&gt;Node4</title>
<g id="a_edge3_Node000003_Node000004"><a xlink:title=" ">
<path fill="none" stroke="#63b8ff" d="M905.61,-174.32C892.32,-186.72 872.79,-203.16 853,-213.5 841.46,-219.53 827.63,-223.81 816,-226.67"/>
<polygon fill="#63b8ff" stroke="#63b8ff" points="908.23,-176.66 913.03,-167.21 903.39,-171.6 908.23,-176.66"/>
</a>
</g>
</g>
<!-- Node5 -->
<g id="Node000005" class="node">
<title>Node5</title>
<g id="a_Node000005"><a xlink:href="kc_8cpp.html#ac06495bdbe2a0b6c4f235664bc002c80" target="_top" xlink:title=" ">
<polygon fill="white" stroke="#666666" points="839.5,-204 741.5,-204 741.5,-185 839.5,-185 839.5,-204"/>
<text text-anchor="middle" x="790.5" y="-192" font-family="Helvetica" font-size="10.00">chi2test_2by2table</text>
</a>
</g>
</g>
<!-- Node3&#45;&gt;Node5 -->
<g id="edge4_Node000003_Node000005" class="edge">
<title>Node3&#45;&gt;Node5</title>
<g id="a_edge4_Node000003_Node000005"><a xlink:title=" ">
<path fill="none" stroke="#63b8ff" d="M887.08,-167.5C867.92,-172.92 844.37,-179.57 825.44,-184.91"/>
<polygon fill="#63b8ff" stroke="#63b8ff" points="888.26,-170.81 896.93,-164.72 886.36,-164.07 888.26,-170.81"/>
</a>
</g>
</g>
<!-- Node6 -->
<g id="Node000006" class="node">
<title>Node6</title>
<g id="a_Node000006"><a xlink:href="kc_8cpp.html#a6f7008da290a84b7ba4e26e232a645dc" target="_top" xlink:title=" ">
<polygon fill="white" stroke="#666666" points="842.5,-167 738.5,-167 738.5,-148 842.5,-148 842.5,-167"/>
<text text-anchor="middle" x="790.5" y="-155" font-family="Helvetica" font-size="10.00">chi2test_onesample</text>
</a>
</g>
</g>
<!-- Node3&#45;&gt;Node6 -->
<g id="edge5_Node000003_Node000006" class="edge">
<title>Node3&#45;&gt;Node6</title>
<g id="a_edge5_Node000003_Node000006"><a xlink:title=" ">
<path fill="none" stroke="#63b8ff" d="M886.6,-157.5C873.07,-157.5 857.42,-157.5 842.76,-157.5"/>
<polygon fill="#63b8ff" stroke="#63b8ff" points="886.93,-161 896.93,-157.5 886.93,-154 886.93,-161"/>
</a>
</g>
</g>
<!-- Node9 -->
<g id="Node000009" class="node">
<title>Node9</title>
<g id="a_Node000009"><a xlink:href="kc_8cpp.html#a229578c847d01eeceb5d7bfe5ddf6c37" target="_top" xlink:title=" ">
<polygon fill="white" stroke="#666666" points="853,-130 728,-130 728,-111 853,-111 853,-130"/>
<text text-anchor="middle" x="790.5" y="-118" font-family="Helvetica" font-size="10.00">chi2test_trend_2by3table</text>
</a>
</g>
</g>
<!-- Node3&#45;&gt;Node9 -->
<g id="edge8_Node000003_Node000009" class="edge">
<title>Node3&#45;&gt;Node9</title>
<g id="a_edge8_Node000003_Node000009"><a xlink:title=" ">
<path fill="none" stroke="#63b8ff" d="M887.08,-147.5C867.92,-142.08 844.37,-135.43 825.44,-130.09"/>
<polygon fill="#63b8ff" stroke="#63b8ff" points="886.36,-150.93 896.93,-150.28 888.26,-144.19 886.36,-150.93"/>
</a>
</g>
</g>
<!-- Node7 -->
<g id="Node000007" class="node">
<title>Node7</title>
<g id="a_Node000007"><a xlink:href="kc_8cpp.html#a96ec673538c48e142ea769df221d2ca9" target="_top" xlink:title=" ">
<polygon fill="white" stroke="#666666" points="678.5,-167 580.5,-167 580.5,-148 678.5,-148 678.5,-167"/>
<text text-anchor="middle" x="629.5" y="-155" font-family="Helvetica" font-size="10.00">chi2test_2by3table</text>
</a>
</g>
</g>
<!-- Node6&#45;&gt;Node7 -->
<g id="edge6_Node000006_Node000007" class="edge">
<title>Node6&#45;&gt;Node7</title>
<g id="a_edge6_Node000006_Node000007"><a xlink:title=" ">
<path fill="none" stroke="#63b8ff" d="M728.24,-157.5C711.79,-157.5 694.24,-157.5 678.61,-157.5"/>
<polygon fill="#63b8ff" stroke="#63b8ff" points="728.32,-161 738.32,-157.5 728.32,-154 728.32,-161"/>
</a>
</g>
</g>
<!-- Node8 -->
<g id="Node000008" class="node">
<title>Node8</title>
<g id="a_Node000008"><a xlink:href="kc_8cpp.html#a3208fdc700d8fc604d6446c1180e58cd" target="_top" xlink:title=" ">
<polygon fill="white" stroke="#666666" points="524.5,-167 426.5,-167 426.5,-148 524.5,-148 524.5,-167"/>
<text text-anchor="middle" x="475.5" y="-155" font-family="Helvetica" font-size="10.00">chi2test_3by2table</text>
</a>
</g>
</g>
<!-- Node7&#45;&gt;Node8 -->
<g id="edge7_Node000007_Node000008" class="edge">
<title>Node7&#45;&gt;Node8</title>
<g id="a_edge7_Node000007_Node000008"><a xlink:title=" ">
<path fill="none" stroke="#63b8ff" d="M570.16,-157.5C555.08,-157.5 539.02,-157.5 524.54,-157.5"/>
<polygon fill="#63b8ff" stroke="#63b8ff" points="570.41,-161 580.41,-157.5 570.41,-154 570.41,-161"/>
</a>
</g>
</g>
<!-- Node10 -->
<g id="Node000010" class="node">
<title>Node10</title>
<g id="a_Node000010"><a xlink:href="kc_8cpp.html#a5ac369578aba21ff5f35f9e2c7320fa4" target="_top" xlink:title=" ">
<polygon fill="white" stroke="#666666" points="692,-130 567,-130 567,-111 692,-111 692,-130"/>
<text text-anchor="middle" x="629.5" y="-118" font-family="Helvetica" font-size="10.00">chi2test_trend_3by2table</text>
</a>
</g>
</g>
<!-- Node9&#45;&gt;Node10 -->
<g id="edge9_Node000009_Node000010" class="edge">
<title>Node9&#45;&gt;Node10</title>
<g id="a_edge9_Node000009_Node000010"><a xlink:title=" ">
<path fill="none" stroke="#63b8ff" d="M717.41,-120.5C709.01,-120.5 700.5,-120.5 692.26,-120.5"/>
<polygon fill="#63b8ff" stroke="#63b8ff" points="717.57,-124 727.57,-120.5 717.57,-117 717.57,-124"/>
</a>
</g>
</g>
<!-- Node12 -->
<g id="Node000012" class="node">
<title>Node12</title>
<g id="a_Node000012"><a xlink:href="kc_8cpp.html#a5e787a5eb2287b478478048a9a621fca" target="_top" xlink:title=" ">
<polygon fill="white" stroke="#666666" points="834,-93 747,-93 747,-74 834,-74 834,-93"/>
<text text-anchor="middle" x="790.5" y="-81" font-family="Helvetica" font-size="10.00">cdf_poisson_inc</text>
</a>
</g>
</g>
<!-- Node11&#45;&gt;Node12 -->
<g id="edge11_Node000011_Node000012" class="edge">
<title>Node11&#45;&gt;Node12</title>
<g id="a_edge11_Node000011_Node000012"><a xlink:title=" ">
<path fill="none" stroke="#63b8ff" d="M878.62,-83.5C864.25,-83.5 848.32,-83.5 834.05,-83.5"/>
<polygon fill="#63b8ff" stroke="#63b8ff" points="878.76,-87 888.76,-83.5 878.76,-80 878.76,-87"/>
</a>
</g>
</g>
<!-- Node14 -->
<g id="Node000014" class="node">
<title>Node14</title>
<g id="a_Node000014"><a xlink:href="kc_8cpp.html#ad7f21bf6ad62e142c785825e00a546e3" target="_top" xlink:title=" ">
<polygon fill="white" stroke="#666666" points="823,-56 758,-56 758,-37 823,-37 823,-56"/>
<text text-anchor="middle" x="790.5" y="-44" font-family="Helvetica" font-size="10.00">cdf_normal</text>
</a>
</g>
</g>
<!-- Node13&#45;&gt;Node14 -->
<g id="edge13_Node000013_Node000014" class="edge">
<title>Node13&#45;&gt;Node14</title>
<g id="a_edge13_Node000013_Node000014"><a xlink:title=" ">
<path fill="none" stroke="#63b8ff" d="M893.3,-46.5C872.51,-46.5 844.59,-46.5 823.25,-46.5"/>
<polygon fill="#63b8ff" stroke="#63b8ff" points="893.45,-50 903.45,-46.5 893.45,-43 893.45,-50"/>
</a>
</g>
</g>
<!-- Node21 -->
<g id="Node000021" class="node">
<title>Node21</title>
<g id="a_Node000021"><a xlink:href="kc_8cpp.html#a05188c3bfc69f9c84a6e22f6b0e11cc7" target="_top" xlink:title=" ">
<polygon fill="white" stroke="#666666" points="829.5,-19 751.5,-19 751.5,0 829.5,0 829.5,-19"/>
<text text-anchor="middle" x="790.5" y="-7" font-family="Helvetica" font-size="10.00">cdf_stdnormal</text>
</a>
</g>
</g>
<!-- Node13&#45;&gt;Node21 -->
<g id="edge20_Node000013_Node000021" class="edge">
<title>Node13&#45;&gt;Node21</title>
<g id="a_edge20_Node000013_Node000021"><a xlink:title=" ">
<path fill="none" stroke="#63b8ff" d="M893.6,-38.34C873.43,-32.64 846.46,-25.02 825.3,-19.05"/>
<polygon fill="#63b8ff" stroke="#63b8ff" points="892.88,-41.77 903.45,-41.12 894.78,-35.03 892.88,-41.77"/>
</a>
</g>
</g>
<!-- Node15 -->
<g id="Node000015" class="node">
<title>Node15</title>
<g id="a_Node000015"><a xlink:href="khmm_8cpp.html#a652a672a2d4cba451fe4f5a0af94d977" target="_top" xlink:title="O2 emission probability.">
<polygon fill="white" stroke="#666666" points="648.5,-56 610.5,-56 610.5,-37 648.5,-37 648.5,-56"/>
<text text-anchor="middle" x="629.5" y="-44" font-family="Helvetica" font-size="10.00">b2iot</text>
</a>
</g>
</g>
<!-- Node14&#45;&gt;Node15 -->
<g id="edge14_Node000014_Node000015" class="edge">
<title>Node14&#45;&gt;Node15</title>
<g id="a_edge14_Node000014_Node000015"><a xlink:title=" ">
<path fill="none" stroke="#63b8ff" d="M747.7,-46.5C715.61,-46.5 672.85,-46.5 648.85,-46.5"/>
<polygon fill="#63b8ff" stroke="#63b8ff" points="747.71,-50 757.71,-46.5 747.71,-43 747.71,-50"/>
</a>
</g>
</g>
<!-- Node16 -->
<g id="Node000016" class="node">
<title>Node16</title>
<g id="a_Node000016"><a xlink:href="khmm_8cpp.html#a51dbadd369b498ec093b590f39e8ea96" target="_top" xlink:title="Viterbi algorithm.">
<polygon fill="white" stroke="#666666" points="531,-56 420,-56 420,-37 531,-37 531,-56"/>
<text text-anchor="middle" x="475.5" y="-44" font-family="Helvetica" font-size="10.00">ViterbiLogNP_CHMM</text>
</a>
</g>
</g>
<!-- Node15&#45;&gt;Node16 -->
<g id="edge15_Node000015_Node000016" class="edge">
<title>Node15&#45;&gt;Node16</title>
<g id="a_edge15_Node000015_Node000016"><a xlink:title=" ">
<path fill="none" stroke="#63b8ff" d="M600.2,-46.5C580.81,-46.5 554.46,-46.5 531.07,-46.5"/>
<polygon fill="#63b8ff" stroke="#63b8ff" points="600.47,-50 610.47,-46.5 600.47,-43 600.47,-50"/>
</a>
</g>
</g>
<!-- Node17 -->
<g id="Node000017" class="node">
<title>Node17</title>
<g id="a_Node000017"><a xlink:href="khmm_8cpp.html#ac44ba55ccbb73d2b015ca7537479381e" target="_top" xlink:title="Run the main HMM algorithm.">
<polygon fill="white" stroke="#666666" points="384,-56 303,-56 303,-37 384,-37 384,-56"/>
<text text-anchor="middle" x="343.5" y="-44" font-family="Helvetica" font-size="10.00">testVit_CHMM</text>
</a>
</g>
</g>
<!-- Node16&#45;&gt;Node17 -->
<g id="edge16_Node000016_Node000017" class="edge">
<title>Node16&#45;&gt;Node17</title>
<g id="a_edge16_Node000016_Node000017"><a xlink:title=" ">
<path fill="none" stroke="#63b8ff" d="M409.6,-46.5C400.92,-46.5 392.25,-46.5 384.19,-46.5"/>
<polygon fill="#63b8ff" stroke="#63b8ff" points="409.75,-50 419.75,-46.5 409.75,-43 409.75,-50"/>
</a>
</g>
</g>
<!-- Node18 -->
<g id="Node000018" class="node">
<title>Node18</title>
<g id="a_Node000018"><a xlink:href="class_c_n_v_caller.html#a49824c662095f9af9a38056dadc8933f" target="_top" xlink:title=" ">
<polygon fill="white" stroke="#666666" points="267,-56 185,-56 185,-37 267,-37 267,-56"/>
<text text-anchor="middle" x="226" y="-44" font-family="Helvetica" font-size="10.00">CNVCaller::run</text>
</a>
</g>
</g>
<!-- Node17&#45;&gt;Node18 -->
<g id="edge17_Node000017_Node000018" class="edge">
<title>Node17&#45;&gt;Node18</title>
<g id="a_edge17_Node000017_Node000018"><a xlink:title=" ">
<path fill="none" stroke="#63b8ff" d="M292.58,-46.5C284.1,-46.5 275.4,-46.5 267.21,-46.5"/>
<polygon fill="#63b8ff" stroke="#63b8ff" points="292.75,-50 302.75,-46.5 292.75,-43 292.75,-50"/>
</a>
</g>
</g>
<!-- Node19 -->
<g id="Node000019" class="node">
<title>Node19</title>
<g id="a_Node000019"><a xlink:href="class_context_s_v.html#ac9d32b6e28e5bfdf10e314db0e90e4cd" target="_top" xlink:title=" ">
<polygon fill="white" stroke="#666666" points="149,-56 66,-56 66,-37 149,-37 149,-56"/>
<text text-anchor="middle" x="107.5" y="-44" font-family="Helvetica" font-size="10.00">ContextSV::run</text>
</a>
</g>
</g>
<!-- Node18&#45;&gt;Node19 -->
<g id="edge18_Node000018_Node000019" class="edge">
<title>Node18&#45;&gt;Node19</title>
<g id="a_edge18_Node000018_Node000019"><a xlink:title=" ">
<path fill="none" stroke="#63b8ff" d="M174.65,-46.5C166.1,-46.5 157.32,-46.5 149.06,-46.5"/>
<polygon fill="#63b8ff" stroke="#63b8ff" points="174.91,-50 184.91,-46.5 174.91,-43 174.91,-50"/>
</a>
</g>
</g>
<!-- Node20 -->
<g id="Node000020" class="node">
<title>Node20</title>
<g id="a_Node000020"><a xlink:href="swig__interface_8cpp.html#ade07e2f2bb85b7aaac8af156f3e962f6" target="_top" xlink:title=" ">
<polygon fill="white" stroke="#666666" points="30,-56 0,-56 0,-37 30,-37 30,-56"/>
<text text-anchor="middle" x="15" y="-44" font-family="Helvetica" font-size="10.00">run</text>
</a>
</g>
</g>
<!-- Node19&#45;&gt;Node20 -->
<g id="edge19_Node000019_Node000020" class="edge">
<title>Node19&#45;&gt;Node20</title>
<g id="a_edge19_Node000019_Node000020"><a xlink:title=" ">
<path fill="none" stroke="#63b8ff" d="M55.56,-46.5C46.21,-46.5 37.19,-46.5 30.13,-46.5"/>
<polygon fill="#63b8ff" stroke="#63b8ff" points="55.75,-50 65.75,-46.5 55.75,-43 55.75,-50"/>
</a>
</g>
</g>
</g>
</svg>
