<?xml version="1.0" encoding="UTF-8" standalone="no"?>
<!DOCTYPE svg PUBLIC "-//W3C//DTD SVG 1.1//EN"
 "http://www.w3.org/Graphics/SVG/1.1/DTD/svg11.dtd">
<!-- Generated by graphviz version 2.44.0 (0)
 -->
<!-- Title: cdf_f Pages: 1 -->
<svg width="207pt" height="64pt"
 viewBox="0.00 0.00 207.00 64.00" xmlns="http://www.w3.org/2000/svg" xmlns:xlink="http://www.w3.org/1999/xlink">
<g id="graph0" class="graph" transform="scale(1 1) rotate(0) translate(4 60)">
<title>cdf_f</title>
<!-- Node1 -->
<g id="Node000001" class="node">
<title>Node1</title>
<g id="a_Node000001"><a xlink:title=" ">
<polygon fill="#999999" stroke="#666666" points="38,-37 0,-37 0,-18 38,-18 38,-37"/>
<text text-anchor="middle" x="19" y="-25" font-family="Helvetica" font-size="10.00">cdf_f</text>
</a>
</g>
</g>
<!-- Node2 -->
<g id="Node000002" class="node">
<title>Node2</title>
<g id="a_Node000002"><a xlink:href="kc_8cpp.html#aff974d448122c33ebffbaf2666c42092" target="_top" xlink:title=" ">
<polygon fill="white" stroke="#666666" points="112,-37 74,-37 74,-18 112,-18 112,-37"/>
<text text-anchor="middle" x="93" y="-25" font-family="Helvetica" font-size="10.00">betai</text>
</a>
</g>
</g>
<!-- Node1&#45;&gt;Node2 -->
<g id="edge1_Node000001_Node000002" class="edge">
<title>Node1&#45;&gt;Node2</title>
<g id="a_edge1_Node000001_Node000002"><a xlink:title=" ">
<path fill="none" stroke="#63b8ff" d="M38.17,-27.5C45.87,-27.5 55.03,-27.5 63.58,-27.5"/>
<polygon fill="#63b8ff" stroke="#63b8ff" points="63.59,-31 73.59,-27.5 63.59,-24 63.59,-31"/>
</a>
</g>
</g>
<!-- Node3 -->
<g id="Node000003" class="node">
<title>Node3</title>
<g id="a_Node000003"><a xlink:href="kc_8cpp.html#a1d6e649feccbc1d73424037ed02d7418" target="_top" xlink:title=" ">
<polygon fill="white" stroke="#666666" points="195.5,-56 151.5,-56 151.5,-37 195.5,-37 195.5,-56"/>
<text text-anchor="middle" x="173.5" y="-44" font-family="Helvetica" font-size="10.00">betacf</text>
</a>
</g>
</g>
<!-- Node2&#45;&gt;Node3 -->
<g id="edge2_Node000002_Node000003" class="edge">
<title>Node2&#45;&gt;Node3</title>
<g id="a_edge2_Node000002_Node000003"><a xlink:title=" ">
<path fill="none" stroke="#63b8ff" d="M112.21,-31.91C120.88,-34.01 131.5,-36.58 141.39,-38.97"/>
<polygon fill="#63b8ff" stroke="#63b8ff" points="140.79,-42.43 151.33,-41.38 142.44,-35.62 140.79,-42.43"/>
</a>
</g>
</g>
<!-- Node4 -->
<g id="Node000004" class="node">
<title>Node4</title>
<g id="a_Node000004"><a xlink:href="kc_8cpp.html#a69cc1b545a83a4d9f187e131500aee45" target="_top" xlink:title=" ">
<polygon fill="white" stroke="#666666" points="199,-19 148,-19 148,0 199,0 199,-19"/>
<text text-anchor="middle" x="173.5" y="-7" font-family="Helvetica" font-size="10.00">gammln</text>
</a>
</g>
</g>
<!-- Node2&#45;&gt;Node4 -->
<g id="edge3_Node000002_Node000004" class="edge">
<title>Node2&#45;&gt;Node4</title>
<g id="a_edge3_Node000002_Node000004"><a xlink:title=" ">
<path fill="none" stroke="#63b8ff" d="M112.21,-23.33C119.91,-21.56 129.14,-19.44 138.04,-17.4"/>
<polygon fill="#63b8ff" stroke="#63b8ff" points="138.89,-20.8 147.85,-15.15 137.32,-13.98 138.89,-20.8"/>
</a>
</g>
</g>
</g>
</svg>
