<?xml version="1.0" encoding="UTF-8" standalone="no"?>
<!DOCTYPE svg PUBLIC "-//W3C//DTD SVG 1.1//EN"
 "http://www.w3.org/Graphics/SVG/1.1/DTD/svg11.dtd">
<!-- Generated by graphviz version 2.44.0 (0)
 -->
<!-- Title: matrix_pcaComVar Pages: 1 -->
<svg width="456pt" height="328pt"
 viewBox="0.00 0.00 456.00 328.00" xmlns="http://www.w3.org/2000/svg" xmlns:xlink="http://www.w3.org/1999/xlink">
<g id="graph0" class="graph" transform="scale(1 1) rotate(0) translate(4 324)">
<title>matrix_pcaComVar</title>
<!-- Node1 -->
<g id="Node000001" class="node">
<title>Node1</title>
<g id="a_Node000001"><a xlink:title=" ">
<polygon fill="#999999" stroke="#666666" points="100,-151 0,-151 0,-132 100,-132 100,-151"/>
<text text-anchor="middle" x="50" y="-139" font-family="Helvetica" font-size="10.00">matrix_pcaComVar</text>
</a>
</g>
</g>
<!-- Node2 -->
<g id="Node000002" class="node">
<title>Node2</title>
<g id="a_Node000002"><a xlink:href="kc_8cpp.html#ad5ea42776f7ed1dcb54d04db645487c3" target="_top" xlink:title=" ">
<polygon fill="white" stroke="#666666" points="214.5,-132 138.5,-132 138.5,-113 214.5,-113 214.5,-132"/>
<text text-anchor="middle" x="176.5" y="-120" font-family="Helvetica" font-size="10.00">matrix_colVar</text>
</a>
</g>
</g>
<!-- Node1&#45;&gt;Node2 -->
<g id="edge1_Node000001_Node000002" class="edge">
<title>Node1&#45;&gt;Node2</title>
<g id="a_edge1_Node000001_Node000002"><a xlink:title=" ">
<path fill="none" stroke="#63b8ff" d="M100.21,-133.99C109.39,-132.59 118.97,-131.13 128.1,-129.73"/>
<polygon fill="#63b8ff" stroke="#63b8ff" points="128.81,-133.17 138.17,-128.2 127.76,-126.25 128.81,-133.17"/>
</a>
</g>
</g>
<!-- Node6 -->
<g id="Node000006" class="node">
<title>Node6</title>
<g id="a_Node000006"><a xlink:href="kc_8cpp.html#a487b6171c617a9bdb3b3337dab2fc046" target="_top" xlink:title=" ">
<polygon fill="white" stroke="#666666" points="211.5,-170 141.5,-170 141.5,-151 211.5,-151 211.5,-170"/>
<text text-anchor="middle" x="176.5" y="-158" font-family="Helvetica" font-size="10.00">matrix_copy</text>
</a>
</g>
</g>
<!-- Node1&#45;&gt;Node6 -->
<g id="edge5_Node000001_Node000006" class="edge">
<title>Node1&#45;&gt;Node6</title>
<g id="a_edge5_Node000001_Node000006"><a xlink:title=" ">
<path fill="none" stroke="#63b8ff" d="M100.21,-149.01C110.4,-150.56 121.07,-152.19 131.08,-153.72"/>
<polygon fill="#63b8ff" stroke="#63b8ff" points="130.8,-157.22 141.22,-155.27 131.86,-150.3 130.8,-157.22"/>
</a>
</g>
</g>
<!-- Node8 -->
<g id="Node000008" class="node">
<title>Node8</title>
<g id="a_Node000008"><a xlink:href="kc_8cpp.html#aef4d42f4197a1db7f6667dc7ea67956b" target="_top" xlink:title=" ">
<polygon fill="white" stroke="#666666" points="217,-57 136,-57 136,-38 217,-38 217,-57"/>
<text text-anchor="middle" x="176.5" y="-45" font-family="Helvetica" font-size="10.00">matrix_product</text>
</a>
</g>
</g>
<!-- Node1&#45;&gt;Node8 -->
<g id="edge7_Node000001_Node000008" class="edge">
<title>Node1&#45;&gt;Node8</title>
<g id="a_edge7_Node000001_Node000008"><a xlink:title=" ">
<path fill="none" stroke="#63b8ff" d="M63.85,-131.79C85.4,-115.53 128.98,-82.62 154.86,-63.08"/>
<polygon fill="#63b8ff" stroke="#63b8ff" points="157.03,-65.83 162.9,-57.01 152.81,-60.25 157.03,-65.83"/>
</a>
</g>
</g>
<!-- Node10 -->
<g id="Node000010" class="node">
<title>Node10</title>
<g id="a_Node000010"><a xlink:href="kc_8cpp.html#aa824316c0d7768e230ae809a3e679a66" target="_top" xlink:title=" ">
<polygon fill="white" stroke="#666666" points="215,-264 138,-264 138,-245 215,-245 215,-264"/>
<text text-anchor="middle" x="176.5" y="-252" font-family="Helvetica" font-size="10.00">matrix_stdCol</text>
</a>
</g>
</g>
<!-- Node1&#45;&gt;Node10 -->
<g id="edge10_Node000001_Node000010" class="edge">
<title>Node1&#45;&gt;Node10</title>
<g id="a_edge10_Node000001_Node000010"><a xlink:title=" ">
<path fill="none" stroke="#63b8ff" d="M61.61,-151.13C82.93,-170.48 131.15,-214.25 157.49,-238.16"/>
<polygon fill="#63b8ff" stroke="#63b8ff" points="155.15,-240.76 164.91,-244.89 159.86,-235.58 155.15,-240.76"/>
</a>
</g>
</g>
<!-- Node3 -->
<g id="Node000003" class="node">
<title>Node3</title>
<g id="a_Node000003"><a xlink:href="kc_8cpp.html#ae263d464ebb9d7304f3c8043c41622b7" target="_top" xlink:title=" ">
<polygon fill="white" stroke="#666666" points="436.5,-245 392.5,-245 392.5,-226 436.5,-226 436.5,-245"/>
<text text-anchor="middle" x="414.5" y="-233" font-family="Helvetica" font-size="10.00">avevar</text>
</a>
</g>
</g>
<!-- Node2&#45;&gt;Node3 -->
<g id="edge2_Node000002_Node000003" class="edge">
<title>Node2&#45;&gt;Node3</title>
<g id="a_edge2_Node000002_Node000003"><a xlink:title=" ">
<path fill="none" stroke="#63b8ff" d="M197.62,-132.13C239.42,-152.15 335.8,-198.29 384.38,-221.56"/>
<polygon fill="#63b8ff" stroke="#63b8ff" points="382.9,-224.73 393.43,-225.89 385.92,-218.41 382.9,-224.73"/>
</a>
</g>
</g>
<!-- Node4 -->
<g id="Node000004" class="node">
<title>Node4</title>
<g id="a_Node000004"><a xlink:href="kc_8cpp.html#afc00baa57142e5db16101ade3200eea8" target="_top" xlink:title=" ">
<polygon fill="white" stroke="#666666" points="331.5,-132 266.5,-132 266.5,-113 331.5,-113 331.5,-132"/>
<text text-anchor="middle" x="299" y="-120" font-family="Helvetica" font-size="10.00">vector_free</text>
</a>
</g>
</g>
<!-- Node2&#45;&gt;Node4 -->
<g id="edge3_Node000002_Node000004" class="edge">
<title>Node2&#45;&gt;Node4</title>
<g id="a_edge3_Node000002_Node000004"><a xlink:title=" ">
<path fill="none" stroke="#63b8ff" d="M214.64,-122.5C227.86,-122.5 242.84,-122.5 256.41,-122.5"/>
<polygon fill="#63b8ff" stroke="#63b8ff" points="256.47,-126 266.47,-122.5 256.47,-119 256.47,-126"/>
</a>
</g>
</g>
<!-- Node5 -->
<g id="Node000005" class="node">
<title>Node5</title>
<g id="a_Node000005"><a xlink:href="kc_8cpp.html#a155bb2cc033bfd9bafbde8d31432f7ad" target="_top" xlink:title=" ">
<polygon fill="white" stroke="#666666" points="332,-95 266,-95 266,-76 332,-76 332,-95"/>
<text text-anchor="middle" x="299" y="-83" font-family="Helvetica" font-size="10.00">vector_new</text>
</a>
</g>
</g>
<!-- Node2&#45;&gt;Node5 -->
<g id="edge4_Node000002_Node000005" class="edge">
<title>Node2&#45;&gt;Node5</title>
<g id="a_edge4_Node000002_Node000005"><a xlink:title=" ">
<path fill="none" stroke="#63b8ff" d="M208.53,-112.97C223.32,-108.43 241.2,-102.94 257.07,-98.07"/>
<polygon fill="#63b8ff" stroke="#63b8ff" points="258.12,-101.41 266.65,-95.12 256.07,-94.71 258.12,-101.41"/>
</a>
</g>
</g>
<!-- Node7 -->
<g id="Node000007" class="node">
<title>Node7</title>
<g id="a_Node000007"><a xlink:href="kc_8cpp.html#ac75528b11a2997977101b6e9ded2c7cf" target="_top" xlink:title=" ">
<polygon fill="white" stroke="#666666" points="448,-170 381,-170 381,-151 448,-151 448,-170"/>
<text text-anchor="middle" x="414.5" y="-158" font-family="Helvetica" font-size="10.00">matrix_new</text>
</a>
</g>
</g>
<!-- Node6&#45;&gt;Node7 -->
<g id="edge6_Node000006_Node000007" class="edge">
<title>Node6&#45;&gt;Node7</title>
<g id="a_edge6_Node000006_Node000007"><a xlink:title=" ">
<path fill="none" stroke="#63b8ff" d="M211.56,-160.5C253.6,-160.5 325.12,-160.5 370.79,-160.5"/>
<polygon fill="#63b8ff" stroke="#63b8ff" points="370.96,-164 380.96,-160.5 370.96,-157 370.96,-164"/>
</a>
</g>
</g>
<!-- Node8&#45;&gt;Node7 -->
<g id="edge8_Node000008_Node000007" class="edge">
<title>Node8&#45;&gt;Node7</title>
<g id="a_edge8_Node000008_Node000007"><a xlink:title=" ">
<path fill="none" stroke="#63b8ff" d="M217.17,-43.7C252.99,-42.16 305.9,-44.73 345,-67.5 374.32,-84.58 394.81,-119.71 405.33,-141.57"/>
<polygon fill="#63b8ff" stroke="#63b8ff" points="402.22,-143.2 409.57,-150.83 408.59,-140.28 402.22,-143.2"/>
</a>
</g>
</g>
<!-- Node9 -->
<g id="Node000009" class="node">
<title>Node9</title>
<g id="a_Node000009"><a xlink:href="kc_8cpp.html#adbdc6116401c49523c4c62dde6147310" target="_top" xlink:title=" ">
<polygon fill="white" stroke="#666666" points="332.5,-19 265.5,-19 265.5,0 332.5,0 332.5,-19"/>
<text text-anchor="middle" x="299" y="-7" font-family="Helvetica" font-size="10.00">matrix_zero</text>
</a>
</g>
</g>
<!-- Node8&#45;&gt;Node9 -->
<g id="edge9_Node000008_Node000009" class="edge">
<title>Node8&#45;&gt;Node9</title>
<g id="a_edge9_Node000008_Node000009"><a xlink:title=" ">
<path fill="none" stroke="#63b8ff" d="M207.91,-37.91C223.03,-33.14 241.52,-27.31 257.8,-22.18"/>
<polygon fill="#63b8ff" stroke="#63b8ff" points="259.12,-25.43 267.6,-19.09 257.01,-18.76 259.12,-25.43"/>
</a>
</g>
</g>
<!-- Node11 -->
<g id="Node000011" class="node">
<title>Node11</title>
<g id="a_Node000011"><a xlink:href="kc_8cpp.html#aa517f6dc1cd623e0f2fdc5f0f9ab8534" target="_top" xlink:title=" ">
<polygon fill="white" stroke="#666666" points="331.5,-283 266.5,-283 266.5,-264 331.5,-264 331.5,-283"/>
<text text-anchor="middle" x="299" y="-271" font-family="Helvetica" font-size="10.00">matrix_free</text>
</a>
</g>
</g>
<!-- Node10&#45;&gt;Node11 -->
<g id="edge11_Node000010_Node000011" class="edge">
<title>Node10&#45;&gt;Node11</title>
<g id="a_edge11_Node000010_Node000011"><a xlink:title=" ">
<path fill="none" stroke="#63b8ff" d="M215.3,-260.46C228.39,-262.52 243.13,-264.85 256.5,-266.96"/>
<polygon fill="#63b8ff" stroke="#63b8ff" points="255.98,-270.42 266.41,-268.52 257.07,-263.5 255.98,-270.42"/>
</a>
</g>
</g>
<!-- Node12 -->
<g id="Node000012" class="node">
<title>Node12</title>
<g id="a_Node000012"><a xlink:href="kc_8cpp.html#a1e079ca755a3861bccd94f64677e1d54" target="_top" xlink:title=" ">
<polygon fill="white" stroke="#666666" points="340.5,-320 257.5,-320 257.5,-301 340.5,-301 340.5,-320"/>
<text text-anchor="middle" x="299" y="-308" font-family="Helvetica" font-size="10.00">matrix_stdRow</text>
</a>
</g>
</g>
<!-- Node10&#45;&gt;Node12 -->
<g id="edge12_Node000010_Node000012" class="edge">
<title>Node10&#45;&gt;Node12</title>
<g id="a_edge12_Node000010_Node000012"><a xlink:title=" ">
<path fill="none" stroke="#63b8ff" d="M195.6,-264.16C210.76,-272.12 233.07,-283.52 253,-292.5 256.42,-294.04 260.02,-295.59 263.63,-297.11"/>
<polygon fill="#63b8ff" stroke="#63b8ff" points="262.5,-300.43 273.08,-300.97 265.15,-293.95 262.5,-300.43"/>
</a>
</g>
</g>
<!-- Node14 -->
<g id="Node000014" class="node">
<title>Node14</title>
<g id="a_Node000014"><a xlink:href="kc_8cpp.html#a89a2987a60a852f56603492790999aba" target="_top" xlink:title=" ">
<polygon fill="white" stroke="#666666" points="345,-246 253,-246 253,-227 345,-227 345,-246"/>
<text text-anchor="middle" x="299" y="-234" font-family="Helvetica" font-size="10.00">matrix_transpose</text>
</a>
</g>
</g>
<!-- Node10&#45;&gt;Node14 -->
<g id="edge15_Node000010_Node000014" class="edge">
<title>Node10&#45;&gt;Node14</title>
<g id="a_edge15_Node000010_Node000014"><a xlink:title=" ">
<path fill="none" stroke="#63b8ff" d="M215.3,-248.85C224.01,-247.55 233.46,-246.14 242.76,-244.75"/>
<polygon fill="#63b8ff" stroke="#63b8ff" points="243.36,-248.2 252.73,-243.26 242.32,-241.28 243.36,-248.2"/>
</a>
</g>
</g>
<!-- Node12&#45;&gt;Node3 -->
<g id="edge13_Node000012_Node000003" class="edge">
<title>Node12&#45;&gt;Node3</title>
<g id="a_edge13_Node000012_Node000003"><a xlink:title=" ">
<path fill="none" stroke="#63b8ff" d="M327.78,-300.97C333.63,-298.54 339.65,-295.69 345,-292.5 364.15,-281.09 383.45,-264.47 396.65,-252.11"/>
<polygon fill="#63b8ff" stroke="#63b8ff" points="399.23,-254.5 404.04,-245.06 394.39,-249.44 399.23,-254.5"/>
</a>
</g>
</g>
<!-- Node13 -->
<g id="Node000013" class="node">
<title>Node13</title>
<g id="a_Node000013"><a xlink:href="kc_8cpp.html#ab01d6eb051febfe28b8ac2987dcfe524" target="_top" xlink:title=" ">
<polygon fill="white" stroke="#666666" points="435,-320 394,-320 394,-301 435,-301 435,-320"/>
<text text-anchor="middle" x="414.5" y="-308" font-family="Helvetica" font-size="10.00">mean</text>
</a>
</g>
</g>
<!-- Node12&#45;&gt;Node13 -->
<g id="edge14_Node000012_Node000013" class="edge">
<title>Node12&#45;&gt;Node13</title>
<g id="a_edge14_Node000012_Node000013"><a xlink:title=" ">
<path fill="none" stroke="#63b8ff" d="M340.66,-310.5C354.77,-310.5 370.33,-310.5 383.43,-310.5"/>
<polygon fill="#63b8ff" stroke="#63b8ff" points="383.78,-314 393.78,-310.5 383.78,-307 383.78,-314"/>
</a>
</g>
</g>
<!-- Node14&#45;&gt;Node7 -->
<g id="edge16_Node000014_Node000007" class="edge">
<title>Node14&#45;&gt;Node7</title>
<g id="a_edge16_Node000014_Node000007"><a xlink:title=" ">
<path fill="none" stroke="#63b8ff" d="M314.37,-226.87C333.65,-213.97 368.07,-190.92 390.85,-175.67"/>
<polygon fill="#63b8ff" stroke="#63b8ff" points="392.88,-178.52 399.24,-170.05 388.99,-172.7 392.88,-178.52"/>
</a>
</g>
</g>
</g>
</svg>
