<?xml version="1.0" encoding="UTF-8" standalone="no"?>
<!DOCTYPE svg PUBLIC "-//W3C//DTD SVG 1.1//EN"
 "http://www.w3.org/Graphics/SVG/1.1/DTD/svg11.dtd">
<!-- Generated by graphviz version 2.44.0 (0)
 -->
<!-- Title: cov Pages: 1 -->
<svg width="685pt" height="76pt"
 viewBox="0.00 0.00 685.00 75.50" xmlns="http://www.w3.org/2000/svg" xmlns:xlink="http://www.w3.org/1999/xlink">
<g id="graph0" class="graph" transform="scale(1 1) rotate(0) translate(4 71.5)">
<title>cov</title>
<!-- Node1 -->
<g id="Node000001" class="node">
<title>Node1</title>
<g id="a_Node000001"><a xlink:title=" ">
<polygon fill="#999999" stroke="#666666" points="677,-40 645,-40 645,-21 677,-21 677,-40"/>
<text text-anchor="middle" x="661" y="-28" font-family="Helvetica" font-size="10.00">cov</text>
</a>
</g>
</g>
<!-- Node2 -->
<g id="Node000002" class="node">
<title>Node2</title>
<g id="a_Node000002"><a xlink:href="class_input_data.html#af7a013cc30faa2b30a06209e8370c11b" target="_top" xlink:title=" ">
<polygon fill="white" stroke="#666666" points="609,-60 497,-60 497,-41 609,-41 609,-60"/>
<text text-anchor="middle" x="553" y="-48" font-family="Helvetica" font-size="10.00">InputData::getChrCov</text>
</a>
</g>
</g>
<!-- Node1&#45;&gt;Node2 -->
<g id="edge1_Node000001_Node000002" class="edge">
<title>Node1&#45;&gt;Node2</title>
<g id="a_edge1_Node000001_Node000002"><a xlink:title=" ">
<path fill="none" stroke="#63b8ff" d="M634.92,-35.23C625.81,-36.95 615.15,-38.96 604.62,-40.95"/>
<polygon fill="#63b8ff" stroke="#63b8ff" points="635.64,-38.66 644.81,-33.37 634.34,-31.78 635.64,-38.66"/>
</a>
</g>
</g>
<!-- Node7 -->
<g id="Node000007" class="node">
<title>Node7</title>
<g id="a_Node000007"><a xlink:href="class_input_data.html#a21fb4d1a73eccf01f32512249f4e9ae2" target="_top" xlink:title=" ">
<polygon fill="white" stroke="#666666" points="438,-19 326,-19 326,0 438,0 438,-19"/>
<text text-anchor="middle" x="382" y="-7" font-family="Helvetica" font-size="10.00">InputData::setChrCov</text>
</a>
</g>
</g>
<!-- Node1&#45;&gt;Node7 -->
<g id="edge6_Node000001_Node000007" class="edge">
<title>Node1&#45;&gt;Node7</title>
<g id="a_edge6_Node000001_Node000007"><a xlink:title=" ">
<path fill="none" stroke="#63b8ff" d="M634.51,-28.57C590.14,-25.2 497.74,-18.2 438.14,-13.68"/>
<polygon fill="#63b8ff" stroke="#63b8ff" points="634.48,-32.07 644.71,-29.34 635.01,-25.1 634.48,-32.07"/>
</a>
</g>
</g>
<!-- Node3 -->
<g id="Node000003" class="node">
<title>Node3</title>
<g id="a_Node000003"><a xlink:href="class_c_n_v_caller.html#a1a4f00ed62c012caa5d5139ee8be81a9" target="_top" xlink:title=" ">
<polygon fill="white" stroke="#666666" points="461,-67.5 303,-67.5 303,-37.5 461,-37.5 461,-67.5"/>
<text text-anchor="start" x="311" y="-55.5" font-family="Helvetica" font-size="10.00">CNVCaller::calculateLogRRatios</text>
<text text-anchor="middle" x="382" y="-44.5" font-family="Helvetica" font-size="10.00">AtSNPS</text>
</a>
</g>
</g>
<!-- Node2&#45;&gt;Node3 -->
<g id="edge2_Node000002_Node000003" class="edge">
<title>Node2&#45;&gt;Node3</title>
<g id="a_edge2_Node000002_Node000003"><a xlink:title=" ">
<path fill="none" stroke="#63b8ff" d="M486.64,-51.27C478.29,-51.37 469.68,-51.47 461.15,-51.58"/>
<polygon fill="#63b8ff" stroke="#63b8ff" points="486.71,-54.77 496.66,-51.15 486.62,-47.77 486.71,-54.77"/>
</a>
</g>
</g>
<!-- Node4 -->
<g id="Node000004" class="node">
<title>Node4</title>
<g id="a_Node000004"><a xlink:href="class_c_n_v_caller.html#a49824c662095f9af9a38056dadc8933f" target="_top" xlink:title=" ">
<polygon fill="white" stroke="#666666" points="267,-60 185,-60 185,-41 267,-41 267,-60"/>
<text text-anchor="middle" x="226" y="-48" font-family="Helvetica" font-size="10.00">CNVCaller::run</text>
</a>
</g>
</g>
<!-- Node3&#45;&gt;Node4 -->
<g id="edge3_Node000003_Node000004" class="edge">
<title>Node3&#45;&gt;Node4</title>
<g id="a_edge3_Node000003_Node000004"><a xlink:title=" ">
<path fill="none" stroke="#63b8ff" d="M292.56,-51.35C283.69,-51.24 275.02,-51.12 267.05,-51.02"/>
<polygon fill="#63b8ff" stroke="#63b8ff" points="292.6,-54.85 302.65,-51.48 292.69,-47.85 292.6,-54.85"/>
</a>
</g>
</g>
<!-- Node5 -->
<g id="Node000005" class="node">
<title>Node5</title>
<g id="a_Node000005"><a xlink:href="class_context_s_v.html#ac9d32b6e28e5bfdf10e314db0e90e4cd" target="_top" xlink:title=" ">
<polygon fill="white" stroke="#666666" points="149,-59 66,-59 66,-40 149,-40 149,-59"/>
<text text-anchor="middle" x="107.5" y="-47" font-family="Helvetica" font-size="10.00">ContextSV::run</text>
</a>
</g>
</g>
<!-- Node4&#45;&gt;Node5 -->
<g id="edge4_Node000004_Node000005" class="edge">
<title>Node4&#45;&gt;Node5</title>
<g id="a_edge4_Node000004_Node000005"><a xlink:title=" ">
<path fill="none" stroke="#63b8ff" d="M174.65,-50.07C166.1,-49.99 157.32,-49.92 149.06,-49.85"/>
<polygon fill="#63b8ff" stroke="#63b8ff" points="174.88,-53.57 184.91,-50.16 174.94,-46.57 174.88,-53.57"/>
</a>
</g>
</g>
<!-- Node6 -->
<g id="Node000006" class="node">
<title>Node6</title>
<g id="a_Node000006"><a xlink:href="swig__interface_8cpp.html#ade07e2f2bb85b7aaac8af156f3e962f6" target="_top" xlink:title=" ">
<polygon fill="white" stroke="#666666" points="30,-40 0,-40 0,-21 30,-21 30,-40"/>
<text text-anchor="middle" x="15" y="-28" font-family="Helvetica" font-size="10.00">run</text>
</a>
</g>
</g>
<!-- Node5&#45;&gt;Node6 -->
<g id="edge5_Node000005_Node000006" class="edge">
<title>Node5&#45;&gt;Node6</title>
<g id="a_edge5_Node000005_Node000006"><a xlink:title=" ">
<path fill="none" stroke="#63b8ff" d="M55.86,-38.87C46.4,-36.88 37.27,-34.97 30.13,-33.47"/>
<polygon fill="#63b8ff" stroke="#63b8ff" points="55.24,-42.32 65.75,-40.94 56.68,-35.46 55.24,-42.32"/>
</a>
</g>
</g>
<!-- Node7&#45;&gt;Node6 -->
<g id="edge7_Node000007_Node000006" class="edge">
<title>Node7&#45;&gt;Node6</title>
<g id="a_edge7_Node000007_Node000006"><a xlink:title=" ">
<path fill="none" stroke="#63b8ff" d="M315.81,-13.25C227.79,-18.31 76.57,-27.02 30.04,-29.69"/>
<polygon fill="#63b8ff" stroke="#63b8ff" points="316.18,-16.74 325.96,-12.67 315.78,-9.75 316.18,-16.74"/>
</a>
</g>
</g>
</g>
</svg>
