<?xml version="1.0" encoding="UTF-8" standalone="no"?>
<!DOCTYPE svg PUBLIC "-//W3C//DTD SVG 1.1//EN"
 "http://www.w3.org/Graphics/SVG/1.1/DTD/svg11.dtd">
<!-- Generated by graphviz version 2.44.0 (0)
 -->
<!-- Title: matrix_pcaScore Pages: 1 -->
<svg width="334pt" height="101pt"
 viewBox="0.00 0.00 334.00 101.00" xmlns="http://www.w3.org/2000/svg" xmlns:xlink="http://www.w3.org/1999/xlink">
<g id="graph0" class="graph" transform="scale(1 1) rotate(0) translate(4 97)">
<title>matrix_pcaScore</title>
<!-- Node1 -->
<g id="Node000001" class="node">
<title>Node1</title>
<g id="a_Node000001"><a xlink:title=" ">
<polygon fill="#999999" stroke="#666666" points="90,-56 0,-56 0,-37 90,-37 90,-56"/>
<text text-anchor="middle" x="45" y="-44" font-family="Helvetica" font-size="10.00">matrix_pcaScore</text>
</a>
</g>
</g>
<!-- Node2 -->
<g id="Node000002" class="node">
<title>Node2</title>
<g id="a_Node000002"><a xlink:href="kc_8cpp.html#aa517f6dc1cd623e0f2fdc5f0f9ab8534" target="_top" xlink:title=" ">
<polygon fill="white" stroke="#666666" points="207,-93 142,-93 142,-74 207,-74 207,-93"/>
<text text-anchor="middle" x="174.5" y="-81" font-family="Helvetica" font-size="10.00">matrix_free</text>
</a>
</g>
</g>
<!-- Node1&#45;&gt;Node2 -->
<g id="edge1_Node000001_Node000002" class="edge">
<title>Node1&#45;&gt;Node2</title>
<g id="a_edge1_Node000001_Node000002"><a xlink:title=" ">
<path fill="none" stroke="#63b8ff" d="M78.83,-56.03C94.99,-60.72 114.65,-66.42 131.86,-71.42"/>
<polygon fill="#63b8ff" stroke="#63b8ff" points="131.08,-74.83 141.66,-74.26 133.03,-68.11 131.08,-74.83"/>
</a>
</g>
</g>
<!-- Node3 -->
<g id="Node000003" class="node">
<title>Node3</title>
<g id="a_Node000003"><a xlink:href="kc_8cpp.html#abb5b3d84ab0088a0df21b669e3405b5b" target="_top" xlink:title=" ">
<polygon fill="white" stroke="#666666" points="223,-56 126,-56 126,-37 223,-37 223,-56"/>
<text text-anchor="middle" x="174.5" y="-44" font-family="Helvetica" font-size="10.00">matrix_newSubcol</text>
</a>
</g>
</g>
<!-- Node1&#45;&gt;Node3 -->
<g id="edge2_Node000001_Node000003" class="edge">
<title>Node1&#45;&gt;Node3</title>
<g id="a_edge2_Node000001_Node000003"><a xlink:title=" ">
<path fill="none" stroke="#63b8ff" d="M90.24,-46.5C98.42,-46.5 107.07,-46.5 115.59,-46.5"/>
<polygon fill="#63b8ff" stroke="#63b8ff" points="115.87,-50 125.87,-46.5 115.87,-43 115.87,-50"/>
</a>
</g>
</g>
<!-- Node5 -->
<g id="Node000005" class="node">
<title>Node5</title>
<g id="a_Node000005"><a xlink:href="kc_8cpp.html#aef4d42f4197a1db7f6667dc7ea67956b" target="_top" xlink:title=" ">
<polygon fill="white" stroke="#666666" points="215,-19 134,-19 134,0 215,0 215,-19"/>
<text text-anchor="middle" x="174.5" y="-7" font-family="Helvetica" font-size="10.00">matrix_product</text>
</a>
</g>
</g>
<!-- Node1&#45;&gt;Node5 -->
<g id="edge4_Node000001_Node000005" class="edge">
<title>Node1&#45;&gt;Node5</title>
<g id="a_edge4_Node000001_Node000005"><a xlink:title=" ">
<path fill="none" stroke="#63b8ff" d="M78.83,-36.97C94.62,-32.39 113.75,-26.84 130.67,-21.93"/>
<polygon fill="#63b8ff" stroke="#63b8ff" points="131.71,-25.27 140.33,-19.12 129.75,-18.55 131.71,-25.27"/>
</a>
</g>
</g>
<!-- Node4 -->
<g id="Node000004" class="node">
<title>Node4</title>
<g id="a_Node000004"><a xlink:href="kc_8cpp.html#ac75528b11a2997977101b6e9ded2c7cf" target="_top" xlink:title=" ">
<polygon fill="white" stroke="#666666" points="326,-56 259,-56 259,-37 326,-37 326,-56"/>
<text text-anchor="middle" x="292.5" y="-44" font-family="Helvetica" font-size="10.00">matrix_new</text>
</a>
</g>
</g>
<!-- Node3&#45;&gt;Node4 -->
<g id="edge3_Node000003_Node000004" class="edge">
<title>Node3&#45;&gt;Node4</title>
<g id="a_edge3_Node000003_Node000004"><a xlink:title=" ">
<path fill="none" stroke="#63b8ff" d="M223.02,-46.5C231.46,-46.5 240.22,-46.5 248.53,-46.5"/>
<polygon fill="#63b8ff" stroke="#63b8ff" points="248.76,-50 258.76,-46.5 248.76,-43 248.76,-50"/>
</a>
</g>
</g>
<!-- Node5&#45;&gt;Node4 -->
<g id="edge5_Node000005_Node000004" class="edge">
<title>Node5&#45;&gt;Node4</title>
<g id="a_edge5_Node000005_Node000004"><a xlink:title=" ">
<path fill="none" stroke="#63b8ff" d="M205.37,-19.03C219.47,-23.52 236.49,-28.95 251.67,-33.8"/>
<polygon fill="#63b8ff" stroke="#63b8ff" points="250.73,-37.17 261.33,-36.88 252.86,-30.5 250.73,-37.17"/>
</a>
</g>
</g>
<!-- Node6 -->
<g id="Node000006" class="node">
<title>Node6</title>
<g id="a_Node000006"><a xlink:href="kc_8cpp.html#adbdc6116401c49523c4c62dde6147310" target="_top" xlink:title=" ">
<polygon fill="white" stroke="#666666" points="326,-19 259,-19 259,0 326,0 326,-19"/>
<text text-anchor="middle" x="292.5" y="-7" font-family="Helvetica" font-size="10.00">matrix_zero</text>
</a>
</g>
</g>
<!-- Node5&#45;&gt;Node6 -->
<g id="edge6_Node000005_Node000006" class="edge">
<title>Node5&#45;&gt;Node6</title>
<g id="a_edge6_Node000005_Node000006"><a xlink:title=" ">
<path fill="none" stroke="#63b8ff" d="M215.1,-9.5C225.84,-9.5 237.52,-9.5 248.45,-9.5"/>
<polygon fill="#63b8ff" stroke="#63b8ff" points="248.63,-13 258.63,-9.5 248.63,-6 248.63,-13"/>
</a>
</g>
</g>
</g>
</svg>
