<?xml version="1.0" encoding="UTF-8" standalone="no"?>
<!DOCTYPE svg PUBLIC "-//W3C//DTD SVG 1.1//EN"
 "http://www.w3.org/Graphics/SVG/1.1/DTD/svg11.dtd">
<!-- Generated by graphviz version 2.44.0 (0)
 -->
<!-- Title: matrix_newRandom Pages: 1 -->
<svg width="214pt" height="64pt"
 viewBox="0.00 0.00 214.00 64.00" xmlns="http://www.w3.org/2000/svg" xmlns:xlink="http://www.w3.org/1999/xlink">
<g id="graph0" class="graph" transform="scale(1 1) rotate(0) translate(4 60)">
<title>matrix_newRandom</title>
<!-- Node1 -->
<g id="Node000001" class="node">
<title>Node1</title>
<g id="a_Node000001"><a xlink:title=" ">
<polygon fill="#999999" stroke="#666666" points="103,-37 0,-37 0,-18 103,-18 103,-37"/>
<text text-anchor="middle" x="51.5" y="-25" font-family="Helvetica" font-size="10.00">matrix_newRandom</text>
</a>
</g>
</g>
<!-- Node2 -->
<g id="Node000002" class="node">
<title>Node2</title>
<g id="a_Node000002"><a xlink:href="kc_8cpp.html#ac75528b11a2997977101b6e9ded2c7cf" target="_top" xlink:title=" ">
<polygon fill="white" stroke="#666666" points="206,-56 139,-56 139,-37 206,-37 206,-56"/>
<text text-anchor="middle" x="172.5" y="-44" font-family="Helvetica" font-size="10.00">matrix_new</text>
</a>
</g>
</g>
<!-- Node1&#45;&gt;Node2 -->
<g id="edge1_Node000001_Node000002" class="edge">
<title>Node1&#45;&gt;Node2</title>
<g id="a_edge1_Node000001_Node000002"><a xlink:title=" ">
<path fill="none" stroke="#63b8ff" d="M103.31,-35.61C111.75,-36.96 120.43,-38.35 128.65,-39.66"/>
<polygon fill="#63b8ff" stroke="#63b8ff" points="128.33,-43.15 138.76,-41.27 129.43,-36.24 128.33,-43.15"/>
</a>
</g>
</g>
<!-- Node3 -->
<g id="Node000003" class="node">
<title>Node3</title>
<g id="a_Node000003"><a xlink:href="kc_8cpp.html#af69cc9a91ed9648c8ac7a66026aa77d2" target="_top" xlink:title=" ">
<polygon fill="white" stroke="#666666" points="187.5,-19 157.5,-19 157.5,0 187.5,0 187.5,-19"/>
<text text-anchor="middle" x="172.5" y="-7" font-family="Helvetica" font-size="10.00">ran</text>
</a>
</g>
</g>
<!-- Node1&#45;&gt;Node3 -->
<g id="edge2_Node000001_Node000003" class="edge">
<title>Node1&#45;&gt;Node3</title>
<g id="a_edge2_Node000001_Node000003"><a xlink:title=" ">
<path fill="none" stroke="#63b8ff" d="M103.31,-19.81C118.56,-17.51 134.58,-15.08 147.26,-13.17"/>
<polygon fill="#63b8ff" stroke="#63b8ff" points="148.07,-16.58 157.44,-11.63 147.03,-9.66 148.07,-16.58"/>
</a>
</g>
</g>
</g>
</svg>
