<?xml version="1.0" encoding="UTF-8" standalone="no"?>
<!DOCTYPE svg PUBLIC "-//W3C//DTD SVG 1.1//EN"
 "http://www.w3.org/Graphics/SVG/1.1/DTD/svg11.dtd">
<!-- Generated by graphviz version 2.44.0 (0)
 -->
<!-- Title: matrix_regCoefStat Pages: 1 -->
<svg width="554pt" height="484pt"
 viewBox="0.00 0.00 554.00 483.60" xmlns="http://www.w3.org/2000/svg" xmlns:xlink="http://www.w3.org/1999/xlink">
<g id="graph0" class="graph" transform="scale(1 1) rotate(0) translate(4 479.6)">
<title>matrix_regCoefStat</title>
<!-- Node1 -->
<g id="Node000001" class="node">
<title>Node1</title>
<g id="a_Node000001"><a xlink:title=" ">
<polygon fill="#999999" stroke="#666666" points="101,-153.6 0,-153.6 0,-134.6 101,-134.6 101,-153.6"/>
<text text-anchor="middle" x="50.5" y="-141.6" font-family="Helvetica" font-size="10.00">matrix_regCoefStat</text>
</a>
</g>
</g>
<!-- Node2 -->
<g id="Node000002" class="node">
<title>Node2</title>
<g id="a_Node000002"><a xlink:href="kc_8cpp.html#a996626bdadc539b36a6ddce1f8262f1e" target="_top" xlink:title=" ">
<polygon fill="white" stroke="#666666" points="329.5,-457.6 291.5,-457.6 291.5,-438.6 329.5,-438.6 329.5,-457.6"/>
<text text-anchor="middle" x="310.5" y="-445.6" font-family="Helvetica" font-size="10.00">cdf_t</text>
</a>
</g>
</g>
<!-- Node1&#45;&gt;Node2 -->
<g id="edge1_Node000001_Node000002" class="edge">
<title>Node1&#45;&gt;Node2</title>
<g id="a_edge1_Node000001_Node000002"><a xlink:title=" ">
<path fill="none" stroke="#63b8ff" d="M56.93,-153.86C69.66,-176.45 102.95,-233.68 137,-277.1 188.02,-342.16 204.28,-355.97 265,-412.1 272.34,-418.88 280.79,-425.9 288.34,-431.91"/>
<polygon fill="#63b8ff" stroke="#63b8ff" points="286.63,-435.02 296.66,-438.44 290.95,-429.51 286.63,-435.02"/>
</a>
</g>
</g>
<!-- Node6 -->
<g id="Node000006" class="node">
<title>Node6</title>
<g id="a_Node000006"><a xlink:href="kc_8cpp.html#aeca8344f58357afa063ffc8cc119f8b7" target="_top" xlink:title=" ">
<polygon fill="white" stroke="#666666" points="208.5,-428.6 157.5,-428.6 157.5,-409.6 208.5,-409.6 208.5,-428.6"/>
<text text-anchor="middle" x="183" y="-416.6" font-family="Helvetica" font-size="10.00">cdfinv_t</text>
</a>
</g>
</g>
<!-- Node1&#45;&gt;Node6 -->
<g id="edge5_Node000001_Node000006" class="edge">
<title>Node1&#45;&gt;Node6</title>
<g id="a_edge5_Node000001_Node000006"><a xlink:title=" ">
<path fill="none" stroke="#63b8ff" d="M53.97,-153.99C62.29,-186.29 91.4,-290.98 137,-367.1 144.67,-379.9 155.58,-392.6 164.73,-402.24"/>
<polygon fill="#63b8ff" stroke="#63b8ff" points="162.4,-404.86 171.9,-409.56 167.4,-399.96 162.4,-404.86"/>
</a>
</g>
</g>
<!-- Node7 -->
<g id="Node000007" class="node">
<title>Node7</title>
<g id="a_Node000007"><a xlink:href="kc_8cpp.html#aa517f6dc1cd623e0f2fdc5f0f9ab8534" target="_top" xlink:title=" ">
<polygon fill="white" stroke="#666666" points="343,-116.6 278,-116.6 278,-97.6 343,-97.6 343,-116.6"/>
<text text-anchor="middle" x="310.5" y="-104.6" font-family="Helvetica" font-size="10.00">matrix_free</text>
</a>
</g>
</g>
<!-- Node1&#45;&gt;Node7 -->
<g id="edge7_Node000001_Node000007" class="edge">
<title>Node1&#45;&gt;Node7</title>
<g id="a_edge7_Node000001_Node000007"><a xlink:title=" ">
<path fill="none" stroke="#63b8ff" d="M101.05,-140.31C136.77,-137.21 186.04,-132.18 229,-125.1 241.7,-123 255.39,-120.16 267.83,-117.36"/>
<polygon fill="#63b8ff" stroke="#63b8ff" points="268.97,-120.69 277.93,-115.03 267.4,-113.87 268.97,-120.69"/>
</a>
</g>
</g>
<!-- Node8 -->
<g id="Node000008" class="node">
<title>Node8</title>
<g id="a_Node000008"><a xlink:href="kc_8cpp.html#af0e16ee0cbf76fe1a067c0f4132e8774" target="_top" xlink:title=" ">
<polygon fill="white" stroke="#666666" points="223,-267.6 143,-267.6 143,-248.6 223,-248.6 223,-267.6"/>
<text text-anchor="middle" x="183" y="-255.6" font-family="Helvetica" font-size="10.00">matrix_inverse</text>
</a>
</g>
</g>
<!-- Node1&#45;&gt;Node8 -->
<g id="edge8_Node000001_Node000008" class="edge">
<title>Node1&#45;&gt;Node8</title>
<g id="a_edge8_Node000001_Node000008"><a xlink:title=" ">
<path fill="none" stroke="#63b8ff" d="M62.63,-153.82C84.97,-173.34 135.51,-217.49 163.13,-241.61"/>
<polygon fill="#63b8ff" stroke="#63b8ff" points="161.07,-244.46 170.9,-248.4 165.67,-239.19 161.07,-244.46"/>
</a>
</g>
</g>
<!-- Node13 -->
<g id="Node000013" class="node">
<title>Node13</title>
<g id="a_Node000013"><a xlink:href="kc_8cpp.html#ac75528b11a2997977101b6e9ded2c7cf" target="_top" xlink:title=" ">
<polygon fill="white" stroke="#666666" points="459,-116.6 392,-116.6 392,-97.6 459,-97.6 459,-116.6"/>
<text text-anchor="middle" x="425.5" y="-104.6" font-family="Helvetica" font-size="10.00">matrix_new</text>
</a>
</g>
</g>
<!-- Node1&#45;&gt;Node13 -->
<g id="edge20_Node000001_Node000013" class="edge">
<title>Node1&#45;&gt;Node13</title>
<g id="a_edge20_Node000001_Node000013"><a xlink:title=" ">
<path fill="none" stroke="#63b8ff" d="M101.3,-145.97C136.91,-146.85 185.96,-147.13 229,-144.1 285.87,-140.09 300.19,-137.74 356,-126.1 364.95,-124.23 374.46,-121.85 383.46,-119.41"/>
<polygon fill="#63b8ff" stroke="#63b8ff" points="384.64,-122.72 393.34,-116.66 382.76,-115.97 384.64,-122.72"/>
</a>
</g>
</g>
<!-- Node16 -->
<g id="Node000016" class="node">
<title>Node16</title>
<g id="a_Node000016"><a xlink:href="kc_8cpp.html#a434b0afbcca14a331a887ef5f456cef9" target="_top" xlink:title=" ">
<polygon fill="white" stroke="#666666" points="224.5,-115.6 141.5,-115.6 141.5,-96.6 224.5,-96.6 224.5,-115.6"/>
<text text-anchor="middle" x="183" y="-103.6" font-family="Helvetica" font-size="10.00">matrix_multiply</text>
</a>
</g>
</g>
<!-- Node1&#45;&gt;Node16 -->
<g id="edge19_Node000001_Node000016" class="edge">
<title>Node1&#45;&gt;Node16</title>
<g id="a_edge19_Node000001_Node000016"><a xlink:title=" ">
<path fill="none" stroke="#63b8ff" d="M84.43,-134.51C101.12,-129.65 121.59,-123.69 139.46,-118.48"/>
<polygon fill="#63b8ff" stroke="#63b8ff" points="140.46,-121.84 149.08,-115.68 138.5,-115.12 140.46,-121.84"/>
</a>
</g>
</g>
<!-- Node17 -->
<g id="Node000017" class="node">
<title>Node17</title>
<g id="a_Node000017"><a xlink:href="kc_8cpp.html#aef4d42f4197a1db7f6667dc7ea67956b" target="_top" xlink:title=" ">
<polygon fill="white" stroke="#666666" points="351,-40.6 270,-40.6 270,-21.6 351,-21.6 351,-40.6"/>
<text text-anchor="middle" x="310.5" y="-28.6" font-family="Helvetica" font-size="10.00">matrix_product</text>
</a>
</g>
</g>
<!-- Node1&#45;&gt;Node17 -->
<g id="edge21_Node000001_Node000017" class="edge">
<title>Node1&#45;&gt;Node17</title>
<g id="a_edge21_Node000001_Node000017"><a xlink:title=" ">
<path fill="none" stroke="#63b8ff" d="M54.26,-134.48C62.17,-108.99 87.56,-39.87 137,-13.1 181.77,11.15 242.66,-4.49 278.84,-17.9"/>
<polygon fill="#63b8ff" stroke="#63b8ff" points="277.77,-21.24 288.36,-21.59 280.3,-14.71 277.77,-21.24"/>
</a>
</g>
</g>
<!-- Node19 -->
<g id="Node000019" class="node">
<title>Node19</title>
<g id="a_Node000019"><a xlink:href="kc_8cpp.html#ad57651ec26e71d842d15f65ae9484098" target="_top" xlink:title=" ">
<polygon fill="white" stroke="#666666" points="225,-78.6 141,-78.6 141,-59.6 225,-59.6 225,-78.6"/>
<text text-anchor="middle" x="183" y="-66.6" font-family="Helvetica" font-size="10.00">matrix_regMSE</text>
</a>
</g>
</g>
<!-- Node1&#45;&gt;Node19 -->
<g id="edge24_Node000001_Node000019" class="edge">
<title>Node1&#45;&gt;Node19</title>
<g id="a_edge24_Node000001_Node000019"><a xlink:title=" ">
<path fill="none" stroke="#63b8ff" d="M64.66,-134.4C81.07,-122.56 110.22,-102.37 137,-88.1 140.34,-86.32 143.88,-84.58 147.46,-82.93"/>
<polygon fill="#63b8ff" stroke="#63b8ff" points="149.14,-86.01 156.87,-78.76 146.31,-79.61 149.14,-86.01"/>
</a>
</g>
</g>
<!-- Node20 -->
<g id="Node000020" class="node">
<title>Node20</title>
<g id="a_Node000020"><a xlink:href="kc_8cpp.html#a89a2987a60a852f56603492790999aba" target="_top" xlink:title=" ">
<polygon fill="white" stroke="#666666" points="229,-41.6 137,-41.6 137,-22.6 229,-22.6 229,-41.6"/>
<text text-anchor="middle" x="183" y="-29.6" font-family="Helvetica" font-size="10.00">matrix_transpose</text>
</a>
</g>
</g>
<!-- Node1&#45;&gt;Node20 -->
<g id="edge27_Node000001_Node000020" class="edge">
<title>Node1&#45;&gt;Node20</title>
<g id="a_edge27_Node000001_Node000020"><a xlink:title=" ">
<path fill="none" stroke="#63b8ff" d="M58.2,-134.4C71.37,-115.95 102.39,-75.47 137,-51.1 139.49,-49.35 142.16,-47.71 144.91,-46.2"/>
<polygon fill="#63b8ff" stroke="#63b8ff" points="146.47,-49.34 153.89,-41.77 143.37,-43.06 146.47,-49.34"/>
</a>
</g>
</g>
<!-- Node3 -->
<g id="Node000003" class="node">
<title>Node3</title>
<g id="a_Node000003"><a xlink:href="kc_8cpp.html#aff974d448122c33ebffbaf2666c42092" target="_top" xlink:title=" ">
<polygon fill="white" stroke="#666666" points="444.5,-457.6 406.5,-457.6 406.5,-438.6 444.5,-438.6 444.5,-457.6"/>
<text text-anchor="middle" x="425.5" y="-445.6" font-family="Helvetica" font-size="10.00">betai</text>
</a>
</g>
</g>
<!-- Node2&#45;&gt;Node3 -->
<g id="edge2_Node000002_Node000003" class="edge">
<title>Node2&#45;&gt;Node3</title>
<g id="a_edge2_Node000002_Node000003"><a xlink:title=" ">
<path fill="none" stroke="#63b8ff" d="M329.66,-448.1C347.61,-448.1 375.35,-448.1 396.2,-448.1"/>
<polygon fill="#63b8ff" stroke="#63b8ff" points="396.39,-451.6 406.39,-448.1 396.39,-444.6 396.39,-451.6"/>
</a>
</g>
</g>
<!-- Node4 -->
<g id="Node000004" class="node">
<title>Node4</title>
<g id="a_Node000004"><a xlink:href="kc_8cpp.html#a1d6e649feccbc1d73424037ed02d7418" target="_top" xlink:title=" ">
<polygon fill="white" stroke="#666666" points="542.5,-475.6 498.5,-475.6 498.5,-456.6 542.5,-456.6 542.5,-475.6"/>
<text text-anchor="middle" x="520.5" y="-463.6" font-family="Helvetica" font-size="10.00">betacf</text>
</a>
</g>
</g>
<!-- Node3&#45;&gt;Node4 -->
<g id="edge3_Node000003_Node000004" class="edge">
<title>Node3&#45;&gt;Node4</title>
<g id="a_edge3_Node000003_Node000004"><a xlink:title=" ">
<path fill="none" stroke="#63b8ff" d="M444.87,-451.65C457.23,-454.04 473.82,-457.26 488.23,-460.04"/>
<polygon fill="#63b8ff" stroke="#63b8ff" points="487.75,-463.52 498.23,-461.98 489.08,-456.64 487.75,-463.52"/>
</a>
</g>
</g>
<!-- Node5 -->
<g id="Node000005" class="node">
<title>Node5</title>
<g id="a_Node000005"><a xlink:href="kc_8cpp.html#a69cc1b545a83a4d9f187e131500aee45" target="_top" xlink:title=" ">
<polygon fill="white" stroke="#666666" points="546,-438.6 495,-438.6 495,-419.6 546,-419.6 546,-438.6"/>
<text text-anchor="middle" x="520.5" y="-426.6" font-family="Helvetica" font-size="10.00">gammln</text>
</a>
</g>
</g>
<!-- Node3&#45;&gt;Node5 -->
<g id="edge4_Node000003_Node000005" class="edge">
<title>Node3&#45;&gt;Node5</title>
<g id="a_edge4_Node000003_Node000005"><a xlink:title=" ">
<path fill="none" stroke="#63b8ff" d="M444.87,-444.34C456.26,-442.02 471.26,-438.95 484.82,-436.18"/>
<polygon fill="#63b8ff" stroke="#63b8ff" points="485.73,-439.57 494.82,-434.14 484.33,-432.71 485.73,-439.57"/>
</a>
</g>
</g>
<!-- Node6&#45;&gt;Node2 -->
<g id="edge6_Node000006_Node000002" class="edge">
<title>Node6&#45;&gt;Node2</title>
<g id="a_edge6_Node000006_Node000002"><a xlink:title=" ">
<path fill="none" stroke="#63b8ff" d="M208.79,-424.83C229.67,-429.65 259.51,-436.55 281.29,-441.58"/>
<polygon fill="#63b8ff" stroke="#63b8ff" points="280.73,-445.04 291.26,-443.88 282.31,-438.22 280.73,-445.04"/>
</a>
</g>
</g>
<!-- Node8&#45;&gt;Node7 -->
<g id="edge9_Node000008_Node000007" class="edge">
<title>Node8&#45;&gt;Node7</title>
<g id="a_edge9_Node000008_Node000007"><a xlink:title=" ">
<path fill="none" stroke="#63b8ff" d="M192.23,-248.19C213.07,-223.12 268.11,-156.89 294.7,-124.9"/>
<polygon fill="#63b8ff" stroke="#63b8ff" points="297.7,-126.77 301.4,-116.84 292.31,-122.3 297.7,-126.77"/>
</a>
</g>
</g>
<!-- Node9 -->
<g id="Node000009" class="node">
<title>Node9</title>
<g id="a_Node000009"><a xlink:href="kc_8cpp.html#a85a2f9c7ff758c36a67d0b8a58424404" target="_top" xlink:title=" ">
<polygon fill="white" stroke="#666666" points="356,-381.6 265,-381.6 265,-362.6 356,-362.6 356,-381.6"/>
<text text-anchor="middle" x="310.5" y="-369.6" font-family="Helvetica" font-size="10.00">matrix_ludecomp</text>
</a>
</g>
</g>
<!-- Node8&#45;&gt;Node9 -->
<g id="edge10_Node000008_Node000009" class="edge">
<title>Node8&#45;&gt;Node9</title>
<g id="a_edge10_Node000008_Node000009"><a xlink:title=" ">
<path fill="none" stroke="#63b8ff" d="M190.91,-267.76C203.88,-285.4 233.44,-323.28 265,-348.1 269.4,-351.56 274.37,-354.78 279.35,-357.67"/>
<polygon fill="#63b8ff" stroke="#63b8ff" points="277.75,-360.79 288.2,-362.5 281.1,-354.64 277.75,-360.79"/>
</a>
</g>
</g>
<!-- Node10 -->
<g id="Node000010" class="node">
<title>Node10</title>
<g id="a_Node000010"><a xlink:href="kc_8cpp.html#afc00baa57142e5db16101ade3200eea8" target="_top" xlink:title=" ">
<polygon fill="white" stroke="#666666" points="458,-353.6 393,-353.6 393,-334.6 458,-334.6 458,-353.6"/>
<text text-anchor="middle" x="425.5" y="-341.6" font-family="Helvetica" font-size="10.00">vector_free</text>
</a>
</g>
</g>
<!-- Node8&#45;&gt;Node10 -->
<g id="edge15_Node000008_Node000010" class="edge">
<title>Node8&#45;&gt;Node10</title>
<g id="a_edge15_Node000008_Node000010"><a xlink:title=" ">
<path fill="none" stroke="#63b8ff" d="M194.61,-267.89C209.27,-280.85 237.08,-303.41 265,-315.1 302.95,-330.99 349.57,-338.19 382.58,-341.44"/>
<polygon fill="#63b8ff" stroke="#63b8ff" points="382.51,-344.95 392.79,-342.36 383.15,-337.97 382.51,-344.95"/>
</a>
</g>
</g>
<!-- Node11 -->
<g id="Node000011" class="node">
<title>Node11</title>
<g id="a_Node000011"><a xlink:href="kc_8cpp.html#a155bb2cc033bfd9bafbde8d31432f7ad" target="_top" xlink:title=" ">
<polygon fill="white" stroke="#666666" points="458.5,-400.6 392.5,-400.6 392.5,-381.6 458.5,-381.6 458.5,-400.6"/>
<text text-anchor="middle" x="425.5" y="-388.6" font-family="Helvetica" font-size="10.00">vector_new</text>
</a>
</g>
</g>
<!-- Node8&#45;&gt;Node11 -->
<g id="edge16_Node000008_Node000011" class="edge">
<title>Node8&#45;&gt;Node11</title>
<g id="a_edge16_Node000008_Node000011"><a xlink:title=" ">
<path fill="none" stroke="#63b8ff" d="M189.25,-267.91C205.16,-297.47 252.51,-384.08 265,-391.1 300.66,-411.13 348.27,-408.05 382.17,-401.85"/>
<polygon fill="#63b8ff" stroke="#63b8ff" points="383.1,-405.23 392.22,-399.85 381.73,-398.37 383.1,-405.23"/>
</a>
</g>
</g>
<!-- Node12 -->
<g id="Node000012" class="node">
<title>Node12</title>
<g id="a_Node000012"><a xlink:href="kc_8cpp.html#ad99cb91ebff0903217880cd395ccef58" target="_top" xlink:title=" ">
<polygon fill="white" stroke="#666666" points="350.5,-305.6 270.5,-305.6 270.5,-286.6 350.5,-286.6 350.5,-305.6"/>
<text text-anchor="middle" x="310.5" y="-293.6" font-family="Helvetica" font-size="10.00">matrix_lusubst</text>
</a>
</g>
</g>
<!-- Node8&#45;&gt;Node12 -->
<g id="edge13_Node000008_Node000012" class="edge">
<title>Node8&#45;&gt;Node12</title>
<g id="a_edge13_Node000008_Node000012"><a xlink:title=" ">
<path fill="none" stroke="#63b8ff" d="M215.67,-267.69C231.57,-272.5 251.04,-278.4 268.11,-283.56"/>
<polygon fill="#63b8ff" stroke="#63b8ff" points="267.26,-286.96 277.84,-286.51 269.28,-280.26 267.26,-286.96"/>
</a>
</g>
</g>
<!-- Node8&#45;&gt;Node13 -->
<g id="edge14_Node000008_Node000013" class="edge">
<title>Node8&#45;&gt;Node13</title>
<g id="a_edge14_Node000008_Node000013"><a xlink:title=" ">
<path fill="none" stroke="#63b8ff" d="M223.11,-263.68C260.51,-266.89 316.85,-265.94 356,-239.1 394.9,-212.43 413.16,-156.61 420.43,-126.82"/>
<polygon fill="#63b8ff" stroke="#63b8ff" points="423.91,-127.32 422.7,-116.79 417.08,-125.77 423.91,-127.32"/>
</a>
</g>
</g>
<!-- Node14 -->
<g id="Node000014" class="node">
<title>Node14</title>
<g id="a_Node000014"><a xlink:href="kc_8cpp.html#a595f09d7b5e2d197a0d8d4cef8a061ae" target="_top" xlink:title=" ">
<polygon fill="white" stroke="#666666" points="344,-229.6 277,-229.6 277,-210.6 344,-210.6 344,-229.6"/>
<text text-anchor="middle" x="310.5" y="-217.6" font-family="Helvetica" font-size="10.00">vectori_free</text>
</a>
</g>
</g>
<!-- Node8&#45;&gt;Node14 -->
<g id="edge17_Node000008_Node000014" class="edge">
<title>Node8&#45;&gt;Node14</title>
<g id="a_edge17_Node000008_Node000014"><a xlink:title=" ">
<path fill="none" stroke="#63b8ff" d="M215.67,-248.51C231.57,-243.69 251.04,-237.8 268.11,-232.63"/>
<polygon fill="#63b8ff" stroke="#63b8ff" points="269.28,-235.93 277.84,-229.68 267.26,-229.23 269.28,-235.93"/>
</a>
</g>
</g>
<!-- Node15 -->
<g id="Node000015" class="node">
<title>Node15</title>
<g id="a_Node000015"><a xlink:href="kc_8cpp.html#a0fad130527c83326c9dfe7da022700e0" target="_top" xlink:title=" ">
<polygon fill="white" stroke="#666666" points="344.5,-192.6 276.5,-192.6 276.5,-173.6 344.5,-173.6 344.5,-192.6"/>
<text text-anchor="middle" x="310.5" y="-180.6" font-family="Helvetica" font-size="10.00">vectori_new</text>
</a>
</g>
</g>
<!-- Node8&#45;&gt;Node15 -->
<g id="edge18_Node000008_Node000015" class="edge">
<title>Node8&#45;&gt;Node15</title>
<g id="a_edge18_Node000008_Node000015"><a xlink:title=" ">
<path fill="none" stroke="#63b8ff" d="M196.12,-248.55C211.54,-236.7 239.25,-216.3 265,-202.1 268.28,-200.29 271.77,-198.53 275.3,-196.86"/>
<polygon fill="#63b8ff" stroke="#63b8ff" points="276.91,-199.98 284.6,-192.69 274.04,-193.59 276.91,-199.98"/>
</a>
</g>
</g>
<!-- Node9&#45;&gt;Node10 -->
<g id="edge11_Node000009_Node000010" class="edge">
<title>Node9&#45;&gt;Node10</title>
<g id="a_edge11_Node000009_Node000010"><a xlink:title=" ">
<path fill="none" stroke="#63b8ff" d="M350.07,-362.54C360.63,-359.92 372.13,-357.07 382.86,-354.42"/>
<polygon fill="#63b8ff" stroke="#63b8ff" points="383.98,-357.74 392.85,-351.94 382.3,-350.95 383.98,-357.74"/>
</a>
</g>
</g>
<!-- Node9&#45;&gt;Node11 -->
<g id="edge12_Node000009_Node000011" class="edge">
<title>Node9&#45;&gt;Node11</title>
<g id="a_edge12_Node000009_Node000011"><a xlink:title=" ">
<path fill="none" stroke="#63b8ff" d="M356.16,-379.61C364.76,-381.05 373.74,-382.56 382.25,-383.99"/>
<polygon fill="#63b8ff" stroke="#63b8ff" points="381.91,-387.49 392.35,-385.69 383.07,-380.58 381.91,-387.49"/>
</a>
</g>
</g>
<!-- Node17&#45;&gt;Node13 -->
<g id="edge22_Node000017_Node000013" class="edge">
<title>Node17&#45;&gt;Node13</title>
<g id="a_edge22_Node000017_Node000013"><a xlink:title=" ">
<path fill="none" stroke="#63b8ff" d="M330.93,-40.74C338.86,-44.89 348.03,-49.97 356,-55.1 373.1,-66.1 391.39,-80.11 404.76,-90.82"/>
<polygon fill="#63b8ff" stroke="#63b8ff" points="402.81,-93.74 412.78,-97.31 407.21,-88.3 402.81,-93.74"/>
</a>
</g>
</g>
<!-- Node18 -->
<g id="Node000018" class="node">
<title>Node18</title>
<g id="a_Node000018"><a xlink:href="kc_8cpp.html#adbdc6116401c49523c4c62dde6147310" target="_top" xlink:title=" ">
<polygon fill="white" stroke="#666666" points="459,-40.6 392,-40.6 392,-21.6 459,-21.6 459,-40.6"/>
<text text-anchor="middle" x="425.5" y="-28.6" font-family="Helvetica" font-size="10.00">matrix_zero</text>
</a>
</g>
</g>
<!-- Node17&#45;&gt;Node18 -->
<g id="edge23_Node000017_Node000018" class="edge">
<title>Node17&#45;&gt;Node18</title>
<g id="a_edge23_Node000017_Node000018"><a xlink:title=" ">
<path fill="none" stroke="#63b8ff" d="M351.02,-31.1C360.94,-31.1 371.63,-31.1 381.7,-31.1"/>
<polygon fill="#63b8ff" stroke="#63b8ff" points="381.92,-34.6 391.92,-31.1 381.92,-27.6 381.92,-34.6"/>
</a>
</g>
</g>
<!-- Node19&#45;&gt;Node7 -->
<g id="edge25_Node000019_Node000007" class="edge">
<title>Node19&#45;&gt;Node7</title>
<g id="a_edge25_Node000019_Node000007"><a xlink:title=" ">
<path fill="none" stroke="#63b8ff" d="M215.67,-78.69C231.57,-83.5 251.04,-89.4 268.11,-94.56"/>
<polygon fill="#63b8ff" stroke="#63b8ff" points="267.26,-97.96 277.84,-97.51 269.28,-91.26 267.26,-97.96"/>
</a>
</g>
</g>
<!-- Node19&#45;&gt;Node17 -->
<g id="edge26_Node000019_Node000017" class="edge">
<title>Node19&#45;&gt;Node17</title>
<g id="a_edge26_Node000019_Node000017"><a xlink:title=" ">
<path fill="none" stroke="#63b8ff" d="M215.67,-59.51C231.57,-54.69 251.04,-48.8 268.11,-43.63"/>
<polygon fill="#63b8ff" stroke="#63b8ff" points="269.28,-46.93 277.84,-40.68 267.26,-40.23 269.28,-46.93"/>
</a>
</g>
</g>
<!-- Node20&#45;&gt;Node13 -->
<g id="edge28_Node000020_Node000013" class="edge">
<title>Node20&#45;&gt;Node13</title>
<g id="a_edge28_Node000020_Node000013"><a xlink:title=" ">
<path fill="none" stroke="#63b8ff" d="M214.95,-41.75C258.06,-55.19 336.26,-79.58 383.97,-94.46"/>
<polygon fill="#63b8ff" stroke="#63b8ff" points="383.08,-97.85 393.67,-97.48 385.17,-91.16 383.08,-97.85"/>
</a>
</g>
</g>
</g>
</svg>
