<?xml version="1.0" encoding="UTF-8" standalone="no"?>
<!DOCTYPE svg PUBLIC "-//W3C//DTD SVG 1.1//EN"
 "http://www.w3.org/Graphics/SVG/1.1/DTD/svg11.dtd">
<!-- Generated by graphviz version 2.44.0 (0)
 -->
<!-- Title: matrix_regModelStat Pages: 1 -->
<svg width="422pt" height="119pt"
 viewBox="0.00 0.00 422.00 119.00" xmlns="http://www.w3.org/2000/svg" xmlns:xlink="http://www.w3.org/1999/xlink">
<g id="graph0" class="graph" transform="scale(1 1) rotate(0) translate(4 115)">
<title>matrix_regModelStat</title>
<!-- Node1 -->
<g id="Node000001" class="node">
<title>Node1</title>
<g id="a_Node000001"><a xlink:title=" ">
<polygon fill="#999999" stroke="#666666" points="107,-56 0,-56 0,-37 107,-37 107,-56"/>
<text text-anchor="middle" x="53.5" y="-44" font-family="Helvetica" font-size="10.00">matrix_regModelStat</text>
</a>
</g>
</g>
<!-- Node2 -->
<g id="Node000002" class="node">
<title>Node2</title>
<g id="a_Node000002"><a xlink:href="kc_8cpp.html#a44281fba5e514c76d3867c7cc899eb7c" target="_top" xlink:title=" ">
<polygon fill="white" stroke="#666666" points="202.5,-93 164.5,-93 164.5,-74 202.5,-74 202.5,-93"/>
<text text-anchor="middle" x="183.5" y="-81" font-family="Helvetica" font-size="10.00">cdf_f</text>
</a>
</g>
</g>
<!-- Node1&#45;&gt;Node2 -->
<g id="edge1_Node000001_Node000002" class="edge">
<title>Node1&#45;&gt;Node2</title>
<g id="a_edge1_Node000001_Node000002"><a xlink:title=" ">
<path fill="none" stroke="#63b8ff" d="M87.46,-56.03C108.28,-62.05 134.87,-69.73 154.63,-75.45"/>
<polygon fill="#63b8ff" stroke="#63b8ff" points="153.7,-78.82 164.28,-78.23 155.64,-72.09 153.7,-78.82"/>
</a>
</g>
</g>
<!-- Node6 -->
<g id="Node000006" class="node">
<title>Node6</title>
<g id="a_Node000006"><a xlink:href="kc_8cpp.html#aef4d42f4197a1db7f6667dc7ea67956b" target="_top" xlink:title=" ">
<polygon fill="white" stroke="#666666" points="224,-56 143,-56 143,-37 224,-37 224,-56"/>
<text text-anchor="middle" x="183.5" y="-44" font-family="Helvetica" font-size="10.00">matrix_product</text>
</a>
</g>
</g>
<!-- Node1&#45;&gt;Node6 -->
<g id="edge5_Node000001_Node000006" class="edge">
<title>Node1&#45;&gt;Node6</title>
<g id="a_edge5_Node000001_Node000006"><a xlink:title=" ">
<path fill="none" stroke="#63b8ff" d="M107.3,-46.5C115.63,-46.5 124.22,-46.5 132.48,-46.5"/>
<polygon fill="#63b8ff" stroke="#63b8ff" points="132.73,-50 142.73,-46.5 132.73,-43 132.73,-50"/>
</a>
</g>
</g>
<!-- Node9 -->
<g id="Node000009" class="node">
<title>Node9</title>
<g id="a_Node000009"><a xlink:href="kc_8cpp.html#a155bb2cc033bfd9bafbde8d31432f7ad" target="_top" xlink:title=" ">
<polygon fill="white" stroke="#666666" points="216.5,-19 150.5,-19 150.5,0 216.5,0 216.5,-19"/>
<text text-anchor="middle" x="183.5" y="-7" font-family="Helvetica" font-size="10.00">vector_new</text>
</a>
</g>
</g>
<!-- Node1&#45;&gt;Node9 -->
<g id="edge8_Node000001_Node000009" class="edge">
<title>Node1&#45;&gt;Node9</title>
<g id="a_edge8_Node000001_Node000009"><a xlink:title=" ">
<path fill="none" stroke="#63b8ff" d="M87.46,-36.97C103.56,-32.32 123.12,-26.66 140.3,-21.7"/>
<polygon fill="#63b8ff" stroke="#63b8ff" points="141.46,-25.01 150.09,-18.87 139.51,-18.28 141.46,-25.01"/>
</a>
</g>
</g>
<!-- Node3 -->
<g id="Node000003" class="node">
<title>Node3</title>
<g id="a_Node000003"><a xlink:href="kc_8cpp.html#aff974d448122c33ebffbaf2666c42092" target="_top" xlink:title=" ">
<polygon fill="white" stroke="#666666" points="312.5,-93 274.5,-93 274.5,-74 312.5,-74 312.5,-93"/>
<text text-anchor="middle" x="293.5" y="-81" font-family="Helvetica" font-size="10.00">betai</text>
</a>
</g>
</g>
<!-- Node2&#45;&gt;Node3 -->
<g id="edge2_Node000002_Node000003" class="edge">
<title>Node2&#45;&gt;Node3</title>
<g id="a_edge2_Node000002_Node000003"><a xlink:title=" ">
<path fill="none" stroke="#63b8ff" d="M202.82,-83.5C219.68,-83.5 244.93,-83.5 264.35,-83.5"/>
<polygon fill="#63b8ff" stroke="#63b8ff" points="264.45,-87 274.45,-83.5 264.45,-80 264.45,-87"/>
</a>
</g>
</g>
<!-- Node4 -->
<g id="Node000004" class="node">
<title>Node4</title>
<g id="a_Node000004"><a xlink:href="kc_8cpp.html#a1d6e649feccbc1d73424037ed02d7418" target="_top" xlink:title=" ">
<polygon fill="white" stroke="#666666" points="410.5,-111 366.5,-111 366.5,-92 410.5,-92 410.5,-111"/>
<text text-anchor="middle" x="388.5" y="-99" font-family="Helvetica" font-size="10.00">betacf</text>
</a>
</g>
</g>
<!-- Node3&#45;&gt;Node4 -->
<g id="edge3_Node000003_Node000004" class="edge">
<title>Node3&#45;&gt;Node4</title>
<g id="a_edge3_Node000003_Node000004"><a xlink:title=" ">
<path fill="none" stroke="#63b8ff" d="M312.87,-87.06C325.23,-89.45 341.82,-92.66 356.23,-95.45"/>
<polygon fill="#63b8ff" stroke="#63b8ff" points="355.75,-98.92 366.23,-97.38 357.08,-92.05 355.75,-98.92"/>
</a>
</g>
</g>
<!-- Node5 -->
<g id="Node000005" class="node">
<title>Node5</title>
<g id="a_Node000005"><a xlink:href="kc_8cpp.html#a69cc1b545a83a4d9f187e131500aee45" target="_top" xlink:title=" ">
<polygon fill="white" stroke="#666666" points="414,-74 363,-74 363,-55 414,-55 414,-74"/>
<text text-anchor="middle" x="388.5" y="-62" font-family="Helvetica" font-size="10.00">gammln</text>
</a>
</g>
</g>
<!-- Node3&#45;&gt;Node5 -->
<g id="edge4_Node000003_Node000005" class="edge">
<title>Node3&#45;&gt;Node5</title>
<g id="a_edge4_Node000003_Node000005"><a xlink:title=" ">
<path fill="none" stroke="#63b8ff" d="M312.87,-79.75C324.26,-77.42 339.26,-74.36 352.82,-71.59"/>
<polygon fill="#63b8ff" stroke="#63b8ff" points="353.73,-74.97 362.82,-69.54 352.33,-68.11 353.73,-74.97"/>
</a>
</g>
</g>
<!-- Node7 -->
<g id="Node000007" class="node">
<title>Node7</title>
<g id="a_Node000007"><a xlink:href="kc_8cpp.html#ac75528b11a2997977101b6e9ded2c7cf" target="_top" xlink:title=" ">
<polygon fill="white" stroke="#666666" points="327,-56 260,-56 260,-37 327,-37 327,-56"/>
<text text-anchor="middle" x="293.5" y="-44" font-family="Helvetica" font-size="10.00">matrix_new</text>
</a>
</g>
</g>
<!-- Node6&#45;&gt;Node7 -->
<g id="edge6_Node000006_Node000007" class="edge">
<title>Node6&#45;&gt;Node7</title>
<g id="a_edge6_Node000006_Node000007"><a xlink:title=" ">
<path fill="none" stroke="#63b8ff" d="M224.1,-46.5C232.49,-46.5 241.38,-46.5 249.87,-46.5"/>
<polygon fill="#63b8ff" stroke="#63b8ff" points="249.98,-50 259.98,-46.5 249.98,-43 249.98,-50"/>
</a>
</g>
</g>
<!-- Node8 -->
<g id="Node000008" class="node">
<title>Node8</title>
<g id="a_Node000008"><a xlink:href="kc_8cpp.html#adbdc6116401c49523c4c62dde6147310" target="_top" xlink:title=" ">
<polygon fill="white" stroke="#666666" points="327,-19 260,-19 260,0 327,0 327,-19"/>
<text text-anchor="middle" x="293.5" y="-7" font-family="Helvetica" font-size="10.00">matrix_zero</text>
</a>
</g>
</g>
<!-- Node6&#45;&gt;Node8 -->
<g id="edge7_Node000006_Node000008" class="edge">
<title>Node6&#45;&gt;Node8</title>
<g id="a_edge7_Node000006_Node000008"><a xlink:title=" ">
<path fill="none" stroke="#63b8ff" d="M212.31,-36.97C225.19,-32.56 240.68,-27.25 254.61,-22.48"/>
<polygon fill="#63b8ff" stroke="#63b8ff" points="256.08,-25.68 264.41,-19.12 253.81,-19.05 256.08,-25.68"/>
</a>
</g>
</g>
</g>
</svg>
