<?xml version="1.0" encoding="UTF-8" standalone="no"?>
<!DOCTYPE svg PUBLIC "-//W3C//DTD SVG 1.1//EN"
 "http://www.w3.org/Graphics/SVG/1.1/DTD/svg11.dtd">
<!-- Generated by graphviz version 2.44.0 (0)
 -->
<!-- Title: matrix_colMean Pages: 1 -->
<svg width="341pt" height="103pt"
 viewBox="0.00 0.00 341.00 103.00" xmlns="http://www.w3.org/2000/svg" xmlns:xlink="http://www.w3.org/1999/xlink">
<g id="graph0" class="graph" transform="scale(1 1) rotate(0) translate(4 99)">
<title>matrix_colMean</title>
<!-- Node1 -->
<g id="Node000001" class="node">
<title>Node1</title>
<g id="a_Node000001"><a xlink:title=" ">
<polygon fill="#999999" stroke="#666666" points="333,-57 247,-57 247,-38 333,-38 333,-57"/>
<text text-anchor="middle" x="290" y="-45" font-family="Helvetica" font-size="10.00">matrix_colMean</text>
</a>
</g>
</g>
<!-- Node2 -->
<g id="Node000002" class="node">
<title>Node2</title>
<g id="a_Node000002"><a xlink:href="kc_8cpp.html#aa51dbc9f02003e376630381db9eab42c" target="_top" xlink:title=" ">
<polygon fill="white" stroke="#666666" points="211,-95 119,-95 119,-76 211,-76 211,-95"/>
<text text-anchor="middle" x="165" y="-83" font-family="Helvetica" font-size="10.00">matrix_covMatrix</text>
</a>
</g>
</g>
<!-- Node1&#45;&gt;Node2 -->
<g id="edge1_Node000001_Node000002" class="edge">
<title>Node1&#45;&gt;Node2</title>
<g id="a_edge1_Node000001_Node000002"><a xlink:title=" ">
<path fill="none" stroke="#63b8ff" d="M247.96,-60.18C231.34,-65.31 212.47,-71.14 197.03,-75.91"/>
<polygon fill="#63b8ff" stroke="#63b8ff" points="249.44,-63.38 257.96,-57.09 247.37,-56.7 249.44,-63.38"/>
</a>
</g>
</g>
<!-- Node3 -->
<g id="Node000003" class="node">
<title>Node3</title>
<g id="a_Node000003"><a xlink:href="kc_8cpp.html#ae64a3eb3736d5788d72eaf7ad6927421" target="_top" xlink:title=" ">
<polygon fill="white" stroke="#666666" points="83,-76 0,-76 0,-57 83,-57 83,-76"/>
<text text-anchor="middle" x="41.5" y="-64" font-family="Helvetica" font-size="10.00">matrix_pcaCov</text>
</a>
</g>
</g>
<!-- Node1&#45;&gt;Node3 -->
<g id="edge4_Node000001_Node000003" class="edge">
<title>Node1&#45;&gt;Node3</title>
<g id="a_edge4_Node000001_Node000003"><a xlink:title=" ">
<path fill="none" stroke="#63b8ff" d="M236.87,-51.52C191.03,-55.05 125.24,-60.12 83.19,-63.36"/>
<polygon fill="#63b8ff" stroke="#63b8ff" points="237.2,-55 246.91,-50.74 236.67,-48.02 237.2,-55"/>
</a>
</g>
</g>
<!-- Node4 -->
<g id="Node000004" class="node">
<title>Node4</title>
<g id="a_Node000004"><a xlink:href="kc_8cpp.html#a165e97bd10a48d3c5da908938468212b" target="_top" xlink:title=" ">
<polygon fill="white" stroke="#666666" points="205,-19 125,-19 125,0 205,0 205,-19"/>
<text text-anchor="middle" x="165" y="-7" font-family="Helvetica" font-size="10.00">matrix_pcaCor</text>
</a>
</g>
</g>
<!-- Node1&#45;&gt;Node4 -->
<g id="edge3_Node000001_Node000004" class="edge">
<title>Node1&#45;&gt;Node4</title>
<g id="a_edge3_Node000001_Node000004"><a xlink:title=" ">
<path fill="none" stroke="#63b8ff" d="M247.96,-34.82C231.34,-29.69 212.47,-23.86 197.03,-19.09"/>
<polygon fill="#63b8ff" stroke="#63b8ff" points="247.37,-38.3 257.96,-37.91 249.44,-31.62 247.37,-38.3"/>
</a>
</g>
</g>
<!-- Node2&#45;&gt;Node3 -->
<g id="edge2_Node000002_Node000003" class="edge">
<title>Node2&#45;&gt;Node3</title>
<g id="a_edge2_Node000002_Node000003"><a xlink:title=" ">
<path fill="none" stroke="#63b8ff" d="M108.82,-76.87C100.25,-75.53 91.54,-74.17 83.37,-72.89"/>
<polygon fill="#63b8ff" stroke="#63b8ff" points="108.34,-80.34 118.76,-78.43 109.42,-73.42 108.34,-80.34"/>
</a>
</g>
</g>
</g>
</svg>
