<?xml version="1.0" encoding="UTF-8" standalone="no"?>
<!DOCTYPE svg PUBLIC "-//W3C//DTD SVG 1.1//EN"
 "http://www.w3.org/Graphics/SVG/1.1/DTD/svg11.dtd">
<!-- Generated by graphviz version 2.44.0 (0)
 -->
<!-- Title: dvector Pages: 1 -->
<svg width="536pt" height="177pt"
 viewBox="0.00 0.00 536.00 177.00" xmlns="http://www.w3.org/2000/svg" xmlns:xlink="http://www.w3.org/1999/xlink">
<g id="graph0" class="graph" transform="scale(1 1) rotate(0) translate(4 173)">
<title>dvector</title>
<!-- Node1 -->
<g id="Node000001" class="node">
<title>Node1</title>
<g id="a_Node000001"><a xlink:title=" ">
<polygon fill="#999999" stroke="#666666" points="528,-93 480,-93 480,-74 528,-74 528,-93"/>
<text text-anchor="middle" x="504" y="-81" font-family="Helvetica" font-size="10.00">dvector</text>
</a>
</g>
</g>
<!-- Node2 -->
<g id="Node000002" class="node">
<title>Node2</title>
<g id="a_Node000002"><a xlink:href="kc_8cpp.html#a96ec673538c48e142ea769df221d2ca9" target="_top" xlink:title=" ">
<polygon fill="white" stroke="#666666" points="430.5,-169 332.5,-169 332.5,-150 430.5,-150 430.5,-169"/>
<text text-anchor="middle" x="381.5" y="-157" font-family="Helvetica" font-size="10.00">chi2test_2by3table</text>
</a>
</g>
</g>
<!-- Node1&#45;&gt;Node2 -->
<g id="edge1_Node000001_Node000002" class="edge">
<title>Node1&#45;&gt;Node2</title>
<g id="a_edge1_Node000001_Node000002"><a xlink:title=" ">
<path fill="none" stroke="#63b8ff" d="M486.91,-100.5C475.7,-111.6 459.95,-125.78 444,-135.5 434.51,-141.28 423.38,-146.13 413.22,-149.92"/>
<polygon fill="#63b8ff" stroke="#63b8ff" points="489.7,-102.66 494.21,-93.07 484.7,-97.75 489.7,-102.66"/>
</a>
</g>
</g>
<!-- Node3 -->
<g id="Node000003" class="node">
<title>Node3</title>
<g id="a_Node000003"><a xlink:href="kc_8cpp.html#a3208fdc700d8fc604d6446c1180e58cd" target="_top" xlink:title=" ">
<polygon fill="white" stroke="#666666" points="283,-150 185,-150 185,-131 283,-131 283,-150"/>
<text text-anchor="middle" x="234" y="-138" font-family="Helvetica" font-size="10.00">chi2test_3by2table</text>
</a>
</g>
</g>
<!-- Node1&#45;&gt;Node3 -->
<g id="edge3_Node000001_Node000003" class="edge">
<title>Node1&#45;&gt;Node3</title>
<g id="a_edge3_Node000001_Node000003"><a xlink:title=" ">
<path fill="none" stroke="#63b8ff" d="M470.35,-94.86C461.83,-97.59 452.63,-100.34 444,-102.5 389.45,-116.18 325.72,-127.05 283.11,-133.6"/>
<polygon fill="#63b8ff" stroke="#63b8ff" points="471.54,-98.15 479.95,-91.7 469.35,-91.5 471.54,-98.15"/>
</a>
</g>
</g>
<!-- Node4 -->
<g id="Node000004" class="node">
<title>Node4</title>
<g id="a_Node000004"><a xlink:href="kc_8cpp.html#a5ac369578aba21ff5f35f9e2c7320fa4" target="_top" xlink:title=" ">
<polygon fill="white" stroke="#666666" points="444,-93 319,-93 319,-74 444,-74 444,-93"/>
<text text-anchor="middle" x="381.5" y="-81" font-family="Helvetica" font-size="10.00">chi2test_trend_3by2table</text>
</a>
</g>
</g>
<!-- Node1&#45;&gt;Node4 -->
<g id="edge4_Node000001_Node000004" class="edge">
<title>Node1&#45;&gt;Node4</title>
<g id="a_edge4_Node000001_Node000004"><a xlink:title=" ">
<path fill="none" stroke="#63b8ff" d="M469.53,-83.5C461.63,-83.5 452.95,-83.5 444.23,-83.5"/>
<polygon fill="#63b8ff" stroke="#63b8ff" points="469.77,-87 479.77,-83.5 469.77,-80 469.77,-87"/>
</a>
</g>
</g>
<!-- Node5 -->
<g id="Node000005" class="node">
<title>Node5</title>
<g id="a_Node000005"><a xlink:href="khmm_8cpp.html#a5ee9a227e8068bbf43d6fb3a19221cc1" target="_top" xlink:title="Read an HMM from a file.">
<polygon fill="white" stroke="#666666" points="416.5,-56 346.5,-56 346.5,-37 416.5,-37 416.5,-56"/>
<text text-anchor="middle" x="381.5" y="-44" font-family="Helvetica" font-size="10.00">ReadCHMM</text>
</a>
</g>
</g>
<!-- Node1&#45;&gt;Node5 -->
<g id="edge5_Node000001_Node000005" class="edge">
<title>Node1&#45;&gt;Node5</title>
<g id="a_edge5_Node000001_Node000005"><a xlink:title=" ">
<path fill="none" stroke="#63b8ff" d="M469.97,-73.36C452.48,-67.99 431.11,-61.42 413.87,-56.13"/>
<polygon fill="#63b8ff" stroke="#63b8ff" points="469.18,-76.78 479.77,-76.37 471.23,-70.08 469.18,-76.78"/>
</a>
</g>
</g>
<!-- Node9 -->
<g id="Node000009" class="node">
<title>Node9</title>
<g id="a_Node000009"><a xlink:href="khmm_8cpp.html#ac44ba55ccbb73d2b015ca7537479381e" target="_top" xlink:title="Run the main HMM algorithm.">
<polygon fill="white" stroke="#666666" points="422,-19 341,-19 341,0 422,0 422,-19"/>
<text text-anchor="middle" x="381.5" y="-7" font-family="Helvetica" font-size="10.00">testVit_CHMM</text>
</a>
</g>
</g>
<!-- Node1&#45;&gt;Node9 -->
<g id="edge9_Node000001_Node000009" class="edge">
<title>Node1&#45;&gt;Node9</title>
<g id="a_edge9_Node000001_Node000009"><a xlink:title=" ">
<path fill="none" stroke="#63b8ff" d="M488.52,-65.86C477.49,-53.49 461.31,-37.46 444,-27.5 437.25,-23.62 429.59,-20.51 422.03,-18.05"/>
<polygon fill="#63b8ff" stroke="#63b8ff" points="486.1,-68.42 495.27,-73.72 491.41,-63.85 486.1,-68.42"/>
</a>
</g>
</g>
<!-- Node2&#45;&gt;Node3 -->
<g id="edge2_Node000002_Node000003" class="edge">
<title>Node2&#45;&gt;Node3</title>
<g id="a_edge2_Node000002_Node000003"><a xlink:title=" ">
<path fill="none" stroke="#63b8ff" d="M322.3,-151.9C309.43,-150.22 295.93,-148.46 283.49,-146.83"/>
<polygon fill="#63b8ff" stroke="#63b8ff" points="322.09,-155.4 332.45,-153.23 322.99,-148.46 322.09,-155.4"/>
</a>
</g>
</g>
<!-- Node6 -->
<g id="Node000006" class="node">
<title>Node6</title>
<g id="a_Node000006"><a xlink:href="class_c_n_v_caller.html#a49824c662095f9af9a38056dadc8933f" target="_top" xlink:title=" ">
<polygon fill="white" stroke="#666666" points="275,-38 193,-38 193,-19 275,-19 275,-38"/>
<text text-anchor="middle" x="234" y="-26" font-family="Helvetica" font-size="10.00">CNVCaller::run</text>
</a>
</g>
</g>
<!-- Node5&#45;&gt;Node6 -->
<g id="edge6_Node000005_Node000006" class="edge">
<title>Node5&#45;&gt;Node6</title>
<g id="a_edge6_Node000005_Node000006"><a xlink:title=" ">
<path fill="none" stroke="#63b8ff" d="M336.24,-41.02C316.77,-38.62 294.06,-35.81 275.09,-33.46"/>
<polygon fill="#63b8ff" stroke="#63b8ff" points="336.03,-44.53 346.39,-42.28 336.89,-37.58 336.03,-44.53"/>
</a>
</g>
</g>
<!-- Node7 -->
<g id="Node000007" class="node">
<title>Node7</title>
<g id="a_Node000007"><a xlink:href="class_context_s_v.html#ac9d32b6e28e5bfdf10e314db0e90e4cd" target="_top" xlink:title=" ">
<polygon fill="white" stroke="#666666" points="149,-38 66,-38 66,-19 149,-19 149,-38"/>
<text text-anchor="middle" x="107.5" y="-26" font-family="Helvetica" font-size="10.00">ContextSV::run</text>
</a>
</g>
</g>
<!-- Node6&#45;&gt;Node7 -->
<g id="edge7_Node000006_Node000007" class="edge">
<title>Node6&#45;&gt;Node7</title>
<g id="a_edge7_Node000006_Node000007"><a xlink:title=" ">
<path fill="none" stroke="#63b8ff" d="M182.89,-28.5C171.75,-28.5 160.07,-28.5 149.36,-28.5"/>
<polygon fill="#63b8ff" stroke="#63b8ff" points="182.92,-32 192.92,-28.5 182.92,-25 182.92,-32"/>
</a>
</g>
</g>
<!-- Node8 -->
<g id="Node000008" class="node">
<title>Node8</title>
<g id="a_Node000008"><a xlink:href="swig__interface_8cpp.html#ade07e2f2bb85b7aaac8af156f3e962f6" target="_top" xlink:title=" ">
<polygon fill="white" stroke="#666666" points="30,-38 0,-38 0,-19 30,-19 30,-38"/>
<text text-anchor="middle" x="15" y="-26" font-family="Helvetica" font-size="10.00">run</text>
</a>
</g>
</g>
<!-- Node7&#45;&gt;Node8 -->
<g id="edge8_Node000007_Node000008" class="edge">
<title>Node7&#45;&gt;Node8</title>
<g id="a_edge8_Node000007_Node000008"><a xlink:title=" ">
<path fill="none" stroke="#63b8ff" d="M55.56,-28.5C46.21,-28.5 37.19,-28.5 30.13,-28.5"/>
<polygon fill="#63b8ff" stroke="#63b8ff" points="55.75,-32 65.75,-28.5 55.75,-25 55.75,-32"/>
</a>
</g>
</g>
<!-- Node9&#45;&gt;Node6 -->
<g id="edge10_Node000009_Node000006" class="edge">
<title>Node9&#45;&gt;Node6</title>
<g id="a_edge10_Node000009_Node000006"><a xlink:title=" ">
<path fill="none" stroke="#63b8ff" d="M330.66,-16.01C312.57,-18.37 292.37,-21.01 275.22,-23.25"/>
<polygon fill="#63b8ff" stroke="#63b8ff" points="331.28,-19.46 340.74,-14.69 330.37,-12.52 331.28,-19.46"/>
</a>
</g>
</g>
</g>
</svg>
