<?xml version="1.0" encoding="UTF-8" standalone="no"?>
<!DOCTYPE svg PUBLIC "-//W3C//DTD SVG 1.1//EN"
 "http://www.w3.org/Graphics/SVG/1.1/DTD/svg11.dtd">
<!-- Generated by graphviz version 2.44.0 (0)
 -->
<!-- Title: cdfinv_t Pages: 1 -->
<svg width="196pt" height="64pt"
 viewBox="0.00 0.00 196.00 64.00" xmlns="http://www.w3.org/2000/svg" xmlns:xlink="http://www.w3.org/1999/xlink">
<g id="graph0" class="graph" transform="scale(1 1) rotate(0) translate(4 60)">
<title>cdfinv_t</title>
<!-- Node1 -->
<g id="Node000001" class="node">
<title>Node1</title>
<g id="a_Node000001"><a xlink:title=" ">
<polygon fill="#999999" stroke="#666666" points="188,-37 137,-37 137,-18 188,-18 188,-37"/>
<text text-anchor="middle" x="162.5" y="-25" font-family="Helvetica" font-size="10.00">cdfinv_t</text>
</a>
</g>
</g>
<!-- Node2 -->
<g id="Node000002" class="node">
<title>Node2</title>
<g id="a_Node000002"><a xlink:href="kc_8cpp.html#a77077c3de17b2dd212a275a4e0ff1750" target="_top" xlink:title=" ">
<polygon fill="white" stroke="#666666" points="101,-56 0,-56 0,-37 101,-37 101,-56"/>
<text text-anchor="middle" x="50.5" y="-44" font-family="Helvetica" font-size="10.00">matrix_regCoefStat</text>
</a>
</g>
</g>
<!-- Node1&#45;&gt;Node2 -->
<g id="edge1_Node000001_Node000002" class="edge">
<title>Node1&#45;&gt;Node2</title>
<g id="a_edge1_Node000001_Node000002"><a xlink:title=" ">
<path fill="none" stroke="#63b8ff" d="M126.95,-33.47C118.81,-34.87 109.98,-36.4 101.32,-37.89"/>
<polygon fill="#63b8ff" stroke="#63b8ff" points="127.56,-36.92 136.81,-31.76 126.36,-30.02 127.56,-36.92"/>
</a>
</g>
</g>
<!-- Node3 -->
<g id="Node000003" class="node">
<title>Node3</title>
<g id="a_Node000003"><a xlink:href="kc_8cpp.html#ad66fdb823fdc1c7260a0459c1912203f" target="_top" xlink:title=" ">
<polygon fill="white" stroke="#666666" points="99.5,-19 1.5,-19 1.5,0 99.5,0 99.5,-19"/>
<text text-anchor="middle" x="50.5" y="-7" font-family="Helvetica" font-size="10.00">matrix_regObsStat</text>
</a>
</g>
</g>
<!-- Node1&#45;&gt;Node3 -->
<g id="edge2_Node000001_Node000003" class="edge">
<title>Node1&#45;&gt;Node3</title>
<g id="a_edge2_Node000001_Node000003"><a xlink:title=" ">
<path fill="none" stroke="#63b8ff" d="M126.73,-21.81C118.1,-20.4 108.69,-18.86 99.54,-17.36"/>
<polygon fill="#63b8ff" stroke="#63b8ff" points="126.38,-25.3 136.81,-23.46 127.51,-18.39 126.38,-25.3"/>
</a>
</g>
</g>
</g>
</svg>
