<?xml version="1.0" encoding="UTF-8" standalone="no"?>
<!DOCTYPE svg PUBLIC "-//W3C//DTD SVG 1.1//EN"
 "http://www.w3.org/Graphics/SVG/1.1/DTD/svg11.dtd">
<!-- Generated by graphviz version 2.44.0 (0)
 -->
<!-- Title: bitest Pages: 1 -->
<svg width="207pt" height="27pt"
 viewBox="0.00 0.00 207.00 27.00" xmlns="http://www.w3.org/2000/svg" xmlns:xlink="http://www.w3.org/1999/xlink">
<g id="graph0" class="graph" transform="scale(1 1) rotate(0) translate(4 23)">
<title>bitest</title>
<!-- Node1 -->
<g id="Node000001" class="node">
<title>Node1</title>
<g id="a_Node000001"><a xlink:title=" ">
<polygon fill="#999999" stroke="#666666" points="41,-19 0,-19 0,0 41,0 41,-19"/>
<text text-anchor="middle" x="20.5" y="-7" font-family="Helvetica" font-size="10.00">bitest</text>
</a>
</g>
</g>
<!-- Node2 -->
<g id="Node000002" class="node">
<title>Node2</title>
<g id="a_Node000002"><a xlink:href="kc_8cpp.html#a16ca21352ca6ebe67c4ba6142b0a6e1b" target="_top" xlink:title=" ">
<polygon fill="white" stroke="#666666" points="112,-19 77,-19 77,0 112,0 112,-19"/>
<text text-anchor="middle" x="94.5" y="-7" font-family="Helvetica" font-size="10.00">bico</text>
</a>
</g>
</g>
<!-- Node1&#45;&gt;Node2 -->
<g id="edge1_Node000001_Node000002" class="edge">
<title>Node1&#45;&gt;Node2</title>
<g id="a_edge1_Node000001_Node000002"><a xlink:title=" ">
<path fill="none" stroke="#63b8ff" d="M41.17,-9.5C49.02,-9.5 58.18,-9.5 66.62,-9.5"/>
<polygon fill="#63b8ff" stroke="#63b8ff" points="66.78,-13 76.78,-9.5 66.78,-6 66.78,-13"/>
</a>
</g>
</g>
<!-- Node3 -->
<g id="Node000003" class="node">
<title>Node3</title>
<g id="a_Node000003"><a xlink:href="kc_8cpp.html#a69cc1b545a83a4d9f187e131500aee45" target="_top" xlink:title=" ">
<polygon fill="white" stroke="#666666" points="199,-19 148,-19 148,0 199,0 199,-19"/>
<text text-anchor="middle" x="173.5" y="-7" font-family="Helvetica" font-size="10.00">gammln</text>
</a>
</g>
</g>
<!-- Node2&#45;&gt;Node3 -->
<g id="edge2_Node000002_Node000003" class="edge">
<title>Node2&#45;&gt;Node3</title>
<g id="a_edge2_Node000002_Node000003"><a xlink:title=" ">
<path fill="none" stroke="#63b8ff" d="M112.21,-9.5C119.71,-9.5 128.86,-9.5 137.74,-9.5"/>
<polygon fill="#63b8ff" stroke="#63b8ff" points="137.93,-13 147.93,-9.5 137.93,-6 137.93,-13"/>
</a>
</g>
</g>
</g>
</svg>
