<?xml version="1.0" encoding="UTF-8" standalone="no"?>
<!DOCTYPE svg PUBLIC "-//W3C//DTD SVG 1.1//EN"
 "http://www.w3.org/Graphics/SVG/1.1/DTD/svg11.dtd">
<!-- Generated by graphviz version 2.44.0 (0)
 -->
<!-- Title: matrix_multiply Pages: 1 -->
<svg width="347pt" height="101pt"
 viewBox="0.00 0.00 347.00 101.00" xmlns="http://www.w3.org/2000/svg" xmlns:xlink="http://www.w3.org/1999/xlink">
<g id="graph0" class="graph" transform="scale(1 1) rotate(0) translate(4 97)">
<title>matrix_multiply</title>
<!-- Node1 -->
<g id="Node000001" class="node">
<title>Node1</title>
<g id="a_Node000001"><a xlink:title=" ">
<polygon fill="#999999" stroke="#666666" points="339,-56 256,-56 256,-37 339,-37 339,-56"/>
<text text-anchor="middle" x="297.5" y="-44" font-family="Helvetica" font-size="10.00">matrix_multiply</text>
</a>
</g>
</g>
<!-- Node2 -->
<g id="Node000002" class="node">
<title>Node2</title>
<g id="a_Node000002"><a xlink:href="kc_8cpp.html#a673ed8b4d0eee5e7e60df48435e0d8ba" target="_top" xlink:title=" ">
<polygon fill="white" stroke="#666666" points="214,-93 125,-93 125,-74 214,-74 214,-93"/>
<text text-anchor="middle" x="169.5" y="-81" font-family="Helvetica" font-size="10.00">matrix_corMatrix</text>
</a>
</g>
</g>
<!-- Node1&#45;&gt;Node2 -->
<g id="edge1_Node000001_Node000002" class="edge">
<title>Node1&#45;&gt;Node2</title>
<g id="a_edge1_Node000001_Node000002"><a xlink:title=" ">
<path fill="none" stroke="#63b8ff" d="M254.06,-58.96C237.48,-63.83 218.78,-69.32 203.28,-73.88"/>
<polygon fill="#63b8ff" stroke="#63b8ff" points="255.44,-62.2 264.05,-56.03 253.47,-55.49 255.44,-62.2"/>
</a>
</g>
</g>
<!-- Node4 -->
<g id="Node000004" class="node">
<title>Node4</title>
<g id="a_Node000004"><a xlink:href="kc_8cpp.html#aa51dbc9f02003e376630381db9eab42c" target="_top" xlink:title=" ">
<polygon fill="white" stroke="#666666" points="215.5,-56 123.5,-56 123.5,-37 215.5,-37 215.5,-56"/>
<text text-anchor="middle" x="169.5" y="-44" font-family="Helvetica" font-size="10.00">matrix_covMatrix</text>
</a>
</g>
</g>
<!-- Node1&#45;&gt;Node4 -->
<g id="edge3_Node000001_Node000004" class="edge">
<title>Node1&#45;&gt;Node4</title>
<g id="a_edge3_Node000001_Node000004"><a xlink:title=" ">
<path fill="none" stroke="#63b8ff" d="M245.79,-46.5C235.87,-46.5 225.52,-46.5 215.79,-46.5"/>
<polygon fill="#63b8ff" stroke="#63b8ff" points="245.94,-50 255.94,-46.5 245.94,-43 245.94,-50"/>
</a>
</g>
</g>
<!-- Node6 -->
<g id="Node000006" class="node">
<title>Node6</title>
<g id="a_Node000006"><a xlink:href="kc_8cpp.html#a77077c3de17b2dd212a275a4e0ff1750" target="_top" xlink:title=" ">
<polygon fill="white" stroke="#666666" points="220,-19 119,-19 119,0 220,0 220,-19"/>
<text text-anchor="middle" x="169.5" y="-7" font-family="Helvetica" font-size="10.00">matrix_regCoefStat</text>
</a>
</g>
</g>
<!-- Node1&#45;&gt;Node6 -->
<g id="edge5_Node000001_Node000006" class="edge">
<title>Node1&#45;&gt;Node6</title>
<g id="a_edge5_Node000001_Node000006"><a xlink:title=" ">
<path fill="none" stroke="#63b8ff" d="M254.06,-34.04C237.48,-29.17 218.78,-23.68 203.28,-19.12"/>
<polygon fill="#63b8ff" stroke="#63b8ff" points="253.47,-37.51 264.05,-36.97 255.44,-30.8 253.47,-37.51"/>
</a>
</g>
</g>
<!-- Node3 -->
<g id="Node000003" class="node">
<title>Node3</title>
<g id="a_Node000003"><a xlink:href="kc_8cpp.html#a165e97bd10a48d3c5da908938468212b" target="_top" xlink:title=" ">
<polygon fill="white" stroke="#666666" points="81.5,-93 1.5,-93 1.5,-74 81.5,-74 81.5,-93"/>
<text text-anchor="middle" x="41.5" y="-81" font-family="Helvetica" font-size="10.00">matrix_pcaCor</text>
</a>
</g>
</g>
<!-- Node2&#45;&gt;Node3 -->
<g id="edge2_Node000002_Node000003" class="edge">
<title>Node2&#45;&gt;Node3</title>
<g id="a_edge2_Node000002_Node000003"><a xlink:title=" ">
<path fill="none" stroke="#63b8ff" d="M114.7,-83.5C103.55,-83.5 92,-83.5 81.51,-83.5"/>
<polygon fill="#63b8ff" stroke="#63b8ff" points="114.78,-87 124.78,-83.5 114.78,-80 114.78,-87"/>
</a>
</g>
</g>
<!-- Node5 -->
<g id="Node000005" class="node">
<title>Node5</title>
<g id="a_Node000005"><a xlink:href="kc_8cpp.html#ae64a3eb3736d5788d72eaf7ad6927421" target="_top" xlink:title=" ">
<polygon fill="white" stroke="#666666" points="83,-56 0,-56 0,-37 83,-37 83,-56"/>
<text text-anchor="middle" x="41.5" y="-44" font-family="Helvetica" font-size="10.00">matrix_pcaCov</text>
</a>
</g>
</g>
<!-- Node4&#45;&gt;Node5 -->
<g id="edge4_Node000004_Node000005" class="edge">
<title>Node4&#45;&gt;Node5</title>
<g id="a_edge4_Node000004_Node000005"><a xlink:title=" ">
<path fill="none" stroke="#63b8ff" d="M113.34,-46.5C103.19,-46.5 92.76,-46.5 83.13,-46.5"/>
<polygon fill="#63b8ff" stroke="#63b8ff" points="113.37,-50 123.37,-46.5 113.37,-43 113.37,-50"/>
</a>
</g>
</g>
</g>
</svg>
