<?xml version="1.0" encoding="UTF-8" standalone="no"?>
<!DOCTYPE svg PUBLIC "-//W3C//DTD SVG 1.1//EN"
 "http://www.w3.org/Graphics/SVG/1.1/DTD/svg11.dtd">
<!-- Generated by graphviz version 2.44.0 (0)
 -->
<!-- Title: include/kc.h Pages: 1 -->
<svg width="168pt" height="82pt"
 viewBox="0.00 0.00 167.50 82.00" xmlns="http://www.w3.org/2000/svg" xmlns:xlink="http://www.w3.org/1999/xlink">
<g id="graph0" class="graph" transform="scale(1 1) rotate(0) translate(4 78)">
<title>include/kc.h</title>
<!-- Node1 -->
<g id="Node000001" class="node">
<title>Node1</title>
<g id="a_Node000001"><a xlink:title=" ">
<polygon fill="#999999" stroke="#666666" points="109,-74 41,-74 41,-55 109,-55 109,-74"/>
<text text-anchor="middle" x="75" y="-62" font-family="Helvetica" font-size="10.00">include/kc.h</text>
</a>
</g>
</g>
<!-- Node2 -->
<g id="Node000002" class="node">
<title>Node2</title>
<g id="a_Node000002"><a xlink:href="kc_8cpp.html" target="_top" xlink:title=" ">
<polygon fill="white" stroke="#666666" points="62,-19 0,-19 0,0 62,0 62,-19"/>
<text text-anchor="middle" x="31" y="-7" font-family="Helvetica" font-size="10.00">src/kc.cpp</text>
</a>
</g>
</g>
<!-- Node1&#45;&gt;Node2 -->
<g id="edge1_Node000001_Node000002" class="edge">
<title>Node1&#45;&gt;Node2</title>
<g id="a_edge1_Node000001_Node000002"><a xlink:title=" ">
<path fill="none" stroke="#63b8ff" d="M61.27,-46.96C53.6,-37.72 44.37,-26.6 38.13,-19.09"/>
<polygon fill="#63b8ff" stroke="#63b8ff" points="58.65,-49.29 67.73,-54.75 64.04,-44.82 58.65,-49.29"/>
</a>
</g>
</g>
<!-- Node3 -->
<g id="Node000003" class="node">
<title>Node3</title>
<g id="a_Node000003"><a xlink:href="khmm_8cpp.html" target="_top" xlink:title=" ">
<polygon fill="white" stroke="#666666" points="159.5,-19 80.5,-19 80.5,0 159.5,0 159.5,-19"/>
<text text-anchor="middle" x="120" y="-7" font-family="Helvetica" font-size="10.00">src/khmm.cpp</text>
</a>
</g>
</g>
<!-- Node1&#45;&gt;Node3 -->
<g id="edge2_Node000001_Node000003" class="edge">
<title>Node1&#45;&gt;Node3</title>
<g id="a_edge2_Node000001_Node000003"><a xlink:title=" ">
<path fill="none" stroke="#63b8ff" d="M89.05,-46.96C96.89,-37.72 106.33,-26.6 112.71,-19.09"/>
<polygon fill="#63b8ff" stroke="#63b8ff" points="86.24,-44.86 82.43,-54.75 91.57,-49.39 86.24,-44.86"/>
</a>
</g>
</g>
</g>
</svg>
