<?xml version="1.0" encoding="UTF-8" standalone="no"?>
<!DOCTYPE svg PUBLIC "-//W3C//DTD SVG 1.1//EN"
 "http://www.w3.org/Graphics/SVG/1.1/DTD/svg11.dtd">
<!-- Generated by graphviz version 2.44.0 (0)
 -->
<!-- Title: matrix_inverse2 Pages: 1 -->
<svg width="328pt" height="290pt"
 viewBox="0.00 0.00 328.00 290.00" xmlns="http://www.w3.org/2000/svg" xmlns:xlink="http://www.w3.org/1999/xlink">
<g id="graph0" class="graph" transform="scale(1 1) rotate(0) translate(4 286)">
<title>matrix_inverse2</title>
<!-- Node1 -->
<g id="Node000001" class="node">
<title>Node1</title>
<g id="a_Node000001"><a xlink:title=" ">
<polygon fill="#999999" stroke="#666666" points="86,-150 0,-150 0,-131 86,-131 86,-150"/>
<text text-anchor="middle" x="43" y="-138" font-family="Helvetica" font-size="10.00">matrix_inverse2</text>
</a>
</g>
</g>
<!-- Node2 -->
<g id="Node000002" class="node">
<title>Node2</title>
<g id="a_Node000002"><a xlink:href="kc_8cpp.html#aa517f6dc1cd623e0f2fdc5f0f9ab8534" target="_top" xlink:title=" ">
<polygon fill="white" stroke="#666666" points="202.5,-282 137.5,-282 137.5,-263 202.5,-263 202.5,-282"/>
<text text-anchor="middle" x="170" y="-270" font-family="Helvetica" font-size="10.00">matrix_free</text>
</a>
</g>
</g>
<!-- Node1&#45;&gt;Node2 -->
<g id="edge1_Node000001_Node000002" class="edge">
<title>Node1&#45;&gt;Node2</title>
<g id="a_edge1_Node000001_Node000002"><a xlink:title=" ">
<path fill="none" stroke="#63b8ff" d="M48.84,-150.03C59.59,-170.39 87.23,-218.69 122,-248.5 126.07,-251.99 130.73,-255.14 135.51,-257.92"/>
<polygon fill="#63b8ff" stroke="#63b8ff" points="134.22,-261.2 144.7,-262.8 137.51,-255.02 134.22,-261.2"/>
</a>
</g>
</g>
<!-- Node3 -->
<g id="Node000003" class="node">
<title>Node3</title>
<g id="a_Node000003"><a xlink:href="kc_8cpp.html#ac42e23a54fc054272c49120386afd1e7" target="_top" xlink:title=" ">
<polygon fill="white" stroke="#666666" points="218,-206 122,-206 122,-187 218,-187 218,-206"/>
<text text-anchor="middle" x="170" y="-194" font-family="Helvetica" font-size="10.00">matrix_ludecomp2</text>
</a>
</g>
</g>
<!-- Node1&#45;&gt;Node3 -->
<g id="edge2_Node000001_Node000003" class="edge">
<title>Node1&#45;&gt;Node3</title>
<g id="a_edge2_Node000001_Node000003"><a xlink:title=" ">
<path fill="none" stroke="#63b8ff" d="M62.38,-150.02C78.06,-158 101.27,-169.5 122,-178.5 125.59,-180.06 129.37,-181.63 133.16,-183.15"/>
<polygon fill="#63b8ff" stroke="#63b8ff" points="131.9,-186.41 142.49,-186.81 134.46,-179.9 131.9,-186.41"/>
</a>
</g>
</g>
<!-- Node4 -->
<g id="Node000004" class="node">
<title>Node4</title>
<g id="a_Node000004"><a xlink:href="kc_8cpp.html#afc00baa57142e5db16101ade3200eea8" target="_top" xlink:title=" ">
<polygon fill="white" stroke="#666666" points="319.5,-206 254.5,-206 254.5,-187 319.5,-187 319.5,-206"/>
<text text-anchor="middle" x="287" y="-194" font-family="Helvetica" font-size="10.00">vector_free</text>
</a>
</g>
</g>
<!-- Node1&#45;&gt;Node4 -->
<g id="edge9_Node000001_Node000004" class="edge">
<title>Node1&#45;&gt;Node4</title>
<g id="a_edge9_Node000001_Node000004"><a xlink:title=" ">
<path fill="none" stroke="#63b8ff" d="M50.28,-150.23C61.96,-167.31 88.89,-202.16 122,-215.5 165.07,-232.85 219.31,-220.63 253.33,-209.32"/>
<polygon fill="#63b8ff" stroke="#63b8ff" points="254.49,-212.62 262.78,-206.03 252.19,-206.01 254.49,-212.62"/>
</a>
</g>
</g>
<!-- Node5 -->
<g id="Node000005" class="node">
<title>Node5</title>
<g id="a_Node000005"><a xlink:href="kc_8cpp.html#a155bb2cc033bfd9bafbde8d31432f7ad" target="_top" xlink:title=" ">
<polygon fill="white" stroke="#666666" points="320,-169 254,-169 254,-150 320,-150 320,-169"/>
<text text-anchor="middle" x="287" y="-157" font-family="Helvetica" font-size="10.00">vector_new</text>
</a>
</g>
</g>
<!-- Node1&#45;&gt;Node5 -->
<g id="edge10_Node000001_Node000005" class="edge">
<title>Node1&#45;&gt;Node5</title>
<g id="a_edge10_Node000001_Node000005"><a xlink:title=" ">
<path fill="none" stroke="#63b8ff" d="M86.06,-137.32C121.43,-135.4 173.26,-134.37 218,-140.5 228.09,-141.88 238.8,-144.37 248.66,-147.1"/>
<polygon fill="#63b8ff" stroke="#63b8ff" points="247.99,-150.55 258.57,-150 249.95,-143.83 247.99,-150.55"/>
</a>
</g>
</g>
<!-- Node6 -->
<g id="Node000006" class="node">
<title>Node6</title>
<g id="a_Node000006"><a xlink:href="kc_8cpp.html#a946d5288784bd06ff1ba6f09d5eb1f11" target="_top" xlink:title=" ">
<polygon fill="white" stroke="#666666" points="213,-169 127,-169 127,-150 213,-150 213,-169"/>
<text text-anchor="middle" x="170" y="-157" font-family="Helvetica" font-size="10.00">matrix_lusubst2</text>
</a>
</g>
</g>
<!-- Node1&#45;&gt;Node6 -->
<g id="edge5_Node000001_Node000006" class="edge">
<title>Node1&#45;&gt;Node6</title>
<g id="a_edge5_Node000001_Node000006"><a xlink:title=" ">
<path fill="none" stroke="#63b8ff" d="M86.32,-146.93C96.09,-148.42 106.61,-150.02 116.75,-151.56"/>
<polygon fill="#63b8ff" stroke="#63b8ff" points="116.31,-155.03 126.72,-153.07 117.36,-148.11 116.31,-155.03"/>
</a>
</g>
</g>
<!-- Node7 -->
<g id="Node000007" class="node">
<title>Node7</title>
<g id="a_Node000007"><a xlink:href="kc_8cpp.html#ac75528b11a2997977101b6e9ded2c7cf" target="_top" xlink:title=" ">
<polygon fill="white" stroke="#666666" points="203.5,-93 136.5,-93 136.5,-74 203.5,-74 203.5,-93"/>
<text text-anchor="middle" x="170" y="-81" font-family="Helvetica" font-size="10.00">matrix_new</text>
</a>
</g>
</g>
<!-- Node1&#45;&gt;Node7 -->
<g id="edge8_Node000001_Node000007" class="edge">
<title>Node1&#45;&gt;Node7</title>
<g id="a_edge8_Node000001_Node000007"><a xlink:title=" ">
<path fill="none" stroke="#63b8ff" d="M64.92,-130.96C85.11,-121.75 115.9,-107.72 138.75,-97.29"/>
<polygon fill="#63b8ff" stroke="#63b8ff" points="140.36,-100.41 148.01,-93.07 137.46,-94.04 140.36,-100.41"/>
</a>
</g>
</g>
<!-- Node8 -->
<g id="Node000008" class="node">
<title>Node8</title>
<g id="a_Node000008"><a xlink:href="kc_8cpp.html#a595f09d7b5e2d197a0d8d4cef8a061ae" target="_top" xlink:title=" ">
<polygon fill="white" stroke="#666666" points="203.5,-56 136.5,-56 136.5,-37 203.5,-37 203.5,-56"/>
<text text-anchor="middle" x="170" y="-44" font-family="Helvetica" font-size="10.00">vectori_free</text>
</a>
</g>
</g>
<!-- Node1&#45;&gt;Node8 -->
<g id="edge11_Node000001_Node000008" class="edge">
<title>Node1&#45;&gt;Node8</title>
<g id="a_edge11_Node000001_Node000008"><a xlink:title=" ">
<path fill="none" stroke="#63b8ff" d="M51.66,-130.81C64.62,-114.98 92.38,-83.45 122,-64.5 124.27,-63.05 126.67,-61.69 129.14,-60.41"/>
<polygon fill="#63b8ff" stroke="#63b8ff" points="130.68,-63.56 138.28,-56.18 127.74,-57.21 130.68,-63.56"/>
</a>
</g>
</g>
<!-- Node9 -->
<g id="Node000009" class="node">
<title>Node9</title>
<g id="a_Node000009"><a xlink:href="kc_8cpp.html#a0fad130527c83326c9dfe7da022700e0" target="_top" xlink:title=" ">
<polygon fill="white" stroke="#666666" points="204,-19 136,-19 136,0 204,0 204,-19"/>
<text text-anchor="middle" x="170" y="-7" font-family="Helvetica" font-size="10.00">vectori_new</text>
</a>
</g>
</g>
<!-- Node1&#45;&gt;Node9 -->
<g id="edge12_Node000001_Node000009" class="edge">
<title>Node1&#45;&gt;Node9</title>
<g id="a_edge12_Node000001_Node000009"><a xlink:title=" ">
<path fill="none" stroke="#63b8ff" d="M48.18,-130.87C57.99,-109.36 84.52,-56.96 122,-27.5 123.6,-26.24 125.29,-25.07 127.05,-23.97"/>
<polygon fill="#63b8ff" stroke="#63b8ff" points="129.08,-26.86 136.27,-19.08 125.8,-20.67 129.08,-26.86"/>
</a>
</g>
</g>
<!-- Node3&#45;&gt;Node4 -->
<g id="edge3_Node000003_Node000004" class="edge">
<title>Node3&#45;&gt;Node4</title>
<g id="a_edge3_Node000003_Node000004"><a xlink:title=" ">
<path fill="none" stroke="#63b8ff" d="M218.11,-196.5C226.75,-196.5 235.72,-196.5 244.19,-196.5"/>
<polygon fill="#63b8ff" stroke="#63b8ff" points="244.23,-200 254.23,-196.5 244.23,-193 244.23,-200"/>
</a>
</g>
</g>
<!-- Node3&#45;&gt;Node5 -->
<g id="edge4_Node000003_Node000005" class="edge">
<title>Node3&#45;&gt;Node5</title>
<g id="a_edge4_Node000003_Node000005"><a xlink:title=" ">
<path fill="none" stroke="#63b8ff" d="M200.62,-186.97C214.59,-182.48 231.47,-177.05 246.51,-172.2"/>
<polygon fill="#63b8ff" stroke="#63b8ff" points="247.64,-175.52 256.09,-169.12 245.49,-168.86 247.64,-175.52"/>
</a>
</g>
</g>
<!-- Node6&#45;&gt;Node4 -->
<g id="edge6_Node000006_Node000004" class="edge">
<title>Node6&#45;&gt;Node4</title>
<g id="a_edge6_Node000006_Node000004"><a xlink:title=" ">
<path fill="none" stroke="#63b8ff" d="M200.62,-169.03C214.59,-173.52 231.47,-178.95 246.51,-183.8"/>
<polygon fill="#63b8ff" stroke="#63b8ff" points="245.49,-187.14 256.09,-186.88 247.64,-180.48 245.49,-187.14"/>
</a>
</g>
</g>
<!-- Node6&#45;&gt;Node5 -->
<g id="edge7_Node000006_Node000005" class="edge">
<title>Node6&#45;&gt;Node5</title>
<g id="a_edge7_Node000006_Node000005"><a xlink:title=" ">
<path fill="none" stroke="#63b8ff" d="M213.17,-159.5C223.16,-159.5 233.82,-159.5 243.81,-159.5"/>
<polygon fill="#63b8ff" stroke="#63b8ff" points="243.93,-163 253.93,-159.5 243.93,-156 243.93,-163"/>
</a>
</g>
</g>
</g>
</svg>
