<?xml version="1.0" encoding="UTF-8" standalone="no"?>
<!DOCTYPE svg PUBLIC "-//W3C//DTD SVG 1.1//EN"
 "http://www.w3.org/Graphics/SVG/1.1/DTD/svg11.dtd">
<!-- Generated by graphviz version 2.44.0 (0)
 -->
<!-- Title: matrix_stdRow Pages: 1 -->
<svg width="171pt" height="64pt"
 viewBox="0.00 0.00 171.00 64.00" xmlns="http://www.w3.org/2000/svg" xmlns:xlink="http://www.w3.org/1999/xlink">
<g id="graph0" class="graph" transform="scale(1 1) rotate(0) translate(4 60)">
<title>matrix_stdRow</title>
<!-- Node1 -->
<g id="Node000001" class="node">
<title>Node1</title>
<g id="a_Node000001"><a xlink:title=" ">
<polygon fill="#999999" stroke="#666666" points="83,-37 0,-37 0,-18 83,-18 83,-37"/>
<text text-anchor="middle" x="41.5" y="-25" font-family="Helvetica" font-size="10.00">matrix_stdRow</text>
</a>
</g>
</g>
<!-- Node2 -->
<g id="Node000002" class="node">
<title>Node2</title>
<g id="a_Node000002"><a xlink:href="kc_8cpp.html#ae263d464ebb9d7304f3c8043c41622b7" target="_top" xlink:title=" ">
<polygon fill="white" stroke="#666666" points="163,-56 119,-56 119,-37 163,-37 163,-56"/>
<text text-anchor="middle" x="141" y="-44" font-family="Helvetica" font-size="10.00">avevar</text>
</a>
</g>
</g>
<!-- Node1&#45;&gt;Node2 -->
<g id="edge1_Node000001_Node000002" class="edge">
<title>Node1&#45;&gt;Node2</title>
<g id="a_edge1_Node000001_Node000002"><a xlink:title=" ">
<path fill="none" stroke="#63b8ff" d="M83,-35.39C91.68,-37.08 100.73,-38.85 108.98,-40.46"/>
<polygon fill="#63b8ff" stroke="#63b8ff" points="108.45,-43.92 118.93,-42.39 109.79,-37.05 108.45,-43.92"/>
</a>
</g>
</g>
<!-- Node3 -->
<g id="Node000003" class="node">
<title>Node3</title>
<g id="a_Node000003"><a xlink:href="kc_8cpp.html#ab01d6eb051febfe28b8ac2987dcfe524" target="_top" xlink:title=" ">
<polygon fill="white" stroke="#666666" points="161.5,-19 120.5,-19 120.5,0 161.5,0 161.5,-19"/>
<text text-anchor="middle" x="141" y="-7" font-family="Helvetica" font-size="10.00">mean</text>
</a>
</g>
</g>
<!-- Node1&#45;&gt;Node3 -->
<g id="edge2_Node000001_Node000003" class="edge">
<title>Node1&#45;&gt;Node3</title>
<g id="a_edge2_Node000001_Node000003"><a xlink:title=" ">
<path fill="none" stroke="#63b8ff" d="M83,-20.02C92.15,-18.33 101.7,-16.57 110.31,-14.98"/>
<polygon fill="#63b8ff" stroke="#63b8ff" points="111.06,-18.4 120.25,-13.15 109.78,-11.52 111.06,-18.4"/>
</a>
</g>
</g>
</g>
</svg>
