<?xml version="1.0" encoding="UTF-8" standalone="no"?>
<!DOCTYPE svg PUBLIC "-//W3C//DTD SVG 1.1//EN"
 "http://www.w3.org/Graphics/SVG/1.1/DTD/svg11.dtd">
<!-- Generated by graphviz version 2.44.0 (0)
 -->
<!-- Title: matrix_rowMean Pages: 1 -->
<svg width="199pt" height="101pt"
 viewBox="0.00 0.00 199.00 101.00" xmlns="http://www.w3.org/2000/svg" xmlns:xlink="http://www.w3.org/1999/xlink">
<g id="graph0" class="graph" transform="scale(1 1) rotate(0) translate(4 97)">
<title>matrix_rowMean</title>
<!-- Node1 -->
<g id="Node000001" class="node">
<title>Node1</title>
<g id="a_Node000001"><a xlink:title=" ">
<polygon fill="#999999" stroke="#666666" points="89,-56 0,-56 0,-37 89,-37 89,-56"/>
<text text-anchor="middle" x="44.5" y="-44" font-family="Helvetica" font-size="10.00">matrix_rowMean</text>
</a>
</g>
</g>
<!-- Node2 -->
<g id="Node000002" class="node">
<title>Node2</title>
<g id="a_Node000002"><a xlink:href="kc_8cpp.html#a551c44bbe1dfb82808f03d8c2ec65fdd" target="_top" xlink:title=" ">
<polygon fill="white" stroke="#666666" points="190.5,-93 125.5,-93 125.5,-74 190.5,-74 190.5,-93"/>
<text text-anchor="middle" x="158" y="-81" font-family="Helvetica" font-size="10.00">matrix_row</text>
</a>
</g>
</g>
<!-- Node1&#45;&gt;Node2 -->
<g id="edge1_Node000001_Node000002" class="edge">
<title>Node1&#45;&gt;Node2</title>
<g id="a_edge1_Node000001_Node000002"><a xlink:title=" ">
<path fill="none" stroke="#63b8ff" d="M74.21,-56.03C87.64,-60.48 103.81,-65.85 118.3,-70.66"/>
<polygon fill="#63b8ff" stroke="#63b8ff" points="117.4,-74.05 128,-73.88 119.61,-67.4 117.4,-74.05"/>
</a>
</g>
</g>
<!-- Node3 -->
<g id="Node000003" class="node">
<title>Node3</title>
<g id="a_Node000003"><a xlink:href="kc_8cpp.html#ab01d6eb051febfe28b8ac2987dcfe524" target="_top" xlink:title=" ">
<polygon fill="white" stroke="#666666" points="178.5,-56 137.5,-56 137.5,-37 178.5,-37 178.5,-56"/>
<text text-anchor="middle" x="158" y="-44" font-family="Helvetica" font-size="10.00">mean</text>
</a>
</g>
</g>
<!-- Node1&#45;&gt;Node3 -->
<g id="edge2_Node000001_Node000003" class="edge">
<title>Node1&#45;&gt;Node3</title>
<g id="a_edge2_Node000001_Node000003"><a xlink:title=" ">
<path fill="none" stroke="#63b8ff" d="M89.25,-46.5C101.95,-46.5 115.53,-46.5 127.17,-46.5"/>
<polygon fill="#63b8ff" stroke="#63b8ff" points="127.23,-50 137.23,-46.5 127.23,-43 127.23,-50"/>
</a>
</g>
</g>
<!-- Node4 -->
<g id="Node000004" class="node">
<title>Node4</title>
<g id="a_Node000004"><a xlink:href="kc_8cpp.html#a155bb2cc033bfd9bafbde8d31432f7ad" target="_top" xlink:title=" ">
<polygon fill="white" stroke="#666666" points="191,-19 125,-19 125,0 191,0 191,-19"/>
<text text-anchor="middle" x="158" y="-7" font-family="Helvetica" font-size="10.00">vector_new</text>
</a>
</g>
</g>
<!-- Node1&#45;&gt;Node4 -->
<g id="edge3_Node000001_Node000004" class="edge">
<title>Node1&#45;&gt;Node4</title>
<g id="a_edge3_Node000001_Node000004"><a xlink:title=" ">
<path fill="none" stroke="#63b8ff" d="M74.21,-36.97C87.64,-32.52 103.81,-27.15 118.3,-22.34"/>
<polygon fill="#63b8ff" stroke="#63b8ff" points="119.61,-25.6 128,-19.12 117.4,-18.95 119.61,-25.6"/>
</a>
</g>
</g>
</g>
</svg>
