<?xml version="1.0" encoding="UTF-8" standalone="no"?>
<!DOCTYPE svg PUBLIC "-//W3C//DTD SVG 1.1//EN"
 "http://www.w3.org/Graphics/SVG/1.1/DTD/svg11.dtd">
<!-- Generated by graphviz version 2.44.0 (0)
 -->
<!-- Title: vector_new Pages: 1 -->
<svg width="490pt" height="712pt"
 viewBox="0.00 0.00 490.00 712.15" xmlns="http://www.w3.org/2000/svg" xmlns:xlink="http://www.w3.org/1999/xlink">
<g id="graph0" class="graph" transform="scale(1 1) rotate(0) translate(4 708.15)">
<title>vector_new</title>
<!-- Node1 -->
<g id="Node000001" class="node">
<title>Node1</title>
<g id="a_Node000001"><a xlink:title=" ">
<polygon fill="#999999" stroke="#666666" points="482,-353 416,-353 416,-334 482,-334 482,-353"/>
<text text-anchor="middle" x="449" y="-341" font-family="Helvetica" font-size="10.00">vector_new</text>
</a>
</g>
</g>
<!-- Node2 -->
<g id="Node000002" class="node">
<title>Node2</title>
<g id="a_Node000002"><a xlink:href="kc_8cpp.html#a865598a7017730b2bdf24cf6269d0f23" target="_top" xlink:title=" ">
<polygon fill="white" stroke="#666666" points="369.5,-580 283.5,-580 283.5,-561 369.5,-561 369.5,-580"/>
<text text-anchor="middle" x="326.5" y="-568" font-family="Helvetica" font-size="10.00">matrix_colMean</text>
</a>
</g>
</g>
<!-- Node1&#45;&gt;Node2 -->
<g id="edge1_Node000001_Node000002" class="edge">
<title>Node1&#45;&gt;Node2</title>
<g id="a_edge1_Node000001_Node000002"><a xlink:title=" ">
<path fill="none" stroke="#63b8ff" d="M447.21,-363.45C444.52,-404.5 432.61,-499.06 380,-552.5 376.62,-555.93 372.56,-558.71 368.21,-560.96"/>
<polygon fill="#63b8ff" stroke="#63b8ff" points="450.71,-363.54 447.75,-353.37 443.72,-363.16 450.71,-363.54"/>
</a>
</g>
</g>
<!-- Node4 -->
<g id="Node000004" class="node">
<title>Node4</title>
<g id="a_Node000004"><a xlink:href="kc_8cpp.html#ae64a3eb3736d5788d72eaf7ad6927421" target="_top" xlink:title=" ">
<polygon fill="white" stroke="#666666" points="92,-654 9,-654 9,-635 92,-635 92,-654"/>
<text text-anchor="middle" x="50.5" y="-642" font-family="Helvetica" font-size="10.00">matrix_pcaCov</text>
</a>
</g>
</g>
<!-- Node1&#45;&gt;Node4 -->
<g id="edge24_Node000001_Node000004" class="edge">
<title>Node1&#45;&gt;Node4</title>
<g id="a_edge24_Node000001_Node000004"><a xlink:title=" ">
<path fill="none" stroke="#63b8ff" d="M446.78,-363.65C442.46,-427.72 425.63,-624.94 380,-665.5 290.31,-745.23 126.71,-680.02 70.82,-654.01"/>
<polygon fill="#63b8ff" stroke="#63b8ff" points="450.3,-363.51 447.45,-353.3 443.31,-363.06 450.3,-363.51"/>
</a>
</g>
</g>
<!-- Node5 -->
<g id="Node000005" class="node">
<title>Node5</title>
<g id="a_Node000005"><a xlink:href="kc_8cpp.html#a165e97bd10a48d3c5da908938468212b" target="_top" xlink:title=" ">
<polygon fill="white" stroke="#666666" points="227,-654 147,-654 147,-635 227,-635 227,-654"/>
<text text-anchor="middle" x="187" y="-642" font-family="Helvetica" font-size="10.00">matrix_pcaCor</text>
</a>
</g>
</g>
<!-- Node1&#45;&gt;Node5 -->
<g id="edge23_Node000001_Node000005" class="edge">
<title>Node1&#45;&gt;Node5</title>
<g id="a_edge23_Node000001_Node000005"><a xlink:title=" ">
<path fill="none" stroke="#63b8ff" d="M448.61,-363.31C448.91,-409.64 442.96,-525.95 380,-589.5 369.11,-600.49 280.06,-622.9 227.14,-635.45"/>
<polygon fill="#63b8ff" stroke="#63b8ff" points="452.1,-363.05 448.43,-353.11 445.11,-363.17 452.1,-363.05"/>
</a>
</g>
</g>
<!-- Node6 -->
<g id="Node000006" class="node">
<title>Node6</title>
<g id="a_Node000006"><a xlink:href="kc_8cpp.html#ad5ea42776f7ed1dcb54d04db645487c3" target="_top" xlink:title=" ">
<polygon fill="white" stroke="#666666" points="364.5,-543 288.5,-543 288.5,-524 364.5,-524 364.5,-543"/>
<text text-anchor="middle" x="326.5" y="-531" font-family="Helvetica" font-size="10.00">matrix_colVar</text>
</a>
</g>
</g>
<!-- Node1&#45;&gt;Node6 -->
<g id="edge6_Node000001_Node000006" class="edge">
<title>Node1&#45;&gt;Node6</title>
<g id="a_edge6_Node000001_Node000006"><a xlink:title=" ">
<path fill="none" stroke="#63b8ff" d="M444.81,-363.11C438.35,-397.05 420.71,-467.13 380,-509.5 374.1,-515.64 366.33,-520.35 358.58,-523.9"/>
<polygon fill="#63b8ff" stroke="#63b8ff" points="448.29,-363.54 446.59,-353.08 441.4,-362.32 448.29,-363.54"/>
</a>
</g>
</g>
<!-- Node8 -->
<g id="Node000008" class="node">
<title>Node8</title>
<g id="a_Node000008"><a xlink:href="kc_8cpp.html#a68b4f000503d404e2dcd3b4cdbae952f" target="_top" xlink:title=" ">
<polygon fill="white" stroke="#666666" points="362.5,-656 290.5,-656 290.5,-637 362.5,-637 362.5,-656"/>
<text text-anchor="middle" x="326.5" y="-644" font-family="Helvetica" font-size="10.00">matrix_eigen</text>
</a>
</g>
</g>
<!-- Node1&#45;&gt;Node8 -->
<g id="edge8_Node000001_Node000008" class="edge">
<title>Node1&#45;&gt;Node8</title>
<g id="a_edge8_Node000001_Node000008"><a xlink:title=" ">
<path fill="none" stroke="#63b8ff" d="M448.74,-363.24C449.52,-412.76 444.96,-543.88 380,-622.5 374.83,-628.76 367.67,-633.46 360.31,-636.96"/>
<polygon fill="#63b8ff" stroke="#63b8ff" points="452.23,-363.13 448.48,-353.22 445.24,-363.3 452.23,-363.13"/>
</a>
</g>
</g>
<!-- Node9 -->
<g id="Node000009" class="node">
<title>Node9</title>
<g id="a_Node000009"><a xlink:href="kc_8cpp.html#af0e16ee0cbf76fe1a067c0f4132e8774" target="_top" xlink:title=" ">
<polygon fill="white" stroke="#666666" points="227,-504 147,-504 147,-485 227,-485 227,-504"/>
<text text-anchor="middle" x="187" y="-492" font-family="Helvetica" font-size="10.00">matrix_inverse</text>
</a>
</g>
</g>
<!-- Node1&#45;&gt;Node9 -->
<g id="edge11_Node000001_Node000009" class="edge">
<title>Node1&#45;&gt;Node9</title>
<g id="a_edge11_Node000001_Node000009"><a xlink:title=" ">
<path fill="none" stroke="#63b8ff" d="M444.11,-363.45C437.08,-393.56 419.21,-449.92 380,-476.5 334.69,-507.22 268.94,-506.04 227.34,-501.18"/>
<polygon fill="#63b8ff" stroke="#63b8ff" points="447.61,-363.82 446.29,-353.31 440.77,-362.35 447.61,-363.82"/>
</a>
</g>
</g>
<!-- Node12 -->
<g id="Node000012" class="node">
<title>Node12</title>
<g id="a_Node000012"><a xlink:href="kc_8cpp.html#ad66fdb823fdc1c7260a0459c1912203f" target="_top" xlink:title=" ">
<polygon fill="white" stroke="#666666" points="99.5,-448 1.5,-448 1.5,-429 99.5,-429 99.5,-448"/>
<text text-anchor="middle" x="50.5" y="-436" font-family="Helvetica" font-size="10.00">matrix_regObsStat</text>
</a>
</g>
</g>
<!-- Node1&#45;&gt;Node12 -->
<g id="edge26_Node000001_Node000012" class="edge">
<title>Node1&#45;&gt;Node12</title>
<g id="a_edge26_Node000001_Node000012"><a xlink:title=" ">
<path fill="none" stroke="#63b8ff" d="M432.43,-360.84C419.7,-373.81 400.5,-390.75 380,-399.5 330.68,-420.56 178.5,-431.65 99.78,-436.11"/>
<polygon fill="#63b8ff" stroke="#63b8ff" points="435.15,-363.06 439.48,-353.39 430.07,-358.25 435.15,-363.06"/>
</a>
</g>
</g>
<!-- Node13 -->
<g id="Node000013" class="node">
<title>Node13</title>
<g id="a_Node000013"><a xlink:href="kc_8cpp.html#a81683e0787ad3491e6e65a83bf05124f" target="_top" xlink:title=" ">
<polygon fill="white" stroke="#666666" points="230,-353 144,-353 144,-334 230,-334 230,-353"/>
<text text-anchor="middle" x="187" y="-341" font-family="Helvetica" font-size="10.00">matrix_inverse2</text>
</a>
</g>
</g>
<!-- Node1&#45;&gt;Node13 -->
<g id="edge15_Node000001_Node000013" class="edge">
<title>Node1&#45;&gt;Node13</title>
<g id="a_edge15_Node000001_Node000013"><a xlink:title=" ">
<path fill="none" stroke="#63b8ff" d="M405.74,-343.5C357.42,-343.5 278.78,-343.5 230.4,-343.5"/>
<polygon fill="#63b8ff" stroke="#63b8ff" points="405.86,-347 415.86,-343.5 405.86,-340 405.86,-347"/>
</a>
</g>
</g>
<!-- Node14 -->
<g id="Node000014" class="node">
<title>Node14</title>
<g id="a_Node000014"><a xlink:href="kc_8cpp.html#a85a2f9c7ff758c36a67d0b8a58424404" target="_top" xlink:title=" ">
<polygon fill="white" stroke="#666666" points="372,-467 281,-467 281,-448 372,-448 372,-467"/>
<text text-anchor="middle" x="326.5" y="-455" font-family="Helvetica" font-size="10.00">matrix_ludecomp</text>
</a>
</g>
</g>
<!-- Node1&#45;&gt;Node14 -->
<g id="edge16_Node000001_Node000014" class="edge">
<title>Node1&#45;&gt;Node14</title>
<g id="a_edge16_Node000001_Node000014"><a xlink:title=" ">
<path fill="none" stroke="#63b8ff" d="M437.88,-361.87C426.17,-381.73 405.2,-413.28 380,-433.5 372.65,-439.4 363.62,-444.2 355.14,-447.91"/>
<polygon fill="#63b8ff" stroke="#63b8ff" points="440.94,-363.57 442.87,-353.15 434.87,-360.09 440.94,-363.57"/>
</a>
</g>
</g>
<!-- Node16 -->
<g id="Node000016" class="node">
<title>Node16</title>
<g id="a_Node000016"><a xlink:href="kc_8cpp.html#ac42e23a54fc054272c49120386afd1e7" target="_top" xlink:title=" ">
<polygon fill="white" stroke="#666666" points="374.5,-315 278.5,-315 278.5,-296 374.5,-296 374.5,-315"/>
<text text-anchor="middle" x="326.5" y="-303" font-family="Helvetica" font-size="10.00">matrix_ludecomp2</text>
</a>
</g>
</g>
<!-- Node1&#45;&gt;Node16 -->
<g id="edge19_Node000001_Node000016" class="edge">
<title>Node1&#45;&gt;Node16</title>
<g id="a_edge19_Node000001_Node000016"><a xlink:title=" ">
<path fill="none" stroke="#63b8ff" d="M407.79,-330.82C391.51,-325.69 373.02,-319.86 357.9,-315.09"/>
<polygon fill="#63b8ff" stroke="#63b8ff" points="407,-334.24 417.59,-333.91 409.11,-327.57 407,-334.24"/>
</a>
</g>
</g>
<!-- Node17 -->
<g id="Node000017" class="node">
<title>Node17</title>
<g id="a_Node000017"><a xlink:href="kc_8cpp.html#a946d5288784bd06ff1ba6f09d5eb1f11" target="_top" xlink:title=" ">
<polygon fill="white" stroke="#666666" points="369.5,-391 283.5,-391 283.5,-372 369.5,-372 369.5,-391"/>
<text text-anchor="middle" x="326.5" y="-379" font-family="Helvetica" font-size="10.00">matrix_lusubst2</text>
</a>
</g>
</g>
<!-- Node1&#45;&gt;Node17 -->
<g id="edge21_Node000001_Node000017" class="edge">
<title>Node1&#45;&gt;Node17</title>
<g id="a_edge21_Node000001_Node000017"><a xlink:title=" ">
<path fill="none" stroke="#63b8ff" d="M407.79,-356.18C391.51,-361.31 373.02,-367.14 357.9,-371.91"/>
<polygon fill="#63b8ff" stroke="#63b8ff" points="409.11,-359.43 417.59,-353.09 407,-352.76 409.11,-359.43"/>
</a>
</g>
</g>
<!-- Node18 -->
<g id="Node000018" class="node">
<title>Node18</title>
<g id="a_Node000018"><a xlink:href="kc_8cpp.html#acf18fe54721a1ca7a61f70f4fdc637e3" target="_top" xlink:title=" ">
<polygon fill="white" stroke="#666666" points="380,-278 273,-278 273,-259 380,-259 380,-278"/>
<text text-anchor="middle" x="326.5" y="-266" font-family="Helvetica" font-size="10.00">matrix_regModelStat</text>
</a>
</g>
</g>
<!-- Node1&#45;&gt;Node18 -->
<g id="edge25_Node000001_Node000018" class="edge">
<title>Node1&#45;&gt;Node18</title>
<g id="a_edge25_Node000001_Node000018"><a xlink:title=" ">
<path fill="none" stroke="#63b8ff" d="M431.46,-326.6C418.44,-314.1 399.33,-297.41 380,-286.5 374.21,-283.23 367.73,-280.42 361.35,-278.05"/>
<polygon fill="#63b8ff" stroke="#63b8ff" points="429.14,-329.23 438.72,-333.76 434.06,-324.25 429.14,-329.23"/>
</a>
</g>
</g>
<!-- Node19 -->
<g id="Node000019" class="node">
<title>Node19</title>
<g id="a_Node000019"><a xlink:href="kc_8cpp.html#a76900cdbfa88f73145d4be6b0e796fcd" target="_top" xlink:title=" ">
<polygon fill="white" stroke="#666666" points="371,-241 282,-241 282,-222 371,-222 371,-241"/>
<text text-anchor="middle" x="326.5" y="-229" font-family="Helvetica" font-size="10.00">matrix_rowMean</text>
</a>
</g>
</g>
<!-- Node1&#45;&gt;Node19 -->
<g id="edge27_Node000001_Node000019" class="edge">
<title>Node1&#45;&gt;Node19</title>
<g id="a_edge27_Node000001_Node000019"><a xlink:title=" ">
<path fill="none" stroke="#63b8ff" d="M438.95,-324.75C427.85,-303.61 407.11,-269.58 380,-249.5 375.43,-246.12 370.18,-243.34 364.8,-241.06"/>
<polygon fill="#63b8ff" stroke="#63b8ff" points="435.85,-326.38 443.49,-333.72 442.1,-323.22 435.85,-326.38"/>
</a>
</g>
</g>
<!-- Node20 -->
<g id="Node000020" class="node">
<title>Node20</title>
<g id="a_Node000020"><a xlink:href="kc_8cpp.html#a92e391e59a08cba2c92774a03b97f038" target="_top" xlink:title=" ">
<polygon fill="white" stroke="#666666" points="366,-204 287,-204 287,-185 366,-185 366,-204"/>
<text text-anchor="middle" x="326.5" y="-192" font-family="Helvetica" font-size="10.00">matrix_rowVar</text>
</a>
</g>
</g>
<!-- Node1&#45;&gt;Node20 -->
<g id="edge28_Node000001_Node000020" class="edge">
<title>Node1&#45;&gt;Node20</title>
<g id="a_edge28_Node000001_Node000020"><a xlink:title=" ">
<path fill="none" stroke="#63b8ff" d="M442.83,-323.72C434.39,-295.19 414.96,-242.62 380,-212.5 375.91,-208.98 371.1,-206.14 366.08,-203.84"/>
<polygon fill="#63b8ff" stroke="#63b8ff" points="439.56,-325.02 445.62,-333.7 446.3,-323.13 439.56,-325.02"/>
</a>
</g>
</g>
<!-- Node21 -->
<g id="Node000021" class="node">
<title>Node21</title>
<g id="a_Node000021"><a xlink:href="kc_8cpp.html#ac641037bb0dc9795e1565903868cc017" target="_top" xlink:title=" ">
<polygon fill="white" stroke="#666666" points="359,-167 294,-167 294,-148 359,-148 359,-167"/>
<text text-anchor="middle" x="326.5" y="-155" font-family="Helvetica" font-size="10.00">matrix_svd</text>
</a>
</g>
</g>
<!-- Node1&#45;&gt;Node21 -->
<g id="edge29_Node000001_Node000021" class="edge">
<title>Node1&#45;&gt;Node21</title>
<g id="a_edge29_Node000001_Node000021"><a xlink:title=" ">
<path fill="none" stroke="#63b8ff" d="M445.39,-323.72C439.76,-288.91 423.31,-216.52 380,-175.5 374.19,-170 366.63,-166.18 359.07,-163.52"/>
<polygon fill="#63b8ff" stroke="#63b8ff" points="441.98,-324.6 446.9,-333.98 448.91,-323.58 441.98,-324.6"/>
</a>
</g>
</g>
<!-- Node22 -->
<g id="Node000022" class="node">
<title>Node22</title>
<g id="a_Node000022"><a xlink:href="kc_8cpp.html#a2eab47d949124ded160b9de53426ff11" target="_top" xlink:title=" ">
<polygon fill="white" stroke="#666666" points="369,-130 284,-130 284,-111 369,-111 369,-130"/>
<text text-anchor="middle" x="326.5" y="-118" font-family="Helvetica" font-size="10.00">matrix_toVector</text>
</a>
</g>
</g>
<!-- Node1&#45;&gt;Node22 -->
<g id="edge30_Node000001_Node000022" class="edge">
<title>Node1&#45;&gt;Node22</title>
<g id="a_edge30_Node000001_Node000022"><a xlink:title=" ">
<path fill="none" stroke="#63b8ff" d="M447.07,-323.67C444.11,-283.25 431.73,-190.76 380,-138.5 376.61,-135.08 372.54,-132.3 368.19,-130.06"/>
<polygon fill="#63b8ff" stroke="#63b8ff" points="443.59,-324.05 447.69,-333.82 450.57,-323.62 443.59,-324.05"/>
</a>
</g>
</g>
<!-- Node23 -->
<g id="Node000023" class="node">
<title>Node23</title>
<g id="a_Node000023"><a xlink:href="kc_8cpp.html#ac39612a3850b3db9639ce7b945b33217" target="_top" xlink:title=" ">
<polygon fill="white" stroke="#666666" points="364,-93 289,-93 289,-74 364,-74 364,-93"/>
<text text-anchor="middle" x="326.5" y="-81" font-family="Helvetica" font-size="10.00">matrix_tridiag</text>
</a>
</g>
</g>
<!-- Node1&#45;&gt;Node23 -->
<g id="edge31_Node000001_Node000023" class="edge">
<title>Node1&#45;&gt;Node23</title>
<g id="a_edge31_Node000001_Node000023"><a xlink:title=" ">
<path fill="none" stroke="#63b8ff" d="M448.28,-323.6C447.81,-278.04 440.24,-165.24 380,-101.5 375.63,-96.88 370.03,-93.44 364.11,-90.89"/>
<polygon fill="#63b8ff" stroke="#63b8ff" points="444.78,-323.65 448.27,-333.66 451.78,-323.66 444.78,-323.65"/>
</a>
</g>
</g>
<!-- Node24 -->
<g id="Node000024" class="node">
<title>Node24</title>
<g id="a_Node000024"><a xlink:href="kc_8cpp.html#a16f2581527695cfe549555c5a4d79df4" target="_top" xlink:title=" ">
<polygon fill="white" stroke="#666666" points="361,-56 292,-56 292,-37 361,-37 361,-56"/>
<text text-anchor="middle" x="326.5" y="-44" font-family="Helvetica" font-size="10.00">vector_copy</text>
</a>
</g>
</g>
<!-- Node1&#45;&gt;Node24 -->
<g id="edge32_Node000001_Node000024" class="edge">
<title>Node1&#45;&gt;Node24</title>
<g id="a_edge32_Node000001_Node000024"><a xlink:title=" ">
<path fill="none" stroke="#63b8ff" d="M445.62,-323.48C438.45,-266.18 415.29,-103.17 380,-64.5 374.93,-58.95 368.08,-55.11 361,-52.45"/>
<polygon fill="#63b8ff" stroke="#63b8ff" points="442.19,-324.24 446.88,-333.74 449.14,-323.39 442.19,-324.24"/>
</a>
</g>
</g>
<!-- Node25 -->
<g id="Node000025" class="node">
<title>Node25</title>
<g id="a_Node000025"><a xlink:href="kc_8cpp.html#aadde5fe08df3343588334adfdb8934fb" target="_top" xlink:title=" ">
<polygon fill="white" stroke="#666666" points="369.5,-19 283.5,-19 283.5,0 369.5,0 369.5,-19"/>
<text text-anchor="middle" x="326.5" y="-7" font-family="Helvetica" font-size="10.00">vectori_toVector</text>
</a>
</g>
</g>
<!-- Node1&#45;&gt;Node25 -->
<g id="edge33_Node000001_Node000025" class="edge">
<title>Node1&#45;&gt;Node25</title>
<g id="a_edge33_Node000001_Node000025"><a xlink:title=" ">
<path fill="none" stroke="#63b8ff" d="M446.27,-323.73C440.45,-261.68 419.73,-72.23 380,-27.5 376.99,-24.11 373.32,-21.36 369.33,-19.13"/>
<polygon fill="#63b8ff" stroke="#63b8ff" points="442.79,-324.13 447.18,-333.77 449.76,-323.5 442.79,-324.13"/>
</a>
</g>
</g>
<!-- Node3 -->
<g id="Node000003" class="node">
<title>Node3</title>
<g id="a_Node000003"><a xlink:href="kc_8cpp.html#aa51dbc9f02003e376630381db9eab42c" target="_top" xlink:title=" ">
<polygon fill="white" stroke="#666666" points="233,-617 141,-617 141,-598 233,-598 233,-617"/>
<text text-anchor="middle" x="187" y="-605" font-family="Helvetica" font-size="10.00">matrix_covMatrix</text>
</a>
</g>
</g>
<!-- Node2&#45;&gt;Node3 -->
<g id="edge2_Node000002_Node000003" class="edge">
<title>Node2&#45;&gt;Node3</title>
<g id="a_edge2_Node000002_Node000003"><a xlink:title=" ">
<path fill="none" stroke="#63b8ff" d="M280.2,-582.69C261.87,-587.62 241.01,-593.24 223.77,-597.88"/>
<polygon fill="#63b8ff" stroke="#63b8ff" points="281.34,-586.01 290.09,-580.03 279.52,-579.25 281.34,-586.01"/>
</a>
</g>
</g>
<!-- Node2&#45;&gt;Node4 -->
<g id="edge5_Node000002_Node000004" class="edge">
<title>Node2&#45;&gt;Node4</title>
<g id="a_edge5_Node000002_Node000004"><a xlink:title=" ">
<path fill="none" stroke="#63b8ff" d="M272.99,-569.28C234.37,-569.93 181.14,-574.08 137,-589.5 107.51,-599.8 77.92,-622.15 62.48,-634.96"/>
<polygon fill="#63b8ff" stroke="#63b8ff" points="273.51,-572.78 283.48,-569.19 273.45,-565.78 273.51,-572.78"/>
</a>
</g>
</g>
<!-- Node2&#45;&gt;Node5 -->
<g id="edge4_Node000002_Node000005" class="edge">
<title>Node2&#45;&gt;Node5</title>
<g id="a_edge4_Node000002_Node000005"><a xlink:title=" ">
<path fill="none" stroke="#63b8ff" d="M291.53,-584.23C285.19,-587.29 278.75,-590.75 273,-594.5 255.07,-606.19 255.37,-615.51 237,-626.5 231.56,-629.76 225.43,-632.58 219.39,-634.96"/>
<polygon fill="#63b8ff" stroke="#63b8ff" points="293.02,-587.39 300.66,-580.05 290.11,-581.03 293.02,-587.39"/>
</a>
</g>
</g>
<!-- Node3&#45;&gt;Node4 -->
<g id="edge3_Node000003_Node000004" class="edge">
<title>Node3&#45;&gt;Node4</title>
<g id="a_edge3_Node000003_Node000004"><a xlink:title=" ">
<path fill="none" stroke="#63b8ff" d="M141.69,-619.69C123.76,-624.62 103.35,-630.24 86.49,-634.88"/>
<polygon fill="#63b8ff" stroke="#63b8ff" points="142.65,-623.06 151.36,-617.03 140.79,-616.31 142.65,-623.06"/>
</a>
</g>
</g>
<!-- Node7 -->
<g id="Node000007" class="node">
<title>Node7</title>
<g id="a_Node000007"><a xlink:href="kc_8cpp.html#aa04426b6994cdcfbbf77c3bb77e7a021" target="_top" xlink:title=" ">
<polygon fill="white" stroke="#666666" points="237,-541 137,-541 137,-522 237,-522 237,-541"/>
<text text-anchor="middle" x="187" y="-529" font-family="Helvetica" font-size="10.00">matrix_pcaComVar</text>
</a>
</g>
</g>
<!-- Node6&#45;&gt;Node7 -->
<g id="edge7_Node000006_Node000007" class="edge">
<title>Node6&#45;&gt;Node7</title>
<g id="a_edge7_Node000006_Node000007"><a xlink:title=" ">
<path fill="none" stroke="#63b8ff" d="M277.99,-532.81C264.79,-532.62 250.42,-532.41 237.13,-532.21"/>
<polygon fill="#63b8ff" stroke="#63b8ff" points="278.24,-536.31 288.29,-532.96 278.34,-529.31 278.24,-536.31"/>
</a>
</g>
</g>
<!-- Node8&#45;&gt;Node4 -->
<g id="edge10_Node000008_Node000004" class="edge">
<title>Node8&#45;&gt;Node4</title>
<g id="a_edge10_Node000008_Node000004"><a xlink:title=" ">
<path fill="none" stroke="#63b8ff" d="M280.6,-656.84C266.7,-659.57 251.29,-662.14 237,-663.5 192.76,-667.71 181.18,-668.35 137,-663.5 120.07,-661.64 101.59,-657.77 86.15,-654.01"/>
<polygon fill="#63b8ff" stroke="#63b8ff" points="281.31,-660.26 290.41,-654.83 279.91,-653.4 281.31,-660.26"/>
</a>
</g>
</g>
<!-- Node8&#45;&gt;Node5 -->
<g id="edge9_Node000008_Node000005" class="edge">
<title>Node8&#45;&gt;Node5</title>
<g id="a_edge9_Node000008_Node000005"><a xlink:title=" ">
<path fill="none" stroke="#63b8ff" d="M280.15,-645.84C263.08,-645.59 243.83,-645.31 227.36,-645.07"/>
<polygon fill="#63b8ff" stroke="#63b8ff" points="280.4,-649.34 290.45,-645.99 280.5,-642.34 280.4,-649.34"/>
</a>
</g>
</g>
<!-- Node10 -->
<g id="Node000010" class="node">
<title>Node10</title>
<g id="a_Node000010"><a xlink:href="kc_8cpp.html#a0458e14ed6d01fb333ea0b2a06035d87" target="_top" xlink:title=" ">
<polygon fill="white" stroke="#666666" points="81.5,-522 19.5,-522 19.5,-503 81.5,-503 81.5,-522"/>
<text text-anchor="middle" x="50.5" y="-510" font-family="Helvetica" font-size="10.00">matrix_reg</text>
</a>
</g>
</g>
<!-- Node9&#45;&gt;Node10 -->
<g id="edge12_Node000009_Node000010" class="edge">
<title>Node9&#45;&gt;Node10</title>
<g id="a_edge12_Node000009_Node000010"><a xlink:title=" ">
<path fill="none" stroke="#63b8ff" d="M136.72,-501.1C118.25,-503.57 97.83,-506.3 81.61,-508.47"/>
<polygon fill="#63b8ff" stroke="#63b8ff" points="137.29,-504.55 146.74,-499.75 136.36,-497.61 137.29,-504.55"/>
</a>
</g>
</g>
<!-- Node11 -->
<g id="Node000011" class="node">
<title>Node11</title>
<g id="a_Node000011"><a xlink:href="kc_8cpp.html#a77077c3de17b2dd212a275a4e0ff1750" target="_top" xlink:title=" ">
<polygon fill="white" stroke="#666666" points="101,-485 0,-485 0,-466 101,-466 101,-485"/>
<text text-anchor="middle" x="50.5" y="-473" font-family="Helvetica" font-size="10.00">matrix_regCoefStat</text>
</a>
</g>
</g>
<!-- Node9&#45;&gt;Node11 -->
<g id="edge13_Node000009_Node000011" class="edge">
<title>Node9&#45;&gt;Node11</title>
<g id="a_edge13_Node000009_Node000011"><a xlink:title=" ">
<path fill="none" stroke="#63b8ff" d="M136.76,-487.54C125.14,-485.9 112.75,-484.15 101.11,-482.51"/>
<polygon fill="#63b8ff" stroke="#63b8ff" points="136.34,-491.02 146.74,-488.95 137.32,-484.09 136.34,-491.02"/>
</a>
</g>
</g>
<!-- Node9&#45;&gt;Node12 -->
<g id="edge14_Node000009_Node000012" class="edge">
<title>Node9&#45;&gt;Node12</title>
<g id="a_edge14_Node000009_Node000012"><a xlink:title=" ">
<path fill="none" stroke="#63b8ff" d="M148.42,-481.28C144.53,-479.74 140.67,-478.13 137,-476.5 120.47,-469.14 117.47,-464.98 101,-457.5 93.71,-454.19 85.65,-450.94 78.2,-448.08"/>
<polygon fill="#63b8ff" stroke="#63b8ff" points="147.42,-484.65 158.01,-484.95 149.92,-478.11 147.42,-484.65"/>
</a>
</g>
</g>
<!-- Node14&#45;&gt;Node9 -->
<g id="edge18_Node000014_Node000009" class="edge">
<title>Node14&#45;&gt;Node9</title>
<g id="a_edge18_Node000014_Node000009"><a xlink:title=" ">
<path fill="none" stroke="#63b8ff" d="M280.2,-469.69C261.87,-474.62 241.01,-480.24 223.77,-484.88"/>
<polygon fill="#63b8ff" stroke="#63b8ff" points="281.34,-473.01 290.09,-467.03 279.52,-466.25 281.34,-473.01"/>
</a>
</g>
</g>
<!-- Node15 -->
<g id="Node000015" class="node">
<title>Node15</title>
<g id="a_Node000015"><a xlink:href="kc_8cpp.html#a4709c372281713ec9baaf5fb939cb10e" target="_top" xlink:title=" ">
<polygon fill="white" stroke="#666666" points="218,-467 156,-467 156,-448 218,-448 218,-467"/>
<text text-anchor="middle" x="187" y="-455" font-family="Helvetica" font-size="10.00">matrix_det</text>
</a>
</g>
</g>
<!-- Node14&#45;&gt;Node15 -->
<g id="edge17_Node000014_Node000015" class="edge">
<title>Node14&#45;&gt;Node15</title>
<g id="a_edge17_Node000014_Node000015"><a xlink:title=" ">
<path fill="none" stroke="#63b8ff" d="M270.77,-457.5C252.82,-457.5 233.54,-457.5 218.1,-457.5"/>
<polygon fill="#63b8ff" stroke="#63b8ff" points="270.86,-461 280.86,-457.5 270.86,-454 270.86,-461"/>
</a>
</g>
</g>
<!-- Node16&#45;&gt;Node13 -->
<g id="edge20_Node000016_Node000013" class="edge">
<title>Node16&#45;&gt;Node13</title>
<g id="a_edge20_Node000016_Node000013"><a xlink:title=" ">
<path fill="none" stroke="#63b8ff" d="M280.93,-317.82C262.04,-323.04 240.35,-329.03 222.69,-333.91"/>
<polygon fill="#63b8ff" stroke="#63b8ff" points="282.1,-321.13 290.8,-315.09 280.23,-314.38 282.1,-321.13"/>
</a>
</g>
</g>
<!-- Node17&#45;&gt;Node13 -->
<g id="edge22_Node000017_Node000013" class="edge">
<title>Node17&#45;&gt;Node13</title>
<g id="a_edge22_Node000017_Node000013"><a xlink:title=" ">
<path fill="none" stroke="#63b8ff" d="M280.93,-369.18C262.04,-363.96 240.35,-357.97 222.69,-353.09"/>
<polygon fill="#63b8ff" stroke="#63b8ff" points="280.23,-372.62 290.8,-371.91 282.1,-365.87 280.23,-372.62"/>
</a>
</g>
</g>
</g>
</svg>
