<?xml version="1.0" encoding="UTF-8" standalone="no"?>
<!DOCTYPE svg PUBLIC "-//W3C//DTD SVG 1.1//EN"
 "http://www.w3.org/Graphics/SVG/1.1/DTD/svg11.dtd">
<!-- Generated by graphviz version 2.44.0 (0)
 -->
<!-- Title: vector_free Pages: 1 -->
<svg width="478pt" height="518pt"
 viewBox="0.00 0.00 478.00 518.40" xmlns="http://www.w3.org/2000/svg" xmlns:xlink="http://www.w3.org/1999/xlink">
<g id="graph0" class="graph" transform="scale(1 1) rotate(0) translate(4 514.4)">
<title>vector_free</title>
<!-- Node1 -->
<g id="Node000001" class="node">
<title>Node1</title>
<g id="a_Node000001"><a xlink:title=" ">
<polygon fill="#999999" stroke="#666666" points="470,-264 405,-264 405,-245 470,-245 470,-264"/>
<text text-anchor="middle" x="437.5" y="-252" font-family="Helvetica" font-size="10.00">vector_free</text>
</a>
</g>
</g>
<!-- Node2 -->
<g id="Node000002" class="node">
<title>Node2</title>
<g id="a_Node000002"><a xlink:href="kc_8cpp.html#a865598a7017730b2bdf24cf6269d0f23" target="_top" xlink:title=" ">
<polygon fill="white" stroke="#666666" points="364,-397 278,-397 278,-378 364,-378 364,-397"/>
<text text-anchor="middle" x="321" y="-385" font-family="Helvetica" font-size="10.00">matrix_colMean</text>
</a>
</g>
</g>
<!-- Node1&#45;&gt;Node2 -->
<g id="edge1_Node000001_Node000002" class="edge">
<title>Node1&#45;&gt;Node2</title>
<g id="a_edge1_Node000001_Node000002"><a xlink:title=" ">
<path fill="none" stroke="#63b8ff" d="M428.65,-273.43C418.07,-297.05 397.24,-337.49 369,-363.5 362.66,-369.33 354.65,-374.12 347.03,-377.84"/>
<polygon fill="#63b8ff" stroke="#63b8ff" points="431.91,-274.72 432.67,-264.15 425.48,-271.94 431.91,-274.72"/>
</a>
</g>
</g>
<!-- Node3 -->
<g id="Node000003" class="node">
<title>Node3</title>
<g id="a_Node000003"><a xlink:href="kc_8cpp.html#aa51dbc9f02003e376630381db9eab42c" target="_top" xlink:title=" ">
<polygon fill="white" stroke="#666666" points="233,-359 141,-359 141,-340 233,-340 233,-359"/>
<text text-anchor="middle" x="187" y="-347" font-family="Helvetica" font-size="10.00">matrix_covMatrix</text>
</a>
</g>
</g>
<!-- Node1&#45;&gt;Node3 -->
<g id="edge8_Node000001_Node000003" class="edge">
<title>Node1&#45;&gt;Node3</title>
<g id="a_edge8_Node000001_Node000003"><a xlink:title=" ">
<path fill="none" stroke="#63b8ff" d="M425.62,-273.28C414.07,-291.31 394.03,-317.64 369,-330.5 326.7,-352.23 271.58,-354.98 233.33,-353.55"/>
<polygon fill="#63b8ff" stroke="#63b8ff" points="428.91,-274.62 431.15,-264.26 422.94,-270.96 428.91,-274.62"/>
</a>
</g>
</g>
<!-- Node4 -->
<g id="Node000004" class="node">
<title>Node4</title>
<g id="a_Node000004"><a xlink:href="kc_8cpp.html#ae64a3eb3736d5788d72eaf7ad6927421" target="_top" xlink:title=" ">
<polygon fill="white" stroke="#666666" points="92,-435 9,-435 9,-416 92,-416 92,-435"/>
<text text-anchor="middle" x="50.5" y="-423" font-family="Helvetica" font-size="10.00">matrix_pcaCov</text>
</a>
</g>
</g>
<!-- Node1&#45;&gt;Node4 -->
<g id="edge25_Node000001_Node000004" class="edge">
<title>Node1&#45;&gt;Node4</title>
<g id="a_edge25_Node000001_Node000004"><a xlink:title=" ">
<path fill="none" stroke="#63b8ff" d="M433.72,-274C426.1,-324.42 403.13,-457.01 369,-482.5 272.75,-554.38 114.89,-465.79 66.24,-435.18"/>
<polygon fill="#63b8ff" stroke="#63b8ff" points="437.19,-274.45 435.19,-264.05 430.27,-273.43 437.19,-274.45"/>
</a>
</g>
</g>
<!-- Node5 -->
<g id="Node000005" class="node">
<title>Node5</title>
<g id="a_Node000005"><a xlink:href="kc_8cpp.html#a165e97bd10a48d3c5da908938468212b" target="_top" xlink:title=" ">
<polygon fill="white" stroke="#666666" points="227,-435 147,-435 147,-416 227,-416 227,-435"/>
<text text-anchor="middle" x="187" y="-423" font-family="Helvetica" font-size="10.00">matrix_pcaCor</text>
</a>
</g>
</g>
<!-- Node1&#45;&gt;Node5 -->
<g id="edge24_Node000001_Node000005" class="edge">
<title>Node1&#45;&gt;Node5</title>
<g id="a_edge24_Node000001_Node000005"><a xlink:title=" ">
<path fill="none" stroke="#63b8ff" d="M434.02,-274.3C428.7,-307.67 412.87,-374.6 369,-406.5 327.86,-436.42 266.88,-436.22 227.28,-431.95"/>
<polygon fill="#63b8ff" stroke="#63b8ff" points="437.54,-274.4 435.5,-264.01 430.61,-273.41 437.54,-274.4"/>
</a>
</g>
</g>
<!-- Node6 -->
<g id="Node000006" class="node">
<title>Node6</title>
<g id="a_Node000006"><a xlink:href="kc_8cpp.html#ad5ea42776f7ed1dcb54d04db645487c3" target="_top" xlink:title=" ">
<polygon fill="white" stroke="#666666" points="359,-321 283,-321 283,-302 359,-302 359,-321"/>
<text text-anchor="middle" x="321" y="-309" font-family="Helvetica" font-size="10.00">matrix_colVar</text>
</a>
</g>
</g>
<!-- Node1&#45;&gt;Node6 -->
<g id="edge6_Node000001_Node000006" class="edge">
<title>Node1&#45;&gt;Node6</title>
<g id="a_edge6_Node000001_Node000006"><a xlink:title=" ">
<path fill="none" stroke="#63b8ff" d="M408.3,-268.54C387.44,-278.92 359.58,-292.79 341.23,-301.93"/>
<polygon fill="#63b8ff" stroke="#63b8ff" points="409.94,-271.63 417.34,-264.04 406.82,-265.36 409.94,-271.63"/>
</a>
</g>
</g>
<!-- Node8 -->
<g id="Node000008" class="node">
<title>Node8</title>
<g id="a_Node000008"><a xlink:href="kc_8cpp.html#a68b4f000503d404e2dcd3b4cdbae952f" target="_top" xlink:title=" ">
<polygon fill="white" stroke="#666666" points="357,-473 285,-473 285,-454 357,-454 357,-473"/>
<text text-anchor="middle" x="321" y="-461" font-family="Helvetica" font-size="10.00">matrix_eigen</text>
</a>
</g>
</g>
<!-- Node1&#45;&gt;Node8 -->
<g id="edge9_Node000001_Node000008" class="edge">
<title>Node1&#45;&gt;Node8</title>
<g id="a_edge9_Node000001_Node000008"><a xlink:title=" ">
<path fill="none" stroke="#63b8ff" d="M434.12,-274.12C428.74,-310.75 412.52,-390.3 369,-439.5 363.66,-445.54 356.43,-450.26 349.26,-453.86"/>
<polygon fill="#63b8ff" stroke="#63b8ff" points="437.59,-274.58 435.46,-264.21 430.65,-273.65 437.59,-274.58"/>
</a>
</g>
</g>
<!-- Node9 -->
<g id="Node000009" class="node">
<title>Node9</title>
<g id="a_Node000009"><a xlink:href="kc_8cpp.html#af0e16ee0cbf76fe1a067c0f4132e8774" target="_top" xlink:title=" ">
<polygon fill="white" stroke="#666666" points="227,-282 147,-282 147,-263 227,-263 227,-282"/>
<text text-anchor="middle" x="187" y="-270" font-family="Helvetica" font-size="10.00">matrix_inverse</text>
</a>
</g>
</g>
<!-- Node1&#45;&gt;Node9 -->
<g id="edge12_Node000001_Node000009" class="edge">
<title>Node1&#45;&gt;Node9</title>
<g id="a_edge12_Node000001_Node000009"><a xlink:title=" ">
<path fill="none" stroke="#63b8ff" d="M394.69,-257.53C347.99,-260.91 272.97,-266.35 227.31,-269.65"/>
<polygon fill="#63b8ff" stroke="#63b8ff" points="395.05,-261.01 404.77,-256.8 394.55,-254.03 395.05,-261.01"/>
</a>
</g>
</g>
<!-- Node12 -->
<g id="Node000012" class="node">
<title>Node12</title>
<g id="a_Node000012"><a xlink:href="kc_8cpp.html#ad66fdb823fdc1c7260a0459c1912203f" target="_top" xlink:title=" ">
<polygon fill="white" stroke="#666666" points="99.5,-226 1.5,-226 1.5,-207 99.5,-207 99.5,-226"/>
<text text-anchor="middle" x="50.5" y="-214" font-family="Helvetica" font-size="10.00">matrix_regObsStat</text>
</a>
</g>
</g>
<!-- Node1&#45;&gt;Node12 -->
<g id="edge26_Node000001_Node000012" class="edge">
<title>Node1&#45;&gt;Node12</title>
<g id="a_edge26_Node000001_Node000012"><a xlink:title=" ">
<path fill="none" stroke="#63b8ff" d="M414.92,-239.04C402.21,-230.9 385.45,-221.74 369,-217.5 276.12,-193.56 162.82,-201.7 99.77,-209.37"/>
<polygon fill="#63b8ff" stroke="#63b8ff" points="413.13,-242.05 423.39,-244.7 417.02,-236.23 413.13,-242.05"/>
</a>
</g>
</g>
<!-- Node13 -->
<g id="Node000013" class="node">
<title>Node13</title>
<g id="a_Node000013"><a xlink:href="kc_8cpp.html#a81683e0787ad3491e6e65a83bf05124f" target="_top" xlink:title=" ">
<polygon fill="white" stroke="#666666" points="230,-132 144,-132 144,-113 230,-113 230,-132"/>
<text text-anchor="middle" x="187" y="-120" font-family="Helvetica" font-size="10.00">matrix_inverse2</text>
</a>
</g>
</g>
<!-- Node1&#45;&gt;Node13 -->
<g id="edge16_Node000001_Node000013" class="edge">
<title>Node1&#45;&gt;Node13</title>
<g id="a_edge16_Node000001_Node000013"><a xlink:title=" ">
<path fill="none" stroke="#63b8ff" d="M434.38,-234.78C429.58,-201.02 414.46,-132.97 369,-103.5 318.5,-70.76 242.93,-97.27 207.56,-112.97"/>
<polygon fill="#63b8ff" stroke="#63b8ff" points="430.92,-235.32 435.65,-244.8 437.87,-234.44 430.92,-235.32"/>
</a>
</g>
</g>
<!-- Node14 -->
<g id="Node000014" class="node">
<title>Node14</title>
<g id="a_Node000014"><a xlink:href="kc_8cpp.html#a85a2f9c7ff758c36a67d0b8a58424404" target="_top" xlink:title=" ">
<polygon fill="white" stroke="#666666" points="366.5,-245 275.5,-245 275.5,-226 366.5,-226 366.5,-245"/>
<text text-anchor="middle" x="321" y="-233" font-family="Helvetica" font-size="10.00">matrix_ludecomp</text>
</a>
</g>
</g>
<!-- Node1&#45;&gt;Node14 -->
<g id="edge17_Node000001_Node000014" class="edge">
<title>Node1&#45;&gt;Node14</title>
<g id="a_edge17_Node000001_Node000014"><a xlink:title=" ">
<path fill="none" stroke="#63b8ff" d="M394.89,-247.6C385.75,-246.08 376.03,-244.47 366.77,-242.93"/>
<polygon fill="#63b8ff" stroke="#63b8ff" points="394.47,-251.07 404.91,-249.26 395.62,-244.17 394.47,-251.07"/>
</a>
</g>
</g>
<!-- Node16 -->
<g id="Node000016" class="node">
<title>Node16</title>
<g id="a_Node000016"><a xlink:href="kc_8cpp.html#ac42e23a54fc054272c49120386afd1e7" target="_top" xlink:title=" ">
<polygon fill="white" stroke="#666666" points="369,-169 273,-169 273,-150 369,-150 369,-169"/>
<text text-anchor="middle" x="321" y="-157" font-family="Helvetica" font-size="10.00">matrix_ludecomp2</text>
</a>
</g>
</g>
<!-- Node1&#45;&gt;Node16 -->
<g id="edge20_Node000001_Node000016" class="edge">
<title>Node1&#45;&gt;Node16</title>
<g id="a_edge20_Node000001_Node000016"><a xlink:title=" ">
<path fill="none" stroke="#63b8ff" d="M422.42,-236.57C409.66,-221.14 389.73,-198.98 369,-183.5 361.51,-177.91 352.53,-172.96 344.43,-169.04"/>
<polygon fill="#63b8ff" stroke="#63b8ff" points="420.05,-239.2 429.06,-244.77 425.49,-234.8 420.05,-239.2"/>
</a>
</g>
</g>
<!-- Node17 -->
<g id="Node000017" class="node">
<title>Node17</title>
<g id="a_Node000017"><a xlink:href="kc_8cpp.html#a946d5288784bd06ff1ba6f09d5eb1f11" target="_top" xlink:title=" ">
<polygon fill="white" stroke="#666666" points="364,-132 278,-132 278,-113 364,-113 364,-132"/>
<text text-anchor="middle" x="321" y="-120" font-family="Helvetica" font-size="10.00">matrix_lusubst2</text>
</a>
</g>
</g>
<!-- Node1&#45;&gt;Node17 -->
<g id="edge22_Node000001_Node000017" class="edge">
<title>Node1&#45;&gt;Node17</title>
<g id="a_edge22_Node000001_Node000017"><a xlink:title=" ">
<path fill="none" stroke="#63b8ff" d="M429.74,-235.28C420.01,-210.2 399.76,-166.46 369,-140.5 364.99,-137.12 360.28,-134.33 355.42,-132.05"/>
<polygon fill="#63b8ff" stroke="#63b8ff" points="426.51,-236.62 433.27,-244.78 433.07,-234.19 426.51,-236.62"/>
</a>
</g>
</g>
<!-- Node18 -->
<g id="Node000018" class="node">
<title>Node18</title>
<g id="a_Node000018"><a xlink:href="kc_8cpp.html#ac641037bb0dc9795e1565903868cc017" target="_top" xlink:title=" ">
<polygon fill="white" stroke="#666666" points="353.5,-56 288.5,-56 288.5,-37 353.5,-37 353.5,-56"/>
<text text-anchor="middle" x="321" y="-44" font-family="Helvetica" font-size="10.00">matrix_svd</text>
</a>
</g>
</g>
<!-- Node1&#45;&gt;Node18 -->
<g id="edge27_Node000001_Node000018" class="edge">
<title>Node1&#45;&gt;Node18</title>
<g id="a_edge27_Node000001_Node000018"><a xlink:title=" ">
<path fill="none" stroke="#63b8ff" d="M434.02,-234.52C428.51,-197.87 412.17,-119.21 369,-70.5 363.65,-64.47 356.43,-59.74 349.25,-56.15"/>
<polygon fill="#63b8ff" stroke="#63b8ff" points="430.61,-235.42 435.44,-244.85 437.54,-234.46 430.61,-235.42"/>
</a>
</g>
</g>
<!-- Node19 -->
<g id="Node000019" class="node">
<title>Node19</title>
<g id="a_Node000019"><a xlink:href="kc_8cpp.html#ac39612a3850b3db9639ce7b945b33217" target="_top" xlink:title=" ">
<polygon fill="white" stroke="#666666" points="358.5,-19 283.5,-19 283.5,0 358.5,0 358.5,-19"/>
<text text-anchor="middle" x="321" y="-7" font-family="Helvetica" font-size="10.00">matrix_tridiag</text>
</a>
</g>
</g>
<!-- Node1&#45;&gt;Node19 -->
<g id="edge28_Node000001_Node000019" class="edge">
<title>Node1&#45;&gt;Node19</title>
<g id="a_edge28_Node000001_Node000019"><a xlink:title=" ">
<path fill="none" stroke="#63b8ff" d="M436.22,-234.81C434.56,-191.61 424.65,-87.59 369,-27.5 365.91,-24.17 362.14,-21.44 358.09,-19.22"/>
<polygon fill="#63b8ff" stroke="#63b8ff" points="432.73,-234.96 436.5,-244.86 439.72,-234.77 432.73,-234.96"/>
</a>
</g>
</g>
<!-- Node2&#45;&gt;Node3 -->
<g id="edge2_Node000002_Node000003" class="edge">
<title>Node2&#45;&gt;Node3</title>
<g id="a_edge2_Node000002_Node000003"><a xlink:title=" ">
<path fill="none" stroke="#63b8ff" d="M276.96,-375.11C258.88,-369.91 238.18,-363.95 221.3,-359.09"/>
<polygon fill="#63b8ff" stroke="#63b8ff" points="276.11,-378.51 286.69,-377.91 278.05,-371.78 276.11,-378.51"/>
</a>
</g>
</g>
<!-- Node2&#45;&gt;Node4 -->
<g id="edge5_Node000002_Node000004" class="edge">
<title>Node2&#45;&gt;Node4</title>
<g id="a_edge5_Node000002_Node000004"><a xlink:title=" ">
<path fill="none" stroke="#63b8ff" d="M267.71,-391.83C231.01,-395.21 180.85,-400.51 137,-407.5 122.32,-409.84 106.35,-413.03 92.23,-416.07"/>
<polygon fill="#63b8ff" stroke="#63b8ff" points="268.04,-395.32 277.68,-390.93 267.41,-388.35 268.04,-395.32"/>
</a>
</g>
</g>
<!-- Node2&#45;&gt;Node5 -->
<g id="edge4_Node000002_Node000005" class="edge">
<title>Node2&#45;&gt;Node5</title>
<g id="a_edge4_Node000002_Node000005"><a xlink:title=" ">
<path fill="none" stroke="#63b8ff" d="M276.96,-399.89C258.88,-405.09 238.18,-411.05 221.3,-415.91"/>
<polygon fill="#63b8ff" stroke="#63b8ff" points="278.05,-403.22 286.69,-397.09 276.11,-396.49 278.05,-403.22"/>
</a>
</g>
</g>
<!-- Node3&#45;&gt;Node4 -->
<g id="edge3_Node000003_Node000004" class="edge">
<title>Node3&#45;&gt;Node4</title>
<g id="a_edge3_Node000003_Node000004"><a xlink:title=" ">
<path fill="none" stroke="#63b8ff" d="M156.21,-363.55C149.82,-366.72 143.14,-370.14 137,-373.5 111.7,-387.35 83.26,-405.1 66.39,-415.87"/>
<polygon fill="#63b8ff" stroke="#63b8ff" points="157.83,-366.66 165.28,-359.13 154.76,-360.37 157.83,-366.66"/>
</a>
</g>
</g>
<!-- Node7 -->
<g id="Node000007" class="node">
<title>Node7</title>
<g id="a_Node000007"><a xlink:href="kc_8cpp.html#aa04426b6994cdcfbbf77c3bb77e7a021" target="_top" xlink:title=" ">
<polygon fill="white" stroke="#666666" points="237,-321 137,-321 137,-302 237,-302 237,-321"/>
<text text-anchor="middle" x="187" y="-309" font-family="Helvetica" font-size="10.00">matrix_pcaComVar</text>
</a>
</g>
</g>
<!-- Node6&#45;&gt;Node7 -->
<g id="edge7_Node000006_Node000007" class="edge">
<title>Node6&#45;&gt;Node7</title>
<g id="a_edge7_Node000006_Node000007"><a xlink:title=" ">
<path fill="none" stroke="#63b8ff" d="M272.59,-311.5C261.08,-311.5 248.75,-311.5 237.16,-311.5"/>
<polygon fill="#63b8ff" stroke="#63b8ff" points="272.88,-315 282.88,-311.5 272.88,-308 272.88,-315"/>
</a>
</g>
</g>
<!-- Node8&#45;&gt;Node4 -->
<g id="edge11_Node000008_Node000004" class="edge">
<title>Node8&#45;&gt;Node4</title>
<g id="a_edge11_Node000008_Node000004"><a xlink:title=" ">
<path fill="none" stroke="#63b8ff" d="M274.74,-460.26C237.59,-457.25 183.69,-452.09 137,-444.5 121.54,-441.99 104.68,-438.42 90.05,-435.06"/>
<polygon fill="#63b8ff" stroke="#63b8ff" points="274.51,-463.75 284.76,-461.05 275.07,-456.78 274.51,-463.75"/>
</a>
</g>
</g>
<!-- Node8&#45;&gt;Node5 -->
<g id="edge10_Node000008_Node000005" class="edge">
<title>Node8&#45;&gt;Node5</title>
<g id="a_edge10_Node000008_Node000005"><a xlink:title=" ">
<path fill="none" stroke="#63b8ff" d="M276.96,-451.11C258.88,-445.91 238.18,-439.95 221.3,-435.09"/>
<polygon fill="#63b8ff" stroke="#63b8ff" points="276.11,-454.51 286.69,-453.91 278.05,-447.78 276.11,-454.51"/>
</a>
</g>
</g>
<!-- Node10 -->
<g id="Node000010" class="node">
<title>Node10</title>
<g id="a_Node000010"><a xlink:href="kc_8cpp.html#a0458e14ed6d01fb333ea0b2a06035d87" target="_top" xlink:title=" ">
<polygon fill="white" stroke="#666666" points="81.5,-300 19.5,-300 19.5,-281 81.5,-281 81.5,-300"/>
<text text-anchor="middle" x="50.5" y="-288" font-family="Helvetica" font-size="10.00">matrix_reg</text>
</a>
</g>
</g>
<!-- Node9&#45;&gt;Node10 -->
<g id="edge13_Node000009_Node000010" class="edge">
<title>Node9&#45;&gt;Node10</title>
<g id="a_edge13_Node000009_Node000010"><a xlink:title=" ">
<path fill="none" stroke="#63b8ff" d="M136.72,-279.1C118.25,-281.57 97.83,-284.3 81.61,-286.47"/>
<polygon fill="#63b8ff" stroke="#63b8ff" points="137.29,-282.55 146.74,-277.75 136.36,-275.61 137.29,-282.55"/>
</a>
</g>
</g>
<!-- Node11 -->
<g id="Node000011" class="node">
<title>Node11</title>
<g id="a_Node000011"><a xlink:href="kc_8cpp.html#a77077c3de17b2dd212a275a4e0ff1750" target="_top" xlink:title=" ">
<polygon fill="white" stroke="#666666" points="101,-263 0,-263 0,-244 101,-244 101,-263"/>
<text text-anchor="middle" x="50.5" y="-251" font-family="Helvetica" font-size="10.00">matrix_regCoefStat</text>
</a>
</g>
</g>
<!-- Node9&#45;&gt;Node11 -->
<g id="edge14_Node000009_Node000011" class="edge">
<title>Node9&#45;&gt;Node11</title>
<g id="a_edge14_Node000009_Node000011"><a xlink:title=" ">
<path fill="none" stroke="#63b8ff" d="M136.76,-265.54C125.14,-263.9 112.75,-262.15 101.11,-260.51"/>
<polygon fill="#63b8ff" stroke="#63b8ff" points="136.34,-269.02 146.74,-266.95 137.32,-262.09 136.34,-269.02"/>
</a>
</g>
</g>
<!-- Node9&#45;&gt;Node12 -->
<g id="edge15_Node000009_Node000012" class="edge">
<title>Node9&#45;&gt;Node12</title>
<g id="a_edge15_Node000009_Node000012"><a xlink:title=" ">
<path fill="none" stroke="#63b8ff" d="M148.42,-259.28C144.53,-257.74 140.67,-256.13 137,-254.5 120.47,-247.14 117.47,-242.98 101,-235.5 93.71,-232.19 85.65,-228.94 78.2,-226.08"/>
<polygon fill="#63b8ff" stroke="#63b8ff" points="147.42,-262.65 158.01,-262.95 149.92,-256.11 147.42,-262.65"/>
</a>
</g>
</g>
<!-- Node14&#45;&gt;Node9 -->
<g id="edge19_Node000014_Node000009" class="edge">
<title>Node14&#45;&gt;Node9</title>
<g id="a_edge19_Node000014_Node000009"><a xlink:title=" ">
<path fill="none" stroke="#63b8ff" d="M276.03,-247.83C258.54,-252.73 238.73,-258.28 222.34,-262.88"/>
<polygon fill="#63b8ff" stroke="#63b8ff" points="277.32,-251.1 286.01,-245.03 275.43,-244.36 277.32,-251.1"/>
</a>
</g>
</g>
<!-- Node15 -->
<g id="Node000015" class="node">
<title>Node15</title>
<g id="a_Node000015"><a xlink:href="kc_8cpp.html#a4709c372281713ec9baaf5fb939cb10e" target="_top" xlink:title=" ">
<polygon fill="white" stroke="#666666" points="218,-245 156,-245 156,-226 218,-226 218,-245"/>
<text text-anchor="middle" x="187" y="-233" font-family="Helvetica" font-size="10.00">matrix_det</text>
</a>
</g>
</g>
<!-- Node14&#45;&gt;Node15 -->
<g id="edge18_Node000014_Node000015" class="edge">
<title>Node14&#45;&gt;Node15</title>
<g id="a_edge18_Node000014_Node000015"><a xlink:title=" ">
<path fill="none" stroke="#63b8ff" d="M264.94,-235.5C248.9,-235.5 231.98,-235.5 218.1,-235.5"/>
<polygon fill="#63b8ff" stroke="#63b8ff" points="265.31,-239 275.31,-235.5 265.31,-232 265.31,-239"/>
</a>
</g>
</g>
<!-- Node16&#45;&gt;Node13 -->
<g id="edge21_Node000016_Node000013" class="edge">
<title>Node16&#45;&gt;Node13</title>
<g id="a_edge21_Node000016_Node000013"><a xlink:title=" ">
<path fill="none" stroke="#63b8ff" d="M276.03,-147.17C258.54,-142.27 238.73,-136.72 222.34,-132.12"/>
<polygon fill="#63b8ff" stroke="#63b8ff" points="275.43,-150.64 286.01,-149.97 277.32,-143.9 275.43,-150.64"/>
</a>
</g>
</g>
<!-- Node17&#45;&gt;Node13 -->
<g id="edge23_Node000017_Node000013" class="edge">
<title>Node17&#45;&gt;Node13</title>
<g id="a_edge23_Node000017_Node000013"><a xlink:title=" ">
<path fill="none" stroke="#63b8ff" d="M267.63,-122.5C255.2,-122.5 242.09,-122.5 230.18,-122.5"/>
<polygon fill="#63b8ff" stroke="#63b8ff" points="267.87,-126 277.87,-122.5 267.87,-119 267.87,-126"/>
</a>
</g>
</g>
</g>
</svg>
