<?xml version="1.0" encoding="UTF-8" standalone="no"?>
<!DOCTYPE svg PUBLIC "-//W3C//DTD SVG 1.1//EN"
 "http://www.w3.org/Graphics/SVG/1.1/DTD/svg11.dtd">
<!-- Generated by graphviz version 2.44.0 (0)
 -->
<!-- Title: matrix_ludecomp2 Pages: 1 -->
<svg width="206pt" height="64pt"
 viewBox="0.00 0.00 206.00 64.00" xmlns="http://www.w3.org/2000/svg" xmlns:xlink="http://www.w3.org/1999/xlink">
<g id="graph0" class="graph" transform="scale(1 1) rotate(0) translate(4 60)">
<title>matrix_ludecomp2</title>
<!-- Node1 -->
<g id="Node000001" class="node">
<title>Node1</title>
<g id="a_Node000001"><a xlink:title=" ">
<polygon fill="#999999" stroke="#666666" points="96,-37 0,-37 0,-18 96,-18 96,-37"/>
<text text-anchor="middle" x="48" y="-25" font-family="Helvetica" font-size="10.00">matrix_ludecomp2</text>
</a>
</g>
</g>
<!-- Node2 -->
<g id="Node000002" class="node">
<title>Node2</title>
<g id="a_Node000002"><a xlink:href="kc_8cpp.html#afc00baa57142e5db16101ade3200eea8" target="_top" xlink:title=" ">
<polygon fill="white" stroke="#666666" points="197.5,-56 132.5,-56 132.5,-37 197.5,-37 197.5,-56"/>
<text text-anchor="middle" x="165" y="-44" font-family="Helvetica" font-size="10.00">vector_free</text>
</a>
</g>
</g>
<!-- Node1&#45;&gt;Node2 -->
<g id="edge1_Node000001_Node000002" class="edge">
<title>Node1&#45;&gt;Node2</title>
<g id="a_edge1_Node000001_Node000002"><a xlink:title=" ">
<path fill="none" stroke="#63b8ff" d="M96.11,-35.28C104.75,-36.71 113.72,-38.19 122.19,-39.59"/>
<polygon fill="#63b8ff" stroke="#63b8ff" points="121.79,-43.07 132.23,-41.25 122.94,-36.17 121.79,-43.07"/>
</a>
</g>
</g>
<!-- Node3 -->
<g id="Node000003" class="node">
<title>Node3</title>
<g id="a_Node000003"><a xlink:href="kc_8cpp.html#a155bb2cc033bfd9bafbde8d31432f7ad" target="_top" xlink:title=" ">
<polygon fill="white" stroke="#666666" points="198,-19 132,-19 132,0 198,0 198,-19"/>
<text text-anchor="middle" x="165" y="-7" font-family="Helvetica" font-size="10.00">vector_new</text>
</a>
</g>
</g>
<!-- Node1&#45;&gt;Node3 -->
<g id="edge2_Node000001_Node000003" class="edge">
<title>Node1&#45;&gt;Node3</title>
<g id="a_edge2_Node000001_Node000003"><a xlink:title=" ">
<path fill="none" stroke="#63b8ff" d="M96.11,-20.13C104.66,-18.79 113.53,-17.4 121.93,-16.08"/>
<polygon fill="#63b8ff" stroke="#63b8ff" points="122.55,-19.53 131.89,-14.53 121.47,-12.61 122.55,-19.53"/>
</a>
</g>
</g>
</g>
</svg>
