<?xml version="1.0" encoding="UTF-8" standalone="no"?>
<!DOCTYPE svg PUBLIC "-//W3C//DTD SVG 1.1//EN"
 "http://www.w3.org/Graphics/SVG/1.1/DTD/svg11.dtd">
<!-- Generated by graphviz version 2.44.0 (0)
 -->
<!-- Title: mean Pages: 1 -->
<svg width="760pt" height="215pt"
 viewBox="0.00 0.00 760.00 215.00" xmlns="http://www.w3.org/2000/svg" xmlns:xlink="http://www.w3.org/1999/xlink">
<g id="graph0" class="graph" transform="scale(1 1) rotate(0) translate(4 211)">
<title>mean</title>
<!-- Node1 -->
<g id="Node000001" class="node">
<title>Node1</title>
<g id="a_Node000001"><a xlink:title=" ">
<polygon fill="#999999" stroke="#666666" points="752,-132 711,-132 711,-113 752,-113 752,-132"/>
<text text-anchor="middle" x="731.5" y="-120" font-family="Helvetica" font-size="10.00">mean</text>
</a>
</g>
</g>
<!-- Node2 -->
<g id="Node000002" class="node">
<title>Node2</title>
<g id="a_Node000002"><a xlink:href="khmm_8cpp.html#a02dc04d07f642f9756939ef10af76319" target="_top" xlink:title="O1 emission probability.">
<polygon fill="white" stroke="#666666" points="649.5,-206 611.5,-206 611.5,-187 649.5,-187 649.5,-206"/>
<text text-anchor="middle" x="630.5" y="-194" font-family="Helvetica" font-size="10.00">b1iot</text>
</a>
</g>
</g>
<!-- Node1&#45;&gt;Node2 -->
<g id="edge1_Node000001_Node000002" class="edge">
<title>Node1&#45;&gt;Node2</title>
<g id="a_edge1_Node000001_Node000002"><a xlink:title=" ">
<path fill="none" stroke="#63b8ff" d="M716.39,-140.06C705.96,-152.13 690.88,-167.84 675,-178.5 667.26,-183.69 657.79,-187.83 649.66,-190.82"/>
<polygon fill="#63b8ff" stroke="#63b8ff" points="719.07,-142.31 722.81,-132.39 713.7,-137.81 719.07,-142.31"/>
</a>
</g>
</g>
<!-- Node8 -->
<g id="Node000008" class="node">
<title>Node8</title>
<g id="a_Node000008"><a xlink:href="khmm_8cpp.html#a652a672a2d4cba451fe4f5a0af94d977" target="_top" xlink:title="O2 emission probability.">
<polygon fill="white" stroke="#666666" points="649.5,-169 611.5,-169 611.5,-150 649.5,-150 649.5,-169"/>
<text text-anchor="middle" x="630.5" y="-157" font-family="Helvetica" font-size="10.00">b2iot</text>
</a>
</g>
</g>
<!-- Node1&#45;&gt;Node8 -->
<g id="edge7_Node000001_Node000008" class="edge">
<title>Node1&#45;&gt;Node8</title>
<g id="a_edge7_Node000001_Node000008"><a xlink:title=" ">
<path fill="none" stroke="#63b8ff" d="M701.11,-133.48C684.42,-139.72 664.06,-147.33 649.68,-152.7"/>
<polygon fill="#63b8ff" stroke="#63b8ff" points="702.8,-136.59 710.94,-129.81 700.35,-130.03 702.8,-136.59"/>
</a>
</g>
</g>
<!-- Node9 -->
<g id="Node000009" class="node">
<title>Node9</title>
<g id="a_Node000009"><a xlink:href="kc_8cpp.html#a865598a7017730b2bdf24cf6269d0f23" target="_top" xlink:title=" ">
<polygon fill="white" stroke="#666666" points="673.5,-132 587.5,-132 587.5,-113 673.5,-113 673.5,-132"/>
<text text-anchor="middle" x="630.5" y="-120" font-family="Helvetica" font-size="10.00">matrix_colMean</text>
</a>
</g>
</g>
<!-- Node1&#45;&gt;Node9 -->
<g id="edge9_Node000001_Node000009" class="edge">
<title>Node1&#45;&gt;Node9</title>
<g id="a_edge9_Node000001_Node000009"><a xlink:title=" ">
<path fill="none" stroke="#63b8ff" d="M700.71,-122.5C692.16,-122.5 682.68,-122.5 673.54,-122.5"/>
<polygon fill="#63b8ff" stroke="#63b8ff" points="700.94,-126 710.94,-122.5 700.94,-119 700.94,-126"/>
</a>
</g>
</g>
<!-- Node13 -->
<g id="Node000013" class="node">
<title>Node13</title>
<g id="a_Node000013"><a xlink:href="kc_8cpp.html#a76900cdbfa88f73145d4be6b0e796fcd" target="_top" xlink:title=" ">
<polygon fill="white" stroke="#666666" points="675,-95 586,-95 586,-76 675,-76 675,-95"/>
<text text-anchor="middle" x="630.5" y="-83" font-family="Helvetica" font-size="10.00">matrix_rowMean</text>
</a>
</g>
</g>
<!-- Node1&#45;&gt;Node13 -->
<g id="edge14_Node000001_Node000013" class="edge">
<title>Node1&#45;&gt;Node13</title>
<g id="a_edge14_Node000001_Node000013"><a xlink:title=" ">
<path fill="none" stroke="#63b8ff" d="M701.26,-111.57C687.22,-106.33 670.55,-100.1 657.03,-95.04"/>
<polygon fill="#63b8ff" stroke="#63b8ff" points="700.35,-114.97 710.94,-115.19 702.8,-108.41 700.35,-114.97"/>
</a>
</g>
</g>
<!-- Node14 -->
<g id="Node000014" class="node">
<title>Node14</title>
<g id="a_Node000014"><a xlink:href="kc_8cpp.html#a1e079ca755a3861bccd94f64677e1d54" target="_top" xlink:title=" ">
<polygon fill="white" stroke="#666666" points="672,-57 589,-57 589,-38 672,-38 672,-57"/>
<text text-anchor="middle" x="630.5" y="-45" font-family="Helvetica" font-size="10.00">matrix_stdRow</text>
</a>
</g>
</g>
<!-- Node1&#45;&gt;Node14 -->
<g id="edge15_Node000001_Node000014" class="edge">
<title>Node1&#45;&gt;Node14</title>
<g id="a_edge15_Node000001_Node000014"><a xlink:title=" ">
<path fill="none" stroke="#63b8ff" d="M716.02,-104.69C705.58,-92.71 690.63,-77.21 675,-66.5 669.7,-62.87 663.59,-59.68 657.66,-57.01"/>
<polygon fill="#63b8ff" stroke="#63b8ff" points="713.64,-107.29 722.77,-112.67 718.98,-102.77 713.64,-107.29"/>
</a>
</g>
</g>
<!-- Node3 -->
<g id="Node000003" class="node">
<title>Node3</title>
<g id="a_Node000003"><a xlink:href="khmm_8cpp.html#a51dbadd369b498ec093b590f39e8ea96" target="_top" xlink:title="Viterbi algorithm.">
<polygon fill="white" stroke="#666666" points="550,-207 439,-207 439,-188 550,-188 550,-207"/>
<text text-anchor="middle" x="494.5" y="-195" font-family="Helvetica" font-size="10.00">ViterbiLogNP_CHMM</text>
</a>
</g>
</g>
<!-- Node2&#45;&gt;Node3 -->
<g id="edge2_Node000002_Node000003" class="edge">
<title>Node2&#45;&gt;Node3</title>
<g id="a_edge2_Node000002_Node000003"><a xlink:title=" ">
<path fill="none" stroke="#63b8ff" d="M601.39,-196.71C586.56,-196.82 567.84,-196.96 550.27,-197.09"/>
<polygon fill="#63b8ff" stroke="#63b8ff" points="601.45,-200.21 611.43,-196.63 601.4,-193.21 601.45,-200.21"/>
</a>
</g>
</g>
<!-- Node4 -->
<g id="Node000004" class="node">
<title>Node4</title>
<g id="a_Node000004"><a xlink:href="khmm_8cpp.html#ac44ba55ccbb73d2b015ca7537479381e" target="_top" xlink:title="Run the main HMM algorithm.">
<polygon fill="white" stroke="#666666" points="393.5,-207 312.5,-207 312.5,-188 393.5,-188 393.5,-207"/>
<text text-anchor="middle" x="353" y="-195" font-family="Helvetica" font-size="10.00">testVit_CHMM</text>
</a>
</g>
</g>
<!-- Node3&#45;&gt;Node4 -->
<g id="edge3_Node000003_Node000004" class="edge">
<title>Node3&#45;&gt;Node4</title>
<g id="a_edge3_Node000003_Node000004"><a xlink:title=" ">
<path fill="none" stroke="#63b8ff" d="M428.48,-197.5C416.69,-197.5 404.71,-197.5 393.91,-197.5"/>
<polygon fill="#63b8ff" stroke="#63b8ff" points="428.77,-201 438.77,-197.5 428.77,-194 428.77,-201"/>
</a>
</g>
</g>
<!-- Node5 -->
<g id="Node000005" class="node">
<title>Node5</title>
<g id="a_Node000005"><a xlink:href="class_c_n_v_caller.html#a49824c662095f9af9a38056dadc8933f" target="_top" xlink:title=" ">
<polygon fill="white" stroke="#666666" points="267,-207 185,-207 185,-188 267,-188 267,-207"/>
<text text-anchor="middle" x="226" y="-195" font-family="Helvetica" font-size="10.00">CNVCaller::run</text>
</a>
</g>
</g>
<!-- Node4&#45;&gt;Node5 -->
<g id="edge4_Node000004_Node000005" class="edge">
<title>Node4&#45;&gt;Node5</title>
<g id="a_edge4_Node000004_Node000005"><a xlink:title=" ">
<path fill="none" stroke="#63b8ff" d="M302.38,-197.5C290.69,-197.5 278.37,-197.5 267.15,-197.5"/>
<polygon fill="#63b8ff" stroke="#63b8ff" points="302.45,-201 312.45,-197.5 302.45,-194 302.45,-201"/>
</a>
</g>
</g>
<!-- Node6 -->
<g id="Node000006" class="node">
<title>Node6</title>
<g id="a_Node000006"><a xlink:href="class_context_s_v.html#ac9d32b6e28e5bfdf10e314db0e90e4cd" target="_top" xlink:title=" ">
<polygon fill="white" stroke="#666666" points="149,-207 66,-207 66,-188 149,-188 149,-207"/>
<text text-anchor="middle" x="107.5" y="-195" font-family="Helvetica" font-size="10.00">ContextSV::run</text>
</a>
</g>
</g>
<!-- Node5&#45;&gt;Node6 -->
<g id="edge5_Node000005_Node000006" class="edge">
<title>Node5&#45;&gt;Node6</title>
<g id="a_edge5_Node000005_Node000006"><a xlink:title=" ">
<path fill="none" stroke="#63b8ff" d="M174.65,-197.5C166.1,-197.5 157.32,-197.5 149.06,-197.5"/>
<polygon fill="#63b8ff" stroke="#63b8ff" points="174.91,-201 184.91,-197.5 174.91,-194 174.91,-201"/>
</a>
</g>
</g>
<!-- Node7 -->
<g id="Node000007" class="node">
<title>Node7</title>
<g id="a_Node000007"><a xlink:href="swig__interface_8cpp.html#ade07e2f2bb85b7aaac8af156f3e962f6" target="_top" xlink:title=" ">
<polygon fill="white" stroke="#666666" points="30,-207 0,-207 0,-188 30,-188 30,-207"/>
<text text-anchor="middle" x="15" y="-195" font-family="Helvetica" font-size="10.00">run</text>
</a>
</g>
</g>
<!-- Node6&#45;&gt;Node7 -->
<g id="edge6_Node000006_Node000007" class="edge">
<title>Node6&#45;&gt;Node7</title>
<g id="a_edge6_Node000006_Node000007"><a xlink:title=" ">
<path fill="none" stroke="#63b8ff" d="M55.56,-197.5C46.21,-197.5 37.19,-197.5 30.13,-197.5"/>
<polygon fill="#63b8ff" stroke="#63b8ff" points="55.75,-201 65.75,-197.5 55.75,-194 55.75,-201"/>
</a>
</g>
</g>
<!-- Node8&#45;&gt;Node3 -->
<g id="edge8_Node000008_Node000003" class="edge">
<title>Node8&#45;&gt;Node3</title>
<g id="a_edge8_Node000008_Node000003"><a xlink:title=" ">
<path fill="none" stroke="#63b8ff" d="M601.8,-167.36C580.73,-173.33 551.65,-181.58 529.23,-187.93"/>
<polygon fill="#63b8ff" stroke="#63b8ff" points="602.76,-170.72 611.43,-164.62 600.85,-163.99 602.76,-170.72"/>
</a>
</g>
</g>
<!-- Node10 -->
<g id="Node000010" class="node">
<title>Node10</title>
<g id="a_Node000010"><a xlink:href="kc_8cpp.html#aa51dbc9f02003e376630381db9eab42c" target="_top" xlink:title=" ">
<polygon fill="white" stroke="#666666" points="540.5,-170 448.5,-170 448.5,-151 540.5,-151 540.5,-170"/>
<text text-anchor="middle" x="494.5" y="-158" font-family="Helvetica" font-size="10.00">matrix_covMatrix</text>
</a>
</g>
</g>
<!-- Node9&#45;&gt;Node10 -->
<g id="edge10_Node000009_Node000010" class="edge">
<title>Node9&#45;&gt;Node10</title>
<g id="a_edge10_Node000009_Node000010"><a xlink:title=" ">
<path fill="none" stroke="#63b8ff" d="M586.06,-134.82C567.65,-140.04 546.52,-146.03 529.3,-150.91"/>
<polygon fill="#63b8ff" stroke="#63b8ff" points="587.02,-138.18 595.69,-132.09 585.11,-131.45 587.02,-138.18"/>
</a>
</g>
</g>
<!-- Node11 -->
<g id="Node000011" class="node">
<title>Node11</title>
<g id="a_Node000011"><a xlink:href="kc_8cpp.html#ae64a3eb3736d5788d72eaf7ad6927421" target="_top" xlink:title=" ">
<polygon fill="white" stroke="#666666" points="394.5,-151 311.5,-151 311.5,-132 394.5,-132 394.5,-151"/>
<text text-anchor="middle" x="353" y="-139" font-family="Helvetica" font-size="10.00">matrix_pcaCov</text>
</a>
</g>
</g>
<!-- Node9&#45;&gt;Node11 -->
<g id="edge13_Node000009_Node000011" class="edge">
<title>Node9&#45;&gt;Node11</title>
<g id="a_edge13_Node000009_Node000011"><a xlink:title=" ">
<path fill="none" stroke="#63b8ff" d="M577.14,-126.11C524.12,-129.77 443.23,-135.35 394.79,-138.69"/>
<polygon fill="#63b8ff" stroke="#63b8ff" points="577.62,-129.59 587.36,-125.41 577.14,-122.6 577.62,-129.59"/>
</a>
</g>
</g>
<!-- Node12 -->
<g id="Node000012" class="node">
<title>Node12</title>
<g id="a_Node000012"><a xlink:href="kc_8cpp.html#a165e97bd10a48d3c5da908938468212b" target="_top" xlink:title=" ">
<polygon fill="white" stroke="#666666" points="266,-75 186,-75 186,-56 266,-56 266,-75"/>
<text text-anchor="middle" x="226" y="-63" font-family="Helvetica" font-size="10.00">matrix_pcaCor</text>
</a>
</g>
</g>
<!-- Node9&#45;&gt;Node12 -->
<g id="edge12_Node000009_Node000012" class="edge">
<title>Node9&#45;&gt;Node12</title>
<g id="a_edge12_Node000009_Node000012"><a xlink:title=" ">
<path fill="none" stroke="#63b8ff" d="M577.1,-115.08C495.24,-103.49 338.86,-81.34 266.07,-71.03"/>
<polygon fill="#63b8ff" stroke="#63b8ff" points="576.79,-118.57 587.19,-116.51 577.78,-111.64 576.79,-118.57"/>
</a>
</g>
</g>
<!-- Node10&#45;&gt;Node11 -->
<g id="edge11_Node000010_Node000011" class="edge">
<title>Node10&#45;&gt;Node11</title>
<g id="a_edge11_Node000010_Node000011"><a xlink:title=" ">
<path fill="none" stroke="#63b8ff" d="M437.92,-152.93C423.53,-150.97 408.3,-148.9 394.82,-147.06"/>
<polygon fill="#63b8ff" stroke="#63b8ff" points="437.83,-156.45 448.21,-154.33 438.77,-149.51 437.83,-156.45"/>
</a>
</g>
</g>
<!-- Node15 -->
<g id="Node000015" class="node">
<title>Node15</title>
<g id="a_Node000015"><a xlink:href="kc_8cpp.html#aa824316c0d7768e230ae809a3e679a66" target="_top" xlink:title=" ">
<polygon fill="white" stroke="#666666" points="533,-56 456,-56 456,-37 533,-37 533,-56"/>
<text text-anchor="middle" x="494.5" y="-44" font-family="Helvetica" font-size="10.00">matrix_stdCol</text>
</a>
</g>
</g>
<!-- Node14&#45;&gt;Node15 -->
<g id="edge16_Node000014_Node000015" class="edge">
<title>Node14&#45;&gt;Node15</title>
<g id="a_edge16_Node000014_Node000015"><a xlink:title=" ">
<path fill="none" stroke="#63b8ff" d="M578.7,-47.12C563.58,-47.01 547.3,-46.89 533.18,-46.78"/>
<polygon fill="#63b8ff" stroke="#63b8ff" points="578.91,-50.62 588.93,-47.2 578.96,-43.62 578.91,-50.62"/>
</a>
</g>
</g>
<!-- Node16 -->
<g id="Node000016" class="node">
<title>Node16</title>
<g id="a_Node000016"><a xlink:href="kc_8cpp.html#a673ed8b4d0eee5e7e60df48435e0d8ba" target="_top" xlink:title=" ">
<polygon fill="white" stroke="#666666" points="397.5,-56 308.5,-56 308.5,-37 397.5,-37 397.5,-56"/>
<text text-anchor="middle" x="353" y="-44" font-family="Helvetica" font-size="10.00">matrix_corMatrix</text>
</a>
</g>
</g>
<!-- Node15&#45;&gt;Node16 -->
<g id="edge17_Node000015_Node000016" class="edge">
<title>Node15&#45;&gt;Node16</title>
<g id="a_edge17_Node000015_Node000016"><a xlink:title=" ">
<path fill="none" stroke="#63b8ff" d="M445.34,-46.5C429.87,-46.5 412.84,-46.5 397.71,-46.5"/>
<polygon fill="#63b8ff" stroke="#63b8ff" points="445.75,-50 455.75,-46.5 445.75,-43 445.75,-50"/>
</a>
</g>
</g>
<!-- Node17 -->
<g id="Node000017" class="node">
<title>Node17</title>
<g id="a_Node000017"><a xlink:href="kc_8cpp.html#aa04426b6994cdcfbbf77c3bb77e7a021" target="_top" xlink:title=" ">
<polygon fill="white" stroke="#666666" points="403,-19 303,-19 303,0 403,0 403,-19"/>
<text text-anchor="middle" x="353" y="-7" font-family="Helvetica" font-size="10.00">matrix_pcaComVar</text>
</a>
</g>
</g>
<!-- Node15&#45;&gt;Node17 -->
<g id="edge19_Node000015_Node000017" class="edge">
<title>Node15&#45;&gt;Node17</title>
<g id="a_edge19_Node000015_Node000017"><a xlink:title=" ">
<path fill="none" stroke="#63b8ff" d="M447.8,-34.38C429.14,-29.43 407.86,-23.78 390.29,-19.12"/>
<polygon fill="#63b8ff" stroke="#63b8ff" points="447.01,-37.79 457.58,-36.97 448.81,-31.02 447.01,-37.79"/>
</a>
</g>
</g>
<!-- Node16&#45;&gt;Node12 -->
<g id="edge18_Node000016_Node000012" class="edge">
<title>Node16&#45;&gt;Node12</title>
<g id="a_edge18_Node000016_Node000012"><a xlink:title=" ">
<path fill="none" stroke="#63b8ff" d="M298.17,-54.68C287.46,-56.31 276.42,-57.99 266.31,-59.52"/>
<polygon fill="#63b8ff" stroke="#63b8ff" points="298.92,-58.11 308.28,-53.15 297.87,-51.19 298.92,-58.11"/>
</a>
</g>
</g>
</g>
</svg>
