<?xml version="1.0" encoding="UTF-8" standalone="no"?>
<!DOCTYPE svg PUBLIC "-//W3C//DTD SVG 1.1//EN"
 "http://www.w3.org/Graphics/SVG/1.1/DTD/svg11.dtd">
<!-- Generated by graphviz version 2.44.0 (0)
 -->
<!-- Title: fisher_exact_2sided Pages: 1 -->
<svg width="293pt" height="27pt"
 viewBox="0.00 0.00 293.00 27.00" xmlns="http://www.w3.org/2000/svg" xmlns:xlink="http://www.w3.org/1999/xlink">
<g id="graph0" class="graph" transform="scale(1 1) rotate(0) translate(4 23)">
<title>fisher_exact_2sided</title>
<!-- Node1 -->
<g id="Node000001" class="node">
<title>Node1</title>
<g id="a_Node000001"><a xlink:title=" ">
<polygon fill="#999999" stroke="#666666" points="103,-19 0,-19 0,0 103,0 103,-19"/>
<text text-anchor="middle" x="51.5" y="-7" font-family="Helvetica" font-size="10.00">fisher_exact_2sided</text>
</a>
</g>
</g>
<!-- Node2 -->
<g id="Node000002" class="node">
<title>Node2</title>
<g id="a_Node000002"><a xlink:href="kc_8cpp.html#a1b8ed1e5e0530035c186d182ebe747b3" target="_top" xlink:title=" ">
<polygon fill="white" stroke="#666666" points="198,-19 139,-19 139,0 198,0 198,-19"/>
<text text-anchor="middle" x="168.5" y="-7" font-family="Helvetica" font-size="10.00">lnfactorial</text>
</a>
</g>
</g>
<!-- Node1&#45;&gt;Node2 -->
<g id="edge1_Node000001_Node000002" class="edge">
<title>Node1&#45;&gt;Node2</title>
<g id="a_edge1_Node000001_Node000002"><a xlink:title=" ">
<path fill="none" stroke="#63b8ff" d="M103.28,-9.5C111.73,-9.5 120.37,-9.5 128.47,-9.5"/>
<polygon fill="#63b8ff" stroke="#63b8ff" points="128.74,-13 138.74,-9.5 128.74,-6 128.74,-13"/>
</a>
</g>
</g>
<!-- Node3 -->
<g id="Node000003" class="node">
<title>Node3</title>
<g id="a_Node000003"><a xlink:href="kc_8cpp.html#a69cc1b545a83a4d9f187e131500aee45" target="_top" xlink:title=" ">
<polygon fill="white" stroke="#666666" points="285,-19 234,-19 234,0 285,0 285,-19"/>
<text text-anchor="middle" x="259.5" y="-7" font-family="Helvetica" font-size="10.00">gammln</text>
</a>
</g>
</g>
<!-- Node2&#45;&gt;Node3 -->
<g id="edge2_Node000002_Node000003" class="edge">
<title>Node2&#45;&gt;Node3</title>
<g id="a_edge2_Node000002_Node000003"><a xlink:title=" ">
<path fill="none" stroke="#63b8ff" d="M198.15,-9.5C206.31,-9.5 215.3,-9.5 223.78,-9.5"/>
<polygon fill="#63b8ff" stroke="#63b8ff" points="223.8,-13 233.8,-9.5 223.8,-6 223.8,-13"/>
</a>
</g>
</g>
</g>
</svg>
