<?xml version="1.0" encoding="UTF-8" standalone="no"?>
<!DOCTYPE svg PUBLIC "-//W3C//DTD SVG 1.1//EN"
 "http://www.w3.org/Graphics/SVG/1.1/DTD/svg11.dtd">
<!-- Generated by graphviz version 2.44.0 (0)
 -->
<!-- Title: matrix_product Pages: 1 -->
<svg width="192pt" height="64pt"
 viewBox="0.00 0.00 192.00 64.00" xmlns="http://www.w3.org/2000/svg" xmlns:xlink="http://www.w3.org/1999/xlink">
<g id="graph0" class="graph" transform="scale(1 1) rotate(0) translate(4 60)">
<title>matrix_product</title>
<!-- Node1 -->
<g id="Node000001" class="node">
<title>Node1</title>
<g id="a_Node000001"><a xlink:title=" ">
<polygon fill="#999999" stroke="#666666" points="81,-37 0,-37 0,-18 81,-18 81,-37"/>
<text text-anchor="middle" x="40.5" y="-25" font-family="Helvetica" font-size="10.00">matrix_product</text>
</a>
</g>
</g>
<!-- Node2 -->
<g id="Node000002" class="node">
<title>Node2</title>
<g id="a_Node000002"><a xlink:href="kc_8cpp.html#ac75528b11a2997977101b6e9ded2c7cf" target="_top" xlink:title=" ">
<polygon fill="white" stroke="#666666" points="184,-56 117,-56 117,-37 184,-37 184,-56"/>
<text text-anchor="middle" x="150.5" y="-44" font-family="Helvetica" font-size="10.00">matrix_new</text>
</a>
</g>
</g>
<!-- Node1&#45;&gt;Node2 -->
<g id="edge1_Node000001_Node000002" class="edge">
<title>Node1&#45;&gt;Node2</title>
<g id="a_edge1_Node000001_Node000002"><a xlink:title=" ">
<path fill="none" stroke="#63b8ff" d="M81.1,-34.47C89.49,-35.94 98.38,-37.51 106.87,-39"/>
<polygon fill="#63b8ff" stroke="#63b8ff" points="106.53,-42.49 116.98,-40.78 107.74,-35.6 106.53,-42.49"/>
</a>
</g>
</g>
<!-- Node3 -->
<g id="Node000003" class="node">
<title>Node3</title>
<g id="a_Node000003"><a xlink:href="kc_8cpp.html#adbdc6116401c49523c4c62dde6147310" target="_top" xlink:title=" ">
<polygon fill="white" stroke="#666666" points="184,-19 117,-19 117,0 184,0 184,-19"/>
<text text-anchor="middle" x="150.5" y="-7" font-family="Helvetica" font-size="10.00">matrix_zero</text>
</a>
</g>
</g>
<!-- Node1&#45;&gt;Node3 -->
<g id="edge2_Node000001_Node000003" class="edge">
<title>Node1&#45;&gt;Node3</title>
<g id="a_edge2_Node000001_Node000003"><a xlink:title=" ">
<path fill="none" stroke="#63b8ff" d="M81.1,-20.9C89.49,-19.5 98.38,-18.02 106.87,-16.6"/>
<polygon fill="#63b8ff" stroke="#63b8ff" points="107.69,-20.02 116.98,-14.92 106.54,-13.11 107.69,-20.02"/>
</a>
</g>
</g>
</g>
</svg>
