<?xml version="1.0" encoding="UTF-8" standalone="no"?>
<!DOCTYPE svg PUBLIC "-//W3C//DTD SVG 1.1//EN"
 "http://www.w3.org/Graphics/SVG/1.1/DTD/svg11.dtd">
<!-- Generated by graphviz version 2.44.0 (0)
 -->
<!-- Title: b1iot Pages: 1 -->
<svg width="147pt" height="64pt"
 viewBox="0.00 0.00 147.00 64.00" xmlns="http://www.w3.org/2000/svg" xmlns:xlink="http://www.w3.org/1999/xlink">
<g id="graph0" class="graph" transform="scale(1 1) rotate(0) translate(4 60)">
<title>b1iot</title>
<!-- Node1 -->
<g id="Node000001" class="node">
<title>Node1</title>
<g id="a_Node000001"><a xlink:title="O1 emission probability.">
<polygon fill="#999999" stroke="#666666" points="38,-37 0,-37 0,-18 38,-18 38,-37"/>
<text text-anchor="middle" x="19" y="-25" font-family="Helvetica" font-size="10.00">b1iot</text>
</a>
</g>
</g>
<!-- Node2 -->
<g id="Node000002" class="node">
<title>Node2</title>
<g id="a_Node000002"><a xlink:href="kc_8cpp.html#ab01d6eb051febfe28b8ac2987dcfe524" target="_top" xlink:title=" ">
<polygon fill="white" stroke="#666666" points="127,-56 86,-56 86,-37 127,-37 127,-56"/>
<text text-anchor="middle" x="106.5" y="-44" font-family="Helvetica" font-size="10.00">mean</text>
</a>
</g>
</g>
<!-- Node1&#45;&gt;Node2 -->
<g id="edge1_Node000001_Node000002" class="edge">
<title>Node1&#45;&gt;Node2</title>
<g id="a_edge1_Node000001_Node000002"><a xlink:title=" ">
<path fill="none" stroke="#63b8ff" d="M38.13,-31.53C49.09,-33.96 63.31,-37.12 75.86,-39.91"/>
<polygon fill="#63b8ff" stroke="#63b8ff" points="75.38,-43.39 85.9,-42.15 76.9,-36.56 75.38,-43.39"/>
</a>
</g>
</g>
<!-- Node3 -->
<g id="Node000003" class="node">
<title>Node3</title>
<g id="a_Node000003"><a xlink:href="kc_8cpp.html#a2b0a97c4c082620572646f0324ea6fc7" target="_top" xlink:title=" ">
<polygon fill="white" stroke="#666666" points="139,-19 74,-19 74,0 139,0 139,-19"/>
<text text-anchor="middle" x="106.5" y="-7" font-family="Helvetica" font-size="10.00">pdf_normal</text>
</a>
</g>
</g>
<!-- Node1&#45;&gt;Node3 -->
<g id="edge2_Node000001_Node000003" class="edge">
<title>Node1&#45;&gt;Node3</title>
<g id="a_edge2_Node000001_Node000003"><a xlink:title=" ">
<path fill="none" stroke="#63b8ff" d="M38.13,-23.68C45.76,-22.08 54.98,-20.14 64.12,-18.21"/>
<polygon fill="#63b8ff" stroke="#63b8ff" points="64.86,-21.63 73.92,-16.15 63.41,-14.78 64.86,-21.63"/>
</a>
</g>
</g>
</g>
</svg>
