<?xml version="1.0" encoding="UTF-8" standalone="no"?>
<!DOCTYPE svg PUBLIC "-//W3C//DTD SVG 1.1//EN"
 "http://www.w3.org/Graphics/SVG/1.1/DTD/svg11.dtd">
<!-- Generated by graphviz version 2.44.0 (0)
 -->
<!-- Title: src/khmm.cpp Pages: 1 -->
<svg width="114pt" height="82pt"
 viewBox="0.00 0.00 113.50 82.00" xmlns="http://www.w3.org/2000/svg" xmlns:xlink="http://www.w3.org/1999/xlink">
<g id="graph0" class="graph" transform="scale(1 1) rotate(0) translate(4 78)">
<title>src/khmm.cpp</title>
<!-- Node1 -->
<g id="Node000001" class="node">
<title>Node1</title>
<g id="a_Node000001"><a xlink:title=" ">
<polygon fill="#999999" stroke="#666666" points="96.5,-74 17.5,-74 17.5,-55 96.5,-55 96.5,-74"/>
<text text-anchor="middle" x="57" y="-62" font-family="Helvetica" font-size="10.00">src/khmm.cpp</text>
</a>
</g>
</g>
<!-- Node2 -->
<g id="Node000002" class="node">
<title>Node2</title>
<g id="a_Node000002"><a xlink:href="khmm_8h.html" target="_top" xlink:title=" ">
<polygon fill="white" stroke="#666666" points="52,-19 0,-19 0,0 52,0 52,-19"/>
<text text-anchor="middle" x="26" y="-7" font-family="Helvetica" font-size="10.00">khmm.h</text>
</a>
</g>
</g>
<!-- Node1&#45;&gt;Node2 -->
<g id="edge1_Node000001_Node000002" class="edge">
<title>Node1&#45;&gt;Node2</title>
<g id="a_edge1_Node000001_Node000002"><a xlink:title=" ">
<path fill="none" stroke="#63b8ff" d="M51.88,-54.75C47.64,-47.49 41.47,-36.95 36.22,-27.98"/>
<polygon fill="#63b8ff" stroke="#63b8ff" points="39.09,-25.95 31.02,-19.09 33.05,-29.49 39.09,-25.95"/>
</a>
</g>
</g>
<!-- Node3 -->
<g id="Node000003" class="node">
<title>Node3</title>
<g id="a_Node000003"><a xlink:href="kc_8h.html" target="_top" xlink:title=" ">
<polygon fill="white" stroke="#666666" points="105.5,-19 70.5,-19 70.5,0 105.5,0 105.5,-19"/>
<text text-anchor="middle" x="88" y="-7" font-family="Helvetica" font-size="10.00">kc.h</text>
</a>
</g>
</g>
<!-- Node1&#45;&gt;Node3 -->
<g id="edge2_Node000001_Node000003" class="edge">
<title>Node1&#45;&gt;Node3</title>
<g id="a_edge2_Node000001_Node000003"><a xlink:title=" ">
<path fill="none" stroke="#63b8ff" d="M62.12,-54.75C66.36,-47.49 72.53,-36.95 77.78,-27.98"/>
<polygon fill="#63b8ff" stroke="#63b8ff" points="80.95,-29.49 82.98,-19.09 74.91,-25.95 80.95,-29.49"/>
</a>
</g>
</g>
</g>
</svg>
