<?xml version="1.0" encoding="UTF-8" standalone="no"?>
<!DOCTYPE svg PUBLIC "-//W3C//DTD SVG 1.1//EN"
 "http://www.w3.org/Graphics/SVG/1.1/DTD/svg11.dtd">
<!-- Generated by graphviz version 2.44.0 (0)
 -->
<!-- Title: ReadCHMM Pages: 1 -->
<svg width="163pt" height="64pt"
 viewBox="0.00 0.00 163.00 64.00" xmlns="http://www.w3.org/2000/svg" xmlns:xlink="http://www.w3.org/1999/xlink">
<g id="graph0" class="graph" transform="scale(1 1) rotate(0) translate(4 60)">
<title>ReadCHMM</title>
<!-- Node1 -->
<g id="Node000001" class="node">
<title>Node1</title>
<g id="a_Node000001"><a xlink:title="Read an HMM from a file.">
<polygon fill="#999999" stroke="#666666" points="70,-37 0,-37 0,-18 70,-18 70,-37"/>
<text text-anchor="middle" x="35" y="-25" font-family="Helvetica" font-size="10.00">ReadCHMM</text>
</a>
</g>
</g>
<!-- Node2 -->
<g id="Node000002" class="node">
<title>Node2</title>
<g id="a_Node000002"><a xlink:href="kc_8cpp.html#ab1a02a50dfbc26318f6bb296731b6f3a" target="_top" xlink:title=" ">
<polygon fill="white" stroke="#666666" points="155,-56 106,-56 106,-37 155,-37 155,-56"/>
<text text-anchor="middle" x="130.5" y="-44" font-family="Helvetica" font-size="10.00">dmatrix</text>
</a>
</g>
</g>
<!-- Node1&#45;&gt;Node2 -->
<g id="edge1_Node000001_Node000002" class="edge">
<title>Node1&#45;&gt;Node2</title>
<g id="a_edge1_Node000001_Node000002"><a xlink:title=" ">
<path fill="none" stroke="#63b8ff" d="M70.02,-34.41C78.48,-36.13 87.55,-37.98 95.99,-39.69"/>
<polygon fill="#63b8ff" stroke="#63b8ff" points="95.39,-43.14 105.89,-41.7 96.79,-36.28 95.39,-43.14"/>
</a>
</g>
</g>
<!-- Node3 -->
<g id="Node000003" class="node">
<title>Node3</title>
<g id="a_Node000003"><a xlink:href="kc_8cpp.html#ae21c4c252ad5d5710ebd03d6f07e40de" target="_top" xlink:title=" ">
<polygon fill="white" stroke="#666666" points="154.5,-19 106.5,-19 106.5,0 154.5,0 154.5,-19"/>
<text text-anchor="middle" x="130.5" y="-7" font-family="Helvetica" font-size="10.00">dvector</text>
</a>
</g>
</g>
<!-- Node1&#45;&gt;Node3 -->
<g id="edge2_Node000001_Node000003" class="edge">
<title>Node1&#45;&gt;Node3</title>
<g id="a_edge2_Node000001_Node000003"><a xlink:title=" ">
<path fill="none" stroke="#63b8ff" d="M70.02,-20.95C78.63,-19.29 87.87,-17.51 96.43,-15.87"/>
<polygon fill="#63b8ff" stroke="#63b8ff" points="97.3,-19.26 106.46,-13.94 95.98,-12.39 97.3,-19.26"/>
</a>
</g>
</g>
</g>
</svg>
