<?xml version="1.0" encoding="UTF-8" standalone="no"?>
<!DOCTYPE svg PUBLIC "-//W3C//DTD SVG 1.1//EN"
 "http://www.w3.org/Graphics/SVG/1.1/DTD/svg11.dtd">
<!-- Generated by graphviz version 2.44.0 (0)
 -->
<!-- Title: b2iot Pages: 1 -->
<svg width="466pt" height="120pt"
 viewBox="0.00 0.00 466.00 120.00" xmlns="http://www.w3.org/2000/svg" xmlns:xlink="http://www.w3.org/1999/xlink">
<g id="graph0" class="graph" transform="scale(1 1) rotate(0) translate(4 116)">
<title>b2iot</title>
<!-- Node1 -->
<g id="Node000001" class="node">
<title>Node1</title>
<g id="a_Node000001"><a xlink:title="O2 emission probability.">
<polygon fill="#999999" stroke="#666666" points="38,-56 0,-56 0,-37 38,-37 38,-56"/>
<text text-anchor="middle" x="19" y="-44" font-family="Helvetica" font-size="10.00">b2iot</text>
</a>
</g>
</g>
<!-- Node2 -->
<g id="Node000002" class="node">
<title>Node2</title>
<g id="a_Node000002"><a xlink:href="kc_8cpp.html#ad7f21bf6ad62e142c785825e00a546e3" target="_top" xlink:title=" ">
<polygon fill="white" stroke="#666666" points="139,-93 74,-93 74,-74 139,-74 139,-93"/>
<text text-anchor="middle" x="106.5" y="-81" font-family="Helvetica" font-size="10.00">cdf_normal</text>
</a>
</g>
</g>
<!-- Node1&#45;&gt;Node2 -->
<g id="edge1_Node000001_Node000002" class="edge">
<title>Node1&#45;&gt;Node2</title>
<g id="a_edge1_Node000001_Node000002"><a xlink:title=" ">
<path fill="none" stroke="#63b8ff" d="M38.13,-54.35C48.58,-58.87 61.99,-64.67 74.1,-69.91"/>
<polygon fill="#63b8ff" stroke="#63b8ff" points="72.88,-73.2 83.45,-73.96 75.66,-66.77 72.88,-73.2"/>
</a>
</g>
</g>
<!-- Node8 -->
<g id="Node000008" class="node">
<title>Node8</title>
<g id="a_Node000008"><a xlink:href="kc_8cpp.html#ab01d6eb051febfe28b8ac2987dcfe524" target="_top" xlink:title=" ">
<polygon fill="white" stroke="#666666" points="127,-56 86,-56 86,-37 127,-37 127,-56"/>
<text text-anchor="middle" x="106.5" y="-44" font-family="Helvetica" font-size="10.00">mean</text>
</a>
</g>
</g>
<!-- Node1&#45;&gt;Node8 -->
<g id="edge8_Node000001_Node000008" class="edge">
<title>Node1&#45;&gt;Node8</title>
<g id="a_edge8_Node000001_Node000008"><a xlink:title=" ">
<path fill="none" stroke="#63b8ff" d="M38.13,-46.5C49.09,-46.5 63.31,-46.5 75.86,-46.5"/>
<polygon fill="#63b8ff" stroke="#63b8ff" points="75.9,-50 85.9,-46.5 75.9,-43 75.9,-50"/>
</a>
</g>
</g>
<!-- Node9 -->
<g id="Node000009" class="node">
<title>Node9</title>
<g id="a_Node000009"><a xlink:href="kc_8cpp.html#a2b0a97c4c082620572646f0324ea6fc7" target="_top" xlink:title=" ">
<polygon fill="white" stroke="#666666" points="139,-19 74,-19 74,0 139,0 139,-19"/>
<text text-anchor="middle" x="106.5" y="-7" font-family="Helvetica" font-size="10.00">pdf_normal</text>
</a>
</g>
</g>
<!-- Node1&#45;&gt;Node9 -->
<g id="edge9_Node000001_Node000009" class="edge">
<title>Node1&#45;&gt;Node9</title>
<g id="a_edge9_Node000001_Node000009"><a xlink:title=" ">
<path fill="none" stroke="#63b8ff" d="M38.13,-38.65C48.58,-34.13 61.99,-28.33 74.1,-23.09"/>
<polygon fill="#63b8ff" stroke="#63b8ff" points="75.66,-26.23 83.45,-19.04 72.88,-19.8 75.66,-26.23"/>
</a>
</g>
</g>
<!-- Node3 -->
<g id="Node000003" class="node">
<title>Node3</title>
<g id="a_Node000003"><a xlink:href="kc_8cpp.html#afafd5c993f50f8676e0a2095ce62c012" target="_top" xlink:title=" ">
<polygon fill="white" stroke="#666666" points="215,-93 175,-93 175,-74 215,-74 215,-93"/>
<text text-anchor="middle" x="195" y="-81" font-family="Helvetica" font-size="10.00">errorf</text>
</a>
</g>
</g>
<!-- Node2&#45;&gt;Node3 -->
<g id="edge2_Node000002_Node000003" class="edge">
<title>Node2&#45;&gt;Node3</title>
<g id="a_edge2_Node000002_Node000003"><a xlink:title=" ">
<path fill="none" stroke="#63b8ff" d="M139.22,-83.5C147.53,-83.5 156.46,-83.5 164.65,-83.5"/>
<polygon fill="#63b8ff" stroke="#63b8ff" points="164.86,-87 174.86,-83.5 164.86,-80 164.86,-87"/>
</a>
</g>
</g>
<!-- Node4 -->
<g id="Node000004" class="node">
<title>Node4</title>
<g id="a_Node000004"><a xlink:href="kc_8cpp.html#aa1745417f9696825bc7cc68538800b5b" target="_top" xlink:title=" ">
<polygon fill="white" stroke="#666666" points="300,-93 251,-93 251,-74 300,-74 300,-93"/>
<text text-anchor="middle" x="275.5" y="-81" font-family="Helvetica" font-size="10.00">gammp</text>
</a>
</g>
</g>
<!-- Node3&#45;&gt;Node4 -->
<g id="edge3_Node000003_Node000004" class="edge">
<title>Node3&#45;&gt;Node4</title>
<g id="a_edge3_Node000003_Node000004"><a xlink:title=" ">
<path fill="none" stroke="#63b8ff" d="M215,-83.5C222.76,-83.5 231.98,-83.5 240.81,-83.5"/>
<polygon fill="#63b8ff" stroke="#63b8ff" points="240.9,-87 250.9,-83.5 240.9,-80 240.9,-87"/>
</a>
</g>
</g>
<!-- Node5 -->
<g id="Node000005" class="node">
<title>Node5</title>
<g id="a_Node000005"><a xlink:href="kc_8cpp.html#a5b446e3e8ec13c8e2383ac156f0cf77f" target="_top" xlink:title=" ">
<polygon fill="white" stroke="#666666" points="368.5,-112 338.5,-112 338.5,-93 368.5,-93 368.5,-112"/>
<text text-anchor="middle" x="353.5" y="-100" font-family="Helvetica" font-size="10.00">gcf</text>
</a>
</g>
</g>
<!-- Node4&#45;&gt;Node5 -->
<g id="edge4_Node000004_Node000005" class="edge">
<title>Node4&#45;&gt;Node5</title>
<g id="a_edge4_Node000004_Node000005"><a xlink:title=" ">
<path fill="none" stroke="#63b8ff" d="M300.13,-89.41C309.15,-91.66 319.44,-94.23 328.49,-96.5"/>
<polygon fill="#63b8ff" stroke="#63b8ff" points="327.85,-99.95 338.41,-98.98 329.55,-93.16 327.85,-99.95"/>
</a>
</g>
</g>
<!-- Node7 -->
<g id="Node000007" class="node">
<title>Node7</title>
<g id="a_Node000007"><a xlink:href="kc_8cpp.html#a5277079b0c65d166db9553deb8a92de2" target="_top" xlink:title=" ">
<polygon fill="white" stroke="#666666" points="371,-75 336,-75 336,-56 371,-56 371,-75"/>
<text text-anchor="middle" x="353.5" y="-63" font-family="Helvetica" font-size="10.00">gser</text>
</a>
</g>
</g>
<!-- Node4&#45;&gt;Node7 -->
<g id="edge6_Node000004_Node000007" class="edge">
<title>Node4&#45;&gt;Node7</title>
<g id="a_edge6_Node000004_Node000007"><a xlink:title=" ">
<path fill="none" stroke="#63b8ff" d="M300.13,-77.9C308.22,-75.99 317.33,-73.83 325.65,-71.86"/>
<polygon fill="#63b8ff" stroke="#63b8ff" points="326.71,-75.2 335.64,-69.49 325.1,-68.39 326.71,-75.2"/>
</a>
</g>
</g>
<!-- Node6 -->
<g id="Node000006" class="node">
<title>Node6</title>
<g id="a_Node000006"><a xlink:href="kc_8cpp.html#a69cc1b545a83a4d9f187e131500aee45" target="_top" xlink:title=" ">
<polygon fill="white" stroke="#666666" points="458,-93 407,-93 407,-74 458,-74 458,-93"/>
<text text-anchor="middle" x="432.5" y="-81" font-family="Helvetica" font-size="10.00">gammln</text>
</a>
</g>
</g>
<!-- Node5&#45;&gt;Node6 -->
<g id="edge5_Node000005_Node000006" class="edge">
<title>Node5&#45;&gt;Node6</title>
<g id="a_edge5_Node000005_Node000006"><a xlink:title=" ">
<path fill="none" stroke="#63b8ff" d="M368.62,-99.02C376.63,-97.04 387.04,-94.47 397.07,-92"/>
<polygon fill="#63b8ff" stroke="#63b8ff" points="398,-95.37 406.87,-89.58 396.32,-88.58 398,-95.37"/>
</a>
</g>
</g>
<!-- Node7&#45;&gt;Node6 -->
<g id="edge7_Node000007_Node000006" class="edge">
<title>Node7&#45;&gt;Node6</title>
<g id="a_edge7_Node000007_Node000006"><a xlink:title=" ">
<path fill="none" stroke="#63b8ff" d="M371.21,-69.41C378.79,-71.18 388.06,-73.34 397.03,-75.44"/>
<polygon fill="#63b8ff" stroke="#63b8ff" points="396.39,-78.89 406.93,-77.76 397.99,-72.07 396.39,-78.89"/>
</a>
</g>
</g>
</g>
</svg>
