<?xml version="1.0" encoding="UTF-8" standalone="no"?>
<!DOCTYPE svg PUBLIC "-//W3C//DTD SVG 1.1//EN"
 "http://www.w3.org/Graphics/SVG/1.1/DTD/svg11.dtd">
<!-- Generated by graphviz version 2.44.0 (0)
 -->
<!-- Title: FreeCHMM Pages: 1 -->
<svg width="182pt" height="64pt"
 viewBox="0.00 0.00 182.00 64.00" xmlns="http://www.w3.org/2000/svg" xmlns:xlink="http://www.w3.org/1999/xlink">
<g id="graph0" class="graph" transform="scale(1 1) rotate(0) translate(4 60)">
<title>FreeCHMM</title>
<!-- Node1 -->
<g id="Node000001" class="node">
<title>Node1</title>
<g id="a_Node000001"><a xlink:title="Free the memory allocated for an HMM.">
<polygon fill="#999999" stroke="#666666" points="67,-37 0,-37 0,-18 67,-18 67,-37"/>
<text text-anchor="middle" x="33.5" y="-25" font-family="Helvetica" font-size="10.00">FreeCHMM</text>
</a>
</g>
</g>
<!-- Node2 -->
<g id="Node000002" class="node">
<title>Node2</title>
<g id="a_Node000002"><a xlink:href="kc_8cpp.html#a04fbc9bc53e6303830eb4338bc1f3259" target="_top" xlink:title=" ">
<polygon fill="white" stroke="#666666" points="174,-56 103,-56 103,-37 174,-37 174,-56"/>
<text text-anchor="middle" x="138.5" y="-44" font-family="Helvetica" font-size="10.00">free_dmatrix</text>
</a>
</g>
</g>
<!-- Node1&#45;&gt;Node2 -->
<g id="edge1_Node000001_Node000002" class="edge">
<title>Node1&#45;&gt;Node2</title>
<g id="a_edge1_Node000001_Node000002"><a xlink:title=" ">
<path fill="none" stroke="#63b8ff" d="M67.09,-33.51C75.31,-35.03 84.27,-36.68 92.97,-38.29"/>
<polygon fill="#63b8ff" stroke="#63b8ff" points="92.52,-41.76 102.99,-40.13 93.79,-34.88 92.52,-41.76"/>
</a>
</g>
</g>
<!-- Node3 -->
<g id="Node000003" class="node">
<title>Node3</title>
<g id="a_Node000003"><a xlink:href="kc_8cpp.html#ac7ec1a76a4b8d3d8423246676977c919" target="_top" xlink:title=" ">
<polygon fill="white" stroke="#666666" points="173.5,-19 103.5,-19 103.5,0 173.5,0 173.5,-19"/>
<text text-anchor="middle" x="138.5" y="-7" font-family="Helvetica" font-size="10.00">free_dvector</text>
</a>
</g>
</g>
<!-- Node1&#45;&gt;Node3 -->
<g id="edge2_Node000001_Node000003" class="edge">
<title>Node1&#45;&gt;Node3</title>
<g id="a_edge2_Node000001_Node000003"><a xlink:title=" ">
<path fill="none" stroke="#63b8ff" d="M67.09,-21.8C75.39,-20.35 84.46,-18.77 93.23,-17.24"/>
<polygon fill="#63b8ff" stroke="#63b8ff" points="94.1,-20.64 103.35,-15.47 92.89,-13.74 94.1,-20.64"/>
</a>
</g>
</g>
</g>
</svg>
