<?xml version="1.0" encoding="UTF-8" standalone="no"?>
<!DOCTYPE svg PUBLIC "-//W3C//DTD SVG 1.1//EN"
 "http://www.w3.org/Graphics/SVG/1.1/DTD/svg11.dtd">
<!-- Generated by graphviz version 2.44.0 (0)
 -->
<!-- Title: testVit_CHMM Pages: 1 -->
<svg width="763pt" height="213pt"
 viewBox="0.00 0.00 763.00 213.00" xmlns="http://www.w3.org/2000/svg" xmlns:xlink="http://www.w3.org/1999/xlink">
<g id="graph0" class="graph" transform="scale(1 1) rotate(0) translate(4 209)">
<title>testVit_CHMM</title>
<!-- Node1 -->
<g id="Node000001" class="node">
<title>Node1</title>
<g id="a_Node000001"><a xlink:title="Run the main HMM algorithm.">
<polygon fill="#999999" stroke="#666666" points="81,-111 0,-111 0,-92 81,-92 81,-111"/>
<text text-anchor="middle" x="40.5" y="-99" font-family="Helvetica" font-size="10.00">testVit_CHMM</text>
</a>
</g>
</g>
<!-- Node2 -->
<g id="Node000002" class="node">
<title>Node2</title>
<g id="a_Node000002"><a xlink:href="kc_8cpp.html#ab1a02a50dfbc26318f6bb296731b6f3a" target="_top" xlink:title=" ">
<polygon fill="white" stroke="#666666" points="324,-205 275,-205 275,-186 324,-186 324,-205"/>
<text text-anchor="middle" x="299.5" y="-193" font-family="Helvetica" font-size="10.00">dmatrix</text>
</a>
</g>
</g>
<!-- Node1&#45;&gt;Node2 -->
<g id="edge1_Node000001_Node000002" class="edge">
<title>Node1&#45;&gt;Node2</title>
<g id="a_edge1_Node000001_Node000002"><a xlink:title=" ">
<path fill="none" stroke="#63b8ff" d="M50.71,-111.37C63.98,-124.95 89.89,-149.12 117,-161.5 165.17,-183.5 226.75,-191.26 264.38,-194"/>
<polygon fill="#63b8ff" stroke="#63b8ff" points="264.58,-197.52 274.78,-194.68 265.03,-190.54 264.58,-197.52"/>
</a>
</g>
</g>
<!-- Node3 -->
<g id="Node000003" class="node">
<title>Node3</title>
<g id="a_Node000003"><a xlink:href="kc_8cpp.html#ae21c4c252ad5d5710ebd03d6f07e40de" target="_top" xlink:title=" ">
<polygon fill="white" stroke="#666666" points="196.5,-93 148.5,-93 148.5,-74 196.5,-74 196.5,-93"/>
<text text-anchor="middle" x="172.5" y="-81" font-family="Helvetica" font-size="10.00">dvector</text>
</a>
</g>
</g>
<!-- Node1&#45;&gt;Node3 -->
<g id="edge2_Node000001_Node000003" class="edge">
<title>Node1&#45;&gt;Node3</title>
<g id="a_edge2_Node000001_Node000003"><a xlink:title=" ">
<path fill="none" stroke="#63b8ff" d="M81.21,-96C99.39,-93.48 120.7,-90.53 138.05,-88.13"/>
<polygon fill="#63b8ff" stroke="#63b8ff" points="138.85,-91.55 148.27,-86.72 137.89,-84.62 138.85,-91.55"/>
</a>
</g>
</g>
<!-- Node4 -->
<g id="Node000004" class="node">
<title>Node4</title>
<g id="a_Node000004"><a xlink:href="kc_8cpp.html#a04fbc9bc53e6303830eb4338bc1f3259" target="_top" xlink:title=" ">
<polygon fill="white" stroke="#666666" points="335,-167 264,-167 264,-148 335,-148 335,-167"/>
<text text-anchor="middle" x="299.5" y="-155" font-family="Helvetica" font-size="10.00">free_dmatrix</text>
</a>
</g>
</g>
<!-- Node1&#45;&gt;Node4 -->
<g id="edge3_Node000001_Node000004" class="edge">
<title>Node1&#45;&gt;Node4</title>
<g id="a_edge3_Node000001_Node000004"><a xlink:title=" ">
<path fill="none" stroke="#63b8ff" d="M56.43,-111.1C71.19,-120.08 94.73,-133.04 117,-139.5 162.31,-152.65 216.36,-156.59 253.62,-157.59"/>
<polygon fill="#63b8ff" stroke="#63b8ff" points="253.6,-161.09 263.67,-157.8 253.74,-154.09 253.6,-161.09"/>
</a>
</g>
</g>
<!-- Node5 -->
<g id="Node000005" class="node">
<title>Node5</title>
<g id="a_Node000005"><a xlink:href="kc_8cpp.html#aefc01b3e130f9ecc15c4a376ba987bae" target="_top" xlink:title=" ">
<polygon fill="white" stroke="#666666" points="206.5,-56 138.5,-56 138.5,-37 206.5,-37 206.5,-56"/>
<text text-anchor="middle" x="172.5" y="-44" font-family="Helvetica" font-size="10.00">free_imatrix</text>
</a>
</g>
</g>
<!-- Node1&#45;&gt;Node5 -->
<g id="edge4_Node000001_Node000005" class="edge">
<title>Node1&#45;&gt;Node5</title>
<g id="a_edge4_Node000001_Node000005"><a xlink:title=" ">
<path fill="none" stroke="#63b8ff" d="M60.17,-91.89C75.29,-84.28 97.26,-73.62 117,-65.5 122.04,-63.43 127.4,-61.38 132.71,-59.44"/>
<polygon fill="#63b8ff" stroke="#63b8ff" points="133.9,-62.73 142.15,-56.07 131.55,-56.13 133.9,-62.73"/>
</a>
</g>
</g>
<!-- Node6 -->
<g id="Node000006" class="node">
<title>Node6</title>
<g id="a_Node000006"><a xlink:href="kc_8cpp.html#abf1b4d8302f62d6a4c71bfc56c4e0527" target="_top" xlink:title=" ">
<polygon fill="white" stroke="#666666" points="195.5,-19 149.5,-19 149.5,0 195.5,0 195.5,-19"/>
<text text-anchor="middle" x="172.5" y="-7" font-family="Helvetica" font-size="10.00">imatrix</text>
</a>
</g>
</g>
<!-- Node1&#45;&gt;Node6 -->
<g id="edge5_Node000001_Node000006" class="edge">
<title>Node1&#45;&gt;Node6</title>
<g id="a_edge5_Node000001_Node000006"><a xlink:title=" ">
<path fill="none" stroke="#63b8ff" d="M48.81,-91.91C61.2,-76.28 87.85,-45.26 117,-27.5 123.86,-23.32 131.81,-19.99 139.48,-17.38"/>
<polygon fill="#63b8ff" stroke="#63b8ff" points="140.76,-20.65 149.29,-14.37 138.7,-13.96 140.76,-20.65"/>
</a>
</g>
</g>
<!-- Node7 -->
<g id="Node000007" class="node">
<title>Node7</title>
<g id="a_Node000007"><a xlink:href="khmm_8cpp.html#a51dbadd369b498ec093b590f39e8ea96" target="_top" xlink:title="Viterbi algorithm.">
<polygon fill="white" stroke="#666666" points="228,-130 117,-130 117,-111 228,-111 228,-130"/>
<text text-anchor="middle" x="172.5" y="-118" font-family="Helvetica" font-size="10.00">ViterbiLogNP_CHMM</text>
</a>
</g>
</g>
<!-- Node1&#45;&gt;Node7 -->
<g id="edge6_Node000001_Node000007" class="edge">
<title>Node1&#45;&gt;Node7</title>
<g id="a_edge6_Node000001_Node000007"><a xlink:title=" ">
<path fill="none" stroke="#63b8ff" d="M81.21,-107.3C89.26,-108.48 97.92,-109.75 106.59,-111.01"/>
<polygon fill="#63b8ff" stroke="#63b8ff" points="106.31,-114.51 116.72,-112.49 107.33,-107.58 106.31,-114.51"/>
</a>
</g>
</g>
<!-- Node7&#45;&gt;Node2 -->
<g id="edge20_Node000007_Node000002" class="edge">
<title>Node7&#45;&gt;Node2</title>
<g id="a_edge20_Node000007_Node000002"><a xlink:title=" ">
<path fill="none" stroke="#63b8ff" d="M188.41,-130.05C206.23,-141.39 237.04,-160.75 264,-176.5 266.49,-177.96 269.1,-179.45 271.71,-180.92"/>
<polygon fill="#63b8ff" stroke="#63b8ff" points="270.06,-184.01 280.5,-185.81 273.46,-177.89 270.06,-184.01"/>
</a>
</g>
</g>
<!-- Node7&#45;&gt;Node4 -->
<g id="edge21_Node000007_Node000004" class="edge">
<title>Node7&#45;&gt;Node4</title>
<g id="a_edge21_Node000007_Node000004"><a xlink:title=" ">
<path fill="none" stroke="#63b8ff" d="M205.69,-130.03C221.03,-134.57 239.57,-140.06 256.04,-144.93"/>
<polygon fill="#63b8ff" stroke="#63b8ff" points="255.4,-148.39 265.98,-147.88 257.39,-141.68 255.4,-148.39"/>
</a>
</g>
</g>
<!-- Node8 -->
<g id="Node000008" class="node">
<title>Node8</title>
<g id="a_Node000008"><a xlink:href="khmm_8cpp.html#a02dc04d07f642f9756939ef10af76319" target="_top" xlink:title="O1 emission probability.">
<polygon fill="white" stroke="#666666" points="318.5,-130 280.5,-130 280.5,-111 318.5,-111 318.5,-130"/>
<text text-anchor="middle" x="299.5" y="-118" font-family="Helvetica" font-size="10.00">b1iot</text>
</a>
</g>
</g>
<!-- Node7&#45;&gt;Node8 -->
<g id="edge7_Node000007_Node000008" class="edge">
<title>Node7&#45;&gt;Node8</title>
<g id="a_edge7_Node000007_Node000008"><a xlink:title=" ">
<path fill="none" stroke="#63b8ff" d="M228.33,-120.5C242.74,-120.5 257.7,-120.5 270.08,-120.5"/>
<polygon fill="#63b8ff" stroke="#63b8ff" points="270.23,-124 280.23,-120.5 270.23,-117 270.23,-124"/>
</a>
</g>
</g>
<!-- Node11 -->
<g id="Node000011" class="node">
<title>Node11</title>
<g id="a_Node000011"><a xlink:href="khmm_8cpp.html#a652a672a2d4cba451fe4f5a0af94d977" target="_top" xlink:title="O2 emission probability.">
<polygon fill="white" stroke="#666666" points="318.5,-93 280.5,-93 280.5,-74 318.5,-74 318.5,-93"/>
<text text-anchor="middle" x="299.5" y="-81" font-family="Helvetica" font-size="10.00">b2iot</text>
</a>
</g>
</g>
<!-- Node7&#45;&gt;Node11 -->
<g id="edge10_Node000007_Node000011" class="edge">
<title>Node7&#45;&gt;Node11</title>
<g id="a_edge10_Node000007_Node000011"><a xlink:title=" ">
<path fill="none" stroke="#63b8ff" d="M205.69,-110.97C225.8,-105.02 251.44,-97.43 270.67,-91.74"/>
<polygon fill="#63b8ff" stroke="#63b8ff" points="271.75,-95.07 280.35,-88.87 269.77,-88.35 271.75,-95.07"/>
</a>
</g>
</g>
<!-- Node9 -->
<g id="Node000009" class="node">
<title>Node9</title>
<g id="a_Node000009"><a xlink:href="kc_8cpp.html#ab01d6eb051febfe28b8ac2987dcfe524" target="_top" xlink:title=" ">
<polygon fill="white" stroke="#666666" points="424,-93 383,-93 383,-74 424,-74 424,-93"/>
<text text-anchor="middle" x="403.5" y="-81" font-family="Helvetica" font-size="10.00">mean</text>
</a>
</g>
</g>
<!-- Node8&#45;&gt;Node9 -->
<g id="edge8_Node000008_Node000009" class="edge">
<title>Node8&#45;&gt;Node9</title>
<g id="a_edge8_Node000008_Node000009"><a xlink:title=" ">
<path fill="none" stroke="#63b8ff" d="M318.74,-113.89C333.78,-108.43 355.41,-100.58 372.93,-94.23"/>
<polygon fill="#63b8ff" stroke="#63b8ff" points="374.47,-97.39 382.68,-90.69 372.09,-90.81 374.47,-97.39"/>
</a>
</g>
</g>
<!-- Node10 -->
<g id="Node000010" class="node">
<title>Node10</title>
<g id="a_Node000010"><a xlink:href="kc_8cpp.html#a2b0a97c4c082620572646f0324ea6fc7" target="_top" xlink:title=" ">
<polygon fill="white" stroke="#666666" points="436,-130 371,-130 371,-111 436,-111 436,-130"/>
<text text-anchor="middle" x="403.5" y="-118" font-family="Helvetica" font-size="10.00">pdf_normal</text>
</a>
</g>
</g>
<!-- Node8&#45;&gt;Node10 -->
<g id="edge9_Node000008_Node000010" class="edge">
<title>Node8&#45;&gt;Node10</title>
<g id="a_edge9_Node000008_Node000010"><a xlink:title=" ">
<path fill="none" stroke="#63b8ff" d="M318.74,-120.5C330.36,-120.5 345.91,-120.5 360.46,-120.5"/>
<polygon fill="#63b8ff" stroke="#63b8ff" points="360.81,-124 370.81,-120.5 360.81,-117 360.81,-124"/>
</a>
</g>
</g>
<!-- Node11&#45;&gt;Node9 -->
<g id="edge18_Node000011_Node000009" class="edge">
<title>Node11&#45;&gt;Node9</title>
<g id="a_edge18_Node000011_Node000009"><a xlink:title=" ">
<path fill="none" stroke="#63b8ff" d="M318.74,-83.5C333.64,-83.5 355.01,-83.5 372.43,-83.5"/>
<polygon fill="#63b8ff" stroke="#63b8ff" points="372.68,-87 382.68,-83.5 372.68,-80 372.68,-87"/>
</a>
</g>
</g>
<!-- Node11&#45;&gt;Node10 -->
<g id="edge19_Node000011_Node000010" class="edge">
<title>Node11&#45;&gt;Node10</title>
<g id="a_edge19_Node000011_Node000010"><a xlink:title=" ">
<path fill="none" stroke="#63b8ff" d="M318.74,-90.11C331.93,-94.9 350.19,-101.53 366.3,-107.37"/>
<polygon fill="#63b8ff" stroke="#63b8ff" points="365.39,-110.76 375.99,-110.88 367.78,-104.18 365.39,-110.76"/>
</a>
</g>
</g>
<!-- Node12 -->
<g id="Node000012" class="node">
<title>Node12</title>
<g id="a_Node000012"><a xlink:href="kc_8cpp.html#ad7f21bf6ad62e142c785825e00a546e3" target="_top" xlink:title=" ">
<polygon fill="white" stroke="#666666" points="436,-56 371,-56 371,-37 436,-37 436,-56"/>
<text text-anchor="middle" x="403.5" y="-44" font-family="Helvetica" font-size="10.00">cdf_normal</text>
</a>
</g>
</g>
<!-- Node11&#45;&gt;Node12 -->
<g id="edge11_Node000011_Node000012" class="edge">
<title>Node11&#45;&gt;Node12</title>
<g id="a_edge11_Node000011_Node000012"><a xlink:title=" ">
<path fill="none" stroke="#63b8ff" d="M318.74,-76.89C331.93,-72.1 350.19,-65.47 366.3,-59.63"/>
<polygon fill="#63b8ff" stroke="#63b8ff" points="367.78,-62.82 375.99,-56.12 365.39,-56.24 367.78,-62.82"/>
</a>
</g>
</g>
<!-- Node13 -->
<g id="Node000013" class="node">
<title>Node13</title>
<g id="a_Node000013"><a xlink:href="kc_8cpp.html#afafd5c993f50f8676e0a2095ce62c012" target="_top" xlink:title=" ">
<polygon fill="white" stroke="#666666" points="512,-56 472,-56 472,-37 512,-37 512,-56"/>
<text text-anchor="middle" x="492" y="-44" font-family="Helvetica" font-size="10.00">errorf</text>
</a>
</g>
</g>
<!-- Node12&#45;&gt;Node13 -->
<g id="edge12_Node000012_Node000013" class="edge">
<title>Node12&#45;&gt;Node13</title>
<g id="a_edge12_Node000012_Node000013"><a xlink:title=" ">
<path fill="none" stroke="#63b8ff" d="M436.22,-46.5C444.53,-46.5 453.46,-46.5 461.65,-46.5"/>
<polygon fill="#63b8ff" stroke="#63b8ff" points="461.86,-50 471.86,-46.5 461.86,-43 461.86,-50"/>
</a>
</g>
</g>
<!-- Node14 -->
<g id="Node000014" class="node">
<title>Node14</title>
<g id="a_Node000014"><a xlink:href="kc_8cpp.html#aa1745417f9696825bc7cc68538800b5b" target="_top" xlink:title=" ">
<polygon fill="white" stroke="#666666" points="597,-56 548,-56 548,-37 597,-37 597,-56"/>
<text text-anchor="middle" x="572.5" y="-44" font-family="Helvetica" font-size="10.00">gammp</text>
</a>
</g>
</g>
<!-- Node13&#45;&gt;Node14 -->
<g id="edge13_Node000013_Node000014" class="edge">
<title>Node13&#45;&gt;Node14</title>
<g id="a_edge13_Node000013_Node000014"><a xlink:title=" ">
<path fill="none" stroke="#63b8ff" d="M512,-46.5C519.76,-46.5 528.98,-46.5 537.81,-46.5"/>
<polygon fill="#63b8ff" stroke="#63b8ff" points="537.9,-50 547.9,-46.5 537.9,-43 537.9,-50"/>
</a>
</g>
</g>
<!-- Node15 -->
<g id="Node000015" class="node">
<title>Node15</title>
<g id="a_Node000015"><a xlink:href="kc_8cpp.html#a5b446e3e8ec13c8e2383ac156f0cf77f" target="_top" xlink:title=" ">
<polygon fill="white" stroke="#666666" points="665.5,-75 635.5,-75 635.5,-56 665.5,-56 665.5,-75"/>
<text text-anchor="middle" x="650.5" y="-63" font-family="Helvetica" font-size="10.00">gcf</text>
</a>
</g>
</g>
<!-- Node14&#45;&gt;Node15 -->
<g id="edge14_Node000014_Node000015" class="edge">
<title>Node14&#45;&gt;Node15</title>
<g id="a_edge14_Node000014_Node000015"><a xlink:title=" ">
<path fill="none" stroke="#63b8ff" d="M597.13,-52.41C606.15,-54.66 616.44,-57.23 625.49,-59.5"/>
<polygon fill="#63b8ff" stroke="#63b8ff" points="624.85,-62.95 635.41,-61.98 626.55,-56.16 624.85,-62.95"/>
</a>
</g>
</g>
<!-- Node17 -->
<g id="Node000017" class="node">
<title>Node17</title>
<g id="a_Node000017"><a xlink:href="kc_8cpp.html#a5277079b0c65d166db9553deb8a92de2" target="_top" xlink:title=" ">
<polygon fill="white" stroke="#666666" points="668,-38 633,-38 633,-19 668,-19 668,-38"/>
<text text-anchor="middle" x="650.5" y="-26" font-family="Helvetica" font-size="10.00">gser</text>
</a>
</g>
</g>
<!-- Node14&#45;&gt;Node17 -->
<g id="edge16_Node000014_Node000017" class="edge">
<title>Node14&#45;&gt;Node17</title>
<g id="a_edge16_Node000014_Node000017"><a xlink:title=" ">
<path fill="none" stroke="#63b8ff" d="M597.13,-40.9C605.22,-38.99 614.33,-36.83 622.65,-34.86"/>
<polygon fill="#63b8ff" stroke="#63b8ff" points="623.71,-38.2 632.64,-32.49 622.1,-31.39 623.71,-38.2"/>
</a>
</g>
</g>
<!-- Node16 -->
<g id="Node000016" class="node">
<title>Node16</title>
<g id="a_Node000016"><a xlink:href="kc_8cpp.html#a69cc1b545a83a4d9f187e131500aee45" target="_top" xlink:title=" ">
<polygon fill="white" stroke="#666666" points="755,-56 704,-56 704,-37 755,-37 755,-56"/>
<text text-anchor="middle" x="729.5" y="-44" font-family="Helvetica" font-size="10.00">gammln</text>
</a>
</g>
</g>
<!-- Node15&#45;&gt;Node16 -->
<g id="edge15_Node000015_Node000016" class="edge">
<title>Node15&#45;&gt;Node16</title>
<g id="a_edge15_Node000015_Node000016"><a xlink:title=" ">
<path fill="none" stroke="#63b8ff" d="M665.62,-62.02C673.63,-60.04 684.04,-57.47 694.07,-55"/>
<polygon fill="#63b8ff" stroke="#63b8ff" points="695,-58.37 703.87,-52.58 693.32,-51.58 695,-58.37"/>
</a>
</g>
</g>
<!-- Node17&#45;&gt;Node16 -->
<g id="edge17_Node000017_Node000016" class="edge">
<title>Node17&#45;&gt;Node16</title>
<g id="a_edge17_Node000017_Node000016"><a xlink:title=" ">
<path fill="none" stroke="#63b8ff" d="M668.21,-32.41C675.79,-34.18 685.06,-36.34 694.03,-38.44"/>
<polygon fill="#63b8ff" stroke="#63b8ff" points="693.39,-41.89 703.93,-40.76 694.99,-35.07 693.39,-41.89"/>
</a>
</g>
</g>
</g>
</svg>
