<?xml version="1.0" encoding="UTF-8" standalone="no"?>
<!DOCTYPE svg PUBLIC "-//W3C//DTD SVG 1.1//EN"
 "http://www.w3.org/Graphics/SVG/1.1/DTD/svg11.dtd">
<!-- Generated by graphviz version 2.44.0 (0)
 -->
<!-- Title: ViterbiLogNP_CHMM Pages: 1 -->
<svg width="646pt" height="138pt"
 viewBox="0.00 0.00 646.00 138.00" xmlns="http://www.w3.org/2000/svg" xmlns:xlink="http://www.w3.org/1999/xlink">
<g id="graph0" class="graph" transform="scale(1 1) rotate(0) translate(4 134)">
<title>ViterbiLogNP_CHMM</title>
<!-- Node1 -->
<g id="Node000001" class="node">
<title>Node1</title>
<g id="a_Node000001"><a xlink:title="Viterbi algorithm.">
<polygon fill="#999999" stroke="#666666" points="111,-74 0,-74 0,-55 111,-55 111,-74"/>
<text text-anchor="middle" x="55.5" y="-62" font-family="Helvetica" font-size="10.00">ViterbiLogNP_CHMM</text>
</a>
</g>
</g>
<!-- Node2 -->
<g id="Node000002" class="node">
<title>Node2</title>
<g id="a_Node000002"><a xlink:href="khmm_8cpp.html#a02dc04d07f642f9756939ef10af76319" target="_top" xlink:title="O1 emission probability.">
<polygon fill="white" stroke="#666666" points="201.5,-130 163.5,-130 163.5,-111 201.5,-111 201.5,-130"/>
<text text-anchor="middle" x="182.5" y="-118" font-family="Helvetica" font-size="10.00">b1iot</text>
</a>
</g>
</g>
<!-- Node1&#45;&gt;Node2 -->
<g id="edge1_Node000001_Node000002" class="edge">
<title>Node1&#45;&gt;Node2</title>
<g id="a_edge1_Node000001_Node000002"><a xlink:title=" ">
<path fill="none" stroke="#63b8ff" d="M77.99,-74.13C99,-83.54 131.08,-97.91 153.96,-108.16"/>
<polygon fill="#63b8ff" stroke="#63b8ff" points="152.58,-111.38 163.14,-112.27 155.44,-104.99 152.58,-111.38"/>
</a>
</g>
</g>
<!-- Node5 -->
<g id="Node000005" class="node">
<title>Node5</title>
<g id="a_Node000005"><a xlink:href="khmm_8cpp.html#a652a672a2d4cba451fe4f5a0af94d977" target="_top" xlink:title="O2 emission probability.">
<polygon fill="white" stroke="#666666" points="201.5,-93 163.5,-93 163.5,-74 201.5,-74 201.5,-93"/>
<text text-anchor="middle" x="182.5" y="-81" font-family="Helvetica" font-size="10.00">b2iot</text>
</a>
</g>
</g>
<!-- Node1&#45;&gt;Node5 -->
<g id="edge4_Node000001_Node000005" class="edge">
<title>Node1&#45;&gt;Node5</title>
<g id="a_edge4_Node000001_Node000005"><a xlink:title=" ">
<path fill="none" stroke="#63b8ff" d="M111.33,-72.83C125.74,-75.02 140.7,-77.3 153.08,-79.18"/>
<polygon fill="#63b8ff" stroke="#63b8ff" points="152.82,-82.68 163.23,-80.72 153.87,-75.76 152.82,-82.68"/>
</a>
</g>
</g>
<!-- Node12 -->
<g id="Node000012" class="node">
<title>Node12</title>
<g id="a_Node000012"><a xlink:href="kc_8cpp.html#ab1a02a50dfbc26318f6bb296731b6f3a" target="_top" xlink:title=" ">
<polygon fill="white" stroke="#666666" points="207,-56 158,-56 158,-37 207,-37 207,-56"/>
<text text-anchor="middle" x="182.5" y="-44" font-family="Helvetica" font-size="10.00">dmatrix</text>
</a>
</g>
</g>
<!-- Node1&#45;&gt;Node12 -->
<g id="edge14_Node000001_Node000012" class="edge">
<title>Node1&#45;&gt;Node12</title>
<g id="a_edge14_Node000001_Node000012"><a xlink:title=" ">
<path fill="none" stroke="#63b8ff" d="M111.33,-56.6C123.66,-54.83 136.39,-53 147.57,-51.39"/>
<polygon fill="#63b8ff" stroke="#63b8ff" points="148.35,-54.81 157.74,-49.92 147.35,-47.88 148.35,-54.81"/>
</a>
</g>
</g>
<!-- Node13 -->
<g id="Node000013" class="node">
<title>Node13</title>
<g id="a_Node000013"><a xlink:href="kc_8cpp.html#a04fbc9bc53e6303830eb4338bc1f3259" target="_top" xlink:title=" ">
<polygon fill="white" stroke="#666666" points="218,-19 147,-19 147,0 218,0 218,-19"/>
<text text-anchor="middle" x="182.5" y="-7" font-family="Helvetica" font-size="10.00">free_dmatrix</text>
</a>
</g>
</g>
<!-- Node1&#45;&gt;Node13 -->
<g id="edge15_Node000001_Node000013" class="edge">
<title>Node1&#45;&gt;Node13</title>
<g id="a_edge15_Node000001_Node000013"><a xlink:title=" ">
<path fill="none" stroke="#63b8ff" d="M78.27,-54.92C98.14,-46.18 127.72,-33.16 150.13,-23.3"/>
<polygon fill="#63b8ff" stroke="#63b8ff" points="151.81,-26.39 159.56,-19.16 148.99,-19.98 151.81,-26.39"/>
</a>
</g>
</g>
<!-- Node3 -->
<g id="Node000003" class="node">
<title>Node3</title>
<g id="a_Node000003"><a xlink:href="kc_8cpp.html#ab01d6eb051febfe28b8ac2987dcfe524" target="_top" xlink:title=" ">
<polygon fill="white" stroke="#666666" points="307,-93 266,-93 266,-74 307,-74 307,-93"/>
<text text-anchor="middle" x="286.5" y="-81" font-family="Helvetica" font-size="10.00">mean</text>
</a>
</g>
</g>
<!-- Node2&#45;&gt;Node3 -->
<g id="edge2_Node000002_Node000003" class="edge">
<title>Node2&#45;&gt;Node3</title>
<g id="a_edge2_Node000002_Node000003"><a xlink:title=" ">
<path fill="none" stroke="#63b8ff" d="M201.74,-113.89C216.78,-108.43 238.41,-100.58 255.93,-94.23"/>
<polygon fill="#63b8ff" stroke="#63b8ff" points="257.47,-97.39 265.68,-90.69 255.09,-90.81 257.47,-97.39"/>
</a>
</g>
</g>
<!-- Node4 -->
<g id="Node000004" class="node">
<title>Node4</title>
<g id="a_Node000004"><a xlink:href="kc_8cpp.html#a2b0a97c4c082620572646f0324ea6fc7" target="_top" xlink:title=" ">
<polygon fill="white" stroke="#666666" points="319,-130 254,-130 254,-111 319,-111 319,-130"/>
<text text-anchor="middle" x="286.5" y="-118" font-family="Helvetica" font-size="10.00">pdf_normal</text>
</a>
</g>
</g>
<!-- Node2&#45;&gt;Node4 -->
<g id="edge3_Node000002_Node000004" class="edge">
<title>Node2&#45;&gt;Node4</title>
<g id="a_edge3_Node000002_Node000004"><a xlink:title=" ">
<path fill="none" stroke="#63b8ff" d="M201.74,-120.5C213.36,-120.5 228.91,-120.5 243.46,-120.5"/>
<polygon fill="#63b8ff" stroke="#63b8ff" points="243.81,-124 253.81,-120.5 243.81,-117 243.81,-124"/>
</a>
</g>
</g>
<!-- Node5&#45;&gt;Node3 -->
<g id="edge12_Node000005_Node000003" class="edge">
<title>Node5&#45;&gt;Node3</title>
<g id="a_edge12_Node000005_Node000003"><a xlink:title=" ">
<path fill="none" stroke="#63b8ff" d="M201.74,-83.5C216.64,-83.5 238.01,-83.5 255.43,-83.5"/>
<polygon fill="#63b8ff" stroke="#63b8ff" points="255.68,-87 265.68,-83.5 255.68,-80 255.68,-87"/>
</a>
</g>
</g>
<!-- Node5&#45;&gt;Node4 -->
<g id="edge13_Node000005_Node000004" class="edge">
<title>Node5&#45;&gt;Node4</title>
<g id="a_edge13_Node000005_Node000004"><a xlink:title=" ">
<path fill="none" stroke="#63b8ff" d="M201.74,-90.11C214.93,-94.9 233.19,-101.53 249.3,-107.37"/>
<polygon fill="#63b8ff" stroke="#63b8ff" points="248.39,-110.76 258.99,-110.88 250.78,-104.18 248.39,-110.76"/>
</a>
</g>
</g>
<!-- Node6 -->
<g id="Node000006" class="node">
<title>Node6</title>
<g id="a_Node000006"><a xlink:href="kc_8cpp.html#ad7f21bf6ad62e142c785825e00a546e3" target="_top" xlink:title=" ">
<polygon fill="white" stroke="#666666" points="319,-56 254,-56 254,-37 319,-37 319,-56"/>
<text text-anchor="middle" x="286.5" y="-44" font-family="Helvetica" font-size="10.00">cdf_normal</text>
</a>
</g>
</g>
<!-- Node5&#45;&gt;Node6 -->
<g id="edge5_Node000005_Node000006" class="edge">
<title>Node5&#45;&gt;Node6</title>
<g id="a_edge5_Node000005_Node000006"><a xlink:title=" ">
<path fill="none" stroke="#63b8ff" d="M201.74,-76.89C214.93,-72.1 233.19,-65.47 249.3,-59.63"/>
<polygon fill="#63b8ff" stroke="#63b8ff" points="250.78,-62.82 258.99,-56.12 248.39,-56.24 250.78,-62.82"/>
</a>
</g>
</g>
<!-- Node7 -->
<g id="Node000007" class="node">
<title>Node7</title>
<g id="a_Node000007"><a xlink:href="kc_8cpp.html#afafd5c993f50f8676e0a2095ce62c012" target="_top" xlink:title=" ">
<polygon fill="white" stroke="#666666" points="395,-56 355,-56 355,-37 395,-37 395,-56"/>
<text text-anchor="middle" x="375" y="-44" font-family="Helvetica" font-size="10.00">errorf</text>
</a>
</g>
</g>
<!-- Node6&#45;&gt;Node7 -->
<g id="edge6_Node000006_Node000007" class="edge">
<title>Node6&#45;&gt;Node7</title>
<g id="a_edge6_Node000006_Node000007"><a xlink:title=" ">
<path fill="none" stroke="#63b8ff" d="M319.22,-46.5C327.53,-46.5 336.46,-46.5 344.65,-46.5"/>
<polygon fill="#63b8ff" stroke="#63b8ff" points="344.86,-50 354.86,-46.5 344.86,-43 344.86,-50"/>
</a>
</g>
</g>
<!-- Node8 -->
<g id="Node000008" class="node">
<title>Node8</title>
<g id="a_Node000008"><a xlink:href="kc_8cpp.html#aa1745417f9696825bc7cc68538800b5b" target="_top" xlink:title=" ">
<polygon fill="white" stroke="#666666" points="480,-56 431,-56 431,-37 480,-37 480,-56"/>
<text text-anchor="middle" x="455.5" y="-44" font-family="Helvetica" font-size="10.00">gammp</text>
</a>
</g>
</g>
<!-- Node7&#45;&gt;Node8 -->
<g id="edge7_Node000007_Node000008" class="edge">
<title>Node7&#45;&gt;Node8</title>
<g id="a_edge7_Node000007_Node000008"><a xlink:title=" ">
<path fill="none" stroke="#63b8ff" d="M395,-46.5C402.76,-46.5 411.98,-46.5 420.81,-46.5"/>
<polygon fill="#63b8ff" stroke="#63b8ff" points="420.9,-50 430.9,-46.5 420.9,-43 420.9,-50"/>
</a>
</g>
</g>
<!-- Node9 -->
<g id="Node000009" class="node">
<title>Node9</title>
<g id="a_Node000009"><a xlink:href="kc_8cpp.html#a5b446e3e8ec13c8e2383ac156f0cf77f" target="_top" xlink:title=" ">
<polygon fill="white" stroke="#666666" points="548.5,-75 518.5,-75 518.5,-56 548.5,-56 548.5,-75"/>
<text text-anchor="middle" x="533.5" y="-63" font-family="Helvetica" font-size="10.00">gcf</text>
</a>
</g>
</g>
<!-- Node8&#45;&gt;Node9 -->
<g id="edge8_Node000008_Node000009" class="edge">
<title>Node8&#45;&gt;Node9</title>
<g id="a_edge8_Node000008_Node000009"><a xlink:title=" ">
<path fill="none" stroke="#63b8ff" d="M480.13,-52.41C489.15,-54.66 499.44,-57.23 508.49,-59.5"/>
<polygon fill="#63b8ff" stroke="#63b8ff" points="507.85,-62.95 518.41,-61.98 509.55,-56.16 507.85,-62.95"/>
</a>
</g>
</g>
<!-- Node11 -->
<g id="Node000011" class="node">
<title>Node11</title>
<g id="a_Node000011"><a xlink:href="kc_8cpp.html#a5277079b0c65d166db9553deb8a92de2" target="_top" xlink:title=" ">
<polygon fill="white" stroke="#666666" points="551,-38 516,-38 516,-19 551,-19 551,-38"/>
<text text-anchor="middle" x="533.5" y="-26" font-family="Helvetica" font-size="10.00">gser</text>
</a>
</g>
</g>
<!-- Node8&#45;&gt;Node11 -->
<g id="edge10_Node000008_Node000011" class="edge">
<title>Node8&#45;&gt;Node11</title>
<g id="a_edge10_Node000008_Node000011"><a xlink:title=" ">
<path fill="none" stroke="#63b8ff" d="M480.13,-40.9C488.22,-38.99 497.33,-36.83 505.65,-34.86"/>
<polygon fill="#63b8ff" stroke="#63b8ff" points="506.71,-38.2 515.64,-32.49 505.1,-31.39 506.71,-38.2"/>
</a>
</g>
</g>
<!-- Node10 -->
<g id="Node000010" class="node">
<title>Node10</title>
<g id="a_Node000010"><a xlink:href="kc_8cpp.html#a69cc1b545a83a4d9f187e131500aee45" target="_top" xlink:title=" ">
<polygon fill="white" stroke="#666666" points="638,-56 587,-56 587,-37 638,-37 638,-56"/>
<text text-anchor="middle" x="612.5" y="-44" font-family="Helvetica" font-size="10.00">gammln</text>
</a>
</g>
</g>
<!-- Node9&#45;&gt;Node10 -->
<g id="edge9_Node000009_Node000010" class="edge">
<title>Node9&#45;&gt;Node10</title>
<g id="a_edge9_Node000009_Node000010"><a xlink:title=" ">
<path fill="none" stroke="#63b8ff" d="M548.62,-62.02C556.63,-60.04 567.04,-57.47 577.07,-55"/>
<polygon fill="#63b8ff" stroke="#63b8ff" points="578,-58.37 586.87,-52.58 576.32,-51.58 578,-58.37"/>
</a>
</g>
</g>
<!-- Node11&#45;&gt;Node10 -->
<g id="edge11_Node000011_Node000010" class="edge">
<title>Node11&#45;&gt;Node10</title>
<g id="a_edge11_Node000011_Node000010"><a xlink:title=" ">
<path fill="none" stroke="#63b8ff" d="M551.21,-32.41C558.79,-34.18 568.06,-36.34 577.03,-38.44"/>
<polygon fill="#63b8ff" stroke="#63b8ff" points="576.39,-41.89 586.93,-40.76 577.99,-35.07 576.39,-41.89"/>
</a>
</g>
</g>
</g>
</svg>
