<?xml version="1.0" encoding="UTF-8" standalone="no"?>
<!DOCTYPE svg PUBLIC "-//W3C//DTD SVG 1.1//EN"
 "http://www.w3.org/Graphics/SVG/1.1/DTD/svg11.dtd">
<!-- Generated by graphviz version 2.44.0 (0)
 -->
<!-- Title: src/sv_data.cpp Pages: 1 -->
<svg width="152pt" height="137pt"
 viewBox="0.00 0.00 151.50 137.00" xmlns="http://www.w3.org/2000/svg" xmlns:xlink="http://www.w3.org/1999/xlink">
<g id="graph0" class="graph" transform="scale(1 1) rotate(0) translate(4 133)">
<title>src/sv_data.cpp</title>
<!-- Node1 -->
<g id="Node000001" class="node">
<title>Node1</title>
<g id="a_Node000001"><a xlink:title=" ">
<polygon fill="#999999" stroke="#666666" points="121,-129 35,-129 35,-110 121,-110 121,-129"/>
<text text-anchor="middle" x="78" y="-117" font-family="Helvetica" font-size="10.00">src/sv_data.cpp</text>
</a>
</g>
</g>
<!-- Node2 -->
<g id="Node000002" class="node">
<title>Node2</title>
<g id="a_Node000002"><a xlink:href="sv__data_8h.html" target="_top" xlink:title=" ">
<polygon fill="white" stroke="#666666" points="107.5,-74 48.5,-74 48.5,-55 107.5,-55 107.5,-74"/>
<text text-anchor="middle" x="78" y="-62" font-family="Helvetica" font-size="10.00">sv_data.h</text>
</a>
</g>
</g>
<!-- Node1&#45;&gt;Node2 -->
<g id="edge1_Node000001_Node000002" class="edge">
<title>Node1&#45;&gt;Node2</title>
<g id="a_edge1_Node000001_Node000002"><a xlink:title=" ">
<path fill="none" stroke="#63b8ff" d="M78,-109.75C78,-102.8 78,-92.85 78,-84.13"/>
<polygon fill="#63b8ff" stroke="#63b8ff" points="81.5,-84.09 78,-74.09 74.5,-84.09 81.5,-84.09"/>
</a>
</g>
</g>
<!-- Node3 -->
<g id="Node000003" class="node">
<title>Node3</title>
<g id="a_Node000003"><a xlink:href="fasta__query_8h.html" target="_top" xlink:title=" ">
<polygon fill="white" stroke="#666666" points="76,-19 0,-19 0,0 76,0 76,-19"/>
<text text-anchor="middle" x="38" y="-7" font-family="Helvetica" font-size="10.00">fasta_query.h</text>
</a>
</g>
</g>
<!-- Node2&#45;&gt;Node3 -->
<g id="edge2_Node000002_Node000003" class="edge">
<title>Node2&#45;&gt;Node3</title>
<g id="a_edge2_Node000002_Node000003"><a xlink:title=" ">
<path fill="none" stroke="#63b8ff" d="M71.39,-54.75C65.74,-47.26 57.46,-36.28 50.55,-27.13"/>
<polygon fill="#63b8ff" stroke="#63b8ff" points="53.3,-24.96 44.48,-19.09 47.71,-29.18 53.3,-24.96"/>
</a>
</g>
</g>
<!-- Node4 -->
<g id="Node000004" class="node">
<title>Node4</title>
<g id="a_Node000004"><a xlink:href="types_8h.html" target="_top" xlink:title=" ">
<polygon fill="white" stroke="#666666" points="143.5,-19 94.5,-19 94.5,0 143.5,0 143.5,-19"/>
<text text-anchor="middle" x="119" y="-7" font-family="Helvetica" font-size="10.00">types.h</text>
</a>
</g>
</g>
<!-- Node2&#45;&gt;Node4 -->
<g id="edge3_Node000002_Node000004" class="edge">
<title>Node2&#45;&gt;Node4</title>
<g id="a_edge3_Node000002_Node000004"><a xlink:title=" ">
<path fill="none" stroke="#63b8ff" d="M84.77,-54.75C90.56,-47.26 99.06,-36.28 106.14,-27.13"/>
<polygon fill="#63b8ff" stroke="#63b8ff" points="109.01,-29.14 112.36,-19.09 103.47,-24.86 109.01,-29.14"/>
</a>
</g>
</g>
</g>
</svg>
