<?xml version="1.0" encoding="UTF-8" standalone="no"?>
<!DOCTYPE svg PUBLIC "-//W3C//DTD SVG 1.1//EN"
 "http://www.w3.org/Graphics/SVG/1.1/DTD/svg11.dtd">
<!-- Generated by graphviz version 2.44.0 (0)
 -->
<!-- Title: include/sv_data.h Pages: 1 -->
<svg width="397pt" height="137pt"
 viewBox="0.00 0.00 397.00 137.00" xmlns="http://www.w3.org/2000/svg" xmlns:xlink="http://www.w3.org/1999/xlink">
<g id="graph0" class="graph" transform="scale(1 1) rotate(0) translate(4 133)">
<title>include/sv_data.h</title>
<!-- Node1 -->
<g id="Node000001" class="node">
<title>Node1</title>
<g id="a_Node000001"><a xlink:title=" ">
<polygon fill="#999999" stroke="#666666" points="282.5,-129 189.5,-129 189.5,-110 282.5,-110 282.5,-129"/>
<text text-anchor="middle" x="236" y="-117" font-family="Helvetica" font-size="10.00">include/sv_data.h</text>
</a>
</g>
</g>
<!-- Node2 -->
<g id="Node000002" class="node">
<title>Node2</title>
<g id="a_Node000002"><a xlink:href="contextsv_8h.html" target="_top" xlink:title=" ">
<polygon fill="white" stroke="#666666" points="168.5,-74 67.5,-74 67.5,-55 168.5,-55 168.5,-74"/>
<text text-anchor="middle" x="118" y="-62" font-family="Helvetica" font-size="10.00">include/contextsv.h</text>
</a>
</g>
</g>
<!-- Node1&#45;&gt;Node2 -->
<g id="edge1_Node000001_Node000002" class="edge">
<title>Node1&#45;&gt;Node2</title>
<g id="a_edge1_Node000001_Node000002"><a xlink:title=" ">
<path fill="none" stroke="#63b8ff" d="M207.65,-105.77C185.88,-95.99 156.41,-82.75 137.3,-74.17"/>
<polygon fill="#63b8ff" stroke="#63b8ff" points="206.49,-109.08 217.04,-109.98 209.35,-102.69 206.49,-109.08"/>
</a>
</g>
</g>
<!-- Node5 -->
<g id="Node000005" class="node">
<title>Node5</title>
<g id="a_Node000005"><a xlink:href="sv__caller_8h.html" target="_top" xlink:title=" ">
<polygon fill="white" stroke="#666666" points="285,-74 187,-74 187,-55 285,-55 285,-74"/>
<text text-anchor="middle" x="236" y="-62" font-family="Helvetica" font-size="10.00">include/sv_caller.h</text>
</a>
</g>
</g>
<!-- Node1&#45;&gt;Node5 -->
<g id="edge4_Node000001_Node000005" class="edge">
<title>Node1&#45;&gt;Node5</title>
<g id="a_edge4_Node000001_Node000005"><a xlink:title=" ">
<path fill="none" stroke="#63b8ff" d="M236,-99.66C236,-90.93 236,-80.99 236,-74.09"/>
<polygon fill="#63b8ff" stroke="#63b8ff" points="232.5,-99.75 236,-109.75 239.5,-99.75 232.5,-99.75"/>
</a>
</g>
</g>
<!-- Node7 -->
<g id="Node000007" class="node">
<title>Node7</title>
<g id="a_Node000007"><a xlink:href="sv__data_8cpp.html" target="_top" xlink:title=" ">
<polygon fill="white" stroke="#666666" points="389,-74 303,-74 303,-55 389,-55 389,-74"/>
<text text-anchor="middle" x="346" y="-62" font-family="Helvetica" font-size="10.00">src/sv_data.cpp</text>
</a>
</g>
</g>
<!-- Node1&#45;&gt;Node7 -->
<g id="edge7_Node000001_Node000007" class="edge">
<title>Node1&#45;&gt;Node7</title>
<g id="a_edge7_Node000001_Node000007"><a xlink:title=" ">
<path fill="none" stroke="#63b8ff" d="M262.7,-105.63C282.97,-95.87 310.27,-82.71 328.01,-74.17"/>
<polygon fill="#63b8ff" stroke="#63b8ff" points="261.16,-102.49 253.67,-109.98 264.2,-108.8 261.16,-102.49"/>
</a>
</g>
</g>
<!-- Node3 -->
<g id="Node000003" class="node">
<title>Node3</title>
<g id="a_Node000003"><a xlink:href="contextsv_8cpp.html" target="_top" xlink:title=" ">
<polygon fill="white" stroke="#666666" points="228,-19 134,-19 134,0 228,0 228,-19"/>
<text text-anchor="middle" x="181" y="-7" font-family="Helvetica" font-size="10.00">src/contextsv.cpp</text>
</a>
</g>
</g>
<!-- Node2&#45;&gt;Node3 -->
<g id="edge2_Node000002_Node000003" class="edge">
<title>Node2&#45;&gt;Node3</title>
<g id="a_edge2_Node000002_Node000003"><a xlink:title=" ">
<path fill="none" stroke="#63b8ff" d="M136.04,-48.32C147.27,-38.87 161.32,-27.06 170.69,-19.17"/>
<polygon fill="#63b8ff" stroke="#63b8ff" points="133.52,-45.87 128.12,-54.98 138.03,-51.23 133.52,-45.87"/>
</a>
</g>
</g>
<!-- Node4 -->
<g id="Node000004" class="node">
<title>Node4</title>
<g id="a_Node000004"><a xlink:href="swig__interface_8cpp.html" target="_top" xlink:title=" ">
<polygon fill="white" stroke="#666666" points="116,-19 0,-19 0,0 116,0 116,-19"/>
<text text-anchor="middle" x="58" y="-7" font-family="Helvetica" font-size="10.00">src/swig_interface.cpp</text>
</a>
</g>
</g>
<!-- Node2&#45;&gt;Node4 -->
<g id="edge3_Node000002_Node000004" class="edge">
<title>Node2&#45;&gt;Node4</title>
<g id="a_edge3_Node000002_Node000004"><a xlink:title=" ">
<path fill="none" stroke="#63b8ff" d="M100.82,-48.32C90.12,-38.87 76.74,-27.06 67.82,-19.17"/>
<polygon fill="#63b8ff" stroke="#63b8ff" points="98.55,-50.99 108.36,-54.98 103.18,-45.74 98.55,-50.99"/>
</a>
</g>
</g>
<!-- Node5&#45;&gt;Node3 -->
<g id="edge5_Node000005_Node000003" class="edge">
<title>Node5&#45;&gt;Node3</title>
<g id="a_edge5_Node000005_Node000003"><a xlink:title=" ">
<path fill="none" stroke="#63b8ff" d="M219.71,-47.8C209.96,-38.41 197.95,-26.83 189.91,-19.09"/>
<polygon fill="#63b8ff" stroke="#63b8ff" points="217.29,-50.33 226.92,-54.75 222.15,-45.29 217.29,-50.33"/>
</a>
</g>
</g>
<!-- Node6 -->
<g id="Node000006" class="node">
<title>Node6</title>
<g id="a_Node000006"><a xlink:href="sv__caller_8cpp.html" target="_top" xlink:title=" ">
<polygon fill="white" stroke="#666666" points="337.5,-19 246.5,-19 246.5,0 337.5,0 337.5,-19"/>
<text text-anchor="middle" x="292" y="-7" font-family="Helvetica" font-size="10.00">src/sv_caller.cpp</text>
</a>
</g>
</g>
<!-- Node5&#45;&gt;Node6 -->
<g id="edge6_Node000005_Node000006" class="edge">
<title>Node5&#45;&gt;Node6</title>
<g id="a_edge6_Node000005_Node000006"><a xlink:title=" ">
<path fill="none" stroke="#63b8ff" d="M252.33,-48.04C262.26,-38.64 274.59,-26.98 282.84,-19.17"/>
<polygon fill="#63b8ff" stroke="#63b8ff" points="249.85,-45.57 245,-54.98 254.67,-50.65 249.85,-45.57"/>
</a>
</g>
</g>
</g>
</svg>
