<?xml version="1.0" encoding="UTF-8" standalone="no"?>
<!DOCTYPE svg PUBLIC "-//W3C//DTD SVG 1.1//EN"
 "http://www.w3.org/Graphics/SVG/1.1/DTD/svg11.dtd">
<!-- Generated by graphviz version 2.44.0 (0)
 -->
<!-- Title: src/sv_caller.cpp Pages: 1 -->
<svg width="286pt" height="192pt"
 viewBox="0.00 0.00 286.00 192.00" xmlns="http://www.w3.org/2000/svg" xmlns:xlink="http://www.w3.org/1999/xlink">
<g id="graph0" class="graph" transform="scale(1 1) rotate(0) translate(4 188)">
<title>src/sv_caller.cpp</title>
<!-- Node1 -->
<g id="Node000001" class="node">
<title>Node1</title>
<g id="a_Node000001"><a xlink:title=" ">
<polygon fill="#999999" stroke="#666666" points="245.5,-184 154.5,-184 154.5,-165 245.5,-165 245.5,-184"/>
<text text-anchor="middle" x="200" y="-172" font-family="Helvetica" font-size="10.00">src/sv_caller.cpp</text>
</a>
</g>
</g>
<!-- Node2 -->
<g id="Node000002" class="node">
<title>Node2</title>
<g id="a_Node000002"><a xlink:href="sv__caller_8h.html" target="_top" xlink:title=" ">
<polygon fill="white" stroke="#666666" points="190,-129 126,-129 126,-110 190,-110 190,-129"/>
<text text-anchor="middle" x="158" y="-117" font-family="Helvetica" font-size="10.00">sv_caller.h</text>
</a>
</g>
</g>
<!-- Node1&#45;&gt;Node2 -->
<g id="edge1_Node000001_Node000002" class="edge">
<title>Node1&#45;&gt;Node2</title>
<g id="a_edge1_Node000001_Node000002"><a xlink:title=" ">
<path fill="none" stroke="#63b8ff" d="M193.06,-164.75C187.13,-157.26 178.43,-146.28 171.18,-137.13"/>
<polygon fill="#63b8ff" stroke="#63b8ff" points="173.76,-134.75 164.81,-129.09 168.27,-139.1 173.76,-134.75"/>
</a>
</g>
</g>
<!-- Node8 -->
<g id="Node000008" class="node">
<title>Node8</title>
<g id="a_Node000008"><a xlink:title=" ">
<polygon fill="#e0e0e0" stroke="#999999" points="278,-129 208,-129 208,-110 278,-110 278,-129"/>
<text text-anchor="middle" x="243" y="-117" font-family="Helvetica" font-size="10.00">htslib/sam.h</text>
</a>
</g>
</g>
<!-- Node1&#45;&gt;Node8 -->
<g id="edge10_Node000001_Node000008" class="edge">
<title>Node1&#45;&gt;Node8</title>
<g id="a_edge10_Node000001_Node000008"><a xlink:title=" ">
<path fill="none" stroke="#63b8ff" d="M207.1,-164.75C213.17,-157.26 222.09,-146.28 229.51,-137.13"/>
<polygon fill="#63b8ff" stroke="#63b8ff" points="232.45,-139.06 236.03,-129.09 227.01,-134.65 232.45,-139.06"/>
</a>
</g>
</g>
<!-- Node3 -->
<g id="Node000003" class="node">
<title>Node3</title>
<g id="a_Node000003"><a xlink:href="input__data_8h.html" target="_top" xlink:title=" ">
<polygon fill="white" stroke="#666666" points="70,-74 0,-74 0,-55 70,-55 70,-74"/>
<text text-anchor="middle" x="35" y="-62" font-family="Helvetica" font-size="10.00">input_data.h</text>
</a>
</g>
</g>
<!-- Node2&#45;&gt;Node3 -->
<g id="edge2_Node000002_Node000003" class="edge">
<title>Node2&#45;&gt;Node3</title>
<g id="a_edge2_Node000002_Node000003"><a xlink:title=" ">
<path fill="none" stroke="#63b8ff" d="M138.24,-109.98C118.27,-101.38 87.2,-87.99 64.35,-78.15"/>
<polygon fill="#63b8ff" stroke="#63b8ff" points="65.69,-74.91 55.12,-74.17 62.92,-81.34 65.69,-74.91"/>
</a>
</g>
</g>
<!-- Node5 -->
<g id="Node000005" class="node">
<title>Node5</title>
<g id="a_Node000005"><a xlink:href="cnv__data_8h.html" target="_top" xlink:title=" ">
<polygon fill="white" stroke="#666666" points="230.5,-74 165.5,-74 165.5,-55 230.5,-55 230.5,-74"/>
<text text-anchor="middle" x="198" y="-62" font-family="Helvetica" font-size="10.00">cnv_data.h</text>
</a>
</g>
</g>
<!-- Node2&#45;&gt;Node5 -->
<g id="edge4_Node000002_Node000005" class="edge">
<title>Node2&#45;&gt;Node5</title>
<g id="a_edge4_Node000002_Node000005"><a xlink:title=" ">
<path fill="none" stroke="#63b8ff" d="M164.61,-109.75C170.26,-102.26 178.54,-91.28 185.45,-82.13"/>
<polygon fill="#63b8ff" stroke="#63b8ff" points="188.29,-84.18 191.52,-74.09 182.7,-79.96 188.29,-84.18"/>
</a>
</g>
</g>
<!-- Node6 -->
<g id="Node000006" class="node">
<title>Node6</title>
<g id="a_Node000006"><a xlink:href="types_8h.html" target="_top" xlink:title=" ">
<polygon fill="white" stroke="#666666" points="222.5,-19 173.5,-19 173.5,0 222.5,0 222.5,-19"/>
<text text-anchor="middle" x="198" y="-7" font-family="Helvetica" font-size="10.00">types.h</text>
</a>
</g>
</g>
<!-- Node2&#45;&gt;Node6 -->
<g id="edge9_Node000002_Node000006" class="edge">
<title>Node2&#45;&gt;Node6</title>
<g id="a_edge9_Node000002_Node000006"><a xlink:title=" ">
<path fill="none" stroke="#63b8ff" d="M190.21,-109.92C208.25,-103.29 229.23,-92.09 240,-74 250.09,-57.04 234.12,-38.25 219.05,-25.55"/>
<polygon fill="#63b8ff" stroke="#63b8ff" points="220.97,-22.6 210.95,-19.17 216.64,-28.1 220.97,-22.6"/>
</a>
</g>
</g>
<!-- Node7 -->
<g id="Node000007" class="node">
<title>Node7</title>
<g id="a_Node000007"><a xlink:href="sv__data_8h.html" target="_top" xlink:title=" ">
<polygon fill="white" stroke="#666666" points="147.5,-74 88.5,-74 88.5,-55 147.5,-55 147.5,-74"/>
<text text-anchor="middle" x="118" y="-62" font-family="Helvetica" font-size="10.00">sv_data.h</text>
</a>
</g>
</g>
<!-- Node2&#45;&gt;Node7 -->
<g id="edge6_Node000002_Node000007" class="edge">
<title>Node2&#45;&gt;Node7</title>
<g id="a_edge6_Node000002_Node000007"><a xlink:title=" ">
<path fill="none" stroke="#63b8ff" d="M151.39,-109.75C145.74,-102.26 137.46,-91.28 130.55,-82.13"/>
<polygon fill="#63b8ff" stroke="#63b8ff" points="133.3,-79.96 124.48,-74.09 127.71,-84.18 133.3,-79.96"/>
</a>
</g>
</g>
<!-- Node4 -->
<g id="Node000004" class="node">
<title>Node4</title>
<g id="a_Node000004"><a xlink:href="fasta__query_8h.html" target="_top" xlink:title=" ">
<polygon fill="white" stroke="#666666" points="114,-19 38,-19 38,0 114,0 114,-19"/>
<text text-anchor="middle" x="76" y="-7" font-family="Helvetica" font-size="10.00">fasta_query.h</text>
</a>
</g>
</g>
<!-- Node3&#45;&gt;Node4 -->
<g id="edge3_Node000003_Node000004" class="edge">
<title>Node3&#45;&gt;Node4</title>
<g id="a_edge3_Node000003_Node000004"><a xlink:title=" ">
<path fill="none" stroke="#63b8ff" d="M41.77,-54.75C47.56,-47.26 56.06,-36.28 63.14,-27.13"/>
<polygon fill="#63b8ff" stroke="#63b8ff" points="66.01,-29.14 69.36,-19.09 60.47,-24.86 66.01,-29.14"/>
</a>
</g>
</g>
<!-- Node5&#45;&gt;Node6 -->
<g id="edge5_Node000005_Node000006" class="edge">
<title>Node5&#45;&gt;Node6</title>
<g id="a_edge5_Node000005_Node000006"><a xlink:title=" ">
<path fill="none" stroke="#63b8ff" d="M198,-54.75C198,-47.8 198,-37.85 198,-29.13"/>
<polygon fill="#63b8ff" stroke="#63b8ff" points="201.5,-29.09 198,-19.09 194.5,-29.09 201.5,-29.09"/>
</a>
</g>
</g>
<!-- Node7&#45;&gt;Node4 -->
<g id="edge7_Node000007_Node000004" class="edge">
<title>Node7&#45;&gt;Node4</title>
<g id="a_edge7_Node000007_Node000004"><a xlink:title=" ">
<path fill="none" stroke="#63b8ff" d="M111.06,-54.75C105.13,-47.26 96.43,-36.28 89.18,-27.13"/>
<polygon fill="#63b8ff" stroke="#63b8ff" points="91.76,-24.75 82.81,-19.09 86.27,-29.1 91.76,-24.75"/>
</a>
</g>
</g>
<!-- Node7&#45;&gt;Node6 -->
<g id="edge8_Node000007_Node000006" class="edge">
<title>Node7&#45;&gt;Node6</title>
<g id="a_edge8_Node000007_Node000006"><a xlink:title=" ">
<path fill="none" stroke="#63b8ff" d="M130.85,-54.98C143.14,-46.84 161.91,-34.41 176.48,-24.76"/>
<polygon fill="#63b8ff" stroke="#63b8ff" points="178.51,-27.61 184.91,-19.17 174.64,-21.78 178.51,-27.61"/>
</a>
</g>
</g>
</g>
</svg>
