<?xml version="1.0" encoding="UTF-8" standalone="no"?>
<!DOCTYPE svg PUBLIC "-//W3C//DTD SVG 1.1//EN"
 "http://www.w3.org/Graphics/SVG/1.1/DTD/svg11.dtd">
<!-- Generated by graphviz version 2.44.0 (0)
 -->
<!-- Title: src/swig_interface.cpp Pages: 1 -->
<svg width="254pt" height="192pt"
 viewBox="0.00 0.00 254.00 192.00" xmlns="http://www.w3.org/2000/svg" xmlns:xlink="http://www.w3.org/1999/xlink">
<g id="graph0" class="graph" transform="scale(1 1) rotate(0) translate(4 188)">
<title>src/swig_interface.cpp</title>
<!-- Node1 -->
<g id="Node000001" class="node">
<title>Node1</title>
<g id="a_Node000001"><a xlink:title=" ">
<polygon fill="#999999" stroke="#666666" points="150.5,-184 34.5,-184 34.5,-165 150.5,-165 150.5,-184"/>
<text text-anchor="middle" x="92.5" y="-172" font-family="Helvetica" font-size="10.00">src/swig_interface.cpp</text>
</a>
</g>
</g>
<!-- Node2 -->
<g id="Node000002" class="node">
<title>Node2</title>
<g id="a_Node000002"><a xlink:href="swig__interface_8h.html" target="_top" xlink:title=" ">
<polygon fill="white" stroke="#666666" points="89,-129 0,-129 0,-110 89,-110 89,-129"/>
<text text-anchor="middle" x="44.5" y="-117" font-family="Helvetica" font-size="10.00">swig_interface.h</text>
</a>
</g>
</g>
<!-- Node1&#45;&gt;Node2 -->
<g id="edge1_Node000001_Node000002" class="edge">
<title>Node1&#45;&gt;Node2</title>
<g id="a_edge1_Node000001_Node000002"><a xlink:title=" ">
<path fill="none" stroke="#63b8ff" d="M84.57,-164.75C77.65,-157.11 67.43,-145.82 59.05,-136.56"/>
<polygon fill="#63b8ff" stroke="#63b8ff" points="61.59,-134.15 52.28,-129.09 56.4,-138.85 61.59,-134.15"/>
</a>
</g>
</g>
<!-- Node5 -->
<g id="Node000005" class="node">
<title>Node5</title>
<g id="a_Node000005"><a xlink:href="contextsv_8h.html" target="_top" xlink:title=" ">
<polygon fill="white" stroke="#666666" points="174,-129 107,-129 107,-110 174,-110 174,-129"/>
<text text-anchor="middle" x="140.5" y="-117" font-family="Helvetica" font-size="10.00">contextsv.h</text>
</a>
</g>
</g>
<!-- Node1&#45;&gt;Node5 -->
<g id="edge4_Node000001_Node000005" class="edge">
<title>Node1&#45;&gt;Node5</title>
<g id="a_edge4_Node000001_Node000005"><a xlink:title=" ">
<path fill="none" stroke="#63b8ff" d="M100.43,-164.75C107.35,-157.11 117.57,-145.82 125.95,-136.56"/>
<polygon fill="#63b8ff" stroke="#63b8ff" points="128.6,-138.85 132.72,-129.09 123.41,-134.15 128.6,-138.85"/>
</a>
</g>
</g>
<!-- Node3 -->
<g id="Node000003" class="node">
<title>Node3</title>
<g id="a_Node000003"><a xlink:href="input__data_8h.html" target="_top" xlink:title=" ">
<polygon fill="white" stroke="#666666" points="85.5,-74 15.5,-74 15.5,-55 85.5,-55 85.5,-74"/>
<text text-anchor="middle" x="50.5" y="-62" font-family="Helvetica" font-size="10.00">input_data.h</text>
</a>
</g>
</g>
<!-- Node2&#45;&gt;Node3 -->
<g id="edge2_Node000002_Node000003" class="edge">
<title>Node2&#45;&gt;Node3</title>
<g id="a_edge2_Node000002_Node000003"><a xlink:title=" ">
<path fill="none" stroke="#63b8ff" d="M45.49,-109.75C46.28,-102.8 47.4,-92.85 48.39,-84.13"/>
<polygon fill="#63b8ff" stroke="#63b8ff" points="51.88,-84.42 49.53,-74.09 44.92,-83.63 51.88,-84.42"/>
</a>
</g>
</g>
<!-- Node4 -->
<g id="Node000004" class="node">
<title>Node4</title>
<g id="a_Node000004"><a xlink:href="fasta__query_8h.html" target="_top" xlink:title=" ">
<polygon fill="white" stroke="#666666" points="129.5,-19 53.5,-19 53.5,0 129.5,0 129.5,-19"/>
<text text-anchor="middle" x="91.5" y="-7" font-family="Helvetica" font-size="10.00">fasta_query.h</text>
</a>
</g>
</g>
<!-- Node3&#45;&gt;Node4 -->
<g id="edge3_Node000003_Node000004" class="edge">
<title>Node3&#45;&gt;Node4</title>
<g id="a_edge3_Node000003_Node000004"><a xlink:title=" ">
<path fill="none" stroke="#63b8ff" d="M57.27,-54.75C63.06,-47.26 71.56,-36.28 78.64,-27.13"/>
<polygon fill="#63b8ff" stroke="#63b8ff" points="81.51,-29.14 84.86,-19.09 75.97,-24.86 81.51,-29.14"/>
</a>
</g>
</g>
<!-- Node5&#45;&gt;Node3 -->
<g id="edge5_Node000005_Node000003" class="edge">
<title>Node5&#45;&gt;Node3</title>
<g id="a_edge5_Node000005_Node000003"><a xlink:title=" ">
<path fill="none" stroke="#63b8ff" d="M126.04,-109.98C112.08,-101.77 90.71,-89.18 74.25,-79.49"/>
<polygon fill="#63b8ff" stroke="#63b8ff" points="75.62,-76.23 65.22,-74.17 72.06,-82.26 75.62,-76.23"/>
</a>
</g>
</g>
<!-- Node6 -->
<g id="Node000006" class="node">
<title>Node6</title>
<g id="a_Node000006"><a xlink:href="cnv__data_8h.html" target="_top" xlink:title=" ">
<polygon fill="white" stroke="#666666" points="246,-74 181,-74 181,-55 246,-55 246,-74"/>
<text text-anchor="middle" x="213.5" y="-62" font-family="Helvetica" font-size="10.00">cnv_data.h</text>
</a>
</g>
</g>
<!-- Node5&#45;&gt;Node6 -->
<g id="edge6_Node000005_Node000006" class="edge">
<title>Node5&#45;&gt;Node6</title>
<g id="a_edge6_Node000005_Node000006"><a xlink:title=" ">
<path fill="none" stroke="#63b8ff" d="M152.23,-109.98C163.23,-102 179.92,-89.88 193.1,-80.31"/>
<polygon fill="#63b8ff" stroke="#63b8ff" points="195.52,-82.88 201.56,-74.17 191.41,-77.21 195.52,-82.88"/>
</a>
</g>
</g>
<!-- Node8 -->
<g id="Node000008" class="node">
<title>Node8</title>
<g id="a_Node000008"><a xlink:href="sv__data_8h.html" target="_top" xlink:title=" ">
<polygon fill="white" stroke="#666666" points="163,-74 104,-74 104,-55 163,-55 163,-74"/>
<text text-anchor="middle" x="133.5" y="-62" font-family="Helvetica" font-size="10.00">sv_data.h</text>
</a>
</g>
</g>
<!-- Node5&#45;&gt;Node8 -->
<g id="edge8_Node000005_Node000008" class="edge">
<title>Node5&#45;&gt;Node8</title>
<g id="a_edge8_Node000005_Node000008"><a xlink:title=" ">
<path fill="none" stroke="#63b8ff" d="M139.34,-109.75C138.43,-102.8 137.11,-92.85 135.96,-84.13"/>
<polygon fill="#63b8ff" stroke="#63b8ff" points="139.41,-83.54 134.63,-74.09 132.47,-84.46 139.41,-83.54"/>
</a>
</g>
</g>
<!-- Node7 -->
<g id="Node000007" class="node">
<title>Node7</title>
<g id="a_Node000007"><a xlink:href="types_8h.html" target="_top" xlink:title=" ">
<polygon fill="white" stroke="#666666" points="198,-19 149,-19 149,0 198,0 198,-19"/>
<text text-anchor="middle" x="173.5" y="-7" font-family="Helvetica" font-size="10.00">types.h</text>
</a>
</g>
</g>
<!-- Node6&#45;&gt;Node7 -->
<g id="edge7_Node000006_Node000007" class="edge">
<title>Node6&#45;&gt;Node7</title>
<g id="a_edge7_Node000006_Node000007"><a xlink:title=" ">
<path fill="none" stroke="#63b8ff" d="M206.89,-54.75C201.24,-47.26 192.96,-36.28 186.05,-27.13"/>
<polygon fill="#63b8ff" stroke="#63b8ff" points="188.8,-24.96 179.98,-19.09 183.21,-29.18 188.8,-24.96"/>
</a>
</g>
</g>
<!-- Node8&#45;&gt;Node4 -->
<g id="edge9_Node000008_Node000004" class="edge">
<title>Node8&#45;&gt;Node4</title>
<g id="a_edge9_Node000008_Node000004"><a xlink:title=" ">
<path fill="none" stroke="#63b8ff" d="M126.56,-54.75C120.63,-47.26 111.93,-36.28 104.68,-27.13"/>
<polygon fill="#63b8ff" stroke="#63b8ff" points="107.26,-24.75 98.31,-19.09 101.77,-29.1 107.26,-24.75"/>
</a>
</g>
</g>
<!-- Node8&#45;&gt;Node7 -->
<g id="edge10_Node000008_Node000007" class="edge">
<title>Node8&#45;&gt;Node7</title>
<g id="a_edge10_Node000008_Node000007"><a xlink:title=" ">
<path fill="none" stroke="#63b8ff" d="M140.11,-54.75C145.76,-47.26 154.04,-36.28 160.95,-27.13"/>
<polygon fill="#63b8ff" stroke="#63b8ff" points="163.79,-29.18 167.02,-19.09 158.2,-24.96 163.79,-29.18"/>
</a>
</g>
</g>
</g>
</svg>
