<?xml version="1.0" encoding="UTF-8" standalone="no"?>
<!DOCTYPE svg PUBLIC "-//W3C//DTD SVG 1.1//EN"
 "http://www.w3.org/Graphics/SVG/1.1/DTD/svg11.dtd">
<!-- Generated by graphviz version 2.44.0 (0)
 -->
<!-- Title: include/types.h Pages: 1 -->
<svg width="564pt" height="192pt"
 viewBox="0.00 0.00 563.50 192.00" xmlns="http://www.w3.org/2000/svg" xmlns:xlink="http://www.w3.org/1999/xlink">
<g id="graph0" class="graph" transform="scale(1 1) rotate(0) translate(4 188)">
<title>include/types.h</title>
<!-- Node1 -->
<g id="Node000001" class="node">
<title>Node1</title>
<g id="a_Node000001"><a xlink:title=" ">
<polygon fill="#999999" stroke="#666666" points="436.5,-184 353.5,-184 353.5,-165 436.5,-165 436.5,-184"/>
<text text-anchor="middle" x="395" y="-172" font-family="Helvetica" font-size="10.00">include/types.h</text>
</a>
</g>
</g>
<!-- Node2 -->
<g id="Node000002" class="node">
<title>Node2</title>
<g id="a_Node000002"><a xlink:href="cnv__data_8h.html" target="_top" xlink:title=" ">
<polygon fill="white" stroke="#666666" points="330,-129 232,-129 232,-110 330,-110 330,-129"/>
<text text-anchor="middle" x="281" y="-117" font-family="Helvetica" font-size="10.00">include/cnv_data.h</text>
</a>
</g>
</g>
<!-- Node1&#45;&gt;Node2 -->
<g id="edge1_Node000001_Node000002" class="edge">
<title>Node1&#45;&gt;Node2</title>
<g id="a_edge1_Node000001_Node000002"><a xlink:title=" ">
<path fill="none" stroke="#63b8ff" d="M367.61,-160.77C346.58,-150.99 318.11,-137.75 299.65,-129.17"/>
<polygon fill="#63b8ff" stroke="#63b8ff" points="366.14,-163.94 376.68,-164.98 369.09,-157.6 366.14,-163.94"/>
</a>
</g>
</g>
<!-- Node8 -->
<g id="Node000008" class="node">
<title>Node8</title>
<g id="a_Node000008"><a xlink:href="sv__caller_8h.html" target="_top" xlink:title=" ">
<polygon fill="white" stroke="#666666" points="553,-74 455,-74 455,-55 553,-55 553,-74"/>
<text text-anchor="middle" x="504" y="-62" font-family="Helvetica" font-size="10.00">include/sv_caller.h</text>
</a>
</g>
</g>
<!-- Node1&#45;&gt;Node8 -->
<g id="edge12_Node000001_Node000008" class="edge">
<title>Node1&#45;&gt;Node8</title>
<g id="a_edge12_Node000001_Node000008"><a xlink:title=" ">
<path fill="none" stroke="#63b8ff" d="M414.92,-158.83C425.71,-150.53 439.04,-139.69 450,-129 468.64,-110.81 487.77,-86.8 497.48,-74.16"/>
<polygon fill="#63b8ff" stroke="#63b8ff" points="412.77,-156.06 406.9,-164.89 416.99,-161.65 412.77,-156.06"/>
</a>
</g>
</g>
<!-- Node11 -->
<g id="Node000011" class="node">
<title>Node11</title>
<g id="a_Node000011"><a xlink:href="sv__data_8h.html" target="_top" xlink:title=" ">
<polygon fill="white" stroke="#666666" points="441.5,-129 348.5,-129 348.5,-110 441.5,-110 441.5,-129"/>
<text text-anchor="middle" x="395" y="-117" font-family="Helvetica" font-size="10.00">include/sv_data.h</text>
</a>
</g>
</g>
<!-- Node1&#45;&gt;Node11 -->
<g id="edge13_Node000001_Node000011" class="edge">
<title>Node1&#45;&gt;Node11</title>
<g id="a_edge13_Node000001_Node000011"><a xlink:title=" ">
<path fill="none" stroke="#63b8ff" d="M395,-154.66C395,-145.93 395,-135.99 395,-129.09"/>
<polygon fill="#63b8ff" stroke="#63b8ff" points="391.5,-154.75 395,-164.75 398.5,-154.75 391.5,-154.75"/>
</a>
</g>
</g>
<!-- Node3 -->
<g id="Node000003" class="node">
<title>Node3</title>
<g id="a_Node000003"><a xlink:href="cnv__caller_8h.html" target="_top" xlink:title=" ">
<polygon fill="white" stroke="#666666" points="213.5,-74 110.5,-74 110.5,-55 213.5,-55 213.5,-74"/>
<text text-anchor="middle" x="162" y="-62" font-family="Helvetica" font-size="10.00">include/cnv_caller.h</text>
</a>
</g>
</g>
<!-- Node2&#45;&gt;Node3 -->
<g id="edge2_Node000002_Node000003" class="edge">
<title>Node2&#45;&gt;Node3</title>
<g id="a_edge2_Node000002_Node000003"><a xlink:title=" ">
<path fill="none" stroke="#63b8ff" d="M252.7,-105.9C230.72,-96.11 200.82,-82.79 181.47,-74.17"/>
<polygon fill="#63b8ff" stroke="#63b8ff" points="251.32,-109.11 261.88,-109.98 254.17,-102.72 251.32,-109.11"/>
</a>
</g>
</g>
<!-- Node6 -->
<g id="Node000006" class="node">
<title>Node6</title>
<g id="a_Node000006"><a xlink:href="contextsv_8h.html" target="_top" xlink:title=" ">
<polygon fill="white" stroke="#666666" points="332.5,-74 231.5,-74 231.5,-55 332.5,-55 332.5,-74"/>
<text text-anchor="middle" x="282" y="-62" font-family="Helvetica" font-size="10.00">include/contextsv.h</text>
</a>
</g>
</g>
<!-- Node2&#45;&gt;Node6 -->
<g id="edge5_Node000002_Node000006" class="edge">
<title>Node2&#45;&gt;Node6</title>
<g id="a_edge5_Node000002_Node000006"><a xlink:title=" ">
<path fill="none" stroke="#63b8ff" d="M281.36,-99.66C281.52,-90.93 281.71,-80.99 281.84,-74.09"/>
<polygon fill="#63b8ff" stroke="#63b8ff" points="277.85,-99.68 281.17,-109.75 284.85,-99.82 277.85,-99.68"/>
</a>
</g>
</g>
<!-- Node2&#45;&gt;Node8 -->
<g id="edge8_Node000002_Node000008" class="edge">
<title>Node2&#45;&gt;Node8</title>
<g id="a_edge8_Node000002_Node000008"><a xlink:title=" ">
<path fill="none" stroke="#63b8ff" d="M326.75,-107.63C368.52,-97.7 429.45,-83.22 467.89,-74.08"/>
<polygon fill="#63b8ff" stroke="#63b8ff" points="325.75,-104.27 316.83,-109.98 327.37,-111.08 325.75,-104.27"/>
</a>
</g>
</g>
<!-- Node10 -->
<g id="Node000010" class="node">
<title>Node10</title>
<g id="a_Node000010"><a xlink:href="cnv__data_8cpp.html" target="_top" xlink:title=" ">
<polygon fill="white" stroke="#666666" points="92,-74 0,-74 0,-55 92,-55 92,-74"/>
<text text-anchor="middle" x="46" y="-62" font-family="Helvetica" font-size="10.00">src/cnv_data.cpp</text>
</a>
</g>
</g>
<!-- Node2&#45;&gt;Node10 -->
<g id="edge11_Node000002_Node000010" class="edge">
<title>Node2&#45;&gt;Node10</title>
<g id="a_edge11_Node000002_Node000010"><a xlink:title=" ">
<path fill="none" stroke="#63b8ff" d="M233.35,-107.75C189.31,-97.82 124.73,-83.26 84.05,-74.08"/>
<polygon fill="#63b8ff" stroke="#63b8ff" points="232.72,-111.2 243.24,-109.98 234.26,-104.37 232.72,-111.2"/>
</a>
</g>
</g>
<!-- Node4 -->
<g id="Node000004" class="node">
<title>Node4</title>
<g id="a_Node000004"><a xlink:href="cnv__caller_8cpp.html" target="_top" xlink:title=" ">
<polygon fill="white" stroke="#666666" points="200,-19 104,-19 104,0 200,0 200,-19"/>
<text text-anchor="middle" x="152" y="-7" font-family="Helvetica" font-size="10.00">src/cnv_caller.cpp</text>
</a>
</g>
</g>
<!-- Node3&#45;&gt;Node4 -->
<g id="edge3_Node000003_Node000004" class="edge">
<title>Node3&#45;&gt;Node4</title>
<g id="a_edge3_Node000003_Node000004"><a xlink:title=" ">
<path fill="none" stroke="#63b8ff" d="M158.45,-44.66C156.8,-35.93 154.92,-25.99 153.62,-19.09"/>
<polygon fill="#63b8ff" stroke="#63b8ff" points="155.06,-45.57 160.35,-54.75 161.93,-44.27 155.06,-45.57"/>
</a>
</g>
</g>
<!-- Node5 -->
<g id="Node000005" class="node">
<title>Node5</title>
<g id="a_Node000005"><a xlink:href="contextsv_8cpp.html" target="_top" xlink:title=" ">
<polygon fill="white" stroke="#666666" points="446,-19 352,-19 352,0 446,0 446,-19"/>
<text text-anchor="middle" x="399" y="-7" font-family="Helvetica" font-size="10.00">src/contextsv.cpp</text>
</a>
</g>
</g>
<!-- Node3&#45;&gt;Node5 -->
<g id="edge4_Node000003_Node000005" class="edge">
<title>Node3&#45;&gt;Node5</title>
<g id="a_edge4_Node000003_Node000005"><a xlink:title=" ">
<path fill="none" stroke="#63b8ff" d="M210.06,-52.75C254.47,-42.82 319.6,-28.26 360.62,-19.08"/>
<polygon fill="#63b8ff" stroke="#63b8ff" points="209.07,-49.39 200.08,-54.98 210.6,-56.22 209.07,-49.39"/>
</a>
</g>
</g>
<!-- Node6&#45;&gt;Node5 -->
<g id="edge6_Node000006_Node000005" class="edge">
<title>Node6&#45;&gt;Node5</title>
<g id="a_edge6_Node000006_Node000005"><a xlink:title=" ">
<path fill="none" stroke="#63b8ff" d="M310.11,-50.77C331.69,-40.99 360.91,-27.75 379.86,-19.17"/>
<polygon fill="#63b8ff" stroke="#63b8ff" points="308.46,-47.67 300.8,-54.98 311.35,-54.05 308.46,-47.67"/>
</a>
</g>
</g>
<!-- Node7 -->
<g id="Node000007" class="node">
<title>Node7</title>
<g id="a_Node000007"><a xlink:href="swig__interface_8cpp.html" target="_top" xlink:title=" ">
<polygon fill="white" stroke="#666666" points="334,-19 218,-19 218,0 334,0 334,-19"/>
<text text-anchor="middle" x="276" y="-7" font-family="Helvetica" font-size="10.00">src/swig_interface.cpp</text>
</a>
</g>
</g>
<!-- Node6&#45;&gt;Node7 -->
<g id="edge7_Node000006_Node000007" class="edge">
<title>Node6&#45;&gt;Node7</title>
<g id="a_edge7_Node000006_Node000007"><a xlink:title=" ">
<path fill="none" stroke="#63b8ff" d="M279.87,-44.66C278.88,-35.93 277.75,-25.99 276.97,-19.09"/>
<polygon fill="#63b8ff" stroke="#63b8ff" points="276.41,-45.21 281.01,-54.75 283.36,-44.42 276.41,-45.21"/>
</a>
</g>
</g>
<!-- Node8&#45;&gt;Node5 -->
<g id="edge9_Node000008_Node000005" class="edge">
<title>Node8&#45;&gt;Node5</title>
<g id="a_edge9_Node000008_Node000005"><a xlink:title=" ">
<path fill="none" stroke="#63b8ff" d="M477.98,-50.37C458.7,-40.63 432.95,-27.64 416.18,-19.17"/>
<polygon fill="#63b8ff" stroke="#63b8ff" points="476.63,-53.6 487.13,-54.98 479.78,-47.35 476.63,-53.6"/>
</a>
</g>
</g>
<!-- Node9 -->
<g id="Node000009" class="node">
<title>Node9</title>
<g id="a_Node000009"><a xlink:href="sv__caller_8cpp.html" target="_top" xlink:title=" ">
<polygon fill="white" stroke="#666666" points="555.5,-19 464.5,-19 464.5,0 555.5,0 555.5,-19"/>
<text text-anchor="middle" x="510" y="-7" font-family="Helvetica" font-size="10.00">src/sv_caller.cpp</text>
</a>
</g>
</g>
<!-- Node8&#45;&gt;Node9 -->
<g id="edge10_Node000008_Node000009" class="edge">
<title>Node8&#45;&gt;Node9</title>
<g id="a_edge10_Node000008_Node000009"><a xlink:title=" ">
<path fill="none" stroke="#63b8ff" d="M506.13,-44.66C507.12,-35.93 508.25,-25.99 509.03,-19.09"/>
<polygon fill="#63b8ff" stroke="#63b8ff" points="502.64,-44.42 504.99,-54.75 509.59,-45.21 502.64,-44.42"/>
</a>
</g>
</g>
<!-- Node11&#45;&gt;Node6 -->
<g id="edge14_Node000011_Node000006" class="edge">
<title>Node11&#45;&gt;Node6</title>
<g id="a_edge14_Node000011_Node000006"><a xlink:title=" ">
<path fill="none" stroke="#63b8ff" d="M367.57,-105.63C346.75,-95.87 318.7,-82.71 300.49,-74.17"/>
<polygon fill="#63b8ff" stroke="#63b8ff" points="366.3,-108.91 376.84,-109.98 369.28,-102.57 366.3,-108.91"/>
</a>
</g>
</g>
<!-- Node11&#45;&gt;Node8 -->
<g id="edge15_Node000011_Node000008" class="edge">
<title>Node11&#45;&gt;Node8</title>
<g id="a_edge15_Node000011_Node000008"><a xlink:title=" ">
<path fill="none" stroke="#63b8ff" d="M421.73,-105.5C441.79,-95.75 468.68,-82.68 486.17,-74.17"/>
<polygon fill="#63b8ff" stroke="#63b8ff" points="419.98,-102.46 412.51,-109.98 423.04,-108.76 419.98,-102.46"/>
</a>
</g>
</g>
<!-- Node12 -->
<g id="Node000012" class="node">
<title>Node12</title>
<g id="a_Node000012"><a xlink:href="sv__data_8cpp.html" target="_top" xlink:title=" ">
<polygon fill="white" stroke="#666666" points="437,-74 351,-74 351,-55 437,-55 437,-74"/>
<text text-anchor="middle" x="394" y="-62" font-family="Helvetica" font-size="10.00">src/sv_data.cpp</text>
</a>
</g>
</g>
<!-- Node11&#45;&gt;Node12 -->
<g id="edge16_Node000011_Node000012" class="edge">
<title>Node11&#45;&gt;Node12</title>
<g id="a_edge16_Node000011_Node000012"><a xlink:title=" ">
<path fill="none" stroke="#63b8ff" d="M394.64,-99.66C394.48,-90.93 394.29,-80.99 394.16,-74.09"/>
<polygon fill="#63b8ff" stroke="#63b8ff" points="391.15,-99.82 394.83,-109.75 398.15,-99.68 391.15,-99.82"/>
</a>
</g>
</g>
</g>
</svg>
